<svg width="336" height="319" viewBox="0 0 336 319" fill="none" xmlns="http://www.w3.org/2000/svg">
<path opacity="0.2" d="M6.4043 166.129C6.4043 250.299 74.534 318.533 158.576 318.533C242.617 318.533 310.747 250.299 310.747 166.129C310.747 81.9579 242.617 13.7245 158.576 13.7245C74.534 13.7245 6.4043 81.9579 6.4043 166.129Z" stroke="#363636" stroke-width="0.324077"/>
<circle opacity="0.3" r="152.333" transform="matrix(-1 0 0 1 183.667 152.333)" fill="#EAEAEA"/>
<g opacity="0.3" filter="url(#filter0_f_1089_32319)">
<circle r="6.9771" transform="matrix(-1 0 0 1 51.3344 271.177)" fill="#8224E3"/>
</g>
<g clip-path="url(#clip0_1089_32319)">
<path fill-rule="evenodd" clip-rule="evenodd" d="M182.883 216.529C172.784 214.903 165.16 218.441 157.829 217.424C151.982 216.613 148.935 210.699 141.078 209.023C142.946 207.921 145.124 206.542 146.165 205.54C148.187 203.593 151.09 199.698 146.165 199.544C142.621 199.433 139.859 205.337 138.59 208.658C137.427 208.561 136.168 208.554 134.795 208.656C136.417 203.428 139.58 193.312 140.354 191.369C141.405 188.724 136.984 179.906 131.774 189.802C128.118 196.742 130.6 204.764 132.408 208.935C130.981 209.165 129.634 209.496 128.346 209.9C124.041 200.074 110.341 172.064 95.4915 175.545C79.3016 179.339 113.987 198.17 122.734 212.131C115.588 215.443 109.309 219.467 98.4546 216.529C69.6103 208.72 67.3223 226.29 67.3223 226.29L196.224 226.334C196.224 226.334 192.982 218.154 182.883 216.529Z" fill="#ACD29A"/>
<path fill-rule="evenodd" clip-rule="evenodd" d="M147.818 153.305C147.95 154.544 149.706 154.499 151.689 154.202C153.673 153.905 153.16 154.426 155.95 154.372C158.738 154.319 159.67 153.366 159.791 152.963C159.9 152.606 158.547 152.352 157.099 152.05C156.916 152.013 156.734 151.972 156.551 151.934C154.918 151.575 153.804 150.399 152.384 149.386C151.037 148.427 150.13 144.032 150.13 144.032L146.165 144.008C146.165 144.008 147.411 147.983 148.06 149.366C148.441 150.179 148.035 151.223 147.906 152.005C147.838 152.431 147.771 152.867 147.818 153.305Z" fill="#FFB07B"/>
<path fill-rule="evenodd" clip-rule="evenodd" d="M151.69 154.202C153.673 153.905 153.161 154.426 155.951 154.373C158.739 154.319 159.671 153.366 159.792 152.963C159.901 152.606 158.548 152.352 157.099 152.05L157.083 152.077C157.083 152.077 155.321 153.1 153.016 152.946C151.139 152.821 149.203 152.102 147.907 152.005C147.838 152.431 147.771 152.867 147.819 153.305C147.95 154.544 149.707 154.499 151.69 154.202Z" fill="#365DA4"/>
<path fill-rule="evenodd" clip-rule="evenodd" d="M116.816 153.107C116.902 154.352 118.657 154.374 120.651 154.151C122.645 153.929 122.113 154.431 124.903 154.481C127.691 154.534 128.657 153.615 128.795 153.218C128.916 152.864 127.575 152.561 126.138 152.204C125.957 152.161 125.777 152.113 125.596 152.067C123.977 151.647 122.908 150.43 121.526 149.365C120.218 148.355 121.295 144.169 121.295 144.169L118.285 142.748C118.285 142.748 117.872 147.063 117.648 149.245C117.557 150.138 117.111 151.036 116.955 151.814C116.87 152.237 116.786 152.668 116.816 153.107Z" fill="#FFB07B"/>
<path fill-rule="evenodd" clip-rule="evenodd" d="M120.651 154.151C122.645 153.929 122.113 154.431 124.903 154.482C127.691 154.534 128.657 153.615 128.795 153.218C128.916 152.864 127.575 152.561 126.138 152.204L126.122 152.231C126.122 152.231 124.32 153.187 122.023 152.945C120.152 152.749 118.245 151.959 116.955 151.814C116.87 152.237 116.786 152.668 116.816 153.108C116.902 154.352 118.657 154.374 120.651 154.151Z" fill="#365DA4"/>
<path fill-rule="evenodd" clip-rule="evenodd" d="M123.575 90.9798C123.575 90.9798 122.742 95.0155 121.907 115.481C121.907 115.481 120.358 119.271 119.235 123.904C118.112 128.538 117.32 147.872 117.32 147.872C117.32 147.872 117.768 148.517 119.127 148.599C120.237 148.665 121.102 148.179 121.102 148.179C121.102 148.179 128.908 122.856 132.707 113.025C136.508 103.194 138.735 89.156 138.735 89.156L123.575 90.9798Z" fill="#2B478B"/>
<path fill-rule="evenodd" clip-rule="evenodd" d="M132.965 92.7076C132.965 92.7076 133.58 96.7823 139.883 116.272C139.883 116.272 139.742 120.362 140.293 125.098C140.844 129.834 147.224 148.479 147.224 148.479C147.224 148.479 148.071 148.774 149.342 148.438C150.523 148.126 151.451 147.416 151.451 147.416C151.451 147.416 149.005 120.766 149.166 110.227C149.327 99.6884 146.555 85.7478 146.555 85.7478L132.965 92.7076Z" fill="#2B478B"/>
<path fill-rule="evenodd" clip-rule="evenodd" d="M144.127 36.2632C143.139 35.6344 141.924 35.5105 141.069 35.5182C141.3 35.3026 141.736 35.2416 141.736 35.2416C141.211 35.1367 140.005 35.6019 140.005 35.6019C132.796 32.4018 131.098 43.1681 131.128 45.6907C131.155 48.2127 131.03 51.1082 127.247 53.1801C119.805 57.2566 125.51 65.3084 125.51 65.3084C124.17 69.1522 129.13 73.8617 129.13 73.8617C129.045 71.8203 138.416 58.8146 143.469 55.8476C144.747 54.154 145.325 51.078 145.368 50.8358C145.04 53.2812 144.551 54.6376 144.138 55.3944C148.47 51.7891 146.745 37.9291 144.127 36.2632Z" fill="#363636"/>
<path fill-rule="evenodd" clip-rule="evenodd" d="M142.555 54.4547C142.581 54.4662 140.192 55.7065 138.394 55.2152C136.704 54.7544 135.599 52.5619 135.622 52.5569C136.338 52.4148 136.545 51.4309 136.529 47.2036L136.853 47.2671L142.1 48.3068L142.295 48.3449C142.295 48.3449 142.171 50.0573 142.167 51.6709C142.165 52.0123 142.171 52.3486 142.183 52.6636C142.219 53.6003 142.324 54.3455 142.555 54.4547Z" fill="#FFB07B"/>
<path fill-rule="evenodd" clip-rule="evenodd" d="M142.168 51.6708C142.166 52.0122 142.172 52.3485 142.184 52.6635C139.133 52.5403 137.374 49.0505 136.709 47.5195L142.1 48.3067L142.296 48.3448C142.296 48.3448 142.172 50.0572 142.168 51.6708Z" fill="#EA8E50"/>
<path fill-rule="evenodd" clip-rule="evenodd" d="M136.293 46.6746C136.293 46.6746 134.696 44.1531 134.314 41.997C134.039 40.4576 134.823 34.7516 140.558 35.5734C140.558 35.5734 142.223 35.7376 143.788 36.7948C145.034 37.6356 146.83 39.4508 144.82 44.43L144.299 46.112L136.293 46.6746Z" fill="#363636"/>
<path fill-rule="evenodd" clip-rule="evenodd" d="M142.617 50.88C142.617 50.88 135.472 49.9356 136.13 45.4958C136.787 41.0559 136.306 37.944 140.895 38.3591C145.485 38.7743 146.118 40.5992 146.26 42.1345C146.4 43.6697 144.492 51.0112 142.617 50.88Z" fill="#FFB07B"/>
<path fill-rule="evenodd" clip-rule="evenodd" d="M144.156 38.7339C144.156 38.7339 141.429 43.6511 138.32 43.9749C135.211 44.2989 134.032 43.3029 134.032 43.3029C134.032 43.3029 136.601 41.8206 137.552 38.7064C137.552 38.7064 143.054 36.0358 144.156 38.7339Z" fill="#363636"/>
<path fill-rule="evenodd" clip-rule="evenodd" d="M143.609 39.0848C143.609 39.0848 144.894 40.4646 145.08 41.6479C145.267 42.8313 145.08 45.1821 145.77 45.2041C145.77 45.2041 147.767 41.8832 146.414 39.6347C144.979 37.2504 143.609 39.0848 143.609 39.0848Z" fill="#363636"/>
<path fill-rule="evenodd" clip-rule="evenodd" d="M191.053 99.4063C189.554 96.2317 185.387 93.6048 181.877 93.6036C179.285 93.603 176.998 94.4876 175.228 95.929C174.216 96.7529 172.691 96.2096 172.416 94.9339L169.343 80.658C168.895 78.5764 166.844 77.2519 164.762 77.6999L115.043 88.4007C113.009 88.8384 111.716 90.8419 112.153 92.8759L122.842 142.541C123.148 143.961 124.191 145.033 125.481 145.445L124.828 145.63H126.76L126.774 145.627C127.01 145.62 127.249 145.593 127.49 145.541L128.571 145.308L141.333 142.562C143.123 142.177 143.849 140.01 142.647 138.629C141.484 137.295 140.647 135.643 140.292 133.771C139.287 128.496 142.548 123.271 147.731 121.867C153.495 120.305 159.317 123.904 160.558 129.667C161.024 131.836 160.775 133.992 159.967 135.888C159.653 136.625 159.911 137.39 160.451 137.826L159.707 138.189L161.432 138.188V138.188C161.56 138.191 161.693 138.18 161.829 138.151L177.065 134.871C179.149 134.423 180.473 132.372 180.025 130.289L176.971 116.101C176.689 114.788 177.887 113.638 179.188 113.972C180.691 114.358 182.306 114.41 183.926 114.062C190.302 112.689 194.03 105.712 191.053 99.4063Z" fill="#D86713"/>
<path fill-rule="evenodd" clip-rule="evenodd" d="M180.12 93.6036C177.528 93.603 175.241 94.4876 173.471 95.929C172.46 96.7529 170.934 96.2096 170.659 94.9339L167.587 80.658C167.139 78.5764 165.089 77.2519 163.007 77.6999L113.288 88.4007C111.254 88.8384 109.959 90.8419 110.398 92.8759L121.087 142.541C121.541 144.652 123.621 145.996 125.733 145.541L139.576 142.562C141.366 142.177 142.094 140.01 140.89 138.629C139.728 137.295 138.892 135.643 138.535 133.771C137.531 128.496 140.791 123.271 145.975 121.867C151.74 120.305 157.562 123.904 158.801 129.668C159.269 131.836 159.018 133.992 158.21 135.888C157.686 137.12 158.764 138.432 160.074 138.151L175.31 134.871C177.392 134.423 178.717 132.372 178.268 130.289L175.216 116.101C174.932 114.788 176.13 113.638 177.431 113.972C178.935 114.358 180.549 114.41 182.171 114.062C188.546 112.689 192.273 105.712 189.296 99.4063C187.797 96.2317 183.632 93.6048 180.12 93.6036Z" fill="#FFC331"/>
<path fill-rule="evenodd" clip-rule="evenodd" d="M161.929 74.7227C161.929 74.7227 165.031 75.2309 165.843 77.2477C166.656 79.2644 165.521 80.6299 165.084 80.6253C164.648 80.6206 163.81 80.2981 163.419 79.252C163.026 78.2063 161.929 74.7227 161.929 74.7227Z" fill="#FFB07B"/>
<path fill-rule="evenodd" clip-rule="evenodd" d="M119.235 83.7219C119.235 83.7219 122.717 83.7174 123.97 85.7751C125.221 87.8328 124.228 89.5301 123.75 89.6039C123.272 89.6776 122.298 89.4759 121.682 88.4036C121.065 87.3312 119.235 83.7219 119.235 83.7219Z" fill="#FFB07B"/>
<path fill-rule="evenodd" clip-rule="evenodd" d="M162.016 77.0633C161.708 76.9974 160.358 76.8388 158.642 76.5686C155.48 76.0727 151.075 75.1997 149.596 73.8359C149.196 73.4657 148.262 71.4283 147.293 69.0927C146.313 74.2635 146.258 78.2294 146.518 81.2487L125.155 85.8466C126.986 82.1435 129.823 77.5518 129.291 73.8359C129.094 72.4583 128.338 70.5679 128.056 68.4444C128.033 68.2617 128.012 68.0791 127.996 67.8937C125 70.36 121.54 73.0811 121.456 73.6255C121.319 74.5375 123.652 84.6369 123.652 84.6369C123.072 85.9703 120.556 85.6898 120.556 85.6898C118.199 84.0065 114.731 74.4664 115.009 72.353C115.287 70.2395 123.883 58.1953 125.963 55.3167C128.018 52.4724 135.522 52.5434 135.702 52.5448H135.704C135.705 52.5448 135.705 52.5448 135.707 52.5448C141.673 56.1273 142.211 53.1498 142.211 53.1498C142.211 53.1498 147.595 54.1737 148.519 55.7632C149.445 57.354 153.503 69.4136 153.79 69.8385C154.39 70.7267 164.198 74.2801 164.374 75.3088C164.552 76.3376 162.895 77.2498 162.016 77.0633Z" fill="#6B67E9"/>
<path fill-rule="evenodd" clip-rule="evenodd" d="M132.603 84.2507L125.155 85.8467C127.01 82.1538 129.447 77.5547 128.914 73.8618C128.716 72.4832 128.268 70.8516 128.053 68.7185C128.032 68.5128 127.996 67.8938 127.996 67.8938C127.996 67.8938 133.271 72.0452 133.363 76.5378C133.413 78.8684 133.005 81.9173 132.603 84.2507Z" fill="#6B67E9"/>
<path fill-rule="evenodd" clip-rule="evenodd" d="M158.839 76.5965C155.64 76.0996 151.179 75.2267 149.682 73.8622C149.278 73.4916 148.332 71.4521 147.351 69.1135C147.351 69.1135 147.008 65.3543 147.99 65.4948C148.973 65.635 150.419 72.3028 151.451 72.7238C152.374 73.1013 157.478 75.0609 158.839 76.5965Z" fill="#6B67E9"/>
<path fill-rule="evenodd" clip-rule="evenodd" d="M316.438 219.807C315.987 221.328 313.905 222.34 313.624 224.198C313.487 225.105 313.149 225.808 312.719 226.292H306.237C306.303 225.935 306.587 225.551 307.429 225.367C309.23 224.973 309.908 222.791 309.798 220.765C309.75 219.916 309.772 218.947 309.814 218.109C309.871 216.949 309.966 216.038 309.966 216.038L313.793 215.137L314.195 215.654L314.58 216.151C314.58 216.151 316.887 218.288 316.438 219.807Z" fill="#2C3A64"/>
<path fill-rule="evenodd" clip-rule="evenodd" d="M286.256 226.292H273.142C273.439 225.944 273.942 225.608 274.795 225.469C276.813 225.142 280.307 223.971 281.087 221.39C281.112 221.308 281.135 221.223 281.154 221.136C281.772 218.379 286.275 221.982 286.275 221.982C286.275 221.982 286.289 222.092 286.309 222.279C286.389 223.055 286.563 225.161 286.256 226.292Z" fill="#2C3A64"/>
<path fill-rule="evenodd" clip-rule="evenodd" d="M275.33 153.236C275.33 153.236 276.013 161.767 276.818 172.021C277.909 185.95 279.222 203.061 279.352 206.302C279.577 211.931 280.478 220.933 280.478 220.933C280.478 220.933 282.615 223.072 286.894 222.171C286.894 222.171 290.705 209.319 291.796 195.721C291.812 195.497 291.828 195.273 291.846 195.049C292.859 181.204 294.433 152.055 294.433 152.055L275.33 153.236Z" fill="#35488B"/>
<path fill-rule="evenodd" clip-rule="evenodd" d="M275.33 153.236C275.33 153.236 276.013 161.767 276.818 172.021L291.796 195.721C291.812 195.497 291.828 195.273 291.846 195.049C292.859 181.204 294.433 152.055 294.433 152.055L275.33 153.236Z" fill="#2C3A64"/>
<path fill-rule="evenodd" clip-rule="evenodd" d="M278.451 154.249C278.451 154.249 290.775 185.144 298.879 199.662C306.982 214.181 309.515 218.233 309.515 218.233C309.515 218.233 314.158 216.375 314.579 215.109C314.579 215.109 311.481 187.079 306.055 180.247C302.987 176.386 299.385 164.8 299.216 160.748C299.047 156.696 298.12 148.677 298.12 148.677L278.451 154.249Z" fill="#35488B"/>
<path fill-rule="evenodd" clip-rule="evenodd" d="M284.774 106.56C284.226 103.325 284.208 101.407 284.208 101.407L290.461 96.3677C290.229 103.297 294.669 106.629 294.669 106.629C294.669 106.629 286.336 110.73 281.52 109.211C281.52 109.211 282.705 107.696 284.774 106.56Z" fill="#935C2F"/>
<path fill-rule="evenodd" clip-rule="evenodd" d="M282.735 101.293C282.735 101.293 290.691 102.614 291.437 97.6477C292.184 92.6811 293.713 89.5068 288.665 88.453C283.619 87.3994 282.345 89.1458 281.693 90.7428C281.04 92.34 280.686 100.821 282.735 101.293Z" fill="#A16D3C"/>
<path fill-rule="evenodd" clip-rule="evenodd" d="M254.797 111.531L253.103 110.482C253.103 110.482 250.992 107.365 247.385 109.302C247.385 109.302 245.957 110.213 246.914 110.975C247.875 111.738 247.616 111.307 248.944 112.412C250.273 113.517 251.991 113.911 253.1 113.302L254.522 113.168L254.797 111.531Z" fill="#A16D3C"/>
<path fill-rule="evenodd" clip-rule="evenodd" d="M252.786 111.857C253.222 110.493 253.43 110.372 253.43 110.372C253.43 110.372 267.125 111.991 268.417 112.086C269.707 112.182 287.639 108.487 287.639 108.487L296.106 118.768C296.106 118.768 271.142 119.71 267.876 119.404C262.477 118.898 252.686 113.871 252.686 113.871C252.686 113.871 252.443 112.929 252.786 111.857Z" fill="#283074"/>
<path fill-rule="evenodd" clip-rule="evenodd" d="M299.061 150.256C299.085 150.787 297.991 151.369 297.516 151.583C293.941 153.185 290.612 154.299 286.85 154.661C282.388 155.119 277.114 154.116 275.306 154.14C275.111 154.14 274.944 154.068 274.799 153.947C274.678 153.85 274.581 148.399 274.678 141.527C274.678 141.261 274.678 140.971 274.702 140.706V140.61C274.71 139.894 274.72 139.167 274.737 138.433C274.781 136.424 274.856 134.362 274.944 132.313C275.074 129.292 275.253 126.323 275.503 123.693C275.763 120.946 276.091 118.566 276.511 116.879C277.476 112.996 279.695 110.439 281.72 108.558L283.384 107.088C285.047 107.425 286.81 107.328 288.569 106.461C290.475 105.52 292.549 104.507 292.885 104.748C295.457 106.67 297.188 111.033 298.075 116.577C298.553 119.562 298.786 122.887 298.772 126.36C298.768 127.692 298.726 129.044 298.65 130.408C298.22 137.731 298.66 144.08 298.913 147.77C298.986 148.831 299.044 149.675 299.061 150.256Z" fill="#283074"/>
<path fill-rule="evenodd" clip-rule="evenodd" d="M256.771 82.5588L206.465 74.5694C204.325 74.2296 202.316 75.6881 201.976 77.8274L199.749 91.8488C199.646 92.4983 199.812 94.3236 199.812 94.3236L201.625 94.5933C201.728 94.6159 201.832 94.6317 201.938 94.6402C202.267 94.6666 202.609 94.6257 202.951 94.5022C204.619 93.8984 206.466 93.7149 208.345 94.0595C213.641 95.0306 217.346 99.9717 216.782 105.326C216.154 111.281 210.682 115.422 204.844 114.495C202.648 114.146 200.723 113.131 199.243 111.689C198.956 111.409 198.609 111.261 198.261 111.226L196.363 110.941L194 128.045C193.666 130.154 195.104 132.136 197.214 132.471L211.584 134.753C212.915 134.964 213.557 136.501 212.773 137.596C211.868 138.862 211.235 140.353 210.974 141.995C209.948 148.453 215.123 154.464 222.095 153.963C225.607 153.713 229.572 150.768 230.844 147.486C231.784 145.062 231.784 142.604 231.077 140.428C230.672 139.183 231.734 137.953 233.026 138.159L247.486 140.455C249.595 140.79 251.576 139.352 251.911 137.243L259.908 86.8815C260.236 84.8214 258.832 82.8862 256.771 82.5588Z" fill="#4A75CB"/>
<path fill-rule="evenodd" clip-rule="evenodd" d="M293.07 116.428C293.07 116.428 289.214 134.424 274.736 138.433C274.781 136.424 274.856 134.362 274.944 132.313C275.074 129.292 275.253 126.323 275.502 123.693C275.761 123.559 276.003 123.455 276.225 123.382C281.137 121.762 293.07 116.428 293.07 116.428Z" fill="#283074"/>
<path fill-rule="evenodd" clip-rule="evenodd" d="M228.983 147.205C229.923 144.781 229.924 142.323 229.218 140.147C228.813 138.903 229.873 137.673 231.167 137.878L245.626 140.174C247.735 140.509 249.716 139.071 250.05 136.963L258.049 86.6007C258.376 84.5406 256.971 82.6054 254.911 82.2782L204.604 74.2886C202.465 73.949 200.457 75.4076 200.116 77.5466L197.889 91.5683C197.601 93.3821 199.363 94.8464 201.091 94.2214C202.758 93.6176 204.607 93.4342 206.486 93.7787C211.782 94.7496 215.485 99.6909 214.922 105.045C214.295 111.001 208.823 115.141 202.984 114.214C200.788 113.865 198.863 112.85 197.382 111.408C196.42 110.471 194.802 111.004 194.592 112.331L192.141 127.764C191.807 129.874 193.245 131.855 195.354 132.19L209.725 134.473C211.054 134.684 211.698 136.22 210.914 137.315C210.007 138.582 209.374 140.072 209.114 141.714C208.088 148.172 213.263 154.183 220.236 153.683C223.747 153.432 227.712 150.487 228.983 147.205Z" fill="#377DFF"/>
<path fill-rule="evenodd" clip-rule="evenodd" d="M254.855 123.133L252.787 122.791C252.787 122.791 250.428 119.378 246.318 121.293C246.318 121.293 244.689 122.204 245.767 123.058C246.844 123.911 246.557 123.441 248.051 124.674C249.543 125.908 251.487 126.401 252.749 125.798L254.362 125.714L254.855 123.133Z" fill="#A16D3C"/>
<path fill-rule="evenodd" clip-rule="evenodd" d="M253.274 124.184C253.341 122.662 254.152 122.5 254.152 122.5C254.152 122.5 269.82 121.463 271.171 121.201C272.523 120.939 285.002 110.6 285.002 110.6C285.002 110.6 289.828 106.262 293.209 107.726C296.148 108.998 297.068 111.507 297.216 113.814C297.392 116.564 295.84 119.135 293.343 120.301C287.74 122.919 276.531 128.057 273.979 128.5C268.298 129.487 253.695 126.325 253.695 126.325C253.695 126.325 253.221 125.38 253.274 124.184Z" fill="#283074"/>
<path fill-rule="evenodd" clip-rule="evenodd" d="M281.693 90.7428C281.693 90.7428 278.464 88.3487 280.57 84.6287C280.57 84.6287 283.108 85.4709 286.717 84.6287C290.325 83.7866 293.554 84.9797 293.975 86.2429C293.975 86.2429 295.379 86.8046 295.519 88.91C295.659 91.0155 291.437 97.6477 291.437 97.6477C291.437 97.6477 290.535 96.5251 290.78 95.7531C291.027 94.981 291.799 93.2614 290.85 93.2614C289.904 93.2614 289.589 94.6653 289.202 94.1037C288.816 93.5422 289.518 91.191 288.395 90.8049C287.272 90.4189 282.956 91.4528 281.693 90.7428Z" fill="#2C3A64"/>
<path fill-rule="evenodd" clip-rule="evenodd" d="M171.956 224.5L157.735 159.933H161.65C162.579 159.933 163.337 159.174 163.337 158.245V156.065C163.337 155.137 162.579 154.378 161.65 154.378H111.994C111.066 154.378 110.307 155.137 110.307 156.065V158.245C110.307 159.174 111.066 159.933 111.994 159.933H117.034L102.813 224.5C102.622 225.367 103.173 226.235 104.038 226.426C104.904 226.619 105.769 226.065 105.96 225.197L120.335 159.933H154.435L168.809 225.197C169.001 226.065 169.865 226.619 170.73 226.426C171.596 226.235 172.147 225.367 171.956 224.5Z" fill="#C3E0F4"/>
<path fill-rule="evenodd" clip-rule="evenodd" d="M266.259 184.959C260.994 179.906 242.047 211.789 242.047 211.789C242.047 211.789 271.522 190.013 266.259 184.959Z" fill="#ACD29A"/>
<path fill-rule="evenodd" clip-rule="evenodd" d="M265.628 199.698C260.968 197.834 246.077 213.533 242.722 217.158C240.157 216.817 237.341 216.596 234.256 216.541C210.676 216.12 199.979 226.8 199.979 226.8L265.759 227.024C265.759 227.024 259.933 219.625 243.402 217.252C247.442 215.345 259.388 209.788 263.732 208.72C268.997 207.425 270.891 201.802 265.628 199.698Z" fill="#ACD29A"/>
<path fill-rule="evenodd" clip-rule="evenodd" d="M247.075 167.699H232.876C231.039 167.699 229.87 169.669 230.759 171.276C231.616 172.829 228.598 186.283 222.238 186.634C216.259 186.964 211.311 182.193 211.311 176.282C211.311 174.058 212.011 171.997 213.203 170.309C213.978 169.212 213.197 167.699 211.854 167.699H196.227C194.091 167.699 192.36 169.43 192.36 171.565C192.36 171.565 190.943 188.338 189.739 187.737C188.498 187.117 187.115 186.739 185.652 186.664L185.653 186.663H185.638C185.463 186.654 185.289 186.649 185.111 186.649C184.935 186.649 182.361 186.604 182.361 186.604L181.972 207.332L184.206 207.356C186.33 207.292 188.174 207.093 189.814 206.258C190.979 205.664 192.36 206.518 192.36 207.827V222.469C192.36 224.603 194.091 226.334 196.225 226.334H247.218C249.305 226.334 250.995 224.643 250.995 222.557V171.619C250.995 169.454 249.24 167.699 247.075 167.699Z" fill="#D86713"/>
<path fill-rule="evenodd" clip-rule="evenodd" d="M180.055 207.09C182.597 207.638 185.024 207.253 187.063 206.214C188.229 205.619 189.61 206.475 189.61 207.783V222.424C189.61 224.559 191.341 226.29 193.475 226.29H244.468C246.555 226.29 248.245 224.6 248.245 222.513V171.576C248.245 169.41 246.49 167.654 244.325 167.654H230.127C228.29 167.654 227.12 169.624 228.009 171.232C228.866 172.785 229.338 174.582 229.292 176.491C229.163 181.873 224.865 186.307 219.489 186.591C213.509 186.905 208.561 182.149 208.561 176.238C208.561 174.014 209.261 171.953 210.453 170.266C211.228 169.168 210.447 167.654 209.105 167.654H193.477C191.341 167.654 189.61 169.386 189.61 171.522V186.073C189.61 187.42 188.193 188.295 186.989 187.693C185.596 186.997 184.025 186.604 182.361 186.604C175.823 186.604 170.699 192.659 172.286 199.468C173.085 202.895 176.614 206.349 180.055 207.09Z" fill="#FFC331"/>
<path fill-rule="evenodd" clip-rule="evenodd" d="M32.41 226.576L41.5748 226.643C41.5748 226.643 41.2559 224.425 35.0866 223.853C32.6948 217.21 25.6683 199.338 19.5668 200.182C13.5424 201.017 27.8101 217.413 33.6144 223.789C32.7932 223.79 32.0276 223.856 31.3211 223.97C29.9229 221.186 27.1504 217.251 22.701 217.43C17.9656 217.621 24.4169 221.946 28.8585 224.601C26.6088 225.408 25.3938 226.525 25.3938 226.525L32.3059 226.576C32.3873 226.619 32.4313 226.643 32.4313 226.643C32.4313 226.643 32.4242 226.619 32.41 226.576Z" fill="#ACD29A"/>
<path fill-rule="evenodd" clip-rule="evenodd" d="M65.1547 152.518L66.5106 153.618C66.5106 153.618 70.2202 152.288 71.0573 156.696C71.0573 156.696 71.2802 158.575 70.0903 158.578C68.9003 158.583 69.3912 158.373 67.7061 158.423C66.021 158.472 64.6243 157.583 64.3775 156.215L63.5713 155.056L65.1547 152.518Z" fill="#EA8E50"/>
<path fill-rule="evenodd" clip-rule="evenodd" d="M65.0015 154.88C66.0833 153.751 65.9962 152.916 65.9962 152.916C65.9962 152.916 53.4686 142.659 52.1981 141.824C51.3323 141.254 42.1063 133.075 37.7936 128.089C35.6545 125.615 33.0047 126.575 29.9731 127.445L27.4765 128.161C24.4618 129.026 23.6777 133.243 26.1513 135.291C33.1176 141.062 44.7064 147.552 46.8746 148.916C52.2575 152.303 62.794 156.326 62.794 156.326C62.794 156.326 64.0725 155.851 65.0015 154.88Z" fill="#1E3D70"/>
<path fill-rule="evenodd" clip-rule="evenodd" d="M79.6626 217.79C79.6626 217.79 82.7028 220.067 87.3612 218.865C87.3612 218.865 91.1176 218.008 91.9405 219.882C91.9405 219.882 86.1807 222.808 84.7229 223.608C83.6244 224.211 82.4779 225.163 81.6674 225.899C81.026 226.482 80.0268 226.402 79.4801 225.73C79.2266 225.42 78.9366 225.048 78.6188 224.618C77.7308 223.414 75.6611 219.526 75.6611 219.526L79.6626 217.79Z" fill="#233862"/>
<path fill-rule="evenodd" clip-rule="evenodd" d="M81.0829 216.738C81.0829 216.738 79.2316 221.006 74.9584 220.222C74.9584 220.222 66.2383 213.021 60.257 205.54C58.3145 203.11 56.6605 200.65 55.6885 198.4C51.7222 189.216 41.0166 175.52 34.21 168.578L51.2396 162.418C51.2396 162.418 56.6944 173.39 63.9518 186.869C69.1824 196.579 75.3474 207.592 81.0829 216.738Z" fill="#363636"/>
<path fill-rule="evenodd" clip-rule="evenodd" d="M63.9518 186.869L60.257 205.54C58.3145 203.11 56.6605 200.65 55.6885 198.4C51.7222 189.216 41.0166 175.52 34.21 168.578L51.2396 162.418C51.2396 162.418 56.6943 173.39 63.9518 186.869Z" fill="#363636"/>
<path fill-rule="evenodd" clip-rule="evenodd" d="M49.9866 220.212C49.9866 220.212 49.8009 223.617 53.9302 224.073C53.9302 224.073 56.2897 224.085 56.2964 226.252L44.2954 226.29C44.2954 226.29 43.947 225.415 43.8625 223.542C43.7975 222.104 45.2566 218.344 45.2566 218.344L49.9866 220.212Z" fill="#233862"/>
<path fill-rule="evenodd" clip-rule="evenodd" d="M45.6536 162.418C45.6536 162.418 53.2401 170.754 58.0559 185.773C60.6761 193.943 53.2534 214.489 51.8064 221.626C51.8064 221.626 46.827 222.049 43.4224 220.733C43.4224 220.733 43.1637 205.99 45.1549 194.626C46.2692 188.267 35.1659 181.025 30.3142 169.534C27.0137 161.717 31.029 161.85 35.9636 161.662L45.6536 162.418Z" fill="#363636"/>
<path fill-rule="evenodd" clip-rule="evenodd" d="M36.8952 125.226C32.6742 127.61 24.0332 125.412 24.0332 125.412C24.0332 125.412 27.5424 121.4 25.9478 114.939L32.8219 118.43C32.8219 118.43 33.0519 119.571 33.212 121.62C33.2528 122.148 33.2892 122.738 33.3145 123.382C35.4816 124.039 36.8952 125.226 36.8952 125.226Z" fill="#FFB07B"/>
<path fill-rule="evenodd" clip-rule="evenodd" d="M52.3731 161.988C52.3731 162.729 51.5185 163.084 51.3369 163.12C49.6347 163.432 44.8811 165.281 40.5989 165.705C36.9932 166.083 33.6455 165.723 29.9677 164.985C29.4808 164.887 28.3374 164.579 28.2562 164.113C28.1548 163.602 14.0702 135.4 25.0194 123.285C25.2764 123.001 27.4378 123.513 29.4142 123.982C31.2395 124.415 32.9138 124.174 34.4091 123.574L36.2626 124.549C38.5388 125.818 42.846 130.324 43.3499 133.86C43.6059 135.658 44.6343 136.99 44.9318 138.572C45.0423 139.157 45.1552 139.729 45.27 140.285C45.4943 141.378 45.7257 142.417 45.9634 143.406C46.6073 146.081 47.2871 148.383 47.9547 150.372C48.665 152.483 49.3617 154.24 49.984 155.709C50.7912 157.615 51.4734 159.04 51.8997 160.13C52.2007 160.898 52.3731 161.499 52.3731 161.988Z" fill="#2A4E96"/>
<path fill-rule="evenodd" clip-rule="evenodd" d="M51.8995 160.13C32.0174 150.762 25.1318 132.775 25.1318 132.775C25.1318 132.775 41.2854 138.734 45.2698 140.285C45.4942 141.378 45.7255 142.417 45.9633 143.406C46.6071 146.081 47.2869 148.383 47.9545 150.372C48.6648 152.483 49.3615 154.24 49.9838 155.709C50.791 157.615 51.4732 159.04 51.8995 160.13Z" fill="#1E3D70"/>
<path fill-rule="evenodd" clip-rule="evenodd" d="M108.059 140.208L103.8 126.703C103.386 125.392 102.03 124.771 100.845 125.105L100.842 125.106C100.779 125.123 100.716 125.145 100.655 125.168L99.1614 125.667C99.1614 125.667 96.8226 128.075 95.1455 128.56C89.987 130.052 85.091 127.303 83.2091 122.274C81.1159 116.681 83.5444 110.538 89.167 108.765C91.0907 108.159 94.8766 109.289 94.8766 109.289L96.397 108.784C97.2229 108.533 97.7889 107.642 97.4947 106.707L92.8067 91.8437C92.166 89.8121 90.0005 88.6844 87.9683 89.3252L74.1276 93.69C72.8467 94.094 71.5894 93.0092 71.8007 91.683C72.045 90.1495 71.9461 88.5373 71.4475 86.9556C69.486 80.736 62.1905 77.6773 56.1907 81.2296C53.17 83.0182 50.9437 87.4117 51.2703 90.907C51.5117 93.4883 52.6059 95.6822 54.2062 97.3095C55.1211 98.2397 54.7223 99.81 53.478 100.202L39.5513 104.594C37.5206 105.235 36.3936 107.4 37.034 109.431L52.3302 157.935C52.9559 159.918 55.0715 161.019 57.0556 160.393L105.506 145.114C107.565 144.464 108.709 142.268 108.059 140.208Z" fill="#4A75CB"/>
<path fill-rule="evenodd" clip-rule="evenodd" d="M49.7967 91.3984C50.038 93.9797 51.1323 96.1736 52.7327 97.8008C53.6474 98.7311 53.2487 100.301 52.0043 100.694L38.0778 105.086C36.0471 105.726 34.92 107.891 35.5604 109.922L50.8566 158.426C51.4822 160.409 53.5978 161.51 55.5819 160.884L104.032 145.605C106.093 144.955 107.235 142.759 106.586 140.699L102.326 127.195C101.775 125.448 99.5514 124.926 98.288 126.253C97.0693 127.535 95.5011 128.522 93.6717 129.052C88.5132 130.544 83.0064 127.785 81.1245 122.756C79.0312 117.162 82.0707 111.03 87.6935 109.256C89.8081 108.589 91.9781 108.638 93.942 109.265C95.2174 109.673 96.4241 108.476 96.0209 107.199L91.3329 92.3348C90.6922 90.3033 88.5262 89.1759 86.4948 89.8165L72.654 94.1816C71.3732 94.5854 70.1157 93.5007 70.327 92.1744C70.5712 90.6407 70.4725 89.0287 69.9737 87.4468C68.0122 81.2271 60.7172 78.1685 54.7172 81.7209C51.6964 83.5096 49.4699 87.9031 49.7967 91.3984Z" fill="#377DFF"/>
<path fill-rule="evenodd" clip-rule="evenodd" d="M63.5321 154.701L65.2502 155.331C65.2502 155.331 68.6908 152.899 70.8326 156.855C70.8326 156.855 71.6076 158.583 70.3811 158.958C69.1546 159.334 69.6005 158.98 67.8766 159.555C66.1528 160.128 64.4545 159.715 63.8033 158.484L62.6357 157.627L63.5321 154.701Z" fill="#FFB07B"/>
<path fill-rule="evenodd" clip-rule="evenodd" d="M64.9462 157.131C65.5816 155.473 65.8717 154.722 65.8717 154.722C65.8717 154.722 52.8895 144.14 51.5669 143.233C50.6653 142.614 41.6917 135.907 37.3167 130.679C35.1464 128.086 31.7246 126.901 28.4151 127.595L25.69 128.166C22.3993 128.856 21.3301 133.021 23.8827 135.21C31.0721 141.373 43.1977 148.522 45.4585 150.008C51.0711 153.699 63.4852 158.871 63.4852 158.871C63.4852 158.871 64.4476 158.432 64.9462 157.131Z" fill="#2A4E96"/>
<path fill-rule="evenodd" clip-rule="evenodd" d="M33.2122 121.62C29.0616 121.853 26.3623 118.426 26.3623 118.426C26.3623 118.426 28.2388 117.387 29.2622 116.622L32.8221 118.43C32.8221 118.43 33.0521 119.571 33.2122 121.62Z" fill="#EA8E50"/>
<path fill-rule="evenodd" clip-rule="evenodd" d="M34.9811 117.359C34.9811 117.359 28.692 121.872 25.9416 117.912C23.1913 113.952 20.5272 111.868 24.4264 108.819C28.3256 105.77 30.1637 106.733 31.4031 107.832C32.6427 108.93 36.5461 116.083 34.9811 117.359Z" fill="#FFB07B"/>
<path fill-rule="evenodd" clip-rule="evenodd" d="M32.0666 104.256C31.8411 102.733 31.3338 101.662 31.3338 101.662C31.3338 101.662 30.939 103.297 27.9512 103.071C24.9635 102.846 20.2281 103.365 18.6495 106.77C18.549 106.987 18.4595 107.21 18.38 107.438C18.0942 106.683 18.0253 105.552 18.0253 105.552C17.4577 107.018 18.0253 108.851 18.0253 108.851H18.0255C18.0171 108.905 18.01 108.958 18.0022 109.012C17.343 109.569 16.7891 111.302 16.7891 111.302C16.9881 110.819 17.4734 110.504 17.9062 110.309C17.8927 112.959 18.967 115.548 20.8528 116.32C23.6105 117.447 23.5885 116.587 26.3619 118.426C26.3619 118.426 27.1056 117.503 26.5984 116.883C26.0908 116.263 24.1742 115.361 25.2454 114.459C26.3165 113.557 26.711 114.572 27.1056 113.952C27.5003 113.332 25.5273 111.528 28.064 109.837C30.6009 108.145 32.2921 105.777 32.0666 104.256Z" fill="#233862"/>
<path fill-rule="evenodd" clip-rule="evenodd" d="M193.968 226.314C193.968 226.314 190.786 221.613 185.81 221.992C184.297 222.107 181.839 222.476 178.984 222.869C176.83 215.354 170.895 197.492 162.889 196.485C154.713 195.459 170.713 215.324 177.256 223.102C176.062 223.258 174.823 223.412 173.573 223.548C170.108 219.849 164.071 214.369 159.031 214.79C153.979 215.213 163.438 220.437 170.268 223.854C166.077 224.168 162.105 224.134 159.678 223.196C153.732 220.897 148.268 226.314 148.268 226.314H193.968Z" fill="#82B378"/>
<path fill-rule="evenodd" clip-rule="evenodd" d="M328.924 227.31H0.610069C0.405094 227.31 0.237305 227.115 0.237305 226.874V226.726C0.237305 226.486 0.405094 226.29 0.610069 226.29H328.924C329.128 226.29 329.297 226.486 329.297 226.726V226.874C329.297 227.115 329.128 227.31 328.924 227.31Z" fill="#2E3552"/>
</g>
<defs>
<filter id="filter0_f_1089_32319" x="39.4963" y="259.339" width="23.6764" height="23.6764" filterUnits="userSpaceOnUse" color-interpolation-filters="sRGB">
<feFlood flood-opacity="0" result="BackgroundImageFix"/>
<feBlend mode="normal" in="SourceGraphic" in2="BackgroundImageFix" result="shape"/>
<feGaussianBlur stdDeviation="2.43058" result="effect1_foregroundBlur_1089_32319"/>
</filter>
<clipPath id="clip0_1089_32319">
<rect width="330" height="192.735" fill="white" transform="translate(0 34.6108)"/>
</clipPath>
</defs>
</svg>
