<svg width="330" height="319" viewBox="0 0 330 319" fill="none" xmlns="http://www.w3.org/2000/svg">
<path opacity="0.2" d="M0.162109 152.566C0.162109 68.3954 68.2918 0.162079 152.334 0.162079C236.375 0.162079 304.505 68.3954 304.505 152.566C304.505 236.737 236.375 304.97 152.334 304.97C68.2918 304.97 0.162109 236.737 0.162109 152.566Z" stroke="#363636" stroke-width="0.324077"/>
<circle opacity="0.3" cx="177.424" cy="166.361" r="152.333" transform="rotate(-180 177.424 166.361)" fill="#EAEAEA"/>
<g opacity="0.3" filter="url(#filter0_f_1089_32320)">
<circle cx="45.0922" cy="47.5178" r="6.9771" transform="rotate(-180 45.0922 47.5178)" fill="#8224E3"/>
</g>
<g clip-path="url(#clip0_1089_32320)">
<mask id="mask0_1089_32320" style="mask-type:alpha" maskUnits="userSpaceOnUse" x="121" y="160" width="70" height="137">
<path d="M190.166 296.807H128.221V204.01C128.221 201.913 126.521 200.214 124.424 200.214H121.373V163.845C121.373 161.747 123.073 160.047 125.171 160.047H186.369C188.466 160.047 190.166 161.747 190.166 163.845V296.807ZM125.986 190.973C125.723 190.973 125.509 191.186 125.509 191.449V195.403C125.509 195.666 125.723 195.879 125.986 195.879C126.249 195.879 126.462 195.666 126.462 195.403V191.449C126.462 191.186 126.249 190.973 125.986 190.973ZM133.974 166.032C129.306 166.032 125.509 170.24 125.509 175.412V185.114C125.509 185.377 125.723 185.591 125.986 185.591C126.249 185.591 126.462 185.377 126.462 185.114V175.412C126.462 170.765 129.831 166.984 133.974 166.984H147.185C147.448 166.984 147.661 166.771 147.661 166.508C147.661 166.245 147.448 166.032 147.185 166.032H133.974Z" fill="white"/>
</mask>
<g mask="url(#mask0_1089_32320)">
<path fill-rule="evenodd" clip-rule="evenodd" d="M190.166 296.807H128.221V204.01C128.221 201.913 126.521 200.214 124.424 200.214H121.373V163.845C121.373 161.747 123.073 160.047 125.171 160.047H186.369C188.466 160.047 190.166 161.747 190.166 163.845V296.807ZM125.986 190.973C125.723 190.973 125.509 191.186 125.509 191.449V195.403C125.509 195.666 125.723 195.879 125.986 195.879C126.249 195.879 126.462 195.666 126.462 195.403V191.449C126.462 191.186 126.249 190.973 125.986 190.973ZM133.974 166.032C129.306 166.032 125.509 170.24 125.509 175.412V185.114C125.509 185.377 125.723 185.591 125.986 185.591C126.249 185.591 126.462 185.377 126.462 185.114V175.412C126.462 170.765 129.831 166.984 133.974 166.984H147.185C147.448 166.984 147.661 166.771 147.661 166.508C147.661 166.245 147.448 166.032 147.185 166.032H133.974Z" fill="white"/>
<path fill-rule="evenodd" clip-rule="evenodd" d="M190.166 296.807H128.221V204.01C128.221 201.913 126.521 200.214 124.424 200.214H121.373V163.845C121.373 161.747 123.073 160.047 125.171 160.047H186.369C188.466 160.047 190.166 161.747 190.166 163.845V296.807ZM125.986 190.973C125.723 190.973 125.509 191.186 125.509 191.449V195.403C125.509 195.666 125.723 195.879 125.986 195.879C126.249 195.879 126.462 195.666 126.462 195.403V191.449C126.462 191.186 126.249 190.973 125.986 190.973ZM133.974 166.032C129.306 166.032 125.509 170.24 125.509 175.412V185.114C125.509 185.377 125.723 185.591 125.986 185.591C126.249 185.591 126.462 185.377 126.462 185.114V175.412C126.462 170.765 129.831 166.984 133.974 166.984H147.185C147.448 166.984 147.661 166.771 147.661 166.508C147.661 166.245 147.448 166.032 147.185 166.032H133.974Z" fill="url(#paint0_linear_1089_32320)" fill-opacity="0.2"/>
</g>
<mask id="mask1_1089_32320" style="mask-type:alpha" maskUnits="userSpaceOnUse" x="125" y="166" width="23" height="20">
<path d="M125.986 185.591C125.723 185.591 125.509 185.377 125.509 185.114V175.412C125.509 170.24 129.306 166.032 133.974 166.032H147.185C147.448 166.032 147.661 166.245 147.661 166.508C147.661 166.771 147.448 166.984 147.185 166.984H133.974C129.831 166.984 126.462 170.765 126.462 175.412V185.114C126.462 185.377 126.249 185.591 125.986 185.591Z" fill="white"/>
</mask>
<g mask="url(#mask1_1089_32320)">
<path fill-rule="evenodd" clip-rule="evenodd" d="M125.986 185.591C125.723 185.591 125.509 185.377 125.509 185.114V175.412C125.509 170.24 129.306 166.032 133.974 166.032H147.185C147.448 166.032 147.661 166.245 147.661 166.508C147.661 166.771 147.448 166.984 147.185 166.984H133.974C129.831 166.984 126.462 170.765 126.462 175.412V185.114C126.462 185.377 126.249 185.591 125.986 185.591Z" fill="url(#paint1_linear_1089_32320)"/>
</g>
<mask id="mask2_1089_32320" style="mask-type:alpha" maskUnits="userSpaceOnUse" x="125" y="190" width="2" height="6">
<path d="M125.986 195.879C125.723 195.879 125.509 195.665 125.509 195.402V191.449C125.509 191.186 125.723 190.973 125.986 190.973C126.249 190.973 126.462 191.186 126.462 191.449V195.402C126.462 195.665 126.249 195.879 125.986 195.879Z" fill="white"/>
</mask>
<g mask="url(#mask2_1089_32320)">
<path fill-rule="evenodd" clip-rule="evenodd" d="M125.986 195.879C125.723 195.879 125.509 195.665 125.509 195.402V191.449C125.509 191.186 125.723 190.973 125.986 190.973C126.249 190.973 126.462 191.186 126.462 191.449V195.402C126.462 195.665 126.249 195.879 125.986 195.879Z" fill="url(#paint2_linear_1089_32320)"/>
</g>
<mask id="mask3_1089_32320" style="mask-type:alpha" maskUnits="userSpaceOnUse" x="72" y="200" width="57" height="97">
<path d="M128.22 296.807H110.746V204.01C110.746 201.913 109.045 200.214 106.948 200.214H72.7402H124.424C126.521 200.214 128.22 201.913 128.22 204.01V296.807Z" fill="white"/>
</mask>
<g mask="url(#mask3_1089_32320)">
<path fill-rule="evenodd" clip-rule="evenodd" d="M128.22 296.807H110.746V204.01C110.746 201.913 109.045 200.214 106.948 200.214H72.7402H124.424C126.521 200.214 128.22 201.913 128.22 204.01V296.807Z" fill="#6B67E9"/>
</g>
<mask id="mask4_1089_32320" style="mask-type:alpha" maskUnits="userSpaceOnUse" x="51" y="200" width="60" height="97">
<path d="M110.745 296.807H51.4678V204.01C51.4678 201.913 53.1677 200.214 55.2648 200.214H106.948C109.045 200.214 110.745 201.913 110.745 204.01V296.807ZM56.3611 234.248C56.0981 234.248 55.8847 234.461 55.8847 234.724V239.388C55.8847 239.651 56.0981 239.864 56.3611 239.864C56.6242 239.864 56.8375 239.651 56.8375 239.388V234.724C56.8375 234.461 56.6242 234.248 56.3611 234.248ZM65.7863 204.821C60.3264 204.821 55.8847 209.748 55.8847 215.803V227.25C55.8847 227.513 56.0981 227.727 56.3611 227.727C56.6242 227.727 56.8375 227.513 56.8375 227.25V215.803C56.8375 210.273 60.8517 205.774 65.7863 205.774H81.3728C81.6355 205.774 81.8487 205.561 81.8487 205.298C81.8487 205.035 81.6355 204.821 81.3728 204.821H65.7863Z" fill="white"/>
</mask>
<g mask="url(#mask4_1089_32320)">
<path fill-rule="evenodd" clip-rule="evenodd" d="M110.745 296.807H51.4678V204.01C51.4678 201.913 53.1677 200.214 55.2648 200.214H106.948C109.045 200.214 110.745 201.913 110.745 204.01V296.807ZM56.3611 234.248C56.0981 234.248 55.8847 234.461 55.8847 234.724V239.388C55.8847 239.651 56.0981 239.864 56.3611 239.864C56.6242 239.864 56.8375 239.651 56.8375 239.388V234.724C56.8375 234.461 56.6242 234.248 56.3611 234.248ZM65.7863 204.821C60.3264 204.821 55.8847 209.748 55.8847 215.803V227.25C55.8847 227.513 56.0981 227.727 56.3611 227.727C56.6242 227.727 56.8375 227.513 56.8375 227.25V215.803C56.8375 210.273 60.8517 205.774 65.7863 205.774H81.3728C81.6355 205.774 81.8487 205.561 81.8487 205.298C81.8487 205.035 81.6355 204.821 81.3728 204.821H65.7863Z" fill="white"/>
<path fill-rule="evenodd" clip-rule="evenodd" d="M110.745 296.807H51.4678V204.01C51.4678 201.913 53.1677 200.214 55.2648 200.214H106.948C109.045 200.214 110.745 201.913 110.745 204.01V296.807ZM56.3611 234.248C56.0981 234.248 55.8847 234.461 55.8847 234.724V239.388C55.8847 239.651 56.0981 239.864 56.3611 239.864C56.6242 239.864 56.8375 239.651 56.8375 239.388V234.724C56.8375 234.461 56.6242 234.248 56.3611 234.248ZM65.7863 204.821C60.3264 204.821 55.8847 209.748 55.8847 215.803V227.25C55.8847 227.513 56.0981 227.727 56.3611 227.727C56.6242 227.727 56.8375 227.513 56.8375 227.25V215.803C56.8375 210.273 60.8517 205.774 65.7863 205.774H81.3728C81.6355 205.774 81.8487 205.561 81.8487 205.298C81.8487 205.035 81.6355 204.821 81.3728 204.821H65.7863Z" fill="url(#paint3_linear_1089_32320)" fill-opacity="0.2"/>
</g>
<mask id="mask5_1089_32320" style="mask-type:alpha" maskUnits="userSpaceOnUse" x="55" y="204" width="27" height="24">
<path d="M56.3611 227.727C56.0982 227.727 55.8848 227.513 55.8848 227.25V215.803C55.8848 209.748 60.3264 204.821 65.7863 204.821H81.3729C81.6356 204.821 81.8488 205.035 81.8488 205.298C81.8488 205.561 81.6356 205.774 81.3729 205.774H65.7863C60.8518 205.774 56.8375 210.273 56.8375 215.803V227.25C56.8375 227.513 56.6242 227.727 56.3611 227.727Z" fill="white"/>
</mask>
<g mask="url(#mask5_1089_32320)">
<path fill-rule="evenodd" clip-rule="evenodd" d="M56.3611 227.727C56.0982 227.727 55.8848 227.513 55.8848 227.25V215.803C55.8848 209.748 60.3264 204.821 65.7863 204.821H81.3729C81.6356 204.821 81.8488 205.035 81.8488 205.298C81.8488 205.561 81.6356 205.774 81.3729 205.774H65.7863C60.8518 205.774 56.8375 210.273 56.8375 215.803V227.25C56.8375 227.513 56.6242 227.727 56.3611 227.727Z" fill="url(#paint4_linear_1089_32320)"/>
</g>
<mask id="mask6_1089_32320" style="mask-type:alpha" maskUnits="userSpaceOnUse" x="55" y="234" width="2" height="6">
<path d="M56.3611 239.864C56.0982 239.864 55.8848 239.651 55.8848 239.388V234.725C55.8848 234.462 56.0982 234.248 56.3611 234.248C56.6242 234.248 56.8375 234.462 56.8375 234.725V239.388C56.8375 239.651 56.6242 239.864 56.3611 239.864Z" fill="white"/>
</mask>
<g mask="url(#mask6_1089_32320)">
<path fill-rule="evenodd" clip-rule="evenodd" d="M56.3611 239.864C56.0982 239.864 55.8848 239.651 55.8848 239.388V234.725C55.8848 234.462 56.0982 234.248 56.3611 234.248C56.6242 234.248 56.8375 234.462 56.8375 234.725V239.388C56.8375 239.651 56.6242 239.864 56.3611 239.864Z" fill="url(#paint5_linear_1089_32320)"/>
</g>
<mask id="mask7_1089_32320" style="mask-type:alpha" maskUnits="userSpaceOnUse" x="218" y="200" width="57" height="97">
<path d="M274.349 296.807H256.874V204.01C256.874 201.913 255.174 200.214 253.078 200.214H218.869H270.552C272.65 200.214 274.349 201.913 274.349 204.01V296.807Z" fill="white"/>
</mask>
<g mask="url(#mask7_1089_32320)">
<path fill-rule="evenodd" clip-rule="evenodd" d="M274.349 296.807H256.874V204.01C256.874 201.913 255.174 200.214 253.078 200.214H218.869H270.552C272.65 200.214 274.349 201.913 274.349 204.01V296.807Z" fill="#6B67E9"/>
</g>
<mask id="mask8_1089_32320" style="mask-type:alpha" maskUnits="userSpaceOnUse" x="197" y="200" width="60" height="97">
<path d="M256.874 296.807H197.597V204.01C197.597 201.913 199.297 200.214 201.393 200.214H253.077C255.174 200.214 256.874 201.913 256.874 204.01V296.807ZM202.489 234.248C202.226 234.248 202.013 234.461 202.013 234.724V239.388C202.013 239.651 202.226 239.864 202.489 239.864C202.752 239.864 202.967 239.651 202.967 239.388V234.724C202.967 234.461 202.752 234.248 202.489 234.248ZM211.915 204.821C206.455 204.821 202.013 209.748 202.013 215.803V227.25C202.013 227.513 202.226 227.727 202.489 227.727C202.752 227.727 202.967 227.513 202.967 227.25V215.803C202.967 210.273 206.98 205.774 211.915 205.774H227.501C227.764 205.774 227.978 205.561 227.978 205.298C227.978 205.035 227.764 204.821 227.501 204.821H211.915Z" fill="white"/>
</mask>
<g mask="url(#mask8_1089_32320)">
<path fill-rule="evenodd" clip-rule="evenodd" d="M256.874 296.807H197.597V204.01C197.597 201.913 199.297 200.214 201.393 200.214H253.077C255.174 200.214 256.874 201.913 256.874 204.01V296.807ZM202.489 234.248C202.226 234.248 202.013 234.461 202.013 234.724V239.388C202.013 239.651 202.226 239.864 202.489 239.864C202.752 239.864 202.967 239.651 202.967 239.388V234.724C202.967 234.461 202.752 234.248 202.489 234.248ZM211.915 204.821C206.455 204.821 202.013 209.748 202.013 215.803V227.25C202.013 227.513 202.226 227.727 202.489 227.727C202.752 227.727 202.967 227.513 202.967 227.25V215.803C202.967 210.273 206.98 205.774 211.915 205.774H227.501C227.764 205.774 227.978 205.561 227.978 205.298C227.978 205.035 227.764 204.821 227.501 204.821H211.915Z" fill="white"/>
<path fill-rule="evenodd" clip-rule="evenodd" d="M256.874 296.807H197.597V204.01C197.597 201.913 199.297 200.214 201.393 200.214H253.077C255.174 200.214 256.874 201.913 256.874 204.01V296.807ZM202.489 234.248C202.226 234.248 202.013 234.461 202.013 234.724V239.388C202.013 239.651 202.226 239.864 202.489 239.864C202.752 239.864 202.967 239.651 202.967 239.388V234.724C202.967 234.461 202.752 234.248 202.489 234.248ZM211.915 204.821C206.455 204.821 202.013 209.748 202.013 215.803V227.25C202.013 227.513 202.226 227.727 202.489 227.727C202.752 227.727 202.967 227.513 202.967 227.25V215.803C202.967 210.273 206.98 205.774 211.915 205.774H227.501C227.764 205.774 227.978 205.561 227.978 205.298C227.978 205.035 227.764 204.821 227.501 204.821H211.915Z" fill="url(#paint6_linear_1089_32320)" fill-opacity="0.2"/>
</g>
<mask id="mask9_1089_32320" style="mask-type:alpha" maskUnits="userSpaceOnUse" x="202" y="204" width="26" height="24">
<path d="M202.49 227.727C202.227 227.727 202.014 227.513 202.014 227.25V215.803C202.014 209.748 206.456 204.821 211.916 204.821H227.502C227.765 204.821 227.979 205.035 227.979 205.298C227.979 205.561 227.765 205.774 227.502 205.774H211.916C206.981 205.774 202.967 210.273 202.967 215.803V227.25C202.967 227.513 202.753 227.727 202.49 227.727Z" fill="white"/>
</mask>
<g mask="url(#mask9_1089_32320)">
<path fill-rule="evenodd" clip-rule="evenodd" d="M202.49 227.727C202.227 227.727 202.014 227.513 202.014 227.25V215.803C202.014 209.748 206.456 204.821 211.916 204.821H227.502C227.765 204.821 227.979 205.035 227.979 205.298C227.979 205.561 227.765 205.774 227.502 205.774H211.916C206.981 205.774 202.967 210.273 202.967 215.803V227.25C202.967 227.513 202.753 227.727 202.49 227.727Z" fill="url(#paint7_linear_1089_32320)"/>
</g>
<mask id="mask10_1089_32320" style="mask-type:alpha" maskUnits="userSpaceOnUse" x="202" y="234" width="1" height="6">
<path d="M202.49 239.864C202.227 239.864 202.014 239.651 202.014 239.388V234.725C202.014 234.462 202.227 234.248 202.49 234.248C202.753 234.248 202.967 234.462 202.967 234.725V239.388C202.967 239.651 202.753 239.864 202.49 239.864Z" fill="white"/>
</mask>
<g mask="url(#mask10_1089_32320)">
<path fill-rule="evenodd" clip-rule="evenodd" d="M202.49 239.864C202.227 239.864 202.014 239.651 202.014 239.388V234.725C202.014 234.462 202.227 234.248 202.49 234.248C202.753 234.248 202.967 234.462 202.967 234.725V239.388C202.967 239.651 202.753 239.864 202.49 239.864Z" fill="url(#paint8_linear_1089_32320)"/>
</g>
<mask id="mask11_1089_32320" style="mask-type:alpha" maskUnits="userSpaceOnUse" x="195" y="116" width="96" height="181">
<path d="M195.117 277.963L243.773 184.748H233.804C231.966 184.748 230.955 182.611 232.121 181.19L283.979 117.987C286.226 115.247 290.666 116.984 290.457 120.522L286.812 182.328C286.603 185.865 283.466 188.503 279.944 188.1L272.995 187.304L224.717 291.854C223.462 294.575 220.737 296.318 217.739 296.318H201.007L195.117 277.963Z" fill="white"/>
</mask>
<g mask="url(#mask11_1089_32320)">
<path fill-rule="evenodd" clip-rule="evenodd" d="M195.117 277.963L243.773 184.748H233.804C231.966 184.748 230.955 182.611 232.121 181.19L283.979 117.987C286.226 115.247 290.666 116.984 290.457 120.522L286.812 182.328C286.603 185.865 283.466 188.503 279.944 188.1L272.995 187.304L224.717 291.854C223.462 294.575 220.737 296.318 217.739 296.318H201.007L195.117 277.963Z" fill="url(#paint9_linear_1089_32320)"/>
</g>
<mask id="mask12_1089_32320" style="mask-type:alpha" maskUnits="userSpaceOnUse" x="154" y="199" width="71" height="98">
<path d="M154.889 212.587L189.239 288.892C191.273 293.411 195.769 296.318 200.725 296.318H218.434C220.783 296.318 222.948 295.043 224.088 292.988L224.717 291.854C222.815 291.854 221.073 290.787 220.208 289.092L174.44 199.417L154.889 212.587Z" fill="white"/>
</mask>
<g mask="url(#mask12_1089_32320)">
<path fill-rule="evenodd" clip-rule="evenodd" d="M154.889 212.587L189.239 288.892C191.273 293.411 195.769 296.318 200.725 296.318H218.434C220.783 296.318 222.948 295.043 224.088 292.988L224.717 291.854C222.815 291.854 221.073 290.787 220.208 289.092L174.44 199.417L154.889 212.587Z" fill="url(#paint10_linear_1089_32320)"/>
</g>
<mask id="mask13_1089_32320" style="mask-type:alpha" maskUnits="userSpaceOnUse" x="86" y="190" width="94" height="106">
<path d="M179.063 208.475C175.619 205.755 170.586 206.555 168.154 210.209L117.65 286.087C113.604 292.164 106.788 295.816 99.4877 295.816H92.3809L86.5977 279.155C86.5977 279.155 133.549 207.163 145.65 196.273C145.65 196.273 157.703 185.412 169.585 193.624C172.724 195.793 175.108 198.89 176.563 202.417L179.063 208.475Z" fill="white"/>
</mask>
<g mask="url(#mask13_1089_32320)">
<path fill-rule="evenodd" clip-rule="evenodd" d="M179.063 208.475C175.619 205.755 170.586 206.555 168.154 210.209L117.65 286.087C113.604 292.164 106.788 295.816 99.4877 295.816H92.3809L86.5977 279.155C86.5977 279.155 133.549 207.163 145.65 196.273C145.65 196.273 157.703 185.412 169.585 193.624C172.724 195.793 175.108 198.89 176.563 202.417L179.063 208.475Z" fill="url(#paint11_linear_1089_32320)"/>
</g>
<mask id="mask14_1089_32320" style="mask-type:alpha" maskUnits="userSpaceOnUse" x="31" y="222" width="87" height="75">
<path d="M31.668 234.347C31.668 234.347 40.1219 223.78 56.5042 222.136C56.5042 222.136 64.285 224.788 79.786 252.564C95.2876 280.34 105.577 293.005 117.65 286.087L116.651 287.747C113.356 293.217 107.437 296.561 101.053 296.561H94.3755C87.0227 296.561 80.6383 285.236 76.3449 279.268C64.2804 262.497 39.0791 236.951 31.668 234.347Z" fill="white"/>
</mask>
<g mask="url(#mask14_1089_32320)">
<path fill-rule="evenodd" clip-rule="evenodd" d="M31.668 234.347C31.668 234.347 40.1219 223.78 56.5042 222.136C56.5042 222.136 64.285 224.788 79.786 252.564C95.2876 280.34 105.577 293.005 117.65 286.087L116.651 287.747C113.356 293.217 107.437 296.561 101.053 296.561H94.3755C87.0227 296.561 80.6383 285.236 76.3449 279.268C64.2804 262.497 39.0791 236.951 31.668 234.347Z" fill="url(#paint12_linear_1089_32320)"/>
</g>
<path fill-rule="evenodd" clip-rule="evenodd" d="M284.606 140.059C284.588 140.059 284.57 140.058 284.552 140.055C284.291 140.026 284.103 139.79 284.132 139.528L284.474 136.51C284.504 136.249 284.74 136.061 285.001 136.092C285.263 136.121 285.451 136.356 285.421 136.618L285.079 139.635C285.052 139.879 284.845 140.059 284.606 140.059Z" fill="#91B3FA"/>
<path fill-rule="evenodd" clip-rule="evenodd" d="M241.316 178.153C241.215 178.153 241.112 178.121 241.026 178.055C240.817 177.894 240.778 177.594 240.939 177.387L283.76 121.746C284.265 121.091 285.086 120.868 285.85 121.178C286.617 121.488 287.052 122.218 286.959 123.039L286.203 129.709C286.173 129.97 285.936 130.157 285.677 130.129C285.414 130.099 285.227 129.863 285.257 129.602L286.012 122.932C286.064 122.466 285.779 122.177 285.493 122.061C285.208 121.946 284.801 121.955 284.516 122.327L241.694 177.967C241.6 178.089 241.459 178.153 241.316 178.153Z" fill="#91B3FA"/>
<path fill-rule="evenodd" clip-rule="evenodd" d="M144.171 236.484C144.079 236.484 143.987 236.458 143.906 236.402C143.688 236.255 143.629 235.959 143.777 235.741L165.924 202.914C166.716 201.738 168.034 201.101 169.449 201.207C170.863 201.314 172.07 202.144 172.677 203.426C172.79 203.664 172.688 203.947 172.451 204.06C172.213 204.174 171.93 204.071 171.817 203.834C171.358 202.864 170.446 202.238 169.377 202.157C168.308 202.075 167.313 202.558 166.713 203.447L144.567 236.273C144.475 236.41 144.324 236.484 144.171 236.484Z" fill="#91B3FA"/>
<path fill-rule="evenodd" clip-rule="evenodd" d="M138.416 245.014C138.324 245.014 138.232 244.987 138.151 244.932C137.933 244.785 137.875 244.489 138.022 244.271L139.442 242.167C139.59 241.948 139.886 241.89 140.103 242.038C140.321 242.184 140.38 242.481 140.232 242.699L138.812 244.804C138.72 244.94 138.57 245.014 138.416 245.014Z" fill="#91B3FA"/>
<mask id="mask15_1089_32320" style="mask-type:alpha" maskUnits="userSpaceOnUse" x="194" y="38" width="57" height="31">
<path d="M194.772 40.4669C205.314 37.3429 215.369 38.1854 220.388 39.5128C226.323 41.082 228.291 42.2595 233.545 42.8521C238.214 43.3789 250.624 39.6008 249.035 42.4427C246.965 46.1471 247.531 60.6553 250.623 66.7042C251.073 67.584 236.377 69.7624 227.472 68.1354C215.197 65.8924 211.244 62.1308 203.184 63.8421C199.465 64.6314 196.64 66.2103 194.835 67.4199C195.656 58.4753 193.949 49.4115 194.772 40.4669Z" fill="white"/>
</mask>
<g mask="url(#mask15_1089_32320)">
<path fill-rule="evenodd" clip-rule="evenodd" d="M194.772 40.4669C205.314 37.3429 215.369 38.1854 220.388 39.5128C226.323 41.082 228.291 42.2595 233.545 42.8521C238.214 43.3789 250.624 39.6008 249.035 42.4427C246.965 46.1471 247.531 60.6553 250.623 66.7042C251.073 67.584 236.377 69.7624 227.472 68.1354C215.197 65.8924 211.244 62.1308 203.184 63.8421C199.465 64.6314 196.64 66.2103 194.835 67.4199C195.656 58.4753 193.949 49.4115 194.772 40.4669Z" fill="#FFC331"/>
</g>
<path fill-rule="evenodd" clip-rule="evenodd" d="M194.904 160.813C194.641 160.813 194.428 160.599 194.428 160.336V37.5907C194.428 37.3277 194.641 37.1143 194.904 37.1143C195.167 37.1143 195.38 37.3277 195.38 37.5907V160.336C195.38 160.599 195.167 160.813 194.904 160.813Z" fill="#26264F"/>
<mask id="mask16_1089_32320" style="mask-type:alpha" maskUnits="userSpaceOnUse" x="142" y="154" width="9" height="8">
<path d="M142.126 160.827C142.125 160.763 142.129 160.698 142.146 160.634C143.109 156.814 147.047 154.857 147.047 154.857L148.942 155.005C150.031 158.372 150.734 160.015 150.559 160.934C150.554 160.961 150.546 160.985 150.539 161.009C148.976 161.149 145.759 161.24 142.126 160.827Z" fill="white"/>
</mask>
<g mask="url(#mask16_1089_32320)">
<path fill-rule="evenodd" clip-rule="evenodd" d="M142.126 160.827C142.125 160.763 142.129 160.698 142.146 160.634C143.109 156.814 147.047 154.857 147.047 154.857L148.942 155.005C150.031 158.372 150.734 160.015 150.559 160.934C150.554 160.961 150.546 160.985 150.539 161.009C148.976 161.149 145.759 161.24 142.126 160.827Z" fill="url(#paint13_linear_1089_32320)"/>
</g>
<mask id="mask17_1089_32320" style="mask-type:alpha" maskUnits="userSpaceOnUse" x="142" y="160" width="9" height="2">
<path d="M150.562 161.009C150.478 161.316 150.251 161.556 149.961 161.616C147.738 162.084 144.205 161.708 142.72 161.514C142.394 161.471 142.154 161.168 142.148 160.827C145.783 161.24 149 161.149 150.562 161.009Z" fill="white"/>
</mask>
<g mask="url(#mask17_1089_32320)">
<path fill-rule="evenodd" clip-rule="evenodd" d="M150.562 161.009C150.478 161.316 150.251 161.556 149.961 161.616C147.738 162.084 144.205 161.708 142.72 161.514C142.394 161.471 142.154 161.168 142.148 160.827C145.783 161.24 149 161.149 150.562 161.009Z" fill="url(#paint14_linear_1089_32320)"/>
</g>
<mask id="mask18_1089_32320" style="mask-type:alpha" maskUnits="userSpaceOnUse" x="145" y="151" width="4" height="6">
<path d="M145.487 151.908L146.317 155.902C146.377 156.195 146.602 156.413 146.875 156.44C147.208 156.471 147.682 156.489 148.16 156.419C148.588 156.356 148.886 155.921 148.81 155.454L148.233 151.908H145.487Z" fill="white"/>
</mask>
<g mask="url(#mask18_1089_32320)">
<path fill-rule="evenodd" clip-rule="evenodd" d="M145.487 151.908L146.317 155.902C146.377 156.195 146.602 156.413 146.875 156.44C147.208 156.471 147.682 156.489 148.16 156.419C148.588 156.356 148.886 155.921 148.81 155.454L148.233 151.908H145.487Z" fill="#EEA886"/>
</g>
<mask id="mask19_1089_32320" style="mask-type:alpha" maskUnits="userSpaceOnUse" x="162" y="160" width="13" height="2">
<path d="M166.611 160.976C164.588 160.92 163.541 160.681 162.999 160.46C162.998 160.662 162.999 160.866 163.006 161.078C163.013 161.305 163.181 161.485 163.387 161.485L174.497 161.413C174.852 161.41 175.059 160.999 174.906 160.674C173.449 160.794 169.739 161.064 166.611 160.976Z" fill="white"/>
</mask>
<g mask="url(#mask19_1089_32320)">
<path fill-rule="evenodd" clip-rule="evenodd" d="M166.611 160.976C164.588 160.92 163.541 160.681 162.999 160.46C162.998 160.662 162.999 160.866 163.006 161.078C163.013 161.305 163.181 161.485 163.387 161.485L174.497 161.413C174.852 161.41 175.059 160.999 174.906 160.674C173.449 160.794 169.739 161.064 166.611 160.976Z" fill="url(#paint15_linear_1089_32320)"/>
</g>
<mask id="mask20_1089_32320" style="mask-type:alpha" maskUnits="userSpaceOnUse" x="163" y="155" width="12" height="6">
<path d="M174.932 160.674C174.918 160.646 174.907 160.617 174.888 160.59C173.906 159.22 171.408 156.489 166.47 155.306L164.101 155.231C164.101 155.231 163.046 157.064 163.026 160.46C163.567 160.681 164.614 160.92 166.637 160.976C169.765 161.064 173.475 160.794 174.932 160.674Z" fill="white"/>
</mask>
<g mask="url(#mask20_1089_32320)">
<path fill-rule="evenodd" clip-rule="evenodd" d="M174.932 160.674C174.918 160.646 174.907 160.617 174.888 160.59C173.906 159.22 171.408 156.489 166.47 155.306L164.101 155.231C164.101 155.231 163.046 157.064 163.026 160.46C163.567 160.681 164.614 160.92 166.637 160.976C169.765 161.064 173.475 160.794 174.932 160.674Z" fill="url(#paint16_linear_1089_32320)"/>
</g>
<mask id="mask21_1089_32320" style="mask-type:alpha" maskUnits="userSpaceOnUse" x="163" y="151" width="4" height="6">
<path d="M163.661 151.641C163.687 151.817 164.012 154.501 164.138 155.542C164.167 155.789 164.347 155.98 164.573 156.008C164.976 156.056 165.629 156.1 166.2 155.982C166.508 155.919 166.731 155.623 166.731 155.279V151.066L163.661 151.641Z" fill="white"/>
</mask>
<g mask="url(#mask21_1089_32320)">
<path fill-rule="evenodd" clip-rule="evenodd" d="M163.661 151.641C163.687 151.817 164.012 154.501 164.138 155.542C164.167 155.789 164.347 155.98 164.573 156.008C164.976 156.056 165.629 156.1 166.2 155.982C166.508 155.919 166.731 155.623 166.731 155.279V151.066L163.661 151.641Z" fill="#EEA886"/>
</g>
<mask id="mask22_1089_32320" style="mask-type:alpha" maskUnits="userSpaceOnUse" x="144" y="99" width="24" height="56">
<path d="M147.07 99.4709C147.07 99.4709 143.279 133.165 145.385 154.225C145.385 154.225 147.913 154.225 149.176 153.804C149.176 153.804 153.115 120.859 154.389 111.432C154.437 111.076 154.944 111.06 155.015 111.412C156.586 119.343 162.762 150.446 163.497 153.383C163.497 153.383 165.602 154.225 167.287 153.383C167.287 153.383 163.917 108.316 161.391 100.313L147.07 99.4709Z" fill="white"/>
</mask>
<g mask="url(#mask22_1089_32320)">
<path fill-rule="evenodd" clip-rule="evenodd" d="M147.07 99.4709C147.07 99.4709 143.279 133.165 145.385 154.225C145.385 154.225 147.913 154.225 149.176 153.804C149.176 153.804 153.115 120.859 154.389 111.432C154.437 111.076 154.944 111.06 155.015 111.412C156.586 119.343 162.762 150.446 163.497 153.383C163.497 153.383 165.602 154.225 167.287 153.383C167.287 153.383 163.917 108.316 161.391 100.313L147.07 99.4709Z" fill="url(#paint17_linear_1089_32320)"/>
</g>
<mask id="mask23_1089_32320" style="mask-type:alpha" maskUnits="userSpaceOnUse" x="139" y="59" width="30" height="42">
<path d="M139.489 60.301C139.489 60.301 152.233 58.5803 163.861 60.3355C166.739 60.7698 168.744 63.4196 168.354 66.3032L167.287 74.2C167.287 74.2 163.918 92.3107 161.391 100.313C161.391 100.313 151.703 101.999 147.071 99.4709C147.071 99.4709 143.28 76.7271 141.174 73.3577C141.174 73.3577 139.068 64.5128 139.489 60.301Z" fill="white"/>
</mask>
<g mask="url(#mask23_1089_32320)">
<path fill-rule="evenodd" clip-rule="evenodd" d="M139.489 60.301C139.489 60.301 152.233 58.5803 163.861 60.3355C166.739 60.7698 168.744 63.4196 168.354 66.3032L167.287 74.2C167.287 74.2 163.918 92.3107 161.391 100.313C161.391 100.313 151.703 101.999 147.071 99.4709C147.071 99.4709 143.28 76.7271 141.174 73.3577C141.174 73.3577 139.068 64.5128 139.489 60.301Z" fill="#377DFF"/>
</g>
<mask id="mask24_1089_32320" style="mask-type:alpha" maskUnits="userSpaceOnUse" x="149" y="48" width="8" height="13">
<path d="M150.608 48.7925L149.013 59.5748C149.013 59.5748 153.468 61.6211 156.586 59.4871L155.915 51.8775L150.608 48.7925Z" fill="white"/>
</mask>
<g mask="url(#mask24_1089_32320)">
<path fill-rule="evenodd" clip-rule="evenodd" d="M150.608 48.7925L149.013 59.5748C149.013 59.5748 153.468 61.6211 156.586 59.4871L155.915 51.8775L150.608 48.7925Z" fill="#EEA886"/>
</g>
<mask id="mask25_1089_32320" style="mask-type:alpha" maskUnits="userSpaceOnUse" x="149" y="41" width="11" height="13">
<path d="M157.472 41.7713C157.523 41.8624 158.483 47.2995 159.074 50.6651C159.319 52.0556 158.297 53.3474 156.888 53.4308L155.597 53.5071C153.225 53.6477 151.137 51.9592 150.777 49.611L149.845 43.5145C149.845 43.5145 156.253 39.56 157.472 41.7713Z" fill="white"/>
</mask>
<g mask="url(#mask25_1089_32320)">
<path fill-rule="evenodd" clip-rule="evenodd" d="M157.472 41.7713C157.523 41.8624 158.483 47.2995 159.074 50.6651C159.319 52.0556 158.297 53.3474 156.888 53.4308L155.597 53.5071C153.225 53.6477 151.137 51.9592 150.777 49.611L149.845 43.5145C149.845 43.5145 156.253 39.56 157.472 41.7713Z" fill="#EEA886"/>
</g>
<mask id="mask26_1089_32320" style="mask-type:alpha" maskUnits="userSpaceOnUse" x="147" y="37" width="13" height="12">
<path d="M148.453 43.5296C147.959 42.9142 147.527 41.9192 148.581 40.8729C149.648 39.8136 150.858 40.0776 151.626 40.433C151.965 40.5901 152.384 40.5205 152.626 40.2346C152.734 40.1076 152.893 40.0212 153.13 40.0477C153.576 40.0978 153.974 39.8032 154.028 39.3571C154.119 38.5925 154.526 37.6923 155.877 37.4312C158.357 36.9519 159.594 39.4333 159.55 41.1774C159.506 42.9214 156.788 43.2881 155.246 42.9987C154.113 42.7859 153.135 43.7812 152.694 44.3246C152.534 44.5218 152.474 44.7802 152.532 45.0275L152.924 46.7123C152.653 47.236 152.386 47.7709 152.005 48.2178C151.73 48.5396 151.429 48.7172 151.109 48.7924C150.647 47.9319 149.355 47.7859 148.754 47.7666C148.524 47.7593 148.309 47.658 148.158 47.4846C147.705 46.9648 146.995 45.8047 148.354 44.6657C148.691 44.3826 148.729 43.8731 148.453 43.5296Z" fill="white"/>
</mask>
<g mask="url(#mask26_1089_32320)">
<path fill-rule="evenodd" clip-rule="evenodd" d="M148.453 43.5296C147.959 42.9142 147.527 41.9192 148.581 40.8729C149.648 39.8136 150.858 40.0776 151.626 40.433C151.965 40.5901 152.384 40.5205 152.626 40.2346C152.734 40.1076 152.893 40.0212 153.13 40.0477C153.576 40.0978 153.974 39.8032 154.028 39.3571C154.119 38.5925 154.526 37.6923 155.877 37.4312C158.357 36.9519 159.594 39.4333 159.55 41.1774C159.506 42.9214 156.788 43.2881 155.246 42.9987C154.113 42.7859 153.135 43.7812 152.694 44.3246C152.534 44.5218 152.474 44.7802 152.532 45.0275L152.924 46.7123C152.653 47.236 152.386 47.7709 152.005 48.2178C151.73 48.5396 151.429 48.7172 151.109 48.7924C150.647 47.9319 149.355 47.7859 148.754 47.7666C148.524 47.7593 148.309 47.658 148.158 47.4846C147.705 46.9648 146.995 45.8047 148.354 44.6657C148.691 44.3826 148.729 43.8731 148.453 43.5296Z" fill="#363636"/>
</g>
<mask id="mask27_1089_32320" style="mask-type:alpha" maskUnits="userSpaceOnUse" x="148" y="47" width="4" height="5">
<path d="M151.557 50.5961C151.557 50.5961 151.504 47.5538 150.272 47.2681C149.041 46.9824 147.713 47.8725 148.766 49.6939C150.075 51.9596 151.557 50.5961 151.557 50.5961Z" fill="white"/>
</mask>
<g mask="url(#mask27_1089_32320)">
<path fill-rule="evenodd" clip-rule="evenodd" d="M151.557 50.5961C151.557 50.5961 151.504 47.5538 150.272 47.2681C149.041 46.9824 147.713 47.8725 148.766 49.6939C150.075 51.9596 151.557 50.5961 151.557 50.5961Z" fill="#EEA886"/>
</g>
<mask id="mask28_1089_32320" style="mask-type:alpha" maskUnits="userSpaceOnUse" x="123" y="39" width="24" height="36">
<path d="M146.693 74.8444C146.693 74.8444 110.529 65.0005 128.485 39.6846L129.701 41.4048C129.701 41.4048 124.29 58.5516 142.212 60.1808C142.212 60.1808 146.854 72.1524 146.693 74.8444Z" fill="white"/>
</mask>
<g mask="url(#mask28_1089_32320)">
<path fill-rule="evenodd" clip-rule="evenodd" d="M146.693 74.8444C146.693 74.8444 110.529 65.0005 128.485 39.6846L129.701 41.4048C129.701 41.4048 124.29 58.5516 142.212 60.1808C142.212 60.1808 146.854 72.1524 146.693 74.8444Z" fill="#377DFF"/>
</g>
<mask id="mask29_1089_32320" style="mask-type:alpha" maskUnits="userSpaceOnUse" x="128" y="34" width="7" height="8">
<path d="M128.363 39.8147C128.363 39.8147 127.957 34.9269 130.401 34.5196C132.845 34.1123 133.659 36.5562 134.066 37.7782C134.473 39.0002 130.401 41.444 129.585 41.444C128.771 41.444 128.363 39.8147 128.363 39.8147Z" fill="white"/>
</mask>
<g mask="url(#mask29_1089_32320)">
<path fill-rule="evenodd" clip-rule="evenodd" d="M128.363 39.8147C128.363 39.8147 127.957 34.9269 130.401 34.5196C132.845 34.1123 133.659 36.5562 134.066 37.7782C134.473 39.0002 130.401 41.444 129.585 41.444C128.771 41.444 128.363 39.8147 128.363 39.8147Z" fill="#EEA886"/>
</g>
<mask id="mask30_1089_32320" style="mask-type:alpha" maskUnits="userSpaceOnUse" x="166" y="64" width="29" height="22">
<path d="M166.182 77.5478C166.182 77.5478 170.856 96.0481 194.302 75.6672L192.506 74.5698C192.506 74.5698 171.863 89.2147 168.225 64.2332C168.225 64.2332 166.182 75.301 166.182 77.5478Z" fill="white"/>
</mask>
<g mask="url(#mask30_1089_32320)">
<path fill-rule="evenodd" clip-rule="evenodd" d="M166.182 77.5478C166.182 77.5478 170.856 96.0481 194.302 75.6672L192.506 74.5698C192.506 74.5698 171.863 89.2147 168.225 64.2332C168.225 64.2332 166.182 75.301 166.182 77.5478Z" fill="#377DFF"/>
</g>
<mask id="mask31_1089_32320" style="mask-type:alpha" maskUnits="userSpaceOnUse" x="192" y="69" width="8" height="7">
<path d="M194.181 75.7978C194.181 75.7978 199.085 75.8781 199.329 73.4125C199.572 70.9468 197.079 70.297 195.833 69.9721C194.586 69.6473 192.42 73.8745 192.474 74.6873C192.528 75.5002 194.181 75.7978 194.181 75.7978Z" fill="white"/>
</mask>
<g mask="url(#mask31_1089_32320)">
<path fill-rule="evenodd" clip-rule="evenodd" d="M194.181 75.7978C194.181 75.7978 199.085 75.8781 199.329 73.4125C199.572 70.9468 197.079 70.297 195.833 69.9721C194.586 69.6473 192.42 73.8745 192.474 74.6873C192.528 75.5002 194.181 75.7978 194.181 75.7978Z" fill="#EEA886"/>
</g>
<path fill-rule="evenodd" clip-rule="evenodd" d="M321.133 297.095V297.263C321.133 297.53 320.97 297.749 320.773 297.749H2.70208C2.50397 297.749 2.34082 297.53 2.34082 297.263V297.095C2.34082 296.828 2.50397 296.607 2.70208 296.607H320.773C320.97 296.607 321.133 296.828 321.133 297.095Z" fill="#2E3552"/>
</g>
<defs>
<filter id="filter0_f_1089_32320" x="33.2541" y="35.6796" width="23.6764" height="23.6764" filterUnits="userSpaceOnUse" color-interpolation-filters="sRGB">
<feFlood flood-opacity="0" result="BackgroundImageFix"/>
<feBlend mode="normal" in="SourceGraphic" in2="BackgroundImageFix" result="shape"/>
<feGaussianBlur stdDeviation="2.43058" result="effect1_foregroundBlur_1089_32320"/>
</filter>
<linearGradient id="paint0_linear_1089_32320" x1="190.166" y1="228.427" x2="121.373" y2="228.427" gradientUnits="userSpaceOnUse">
<stop stop-color="#2BD4FA"/>
<stop offset="1" stop-color="#8224E3" stop-opacity="0.7"/>
</linearGradient>
<linearGradient id="paint1_linear_1089_32320" x1="242.424" y1="172.382" x2="379.851" y2="80.5615" gradientUnits="userSpaceOnUse">
<stop stop-color="#FFE4E3"/>
<stop offset="1" stop-color="#FFDDD9"/>
</linearGradient>
<linearGradient id="paint2_linear_1089_32320" x1="130.383" y1="171.413" x2="179.744" y2="138.433" gradientUnits="userSpaceOnUse">
<stop stop-color="#FFE4E3"/>
<stop offset="1" stop-color="#FFDDD9"/>
</linearGradient>
<linearGradient id="paint3_linear_1089_32320" x1="110.745" y1="248.51" x2="51.4678" y2="248.51" gradientUnits="userSpaceOnUse">
<stop stop-color="#2BD4FA"/>
<stop offset="1" stop-color="#8224E3" stop-opacity="0.7"/>
</linearGradient>
<linearGradient id="paint4_linear_1089_32320" x1="129.075" y1="204.383" x2="45.0001" y2="289.626" gradientUnits="userSpaceOnUse">
<stop stop-color="#FFE1DF"/>
<stop offset="1" stop-color="#FFD7D4"/>
</linearGradient>
<linearGradient id="paint5_linear_1089_32320" x1="58.4537" y1="200.996" x2="9.09672" y2="251.038" gradientUnits="userSpaceOnUse">
<stop stop-color="#FFE1DF"/>
<stop offset="1" stop-color="#FFD7D4"/>
</linearGradient>
<linearGradient id="paint6_linear_1089_32320" x1="256.874" y1="248.51" x2="197.597" y2="248.51" gradientUnits="userSpaceOnUse">
<stop stop-color="#2BD4FA"/>
<stop offset="1" stop-color="#8224E3" stop-opacity="0.7"/>
</linearGradient>
<linearGradient id="paint7_linear_1089_32320" x1="252.31" y1="181.375" x2="207.22" y2="322.866" gradientUnits="userSpaceOnUse">
<stop stop-color="#FFE4E3"/>
<stop offset="1" stop-color="#FFDDD9"/>
</linearGradient>
<linearGradient id="paint8_linear_1089_32320" x1="203.926" y1="171.43" x2="152.53" y2="332.727" gradientUnits="userSpaceOnUse">
<stop stop-color="#FFE4E3"/>
<stop offset="1" stop-color="#FFDDD9"/>
</linearGradient>
<linearGradient id="paint9_linear_1089_32320" x1="256.598" y1="112.822" x2="183.521" y2="269.495" gradientUnits="userSpaceOnUse">
<stop stop-color="#377DFF"/>
<stop offset="1" stop-color="#283074"/>
</linearGradient>
<linearGradient id="paint10_linear_1089_32320" x1="201.929" y1="298.069" x2="156.175" y2="219.394" gradientUnits="userSpaceOnUse">
<stop stop-color="#377DFF"/>
<stop offset="1" stop-color="#283074"/>
</linearGradient>
<linearGradient id="paint11_linear_1089_32320" x1="165.035" y1="190.25" x2="86.8692" y2="282.785" gradientUnits="userSpaceOnUse">
<stop stop-color="#377DFF"/>
<stop offset="1" stop-color="#283074"/>
</linearGradient>
<linearGradient id="paint12_linear_1089_32320" x1="117.362" y1="292.225" x2="25.8613" y2="199.614" gradientUnits="userSpaceOnUse">
<stop stop-color="#377DFF"/>
<stop offset="1" stop-color="#283074"/>
</linearGradient>
<linearGradient id="paint13_linear_1089_32320" x1="150.585" y1="157.992" x2="142.126" y2="157.992" gradientUnits="userSpaceOnUse">
<stop stop-color="#08005D"/>
<stop offset="1" stop-color="#1A0F91"/>
</linearGradient>
<linearGradient id="paint14_linear_1089_32320" x1="129.29" y1="161.136" x2="148.711" y2="176.385" gradientUnits="userSpaceOnUse">
<stop stop-color="#4F52FF"/>
<stop offset="1" stop-color="#4042E1"/>
</linearGradient>
<linearGradient id="paint15_linear_1089_32320" x1="176.457" y1="160.928" x2="157.758" y2="175.609" gradientUnits="userSpaceOnUse">
<stop stop-color="#4F52FF"/>
<stop offset="1" stop-color="#4042E1"/>
</linearGradient>
<linearGradient id="paint16_linear_1089_32320" x1="163.026" y1="158.112" x2="174.932" y2="158.112" gradientUnits="userSpaceOnUse">
<stop stop-color="#08005D"/>
<stop offset="1" stop-color="#1A0F91"/>
</linearGradient>
<linearGradient id="paint17_linear_1089_32320" x1="161.155" y1="88.05" x2="119.361" y2="143.058" gradientUnits="userSpaceOnUse">
<stop stop-color="#08005D"/>
<stop offset="1" stop-color="#1A0F91"/>
</linearGradient>
<clipPath id="clip0_1089_32320">
<rect width="319.789" height="264" fill="white" transform="translate(1.75781 34.0662)"/>
</clipPath>
</defs>
</svg>
