<svg width="70" height="19" viewBox="0 0 70 19" fill="none" xmlns="http://www.w3.org/2000/svg">
<path fill-rule="evenodd" clip-rule="evenodd" d="M46.2413 12.5652V5.51098C46.2413 5.0236 46.2413 4.63883 46.2132 4.2797C46.1851 3.94623 46.1851 3.61276 46.1289 3.3306H49.4733C49.5014 3.56146 49.5295 3.81798 49.5295 4.04884C49.5576 4.30536 49.5577 4.53622 49.5577 4.79274C50.0916 4.20275 50.6537 3.76667 51.2439 3.51016C51.8341 3.22799 52.5367 3.09973 53.2955 3.09973C54.4759 3.09973 55.4034 3.4332 56.0779 4.10014C56.7524 4.76708 57.0896 5.71619 57.0896 6.89617V12.5395H53.7452V7.07573C53.7452 6.46009 53.5766 5.97271 53.2674 5.66489C52.9583 5.33142 52.5086 5.17751 51.8903 5.17751C51.1034 5.17751 50.5132 5.40837 50.1197 5.84445C49.7263 6.28053 49.5295 6.97312 49.5295 7.87093V12.5652H46.2413Z" fill="white"/>
<path fill-rule="evenodd" clip-rule="evenodd" d="M57.7363 9.61501H61.0527C61.0527 9.99978 61.1932 10.3076 61.4742 10.5385C61.7553 10.7437 62.1487 10.8719 62.6546 10.8719C63.1324 10.8719 63.4977 10.795 63.7788 10.6154C64.0317 10.4359 64.1723 10.205 64.1723 9.89718C64.1723 9.4098 63.554 9.07632 62.3455 8.92242C62.1206 8.89676 61.952 8.87111 61.8396 8.84546C60.35 8.64025 59.3664 8.33243 58.8605 7.922C58.3546 7.51158 58.0736 6.87029 58.0736 5.99813C58.0736 5.04903 58.4389 4.30513 59.1978 3.81775C59.9566 3.30472 61.0246 3.07385 62.4579 3.07385C64.1441 3.07385 65.3807 3.30472 66.1396 3.7921C66.8984 4.27948 67.2918 5.04902 67.2918 6.10074H64.0317V6.07509C64.0317 5.69032 63.9193 5.3825 63.6664 5.20293C63.4415 5.02337 63.0762 4.92077 62.5703 4.92077C62.1487 4.92077 61.8396 4.99772 61.6147 5.12598C61.3899 5.25424 61.2775 5.4338 61.2775 5.69032C61.2775 6.12639 61.8958 6.45986 63.1043 6.66508C63.3572 6.71638 63.5539 6.74203 63.6945 6.76768C65.2402 7.04985 66.252 7.35767 66.7298 7.74244C67.2075 8.12722 67.4324 8.7172 67.4324 9.48675C67.4324 10.6154 67.0389 11.4363 66.2239 11.975C65.4088 12.5136 64.1722 12.7702 62.5141 12.7702C60.8559 12.7702 59.6755 12.5136 58.9167 12.0263C58.2141 11.5389 57.7925 10.7437 57.7363 9.61501Z" fill="white"/>
<path fill-rule="evenodd" clip-rule="evenodd" d="M0.40332 12.5397V0.380859H4.42226V10.6415H10.5209V12.5397H0.40332Z" fill="white"/>
<path fill-rule="evenodd" clip-rule="evenodd" d="M21.791 9.61501C21.7067 10.6411 21.2008 11.4363 20.3014 11.975C19.4021 12.5136 18.0812 12.7958 16.3949 12.7958C14.5681 12.7958 13.1348 12.3854 12.1512 11.5902C11.1675 10.7693 10.6616 9.61501 10.6616 8.10157C10.6616 6.51117 11.1675 5.27989 12.2074 4.38208C13.2472 3.50993 14.7087 3.07385 16.5917 3.07385C18.3622 3.07385 19.7113 3.50993 20.6106 4.40774C21.538 5.30554 21.9877 6.63942 21.9877 8.43504V8.74286H14.1466C14.1747 9.4098 14.3995 9.92283 14.8211 10.3076C15.2426 10.6924 15.8047 10.8719 16.5073 10.8719C17.0413 10.8719 17.491 10.7693 17.8283 10.5385C18.1655 10.3076 18.3622 9.99978 18.3903 9.61501H21.791ZM14.1747 6.87029H18.5871C18.559 6.2803 18.3622 5.84422 17.9688 5.51075C17.5753 5.17728 17.0694 5.02337 16.3949 5.02337C15.7204 5.02337 15.2145 5.17728 14.8211 5.51075C14.4276 5.81857 14.2028 6.25465 14.1747 6.87029Z" fill="white"/>
<path fill-rule="evenodd" clip-rule="evenodd" d="M39.6092 10.8206C40.34 10.8206 40.9301 10.5641 41.3517 10.0511C41.7733 9.53805 41.9981 8.84546 41.9981 7.94766C41.9981 7.04985 41.7733 6.3316 41.3517 5.81857C40.9301 5.30554 40.34 5.02337 39.5811 5.02337C38.8223 5.02337 38.2321 5.27989 37.8106 5.76727C37.389 6.2803 37.1923 6.99855 37.1923 7.89635C37.1923 8.81981 37.389 9.53805 37.8106 10.0511C38.2321 10.5641 38.8223 10.8206 39.6092 10.8206ZM39.4406 12.7958C37.5857 12.7958 36.1524 12.3854 35.1687 11.5389C34.1851 10.6924 33.6792 9.48675 33.6792 7.922C33.6792 6.35726 34.1851 5.15163 35.1968 4.33078C36.2086 3.50993 37.67 3.07385 39.5811 3.07385C41.4922 3.07385 42.9537 3.48428 43.9935 4.33078C45.0053 5.17728 45.5112 6.38291 45.5112 7.94766C45.5112 9.53805 45.0053 10.7437 43.9935 11.5645C42.9537 12.3854 41.4641 12.7958 39.4406 12.7958Z" fill="white"/>
<path fill-rule="evenodd" clip-rule="evenodd" d="M22.8584 1.17615V12.5655H26.1747V7.64035L30.4185 12.5655H34.7185L30.025 7.30688L34.2969 3.33088H30.3061L26.1747 7.17862V1.17615H22.8584Z" fill="white"/>
<path fill-rule="evenodd" clip-rule="evenodd" d="M68.5004 5.45963C67.8821 5.45963 67.3481 4.9979 67.3481 4.40792C67.3481 3.84358 67.854 3.3562 68.5004 3.3562C69.1187 3.3562 69.6527 3.81793 69.6527 4.40792C69.6527 4.9979 69.1468 5.45963 68.5004 5.45963ZM68.5004 3.53576C67.9664 3.53576 67.5168 3.94619 67.5168 4.43357C67.5168 4.92095 67.9664 5.33137 68.5004 5.33137C69.0344 5.33137 69.4841 4.92095 69.4841 4.43357C69.4841 3.92054 69.0625 3.53576 68.5004 3.53576Z" fill="white"/>
<path fill-rule="evenodd" clip-rule="evenodd" d="M68.1633 4.33139H68.5286C68.6129 4.33139 68.6691 4.33139 68.7253 4.30574C68.7816 4.28009 68.8097 4.25444 68.8378 4.22878C68.8659 4.20313 68.8659 4.15183 68.8659 4.12618C68.8659 4.07487 68.8378 4.02357 68.8097 3.99792C68.7535 3.97227 68.6972 3.94662 68.5848 3.94662H68.1633V4.33139ZM67.9946 4.99833V3.81836H68.5848C68.6972 3.81836 68.7816 3.81836 68.8378 3.84401C68.894 3.86966 68.9502 3.89531 68.9783 3.94662C69.0064 3.99792 69.0345 4.04922 69.0345 4.12618C69.0345 4.20313 69.0064 4.28009 68.9502 4.33139C68.894 4.38269 68.8097 4.434 68.6691 4.434C68.7253 4.45965 68.7535 4.4853 68.7816 4.4853C68.8378 4.5366 68.8659 4.58791 68.9221 4.63921L69.1469 4.97268H68.9221L68.7534 4.71617C68.6972 4.63921 68.6691 4.58791 68.641 4.56226C68.6129 4.5366 68.5848 4.4853 68.5567 4.4853C68.5286 4.45965 68.5005 4.45965 68.4724 4.45965C68.4443 4.45965 68.4162 4.45965 68.3881 4.45965H68.1914V4.99833H67.9946Z" fill="white"/>
<path fill-rule="evenodd" clip-rule="evenodd" d="M27.1588 16.7212C27.1307 16.5929 27.0464 16.4903 26.9621 16.4134C26.8496 16.3621 26.7372 16.3108 26.5686 16.3108C26.2876 16.3108 26.0908 16.3877 25.9222 16.5416C25.7536 16.6956 25.6974 16.9264 25.6974 17.1829C25.6974 17.4394 25.7817 17.6447 25.9503 17.7986C26.1189 17.9525 26.3438 18.0038 26.681 18.0038C26.7653 18.0038 26.8777 18.0038 26.9621 17.9781C27.0745 17.9525 27.1588 17.9268 27.2712 17.9012V17.4908H26.4843V16.9777H28.1706V18.3886C27.8895 18.4655 27.6085 18.4912 27.3274 18.5425C27.0745 18.5681 26.7934 18.5938 26.5686 18.5938C25.9222 18.5938 25.4444 18.4912 25.1072 18.2603C24.7699 18.0294 24.6294 17.696 24.6294 17.2342C24.6294 16.7725 24.798 16.4134 25.1353 16.1569C25.4725 15.9004 25.9784 15.7721 26.6248 15.7721C27.1307 15.7721 27.496 15.849 27.7771 16.003C28.03 16.1569 28.1706 16.3877 28.1987 16.7212H27.1588Z" fill="white"/>
<path fill-rule="evenodd" clip-rule="evenodd" d="M28.6763 18.5419V15.8229H30.3906C30.756 15.8229 30.9808 15.8229 31.1214 15.8485C31.2619 15.8742 31.3462 15.8998 31.4305 15.9511C31.5148 16.0024 31.5991 16.0794 31.6272 16.182C31.6834 16.2846 31.7115 16.3872 31.7115 16.5155C31.7115 16.695 31.6553 16.8489 31.5148 16.9515C31.3743 17.0542 31.2057 17.1311 30.9808 17.1568C31.2338 17.1568 31.4024 17.2081 31.5148 17.285C31.6272 17.362 31.6834 17.4902 31.7115 17.6441L31.7678 18.1059C31.7678 18.1572 31.7959 18.2341 31.7959 18.3111C31.824 18.388 31.8521 18.465 31.8802 18.5676H30.8403C30.8122 18.5163 30.8122 18.465 30.7841 18.4137C30.7841 18.3624 30.756 18.2854 30.756 18.2085L30.7279 17.8237C30.7279 17.6954 30.6998 17.6185 30.6436 17.5672C30.5874 17.5159 30.475 17.4902 30.3344 17.4902H29.7161V18.5676H28.6763V18.5419ZM29.6599 16.3616V16.9002H30.222C30.3625 16.9002 30.4468 16.8746 30.5312 16.8233C30.5874 16.772 30.6155 16.7207 30.6155 16.6181C30.6155 16.5155 30.5874 16.4385 30.5312 16.4129C30.475 16.3616 30.3625 16.3616 30.222 16.3616H29.6599Z" fill="white"/>
<path fill-rule="evenodd" clip-rule="evenodd" d="M32.1614 15.8229H33.1451V17.362C33.1451 17.5928 33.2013 17.7467 33.3137 17.875C33.4261 17.9776 33.5947 18.0289 33.8477 18.0289C34.0725 18.0289 34.2411 17.9776 34.3536 17.875C34.466 17.7724 34.5222 17.5928 34.5222 17.3876V15.8485H35.4777V17.3876C35.4777 17.8237 35.3372 18.1315 35.0843 18.3111C34.8032 18.5163 34.3817 18.6189 33.7915 18.6189C33.2013 18.6189 32.7797 18.5163 32.5268 18.3367C32.2738 18.1315 32.1333 17.8237 32.1333 17.4133V15.8229H32.1614Z" fill="white"/>
<path fill-rule="evenodd" clip-rule="evenodd" d="M36.0117 18.5419V15.8229H37.8385C38.232 15.8229 38.5411 15.8998 38.7097 16.0281C38.8784 16.1563 38.9908 16.3616 38.9908 16.6437C38.9908 16.9259 38.9065 17.1568 38.7097 17.3107C38.513 17.4646 38.2601 17.5415 37.9228 17.5415H37.0235V18.5419H36.0117ZM37.0235 16.3872V16.9515H37.5856C37.7261 16.9515 37.8104 16.9259 37.8947 16.8746C37.9509 16.8233 37.979 16.7463 37.979 16.6694C37.979 16.5668 37.9509 16.5155 37.8666 16.4642C37.8104 16.4129 37.698 16.3872 37.5575 16.3872H37.0235Z" fill="white"/>
<path fill-rule="evenodd" clip-rule="evenodd" d="M41.0423 18.5931C40.4521 18.5931 40.0025 18.4649 39.6933 18.234C39.3842 18.0032 39.2437 17.644 39.2437 17.1823C39.2437 16.7206 39.4123 16.3871 39.7214 16.1562C40.0587 15.9254 40.5084 15.7971 41.1267 15.7971C41.7168 15.7971 42.1946 15.9254 42.5038 16.1562C42.8129 16.3871 42.9815 16.7462 42.9815 17.208C42.9815 17.6697 42.8129 18.0032 42.5038 18.234C42.1665 18.4649 41.6887 18.5931 41.0423 18.5931ZM40.2835 17.208C40.2835 17.4901 40.3397 17.6953 40.4803 17.8236C40.6208 17.9519 40.8175 18.0288 41.0985 18.0288C41.3796 18.0288 41.5763 17.9519 41.7168 17.8236C41.8574 17.6953 41.9136 17.4901 41.9136 17.208C41.9136 16.9258 41.8293 16.6949 41.6887 16.541C41.5482 16.3871 41.3234 16.3102 41.0704 16.3102C40.8175 16.3102 40.6208 16.3871 40.4803 16.541C40.3397 16.7206 40.2835 16.9258 40.2835 17.208Z" fill="white"/>
<path fill-rule="evenodd" clip-rule="evenodd" d="M0.347168 14.669H67.2357C67.2357 14.669 53.9142 14.0533 34.1849 14.0533C14.4837 14.079 0.347168 14.669 0.347168 14.669Z" fill="white"/>
</svg>
