<?xml version="1.0" encoding="UTF-8"?>
<svg width="132px" height="25px" viewBox="0 0 132 25" version="1.1" xmlns="http://www.w3.org/2000/svg" xmlns:xlink="http://www.w3.org/1999/xlink">
    <!-- Generator: sketchtool 61.2 (101010) - https://sketch.com -->
    <title>07A9FE9C-1019-47E6-A71F-2F7C7BA848E1</title>
    <desc>Created with sketchtool.</desc>
    <g id="Page-1" stroke="none" stroke-width="1" fill="none" fill-rule="evenodd">
        <g id="Header-v4---photo-2" transform="translate(-658.000000, -817.000000)" fill="#ACB3C2" fill-rule="nonzero">
            <g id="Ballwiz." transform="translate(658.000000, 817.000000)">
                <path d="M0.888905868,23.7723214 C0.641986337,23.7723214 0.432107883,23.6941972 0.259264211,23.5379464 C0.0864205396,23.3816956 0,23.1919654 0,22.96875 L0,1.171875 C0,0.926338058 0.0802476439,0.72544721 0.240745339,0.569196429 C0.401243034,0.412945647 0.617294384,0.334821429 0.888905868,0.334821429 L11.6298518,0.334821429 C14.5188103,0.334821429 16.6793238,0.909592467 18.1114571,2.05915179 C19.5435903,3.2087111 20.2596462,4.77677578 20.2596462,6.76339286 C20.2596462,7.92411295 19.9448286,8.91182628 19.3151838,9.7265625 C18.6855389,10.5412987 17.9509644,11.1272304 17.111438,11.484375 C18.1485,11.9084843 19.0250512,12.6004416 19.7411178,13.5602679 C20.4571845,14.5200941 20.8152124,15.6138331 20.8152124,16.8415179 C20.8152124,18.9174211 20.0374275,20.5915115 18.4818345,21.8638393 C16.9262415,23.1361671 14.7533822,23.7723214 11.9631915,23.7723214 L0.888905868,23.7723214 Z M10.9631724,9.94419643 C12.222462,9.94419643 13.1916066,9.66518136 13.8706353,9.10714286 C14.549664,8.54910435 14.8891733,7.80134397 14.8891733,6.86383929 C14.8891733,5.9263346 14.5558369,5.20089542 13.8891542,4.6875 C13.2224715,4.17410458 12.2471539,3.91741071 10.9631724,3.91741071 L5.22232197,3.91741071 L5.22232197,9.94419643 L10.9631724,9.94419643 Z M11.3335498,20.1897321 C12.6175314,20.1897321 13.6175405,19.871655 14.3336071,19.2354911 C15.0496738,18.5993272 15.4077017,17.7901835 15.4077017,16.8080357 C15.4077017,15.8258879 15.0435009,15.0167443 14.3150882,14.3805804 C13.5866756,13.7444165 12.5928394,13.4263393 11.3335498,13.4263393 L5.22232197,13.4263393 L5.22232197,20.1897321 L11.3335498,20.1897321 Z M30.9384678,24.1071429 C29.6791782,24.1071429 28.5248467,23.8783505 27.4754387,23.4207589 C26.4260307,22.9631674 25.5988627,22.3437539 24.9939098,21.5625 C24.388957,20.7812461 24.0864851,19.9218797 24.0864851,18.984375 C24.0864851,17.4665103 24.7655036,16.238844 26.123561,15.3013393 C27.4816184,14.3638346 29.3458329,13.7276802 31.7162604,13.3928571 L36.7904314,12.7232143 L36.7904314,12.0200893 C36.7904314,11.0602631 36.518824,10.3348239 35.9756011,9.84375 C35.4323781,9.35267612 34.5681727,9.10714286 33.3829589,9.10714286 C32.5681245,9.10714286 31.9137975,9.24107009 31.4199585,9.50892857 C30.9261194,9.77678705 30.5248812,10.0502218 30.2162318,10.3292411 L29.605109,10.8816964 C29.5063412,11.1495549 29.3211543,11.2834821 29.0495428,11.2834821 L26.1605988,11.2834821 C25.9383712,11.2834821 25.7470114,11.2165185 25.5865137,11.0825893 C25.426016,10.94866 25.3457684,10.7700904 25.3457684,10.546875 C25.3704603,9.9888365 25.6729322,9.35826244 26.2531931,8.65513393 C26.833454,7.95200541 27.7285239,7.33817227 28.9384296,6.81361607 C30.1483353,6.28905988 31.6421761,6.02678571 33.4199967,6.02678571 C36.3336472,6.02678571 38.4571233,6.61829766 39.7904887,7.80133929 C41.1238542,8.98438092 41.7905269,10.5357047 41.7905269,12.4553571 L41.7905269,22.96875 C41.7905269,23.1919654 41.7102793,23.3816956 41.5497816,23.5379464 C41.3892839,23.6941972 41.1732326,23.7723214 40.9016211,23.7723214 L37.8274883,23.7723214 C37.5805688,23.7723214 37.3706903,23.6941972 37.1978466,23.5379464 C37.025003,23.3816956 36.9385824,23.1919654 36.9385824,22.96875 L36.9385824,21.6629464 C36.3953594,22.3772357 35.6299204,22.9631674 34.6422423,23.4207589 C33.6545641,23.8783505 32.419985,24.1071429 30.9384678,24.1071429 Z M32.1977511,20.8928571 C33.5558085,20.8928571 34.6669298,20.4910754 35.5311481,19.6875 C36.3953665,18.8839246 36.8274692,17.7232219 36.8274692,16.2053571 L36.8274692,15.5357143 L33.1236947,16.0714286 C30.2841201,16.4732163 28.8643541,17.3325827 28.8643541,18.6495536 C28.8643541,19.3638429 29.1915176,19.9162927 29.8458543,20.3069196 C30.5001911,20.6975466 31.2841489,20.8928571 32.1977511,20.8928571 Z M47.8025927,23.7723214 C47.5556732,23.7723214 47.3457947,23.6941972 47.172951,23.5379464 C47.0001074,23.3816956 46.9136868,23.1919654 46.9136868,22.96875 L46.9136868,0.803571429 C46.9136868,0.558034487 47.0001074,0.36272394 47.172951,0.217633929 C47.3457947,0.0725439174 47.5556732,0 47.8025927,0 L50.9137632,0 C51.1853747,0 51.4014261,0.0725439174 51.5619238,0.217633929 C51.7224215,0.36272394 51.8026691,0.558034487 51.8026691,0.803571429 L51.8026691,22.96875 C51.8026691,23.1919654 51.7224215,23.3816956 51.5619238,23.5379464 C51.4014261,23.6941972 51.1853747,23.7723214 50.9137632,23.7723214 L47.8025927,23.7723214 Z M57.9999236,23.7723214 C57.7530041,23.7723214 57.5431256,23.6941972 57.3702819,23.5379464 C57.1974383,23.3816956 57.1110177,23.1919654 57.1110177,22.96875 L57.1110177,0.803571429 C57.1110177,0.558034487 57.1974383,0.36272394 57.3702819,0.217633929 C57.5431256,0.0725439174 57.7530041,0 57.9999236,0 L61.1110941,0 C61.3827056,0 61.598757,0.0725439174 61.7592547,0.217633929 C61.9197524,0.36272394 62,0.558034487 62,0.803571429 L62,22.96875 C62,23.1919654 61.9197524,23.3816956 61.7592547,23.5379464 C61.598757,23.6941972 61.3827056,23.7723214 61.1110941,23.7723214 L57.9999236,23.7723214 Z" id="Ball"></path>
                <path d="M71.5017587,24.1071429 C70.8895373,24.1071429 70.4854773,23.8308143 70.2895664,23.2781489 L65.0367331,7.89202201 C65.0122442,7.82570216 65,7.72622389 65,7.5935842 C65,7.39462467 65.0734655,7.22330097 65.2203986,7.07960798 C65.3673317,6.93591498 65.5509954,6.86406956 65.7713951,6.86406956 L68.5631107,6.86406956 C68.8079993,6.86406956 69.0222735,6.93038841 69.20594,7.0630281 C69.3896064,7.19566779 69.5059267,7.33935863 69.5549044,7.49410493 L73.1180151,18.4036648 L76.9015244,7.5935842 C76.974991,7.39462467 77.1035556,7.22330097 77.287222,7.07960798 C77.4708884,6.93591498 77.7096512,6.86406956 78.0035174,6.86406956 L79.8769055,6.86406956 C80.1707718,6.86406956 80.4095346,6.93591498 80.593201,7.07960798 C80.7768674,7.22330097 80.8931877,7.39462467 80.9421654,7.5935842 L84.7624078,18.4036648 L88.3255185,7.49410493 C88.3744963,7.33935863 88.4846945,7.19566779 88.6561164,7.0630281 C88.8275384,6.93038841 89.0479348,6.86406956 89.3173123,6.86406956 L92.0722948,6.86406956 C92.2926945,6.86406956 92.4824802,6.93591498 92.6416578,7.07960798 C92.8008354,7.22330097 92.880423,7.39462467 92.880423,7.5935842 L92.8069568,7.89202201 L87.5541234,23.2781489 C87.456168,23.5434283 87.3153592,23.7479114 87.1316928,23.8916044 C86.9480264,24.0352974 86.6970194,24.1071429 86.3786642,24.1071429 L83.9542796,24.1071429 C83.3175694,24.1071429 82.9135093,23.8308143 82.7420873,23.2781489 L78.958578,12.8659855 L75.1383356,23.2781489 C74.9424248,23.8308143 74.5261205,24.1071429 73.8894102,24.1071429 L71.5017587,24.1071429 Z M97.5206464,4.04549027 C97.2757579,4.04549027 97.0676057,3.96811828 96.8961837,3.81337198 C96.7247617,3.65862568 96.639052,3.47072227 96.639052,3.24965612 L96.639052,0.828993908 C96.639052,0.585821146 96.7247617,0.386864598 96.8961837,0.232118294 C97.0676057,0.0773719911 97.2757579,0 97.5206464,0 L100.900092,0 C101.169469,0 101.389865,0.0773719911 101.561287,0.232118294 C101.732709,0.386864598 101.818419,0.585821146 101.818419,0.828993908 L101.818419,3.24965612 C101.818419,3.47072227 101.726587,3.65862568 101.542921,3.81337198 C101.359254,3.96811828 101.14498,4.04549027 100.900092,4.04549027 L97.5206464,4.04549027 Z M97.6675788,24.1071429 C97.4226903,24.1071429 97.2145381,24.0297709 97.0431161,23.8750246 C96.8716941,23.7202783 96.7859844,23.5323749 96.7859844,23.3113087 L96.7859844,7.65990371 C96.7859844,7.41673095 96.8716941,7.22330097 97.0431161,7.07960798 C97.2145381,6.93591498 97.4226903,6.86406956 97.6675788,6.86406956 L100.789892,6.86406956 C101.034781,6.86406956 101.242933,6.94144155 101.414355,7.09618786 C101.585777,7.25093416 101.671487,7.43883757 101.671487,7.65990371 L101.671487,23.3113087 C101.671487,23.5323749 101.585777,23.7202783 101.414355,23.8750246 C101.242933,24.0297709 101.034781,24.1071429 100.789892,24.1071429 L97.6675788,24.1071429 Z M106.78924,24.1071429 C106.544352,24.1071429 106.3362,24.0297709 106.164778,23.8750246 C105.993356,23.7202783 105.907646,23.5323749 105.907646,23.3113087 L105.907646,21.3880428 C105.907646,21.1890833 105.950501,21.012233 106.036212,20.8574867 C106.121923,20.7027404 106.250488,20.514837 106.421909,20.2937709 L115.78885,10.3790037 L107.083105,10.3790037 C106.838217,10.3790037 106.630065,10.2961052 106.458643,10.1303056 C106.287221,9.96450595 106.201511,9.77107597 106.201511,9.55000983 L106.201511,7.65990371 C106.201511,7.43883757 106.287221,7.25093416 106.458643,7.09618786 C106.630065,6.94144155 106.838217,6.86406956 107.083105,6.86406956 L121.078416,6.86406956 C121.323305,6.86406956 121.531457,6.94144155 121.702879,7.09618786 C121.874301,7.25093416 121.960011,7.43883757 121.960011,7.65990371 L121.960011,9.71580861 C121.960011,9.89266152 121.904912,10.0695118 121.794712,10.2463647 C121.684512,10.4232176 121.568192,10.5890147 121.445747,10.7437611 L112.262472,20.5922087 L121.813078,20.5922087 C122.057967,20.5922087 122.266119,20.6695807 122.437541,20.824327 C122.608963,20.9790733 122.694673,21.1780298 122.694673,21.4212026 L122.694673,23.3113087 C122.694673,23.5323749 122.615085,23.7202783 122.455908,23.8750246 C122.29673,24.0297709 122.082456,24.1071429 121.813078,24.1071429 L106.78924,24.1071429 Z M127.408362,24.1071429 C127.163474,24.1071429 126.955322,24.0297709 126.7839,23.8750246 C126.612478,23.7202783 126.526768,23.5323749 126.526768,23.3113087 L126.526768,19.9621733 C126.526768,19.7411072 126.612478,19.5532038 126.7839,19.3984575 C126.955322,19.2437112 127.163474,19.1663392 127.408362,19.1663392 L131.118406,19.1663392 C131.363294,19.1663392 131.571446,19.2437112 131.742868,19.3984575 C131.91429,19.5532038 132,19.7411072 132,19.9621733 L132,23.3113087 C132,23.5323749 131.920412,23.7202783 131.761235,23.8750246 C131.602057,24.0297709 131.387783,24.1071429 131.118406,24.1071429 L127.408362,24.1071429 Z" id="wiz."></path>
            </g>
        </g>
    </g>
</svg>