<?xml version="1.0" encoding="UTF-8"?>
<svg width="87px" height="19px" viewBox="0 0 87 19" version="1.1" xmlns="http://www.w3.org/2000/svg" xmlns:xlink="http://www.w3.org/1999/xlink">
    <!-- Generator: sketchtool 53.2 (72643) - https://sketchapp.com -->
    <title>B47D2D4A-3969-46CC-B1A2-4B054A34F486</title>
    <desc>Created with sketchtool.</desc>
    <g id="Page-1" stroke="none" stroke-width="1" fill="none" fill-rule="evenodd">
        <g id="Desktop-HD-Copy-2" transform="translate(-790.000000, -6150.000000)" fill-rule="nonzero">
            <g id="Ballwiz." transform="translate(790.341023, 6150.552000)">
                <path d="M0.576,17.448 C0.4159992,17.448 0.28000056,17.3920006 0.168,17.28 C0.05599944,17.1679994 -6.25277607e-13,17.0320008 -6.25277607e-13,16.872 L-6.25277607e-13,1.248 C-6.25277607e-13,1.07199912 0.05199948,0.92800056 0.156,0.816 C0.26000052,0.70399944 0.39999912,0.648 0.576,0.648 L7.536,0.648 C9.40800936,0.648 10.8079954,1.05999588 11.736,1.884 C12.6640046,2.70800412 13.128,3.83199288 13.128,5.256 C13.128,6.08800416 12.924002,6.79599708 12.516,7.38 C12.107998,7.96400292 11.6320027,8.38399872 11.088,8.64 C11.7600034,8.94400152 12.3279977,9.43999656 12.792,10.128 C13.2560023,10.8160034 13.488,11.5999956 13.488,12.48 C13.488,13.9680074 12.984005,15.1679954 11.976,16.08 C10.967995,16.9920046 9.56000904,17.448 7.752,17.448 L0.576,17.448 Z M7.104,7.536 C7.92000408,7.536 8.5479978,7.336002 8.988,6.936 C9.4280022,6.535998 9.648,6.00000336 9.648,5.328 C9.648,4.65599664 9.43200216,4.13600184 9,3.768 C8.56799784,3.39999816 7.93600416,3.216 7.104,3.216 L3.384,3.216 L3.384,7.536 L7.104,7.536 Z M7.344,14.88 C8.17600416,14.88 8.82399768,14.6520023 9.288,14.196 C9.75200232,13.7399977 9.984,13.1600035 9.984,12.456 C9.984,11.7519965 9.74800236,11.1720023 9.276,10.716 C8.80399764,10.2599977 8.16000408,10.032 7.344,10.032 L3.384,10.032 L3.384,14.88 L7.344,14.88 Z M20.0477442,17.688 C19.2317401,17.688 18.4837476,17.5240016 17.8037442,17.196 C17.1237408,16.8679984 16.5877462,16.4240028 16.1957442,15.864 C15.8037422,15.3039972 15.6077442,14.6880034 15.6077442,14.016 C15.6077442,12.9279946 16.0477398,12.0480034 16.9277442,11.376 C17.8077486,10.7039966 19.0157365,10.2480012 20.5517442,10.008 L23.8397442,9.528 L23.8397442,9.024 C23.8397442,8.33599656 23.663746,7.81600176 23.3117442,7.464 C22.9597424,7.11199824 22.399748,6.936 21.6317442,6.936 C21.1037416,6.936 20.6797458,7.03199904 20.3597442,7.224 C20.0397426,7.41600096 19.7797452,7.611999 19.5797442,7.812 L19.1837442,8.208 C19.1197439,8.40000096 18.9997451,8.496 18.8237442,8.496 L16.9517442,8.496 C16.8077435,8.496 16.6837447,8.44800048 16.5797442,8.352 C16.4757437,8.25599952 16.4237442,8.1280008 16.4237442,7.968 C16.4397443,7.567998 16.6357423,7.11600252 17.0117442,6.612 C17.3877461,6.10799748 17.9677403,5.66800188 18.7517442,5.292 C19.5357481,4.91599812 20.5037384,4.728 21.6557442,4.728 C23.5437536,4.728 24.9197399,5.15199576 25.7837442,6 C26.6477485,6.84800424 27.0797442,7.95999312 27.0797442,9.336 L27.0797442,16.872 C27.0797442,17.0320008 27.0277447,17.1679994 26.9237442,17.28 C26.8197437,17.3920006 26.6797451,17.448 26.5037442,17.448 L24.5117442,17.448 C24.3517434,17.448 24.2157448,17.3920006 24.1037442,17.28 C23.9917436,17.1679994 23.9357442,17.0320008 23.9357442,16.872 L23.9357442,15.936 C23.5837424,16.4480026 23.0877474,16.8679984 22.4477442,17.196 C21.807741,17.5240016 21.007749,17.688 20.0477442,17.688 Z M20.8637442,15.384 C21.7437486,15.384 22.4637414,15.0960029 23.0237442,14.52 C23.583747,13.9439971 23.8637442,13.1120054 23.8637442,12.024 L23.8637442,11.544 L21.4637442,11.928 C19.623735,12.2160014 18.7037442,12.8319953 18.7037442,13.776 C18.7037442,14.2880026 18.9157421,14.6839986 19.3397442,14.964 C19.7637463,15.2440014 20.2717412,15.384 20.8637442,15.384 Z M30.9754884,17.448 C30.8154876,17.448 30.679489,17.3920006 30.5674884,17.28 C30.4554878,17.1679994 30.3994884,17.0320008 30.3994884,16.872 L30.3994884,0.984 C30.3994884,0.80799912 30.4554878,0.66800052 30.5674884,0.564 C30.679489,0.45999948 30.8154876,0.408 30.9754884,0.408 L32.9914884,0.408 C33.1674893,0.408 33.3074879,0.45999948 33.4114884,0.564 C33.5154889,0.66800052 33.5674884,0.80799912 33.5674884,0.984 L33.5674884,16.872 C33.5674884,17.0320008 33.5154889,17.1679994 33.4114884,17.28 C33.3074879,17.3920006 33.1674893,17.448 32.9914884,17.448 L30.9754884,17.448 Z M37.5832326,17.448 C37.4232318,17.448 37.2872332,17.3920006 37.1752326,17.28 C37.063232,17.1679994 37.0072326,17.0320008 37.0072326,16.872 L37.0072326,0.984 C37.0072326,0.80799912 37.063232,0.66800052 37.1752326,0.564 C37.2872332,0.45999948 37.4232318,0.408 37.5832326,0.408 L39.5992326,0.408 C39.7752335,0.408 39.9152321,0.45999948 40.0192326,0.564 C40.1232331,0.66800052 40.1752326,0.80799912 40.1752326,0.984 L40.1752326,16.872 C40.1752326,17.0320008 40.1232331,17.1679994 40.0192326,17.28 C39.9152321,17.3920006 39.7752335,17.448 39.5992326,17.448 L37.5832326,17.448 Z" id="Ball" fill="#C6CCDA"></path>
                <path d="M46.9989768,17.448 C46.5989748,17.448 46.3349774,17.248002 46.2069768,16.848 L42.7749768,5.712 C42.7589767,5.66399976 42.7509768,5.59200048 42.7509768,5.496 C42.7509768,5.35199928 42.7989763,5.22800052 42.8949768,5.124 C42.9909773,5.01999948 43.1109761,4.968 43.2549768,4.968 L45.0789768,4.968 C45.2389776,4.968 45.3789762,5.01599952 45.4989768,5.112 C45.6189774,5.20800048 45.6949766,5.31199944 45.7269768,5.424 L48.0549768,13.32 L50.5269768,5.496 C50.574977,5.35199928 50.6589762,5.22800052 50.7789768,5.124 C50.8989774,5.01999948 51.0549758,4.968 51.2469768,4.968 L52.4709768,4.968 C52.6629778,4.968 52.8189762,5.01999948 52.9389768,5.124 C53.0589774,5.22800052 53.1349766,5.35199928 53.1669768,5.496 L55.6629768,13.32 L57.9909768,5.424 C58.022977,5.31199944 58.0949762,5.20800048 58.2069768,5.112 C58.3189774,5.01599952 58.4629759,4.968 58.6389768,4.968 L60.4389768,4.968 C60.5829775,4.968 60.7069763,5.01999948 60.8109768,5.124 C60.9149773,5.22800052 60.9669768,5.35199928 60.9669768,5.496 L60.9189768,5.712 L57.4869768,16.848 C57.4229765,17.040001 57.3309774,17.1879995 57.2109768,17.292 C57.0909762,17.3960005 56.9269778,17.448 56.7189768,17.448 L55.1349768,17.448 C54.7189747,17.448 54.4549774,17.248002 54.3429768,16.848 L51.8709768,9.312 L49.3749768,16.848 C49.2469762,17.248002 48.9749789,17.448 48.5589768,17.448 L46.9989768,17.448 Z M63.998721,2.928 C63.8387202,2.928 63.7027216,2.87200056 63.590721,2.76 C63.4787204,2.64799944 63.422721,2.5120008 63.422721,2.352 L63.422721,0.6 C63.422721,0.42399912 63.4787204,0.28000056 63.590721,0.168 C63.7027216,0.05599944 63.8387202,0 63.998721,0 L66.206721,0 C66.3827219,0 66.5267204,0.05599944 66.638721,0.168 C66.7507216,0.28000056 66.806721,0.42399912 66.806721,0.6 L66.806721,2.352 C66.806721,2.5120008 66.7467216,2.64799944 66.626721,2.76 C66.5067204,2.87200056 66.3667218,2.928 66.206721,2.928 L63.998721,2.928 Z M64.094721,17.448 C63.9347202,17.448 63.7987216,17.3920006 63.686721,17.28 C63.5747204,17.1679994 63.518721,17.0320008 63.518721,16.872 L63.518721,5.544 C63.518721,5.36799912 63.5747204,5.22800052 63.686721,5.124 C63.7987216,5.01999948 63.9347202,4.968 64.094721,4.968 L66.134721,4.968 C66.2947218,4.968 66.4307204,5.02399944 66.542721,5.136 C66.6547216,5.24800056 66.710721,5.3839992 66.710721,5.544 L66.710721,16.872 C66.710721,17.0320008 66.6547216,17.1679994 66.542721,17.28 C66.4307204,17.3920006 66.2947218,17.448 66.134721,17.448 L64.094721,17.448 Z M70.0544652,17.448 C69.8944644,17.448 69.7584658,17.3920006 69.6464652,17.28 C69.5344646,17.1679994 69.4784652,17.0320008 69.4784652,16.872 L69.4784652,15.48 C69.4784652,15.3359993 69.5064649,15.2080006 69.5624652,15.096 C69.6184655,14.9839994 69.7024646,14.8480008 69.8144652,14.688 L75.9344652,7.512 L70.2464652,7.512 C70.0864644,7.512 69.9504658,7.4520006 69.8384652,7.332 C69.7264646,7.2119994 69.6704652,7.0720008 69.6704652,6.912 L69.6704652,5.544 C69.6704652,5.3839992 69.7264646,5.24800056 69.8384652,5.136 C69.9504658,5.02399944 70.0864644,4.968 70.2464652,4.968 L79.3904652,4.968 C79.550466,4.968 79.6864646,5.02399944 79.7984652,5.136 C79.9104658,5.24800056 79.9664652,5.3839992 79.9664652,5.544 L79.9664652,7.032 C79.9664652,7.16000064 79.9304656,7.28799936 79.8584652,7.416 C79.7864648,7.54400064 79.7104656,7.66399944 79.6304652,7.776 L73.6304652,14.904 L79.8704652,14.904 C80.030466,14.904 80.1664646,14.9599994 80.2784652,15.072 C80.3904658,15.1840006 80.4464652,15.3279991 80.4464652,15.504 L80.4464652,16.872 C80.4464652,17.0320008 80.3944657,17.1679994 80.2904652,17.28 C80.1864647,17.3920006 80.0464661,17.448 79.8704652,17.448 L70.0544652,17.448 Z M83.5262094,17.448 C83.3662086,17.448 83.23021,17.3920006 83.1182094,17.28 C83.0062088,17.1679994 82.9502094,17.0320008 82.9502094,16.872 L82.9502094,14.448 C82.9502094,14.2879992 83.0062088,14.1520006 83.1182094,14.04 C83.23021,13.9279994 83.3662086,13.872 83.5262094,13.872 L85.9502094,13.872 C86.1102102,13.872 86.2462088,13.9279994 86.3582094,14.04 C86.47021,14.1520006 86.5262094,14.2879992 86.5262094,14.448 L86.5262094,16.872 C86.5262094,17.0320008 86.4742099,17.1679994 86.3702094,17.28 C86.2662089,17.3920006 86.1262103,17.448 85.9502094,17.448 L83.5262094,17.448 Z" id="wiz." fill="#45ADFA"></path>
            </g>
        </g>
    </g>
</svg>