<?xml version="1.0" encoding="UTF-8"?>
<svg width="46px" height="40px" viewBox="0 0 46 40" version="1.1" xmlns="http://www.w3.org/2000/svg" xmlns:xlink="http://www.w3.org/1999/xlink">
    <!-- Generator: sketchtool 53.2 (72643) - https://sketchapp.com -->
    <title>6A282935-8C7E-41C1-9DFF-5623660E9E7C</title>
    <desc>Created with sketchtool.</desc>
    <g id="Page-1" stroke="none" stroke-width="1" fill="none" fill-rule="evenodd">
        <g id="Desktop-HD-Copy-2" transform="translate(-570.000000, -3286.000000)" fill="#8224E3" fill-rule="nonzero">
            <path d="M610.428476,3298.50005 C611.782639,3298.50005 612.954511,3298.99484 613.944093,3299.98443 C614.933674,3300.97401 615.428464,3302.14588 615.428464,3303.50004 L615.428464,3316.00001 C615.428464,3317.35417 614.933674,3318.52605 613.944093,3319.51563 C612.954511,3320.50521 611.782639,3321 610.428476,3321 L607.928482,3321 L607.928482,3325.06249 C607.928482,3325.32291 607.837336,3325.54426 607.655045,3325.72655 C607.472754,3325.90884 607.264421,3325.99999 607.030047,3325.99999 C606.795672,3325.99999 606.60036,3325.9479 606.444111,3325.84374 L597.928506,3321 L590.428524,3321 C589.074361,3321 587.902489,3320.50521 586.912907,3319.51563 C585.923326,3318.52605 585.428536,3317.35417 585.428536,3316.00001 L585.428536,3309.90628 L579.412925,3313.34377 C579.256675,3313.44793 579.061363,3313.50002 578.826989,3313.50002 C578.592615,3313.50002 578.384281,3313.40887 578.20199,3313.22658 C578.0197,3313.04429 577.928554,3312.82294 577.928554,3312.56252 L577.928554,3308.50003 L575.42856,3308.50003 C574.074397,3308.50003 572.902524,3308.00524 571.912943,3307.01566 C570.923362,3306.02608 570.428571,3304.8542 570.428571,3303.50004 L570.428571,3291.00007 C570.428571,3289.64591 570.923362,3288.47404 571.912943,3287.48445 C572.902524,3286.49487 574.074397,3286.00008 575.42856,3286.00008 L597.928506,3286.00008 C599.282669,3286.00008 600.454541,3286.49487 601.444123,3287.48445 C602.433704,3288.47404 602.928494,3289.64591 602.928494,3291.00007 L602.928494,3298.50005 L610.428476,3298.50005 Z M575.42856,3304.75004 L581.678545,3304.75004 L581.678545,3307.71878 L586.912907,3304.75004 L597.928506,3304.75004 C598.293089,3304.75004 598.592567,3304.63285 598.826941,3304.39848 C599.061316,3304.1641 599.178503,3303.86462 599.178503,3303.50004 L599.178503,3291.00007 C599.178503,3290.63549 599.061316,3290.33601 598.826941,3290.10164 C598.592567,3289.86726 598.293089,3289.75007 597.928506,3289.75007 L575.42856,3289.75007 C575.063977,3289.75007 574.764499,3289.86726 574.530124,3290.10164 C574.29575,3290.33601 574.178563,3290.63549 574.178563,3291.00007 L574.178563,3303.50004 C574.178563,3303.86462 574.29575,3304.1641 574.530124,3304.39848 C574.764499,3304.63285 575.063977,3304.75004 575.42856,3304.75004 Z M611.678473,3316.00001 L611.678473,3303.50004 C611.678473,3303.13546 611.561286,3302.83598 611.326911,3302.60161 C611.092537,3302.36723 610.793059,3302.25004 610.428476,3302.25004 L602.928494,3302.25004 L602.928494,3303.50004 C602.928494,3304.8542 602.433704,3306.02608 601.444123,3307.01566 C600.454541,3308.00524 599.282669,3308.50003 597.928506,3308.50003 L589.178527,3308.50003 L589.178527,3316.00001 C589.178527,3316.36459 589.295714,3316.66407 589.530088,3316.89845 C589.764463,3317.13282 590.063941,3317.25001 590.428524,3317.25001 L598.944129,3317.25001 L604.178491,3320.21875 L604.178491,3317.25001 L610.428476,3317.25001 C610.793059,3317.25001 611.092537,3317.13282 611.326911,3316.89845 C611.561286,3316.66407 611.678473,3316.36459 611.678473,3316.00001 Z" id="c"></path>
        </g>
    </g>
</svg>