<?xml version="1.0" encoding="UTF-8"?>
<svg width="89px" height="100px" viewBox="0 0 89 100" version="1.1" xmlns="http://www.w3.org/2000/svg" xmlns:xlink="http://www.w3.org/1999/xlink">
    <!-- Generator: sketchtool 53.2 (72643) - https://sketchapp.com -->
    <title>A7265545-5C5A-4426-B531-ABC03FFC763D</title>
    <desc>Created with sketchtool.</desc>
    <g id="Page-1" stroke="none" stroke-width="1" fill="none" fill-rule="evenodd">
        <g id="Desktop-HD-Copy-2" transform="translate(-800.000000, -5286.000000)" fill="#45DA60">
            <g id="graphql" transform="translate(800.000000, 5286.000000)">
                <path d="M53.0182082,11.4596515 L73.5706518,23.3319659 C74.1640098,22.7038429 74.8449307,22.1647485 75.592329,21.7313763 C79.8545998,19.2797347 85.2913755,20.7353534 87.7672176,25 C90.2176933,29.2646466 88.7627668,34.7036615 84.5001484,37.1806817 C83.7583157,37.6080874 82.9589083,37.9265507 82.1264674,38.126295 L82.1264674,61.8796151 C82.9498157,62.079695 83.7405142,62.3959844 84.4747819,62.8189707 C88.7627668,65.2959909 90.2176933,70.7353534 87.7418511,75 C85.2913755,79.2642989 79.8292333,80.7199177 75.566615,78.2686237 C74.7408243,77.7946287 73.9969052,77.1904058 73.3635498,76.4792591 L52.9362014,88.2785666 C53.2353619,89.1848132 53.3872902,90.1332024 53.3861966,91.0875944 C53.3861966,95.99053 49.4046949,100 44.4783771,100 C39.5520593,100 35.5705576,96.0159086 35.5705576,91.0875944 C35.5705576,90.2115115 35.6963477,89.3653266 35.9309012,88.5660747 L15.3840174,76.6972369 C14.7971663,77.312903 14.1258261,77.8419901 13.3901392,78.2686237 C9.1021543,80.7199177 3.66537865,79.2642989 1.21490301,75 C-1.23522514,70.7353534 0.219701332,65.2959909 4.48197221,62.8189707 C5.21624138,62.3959061 6.00693446,62.0795017 6.83028678,61.8792674 L6.83028678,38.126295 C5.99784584,37.9265507 5.1984384,37.6080874 4.45660568,37.1806817 C0.193987322,34.7293877 -1.26093915,29.2646466 1.18953649,25 C3.64001213,20.7353534 9.10180681,19.2797347 13.3644252,21.7313763 C14.1077308,22.1624352 14.7852983,22.6980735 15.3763727,23.321884 L35.9347236,11.4464407 C35.6923797,10.6235124 35.5697327,9.7699605 35.5705576,8.91205796 C35.5705576,3.98409145 39.5520593,0 44.4783771,0 C49.4046949,0 53.3861966,3.98374379 53.3861966,8.91205796 C53.3861966,9.79787515 53.2576265,10.6527513 53.0182082,11.4596515 Z M50.8769957,15.1176454 L71.4784349,27.017772 C70.8156379,29.3357562 71.1212191,31.8235956 72.3252598,33.912058 C73.579339,36.094617 75.6222128,37.5415444 77.889563,38.1054359 L77.889563,61.8883064 C77.77385,61.9164662 77.6588319,61.9474072 77.5445088,61.9800865 L50.6375774,15.355787 C50.7188893,15.277913 50.7988112,15.1986483 50.8769957,15.1179931 L50.8769957,15.1176454 Z M38.3247365,15.3610018 L11.4181526,61.984606 C11.3018106,61.9509511 11.1847994,61.919656 11.0671911,61.8907399 L11.0671911,38.1054359 C13.3345413,37.5415444 15.3774152,36.094617 16.6314944,33.912058 C17.8379844,31.8194945 18.1424019,29.3261487 17.4748444,27.0045612 L38.0703763,15.1079112 C38.1534256,15.1937812 38.2382124,15.2782606 38.3247365,15.3606541 L38.3247365,15.3610018 Z M46.9674237,17.4729874 L73.8677529,64.0861621 C73.2515631,64.6744101 72.7233909,65.3484927 72.2995458,66.0875944 C71.8767606,66.8222115 71.5606216,67.6132862 71.3606369,68.4370263 L17.5968122,68.4370263 C17.3965638,67.6132639 17.0801926,66.8221937 16.6572084,66.0875944 C16.2318861,65.3535884 15.7047177,64.6836044 15.0914337,64.0976346 L41.9969751,17.4750734 C42.8036165,17.7074507 43.6389621,17.8249533 44.4783771,17.8241159 C45.3425763,17.8241159 46.1775866,17.7017424 46.9674237,17.4729874 Z M51.0660284,85.0836451 L71.5336852,73.2606973 C71.4723315,73.0676879 71.4175132,72.8726598 71.3693241,72.6759467 L17.5853451,72.6759467 C17.5568512,72.7917148 17.5259249,72.9064399 17.4929137,73.0208174 L38.0606467,84.9018231 C39.7389884,83.1557987 42.0571144,82.1710462 44.4783771,82.1755364 C46.9861114,82.1711518 49.378871,83.2274319 51.0660284,85.0836451 L51.0660284,85.0836451 Z" id="Shape"></path>
            </g>
        </g>
    </g>
</svg>