<?xml version="1.0" encoding="UTF-8"?>
<svg width="38px" height="38px" viewBox="0 0 38 38" version="1.1" xmlns="http://www.w3.org/2000/svg" xmlns:xlink="http://www.w3.org/1999/xlink">
    <!-- Generator: sketchtool 53.2 (72643) - https://sketchapp.com -->
    <title>AD4DC01B-8F35-4BC8-A8DC-CC4F724CE57C</title>
    <desc>Created with sketchtool.</desc>
    <g id="Page-1" stroke="none" stroke-width="1" fill="none" fill-rule="evenodd">
        <g id="Desktop-HD-Copy-3" transform="translate(-232.000000, -2140.000000)">
            <g id="Group-4-Copy-6" transform="translate(232.000000, 2140.000000)">
                <circle id="Oval" fill="#45DA60" cx="19" cy="19" r="19"></circle>
                <path d="M15.3964211,25 L12.490178,25 L12.490178,15.6562723 L15.3964211,15.6562723 L15.3964211,25 Z M13.9589245,14.3750253 C13.5005921,14.3750253 13.1047601,14.2083592 12.7714274,13.8750265 C12.4380947,13.5416938 12.2714285,13.1458618 12.2714285,12.6875294 C12.2714285,12.229197 12.4380947,11.8333649 12.7714274,11.5000322 C13.1047601,11.1666995 13.5005921,11.0000334 13.9589245,11.0000334 C14.4172569,11.0000334 14.813089,11.1666995 15.1464217,11.5000322 C15.4797544,11.8333649 15.6464205,12.229197 15.6464205,12.6875294 C15.6464205,13.1458618 15.4797544,13.5416938 15.1464217,13.8750265 C14.813089,14.2083592 14.4172569,14.3750253 13.9589245,14.3750253 Z M26.2713952,25 L23.3651521,25 L23.3651521,20.4375109 C23.3651521,19.6875127 23.3026522,19.1458474 23.1776525,18.8125148 C22.9484866,18.2500161 22.5005707,17.9687668 21.8339058,17.9687668 C21.1672408,17.9687668 20.698492,18.2187662 20.4276591,18.718765 C20.2193261,19.0937641 20.1151598,19.6458463 20.1151598,20.375011 L20.1151598,25 L17.2401667,25 L17.2401667,15.6562723 L20.0214101,15.6562723 L20.0214101,16.9375192 L20.05266,16.9375192 C20.260993,16.5208537 20.5943252,16.1771045 21.0526576,15.9062717 C21.5526564,15.572939 22.1359885,15.4062729 22.8026534,15.4062729 C24.1568167,15.4062729 25.1047314,15.8333553 25.6463967,16.6875198 C26.0630622,17.3750182 26.2713952,18.4375156 26.2713952,19.8750122 L26.2713952,25 Z" id="L" fill="#FFFFFF" fill-rule="nonzero"></path>
            </g>
        </g>
    </g>
</svg>