<?xml version="1.0" encoding="UTF-8"?>
<svg width="97px" height="19px" viewBox="0 0 97 19" version="1.1" xmlns="http://www.w3.org/2000/svg" xmlns:xlink="http://www.w3.org/1999/xlink">
    <!-- Generator: Sketch 53.2 (72643) - https://sketchapp.com -->
    <title>Moneda.</title>
    <desc>Created with Sketch.</desc>
    <g id="moneda" stroke="none" stroke-width="1" fill="none" fill-rule="evenodd">
        <g transform="translate(-1170.000000, -6150.000000)" fill="#40CC8C" fill-rule="nonzero">
            <path d="M1171.4089,6168 C1171.24889,6168 1171.1129,6167.944 1171.0009,6167.832 C1170.88889,6167.72 1170.8329,6167.584 1170.8329,6167.424 L1170.8329,6151.8 C1170.8329,6151.624 1170.88489,6151.48 1170.9889,6151.368 C1171.0929,6151.256 1171.23289,6151.2 1171.4089,6151.2 L1173.3529,6151.2 C1173.6569,6151.2 1173.89689,6151.352 1174.0729,6151.656 L1178.7049,6160.248 L1183.3369,6151.656 C1183.5129,6151.352 1183.75289,6151.2 1184.0569,6151.2 L1185.9769,6151.2 C1186.1529,6151.2 1186.29689,6151.256 1186.4089,6151.368 C1186.5209,6151.48 1186.5769,6151.624 1186.5769,6151.8 L1186.5769,6167.424 C1186.5769,6167.6 1186.5209,6167.74 1186.4089,6167.844 C1186.29689,6167.948 1186.1529,6168 1185.9769,6168 L1183.9129,6168 C1183.75289,6168 1183.6169,6167.944 1183.5049,6167.832 C1183.39289,6167.72 1183.3369,6167.584 1183.3369,6167.424 L1183.3369,6157.104 L1180.0009,6163.44 C1179.82489,6163.792 1179.5609,6163.968 1179.2089,6163.968 L1178.2009,6163.968 C1177.86489,6163.968 1177.5929,6163.792 1177.3849,6163.44 L1174.0489,6157.104 L1174.0489,6167.424 C1174.0489,6167.584 1173.9969,6167.72 1173.8929,6167.832 C1173.78889,6167.944 1173.6489,6168 1173.4729,6168 L1171.4089,6168 Z M1195.80064,6168.24 C1193.91263,6168.24 1192.45664,6167.76 1191.43264,6166.8 C1190.40863,6165.84 1189.85664,6164.51201 1189.77664,6162.816 L1189.75264,6161.76 L1189.77664,6160.704 C1189.85664,6159.02399 1190.41663,6157.7 1191.45664,6156.732 C1192.49664,6155.764 1193.94463,6155.28 1195.80064,6155.28 C1197.64065,6155.28 1199.08063,6155.764 1200.12064,6156.732 C1201.16064,6157.7 1201.72064,6159.02399 1201.80064,6160.704 C1201.81664,6160.896 1201.82464,6161.248 1201.82464,6161.76 C1201.82464,6162.272 1201.81664,6162.624 1201.80064,6162.816 C1201.72064,6164.51201 1201.16864,6165.84 1200.14464,6166.8 C1199.12063,6167.76 1197.67265,6168.24 1195.80064,6168.24 Z M1195.80064,6165.816 C1196.64864,6165.816 1197.30064,6165.552 1197.75664,6165.024 C1198.21264,6164.496 1198.45664,6163.72001 1198.48864,6162.696 C1198.50464,6162.536 1198.51264,6162.224 1198.51264,6161.76 C1198.51264,6161.296 1198.50464,6160.984 1198.48864,6160.824 C1198.45664,6159.79999 1198.20864,6159.02 1197.74464,6158.484 C1197.28064,6157.948 1196.63264,6157.68 1195.80064,6157.68 C1194.95264,6157.68 1194.29664,6157.948 1193.83264,6158.484 C1193.36864,6159.02 1193.12064,6159.79999 1193.08864,6160.824 L1193.06464,6161.76 L1193.08864,6162.696 C1193.12064,6163.72001 1193.36864,6164.496 1193.83264,6165.024 C1194.29664,6165.552 1194.95264,6165.816 1195.80064,6165.816 Z M1205.28838,6168 C1205.12838,6168 1204.99238,6167.944 1204.88038,6167.832 C1204.76838,6167.72 1204.71238,6167.584 1204.71238,6167.424 L1204.71238,6156.096 C1204.71238,6155.92 1204.76838,6155.78 1204.88038,6155.676 C1204.99238,6155.572 1205.12838,6155.52 1205.28838,6155.52 L1207.28038,6155.52 C1207.45638,6155.52 1207.59638,6155.572 1207.70038,6155.676 C1207.80438,6155.78 1207.85638,6155.92 1207.85638,6156.096 L1207.85638,6157.08 C1208.83239,6155.87999 1210.16838,6155.28 1211.86438,6155.28 C1213.33639,6155.28 1214.50438,6155.76 1215.36838,6156.72 C1216.23239,6157.68 1216.66438,6158.99999 1216.66438,6160.68 L1216.66438,6167.424 C1216.66438,6167.584 1216.61238,6167.72 1216.50838,6167.832 C1216.40438,6167.944 1216.26438,6168 1216.08838,6168 L1213.92838,6168 C1213.76838,6168 1213.63238,6167.944 1213.52038,6167.832 C1213.40838,6167.72 1213.35238,6167.584 1213.35238,6167.424 L1213.35238,6160.824 C1213.35238,6159.896 1213.12439,6159.172 1212.66838,6158.652 C1212.21238,6158.132 1211.56039,6157.872 1210.71238,6157.872 C1209.89638,6157.872 1209.24039,6158.136 1208.74438,6158.664 C1208.24838,6159.192 1208.00038,6159.912 1208.00038,6160.824 L1208.00038,6167.424 C1208.00038,6167.584 1207.94838,6167.72 1207.84438,6167.832 C1207.74038,6167.944 1207.60038,6168 1207.42438,6168 L1205.28838,6168 Z M1225.33613,6168.24 C1223.54412,6168.24 1222.12413,6167.72801 1221.07613,6166.704 C1220.02812,6165.67999 1219.47213,6164.22401 1219.40813,6162.336 L1219.38413,6161.736 C1219.38413,6159.73599 1219.90812,6158.16001 1220.95613,6157.008 C1222.00413,6155.85599 1223.45612,6155.28 1225.31213,6155.28 C1227.21614,6155.28 1228.68412,6155.85599 1229.71613,6157.008 C1230.74813,6158.16001 1231.26413,6159.69599 1231.26413,6161.616 L1231.26413,6162.12 C1231.26413,6162.28 1231.20813,6162.416 1231.09613,6162.528 C1230.98413,6162.64 1230.84013,6162.696 1230.66413,6162.696 L1222.69613,6162.696 L1222.69613,6162.888 C1222.72813,6163.784 1222.97213,6164.524 1223.42813,6165.108 C1223.88413,6165.692 1224.51212,6165.984 1225.31213,6165.984 C1226.22413,6165.984 1226.96813,6165.616 1227.54413,6164.88 C1227.68813,6164.704 1227.80013,6164.596 1227.88013,6164.556 C1227.96013,6164.516 1228.09613,6164.496 1228.28813,6164.496 L1230.40013,6164.496 C1230.54413,6164.496 1230.66813,6164.536 1230.77213,6164.616 C1230.87613,6164.696 1230.92813,6164.808 1230.92813,6164.952 C1230.92813,6165.336 1230.70013,6165.788 1230.24413,6166.308 C1229.78813,6166.828 1229.13613,6167.28 1228.28813,6167.664 C1227.44012,6168.048 1226.45613,6168.24 1225.33613,6168.24 Z M1227.95213,6160.656 L1227.95213,6160.608 C1227.95213,6159.664 1227.71613,6158.908 1227.24413,6158.34 C1226.77213,6157.772 1226.12813,6157.488 1225.31213,6157.488 C1224.49612,6157.488 1223.85613,6157.772 1223.39213,6158.34 C1222.92813,6158.908 1222.69613,6159.664 1222.69613,6160.608 L1222.69613,6160.656 L1227.95213,6160.656 Z M1238.66387,6168.24 C1237.04786,6168.24 1235.80788,6167.72401 1234.94387,6166.692 C1234.07987,6165.65999 1233.60787,6164.28001 1233.52787,6162.552 L1233.50387,6161.76 L1233.52787,6160.968 C1233.59187,6159.27199 1234.05987,6157.90001 1234.93187,6156.852 C1235.80388,6155.80399 1237.04786,6155.28 1238.66387,6155.28 C1240.19988,6155.28 1241.42387,6155.80799 1242.33587,6156.864 L1242.33587,6151.536 C1242.33587,6151.36 1242.39187,6151.22 1242.50387,6151.116 C1242.61587,6151.012 1242.75187,6150.96 1242.91187,6150.96 L1244.99987,6150.96 C1245.17587,6150.96 1245.31587,6151.012 1245.41987,6151.116 C1245.52387,6151.22 1245.57587,6151.36 1245.57587,6151.536 L1245.57587,6167.424 C1245.57587,6167.584 1245.52387,6167.72 1245.41987,6167.832 C1245.31587,6167.944 1245.17587,6168 1244.99987,6168 L1243.05587,6168 C1242.89587,6168 1242.75987,6167.944 1242.64787,6167.832 C1242.53587,6167.72 1242.47987,6167.584 1242.47987,6167.424 L1242.47987,6166.536 C1241.59987,6167.67201 1240.32788,6168.24 1238.66387,6168.24 Z M1239.57587,6165.648 C1240.48788,6165.648 1241.16387,6165.356 1241.60387,6164.772 C1242.04387,6164.188 1242.28787,6163.464 1242.33587,6162.6 C1242.35187,6162.408 1242.35987,6162.104 1242.35987,6161.688 C1242.35987,6161.256 1242.35187,6160.944 1242.33587,6160.752 C1242.30387,6159.952 1242.05587,6159.272 1241.59187,6158.712 C1241.12787,6158.152 1240.45588,6157.872 1239.57587,6157.872 C1237.86386,6157.872 1236.95187,6158.92799 1236.83987,6161.04 L1236.81587,6161.76 L1236.83987,6162.48 C1236.95187,6164.59201 1237.86386,6165.648 1239.57587,6165.648 Z M1252.61562,6168.24 C1251.79961,6168.24 1251.05162,6168.076 1250.37162,6167.748 C1249.69161,6167.42 1249.15562,6166.976 1248.76362,6166.416 C1248.37161,6165.856 1248.17562,6165.24 1248.17562,6164.568 C1248.17562,6163.47999 1248.61561,6162.6 1249.49562,6161.928 C1250.37562,6161.256 1251.58361,6160.8 1253.11962,6160.56 L1256.40762,6160.08 L1256.40762,6159.576 C1256.40762,6158.888 1256.23162,6158.368 1255.87962,6158.016 C1255.52761,6157.664 1254.96762,6157.488 1254.19962,6157.488 C1253.67161,6157.488 1253.24762,6157.584 1252.92762,6157.776 C1252.60761,6157.968 1252.34762,6158.164 1252.14762,6158.364 L1251.75162,6158.76 C1251.68762,6158.952 1251.56762,6159.048 1251.39162,6159.048 L1249.51962,6159.048 C1249.37562,6159.048 1249.25162,6159 1249.14762,6158.904 C1249.04362,6158.808 1248.99162,6158.68 1248.99162,6158.52 C1249.00762,6158.12 1249.20361,6157.668 1249.57962,6157.164 C1249.95562,6156.66 1250.53561,6156.22 1251.31962,6155.844 C1252.10362,6155.468 1253.07161,6155.28 1254.22362,6155.28 C1256.11163,6155.28 1257.48761,6155.704 1258.35162,6156.552 C1259.21562,6157.4 1259.64762,6158.51199 1259.64762,6159.888 L1259.64762,6167.424 C1259.64762,6167.584 1259.59562,6167.72 1259.49162,6167.832 C1259.38762,6167.944 1259.24762,6168 1259.07162,6168 L1257.07962,6168 C1256.91962,6168 1256.78362,6167.944 1256.67162,6167.832 C1256.55962,6167.72 1256.50362,6167.584 1256.50362,6167.424 L1256.50362,6166.488 C1256.15161,6167 1255.65562,6167.42 1255.01562,6167.748 C1254.37561,6168.076 1253.57562,6168.24 1252.61562,6168.24 Z M1253.43162,6165.936 C1254.31162,6165.936 1255.03161,6165.648 1255.59162,6165.072 C1256.15162,6164.496 1256.43162,6163.66401 1256.43162,6162.576 L1256.43162,6162.096 L1254.03162,6162.48 C1252.19161,6162.768 1251.27162,6163.384 1251.27162,6164.328 C1251.27162,6164.84 1251.48361,6165.236 1251.90762,6165.516 C1252.33162,6165.796 1252.83961,6165.936 1253.43162,6165.936 Z M1263.37536,6168 C1263.21536,6168 1263.07936,6167.944 1262.96736,6167.832 C1262.85536,6167.72 1262.79936,6167.584 1262.79936,6167.424 L1262.79936,6165 C1262.79936,6164.84 1262.85536,6164.704 1262.96736,6164.592 C1263.07936,6164.48 1263.21536,6164.424 1263.37536,6164.424 L1265.79936,6164.424 C1265.95936,6164.424 1266.09536,6164.48 1266.20736,6164.592 C1266.31936,6164.704 1266.37536,6164.84 1266.37536,6165 L1266.37536,6167.424 C1266.37536,6167.584 1266.32336,6167.72 1266.21936,6167.832 C1266.11536,6167.944 1265.97536,6168 1265.79936,6168 L1263.37536,6168 Z" id="Moneda."></path>
        </g>
    </g>
</svg>