<?xml version="1.0" encoding="UTF-8"?>
<svg width="130px" height="25px" viewBox="0 0 130 25" version="1.1" xmlns="http://www.w3.org/2000/svg" xmlns:xlink="http://www.w3.org/1999/xlink">
    <!-- Generator: sketchtool 61.2 (101010) - https://sketch.com -->
    <title>06DED55D-374E-47EB-92B3-C3A72A6011E4</title>
    <desc>Created with sketchtool.</desc>
    <g id="Page-1" stroke="none" stroke-width="1" fill="none" fill-rule="evenodd">
        <g id="Header-v4---photo-2" transform="translate(-369.000000, -817.000000)" fill="#ACB3C2" fill-rule="nonzero">
            <path d="M369.781824,841.107143 C369.56465,841.107143 369.380054,841.029763 369.228032,840.875 C369.07601,840.720237 369,840.532314 369,840.311224 L369,818.721939 C369,818.47874 369.070581,818.279763 369.211744,818.125 C369.352907,817.970237 369.542932,817.892857 369.781824,817.892857 L372.420481,817.892857 C372.833113,817.892857 373.15887,818.102889 373.397761,818.522959 L379.684932,830.395408 L385.972102,818.522959 C386.210994,818.102889 386.53675,817.892857 386.949382,817.892857 L389.555463,817.892857 C389.794355,817.892857 389.989809,817.970237 390.141831,818.125 C390.293853,818.279763 390.369863,818.47874 390.369863,818.721939 L390.369863,840.311224 C390.369863,840.554423 390.293853,840.747873 390.141831,840.891582 C389.989809,841.03529 389.794355,841.107143 389.555463,841.107143 L386.753926,841.107143 C386.536751,841.107143 386.352156,841.029763 386.200134,840.875 C386.048112,840.720237 385.972102,840.532314 385.972102,840.311224 L385.972102,826.05102 L381.444036,834.806122 C381.205144,835.292519 380.846812,835.535714 380.369028,835.535714 L379.000835,835.535714 C378.544769,835.535714 378.175578,835.292519 377.893251,834.806122 L373.365185,826.05102 L373.365185,840.311224 C373.365185,840.532314 373.294605,840.720237 373.153441,840.875 C373.012278,841.029763 372.822253,841.107143 372.583361,841.107143 L369.781824,841.107143 Z M402.407228,842 C399.761355,842 397.720924,841.305563 396.285874,839.916667 C394.850824,838.527771 394.077254,836.606494 393.965141,834.152778 L393.931507,832.625 L393.965141,831.097222 C394.077254,828.666655 394.862035,826.751164 396.319508,825.350694 C397.77698,823.950224 399.8062,823.25 402.407228,823.25 C404.985833,823.25 407.003842,823.950224 408.461314,825.350694 C409.918787,826.751164 410.703568,828.666655 410.815681,831.097222 C410.838104,831.375001 410.849315,831.884256 410.849315,832.625 C410.849315,833.365744 410.838104,833.874999 410.815681,834.152778 C410.703568,836.606494 409.929998,838.527771 408.494948,839.916667 C407.059898,841.305563 405.030678,842 402.407228,842 Z M402.851306,837.535714 C403.960076,837.535714 404.812561,837.188057 405.408786,836.492731 C406.005012,835.797405 406.32404,834.775502 406.36588,833.426991 C406.3868,833.216286 406.39726,832.805418 406.39726,832.194374 C406.39726,831.58333 406.3868,831.172462 406.36588,830.961757 C406.32404,829.613247 405.999782,828.586076 405.393096,827.880215 C404.786411,827.174354 403.939156,826.821429 402.851306,826.821429 C401.742537,826.821429 400.884822,827.174354 400.278137,827.880215 C399.671451,828.586076 399.347193,829.613247 399.305353,830.961757 L399.273973,832.194374 L399.305353,833.426991 C399.347193,834.775502 399.671451,835.797405 400.278137,836.492731 C400.884822,837.188057 401.742537,837.535714 402.851306,837.535714 Z M415.226275,841.107143 C414.999797,841.107143 414.807294,841.028527 414.648759,840.871294 C414.490225,840.71406 414.410959,840.523137 414.410959,840.298518 L414.410959,824.395553 C414.410959,824.148471 414.490225,823.951932 414.648759,823.80593 C414.807294,823.659927 414.999797,823.586927 415.226275,823.586927 L418.04591,823.586927 C418.295035,823.586927 418.4932,823.659927 418.640411,823.80593 C418.787622,823.951932 418.861226,824.148471 418.861226,824.395553 L418.861226,825.776954 C420.24274,824.09231 422.133802,823.25 424.534467,823.25 C426.618063,823.25 428.271326,823.923848 429.494306,825.271563 C430.717286,826.619279 431.328767,828.47236 431.328767,830.830863 L431.328767,840.298518 C431.328767,840.523137 431.255163,840.71406 431.107952,840.871294 C430.960742,841.028527 430.762577,841.107143 430.513451,841.107143 L427.456016,841.107143 C427.229538,841.107143 427.037035,841.028527 426.8785,840.871294 C426.719966,840.71406 426.6407,840.523137 426.6407,840.298518 L426.6407,831.033019 C426.6407,829.730227 426.317974,828.71384 425.672512,827.983827 C425.02705,827.253815 424.104167,826.888814 422.903835,826.888814 C421.748798,826.888814 420.820253,827.25943 420.118171,828.000674 C419.41609,828.741917 419.065055,829.752689 419.065055,831.033019 L419.065055,840.298518 C419.065055,840.523137 418.991451,840.71406 418.84424,840.871294 C418.697029,841.028527 418.498864,841.107143 418.249739,841.107143 L415.226275,841.107143 Z M443.366404,842 C440.814479,842 438.792337,841.259267 437.299917,839.777778 C435.807497,838.296289 435.015729,836.189828 434.924588,833.458333 L434.890411,832.590278 C434.890411,829.696745 435.63661,827.416675 437.12903,825.75 C438.62145,824.083325 440.689162,823.25 443.332226,823.25 C446.043646,823.25 448.134142,824.083325 449.603778,825.75 C451.073413,827.416675 451.808219,829.638875 451.808219,832.416667 L451.808219,833.145833 C451.808219,833.377316 451.728473,833.574073 451.568977,833.736111 C451.409482,833.898149 451.20442,833.979167 450.953784,833.979167 L439.606891,833.979167 L439.606891,834.256944 C439.652461,835.553247 439.999928,836.623838 440.649301,837.46875 C441.298675,838.313662 442.192974,838.736111 443.332226,838.736111 C444.630974,838.736111 445.690462,838.203709 446.510724,837.138889 C446.715789,836.884258 446.875282,836.72801 446.989207,836.670139 C447.103132,836.612268 447.296802,836.583333 447.570223,836.583333 L450.577833,836.583333 C450.782898,836.583333 450.95948,836.641203 451.107583,836.756944 C451.255685,836.872686 451.329736,837.034721 451.329736,837.243056 C451.329736,837.798614 451.005054,838.452543 450.35568,839.204861 C449.706306,839.95718 448.77783,840.611108 447.570223,841.166667 C446.362616,841.722225 444.961357,842 443.366404,842 Z M447.356164,830.392857 L447.356164,830.338745 C447.356164,829.274526 447.036324,828.422261 446.396635,827.781926 C445.756945,827.141591 444.884161,826.821429 443.778257,826.821429 C442.672353,826.821429 441.804991,827.141591 441.176143,827.781926 C440.547296,828.422261 440.232877,829.274526 440.232877,830.338745 L440.232877,830.392857 L447.356164,830.392857 Z M460.820311,841.107143 C458.555623,841.107143 456.817893,840.387284 455.60707,838.947545 C454.396247,837.507805 453.734788,835.582601 453.622675,833.171875 L453.589041,832.066964 L453.622675,830.962054 C453.712366,828.59597 454.368218,826.681927 455.590253,825.219866 C456.812288,823.757805 458.555623,823.026786 460.820311,823.026786 C462.972886,823.026786 464.688193,823.763385 465.966284,825.236607 L465.966284,817.803571 C465.966284,817.558034 466.044763,817.362724 466.201721,817.217634 C466.35868,817.072544 466.549269,817 466.773496,817 L469.699638,817 C469.946287,817 470.142482,817.072544 470.28823,817.217634 C470.433977,817.362724 470.506849,817.558034 470.506849,817.803571 L470.506849,839.96875 C470.506849,840.191965 470.433977,840.381696 470.28823,840.537946 C470.142482,840.694197 469.946287,840.772321 469.699638,840.772321 L466.975299,840.772321 C466.751072,840.772321 466.560483,840.694197 466.403524,840.537946 C466.246565,840.381696 466.168087,840.191965 466.168087,839.96875 L466.168087,838.729911 C464.934841,840.31474 463.152267,841.107143 460.820311,841.107143 Z M462.92101,837.535714 C464.239288,837.535714 465.216417,837.166909 465.852428,836.429288 C466.488439,835.691667 466.841131,834.777232 466.910514,833.685957 C466.933642,833.443451 466.945205,833.05949 466.945205,832.534061 C466.945205,831.988423 466.933642,831.594357 466.910514,831.351852 C466.864259,830.341412 466.505785,829.482551 465.835083,828.775243 C465.16438,828.067934 464.193033,827.714286 462.92101,827.714286 C460.446349,827.714286 459.128092,829.048047 458.966198,831.715608 L458.931507,832.625 L458.966198,833.534392 C459.128092,836.201953 460.446349,837.535714 462.92101,837.535714 Z M480.271565,842 C479.131536,842 478.086524,841.762734 477.136499,841.288194 C476.186474,840.813655 475.437642,840.1713 474.889981,839.361111 C474.34232,838.550922 474.068493,837.659727 474.068493,836.6875 C474.068493,835.113418 474.683206,833.840283 475.91265,832.868056 C477.142094,831.895828 478.829759,831.236113 480.975698,830.888889 L485.569324,830.194444 L485.569324,829.465278 C485.569324,828.469902 485.323439,827.717595 484.831662,827.208333 C484.339884,826.699072 483.557522,826.444444 482.484553,826.444444 C481.746887,826.444444 481.154527,826.583332 480.707457,826.861111 C480.260386,827.13889 479.897147,827.422452 479.617728,827.711806 L479.064481,828.284722 C478.975067,828.562501 478.807418,828.701389 478.561529,828.701389 L475.94618,828.701389 C475.744998,828.701389 475.571761,828.631945 475.426463,828.493056 C475.281165,828.354166 475.208517,828.168983 475.208517,827.9375 C475.230871,827.358793 475.504697,826.704865 476.030005,825.975694 C476.555313,825.246524 477.365616,824.609956 478.460939,824.065972 C479.556262,823.521988 480.90863,823.25 482.518083,823.25 C485.155799,823.25 487.078174,823.86342 488.285264,825.090278 C489.492354,826.317136 490.09589,827.925916 490.09589,829.916667 L490.09589,840.819444 C490.09589,841.050927 490.023243,841.247684 489.877945,841.409722 C489.732647,841.57176 489.537056,841.652778 489.291168,841.652778 L486.508168,841.652778 C486.284632,841.652778 486.09463,841.57176 485.938156,841.409722 C485.781681,841.247684 485.703445,841.050927 485.703445,840.819444 L485.703445,839.465278 C485.211667,840.206022 484.518718,840.813655 483.624577,841.288194 C482.730436,841.762734 481.612777,842 480.271565,842 Z M481.502389,838.428571 C482.71722,838.428571 483.711157,837.959826 484.484231,837.022321 C485.257304,836.084817 485.643836,834.730664 485.643836,832.959821 L485.643836,832.178571 L482.330679,832.803571 C479.790579,833.272324 478.520548,834.274918 478.520548,835.811384 C478.520548,836.644721 478.813207,837.289246 479.398535,837.744978 C479.983862,838.200709 480.68514,838.428571 481.502389,838.428571 Z M495.265055,841.107143 C495.065857,841.107143 494.896541,841.023251 494.757102,840.855465 C494.617663,840.687679 494.547945,840.483942 494.547945,840.244247 L494.547945,836.612895 C494.547945,836.373201 494.617663,836.169464 494.757102,836.001678 C494.896541,835.833892 495.065857,835.75 495.265055,835.75 L498.282891,835.75 C498.482089,835.75 498.651404,835.833892 498.790843,836.001678 C498.930282,836.169464 499,836.373201 499,836.612895 L499,840.244247 C499,840.483942 498.935262,840.687679 498.805783,840.855465 C498.676304,841.023251 498.502008,841.107143 498.282891,841.107143 L495.265055,841.107143 Z" id="Moneda."></path>
        </g>
    </g>
</svg>