<?xml version="1.0" encoding="UTF-8"?>
<svg width="44px" height="100px" viewBox="0 0 44 100" version="1.1" xmlns="http://www.w3.org/2000/svg" xmlns:xlink="http://www.w3.org/1999/xlink">
    <!-- Generator: sketchtool 53.2 (72643) - https://sketchapp.com -->
    <title>9FFDD999-2BE6-4FE0-9D85-60FAC8F1AEAD</title>
    <desc>Created with sketchtool.</desc>
    <g id="Page-1" stroke="none" stroke-width="1" fill="none" fill-rule="evenodd">
        <g id="Desktop-HD-Copy-2" transform="translate(-1141.000000, -5286.000000)" fill="#45DA60" fill-rule="nonzero">
            <g id="mongodb" transform="translate(1141.000000, 5286.000000)">
                <g id="Group">
                    <path d="M24.2092796,99.2825377 L21.5962826,98.3808565 C21.5962826,98.3808565 21.9153043,84.9261062 17.1353445,83.9605786 C13.9487046,80.2267615 17.645183,-74.4070918 29.1168481,83.4455898 C29.1168481,83.4455898 25.1657485,85.441095 24.464497,88.8532695 C23.699441,92.2009954 24.2092796,99.2825377 24.2092796,99.2825377 L24.2092796,99.2825377 L24.2092796,99.2825377 Z" id="Path"></path>
                    <path d="M24.2092796,99.2825377 L21.5962826,98.3808565 C21.5962826,98.3808565 21.9153043,84.9261062 17.1353445,83.9605786 C13.9487046,80.2267615 17.645183,-74.4070918 29.1168481,83.4455898 C29.1168481,83.4455898 25.1657485,85.441095 24.464497,88.8532695 C23.699441,92.2009954 24.2092796,99.2825377 24.2092796,99.2825377 L24.2092796,99.2825377 L24.2092796,99.2825377 Z" id="Path"></path>
                    <path d="M25.6117826,86.2783277 C25.6117826,86.2783277 48.4919046,71.0852655 43.1383019,39.4758193 C37.9761123,16.4934826 25.8025994,8.96140065 24.4644969,6.06421442 C22.9987857,4.00426077 21.5962825,0.39934189 21.5962825,0.39934189 L22.5527515,64.3253654 C22.5527515,64.3898142 20.5766054,83.8961294 25.6117826,86.2783277" id="Path"></path>
                    <path d="M25.6117826,86.2783277 C25.6117826,86.2783277 48.4919046,71.0852655 43.1383019,39.4758193 C37.9761123,16.4934826 25.8025994,8.96140065 24.4644969,6.06421442 C22.9987857,4.00426077 21.5962825,0.39934189 21.5962825,0.39934189 L22.5527515,64.3253654 C22.5527515,64.3898142 20.5766054,83.8961294 25.6117826,86.2783277" id="Path"></path>
                    <path d="M20.2581805,87.1149576 C20.2581805,87.1149576 -1.22003465,72.3079866 0.0548598182,46.2357197 C1.26535363,20.1628504 16.4340933,7.35198659 19.3655159,5.03423759 C21.2778575,2.97428394 21.3416619,2.20150017 21.4692706,0.141546522 C22.807373,3.03873278 22.552752,43.4674312 22.7435687,48.2312246 C23.3172116,66.5786656 21.7238916,83.6389367 20.2581805,87.1149576 L20.2581805,87.1149576 L20.2581805,87.1149576 Z" id="Path"></path>
                    <path d="M20.2581805,87.1149576 C20.2581805,87.1149576 -1.22003465,72.3079866 0.0548598182,46.2357197 C1.26535363,20.1628504 16.4340933,7.35198659 19.3655159,5.03423759 C21.2778575,2.97428394 21.3416619,2.20150017 21.4692706,0.141546522 C22.807373,3.03873278 22.552752,43.4674312 22.7435687,48.2312246 C23.3172116,66.5786656 21.7238916,83.6389367 20.2581805,87.1149576 L20.2581805,87.1149576 L20.2581805,87.1149576 Z" id="Path"></path>
                </g>
            </g>
        </g>
    </g>
</svg>