<?xml version="1.0" encoding="UTF-8"?>
<svg width="97px" height="100px" viewBox="0 0 97 100" version="1.1" xmlns="http://www.w3.org/2000/svg" xmlns:xlink="http://www.w3.org/1999/xlink">
    <!-- Generator: sketchtool 53.2 (72643) - https://sketchapp.com -->
    <title>8865D1C7-5634-4841-9260-9D23EC5BC560</title>
    <desc>Created with sketchtool.</desc>
    <g id="Page-1" stroke="none" stroke-width="1" fill="none" fill-rule="evenodd">
        <g id="Desktop-HD-Copy-2" transform="translate(-503.000000, -5286.000000)" fill-rule="nonzero">
            <g id="postgresql-inc" transform="translate(503.000000, 5286.000000)">
                <path d="M20.5448471,72.7987578 C20.5287834,72.6372671 20.4966561,72.4124224 20.4645287,72.0590062 C20.4324013,71.8819876 20.4163376,71.721118 20.4002739,71.5602484 L19.7120064,71.6248447 L19.5359236,71.6248447 C17.7596497,71.7049689 15.6948471,71.5602484 13.7103631,71.2229814 C11.7419427,70.8850932 9.83777707,70.3540373 8.36547771,69.6782609 C5.34056051,68.2627329 2.79631847,66.2515528 1.62799363,64.6590062 C0.92366242,63.6621118 0.491796178,62.6161491 0.427541401,61.5540373 C0.283585987,59.4782609 1.14793631,57.8857143 3.14786624,56.9204969 C4.30012739,56.3571429 5.88487261,56.2124224 7.91692994,56.6310559 C10.5254268,57.1782609 12.1738089,57.531677 13.214242,57.7888199 C8.55700637,50.0186335 5.13235032,41.6689441 3.10029299,34.268323 C0.283585987,24.0360248 0.252076433,15.1397516 3.29243949,11.2304348 C7.90148408,5.32608696 13.598535,2.36583851 19.1676943,1.03043478 C27.2971592,-0.916149068 35.3944968,0.869565217 38.8512803,1.86708075 C39.8379668,1.6861795 40.8308633,1.54136356 41.8280064,1.43291925 C43.2681783,1.28819876 44.6929045,1.19130435 46.1330764,1.17515528 C48.9658471,1.12670807 51.525535,1.49751553 53.8300573,2.18881988 C55.4898908,2.67714597 57.0816859,3.37438802 58.5676115,4.26397516 C67.0325605,1.36770186 98.0948025,-6.93354037 96.3667197,27.7850932 C96.1591274,31.9360248 92.9266178,48.7801242 88.0296624,60.4596273 C86.3330892,64.4981366 84.4128599,68.0049689 82.2677389,70.3857143 C79.3076943,73.7 75.8984841,75.1639752 72.0265159,73.7639752 C70.9860828,73.3937888 69.9617134,72.8149068 68.9700892,71.9944099 C68.8094522,72.1875776 68.6179236,72.3962733 68.4257771,72.5732919 C67.2574522,73.6838509 65.3693503,74.552795 63.8816051,74.9223602 C62.1053312,75.3732919 59.144051,75.9037267 55.8472866,75.3409938 C54.5565072,75.1272186 53.2981217,74.7488028 52.1025924,74.2149068 C52.1507834,74.7453416 52.182293,75.3248447 52.1668471,75.9360248 C52.1341019,76.8043478 52.1186561,77.673913 52.0871465,78.284472 C52.0062102,80.3925466 51.895,82.4838509 51.6707261,84.510559 C51.4303885,86.6341615 51.0782229,88.5167702 50.5339108,90.0124224 C50.4542102,90.2217391 50.3905732,90.4142857 50.3108726,90.6397516 C49.0461656,94.5652174 46.7737707,101.547826 35.9876178,99.2310559 C31.7949936,98.3304348 28.0657452,97.1881988 25.0735732,92.8763975 C22.4650764,89.1602484 20.8006306,83.1913043 20.5448471,72.7987578 Z" id="Path" fill="#A7AFC3"></path>
                <path d="M24.8659809,65.4459627 C25.137828,60.1695652 22.5453949,59.2204969 20.7369936,58.7049689 C20.9291401,58.431677 21.1855414,58.1099379 21.4728344,57.7397516 C22.4008217,56.5975155 23.5697643,55.1167702 24.5131975,52.8167702 C24.6571529,52.4627329 25.0896369,51.6906832 25.6493949,50.6770186 C28.0336178,46.3813665 32.7384268,37.9031056 31.8104395,32.0950311 C31.1542994,27.9608696 28.0175541,25.2254658 20.1920637,26.0459627 C20.2081274,25.9658385 20.2402548,25.8850932 20.2717643,25.8043478 C20.6399936,24.7428571 21.231879,23.3428571 22.0962293,21.7826087 C25.522121,15.5248447 32.9633185,6.78944099 46.2140127,6.58012422 C62.2004777,6.3068323 65.1135669,22.2981366 65.6411975,29.0229814 C64.8645404,28.5406057 64.050967,28.1210646 63.2081656,27.768323 C61.8649936,27.2217391 60.3445032,26.7546584 58.8240127,26.5130435 C57.2398854,26.2720497 55.6396943,26.3043478 54.1989045,26.7540373 C51.9425732,27.4621118 50.1502357,29.1515528 49.4459045,32.3689441 C46.9819809,43.8720497 49.190121,48.8273292 50.9194395,52.7043478 C52.1841465,55.5037267 51.6589873,54.3093168 52.4529045,56.5546584 C52.7426688,57.3726708 52.9972166,58.1428571 53.174535,58.8496894 C52.9853193,58.8028738 52.7928164,58.7706887 52.5987134,58.7534161 C51.5582803,58.6571429 50.3423822,59.0751553 49.4940955,59.6863354 C48.582172,60.3459627 47.8463312,61.3757764 47.4299108,62.5180124 C47.0616815,63.5801242 47.1098726,64.5937888 47.1259363,65.7037267 C47.2377643,70.8677019 47.2056369,75.9677019 47.0141083,80.1186335 C46.8219618,84.2534161 46.4858599,87.342236 46.0379299,88.5006211 C45.5578726,89.7068323 44.7892866,91.4925466 43.333051,92.731677 C41.9250064,93.9378882 39.7483758,94.6621118 36.2922102,93.9217391 C33.267293,93.2621118 31.219172,92.3298137 29.8747643,90.9136646 C28.514293,89.5136646 27.7623885,87.5186335 27.2823312,84.7515528 C26.9462293,82.7242236 26.466172,79.1850932 26.0176242,75.6782609 C25.4739299,71.3987578 24.9938726,67.0074534 24.8659809,65.4459627 L24.8659809,65.4459627 Z M62.4253694,67.9726708 C57.1608025,66.8782609 56.6319363,66.2192547 54.9353631,64.047205 C54.3277441,63.2699824 53.6758675,62.5287832 52.9830064,61.8273292 C52.8182331,61.6558337 52.5956887,61.5523876 52.3589936,61.5372671 C51.9753185,61.5049689 51.4310064,61.7142857 51.0942866,61.9559006 C50.6463567,62.2776398 50.2626815,62.8248447 50.0384076,63.4360248 C49.8308153,64.0639752 49.749879,64.8360248 50.1508535,65.3987578 C52.1192739,68.1503106 54.536242,69.3080745 56.7925732,69.6944099 C59.080414,70.0962733 61.2403631,69.6944099 62.5378153,69.3726708 C63.1772739,69.2111801 63.9137325,68.9055901 64.3937898,68.5677019 C64.0101146,68.3745342 63.3688025,68.1652174 62.4253694,67.9726708 L62.4253694,67.9726708 Z M63.9458599,57.9012422 C64.374155,57.5343075 64.7803766,57.1421045 65.1623758,56.7267081 C67.1616879,54.5223602 68.5060955,51.6267081 68.8100701,48.3931677 C68.9272682,47.2090128 68.9005041,46.0149132 68.7303694,44.8372671 C68.0581656,39.9950311 68.313949,35.6347826 68.4579045,33.3664596 C68.4906497,32.7714286 68.5227771,32.3204969 68.5060955,31.9670807 C68.5227771,31.8546584 68.8897707,17.2950311 60.6490955,9.15403727 C68.0896752,6.69254658 92.1432038,0.788198758 90.8303057,27.3658385 C90.6381592,31.2428571 87.5817325,47.089441 82.9405605,58.142236 C81.4855605,61.6173913 79.8680701,64.5937888 78.156051,66.5080745 C76.7319427,68.1006211 75.275707,68.8732919 73.8676624,68.3583851 C73.0990764,68.084472 72.2674713,67.4409938 71.3864395,66.378882 C68.994281,63.4761288 66.5128879,60.6488818 63.9458599,57.9012422 L63.9458599,57.9012422 Z M34.5474459,6.27453416 C27.0098662,9.62111801 22.2729299,15.6857143 19.6804968,20.4484472 C18.883472,21.8680016 18.2088045,23.3535506 17.6638854,24.8888199 C17.183828,26.2397516 17.0077452,27.3018634 17.0880637,27.768323 C17.0880637,27.8167702 17.1035096,27.8652174 17.1035096,27.9130435 C17.0392548,29.8919255 17.2795924,31.5167702 17.5520573,33.2223602 C17.7442038,34.5416149 17.9517962,35.9093168 18.016051,37.5180124 C18.064242,39.0465839 17.8720955,40.6552795 17.6638854,42.3285714 C17.1517006,46.5919255 16.6080064,51.1285714 19.4562229,55.826087 C19.4080318,55.8906832 19.3598408,55.9552795 19.3122675,56.0037267 C19.2004395,56.1478261 19.0879936,56.2931677 18.9761656,56.4217391 C14.0631465,48.6509317 10.4784713,40.1080745 8.43035032,32.6273292 C6.06219108,24.0204969 5.69396178,17.0055901 7.64631847,14.4801242 C11.0227834,10.1521739 15.1511529,7.78757764 19.2646943,6.58074534 C25.1057006,4.89068323 30.9306433,5.53416149 34.5474459,6.27453416 Z M65.7375796,31.9509317 C65.7375796,32.3689441 65.7048344,32.7875776 65.6893885,33.2055901 C65.546051,35.5385093 65.2729682,40.0596273 65.9933631,45.2236025 C66.1367006,46.221118 66.154,47.2024845 66.0576178,48.1354037 C65.832343,50.6352093 64.7979774,52.9918102 63.1130191,54.8440994 C61.5288917,56.5975155 59.4325796,57.7875776 57.1274395,58.1099379 C56.7110191,58.1745342 56.2791529,58.1900621 55.8627325,58.2062112 C55.6539045,57.3546584 55.3616688,56.4726708 55.0274204,55.5496894 C54.5677516,54.2782609 54.4410955,53.7621118 53.4463822,51.5621118 C51.8777006,48.0546584 49.8783885,43.5826087 52.1662293,32.9478261 C52.5980955,30.8888199 53.6867197,29.8267081 55.0150637,29.4086957 C56.0227516,29.0863354 57.2065223,29.0863354 58.4230382,29.2639752 C59.7031911,29.4571429 60.9994076,29.8751553 62.1677325,30.3416149 C64.1861975,31.178882 65.7221338,31.8863354 65.7375796,31.9509317 L65.7375796,31.9509317 Z M57.528414,30.7925466 C56.5077516,30.5726708 55.1188599,30.7614907 54.1989045,31.2590062 C53.6712739,31.5645963 53.3833631,31.9670807 53.4315541,32.4012422 C53.4785096,32.7391304 53.8152293,33.2217391 54.3267962,33.5757764 C54.8068535,33.8975155 55.4636115,34.1391304 56.1673248,34.042236 L56.1840064,34.042236 C56.8716561,33.9459627 57.4802229,33.5434783 57.9120892,33.0931677 C58.3297452,32.6428571 58.5904713,32.1571429 58.5676115,31.7391304 C58.5447516,31.321118 58.2407771,30.9714286 57.528414,30.7925466 L57.528414,30.7925466 Z M19.8732611,28.8621118 C26.2103885,28.0732919 28.6588662,29.8111801 29.0907325,32.5304348 C29.8593185,37.3888199 25.4739299,45.3043478 23.2342803,49.342236 C22.6263312,50.4204969 22.1777834,51.2571429 21.9695732,51.7552795 C21.7298535,52.3024845 21.4895159,52.8173913 21.2337325,53.2677019 C19.5699045,49.7285714 20.0017707,46.0925466 20.4175732,42.6496894 C20.6257834,40.8639752 20.8333758,39.126087 20.7858025,37.436646 C20.7215478,35.6832298 20.4972739,34.2192547 20.2896815,32.8192547 C20.0808535,31.5167702 19.888707,30.2614907 19.8732611,28.8621118 Z M19.0886115,61.1186335 C19.2968217,61.1832298 19.5371592,61.247205 19.776879,61.3273292 C20.7369936,61.6012422 22.2574841,62.0192547 22.097465,65.3335404 C21.9689554,65.4621118 21.5531529,65.5906832 20.9291401,65.7037267 C19.9529618,65.9130435 18.6567452,65.9453416 17.2802102,65.8801242 C14.8799236,65.7360248 12.3196178,65.2204969 10.6866815,64.4652174 C9.00617197,63.6763975 7.59812739,62.7273292 6.7343949,61.8906832 C10.3400764,62.5658385 15.8177962,63.6012422 19.0886115,61.1186335 L19.0886115,61.1186335 Z M22.4490127,30.7925466 C22.4008217,31.0819876 22.6411592,31.5807453 23.0408981,31.9993789 C23.5252803,32.5055901 24.0875096,32.8142857 24.6831019,32.8813665 C25.1464777,32.9335404 25.630242,32.8397516 26.1133885,32.5782609 C26.682414,32.2608696 27.0994522,31.8291925 27.1068662,31.3950311 C27.1118089,31.0981366 26.9258408,30.8 26.4649363,30.5347826 C26.0806433,30.3254658 25.536949,30.1484472 24.9283822,30.0521739 C24.3204331,29.9714286 23.7439936,29.9875776 23.3121274,30.1006211 C22.817242,30.2136646 22.4978217,30.4546584 22.4490127,30.7925466 L22.4490127,30.7925466 Z M17.4247834,59.1397516 C16.784707,59.7515528 14.6241401,60.7006211 7.37447134,59.1881988 C5.96642675,58.8987578 4.97418471,58.963354 4.33410828,59.2689441 C3.50188535,59.6708075 3.13365605,60.3304348 3.19791083,61.1987578 C3.23003822,61.7298137 3.46975796,62.2763975 3.87011465,62.8403727 C4.79871975,64.1273292 6.9265414,65.768323 9.53503822,66.9913043 C11.4713312,67.8919255 14.4319936,68.5037267 17.1368726,68.6645963 C18.721,68.7447205 20.2414904,68.6801242 21.4734522,68.4391304 C21.7774268,68.3745342 22.0814013,68.2944099 22.3538662,68.2142857 C22.5775223,70.2571429 22.914242,73.1204969 23.2818535,76.0167702 C23.7304013,79.652795 24.2265223,83.2565217 24.5620064,85.2192547 C25.1384459,88.5490683 26.0979427,90.9950311 27.8748344,92.8447205 C29.6517261,94.6944099 32.1317134,95.8689441 35.7163885,96.6416149 C40.1969236,97.6068323 43.1421401,96.5453416 45.1260064,94.8714286 C47.0783631,93.2142857 48.0063503,91.0099379 48.5988535,89.5298137 C49.1907389,88.0664596 49.5756497,84.6397516 49.783242,80.247205 C49.9265796,77.0459627 49.9908344,73.2652174 49.9593248,69.3391304 C51.9759363,71.1732919 54.1995223,72.073913 56.3125159,72.4447205 C59.1119236,72.9267081 61.6728471,72.4602484 63.2087834,72.073913 C64.329535,71.784472 65.7221338,71.1565217 66.538293,70.384472 C67.0183503,69.9335404 67.3383885,69.4037267 67.4347707,68.7925466 C67.5299172,68.0838509 67.3223248,67.3925466 66.6661847,66.7813665 C66.042172,66.1857143 64.8899108,65.6552795 62.9702994,65.252795 C58.7128025,64.368323 58.3291274,63.8857143 57.1132293,62.3248447 C56.8003408,61.9282399 56.474778,61.5419097 56.137051,61.1664596 C56.1524968,61.1018634 56.1524968,61.0378882 56.1524968,60.9732919 C56.6075011,60.9607219 57.0614723,60.9229837 57.5123503,60.8602484 C58.9580875,60.6520018 60.3560037,60.1892301 61.6419554,59.4931677 C62.7942166,60.7161491 65.8821529,64.0782609 69.2598535,68.1645963 C70.4590701,69.6285714 71.7083312,70.5298137 72.9557389,70.9801242 C75.5957452,71.9291925 78.0133312,70.8192547 80.2214713,68.373913 C82.1410828,66.2180124 83.9019108,62.9838509 85.4860382,59.2198758 C90.2551019,47.8614907 93.3912293,31.5 93.6000573,27.4937888 C95.231758,-5.45465839 63.2415287,5.17950311 58.1530446,7.07763975 C55.1281274,5.00248447 51.2227962,3.71552795 46.1664395,3.79565217 C43.7179618,3.82732919 41.4295032,4.13291925 39.3331911,4.6484472 C38.3248854,4.37515528 36.9007771,3.97267081 36.8204586,3.94037267 C36.6283121,3.89192547 36.4046561,3.84409938 36.1161274,3.77950311 C32.3553694,2.89440994 25.4739299,1.89751553 18.4967261,3.9242236 C13.8882994,5.25962733 9.26319108,7.91428571 5.47030573,12.7726708 C2.97363694,15.9900621 3.18184713,23.9378882 5.77428025,33.3652174 C7.99848408,41.4751553 11.9674522,50.8062112 17.4247834,59.1397516 Z" id="Shape" fill="#F7F9FC"></path>
            </g>
        </g>
    </g>
</svg>