<?xml version="1.0" encoding="UTF-8"?>
<svg width="88px" height="89px" viewBox="0 0 88 89" version="1.1" xmlns="http://www.w3.org/2000/svg" xmlns:xlink="http://www.w3.org/1999/xlink">
    <!-- Generator: sketchtool 53.2 (72643) - https://sketchapp.com -->
    <title>C87CBCC0-37A3-4D90-BE4B-7A9C2E06CBEC</title>
    <desc>Created with sketchtool.</desc>
    <g id="Page-1" stroke="none" stroke-width="1" fill="none" fill-rule="evenodd">
        <g id="Desktop-HD-Copy-2" transform="translate(-803.000000, -5041.000000)" fill="#A7AFC3" fill-rule="nonzero">
            <path d="M836.133851,5042.53144 C842.904669,5041.35957 849.870796,5041.35957 857.032238,5042.53144 C859.896816,5043.05227 862.338216,5044.3218 864.35644,5046.34003 C866.374663,5048.35825 867.383776,5050.73455 867.383776,5053.46892 L867.383776,5073.39074 C867.383776,5076.25532 866.374663,5078.72927 864.35644,5080.8126 C862.338216,5082.89593 859.896816,5083.93759 857.032238,5083.93759 L836.133851,5083.93759 C832.618234,5083.93759 829.558345,5085.23967 826.954185,5087.84383 C824.350026,5090.44799 823.047944,5093.44278 823.047944,5096.82819 L823.047944,5106.39848 L815.821399,5106.39848 C812.956822,5106.39848 810.613077,5105.45447 808.790166,5103.56645 C806.967255,5101.67844 805.60007,5099.10683 804.688613,5095.85163 C803.777156,5091.81518 803.321429,5088.26701 803.321429,5085.20712 C803.321429,5082.14723 803.777156,5078.66417 804.688613,5074.75793 C805.60007,5071.37252 807.22767,5068.73581 809.571414,5066.84779 C811.915159,5064.95977 814.649527,5064.01577 817.77452,5064.01577 L846.485389,5064.01577 L846.485389,5061.47671 L825.587001,5061.47671 L825.587001,5053.46892 C825.587001,5050.21371 826.23804,5047.86997 827.540121,5046.43768 C829.102618,5044.61477 831.967195,5043.31269 836.133851,5042.53144 Z M834.766667,5048.19549 C833.725003,5048.19549 832.813546,5048.58611 832.032298,5049.36736 C831.25105,5050.14861 830.860426,5051.09262 830.860426,5052.19939 C830.860426,5053.30616 831.25105,5054.21761 832.032298,5054.93376 C832.813546,5055.6499 833.725003,5056.04053 834.766667,5056.10563 C835.80833,5056.17073 836.719787,5055.81266 837.501035,5055.03141 C838.282283,5054.25016 838.672907,5053.30616 838.672907,5052.19939 C838.672907,5051.09262 838.282283,5050.14861 837.501035,5049.36736 C836.719787,5048.58611 835.80833,5048.19549 834.766667,5048.19549 Z M870.899393,5064.01577 L878.711874,5064.01577 C883.920196,5064.01577 887.435813,5067.59649 889.258724,5074.75793 C890.300387,5078.92458 890.82122,5082.66806 890.82122,5085.98837 C890.82122,5089.30867 890.300387,5092.59643 889.258724,5095.85163 C888.086852,5099.49745 886.849877,5102.03651 885.547795,5103.4688 C883.85509,5105.42192 881.576452,5106.39848 878.711874,5106.39848 L847.461949,5106.39848 L847.461949,5109.13285 L868.360336,5109.13285 L868.360336,5117.14064 C868.360336,5122.08854 864.84472,5125.60416 857.813487,5127.68749 C854.037455,5128.72915 850.456732,5129.24999 847.071325,5129.24999 C843.816123,5129.24999 840.495819,5128.72915 837.110411,5127.68749 C833.985418,5126.77603 831.511465,5125.53906 829.688554,5123.97656 C827.605224,5122.02344 826.563561,5119.7448 826.563561,5117.14064 L826.563561,5097.21881 C826.563561,5094.35423 827.605224,5091.84773 829.688554,5089.6993 C831.771883,5087.55087 834.245833,5086.47665 837.110411,5086.47665 L858.008799,5086.47665 C861.394206,5086.47665 864.388993,5085.17457 866.993152,5082.57041 C869.597312,5079.96625 870.899393,5076.90636 870.899393,5073.39074 L870.899393,5064.01577 Z M859.180671,5114.40627 C858.139008,5114.40627 857.22755,5114.79689 856.446302,5115.57814 C855.665054,5116.35939 855.27443,5117.3034 855.27443,5118.41017 C855.27443,5119.51694 855.665054,5120.46094 856.446302,5121.24219 C857.22755,5122.02344 858.171558,5122.41406 859.278327,5122.41406 C860.385096,5122.41406 861.29655,5122.02344 862.012695,5121.24219 C862.72884,5120.46094 863.086912,5119.51694 863.086912,5118.41017 C863.086912,5117.3034 862.72884,5116.35939 862.012695,5115.57814 C861.29655,5114.79689 860.352543,5114.40627 859.180671,5114.40627 Z" id="p"></path>
        </g>
    </g>
</svg>