<?xml version="1.0" encoding="UTF-8"?>
<svg width="101px" height="100px" viewBox="0 0 101 100" version="1.1" xmlns="http://www.w3.org/2000/svg" xmlns:xlink="http://www.w3.org/1999/xlink">
    <!-- Generator: Sketch 53.2 (72643) - https://sketchapp.com -->
    <title>Group 12 Copy</title>
    <desc>Created with Sketch.</desc>
    <g id="Page-1" stroke="none" stroke-width="1" fill="none" fill-rule="evenodd">
        <g id="Group-12-Copy" fill="#45DA60">
            <path d="M4.32324182e-13,48.1575331 C3.86140377,41.8593719 8.25222215,34.7160356 13.1724552,26.7275242 L33.2875185,9.58273867 L57.1560173,-7.81597009e-14 L81.7909804,-7.81597009e-14 C92.2554733,3.01856582 98.1312613,10.050766 99.4183445,21.0966006 C100.705428,32.1424352 100.705428,58.4435683 99.4183445,100 L13.1724552,98.1916997 C4.39081838,95.5690708 1.15467716e-12,89.5573682 4.32324182e-13,80.1565919 C-6.51901833e-13,66.0554275 -7.90065215e-13,66.0554275 4.32324182e-13,48.1575331 Z M11.3305334,85.8527307 C13.5599826,88.9974258 17.2021835,90.5697733 22.2571361,90.5697733 L8.4846176,66.4444301 C8.1524456,76.2386021 9.1010842,82.7080357 11.3305334,85.8527307 Z M18.1041301,64.9423052 L27.89528,83.1958066 L31.695889,63.307015 L18.1041301,64.9423052 Z M9.69088489,50 L13.5389847,57.0111141 L35.185466,53.5055571 L55.704206,33.9098827 L62.2251733,13.6428425 L57.5509996,9.91114627 L37.8576647,16.4690144 L19.9622948,31.6270255 L9.69088489,50 Z M34.9961714,87.4855197 C44.3146095,84.625711 52.9929564,79.1246222 61.0312122,70.9822534 C57.1328367,69.4580823 50.3478824,66.8996695 40.6763493,63.307015 L34.9961714,87.4855197 Z M45.9072855,56.0402024 L63.1493445,63.307015 L56.0268976,44.82487 L45.9072855,56.0402024 Z M64.1184807,41.6076785 C65.8300286,46.4272789 68.5826967,55.7014379 71.6169666,61.165202 C74.655644,59.0841759 79.0580175,52.5650014 84.8240869,41.6076785 C73.3408382,41.6076785 66.4389695,41.6076785 64.1184807,41.6076785 Z M64.9060919,32.6308435 L85.5450453,32.6308435 L69.2242694,19.3990926 L64.9060919,32.6308435 Z M70.2028932,8.60114398 L90.3086078,26.0149681 C91.2653332,18.7586277 90.1495538,13.8576912 86.9612696,11.3121585 C83.7729855,8.7666258 78.18686,7.86295429 70.2028932,8.60114398 Z M49.7091723,90.5697733 C52.9219341,90.5697733 64.6269056,90.5697733 84.8240869,90.5697733 L69.5508394,75.3962674 C62.0118846,81.8398528 55.3979955,86.8976882 49.7091723,90.5697733 Z M75.2255686,68.8913189 C79.3336333,73.2279512 84.4717258,78.2793898 90.639846,84.0456347 L90.639846,48.8662574 C86.1190636,57.0655538 80.9809711,63.7405743 75.2255686,68.8913189 Z" id="Combined-Shape"></path>
        </g>
    </g>
</svg>