<?xml version="1.0" encoding="UTF-8"?>
<svg width="101px" height="100px" viewBox="0 0 101 100" version="1.1" xmlns="http://www.w3.org/2000/svg" xmlns:xlink="http://www.w3.org/1999/xlink">
    <!-- Generator: sketchtool 53.2 (72643) - https://sketchapp.com -->
    <title>161B02FC-00C8-433C-8C17-4C7E8F519608</title>
    <desc>Created with sketchtool.</desc>
    <g id="Page-1" stroke="none" stroke-width="1" fill="none" fill-rule="evenodd">
        <g id="Desktop-HD-Copy-2" transform="translate(-201.000000, -5286.000000)">
            <g id="Group-12" transform="translate(201.000000, 5286.000000)">
                <path d="M7.52068413e-13,48.1575331 C3.86140377,41.8593719 8.25222215,34.7160356 13.1724552,26.7275242 L33.2875185,9.58273867 L57.1560173,-8.52651283e-14 L81.7909804,-8.52651283e-14 C92.2554733,3.01856582 98.1312613,10.050766 99.4183445,21.0966006 C100.705428,32.1424352 100.705428,58.4435683 99.4183445,100 L13.1724552,98.1916997 C4.39081838,95.5690708 1.47442139e-12,89.5573682 7.52068413e-13,80.1565919 C-3.32157602e-13,66.0554275 -4.70320984e-13,66.0554275 7.52068413e-13,48.1575331 Z" id="Path-4" fill="#A7AFC3"></path>
                <path d="M11.3305334,85.8527307 C9.1010842,82.7080357 8.1524456,76.2386021 8.4846176,66.4444301 L22.2571361,90.5697733 C17.2021835,90.5697733 13.5599826,88.9974258 11.3305334,85.8527307 Z" id="Path-5" fill="#F7F9FC"></path>
                <polygon id="Path-6" fill="#F7F9FC" points="18.1041301 64.9423052 31.695889 63.307015 27.89528 83.1958066"></polygon>
                <polygon id="Path-7" fill="#F7F9FC" points="9.69088489 50 13.5389847 57.0111141 35.185466 53.5055571 55.704206 33.9098827 62.2251733 13.6428425 57.5509996 9.91114627 37.8576647 16.4690144 19.9622948 31.6270255"></polygon>
                <path d="M34.9961714,87.4855197 L40.6763493,63.307015 C50.3478824,66.8996695 57.1328367,69.4580823 61.0312122,70.9822534 C52.9929564,79.1246222 44.3146095,84.625711 34.9961714,87.4855197 Z" id="Path-8" fill="#F7F9FC"></path>
                <polygon id="Path-9" fill="#F7F9FC" points="45.9072855 56.0402024 56.0268976 44.82487 63.1493445 63.307015"></polygon>
                <path d="M64.1184807,41.6076785 C66.4389695,41.6076785 73.3408382,41.6076785 84.8240869,41.6076785 C79.0580175,52.5650014 74.655644,59.0841759 71.6169666,61.165202 C68.5826967,55.7014379 65.8300286,46.4272789 64.1184807,41.6076785 Z" id="Path-10" fill="#F7F9FC"></path>
                <polygon id="Path-11" fill="#F7F9FC" points="64.9060919 32.6308435 69.2242694 19.3990926 85.5450453 32.6308435"></polygon>
                <path d="M70.2028932,8.60114398 L90.3086078,26.0149681 C91.2653332,18.7586277 90.1495538,13.8576912 86.9612696,11.3121585 C83.7729855,8.7666258 78.18686,7.86295429 70.2028932,8.60114398 Z" id="Path-12" fill="#F7F9FC"></path>
                <path d="M49.7091723,90.5697733 C52.9219341,90.5697733 64.6269056,90.5697733 84.8240869,90.5697733 L69.5508394,75.3962674 C62.0118846,81.8398528 55.3979955,86.8976882 49.7091723,90.5697733 Z" id="Path-13" fill="#F7F9FC"></path>
                <path d="M75.2255686,68.8913189 C79.3336333,73.2279512 84.4717258,78.2793898 90.639846,84.0456347 L90.639846,48.8662574 C86.1190636,57.0655538 80.9809711,63.7405743 75.2255686,68.8913189 Z" id="Path-14" fill="#F7F9FC"></path>
            </g>
        </g>
    </g>
</svg>