<?xml version="1.0" encoding="UTF-8"?>
<svg width="455px" height="186px" viewBox="0 0 455 186" version="1.1" xmlns="http://www.w3.org/2000/svg" xmlns:xlink="http://www.w3.org/1999/xlink">
    <!-- Generator: sketchtool 61.2 (101010) - https://sketch.com -->
    <title>994379EE-A538-4CD0-A10A-D263CD5B2564</title>
    <desc>Created with sketchtool.</desc>
    <g id="contact" stroke="none" stroke-width="1" fill="none" fill-rule="evenodd">
        <g id="feedback" transform="translate(-487.000000, -462.000000)">
            <g id="Group-3" transform="translate(487.000000, 433.227464)">
                <path d="M242.929249,129.634249 C245.496495,155.449196 234.804856,181.592527 213.219364,197.171712 L212.560744,197.639957 L212.983461,197.811833 C218.843046,200.153219 224.912907,201.685684 230.979061,202.180624 L231.706968,202.235022 C245.685509,203.18353 263.823144,199.147385 282.690362,190.468358 C292.35709,186.021608 301.99423,180.476948 311.408771,173.901366 C310.850814,175.065335 310.368088,176.236003 309.97536,177.406496 C312.468729,177.120166 315.040148,176.470206 317.604972,175.576698 C287.552365,197.450436 255.632279,208.869961 231.368473,207.223551 C223.373478,206.681054 215.474931,204.571367 207.899834,201.130439 L207.440661,200.918683 L206.98954,201.180798 C189.435869,211.282899 169.358395,216.308198 151.432105,214.166129 L150.760887,214.082437 C128.82319,211.232686 111.424612,197.981723 101.135246,173.95422 L100.825625,173.222815 L100.767527,173.070151 C94.3583846,154.417232 78.5819865,141.873591 60.2419446,139.819768 C41.4425671,137.714505 23.3031052,146.878648 11.8571561,165.999 L11.5123642,166.581451 C10.1129835,168.972049 9.19900637,171.098124 7.5822357,175.525587 L6.30382923,179.049893 C5.948764,180.016588 5.66789183,180.75762 5.38278127,181.475809 L4.98400121,182.460047 L0.362239529,180.552347 L0.738404606,179.623544 C1.10696868,178.694481 1.4739244,177.709684 2.03002388,176.174561 L2.73754194,174.216855 C4.55009594,169.228881 5.55790818,166.856156 7.19729678,164.055546 C19.6120898,142.847037 39.8292111,132.502578 60.798395,134.850828 C80.8483788,137.09614 98.1083061,150.682357 105.281892,170.832764 L105.463463,171.353659 L105.726898,171.975145 C115.224755,194.164576 130.904865,206.257009 150.794797,209.041756 L151.404985,209.124097 C167.421702,211.204701 185.555311,207.051555 201.746804,198.37511 L202.084822,198.191778 L201.778808,198.022866 C198.647141,196.262468 195.584833,194.274052 192.609214,192.075635 L191.972915,191.601338 C181.54644,183.760488 172.753921,173.655914 167.61709,164.04325 C161.958171,153.453593 159.263278,134.708881 162.277108,119.525861 C166.2222,99.6513446 178.896452,86.8674922 200.637905,85.3616944 C223.665941,83.7667887 240.248024,102.67319 242.929249,129.634249 Z M200.983374,90.3497452 C181.643817,91.6891894 170.711389,102.716156 167.181421,120.499367 C164.391082,134.556489 166.916707,152.123833 172.026933,161.68671 C179.150705,175.01758 191.977668,187.454423 206.746848,194.979294 L207.209702,195.211953 L207.696415,194.900066 C229.285066,180.836051 240.228084,155.773557 238.026089,130.898313 L237.953792,130.129048 C235.513632,105.592013 220.933364,88.9680228 200.983374,90.3497452 Z" id="Combined-Shape" fill-opacity="0.348311844" fill="#A7AFC3" fill-rule="nonzero"></path>
                <g id="Group-2" opacity="0.699195499" transform="translate(374.198509, 122.500000) rotate(50.000000) translate(-374.198509, -122.500000) translate(286.198509, 38.000000)">
                    <path d="M134.826872,63.8927157 L133.389031,63.036739 L133.177028,62.8011705 L132.405631,61.2035027 C132.21147,60.798838 131.689859,60.798838 131.493599,61.2035027 L130.723252,62.8011705 L130.51125,63.036739 L129.072359,63.8927157 C128.709225,64.1107915 128.709225,64.6903834 129.072359,64.9072931 L130.51125,65.7632698 L130.723252,65.9988383 L131.493599,67.5965061 C131.689859,68.0011708 132.21147,68.0011708 132.405631,67.5965061 L133.177028,65.9988383 L133.389031,65.7632698 L134.826872,64.9072931 C135.191055,64.6903834 135.191055,64.1107915 134.826872,63.8927157" id="Fill-12" fill="#6C44B7" opacity="0.797014509"></path>
                    <path d="M51.4671461,16.592694 L49.708193,15.6501068 C49.5992763,15.5910679 49.5086821,15.5014916 49.4496431,15.391557 L48.5080739,13.6336218 C48.2688644,13.1887939 47.6306332,13.1887939 47.3924416,13.6336218 L46.4498544,15.391557 C46.3908155,15.5014916 46.3022571,15.5910679 46.1913046,15.6501068 L44.4343873,16.592694 C43.9885416,16.8308855 43.9885416,17.4691168 44.4343873,17.7073084 L46.1913046,18.6498955 C46.3022571,18.7089344 46.3908155,18.7985108 46.4498544,18.9084453 L47.3924416,20.6663805 C47.6306332,21.1112084 48.2688644,21.1112084 48.5080739,20.6663805 L49.4496431,18.9084453 C49.5086821,18.7985108 49.5992763,18.7089344 49.708193,18.6498955 L51.4671461,17.7073084 C51.910956,17.4691168 51.910956,16.8308855 51.4671461,16.592694" id="Fill-13" fill="#272B40" opacity="0.797014509"></path>
                    <path d="M175.274973,52.5922312 L173.038095,51.5637815 C172.898826,51.4995034 172.783125,51.4012497 172.709205,51.2818761 L171.509347,49.3636338 C171.206169,48.8787932 170.394122,48.8787932 170.090944,49.3636338 L168.891086,51.2818761 C168.816095,51.4012497 168.701465,51.4995034 168.562196,51.5637815 L166.324247,52.5922312 C165.758599,52.8520984 165.758599,53.5472202 166.324247,53.8080056 L168.562196,54.8364553 C168.701465,54.9007334 168.816095,54.9980688 168.891086,55.1183607 L170.090944,57.0356848 C170.394122,57.5214436 171.206169,57.5214436 171.509347,57.0356848 L172.709205,55.1183607 C172.783125,54.9980688 172.898826,54.9007334 173.038095,54.8364553 L175.274973,53.8080056 C175.841692,53.5472202 175.841692,52.8520984 175.274973,52.5922312" id="Fill-14" fill="#272B40" opacity="0.797014509"></path>
                    <path d="M7.36629706,44.1916926 L5.60860831,43.1636328 C5.49829312,43.0994417 5.40820237,43.0011492 5.3493676,42.881794 L4.40709199,40.9640864 C4.16899503,40.4786416 3.53100549,40.4786416 3.29290853,40.9640864 L2.34971363,42.881794 C2.29087886,43.0011492 2.20078812,43.0994417 2.09139222,43.1636328 L0.333703461,44.1916926 C-0.111234487,44.4524687 -0.111234487,45.1475374 0.333703461,45.4083135 L2.09139222,46.4363733 C2.20078812,46.5005644 2.29087886,46.5988569 2.34971363,46.7182121 L3.29290853,48.6359197 C3.53100549,49.1213645 4.16899503,49.1213645 4.40709199,48.6359197 L5.3493676,46.7182121 C5.40820237,46.5988569 5.49829312,46.5005644 5.60860831,46.4363733 L7.36629706,45.4083135 C7.81123501,45.1475374 7.81123501,44.4524687 7.36629706,44.1916926" id="Fill-15" fill="#8765C9" opacity="0.797014509"></path>
                    <path d="M139.027102,32.0936145 L137.588042,31.3226894 L137.377322,31.1109419 L136.605369,29.6729095 C136.411096,29.3090328 135.888923,29.3090328 135.694649,29.6729095 L134.922696,31.1109419 L134.710949,31.3226894 L133.272917,32.0936145 C132.90904,32.2889156 132.90904,32.8110889 133.272917,33.0063899 L134.710949,33.7773151 L134.922696,33.9890625 L135.694649,35.4270949 C135.888923,35.7909716 136.411096,35.7909716 136.605369,35.4270949 L137.377322,33.9890625 L137.588042,33.7773151 L139.027102,33.0063899 C139.390979,32.8110889 139.390979,32.2889156 139.027102,32.0936145" id="Fill-16" fill="#8765C9" opacity="0.797014509"></path>
                    <path d="M96.5657061,141.271396 C96.5657061,137.089888 93.1333644,133.700009 88.9005286,133.700009 C84.6666409,133.700009 81.2342992,137.089888 81.2342992,141.271396 C81.2342992,141.271396 80.2444636,159.171367 88.9005286,168.700009 C97.5555417,159.171367 96.5657061,141.271396 96.5657061,141.271396" id="Fill-18" fill="#E4BB9E"></path>
                    <path d="M62.747851,100.100007 C62.747851,100.100007 34.9738367,113.749042 45.9794222,154.00001 C45.9794222,154.00001 51.8562603,133.766594 70.7000048,128.526976 L62.747851,100.100007" id="Fill-19" fill="#45AE60"></path>
                    <path d="M115.256239,100.100007 C115.256239,100.100007 143.743025,113.749042 132.453957,154.00001 C132.453957,154.00001 126.427344,133.766594 107.100007,128.526976 L115.256239,100.100007" id="Fill-20" fill="#45AE60"></path>
                    <path d="M98.2055318,137.200009 L79.5942002,137.200009 C78.8597008,137.200009 78.223536,136.688022 78.0609829,135.966999 L77.039507,131.431825 C76.816749,130.443196 77.5642927,129.500009 78.5727243,129.500009 L99.2270077,129.500009 C100.235439,129.500009 100.983986,130.443196 100.760225,131.431825 L99.7377457,135.966999 C99.576196,136.688022 98.9390278,137.200009 98.2055318,137.200009" id="Fill-21" fill="#207636"></path>
                    <path d="M58.1010165,89.8639963 C58.1010165,89.8639963 61.3779354,116.696987 71.5045008,133.700009 C71.5045008,133.700009 87.5898329,126.792852 106.653973,133.700009 C106.653973,133.700009 118.269942,119.353902 120.653679,87.7378486 C122.02568,69.5203248 120.385494,48.7208302 113.621022,30.8000021 L66.3744596,30.8000021 C60.0876558,45.3986602 55.609085,65.0021325 58.1010165,89.8639963" id="Fill-22" fill="#45DA60"></path>
                    <path d="M58.689645,58.100004 C72.6307411,60.2000041 83.1182368,61.2500042 90.152132,61.2500042 C96.8316508,61.2500042 106.914276,60.2000041 120.400008,58.100004 C117.074357,23.1973346 102.591912,9.04644832 93.4372165,1.37614977 C91.0813309,-0.59762035 87.3464468,-0.421079289 85.1991492,1.7312847 C80.4143721,6.52560619 64.0592508,18.6531901 58.689645,58.100004 Z" id="Fill-23" fill="#45AE60"></path>
                    <path d="M88.5682026,152.60001 C88.5682026,152.60001 103.489761,123.728778 88.5682026,88.9000061 C88.5682026,88.9000061 75.1397595,118.000101 88.5682026,152.60001 Z" id="Fill-24" fill="#45AE60"></path>
                    <path d="M58.100004,58.100004 C68.2139399,60.2215152 78.47482,61.2822708 88.8826443,61.2822708 C99.2904686,61.2822708 109.796257,60.2215152 120.400008,58.100004" id="Line-Copy-2" stroke="#388D4E" stroke-width="1.4000001" stroke-linejoin="round"></path>
                    <path d="M89.2494867,77.7000053 C80.165243,77.7000053 72.800005,70.3349997 72.800005,61.2500042 C72.800005,52.1650086 80.165243,44.8000031 89.2494867,44.8000031 C98.3347691,44.8000031 105.700007,52.1650086 105.700007,61.2500042 C105.700007,70.3349997 98.3347691,77.7000053 89.2494867,77.7000053 Z" id="Fill-25" stroke="#388D4E" stroke-width="2.10000014" fill="#FFFFFF"></path>
                    <path d="M101.500007,61.6000042 C101.500007,68.1717918 96.172876,73.500005 89.6000061,73.500005 C83.0282185,73.500005 77.7000053,68.1717918 77.7000053,61.6000042 C77.7000053,55.0282166 83.0282185,49.7000034 89.6000061,49.7000034 C96.172876,49.7000034 101.500007,55.0282166 101.500007,61.6000042" id="Fill-26" fill="#86D7FE"></path>
                    <path d="M58.100004,81.9000056 C68.2139399,84.0215168 78.47482,85.0822724 88.8826443,85.0822724 C99.2904686,85.0822724 109.796257,84.0215168 120.400008,81.9000056" id="Line-Copy" stroke="#388D4E" stroke-width="1.4000001" stroke-linejoin="round"></path>
                </g>
            </g>
        </g>
    </g>
</svg>