<svg id="full" width="16" height="16" viewBox="0 0 16 16" fill="none" xmlns="http://www.w3.org/2000/svg">
<path d="M7.99337 1.33344C4.31337 1.33344 1.33337 4.3201 1.33337 8.0001C1.33337 11.6801 4.31337 14.6668 7.99337 14.6668C11.68 14.6668 14.6667 11.6801 14.6667 8.0001C14.6667 4.3201 11.68 1.33344 7.99337 1.33344ZM12.6134 5.33344H10.6467C10.4334 4.5001 10.1267 3.7001 9.72671 2.9601C10.9534 3.3801 11.9734 4.23344 12.6134 5.33344ZM8.00004 2.69344C8.55337 3.49344 8.98671 4.3801 9.27337 5.33344H6.72671C7.01337 4.3801 7.44671 3.49344 8.00004 2.69344ZM2.84004 9.33344C2.73337 8.90677 2.66671 8.4601 2.66671 8.0001C2.66671 7.5401 2.73337 7.09344 2.84004 6.66677H5.09337C5.04004 7.10677 5.00004 7.54677 5.00004 8.0001C5.00004 8.45344 5.04004 8.89344 5.09337 9.33344H2.84004ZM3.38671 10.6668H5.35337C5.56671 11.5001 5.87337 12.3001 6.27337 13.0401C5.04671 12.6201 4.02671 11.7734 3.38671 10.6668ZM5.35337 5.33344H3.38671C4.02671 4.22677 5.04671 3.3801 6.27337 2.9601C5.87337 3.7001 5.56671 4.5001 5.35337 5.33344ZM8.00004 13.3068C7.44671 12.5068 7.01337 11.6201 6.72671 10.6668H9.27337C8.98671 11.6201 8.55337 12.5068 8.00004 13.3068ZM9.56004 9.33344H6.44004C6.38004 8.89344 6.33337 8.45344 6.33337 8.0001C6.33337 7.54677 6.38004 7.1001 6.44004 6.66677H9.56004C9.62004 7.1001 9.66671 7.54677 9.66671 8.0001C9.66671 8.45344 9.62004 8.89344 9.56004 9.33344ZM9.72671 13.0401C10.1267 12.3001 10.4334 11.5001 10.6467 10.6668H12.6134C11.9734 11.7668 10.9534 12.6201 9.72671 13.0401ZM10.9067 9.33344C10.96 8.89344 11 8.45344 11 8.0001C11 7.54677 10.96 7.10677 10.9067 6.66677H13.16C13.2667 7.09344 13.3334 7.5401 13.3334 8.0001C13.3334 8.4601 13.2667 8.90677 13.16 9.33344H10.9067Z" fill="url(#paint0_linear_136:1009)" stroke="white" stroke-width="0.666667"/>
<defs>
<linearGradient id="paint0_linear_136:1009" x1="1.29362" y1="9.44192" x2="13.7267" y2="3.97709" gradientUnits="userSpaceOnUse">
<stop stop-color="#6B67E9"/>
<stop offset="1" stop-color="#8224E3"/>
</linearGradient>
</defs>
</svg>
