<svg width="16" height="17" viewBox="0 0 16 17" fill="none" xmlns="http://www.w3.org/2000/svg">
<path d="M7.9935 1.83344C4.3135 1.83344 1.3335 4.8201 1.3335 8.5001C1.3335 12.1801 4.3135 15.1668 7.9935 15.1668C11.6802 15.1668 14.6668 12.1801 14.6668 8.5001C14.6668 4.8201 11.6802 1.83344 7.9935 1.83344ZM12.6135 5.83344H10.6468C10.4335 5.0001 10.1268 4.2001 9.72683 3.4601C10.9535 3.8801 11.9735 4.73344 12.6135 5.83344ZM8.00016 3.19344C8.5535 3.99344 8.98683 4.8801 9.2735 5.83344H6.72683C7.0135 4.8801 7.44683 3.99344 8.00016 3.19344ZM2.84016 9.83344C2.7335 9.40677 2.66683 8.9601 2.66683 8.5001C2.66683 8.0401 2.7335 7.59344 2.84016 7.16677H5.0935C5.04016 7.60677 5.00016 8.04677 5.00016 8.5001C5.00016 8.95344 5.04016 9.39344 5.0935 9.83344H2.84016ZM3.38683 11.1668H5.3535C5.56683 12.0001 5.8735 12.8001 6.2735 13.5401C5.04683 13.1201 4.02683 12.2734 3.38683 11.1668ZM5.3535 5.83344H3.38683C4.02683 4.72677 5.04683 3.8801 6.2735 3.4601C5.8735 4.2001 5.56683 5.0001 5.3535 5.83344ZM8.00016 13.8068C7.44683 13.0068 7.0135 12.1201 6.72683 11.1668H9.2735C8.98683 12.1201 8.5535 13.0068 8.00016 13.8068ZM9.56016 9.83344H6.44016C6.38016 9.39344 6.3335 8.95344 6.3335 8.5001C6.3335 8.04677 6.38016 7.6001 6.44016 7.16677H9.56016C9.62016 7.6001 9.66683 8.04677 9.66683 8.5001C9.66683 8.95344 9.62016 9.39344 9.56016 9.83344ZM9.72683 13.5401C10.1268 12.8001 10.4335 12.0001 10.6468 11.1668H12.6135C11.9735 12.2668 10.9535 13.1201 9.72683 13.5401ZM10.9068 9.83344C10.9602 9.39344 11.0002 8.95344 11.0002 8.5001C11.0002 8.04677 10.9602 7.60677 10.9068 7.16677H13.1602C13.2668 7.59344 13.3335 8.0401 13.3335 8.5001C13.3335 8.9601 13.2668 9.40677 13.1602 9.83344H10.9068Z" fill="#377DFF" stroke="white" stroke-width="0.666667"/>
</svg>
