<svg width="521" height="267" viewBox="0 0 521 267" fill="none" xmlns="http://www.w3.org/2000/svg">
<g clip-path="url(#clip0_3241_19019)">
<path fill-rule="evenodd" clip-rule="evenodd" d="M288.305 251.997C272.385 249.744 260.366 254.645 248.808 253.236C239.591 252.112 234.788 243.92 222.402 241.599C225.347 240.072 228.78 238.163 230.421 236.774C233.609 234.077 238.186 228.681 230.421 228.468C224.834 228.315 220.481 236.493 218.48 241.094C216.645 240.96 214.661 240.949 212.497 241.09C215.054 233.849 220.04 219.835 221.26 217.144C222.917 213.48 215.949 201.266 207.734 214.974C201.971 224.587 205.884 235.699 208.735 241.477C206.484 241.795 204.36 242.255 202.331 242.813C195.543 229.203 173.947 190.403 150.537 195.225C125.015 200.48 179.694 226.565 193.483 245.904C182.218 250.493 172.32 256.066 155.208 251.997C109.737 241.179 106.13 265.518 106.13 265.518L309.337 265.578C309.337 265.578 304.226 254.247 288.305 251.997Z" fill="#ACD29A"/>
<path fill-rule="evenodd" clip-rule="evenodd" d="M233.027 164.417C233.234 166.134 236.003 166.072 239.13 165.66C242.256 165.249 241.449 165.971 245.847 165.896C250.242 165.822 251.711 164.502 251.902 163.943C252.074 163.449 249.941 163.097 247.657 162.679C247.37 162.628 247.083 162.572 246.793 162.518C244.22 162.021 242.463 160.392 240.224 158.989C238.101 157.661 236.672 151.572 236.672 151.572L230.421 151.539C230.421 151.539 232.384 157.046 233.409 158.961C234.009 160.087 233.369 161.533 233.166 162.617C233.058 163.207 232.952 163.811 233.027 164.417Z" fill="#FFB07B"/>
<path fill-rule="evenodd" clip-rule="evenodd" d="M239.13 165.66C242.256 165.249 241.449 165.971 245.847 165.896C250.242 165.822 251.712 164.502 251.902 163.943C252.074 163.449 249.941 163.097 247.657 162.679L247.631 162.717C247.631 162.717 244.853 164.134 241.221 163.921C238.261 163.747 235.21 162.752 233.166 162.617C233.058 163.207 232.952 163.811 233.027 164.417C233.235 166.134 236.003 166.072 239.13 165.66Z" fill="#365DA4"/>
<path fill-rule="evenodd" clip-rule="evenodd" d="M184.153 164.144C184.29 165.867 187.056 165.898 190.199 165.59C193.342 165.282 192.504 165.977 196.902 166.047C201.298 166.12 202.821 164.847 203.038 164.297C203.228 163.807 201.114 163.387 198.849 162.892C198.564 162.832 198.279 162.766 197.995 162.702C195.442 162.121 193.757 160.435 191.579 158.959C189.517 157.561 191.214 151.762 191.214 151.762L186.47 149.794C186.47 149.794 185.818 155.77 185.465 158.793C185.321 160.031 184.619 161.275 184.372 162.352C184.238 162.938 184.106 163.536 184.153 164.144Z" fill="#FFB07B"/>
<path fill-rule="evenodd" clip-rule="evenodd" d="M190.199 165.59C193.342 165.282 192.504 165.977 196.902 166.047C201.298 166.12 202.821 164.847 203.038 164.297C203.228 163.807 201.114 163.387 198.849 162.892L198.823 162.93C198.823 162.93 195.984 164.254 192.363 163.919C189.413 163.648 186.406 162.553 184.372 162.353C184.238 162.938 184.106 163.536 184.153 164.144C184.29 165.867 187.056 165.898 190.199 165.59Z" fill="#365DA4"/>
<path fill-rule="evenodd" clip-rule="evenodd" d="M194.808 78.0836C194.808 78.0836 193.495 83.6738 192.178 112.024C192.178 112.024 189.737 117.273 187.967 123.691C186.196 130.11 184.948 156.891 184.948 156.891C184.948 156.891 185.655 157.786 187.797 157.899C189.546 157.991 190.909 157.317 190.909 157.317C190.909 157.317 203.216 122.239 209.205 108.621C215.197 95.0026 218.707 75.5572 218.707 75.5572L194.808 78.0836Z" fill="#2B478B"/>
<path fill-rule="evenodd" clip-rule="evenodd" d="M209.61 80.4769C209.61 80.4769 210.58 86.1211 220.516 113.118C220.516 113.118 220.294 118.785 221.163 125.345C222.032 131.905 232.09 157.733 232.09 157.733C232.09 157.733 233.425 158.141 235.428 157.676C237.291 157.244 238.753 156.259 238.753 156.259C238.753 156.259 234.896 119.343 235.15 104.745C235.405 90.1468 231.035 70.836 231.035 70.836L209.61 80.4769Z" fill="#2B478B"/>
<path fill-rule="evenodd" clip-rule="evenodd" d="M227.208 2.2891C225.649 1.41815 223.735 1.24644 222.386 1.2572C222.751 0.95847 223.438 0.874064 223.438 0.874064C222.609 0.728629 220.709 1.37305 220.709 1.37305C209.345 -3.05971 206.668 11.8539 206.715 15.3482C206.758 18.8418 206.56 22.8527 200.596 25.7227C188.864 31.3696 197.858 42.523 197.858 42.523C195.746 47.8476 203.565 54.3713 203.565 54.3713C203.431 51.5435 218.204 33.5278 226.169 29.4177C228.185 27.0718 229.096 22.8109 229.164 22.4754C228.646 25.8628 227.876 27.7416 227.224 28.7901C234.054 23.7959 231.335 4.59682 227.208 2.2891Z" fill="#363636"/>
<path fill-rule="evenodd" clip-rule="evenodd" d="M224.73 27.4883C224.77 27.5042 221.006 29.2223 218.171 28.5417C215.506 27.9035 213.764 24.8663 213.801 24.8595C214.929 24.6625 215.256 23.2996 215.23 17.444L215.741 17.5319L224.012 18.9722L224.321 19.0249C224.321 19.0249 224.125 21.397 224.118 23.6321C224.116 24.105 224.125 24.5709 224.144 25.0072C224.201 26.3047 224.365 27.3371 224.73 27.4883Z" fill="#FFB07B"/>
<path fill-rule="evenodd" clip-rule="evenodd" d="M224.118 23.6319C224.116 24.1049 224.125 24.5708 224.144 25.0071C219.334 24.8364 216.56 20.0023 215.513 17.8816L224.012 18.972L224.32 19.0248C224.32 19.0248 224.125 21.3968 224.118 23.6319Z" fill="#EA8E50"/>
<path fill-rule="evenodd" clip-rule="evenodd" d="M214.857 16.7113C214.857 16.7113 212.34 13.2184 211.737 10.2317C211.304 8.09945 212.54 0.195294 221.581 1.33374C221.581 1.33374 224.206 1.5611 226.673 3.02558C228.637 4.1903 231.469 6.70469 228.3 13.602L227.479 15.932L214.857 16.7113Z" fill="#363636"/>
<path fill-rule="evenodd" clip-rule="evenodd" d="M224.827 22.5366C224.827 22.5366 213.564 21.2284 214.6 15.0783C215.635 8.92805 214.877 4.61735 222.112 5.19246C229.347 5.76758 230.346 8.29542 230.569 10.4221C230.791 12.5488 227.782 22.7183 224.827 22.5366Z" fill="#FFB07B"/>
<path fill-rule="evenodd" clip-rule="evenodd" d="M227.254 5.71154C227.254 5.71154 222.955 12.523 218.053 12.9715C213.152 13.4202 211.294 12.0405 211.294 12.0405C211.294 12.0405 215.343 9.98728 216.843 5.67348C216.843 5.67348 225.517 1.9741 227.254 5.71154Z" fill="#363636"/>
<path fill-rule="evenodd" clip-rule="evenodd" d="M226.392 6.19753C226.392 6.19753 228.416 8.10887 228.711 9.74796C229.005 11.3873 228.711 14.6437 229.798 14.6741C229.798 14.6741 232.946 10.074 230.813 6.95925C228.551 3.65646 226.392 6.19753 226.392 6.19753Z" fill="#363636"/>
<path fill-rule="evenodd" clip-rule="evenodd" d="M301.184 89.7562C298.82 85.3586 292.252 81.7199 286.719 81.7182C282.632 81.7174 279.027 82.9427 276.237 84.9393C274.641 86.0806 272.237 85.328 271.804 83.5609L266.959 63.7857C266.253 60.9022 263.02 59.0674 259.738 59.688L181.359 74.511C178.152 75.1174 176.113 77.8926 176.803 80.7101L193.653 149.507C194.136 151.475 195.779 152.959 197.813 153.529L196.785 153.786H199.829L199.852 153.782C200.224 153.772 200.601 153.735 200.98 153.663L202.685 153.341L222.803 149.536C225.626 149.003 226.77 146.002 224.875 144.088C223.04 142.24 221.722 139.951 221.162 137.358C219.577 130.052 224.719 122.814 232.889 120.869C241.977 118.705 251.154 123.69 253.11 131.675C253.845 134.678 253.452 137.664 252.178 140.291C251.684 141.312 252.091 142.372 252.941 142.976L251.768 143.479L254.488 143.477V143.477C254.69 143.481 254.9 143.466 255.114 143.426L279.133 138.883C282.418 138.262 284.506 135.42 283.8 132.536L278.985 112.882C278.54 111.064 280.428 109.47 282.479 109.933C284.85 110.468 287.395 110.54 289.949 110.057C300 108.156 305.876 98.4904 301.184 89.7562Z" fill="#D86713"/>
<path fill-rule="evenodd" clip-rule="evenodd" d="M283.949 81.7182C279.862 81.7174 276.257 82.9427 273.467 84.9393C271.873 86.0806 269.467 85.328 269.034 83.5609L264.191 63.7857C263.485 60.9022 260.252 59.0674 256.97 59.688L178.591 74.511C175.384 75.1174 173.343 77.8926 174.035 80.7101L190.885 149.507C191.601 152.432 194.881 154.293 198.21 153.663L220.032 149.536C222.855 149.003 224.002 146.002 222.104 144.088C220.273 142.24 218.954 139.951 218.391 137.358C216.809 130.052 221.949 122.814 230.121 120.869C239.209 118.705 248.386 123.69 250.34 131.675C251.077 134.678 250.682 137.664 249.408 140.291C248.582 141.998 250.281 143.816 252.346 143.426L276.365 138.883C279.647 138.262 281.736 135.42 281.029 132.536L276.217 112.882C275.77 111.064 277.658 109.47 279.709 109.933C282.079 110.468 284.624 110.54 287.181 110.057C297.232 108.156 303.106 98.4904 298.414 89.7562C296.05 85.3586 289.484 81.7199 283.949 81.7182Z" fill="#FFC331"/>
<path fill-rule="evenodd" clip-rule="evenodd" d="M255.271 55.5638C255.271 55.5638 260.162 56.2678 261.442 59.0615C262.723 61.8552 260.934 63.7467 260.246 63.7403C259.559 63.7338 258.238 63.287 257.621 61.838C257.002 60.3895 255.271 55.5638 255.271 55.5638Z" fill="#FFB07B"/>
<path fill-rule="evenodd" clip-rule="evenodd" d="M187.968 68.0297C187.968 68.0297 193.456 68.0235 195.431 70.8739C197.404 73.7242 195.838 76.0754 195.085 76.1776C194.332 76.2796 192.797 76.0003 191.824 74.5149C190.852 73.0293 187.968 68.0297 187.968 68.0297Z" fill="#FFB07B"/>
<path fill-rule="evenodd" clip-rule="evenodd" d="M255.408 58.8062C254.923 58.715 252.794 58.4953 250.089 58.1211C245.105 57.434 238.16 56.2248 235.829 54.3356C235.198 53.8228 233.726 51.0006 232.198 47.7652C230.654 54.9279 230.567 60.4215 230.976 64.604L197.3 70.9731C200.186 65.8434 204.657 59.4829 203.819 54.3356C203.508 52.4274 202.317 49.8087 201.872 46.8671C201.836 46.6141 201.804 46.3611 201.778 46.1044C197.055 49.5208 191.6 53.2901 191.468 54.0441C191.251 55.3075 194.929 69.2974 194.929 69.2974C194.015 71.1444 190.048 70.7559 190.048 70.7559C186.333 68.4242 180.866 55.2091 181.304 52.2815C181.742 49.3538 195.294 32.67 198.573 28.6824C201.813 24.7424 213.641 24.8409 213.926 24.8428H213.929C213.931 24.8428 213.931 24.8428 213.933 24.8428C223.339 29.8054 224.186 25.6808 224.186 25.6808C224.186 25.6808 232.674 27.0992 234.131 29.301C235.591 31.5046 241.988 48.2098 242.44 48.7983C243.386 50.0286 258.847 54.9509 259.125 56.3758C259.405 57.801 256.794 59.0646 255.408 58.8062Z" fill="#6B67E9"/>
<path fill-rule="evenodd" clip-rule="evenodd" d="M209.041 68.7623L197.3 70.9732C200.224 65.8577 204.066 59.4869 203.226 54.3715C202.913 52.4618 202.206 50.2016 201.867 47.2468C201.834 46.9619 201.778 46.1044 201.778 46.1044C201.778 46.1044 210.093 51.855 210.239 58.0783C210.317 61.3066 209.674 65.53 209.041 68.7623Z" fill="#6B67E9"/>
<path fill-rule="evenodd" clip-rule="evenodd" d="M250.4 58.1595C245.357 57.4713 238.324 56.2621 235.965 54.372C235.327 53.8586 233.837 51.0335 232.29 47.794C232.29 47.794 231.748 42.5867 233.298 42.7813C234.847 42.9756 237.126 52.2118 238.753 52.795C240.208 53.318 248.255 56.0324 250.4 58.1595Z" fill="#6B67E9"/>
<path fill-rule="evenodd" clip-rule="evenodd" d="M498.847 256.538C498.136 258.644 494.854 260.046 494.411 262.62C494.195 263.876 493.663 264.85 492.985 265.52H482.767C482.87 265.026 483.318 264.494 484.645 264.24C487.485 263.693 488.554 260.671 488.379 257.864C488.304 256.689 488.339 255.346 488.405 254.185C488.495 252.578 488.645 251.316 488.645 251.316L494.677 250.069L495.311 250.784L495.918 251.473C495.918 251.473 499.556 254.434 498.847 256.538Z" fill="#2C3A64"/>
<path fill-rule="evenodd" clip-rule="evenodd" d="M451.265 265.52H430.592C431.06 265.038 431.854 264.573 433.198 264.38C436.379 263.927 441.888 262.305 443.117 258.73C443.157 258.617 443.192 258.499 443.223 258.379C444.198 254.56 451.296 259.55 451.296 259.55C451.296 259.55 451.317 259.703 451.35 259.961C451.475 261.037 451.75 263.954 451.265 265.52Z" fill="#2C3A64"/>
<path fill-rule="evenodd" clip-rule="evenodd" d="M434.043 164.322C434.043 164.322 435.119 176.139 436.388 190.343C438.109 209.638 440.178 233.34 440.383 237.83C440.739 245.627 442.158 258.097 442.158 258.097C442.158 258.097 445.528 261.06 452.273 259.812C452.273 259.812 458.281 242.009 460 223.172C460.026 222.862 460.052 222.552 460.08 222.241C461.676 203.064 464.158 162.686 464.158 162.686L434.043 164.322Z" fill="#35488B"/>
<path fill-rule="evenodd" clip-rule="evenodd" d="M434.043 164.322C434.043 164.322 435.119 176.139 436.388 190.343L460 223.172C460.026 222.862 460.052 222.552 460.08 222.241C461.676 203.064 464.158 162.686 464.158 162.686L434.043 164.322Z" fill="#2C3A64"/>
<path fill-rule="evenodd" clip-rule="evenodd" d="M438.963 165.725C438.963 165.725 458.391 208.521 471.166 228.632C483.941 248.745 487.934 254.357 487.934 254.357C487.934 254.357 495.253 251.784 495.917 250.029C495.917 250.029 491.032 211.202 482.479 201.738C477.643 196.39 471.964 180.341 471.698 174.728C471.432 169.115 469.97 158.008 469.97 158.008L438.963 165.725Z" fill="#35488B"/>
<path fill-rule="evenodd" clip-rule="evenodd" d="M448.93 99.6654C448.066 95.1838 448.038 92.5273 448.038 92.5273L457.895 85.5468C457.53 95.1453 464.53 99.7607 464.53 99.7607C464.53 99.7607 451.393 105.442 443.8 103.338C443.8 103.338 445.669 101.239 448.93 99.6654Z" fill="#935C2F"/>
<path fill-rule="evenodd" clip-rule="evenodd" d="M445.715 92.3691C445.715 92.3691 458.257 94.1995 459.434 87.32C460.611 80.4403 463.022 76.0432 455.064 74.5834C447.109 73.1239 445.101 75.5431 444.072 77.7553C443.043 79.9678 442.485 91.7155 445.715 92.3691Z" fill="#A16D3C"/>
<path fill-rule="evenodd" clip-rule="evenodd" d="M401.672 106.551L399.002 105.099C399.002 105.099 395.673 100.781 389.987 103.463C389.987 103.463 387.736 104.725 389.245 105.782C390.759 106.838 390.352 106.241 392.445 107.772C394.54 109.302 397.248 109.849 398.997 109.005L401.239 108.819L401.672 106.551Z" fill="#A16D3C"/>
<path fill-rule="evenodd" clip-rule="evenodd" d="M398.504 107.004C399.191 105.113 399.518 104.946 399.518 104.946C399.518 104.946 421.108 107.188 423.144 107.32C425.179 107.453 453.447 102.335 453.447 102.335L466.794 116.577C466.794 116.577 427.441 117.881 422.292 117.457C413.781 116.756 398.346 109.793 398.346 109.793C398.346 109.793 397.962 108.488 398.504 107.004Z" fill="#283074"/>
<path fill-rule="evenodd" clip-rule="evenodd" d="M471.451 160.194C471.489 160.929 469.765 161.736 469.017 162.032C463.38 164.252 458.132 165.795 452.202 166.296C445.167 166.931 436.854 165.541 434.002 165.574C433.696 165.574 433.433 165.474 433.204 165.307C433.014 165.172 432.861 157.622 433.014 148.102C433.014 147.735 433.014 147.332 433.051 146.965V146.832C433.063 145.841 433.08 144.833 433.105 143.816C433.176 141.034 433.294 138.178 433.433 135.339C433.638 131.154 433.92 127.042 434.313 123.398C434.723 119.593 435.241 116.297 435.902 113.96C437.423 108.581 440.922 105.039 444.115 102.433L446.737 100.397C449.36 100.864 452.138 100.73 454.912 99.5282C457.916 98.2253 461.186 96.8214 461.716 97.156C465.77 99.8181 468.499 105.861 469.897 113.542C470.651 117.676 471.018 122.282 470.997 127.093C470.99 128.937 470.924 130.81 470.804 132.7C470.126 142.844 470.82 151.639 471.218 156.751C471.333 158.221 471.425 159.389 471.451 160.194Z" fill="#283074"/>
<path fill-rule="evenodd" clip-rule="evenodd" d="M404.785 66.4186L325.481 55.3515C322.107 54.8809 318.94 56.9012 318.403 59.8645L314.893 79.2872C314.731 80.1869 314.992 82.7154 314.992 82.7154L317.85 83.089C318.013 83.1202 318.177 83.1422 318.345 83.154C318.862 83.1906 319.402 83.1339 319.941 82.9628C322.571 82.1264 325.483 81.8721 328.445 82.3496C336.793 83.6947 342.634 90.5393 341.745 97.956C340.756 106.206 332.129 111.941 322.926 110.657C319.463 110.173 316.428 108.768 314.095 106.77C313.643 106.383 313.097 106.178 312.548 106.128L309.556 105.734L305.831 129.427C305.304 132.349 307.571 135.094 310.898 135.558L333.551 138.72C335.649 139.012 336.661 141.14 335.425 142.657C333.999 144.411 333 146.476 332.588 148.751C330.971 157.697 339.129 166.023 350.121 165.33C355.656 164.982 361.907 160.903 363.913 156.357C365.394 152.999 365.394 149.594 364.281 146.579C363.642 144.856 365.316 143.152 367.353 143.436L390.148 146.617C393.472 147.082 396.597 145.09 397.124 142.169L409.732 72.4065C410.247 69.5528 408.034 66.8721 404.785 66.4186Z" fill="#4A75CB"/>
<path fill-rule="evenodd" clip-rule="evenodd" d="M462.008 113.336C462.008 113.336 455.929 138.263 433.105 143.816C433.176 141.034 433.294 138.178 433.433 135.339C433.638 131.154 433.92 127.042 434.313 123.398C434.721 123.213 435.102 123.069 435.453 122.968C443.196 120.724 462.008 113.336 462.008 113.336Z" fill="#283074"/>
<path fill-rule="evenodd" clip-rule="evenodd" d="M360.98 155.968C362.461 152.61 362.463 149.205 361.35 146.19C360.712 144.467 362.383 142.763 364.422 143.047L387.217 146.229C390.542 146.693 393.663 144.701 394.191 141.78L406.801 72.0175C407.316 69.1638 405.101 66.4831 401.854 66.0298L322.548 54.9625C319.176 54.4921 316.009 56.5127 315.473 59.4756L311.962 78.8987C311.508 81.4112 314.286 83.4396 317.01 82.5738C319.638 81.7374 322.552 81.4834 325.514 81.9606C333.863 83.3055 339.701 90.1503 338.814 97.5671C337.825 105.817 329.199 111.552 319.993 110.267C316.532 109.784 313.497 108.379 311.162 106.381C309.646 105.083 307.096 105.822 306.764 107.659L302.9 129.038C302.373 131.96 304.64 134.705 307.965 135.169L330.621 138.331C332.716 138.623 333.731 140.751 332.495 142.268C331.066 144.022 330.067 146.087 329.658 148.362C328.04 157.308 336.198 165.634 347.191 164.941C352.726 164.593 358.977 160.514 360.98 155.968Z" fill="#377DFF"/>
<path fill-rule="evenodd" clip-rule="evenodd" d="M401.764 122.623L398.503 122.149C398.503 122.149 394.786 117.422 388.307 120.074C388.307 120.074 385.738 121.336 387.438 122.518C389.135 123.701 388.683 123.049 391.038 124.758C393.39 126.467 396.455 127.149 398.445 126.314L400.987 126.198L401.764 122.623Z" fill="#A16D3C"/>
<path fill-rule="evenodd" clip-rule="evenodd" d="M399.272 124.079C399.378 121.97 400.656 121.745 400.656 121.745C400.656 121.745 425.356 120.31 427.487 119.947C429.617 119.584 449.29 105.261 449.29 105.261C449.29 105.261 456.897 99.2529 462.228 101.28C466.861 103.042 468.311 106.518 468.544 109.714C468.822 113.524 466.376 117.085 462.44 118.7C453.606 122.326 435.937 129.444 431.913 130.058C422.957 131.424 399.936 127.044 399.936 127.044C399.936 127.044 399.19 125.735 399.272 124.079Z" fill="#283074"/>
<path fill-rule="evenodd" clip-rule="evenodd" d="M444.072 77.7553C444.072 77.7553 438.982 74.4388 442.302 69.2859C442.302 69.2859 446.304 70.4525 451.992 69.2859C457.681 68.1193 462.771 69.7721 463.435 71.5218C463.435 71.5218 465.648 72.2999 465.869 75.2165C466.09 78.133 459.435 87.32 459.435 87.32C459.435 87.32 458.012 85.7649 458.399 84.6956C458.787 83.626 460.004 81.244 458.509 81.244C457.017 81.244 456.52 83.1887 455.91 82.4108C455.303 81.633 456.409 78.3761 454.639 77.8413C452.868 77.3065 446.064 78.7388 444.072 77.7553Z" fill="#2C3A64"/>
<path fill-rule="evenodd" clip-rule="evenodd" d="M271.078 263.038L248.66 173.598H254.831C256.295 173.598 257.491 172.547 257.491 171.261V168.24C257.491 166.955 256.295 165.905 254.831 165.905H176.551C175.089 165.905 173.892 166.955 173.892 168.24V171.261C173.892 172.547 175.089 173.598 176.551 173.598H184.497L162.078 263.038C161.777 264.24 162.646 265.442 164.009 265.706C165.374 265.973 166.738 265.206 167.039 264.004L189.7 173.598H243.457L266.118 264.004C266.419 265.206 267.782 265.973 269.145 265.706C270.511 265.442 271.38 264.24 271.078 263.038Z" fill="#C3E0F4"/>
<path fill-rule="evenodd" clip-rule="evenodd" d="M419.742 208.265C411.443 201.266 381.573 245.43 381.573 245.43C381.573 245.43 428.039 215.266 419.742 208.265Z" fill="#ACD29A"/>
<path fill-rule="evenodd" clip-rule="evenodd" d="M418.746 228.682C411.4 226.1 387.925 247.847 382.637 252.868C378.592 252.396 374.154 252.09 369.29 252.013C332.117 251.43 315.255 266.224 315.255 266.224L418.953 266.534C418.953 266.534 409.769 256.285 383.708 252.998C390.077 250.356 408.909 242.658 415.758 241.179C424.057 239.385 427.043 231.596 418.746 228.682Z" fill="#ACD29A"/>
<path fill-rule="evenodd" clip-rule="evenodd" d="M389.499 184.356H367.116C364.22 184.356 362.376 187.085 363.777 189.311C365.129 191.462 360.371 210.1 350.346 210.586C340.919 211.043 333.119 204.433 333.119 196.245C333.119 193.165 334.223 190.31 336.102 187.972C337.324 186.452 336.092 184.356 333.976 184.356H309.34C305.973 184.356 303.244 186.754 303.244 189.712C303.244 189.712 301.01 212.946 299.112 212.113C297.156 211.254 294.976 210.731 292.668 210.627L292.671 210.625H292.647C292.372 210.613 292.096 210.607 291.816 210.607C291.538 210.607 287.482 210.545 287.482 210.545L286.867 239.257L290.389 239.29C293.737 239.201 296.645 238.926 299.23 237.77C301.066 236.946 303.244 238.13 303.244 239.942V260.224C303.244 263.18 305.973 265.578 309.337 265.578H389.725C393.014 265.578 395.679 263.236 395.679 260.346V189.786C395.679 186.787 392.913 184.356 389.499 184.356Z" fill="#D86713"/>
<path fill-rule="evenodd" clip-rule="evenodd" d="M283.846 238.922C287.853 239.681 291.679 239.147 294.893 237.708C296.731 236.884 298.909 238.07 298.909 239.882V260.162C298.909 263.12 301.638 265.518 305.002 265.518H385.39C388.679 265.518 391.344 263.176 391.344 260.286V189.727C391.344 186.727 388.577 184.294 385.164 184.294H362.781C359.885 184.294 358.041 187.023 359.442 189.251C360.794 191.402 361.538 193.891 361.465 196.535C361.262 203.991 354.486 210.133 346.011 210.526C336.584 210.96 328.784 204.373 328.784 196.185C328.784 193.105 329.888 190.25 331.767 187.912C332.989 186.392 331.757 184.294 329.641 184.294H305.005C301.638 184.294 298.909 186.694 298.909 189.652V209.808C298.909 211.674 296.675 212.886 294.777 212.053C292.581 211.089 290.104 210.545 287.481 210.545C277.174 210.545 269.096 218.931 271.599 228.363C272.858 233.111 278.421 237.896 283.846 238.922Z" fill="#FFC331"/>
<path fill-rule="evenodd" clip-rule="evenodd" d="M51.0922 265.913L65.54 266.006C65.54 266.006 65.0374 262.934 55.3117 262.142C51.5412 252.94 40.4644 228.183 30.8456 229.352C21.3486 230.508 43.8408 253.221 52.991 262.053C51.6964 262.055 50.4895 262.146 49.3757 262.303C47.1715 258.447 42.8009 252.996 35.7865 253.244C28.3215 253.509 38.4917 259.5 45.4935 263.178C41.9469 264.296 40.0317 265.843 40.0317 265.843L50.9281 265.913C51.0564 265.973 51.1259 266.006 51.1259 266.006C51.1259 266.006 51.1146 265.973 51.0922 265.913Z" fill="#ACD29A"/>
<path fill-rule="evenodd" clip-rule="evenodd" d="M102.713 163.327L104.85 164.852C104.85 164.852 110.698 163.008 112.018 169.115C112.018 169.115 112.37 171.718 110.494 171.722C108.618 171.728 109.391 171.439 106.735 171.507C104.079 171.575 101.877 170.344 101.488 168.449L100.217 166.844L102.713 163.327Z" fill="#EA8E50"/>
<path fill-rule="evenodd" clip-rule="evenodd" d="M102.471 166.6C104.176 165.036 104.039 163.879 104.039 163.879C104.039 163.879 84.2898 149.671 82.2869 148.513C80.9221 147.725 66.3778 136.395 59.5791 129.488C56.2069 126.062 52.0296 127.391 47.2505 128.596L43.3147 129.588C38.5621 130.786 37.3261 136.627 41.2256 139.465C52.2076 147.458 70.4767 156.448 73.8948 158.337C82.3807 163.029 98.9909 168.602 98.9909 168.602C98.9909 168.602 101.006 167.944 102.471 166.6Z" fill="#1E3D70"/>
<path fill-rule="evenodd" clip-rule="evenodd" d="M125.582 253.743C125.582 253.743 130.375 256.898 137.719 255.232C137.719 255.232 143.641 254.045 144.938 256.641C144.938 256.641 135.858 260.694 133.56 261.803C131.828 262.638 130.021 263.956 128.743 264.976C127.732 265.783 126.157 265.673 125.295 264.742C124.895 264.312 124.438 263.797 123.937 263.201C122.537 261.534 119.274 256.149 119.274 256.149L125.582 253.743Z" fill="#233862"/>
<path fill-rule="evenodd" clip-rule="evenodd" d="M127.821 252.286C127.821 252.286 124.903 258.199 118.166 257.113C118.166 257.113 104.42 247.137 94.9905 236.775C91.9282 233.409 89.3207 230.001 87.7885 226.884C81.5358 214.163 64.659 195.19 53.9287 185.574L80.7751 177.041C80.7751 177.041 89.3742 192.24 100.815 210.911C109.061 224.362 118.78 239.617 127.821 252.286Z" fill="#363636"/>
<path fill-rule="evenodd" clip-rule="evenodd" d="M100.815 210.911L94.9905 236.775C91.9282 233.409 89.3207 230.001 87.7885 226.884C81.5358 214.163 64.659 195.19 53.9287 185.574L80.7751 177.041C80.7751 177.041 89.3741 192.24 100.815 210.911Z" fill="#363636"/>
<path fill-rule="evenodd" clip-rule="evenodd" d="M78.8012 257.098C78.8012 257.098 78.5085 261.815 85.0181 262.446C85.0181 262.446 88.7378 262.463 88.7484 265.464L69.8294 265.518C69.8294 265.518 69.2801 264.306 69.1469 261.712C69.0445 259.719 71.3447 254.51 71.3447 254.51L78.8012 257.098Z" fill="#233862"/>
<path fill-rule="evenodd" clip-rule="evenodd" d="M71.9692 177.041C71.9692 177.041 83.9289 188.589 91.5208 209.392C95.6513 220.711 83.9499 249.171 81.6687 259.057C81.6687 259.057 73.819 259.643 68.4518 257.82C68.4518 257.82 68.044 237.397 71.1831 221.656C72.9397 212.847 55.4359 202.816 47.7875 186.899C42.5843 176.071 48.9143 176.255 56.6934 175.994L71.9692 177.041Z" fill="#363636"/>
<path fill-rule="evenodd" clip-rule="evenodd" d="M58.163 125.523C51.5088 128.824 37.8867 125.779 37.8867 125.779C37.8867 125.779 43.4188 120.222 40.905 111.272L51.7417 116.108C51.7417 116.108 52.1043 117.688 52.3567 120.527C52.4209 121.259 52.4784 122.075 52.5182 122.968C55.9346 123.878 58.163 125.523 58.163 125.523Z" fill="#FFB07B"/>
<path fill-rule="evenodd" clip-rule="evenodd" d="M82.5629 176.445C82.5629 177.471 81.2158 177.964 80.9295 178.013C78.246 178.446 70.7523 181.007 64.0016 181.594C58.3174 182.118 53.0399 181.619 47.242 180.597C46.4745 180.461 44.672 180.034 44.5439 179.389C44.3841 178.681 22.1805 139.615 39.4413 122.834C39.8465 122.44 43.2537 123.149 46.3695 123.799C49.247 124.398 51.8865 124.064 54.2437 123.233L57.1657 124.584C60.754 126.341 67.544 132.584 68.3383 137.482C68.7419 139.973 70.3631 141.817 70.8321 144.009C71.0063 144.819 71.1843 145.611 71.3653 146.382C71.719 147.896 72.0837 149.336 72.4585 150.706C73.4734 154.41 74.5451 157.599 75.5975 160.355C76.7173 163.279 77.8156 165.712 78.7967 167.748C80.0692 170.388 81.1447 172.361 81.8166 173.872C82.2912 174.935 82.5629 175.769 82.5629 176.445Z" fill="#2A4E96"/>
<path fill-rule="evenodd" clip-rule="evenodd" d="M81.8159 173.871C50.473 160.895 39.6182 135.979 39.6182 135.979C39.6182 135.979 65.0834 144.233 71.3647 146.382C71.7183 147.896 72.083 149.336 72.4578 150.706C73.4728 154.41 74.5445 157.599 75.5969 160.355C76.7166 163.279 77.8149 165.712 78.796 167.748C80.0685 170.388 81.144 172.361 81.8159 173.871Z" fill="#1E3D70"/>
<path fill-rule="evenodd" clip-rule="evenodd" d="M170.348 146.275L163.634 127.568C162.982 125.752 160.844 124.892 158.975 125.354L158.97 125.355C158.871 125.38 158.772 125.41 158.676 125.442L156.321 126.133C156.321 126.133 152.634 129.468 149.99 130.14C141.858 132.208 134.14 128.399 131.173 121.433C127.873 113.685 131.702 105.176 140.565 102.72C143.598 101.88 149.566 103.446 149.566 103.446L151.963 102.746C153.265 102.398 154.157 101.165 153.694 99.8696L146.303 79.2801C145.293 76.4659 141.879 74.9038 138.676 75.7915L116.857 81.8377C114.837 82.3973 112.855 80.8946 113.188 79.0575C113.574 76.9333 113.418 74.7 112.632 72.509C109.539 63.8936 98.0386 59.6565 88.5802 64.5773C83.8182 67.0549 80.3085 73.1408 80.8235 77.9826C81.2039 81.5582 82.929 84.5972 85.4517 86.8514C86.894 88.14 86.2653 90.3151 84.3037 90.8586L62.349 96.9425C59.1478 97.8298 57.3711 100.829 58.3807 103.642L82.4944 170.83C83.4806 173.578 86.8158 175.102 89.9436 174.236L166.322 153.071C169.569 152.171 171.373 149.128 170.348 146.275Z" fill="#4A75CB"/>
<path fill-rule="evenodd" clip-rule="evenodd" d="M78.5012 78.6632C78.8816 82.2389 80.6067 85.2779 83.1296 87.532C84.5717 88.8207 83.943 90.9954 81.9814 91.5391L60.0269 97.6229C56.8257 98.51 55.0489 101.51 56.0584 104.323L80.1721 171.511C81.1583 174.258 84.4935 175.783 87.6213 174.916L164 153.751C167.249 152.851 169.05 149.809 168.026 146.955L161.311 128.249C160.443 125.829 156.937 125.107 154.945 126.945C153.024 128.72 150.552 130.088 147.668 130.821C139.536 132.888 130.854 129.067 127.888 122.1C124.588 114.352 129.379 105.857 138.243 103.401C141.577 102.477 144.998 102.543 148.094 103.412C150.104 103.977 152.007 102.32 151.371 100.55L143.981 79.9603C142.971 77.1464 139.556 75.5847 136.354 76.472L114.535 82.5186C112.515 83.078 110.533 81.5754 110.866 79.7381C111.251 77.6137 111.095 75.3807 110.309 73.1894C107.217 64.5738 95.7168 60.337 86.2581 65.2578C81.4959 67.7355 77.986 73.8215 78.5012 78.6632Z" fill="#377DFF"/>
<path fill-rule="evenodd" clip-rule="evenodd" d="M100.154 166.351L102.863 167.225C102.863 167.225 108.287 163.855 111.663 169.335C111.663 169.335 112.885 171.728 110.951 172.247C109.018 172.769 109.721 172.279 107.003 173.075C104.286 173.869 101.608 173.296 100.582 171.592L98.7412 170.404L100.154 166.351Z" fill="#FFB07B"/>
<path fill-rule="evenodd" clip-rule="evenodd" d="M102.384 169.717C103.385 167.421 103.843 166.38 103.843 166.38C103.843 166.38 83.3769 151.723 81.2919 150.466C79.8706 149.609 65.7241 140.317 58.8272 133.076C55.4059 129.484 50.0116 127.842 44.7943 128.803L40.4983 129.595C35.3107 130.551 33.6252 136.321 37.6493 139.352C48.9829 147.889 68.0983 157.792 71.6623 159.851C80.5102 164.963 100.08 172.128 100.08 172.128C100.08 172.128 101.598 171.519 102.384 169.717Z" fill="#2A4E96"/>
<path fill-rule="evenodd" clip-rule="evenodd" d="M52.3571 120.527C45.8139 120.85 41.5586 116.103 41.5586 116.103C41.5586 116.103 44.5168 114.663 46.1301 113.603L51.7422 116.108C51.7422 116.108 52.1047 117.688 52.3571 120.527Z" fill="#EA8E50"/>
<path fill-rule="evenodd" clip-rule="evenodd" d="M55.1443 114.624C55.1443 114.624 45.2299 120.876 40.8941 115.391C36.5583 109.905 32.3585 107.018 38.5053 102.795C44.6523 98.5713 47.5498 99.9056 49.5037 101.427C51.4579 102.949 57.6115 112.857 55.1443 114.624Z" fill="#FFB07B"/>
<path fill-rule="evenodd" clip-rule="evenodd" d="M50.551 96.4733C50.1955 94.3646 49.3957 92.8809 49.3957 92.8809C49.3957 92.8809 48.7735 95.1458 44.0633 94.8332C39.3534 94.521 31.8882 95.2403 29.3996 99.9565C29.2412 100.257 29.1002 100.566 28.9749 100.882C28.5243 99.8361 28.4157 98.2692 28.4157 98.2692C27.5208 100.299 28.4157 102.839 28.4157 102.839H28.416C28.4028 102.913 28.3915 102.987 28.3792 103.062C27.34 103.834 26.4668 106.234 26.4668 106.234C26.7806 105.565 27.5456 105.128 28.2279 104.859C28.2067 108.529 29.9002 112.117 32.873 113.185C37.2204 114.746 37.1858 113.555 41.5578 116.103C41.5578 116.103 42.7303 114.825 41.9307 113.965C41.1305 113.106 38.1091 111.857 39.7977 110.608C41.4862 109.358 42.1083 110.764 42.7303 109.905C43.3525 109.046 40.2422 106.547 44.2411 104.204C48.2404 101.862 50.9065 98.5816 50.551 96.4733Z" fill="#233862"/>
<path fill-rule="evenodd" clip-rule="evenodd" d="M305.779 265.551C305.779 265.551 300.764 259.039 292.919 259.564C290.534 259.723 286.659 260.234 282.158 260.778C278.763 250.368 269.406 225.626 256.785 224.232C243.897 222.81 269.119 250.327 279.434 261.101C277.552 261.318 275.598 261.532 273.628 261.72C268.166 256.595 258.649 249.005 250.703 249.588C242.738 250.174 257.651 257.411 268.417 262.144C261.811 262.578 255.549 262.531 251.723 261.232C242.35 258.048 233.735 265.551 233.735 265.551H305.779Z" fill="#82B378"/>
<path fill-rule="evenodd" clip-rule="evenodd" d="M518.53 266.931H0.960691C0.637557 266.931 0.373047 266.66 0.373047 266.327V266.122C0.373047 265.789 0.637557 265.518 0.960691 265.518H518.53C518.852 265.518 519.118 265.789 519.118 266.122V266.327C519.118 266.66 518.852 266.931 518.53 266.931Z" fill="#2E3552"/>
</g>
<defs>
<clipPath id="clip0_3241_19019">
<rect width="520.227" height="266.98" fill="white"/>
</clipPath>
</defs>
</svg>
