<svg id="full" width="35" height="31" viewBox="0 0 35 31" fill="none" xmlns="http://www.w3.org/2000/svg">
<path style="fill: var(--primaryColor, #363636);" d="M25.5217 16.285C25.5217 15.7088 25.0569 15.2411 24.4842 15.2411H14.5245C13.9519 15.2411 13.4871 15.7088 13.4871 16.285C13.4871 16.8613 13.9519 17.3289 14.5245 17.3289H24.4842C25.0569 17.3289 25.5217 16.8613 25.5217 16.285ZM4.14987 24.2188C3.69338 24.2188 3.3199 23.8429 3.3199 23.3836V9.18642C3.3199 8.7271 3.69338 8.35129 4.14987 8.35129H25.7292C26.1857 8.35129 26.5592 8.7271 26.5592 9.18642V17.0533L29.8791 13.7128V3.34052C29.8791 1.49488 28.3934 0 26.5592 0H3.3199C1.48565 0 0 1.49488 0 3.34052V24.2188C0 26.0644 1.48565 27.5593 3.3199 27.5593H16.8651C16.9315 27.0164 17.1722 26.507 17.5539 26.1145C17.8527 25.8139 18.691 24.9704 18.691 24.9704L19.438 24.2188H4.14987ZM9.95969 2.92295H13.2796C13.9685 2.92295 14.5245 3.48249 14.5245 4.17565C14.5245 4.8688 13.9685 5.42834 13.2796 5.42834H9.95969C9.27081 5.42834 8.71473 4.8688 8.71473 4.17565C8.71473 3.48249 9.27081 2.92295 9.95969 2.92295ZM4.97984 2.50539C5.89282 2.50539 6.63979 3.257 6.63979 4.17565C6.63979 5.09429 5.89282 5.84591 4.97984 5.84591C4.06687 5.84591 3.3199 5.09429 3.3199 4.17565C3.3199 3.257 4.06687 2.50539 4.97984 2.50539ZM31.5971 20.327L29.2151 17.9302C29.0491 17.7632 28.7918 17.7632 28.6258 17.9302L21.9528 24.6447C21.7868 24.8117 21.7868 25.0706 21.9528 25.2376L24.3348 27.6344C24.5008 27.8015 24.7581 27.8015 24.9241 27.6344L31.5971 20.92C31.7548 20.753 31.7548 20.4857 31.5971 20.327ZM20.4506 26.7408C20.2929 26.5822 20.0273 26.5738 19.8696 26.7408C19.5957 27.0081 19.2139 27.4006 19.023 27.5843C18.9566 27.6511 18.9151 27.743 18.9068 27.8432L18.6993 30.549C18.6827 30.8079 18.8985 31.0251 19.1641 31L21.7453 30.6994C21.8366 30.691 21.9279 30.6492 21.9943 30.5824L22.8409 29.7306C23.0069 29.5636 23.0069 29.3047 22.8409 29.1377L20.4506 26.7408ZM6.2248 19.4168C5.65212 19.4168 5.18734 19.8844 5.18734 20.4607C5.18734 21.0369 5.65212 21.5046 6.2248 21.5046H21.1643C21.737 21.5046 22.2018 21.0369 22.2018 20.4607C22.2018 19.8844 21.737 19.4168 21.1643 19.4168H6.2248ZM24.4842 11.0655H14.5245C13.9519 11.0655 13.4871 11.5331 13.4871 12.1094C13.4871 12.6856 13.9519 13.1533 14.5245 13.1533H24.4842C25.0569 13.1533 25.5217 12.6856 25.5217 12.1094C25.5217 11.5331 25.0569 11.0655 24.4842 11.0655Z"/>
<path style="fill: var(--secondaryColor, #707070);" d="M9.95968 10.8567H6.63979C6.1833 10.8567 5.80981 11.2325 5.80981 11.6918V15.8675C5.80981 16.3268 6.1833 16.7026 6.63979 16.7026H9.95968C10.4162 16.7026 10.7897 16.3268 10.7897 15.8675V11.6918C10.7897 11.2325 10.4162 10.8567 9.95968 10.8567ZM34.8755 17.0199L32.4935 14.6231C32.3275 14.4561 32.0702 14.4561 31.9042 14.6231L30.6509 15.8842C30.4849 16.0512 30.4849 16.3101 30.6509 16.4771L33.033 18.8739C33.199 19.041 33.4562 19.041 33.6222 18.8739L34.8755 17.6129C35.0332 17.4542 35.0332 17.187 34.8755 17.0199Z"/>
</svg>
