<svg width="128" height="151" viewBox="0 0 128 151" fill="none" xmlns="http://www.w3.org/2000/svg">
<g clip-path="url(#clip0_3368_18177)">
<path d="M9.96914 49.9416C7.54582 49.9424 5.222 50.9055 3.50859 52.6192C1.79518 54.3329 0.832439 56.6569 0.832031 59.0802L0.838184 97.3524C0.839722 102.413 4.93159 106.497 9.97991 106.497C15.0282 106.497 19.1201 102.413 19.1155 97.3555V59.0787C19.1134 56.6544 18.1489 54.3301 16.4338 52.6168C14.7187 50.9034 12.3934 49.9412 9.96914 49.9416ZM83.6734 15.5721L90.0519 3.9254C90.2142 3.62955 90.2527 3.28146 90.1591 2.95727C90.0654 2.63308 89.8472 2.35918 89.5521 2.19546C89.2563 2.03626 88.9096 2.00025 88.5874 2.09528C88.2652 2.1903 87.9935 2.40867 87.8314 2.70291L81.3884 14.4726C75.7493 11.9758 69.6472 10.6958 63.4801 10.716C57.3279 10.6961 51.2404 11.9713 45.6134 14.4588L39.1642 2.71829C39.0853 2.57186 38.9782 2.4425 38.8491 2.33764C38.7199 2.23279 38.5713 2.15453 38.4118 2.10736C38.2523 2.0602 38.085 2.04506 37.9196 2.06281C37.7542 2.08057 37.594 2.13088 37.4481 2.21084C37.3013 2.28954 37.1716 2.39669 37.0666 2.52604C36.9616 2.6554 36.8835 2.80436 36.8367 2.96425C36.7898 3.12413 36.7753 3.29174 36.794 3.45729C36.8127 3.62283 36.8641 3.78301 36.9453 3.92847L43.3253 15.569C30.7868 22.0351 22.3155 34.3522 22.3232 48.4884L104.651 48.4792C104.651 34.343 96.1951 22.0566 83.6734 15.5721ZM44.7554 33.5741C43.8398 33.5735 42.962 33.2092 42.315 32.5614C41.668 31.9135 41.3049 31.0352 41.3055 30.1196C41.3061 29.2041 41.6704 28.3262 42.3183 27.6792C42.9661 27.0323 43.8444 26.6691 44.76 26.6698C45.6756 26.6726 46.5529 27.0378 47.2001 27.6856C47.8472 28.3333 48.2117 29.2109 48.2137 30.1265C48.2121 31.0423 47.8468 31.9198 47.1983 32.5663C46.5498 33.2128 45.6711 33.5753 44.7554 33.5741ZM82.2434 33.568C81.79 33.5684 81.3411 33.4794 80.9222 33.3061C80.5032 33.1329 80.1226 32.8788 79.802 32.5583C79.4813 32.2378 79.227 31.8573 79.0536 31.4384C78.8801 31.0196 78.791 30.5707 78.7912 30.1173C78.7964 29.2027 79.1616 28.3268 79.8076 27.6793C80.4537 27.0318 81.3287 26.6647 82.2434 26.6575C83.1576 26.6655 84.0318 27.0336 84.6766 27.6818C85.3213 28.33 85.6847 29.2061 85.6879 30.1204C85.6883 30.573 85.5995 31.0212 85.4265 31.4395C85.2536 31.8578 85 32.2378 84.6801 32.558C84.3602 32.8782 83.9803 33.1322 83.5622 33.3055C83.1441 33.4788 82.696 33.568 82.2434 33.568ZM22.6568 51.6684L22.6707 110.981C22.6693 112.262 22.9206 113.531 23.4102 114.714C23.8998 115.898 24.6182 116.974 25.5241 117.879C26.43 118.785 27.5056 119.503 28.6894 119.992C29.8732 120.481 31.142 120.732 32.4229 120.73L39.0627 120.733L39.072 140.985C39.0728 143.408 40.0349 145.731 41.7472 147.445C43.4594 149.159 45.7818 150.124 48.2045 150.127C50.6294 150.125 52.9544 149.16 54.6686 147.445C56.3827 145.73 57.3458 143.404 57.3462 140.979L57.34 120.733L69.6787 120.73L69.6833 140.979C69.6833 146.018 73.7844 150.124 78.8204 150.115C81.2449 150.115 83.5702 149.151 85.2846 147.437C86.999 145.723 87.9621 143.397 87.9621 140.973L87.956 120.727L94.6205 120.721C95.9017 120.721 97.1703 120.469 98.3541 119.979C99.5378 119.489 100.613 118.77 101.519 117.864C102.425 116.959 103.144 115.883 103.635 114.699C104.125 113.516 104.377 112.247 104.377 110.966L104.366 51.653L22.6568 51.6684ZM126.171 59.0695C126.172 57.8692 125.936 56.6805 125.477 55.5715C125.018 54.4625 124.345 53.4548 123.496 52.6061C122.647 51.7574 121.64 51.0842 120.531 50.6252C119.422 50.1662 118.233 49.9302 117.033 49.9308C115.832 49.9308 114.644 50.1673 113.535 50.6268C112.426 51.0863 111.419 51.7598 110.571 52.6087C109.722 53.4577 109.049 54.4655 108.591 55.5746C108.132 56.6837 107.896 57.8723 107.897 59.0725L107.905 97.3478C107.904 98.5479 108.14 99.7363 108.599 100.845C109.058 101.954 109.731 102.962 110.579 103.81C111.428 104.659 112.436 105.331 113.544 105.79C114.653 106.249 115.842 106.484 117.042 106.483C118.242 106.484 119.431 106.248 120.54 105.788C121.649 105.329 122.656 104.655 123.505 103.806C124.353 102.957 125.026 101.949 125.485 100.84C125.943 99.7308 126.179 98.542 126.177 97.3417L126.171 59.0695Z" fill="#A4C439"/>
</g>
<defs>
<clipPath id="clip0_3368_18177">
<rect width="127.586" height="150" fill="white" transform="translate(0.207031 0.922119)"/>
</clipPath>
</defs>
</svg>
