<svg width="168" height="131" viewBox="0 0 168 131" fill="none" xmlns="http://www.w3.org/2000/svg">
<g clip-path="url(#clip0_3368_18247)">
<path d="M50.9165 53.4717C50.9165 55.3443 51.119 56.8627 51.4733 57.9761C51.8782 59.0896 52.3843 60.3043 53.0929 61.6202C53.3459 62.0251 53.4471 62.43 53.4471 62.7842C53.4471 63.2904 53.1435 63.7965 52.4855 64.3026L49.297 66.4283C48.8415 66.732 48.386 66.8838 47.9811 66.8838C47.4749 66.8838 46.9688 66.6307 46.4627 66.1752C45.7541 65.4161 45.1468 64.6063 44.6407 63.7965C44.1346 62.9361 43.6284 61.9744 43.0717 60.8104C39.124 65.4667 34.164 67.7948 28.1918 67.7948C23.9405 67.7948 20.5495 66.5801 18.0695 64.1508C15.5895 61.7214 14.3242 58.4822 14.3242 54.4333C14.3242 50.1313 15.8426 46.6391 18.9299 44.0072C22.0172 41.3754 26.1168 40.0595 31.3298 40.0595C33.0506 40.0595 34.822 40.2114 36.6946 40.4644C38.5673 40.7175 40.4905 41.1224 42.515 41.5779V37.8832C42.515 34.0367 41.7052 31.3543 40.1362 29.7853C38.5167 28.2163 35.7836 27.4572 31.8865 27.4572C30.1151 27.4572 28.2931 27.6596 26.4204 28.1151C24.5478 28.5706 22.7258 29.1274 20.9544 29.8359C20.1446 30.1902 19.5372 30.3927 19.183 30.4939C18.8287 30.5951 18.5756 30.6457 18.3732 30.6457C17.6646 30.6457 17.3103 30.1396 17.3103 29.0767V26.5968C17.3103 25.787 17.4115 25.1796 17.6646 24.8253C17.9177 24.4711 18.3732 24.1168 19.0817 23.7625C20.8531 22.8515 22.9788 22.0923 25.4588 21.485C27.9388 20.827 30.5706 20.5233 33.3543 20.5233C39.3771 20.5233 43.7803 21.8899 46.6145 24.6229C49.3982 27.3559 50.8153 31.5061 50.8153 37.0734V53.4717H50.9165ZM30.3682 61.1647C32.0383 61.1647 33.7591 60.861 35.5812 60.2536C37.4032 59.6463 39.0228 58.5328 40.3893 57.0145C41.1991 56.0529 41.8064 54.99 42.1101 53.7753C42.4138 52.5606 42.6162 51.0929 42.6162 49.3721V47.2464C41.1485 46.8921 39.5795 46.5884 37.9599 46.386C36.3403 46.1836 34.7714 46.0823 33.2024 46.0823C29.8114 46.0823 27.3314 46.7403 25.6613 48.1068C23.9911 49.4733 23.1813 51.3966 23.1813 53.9272C23.1813 56.3059 23.7886 58.0773 25.0539 59.292C26.2686 60.5573 28.04 61.1647 30.3682 61.1647ZM71.0094 66.6307C70.0984 66.6307 69.4911 66.4789 69.0862 66.1246C68.6813 65.8209 68.327 65.1124 68.0233 64.1508L56.1296 25.0278C55.8259 24.0156 55.6741 23.3576 55.6741 23.0033C55.6741 22.1935 56.0789 21.738 56.8887 21.738H61.8487C62.8103 21.738 63.4683 21.8899 63.8226 22.2441C64.2274 22.5478 64.5311 23.2564 64.8348 24.218L73.3376 57.7231L81.233 24.218C81.4861 23.2058 81.7897 22.5478 82.1946 22.2441C82.5995 21.9405 83.3081 21.738 84.2191 21.738H88.268C89.2297 21.738 89.8876 21.8899 90.2925 22.2441C90.6974 22.5478 91.0517 23.2564 91.2541 24.218L99.2508 58.1279L108.007 24.218C108.31 23.2058 108.665 22.5478 109.019 22.2441C109.424 21.9405 110.082 21.738 110.993 21.738H115.7C116.509 21.738 116.965 22.1429 116.965 23.0033C116.965 23.2564 116.914 23.5094 116.864 23.8131C116.813 24.1168 116.712 24.5217 116.509 25.0784L104.312 64.2014C104.008 65.2136 103.654 65.8716 103.249 66.1752C102.844 66.4789 102.186 66.6813 101.326 66.6813H96.9733C96.0117 66.6813 95.3537 66.5295 94.9488 66.1752C94.5439 65.8209 94.1896 65.163 93.9872 64.1508L86.1423 31.5061L78.3481 64.1001C78.0951 65.1124 77.7914 65.7703 77.3865 66.1246C76.9816 66.4789 76.2731 66.6307 75.362 66.6307H71.0094ZM136.046 67.9973C133.414 67.9973 130.782 67.6936 128.251 67.0862C125.721 66.4789 123.747 65.8209 122.431 65.0618C121.621 64.6063 121.064 64.1001 120.862 63.6446C120.66 63.1891 120.558 62.683 120.558 62.2275V59.6463C120.558 58.5835 120.963 58.0773 121.722 58.0773C122.026 58.0773 122.33 58.1279 122.633 58.2292C122.937 58.3304 123.393 58.5328 123.899 58.7353C125.62 59.4945 127.492 60.1018 129.466 60.5067C131.491 60.9116 133.464 61.114 135.489 61.114C138.677 61.114 141.157 60.5573 142.878 59.4439C144.599 58.3304 145.51 56.7108 145.51 54.6357C145.51 53.2186 145.054 52.0545 144.143 51.0929C143.232 50.1313 141.512 49.2709 139.032 48.4611L131.693 46.1835C127.998 45.0195 125.265 43.2987 123.595 41.0211C121.925 38.7942 121.064 36.3142 121.064 33.6824C121.064 31.5567 121.52 29.6841 122.431 28.0645C123.342 26.4449 124.557 25.0278 126.075 23.9143C127.593 22.7503 129.314 21.8899 131.339 21.2825C133.363 20.6752 135.489 20.4221 137.716 20.4221C138.829 20.4221 139.993 20.4727 141.107 20.6246C142.271 20.7764 143.334 20.9788 144.397 21.1813C145.409 21.4344 146.37 21.6874 147.281 21.9911C148.192 22.2948 148.901 22.5984 149.407 22.9021C150.116 23.307 150.622 23.7119 150.925 24.1674C151.229 24.5723 151.381 25.129 151.381 25.8376V28.2163C151.381 29.2792 150.976 29.8359 150.217 29.8359C149.812 29.8359 149.154 29.6335 148.294 29.2286C145.409 27.9127 142.17 27.2547 138.576 27.2547C135.691 27.2547 133.414 27.7102 131.845 28.6719C130.276 29.6335 129.466 31.1012 129.466 33.1763C129.466 34.5934 129.972 35.8081 130.984 36.7697C131.997 37.7314 133.869 38.693 136.552 39.5534L143.739 41.8309C147.383 42.995 150.014 44.6146 151.583 46.6897C153.152 48.7648 153.912 51.1435 153.912 53.7753C153.912 55.9516 153.456 57.9255 152.596 59.6463C151.685 61.3671 150.47 62.8855 148.901 64.1001C147.332 65.3654 145.459 66.2765 143.283 66.9344C141.006 67.643 138.627 67.9973 136.046 67.9973Z" fill="#252F3E"/>
<path fill-rule="evenodd" clip-rule="evenodd" d="M145.611 92.5943C128.96 104.893 104.768 111.422 83.9661 111.422C54.8137 111.422 28.5462 100.642 8.70638 82.725C7.13742 81.3079 8.55455 79.3846 10.4272 80.4981C31.8866 92.9486 58.3566 100.49 85.7375 100.49C104.211 100.49 124.506 96.6432 143.182 88.7478C145.966 87.4825 148.344 90.5698 145.611 92.5943Z" fill="#FF9900"/>
<path fill-rule="evenodd" clip-rule="evenodd" d="M152.545 84.6991C150.42 81.9661 138.475 83.3832 133.06 84.0412C131.44 84.2436 131.187 82.8265 132.655 81.7636C142.17 75.0829 157.809 77.0061 159.631 79.2331C161.453 81.5106 159.125 97.1496 150.217 104.64C148.851 105.804 147.535 105.197 148.142 103.679C150.167 98.668 154.671 87.3815 152.545 84.6991Z" fill="#FF9900"/>
</g>
<defs>
<clipPath id="clip0_3368_18247">
<rect width="167.7" height="130" fill="white" transform="translate(0.150391 0.922119)"/>
</clipPath>
</defs>
</svg>
