<svg width="214" height="81" viewBox="0 0 214 81" fill="none" xmlns="http://www.w3.org/2000/svg">
<g clip-path="url(#clip0_3368_18267)">
<path fill-rule="evenodd" clip-rule="evenodd" d="M17.011 25.1899C16.5982 25.1899 16.4963 24.9826 16.7018 24.6751L18.8644 21.8942C19.0683 21.585 19.5847 21.3795 19.9958 21.3795H56.753C57.1658 21.3795 57.2677 21.6886 57.0622 21.9978L55.3124 24.6751C55.1068 24.9826 54.5921 25.2918 54.2829 25.2918L17.011 25.1899ZM1.4635 34.6608C1.05239 34.6608 0.94876 34.4569 1.15432 34.146L3.3169 31.3668C3.52246 31.0576 4.0372 30.852 4.45001 30.852H51.3983C51.8095 30.852 52.0167 31.1612 51.9131 31.4704L51.0892 33.9405C50.9872 34.3533 50.5744 34.5588 50.1633 34.5588L1.4635 34.6608ZM26.3783 44.1333C25.9671 44.1333 25.8652 43.8241 26.0708 43.515L27.5114 40.9413C27.7186 40.6321 28.1297 40.3246 28.5425 40.3246H49.1321C49.5449 40.3246 49.7505 40.6321 49.7505 41.0449L49.5466 43.515C49.5466 43.9278 49.1338 44.237 48.8246 44.237L26.3783 44.1333ZM133.25 23.3365C126.763 24.9843 122.336 26.2194 115.953 27.8655C114.407 28.2783 114.305 28.3803 112.967 26.836C111.422 25.0863 110.289 23.9532 108.128 22.9237C101.641 19.7333 95.3602 20.6592 89.4925 24.4696C82.4917 28.9986 78.8885 35.6902 78.9904 44.0297C79.0923 52.2672 84.7562 59.0625 92.8901 60.1956C99.8909 61.1214 105.76 58.6497 110.393 53.4003C111.319 52.2672 112.143 51.0322 113.172 49.5899H93.3012C91.1403 49.5899 90.6256 48.2512 91.3459 46.5015C92.6845 43.3094 95.1546 37.9565 96.5952 35.2791C96.9061 34.6608 97.6264 33.6313 99.1706 33.6313H136.646C136.443 36.4122 136.443 39.1915 136.03 41.9724C134.897 49.3843 132.117 56.1796 127.587 62.1509C120.173 71.9327 110.497 78.0059 98.243 79.6538C88.1538 80.9924 78.7849 79.0354 70.549 72.8585C62.9299 67.0928 58.6064 59.4736 57.4733 50.0027C56.1346 38.7804 59.4286 28.6894 66.2239 19.8352C73.5338 10.2607 83.212 4.18579 95.0527 2.02321C104.731 0.273434 113.996 1.40654 122.336 7.06867C127.792 10.6719 131.705 15.6137 134.278 21.585C134.897 22.5126 134.485 23.0273 133.249 23.3348L133.25 23.3365Z" fill="#00ACD7"/>
<path d="M167.329 80.2719C157.96 80.0647 149.413 77.3891 142.207 71.2105C136.132 65.9612 132.323 59.2679 131.088 51.3395C129.235 39.7061 132.425 29.4096 139.428 20.2479C146.943 10.3625 156.003 5.21509 168.256 3.05251C178.757 1.2008 188.642 2.23028 197.598 8.30353C205.732 13.8637 210.776 21.3793 212.115 31.263C213.864 45.1626 209.85 56.4886 200.274 66.1667C193.479 73.0639 185.139 77.3891 175.565 79.3444C172.785 79.8591 170.004 79.9628 167.329 80.2719ZM191.832 38.6766C191.73 37.3379 191.73 36.3084 191.523 35.279C189.672 25.0861 180.301 19.3203 170.521 21.5865C160.945 23.7474 154.768 29.8224 152.503 39.5005C150.65 47.5308 154.562 55.6647 161.974 58.9587C167.638 61.4304 173.3 61.1213 178.757 58.342C186.891 54.1205 191.318 47.5308 191.832 38.6766Z" fill="#00ACD7"/>
</g>
<defs>
<clipPath id="clip0_3368_18267">
<rect width="213.333" height="80" fill="white" transform="translate(0.333008 0.922119)"/>
</clipPath>
</defs>
</svg>
