<svg width="170" height="171" viewBox="0 0 170 171" fill="none" xmlns="http://www.w3.org/2000/svg">
<path d="M1.87012 2.61743H168.13V168.879H1.87012V2.61743Z" fill="#F0DB4F"/>
<path d="M154.524 129.225C153.306 121.64 148.36 115.269 133.709 109.328C128.62 106.989 122.946 105.315 121.256 101.458C120.655 99.2131 120.576 97.9488 120.955 96.5901C122.046 92.1807 127.309 90.8061 131.481 92.0705C134.168 92.971 136.711 95.0415 138.245 98.3446C145.419 93.6988 145.405 93.7293 150.415 90.5365C148.58 87.693 147.602 86.3808 146.401 85.1642C142.086 80.3445 136.206 77.8622 126.803 78.0521L121.905 78.6856C117.211 79.8717 112.738 82.3353 110.115 85.6384C102.245 94.5687 104.489 110.198 114.066 116.63C123.501 123.712 137.362 125.323 139.132 131.945C140.855 140.052 133.174 142.676 125.54 141.744C119.914 140.574 116.785 137.714 113.402 132.515C107.176 136.118 107.176 136.118 100.775 139.799C102.293 143.118 103.888 144.62 106.432 147.496C118.476 159.712 148.614 159.112 154.019 140.621C154.238 139.987 155.694 135.753 154.524 129.225ZM92.2546 79.031H76.7036L76.6398 119.236C76.6398 127.786 77.0821 135.625 75.6916 138.028C73.4165 142.753 67.5209 142.167 64.8341 141.251C62.0995 139.907 60.709 137.996 59.098 135.294C58.6557 134.519 58.3237 133.918 58.2121 133.872L45.5684 141.615C47.6708 145.93 50.768 149.675 54.7351 152.108C60.6612 155.665 68.6259 156.755 76.9559 154.843C82.3773 153.264 87.055 149.993 89.5041 145.014C93.0448 138.486 92.2852 130.585 92.2533 121.846C92.333 107.588 92.2546 93.3335 92.2546 79.031Z" fill="#323330"/>
</svg>
