<svg width="310" height="81" viewBox="0 0 310 81" fill="none" xmlns="http://www.w3.org/2000/svg">
<g clip-path="url(#clip0_3368_18218)">
<path d="M284.744 80.3316C283.997 80.3316 283.254 80.1528 282.599 79.8045L275.767 76.1151C274.746 75.5951 275.244 75.4092 275.582 75.3033C276.943 74.8704 277.219 74.7692 278.67 74.021C278.822 73.9433 279.021 73.9716 279.178 74.0563L284.425 76.901C284.522 76.9486 284.631 76.9735 284.742 76.9735C284.852 76.9735 284.961 76.9486 285.059 76.901L305.521 66.1222C305.618 66.0703 305.697 65.9963 305.753 65.9075C305.808 65.8188 305.837 65.7184 305.836 65.6163V44.0633C305.836 43.9598 305.807 43.858 305.751 43.7678C305.696 43.6775 305.616 43.6018 305.519 43.548L285.064 32.7786C284.967 32.73 284.859 32.7045 284.748 32.7045C284.638 32.7045 284.529 32.73 284.432 32.7786L263.98 43.5504C263.883 43.6039 263.803 43.6791 263.746 43.7688C263.69 43.8585 263.66 43.9599 263.658 44.0633V65.6163C263.658 65.8233 263.784 66.0186 263.98 66.1151L269.585 69.0727C272.627 70.4586 274.491 68.8257 274.491 67.1833V45.901C274.491 45.6022 274.757 45.3645 275.084 45.3645H277.68C278.003 45.3645 278.271 45.6022 278.271 45.901V67.1833C278.271 70.8869 276.061 73.0116 272.212 73.0116C271.029 73.0116 270.098 73.0116 267.499 71.8445L262.134 69.0257C261.482 68.6785 260.94 68.1812 260.564 67.5834C260.187 66.9855 259.989 66.3081 259.989 65.6186V44.0657C259.989 42.6657 260.807 41.3598 262.134 40.6633L282.597 29.8704C283.256 29.5428 283.995 29.3711 284.746 29.3711C285.496 29.3711 286.235 29.5428 286.894 29.8704L307.357 40.6633C308.682 41.3622 309.505 42.668 309.505 44.0657V65.6186C309.503 66.3082 309.304 66.9854 308.928 67.583C308.551 68.1807 308.009 68.6781 307.357 69.0257L286.894 79.8069C286.241 80.1527 285.499 80.3338 284.744 80.3316ZM291.068 65.4822C282.109 65.4822 280.235 61.7292 280.235 58.5833C280.236 58.4402 280.299 58.3032 280.41 58.2022C280.521 58.1012 280.671 58.0445 280.828 58.0445H283.473C283.615 58.0441 283.752 58.0898 283.86 58.1735C283.968 58.2572 284.039 58.3734 284.061 58.501C284.458 60.9598 285.652 62.1998 291.068 62.1998C295.376 62.1998 297.212 61.3104 297.212 59.221C297.212 58.0163 296.691 57.1245 289.993 56.5245C284.394 56.0186 280.931 54.8916 280.931 50.7998C280.931 47.0328 284.412 44.7833 290.243 44.7833C296.8 44.7833 300.043 46.861 300.453 51.3175C300.459 51.3925 300.449 51.4679 300.422 51.5391C300.396 51.6103 300.353 51.6758 300.298 51.7316C300.242 51.7851 300.175 51.8279 300.101 51.8574C300.026 51.8869 299.946 51.9025 299.865 51.9033H297.207C297.073 51.9035 296.943 51.8618 296.838 51.7852C296.734 51.7086 296.661 51.6017 296.632 51.4822C295.993 48.8939 294.446 48.0681 290.241 48.0681C285.536 48.0681 284.989 49.5669 284.989 50.6845C284.989 52.0422 285.634 52.4375 291.989 53.2045C298.277 53.9645 301.265 55.0375 301.265 59.0727C301.267 63.1504 297.55 65.4822 291.068 65.4822Z" fill="#83CD29"/>
<path d="M242.611 51.3456C243.418 50.915 243.915 50.1291 243.915 49.275V43.7362C243.915 42.8844 243.42 42.0985 242.611 41.6679L221.047 30.242C220.649 30.0304 220.196 29.9186 219.734 29.9177C219.273 29.9169 218.82 30.0271 218.42 30.2373L196.723 41.6703C196.325 41.8805 195.994 42.1824 195.765 42.5458C195.535 42.9092 195.414 43.3213 195.413 43.7409V66.602C195.413 67.4609 195.918 68.2561 196.738 68.682L218.299 79.8938C219.093 80.3103 220.068 80.3126 220.869 79.9079L233.909 73.2915C234.112 73.1886 234.282 73.0384 234.4 72.8562C234.519 72.674 234.582 72.4663 234.584 72.2544C234.585 72.0425 234.525 71.8341 234.409 71.6504C234.294 71.4667 234.126 71.3144 233.925 71.2091L212.093 59.7738C211.893 59.6697 211.727 59.5191 211.611 59.3372C211.495 59.1554 211.434 58.9489 211.433 58.7385V51.5714C211.433 51.1432 211.684 50.7503 212.088 50.5385L218.887 46.962C219.085 46.8569 219.311 46.8015 219.54 46.8015C219.77 46.8015 219.995 46.8569 220.194 46.962L226.992 50.5385C227.192 50.6427 227.358 50.7931 227.473 50.9745C227.588 51.1558 227.649 51.3617 227.65 51.5714V57.2091C227.648 57.4199 227.708 57.6273 227.823 57.8101C227.938 57.9929 228.104 58.1446 228.305 58.2498C228.505 58.3551 228.732 58.41 228.963 58.409C229.194 58.408 229.42 58.3512 229.62 58.2444L242.611 51.3456Z" fill="#404137"/>
<path d="M219.411 50.2728C219.488 50.2337 219.574 50.2131 219.662 50.2131C219.75 50.2131 219.837 50.2337 219.914 50.2728L224.077 52.4681C224.232 52.5505 224.327 52.7034 224.327 52.8658V57.254C224.327 57.4187 224.232 57.5693 224.077 57.6517L219.914 59.8446C219.837 59.8851 219.75 59.9065 219.662 59.9065C219.574 59.9065 219.487 59.8851 219.411 59.8446L215.25 57.6517C215.173 57.6117 215.109 57.5538 215.065 57.484C215.02 57.4141 214.997 57.3348 214.997 57.254V52.8658C214.997 52.7034 215.092 52.5505 215.25 52.4681L219.411 50.2728Z" fill="#83CD29"/>
<path d="M162.948 59.4021C162.948 59.6139 162.824 59.8115 162.621 59.9198L155.17 63.8398C155.071 63.8929 154.958 63.9209 154.843 63.9209C154.728 63.9209 154.615 63.8929 154.515 63.8398L147.064 59.9198C146.965 59.8671 146.883 59.7916 146.825 59.7008C146.768 59.61 146.737 59.507 146.737 59.4021V51.548C146.737 51.3362 146.863 51.1362 147.064 51.028L154.515 47.1033C154.615 47.049 154.728 47.0203 154.844 47.0203C154.96 47.0203 155.073 47.049 155.173 47.1033L162.626 51.028C162.725 51.0817 162.807 51.1578 162.863 51.2489C162.92 51.3401 162.951 51.4431 162.951 51.548V59.4021H162.948ZM164.962 1.24684C164.762 1.14721 164.537 1.09654 164.31 1.09975C164.082 1.10297 163.859 1.15996 163.663 1.26519C163.467 1.37041 163.303 1.52027 163.19 1.70014C163.076 1.88002 163.015 2.08378 163.013 2.29155V32.6798C163.012 32.8263 162.97 32.9702 162.89 33.0973C162.81 33.2243 162.695 33.3302 162.556 33.4045C162.417 33.4773 162.258 33.5156 162.097 33.5156C161.936 33.5156 161.778 33.4773 161.639 33.4045L156.204 30.5457C155.806 30.3365 155.355 30.2264 154.895 30.2264C154.436 30.2264 153.985 30.3365 153.587 30.5457L131.885 41.9762C131.486 42.1864 131.155 42.4885 130.924 42.8524C130.694 43.2162 130.573 43.629 130.572 44.0492V66.9174C130.572 67.7715 131.072 68.5598 131.882 68.9904L153.585 80.428C154.394 80.8562 155.394 80.8562 156.206 80.428L177.914 68.9904C178.312 68.7796 178.642 68.4772 178.872 68.1135C179.102 67.7497 179.223 67.3373 179.224 66.9174V9.91272C179.224 9.04684 178.708 8.24683 177.881 7.82331L164.962 1.24684Z" fill="#404137"/>
<path d="M88.5836 30.115C88.9816 29.9047 89.4334 29.7939 89.8933 29.7939C90.3532 29.7939 90.805 29.9047 91.203 30.115L112.906 41.5432C113.715 41.9714 114.215 42.762 114.215 43.6161V66.4914C114.215 67.3455 113.715 68.1361 112.906 68.5644L91.2056 80.002C90.8067 80.2113 90.3547 80.3215 89.8946 80.3215C89.4345 80.3215 88.9825 80.2113 88.5836 80.002L66.8888 68.5644C66.4909 68.3536 66.1605 68.0512 65.9307 67.6875C65.7009 67.3237 65.5796 66.9113 65.5791 66.4914V43.6138C65.5791 42.762 66.0793 41.9714 66.8888 41.5432L88.5836 30.115Z" fill="#83CD29"/>
<path d="M49.1163 43.4255C49.1163 42.5644 48.6213 41.7738 47.8067 41.3479L26.1118 29.9526C25.7475 29.7598 25.3365 29.6523 24.9156 29.6396H24.6913C24.2704 29.6526 23.8595 29.7601 23.495 29.9526L1.79761 41.3479C1.39846 41.5588 1.0671 41.8617 0.836769 42.2264C0.60644 42.5911 0.485247 43.0046 0.485352 43.4255L0.531758 74.1079C0.531758 74.5361 0.77668 74.9338 1.1866 75.1408C1.38288 75.2494 1.60803 75.3069 1.83757 75.3069C2.06712 75.3069 2.29227 75.2494 2.48855 75.1408L15.3791 68.402C16.1938 67.9596 16.6914 67.1808 16.6914 66.3267V51.9926C16.6914 51.1361 17.1864 50.3479 17.9985 49.9196L23.4899 47.0349C23.8868 46.8221 24.3392 46.7107 24.7996 46.7126C25.2482 46.7126 25.7071 46.8161 26.1067 47.0349L31.5929 49.9196C32.405 50.3479 32.9052 51.1361 32.9052 51.9926V66.3267C32.9052 67.1808 33.4079 67.9644 34.2174 68.402L47.108 75.1408C47.3068 75.2445 47.5319 75.2988 47.7608 75.2983C47.9897 75.2978 48.2145 75.2425 48.4128 75.138C48.611 75.0335 48.7758 74.8834 48.8906 74.7026C49.0055 74.5219 49.0664 74.3168 49.0674 74.1079L49.1163 43.4255Z" fill="#404137"/>
</g>
<defs>
<clipPath id="clip0_3368_18218">
<rect width="309.374" height="80" fill="white" transform="translate(0.313477 0.922119)"/>
</clipPath>
</defs>
</svg>
