<svg width="89" height="80" viewBox="0 0 89 80" fill="none" xmlns="http://www.w3.org/2000/svg">
<path d="M88.6116 40.009C88.6116 34.1953 81.331 28.6857 70.1687 25.2691C72.7446 13.8921 71.5998 4.84063 66.5553 1.94273C65.3926 1.26297 64.033 0.940984 62.5483 0.940984V4.93007C63.3712 4.93007 64.033 5.09107 64.5876 5.39517C67.0204 6.79046 68.0758 12.1033 67.2529 18.9366C67.0562 20.6181 66.7342 22.3891 66.3406 24.1958C62.8345 23.3371 59.0064 22.6753 54.9816 22.2459C52.5666 18.9366 50.0623 15.9314 47.54 13.3018C53.3716 7.88164 58.8454 4.91219 62.5662 4.91219V0.923096C57.6469 0.923096 51.2071 4.4292 44.6958 10.5112C38.1844 4.46498 31.7447 0.994649 26.8254 0.994649V4.98374C30.5283 4.98374 36.02 7.93531 41.8515 13.3197C39.3472 15.9493 36.8428 18.9366 34.4637 22.2459C30.4209 22.6753 26.5928 23.3371 23.0867 24.2137C22.6753 22.4248 22.3712 20.6897 22.1565 19.0261C21.3158 12.1927 22.3533 6.8799 24.7682 5.46672C25.3049 5.14473 26.0025 5.00163 26.8254 5.00163V1.01254C25.3228 1.01254 23.9632 1.33453 22.7826 2.01428C17.756 4.91219 16.629 13.9458 19.2228 25.287C8.09632 28.7215 0.851562 34.2132 0.851562 40.009C0.851562 45.8227 8.1321 51.3323 19.2944 54.749C16.7185 66.1259 17.8633 75.1774 22.9078 78.0753C24.0706 78.7551 25.4301 79.0771 26.9327 79.0771C31.852 79.0771 38.2918 75.571 44.8031 69.4889C51.3145 75.5352 57.7542 79.0055 62.6735 79.0055C64.1761 79.0055 65.5357 78.6835 66.7163 78.0038C71.7429 75.1059 72.8699 66.0723 70.2761 54.7311C81.3668 51.3144 88.6116 45.8048 88.6116 40.009V40.009ZM65.321 28.0775C64.6591 30.3851 63.8363 32.7643 62.9061 35.1434C62.1727 33.7123 61.4035 32.2813 60.5627 30.8502C59.7398 29.4192 58.8633 28.0239 57.9868 26.6644C60.5269 27.04 62.9776 27.5051 65.321 28.0775ZM57.1282 47.1286C55.7329 49.5435 54.3018 51.8332 52.8171 53.9619C50.1517 54.1944 47.4506 54.3197 44.7316 54.3197C42.0304 54.3197 39.3293 54.1944 36.6818 53.9798C35.1971 51.8511 33.7481 49.5793 32.3529 47.1822C30.9933 44.8389 29.7591 42.4597 28.6321 40.0627C29.7412 37.6657 30.9934 35.2686 32.335 32.9253C33.7303 30.5103 35.1613 28.2206 36.6461 26.0919C39.3114 25.8594 42.0125 25.7342 44.7316 25.7342C47.4327 25.7342 50.1338 25.8594 52.7813 26.074C54.266 28.2027 55.715 30.4746 57.1103 32.8716C58.4698 35.215 59.7041 37.5941 60.831 39.9911C59.7041 42.3882 58.4698 44.7852 57.1282 47.1286ZM62.9061 44.8031C63.872 47.2001 64.6949 49.5972 65.3747 51.9226C63.0313 52.4951 60.5627 52.978 58.0047 53.3537C58.8812 51.9763 59.7577 50.5631 60.5806 49.1142C61.4035 47.6831 62.1727 46.2342 62.9061 44.8031ZM44.7673 63.8899C43.1037 62.1726 41.4401 60.2586 39.7944 58.1656C41.4043 58.2372 43.0501 58.2909 44.7137 58.2909C46.3952 58.2909 48.0588 58.2551 49.6866 58.1656C48.0767 60.2586 46.4131 62.1726 44.7673 63.8899ZM31.4584 53.3537C28.9183 52.978 26.4676 52.5129 24.1242 51.9405C24.7861 49.6329 25.609 47.2538 26.5392 44.8746C27.2726 46.3057 28.0418 47.7368 28.8825 49.1678C29.7233 50.5989 30.5819 51.9942 31.4584 53.3537ZM44.6779 16.1281C46.3415 17.8454 48.0051 19.7595 49.6508 21.8524C48.0409 21.7809 46.3952 21.7272 44.7316 21.7272C43.0501 21.7272 41.3865 21.763 39.7586 21.8524C41.3686 19.7595 43.0322 17.8454 44.6779 16.1281ZM31.4406 26.6644C30.564 28.0418 29.6875 29.4549 28.8646 30.9039C28.0418 32.3349 27.2726 33.766 26.5392 35.1971C25.5732 32.8 24.7503 30.403 24.0706 28.0775C26.4139 27.523 28.8825 27.04 31.4406 26.6644V26.6644ZM15.2516 49.0605C8.91919 46.3594 4.82276 42.8175 4.82276 40.009C4.82276 37.2006 8.91919 33.6408 15.2516 30.9575C16.79 30.2957 18.4715 29.7054 20.2067 29.1508C21.2263 32.6569 22.568 36.3061 24.2316 40.0448C22.5858 43.7656 21.2621 47.3969 20.2604 50.8851C18.4894 50.3306 16.8079 49.7224 15.2516 49.0605ZM24.8756 74.6229C22.4427 73.2276 21.3873 67.9148 22.2102 61.0814C22.407 59.3999 22.729 57.629 23.1225 55.8223C26.6286 56.6809 30.4567 57.3428 34.4816 57.7721C36.8965 61.0814 39.4009 64.0867 41.9231 66.7163C36.0915 72.1364 30.6177 75.1059 26.8969 75.1059C26.092 75.088 25.4122 74.927 24.8756 74.6229V74.6229ZM67.3066 60.992C68.1474 67.8253 67.1098 73.1382 64.6949 74.5513C64.1583 74.8733 63.4606 75.0164 62.6377 75.0164C58.9349 75.0164 53.4432 72.0649 47.6116 66.6805C50.1159 64.0509 52.6203 61.0636 54.9995 57.7542C59.0422 57.3249 62.8703 56.663 66.3764 55.7865C66.7878 57.5932 67.1098 59.3284 67.3066 60.992V60.992ZM74.1936 49.0605C72.6552 49.7224 70.9737 50.3127 69.2385 50.8672C68.2189 47.3611 66.8773 43.7119 65.2137 39.9732C66.8594 36.2525 68.1831 32.6212 69.1849 29.1329C70.9558 29.6875 72.6373 30.2957 74.2115 30.9575C80.5439 33.6587 84.6404 37.2006 84.6404 40.009C84.6225 42.8175 80.5261 46.3773 74.1936 49.0605V49.0605Z" fill="#61DAFB"/>
<path d="M44.714 48.1841C49.229 48.1841 52.889 44.5241 52.889 40.0092C52.889 35.4943 49.229 31.8342 44.714 31.8342C40.1991 31.8342 36.5391 35.4943 36.5391 40.0092C36.5391 44.5241 40.1991 48.1841 44.714 48.1841Z" fill="#61DAFB"/>
</svg>
