<svg width="66" height="73" viewBox="0 0 66 73" fill="none" xmlns="http://www.w3.org/2000/svg">
<path opacity="0.2" d="M64.1836 42.7876C64.1836 58.9687 51.0862 72.086 34.9299 72.086C18.7736 72.086 5.6762 58.9687 5.6762 42.7876C5.6762 26.6065 18.7736 13.4892 34.9299 13.4892C51.0862 13.4892 64.1836 26.6065 64.1836 42.7876Z" stroke="#363636" stroke-width="0.0682141"/>
<circle cx="30.1042" cy="40.1355" r="29.2878" fill="white"/>
<circle cx="30.1042" cy="40.1355" r="29.2878" fill="#EAEAEA" fill-opacity="0.3"/>
<g opacity="0.3" filter="url(#filter0_f_1964_29282)">
<circle cx="7.47128" cy="13.8873" r="2.94198" fill="#8224E3"/>
</g>
<g filter="url(#filter1_d_1964_29282)">
<path d="M36.3166 43.1562V37.6165L49.2605 25.6314C50.3613 24.5661 51.2846 23.6072 52.0304 22.755C52.7879 21.9027 53.362 21.0682 53.7527 20.2514C54.1433 19.4228 54.3386 18.5291 54.3386 17.5703C54.3386 16.505 54.0959 15.5876 53.6106 14.8182C53.1253 14.0369 52.4624 13.4392 51.622 13.0249C50.7815 12.5987 49.8287 12.3857 48.7633 12.3857C47.6506 12.3857 46.68 12.6106 45.8514 13.0604C45.0228 13.5102 44.3836 14.1553 43.9338 14.9957C43.484 15.8362 43.2591 16.8364 43.2591 17.9964H35.9615C35.9615 15.6172 36.5001 13.5516 37.5772 11.7997C38.6544 10.0478 40.1636 8.69247 42.1049 7.73366C44.0462 6.77486 46.2834 6.29545 48.8166 6.29545C51.4208 6.29545 53.6876 6.7571 55.617 7.6804C57.5583 8.59186 59.0675 9.85843 60.1447 11.4801C61.2219 13.1018 61.7605 14.9602 61.7605 17.0554C61.7605 18.4285 61.4882 19.7839 60.9437 21.1214C60.411 22.459 59.4582 23.9446 58.085 25.5781C56.7119 27.1998 54.7766 29.147 52.2789 31.4197L46.97 36.6222V36.8707H62.2399V43.1562H36.3166Z" fill="#377DFF"/>
</g>
<defs>
<filter id="filter0_f_1964_29282" x="2.28521" y="8.70123" width="10.372" height="10.372" filterUnits="userSpaceOnUse" color-interpolation-filters="sRGB">
<feFlood flood-opacity="0" result="BackgroundImageFix"/>
<feBlend mode="normal" in="SourceGraphic" in2="BackgroundImageFix" result="shape"/>
<feGaussianBlur stdDeviation="1.12204" result="effect1_foregroundBlur_1964_29282"/>
</filter>
<filter id="filter1_d_1964_29282" x="35.9614" y="6.2959" width="28.2783" height="38.8604" filterUnits="userSpaceOnUse" color-interpolation-filters="sRGB">
<feFlood flood-opacity="0" result="BackgroundImageFix"/>
<feColorMatrix in="SourceAlpha" type="matrix" values="0 0 0 0 0 0 0 0 0 0 0 0 0 0 0 0 0 0 127 0" result="hardAlpha"/>
<feOffset dx="1" dy="1"/>
<feGaussianBlur stdDeviation="0.5"/>
<feColorMatrix type="matrix" values="0 0 0 0 0 0 0 0 0 0 0 0 0 0 0 0 0 0 0.5 0"/>
<feBlend mode="normal" in2="BackgroundImageFix" result="effect1_dropShadow_1964_29282"/>
<feBlend mode="normal" in="SourceGraphic" in2="effect1_dropShadow_1964_29282" result="shape"/>
</filter>
</defs>
</svg>
