<svg width="51" height="51" viewBox="0 0 51 51" fill="none" xmlns="http://www.w3.org/2000/svg">
<path opacity="0.2" d="M47.9651 25.8484C47.9651 36.4873 39.3537 45.1118 28.7311 45.1118C18.1084 45.1118 9.49703 36.4873 9.49703 25.8484C9.49703 15.2094 18.1084 6.58493 28.7311 6.58493C39.3537 6.58493 47.9651 15.2094 47.9651 25.8484Z" stroke="#363636" stroke-width="0.0448502"/>
<g filter="url(#filter0_d_1964_29329)">
<circle cx="25.5592" cy="24.1041" r="19.2565" fill="white"/>
</g>
<g opacity="0.3" filter="url(#filter1_f_1964_29329)">
<circle cx="8.62964" cy="6.89722" r="1.93433" fill="#8224E3"/>
</g>
<path d="M26.3327 31.3551C25.2721 31.3551 24.3275 31.1728 23.4989 30.8082C22.6751 30.4389 22.024 29.9323 21.5458 29.2884C21.0723 28.6397 20.8285 27.8916 20.8143 27.044H23.9109C23.9298 27.3991 24.0458 27.7116 24.2589 27.9815C24.4767 28.2467 24.7655 28.4527 25.1254 28.5994C25.4852 28.7462 25.89 28.8196 26.3398 28.8196C26.8086 28.8196 27.2229 28.7367 27.5827 28.571C27.9426 28.4053 28.2243 28.1757 28.4279 27.8821C28.6315 27.5885 28.7333 27.25 28.7333 26.8665C28.7333 26.4782 28.6244 26.1349 28.4066 25.8366C28.1935 25.5336 27.8858 25.2969 27.4833 25.1264C27.0856 24.956 26.6121 24.8707 26.0629 24.8707H24.7063V22.6122H26.0629C26.5269 22.6122 26.9364 22.5317 27.2915 22.3707C27.6514 22.2098 27.9308 21.9872 28.1296 21.7031C28.3285 21.4143 28.4279 21.0781 28.4279 20.6946C28.4279 20.33 28.3403 20.0104 28.1651 19.7358C27.9947 19.4564 27.7532 19.2386 27.4407 19.0824C27.1329 18.9261 26.7731 18.848 26.3612 18.848C25.9445 18.848 25.5633 18.9238 25.2177 19.0753C24.872 19.2221 24.5951 19.4328 24.3867 19.7074C24.1784 19.982 24.0671 20.304 24.0529 20.6733H21.1055C21.1197 19.8352 21.3588 19.0966 21.8228 18.4574C22.2868 17.8182 22.9118 17.3187 23.6978 16.9588C24.4885 16.5942 25.381 16.4119 26.3754 16.4119C27.3791 16.4119 28.2575 16.5942 29.0103 16.9588C29.7631 17.3234 30.3479 17.8158 30.7646 18.4361C31.186 19.0516 31.3943 19.7429 31.3896 20.5099C31.3943 21.3243 31.141 22.0038 30.6296 22.5483C30.123 23.0928 29.4625 23.4384 28.6481 23.5852V23.6989C29.7182 23.8362 30.5326 24.2079 31.0913 24.8139C31.6547 25.4152 31.9341 26.1681 31.9293 27.0724C31.9341 27.901 31.695 28.6373 31.212 29.2812C30.7338 29.9252 30.0733 30.4318 29.2305 30.8011C28.3877 31.1705 27.4218 31.3551 26.3327 31.3551Z" fill="#CDCDCD"/>
<defs>
<filter id="filter0_d_1964_29329" x="0.301316" y="0.346593" width="50.516" height="50.5155" filterUnits="userSpaceOnUse" color-interpolation-filters="sRGB">
<feFlood flood-opacity="0" result="BackgroundImageFix"/>
<feColorMatrix in="SourceAlpha" type="matrix" values="0 0 0 0 0 0 0 0 0 0 0 0 0 0 0 0 0 0 127 0" result="hardAlpha"/>
<feOffset dy="1.50035"/>
<feGaussianBlur stdDeviation="3.00071"/>
<feColorMatrix type="matrix" values="0 0 0 0 0 0 0 0 0 0 0 0 0 0 0 0 0 0 0.2 0"/>
<feBlend mode="normal" in2="BackgroundImageFix" result="effect1_dropShadow_1964_29329"/>
<feBlend mode="normal" in="SourceGraphic" in2="effect1_dropShadow_1964_29329" result="shape"/>
</filter>
<filter id="filter1_f_1964_29329" x="5.21985" y="3.48743" width="6.81958" height="6.82007" filterUnits="userSpaceOnUse" color-interpolation-filters="sRGB">
<feFlood flood-opacity="0" result="BackgroundImageFix"/>
<feBlend mode="normal" in="SourceGraphic" in2="BackgroundImageFix" result="shape"/>
<feGaussianBlur stdDeviation="0.737733" result="effect1_foregroundBlur_1964_29329"/>
</filter>
</defs>
</svg>
