<svg width="111" height="96" viewBox="0 0 111 96" fill="none" xmlns="http://www.w3.org/2000/svg">
<path opacity="0.2" d="M84.0385 61.47C84.0385 80.1766 69.3736 95.3384 51.287 95.3384C33.2004 95.3384 18.5354 80.1766 18.5354 61.47C18.5354 42.7634 33.2004 27.6016 51.287 27.6016C69.3736 27.6016 84.0385 42.7634 84.0385 61.47Z" stroke="#363636" stroke-width="0.100158"/>
<ellipse cx="45.8842" cy="58.4034" rx="32.8016" ry="33.8668" fill="white"/>
<ellipse cx="45.8842" cy="58.4034" rx="32.8016" ry="33.8668" fill="#EAEAEA" fill-opacity="0.3"/>
<g opacity="0.3" filter="url(#filter0_f_1964_29246)">
<ellipse cx="7.29495" cy="37.6212" rx="3.29495" ry="3.40194" fill="#8224E3"/>
</g>
<g filter="url(#filter1_d_1964_29246)">
<path d="M86.5827 66.7457C82.6055 66.7457 79.0632 66.0621 75.956 64.695C72.8665 63.31 70.4251 61.4102 68.6317 58.9954C66.8562 56.5629 65.9418 53.7575 65.8885 50.5792H77.5007C77.5717 51.9109 78.0067 53.0827 78.8058 54.0948C79.6225 55.0891 80.7056 55.8615 82.055 56.4119C83.4045 56.9624 84.9226 57.2376 86.6094 57.2376C88.3672 57.2376 89.9208 56.9268 91.2702 56.3054C92.6197 55.6839 93.6761 54.8228 94.4396 53.7219C95.2031 52.6211 95.5849 51.3516 95.5849 49.9134C95.5849 48.4574 95.1765 47.1701 94.3597 46.0515C93.5607 44.9151 92.4066 44.0273 90.8974 43.3881C89.4059 42.7489 87.6303 42.4293 85.5707 42.4293H80.4837V33.9599H85.5707C87.3107 33.9599 88.8466 33.658 90.1783 33.0543C91.5277 32.4506 92.5753 31.6161 93.321 30.5508C94.0668 29.4677 94.4396 28.207 94.4396 26.7688C94.4396 25.4016 94.1112 24.2031 93.4542 23.1733C92.815 22.1257 91.9094 21.3089 90.7376 20.723C89.5835 20.1371 88.234 19.8441 86.6893 19.8441C85.1268 19.8441 83.6974 20.1282 82.4013 20.6964C81.1051 21.2468 80.0664 22.0369 79.2852 23.0668C78.5039 24.0966 78.0866 25.304 78.0334 26.6889H66.9805C67.0337 23.5462 67.9304 20.7763 69.6705 18.3793C71.4105 15.9822 73.7543 14.109 76.7017 12.7596C79.6669 11.3924 83.0139 10.7088 86.7425 10.7088C90.5067 10.7088 93.8004 11.3924 96.6236 12.7596C99.4467 14.1268 101.64 15.9734 103.202 18.2994C104.782 20.6076 105.564 23.1999 105.546 26.0763C105.564 29.1303 104.614 31.6783 102.696 33.7202C100.796 35.7621 98.3192 37.0582 95.2653 37.6087V38.0348C99.2781 38.5497 102.332 39.9435 104.427 42.2163C106.54 44.4712 107.588 47.2944 107.57 50.6857C107.588 53.793 106.691 56.554 104.88 58.9688C103.087 61.3835 100.61 63.2834 97.4492 64.6683C94.2887 66.0533 90.6665 66.7457 86.5827 66.7457Z" fill="#377DFF"/>
</g>
<defs>
<filter id="filter0_f_1964_29246" x="0.705049" y="30.9243" width="13.1797" height="13.3939" filterUnits="userSpaceOnUse" color-interpolation-filters="sRGB">
<feFlood flood-opacity="0" result="BackgroundImageFix"/>
<feBlend mode="normal" in="SourceGraphic" in2="BackgroundImageFix" result="shape"/>
<feGaussianBlur stdDeviation="1.64748" result="effect1_foregroundBlur_1964_29246"/>
</filter>
<filter id="filter1_d_1964_29246" x="64.8887" y="9.70874" width="45.708" height="60.0371" filterUnits="userSpaceOnUse" color-interpolation-filters="sRGB">
<feFlood flood-opacity="0" result="BackgroundImageFix"/>
<feColorMatrix in="SourceAlpha" type="matrix" values="0 0 0 0 0 0 0 0 0 0 0 0 0 0 0 0 0 0 127 0" result="hardAlpha"/>
<feOffset dx="1" dy="1"/>
<feGaussianBlur stdDeviation="1"/>
<feComposite in2="hardAlpha" operator="out"/>
<feColorMatrix type="matrix" values="0 0 0 0 0 0 0 0 0 0 0 0 0 0 0 0 0 0 0.5 0"/>
<feBlend mode="normal" in2="BackgroundImageFix" result="effect1_dropShadow_1964_29246"/>
<feBlend mode="normal" in="SourceGraphic" in2="effect1_dropShadow_1964_29246" result="shape"/>
</filter>
</defs>
</svg>
