<svg width="68" height="73" viewBox="0 0 68 73" fill="none" xmlns="http://www.w3.org/2000/svg">
<path opacity="0.2" d="M64.1836 42.7876C64.1836 58.9687 51.0862 72.086 34.9299 72.086C18.7736 72.086 5.6762 58.9687 5.6762 42.7876C5.6762 26.6065 18.7736 13.4892 34.9299 13.4892C51.0862 13.4892 64.1836 26.6065 64.1836 42.7876Z" stroke="#363636" stroke-width="0.0682141"/>
<circle cx="30.1042" cy="40.1355" r="29.2878" fill="white"/>
<circle cx="30.1042" cy="40.1355" r="29.2878" fill="#EAEAEA" fill-opacity="0.3"/>
<g opacity="0.3" filter="url(#filter0_f_1964_29294)">
<circle cx="7.47128" cy="13.8873" r="2.94198" fill="#8224E3"/>
</g>
<g filter="url(#filter1_d_1964_29294)">
<path d="M35.7662 36.7642V30.7095L50.9473 6.79261H56.1674V15.1733H53.0779L43.5076 30.3189V30.603H65.0808V36.7642H35.7662ZM53.22 43.1562V34.9176L53.362 32.2365V6.79261H60.5708V43.1562H53.22Z" fill="#377DFF"/>
</g>
<defs>
<filter id="filter0_f_1964_29294" x="2.28521" y="8.70123" width="10.372" height="10.372" filterUnits="userSpaceOnUse" color-interpolation-filters="sRGB">
<feFlood flood-opacity="0" result="BackgroundImageFix"/>
<feBlend mode="normal" in="SourceGraphic" in2="BackgroundImageFix" result="shape"/>
<feGaussianBlur stdDeviation="1.12204" result="effect1_foregroundBlur_1964_29294"/>
</filter>
<filter id="filter1_d_1964_29294" x="35.7661" y="6.79297" width="31.3145" height="38.3633" filterUnits="userSpaceOnUse" color-interpolation-filters="sRGB">
<feFlood flood-opacity="0" result="BackgroundImageFix"/>
<feColorMatrix in="SourceAlpha" type="matrix" values="0 0 0 0 0 0 0 0 0 0 0 0 0 0 0 0 0 0 127 0" result="hardAlpha"/>
<feOffset dx="1" dy="1"/>
<feGaussianBlur stdDeviation="0.5"/>
<feColorMatrix type="matrix" values="0 0 0 0 0 0 0 0 0 0 0 0 0 0 0 0 0 0 0.5 0"/>
<feBlend mode="normal" in2="BackgroundImageFix" result="effect1_dropShadow_1964_29294"/>
<feBlend mode="normal" in="SourceGraphic" in2="effect1_dropShadow_1964_29294" result="shape"/>
</filter>
</defs>
</svg>
