<svg width="140" height="140" viewBox="0 0 140 140" fill="none" xmlns="http://www.w3.org/2000/svg">
<circle opacity="0.05" cx="70" cy="70" r="70" fill="#377DFF"/>
<path d="M44.5 44.5C41.204 44.5 38.5 47.204 38.5 50.5V83.5C38.5 84.596 38.8205 85.6125 39.3408 86.5H35.5C35.1022 86.5 34.7207 86.6581 34.4394 86.9394C34.1581 87.2207 34 87.6022 34 88C34 92.1243 37.3757 95.5 41.5 95.5H98.5C102.624 95.5 106 92.1243 106 88C106 87.6022 105.842 87.2207 105.561 86.9394C105.279 86.6581 104.898 86.5 104.5 86.5H100.659C101.18 85.6125 101.5 84.596 101.5 83.5V50.5C101.5 47.204 98.796 44.5 95.5 44.5H44.5ZM44.5 47.5H95.5C97.175 47.5 98.5 48.825 98.5 50.5V83.5C98.5 85.175 97.175 86.5 95.5 86.5H44.5C42.825 86.5 41.5 85.175 41.5 83.5V50.5C41.5 48.825 42.825 47.5 44.5 47.5ZM65.5 52V53.5V82H74.5V52H65.5ZM68.5 55H71.5V79H68.5V55ZM77.5 58V59.5V82H86.5V58H77.5ZM80.5 61H83.5V79H80.5V61ZM37.6182 89.5H44.5H95.5H102.382C101.726 91.1687 100.414 92.5 98.5 92.5H41.5C39.5862 92.5 38.2738 91.1687 37.6182 89.5Z" fill="#363636"/>
<path fill-rule="evenodd" clip-rule="evenodd" d="M53.5 65.5V67V82H62.5V65.5H53.5ZM59.5 68.5H56.5V79H59.5V68.5Z" fill="url(#paint0_linear_3262_17689)"/>
<defs>
<linearGradient id="paint0_linear_3262_17689" x1="53.4732" y1="75.5342" x2="62.9426" y2="73.264" gradientUnits="userSpaceOnUse">
<stop stop-color="#6B67E9"/>
<stop offset="1" stop-color="#8224E3"/>
</linearGradient>
</defs>
</svg>
