<svg width="100" height="100" viewBox="0 0 100 100" fill="none" xmlns="http://www.w3.org/2000/svg">
<path d="M14 4V96H86V29.1875L85.4375 28.5625L61.4375 4.5625L60.8125 4H14ZM18 8H58V32H82V92H18V8ZM62 10.875L79.125 28H62V10.875ZM28 20V24H54V20H28ZM28 28V32H54V28H28ZM28 36V40H74V36H28ZM28 44V48H74V44H28ZM28 52V56H74V52H28Z" fill="#262626"/>
<path d="M34.9374 64.4375C36.1874 62.5781 38.039 61.125 40.3124 61.125C42.1483 61.125 43.8124 61.8906 44.7499 63.125C45.6874 64.3594 45.9374 65.8359 45.9374 67.1875C45.9374 71.3516 44.1171 74.7969 42.0624 77.5625C45.1093 77.2734 47.0311 75.8516 48.3749 74.125C49.1171 73.1719 49.6796 72.1641 50.1874 71.3125C50.4374 70.8828 50.6796 70.5234 50.9999 70.125C51.3202 69.7266 51.7655 68.9375 53.0624 68.9375C54.0077 68.9375 54.6171 69.4531 54.9374 69.8125C55.2577 70.1719 55.3983 70.5469 55.5624 70.875C55.8827 71.5234 56.1561 72.1719 56.3749 72.8125C56.4452 73.0156 56.4999 73.125 56.5624 73.3125C57.078 72.9297 57.6561 72.4375 58.3749 71.875C60.0546 70.5625 62.1874 68.9375 64.9999 68.9375C65.7186 68.9297 66.3905 69.3047 66.7577 69.9297C67.1171 70.5547 67.1171 71.3203 66.7577 71.9453C66.3905 72.5703 65.7186 72.9453 64.9999 72.9375C63.8827 72.9375 62.3436 73.8672 60.8124 75.0625C60.0468 75.6562 59.3436 76.2656 58.5624 76.8125C57.7811 77.3594 56.9608 78 55.6249 78C54.3671 78 53.9218 77.2188 53.6874 76.875C53.453 76.5312 53.3124 76.2344 53.1874 75.9375C53.0155 75.5234 52.8905 75.1172 52.7499 74.6875C52.3671 75.3125 52.0624 75.8359 51.4999 76.5625C49.578 79.0312 46.2343 81.75 41.1874 81.75C40.3358 81.75 39.6718 81.2891 38.9374 81C37.7421 82.0547 36.0624 83.6875 36.0624 83.6875C35.4843 84.1719 34.6874 84.2891 33.9999 83.9922C33.3046 83.6953 32.8358 83.0391 32.789 82.2891C32.7343 81.5391 33.1093 80.8281 33.7499 80.4375C33.7499 80.4375 34.9765 79.2031 35.6249 78.625C35.4218 78.3672 35.1093 78.2031 34.9374 77.9375C33.6249 75.9062 32.9374 73.5156 32.9374 71.3125C32.9374 68.6875 33.6874 66.2969 34.9374 64.4375Z" fill="url(#paint0_linear_1823_27043)"/>
<path d="M41.5625 65.5625C41.3516 65.2891 41.1875 65.125 40.3125 65.125C39.875 65.125 39.0078 65.4922 38.25 66.625C37.4922 67.7578 36.9375 69.4766 36.9375 71.3125C36.9375 72.6328 37.4766 74.4531 38.3125 75.75C40.2031 73.3672 41.9375 70.375 41.9375 67.1875C41.9375 66.4297 41.7734 65.8359 41.5625 65.5625Z" fill="white"/>
<defs>
<linearGradient id="paint0_linear_1823_27043" x1="32.6816" y1="75.1298" x2="59.3781" y2="57.6814" gradientUnits="userSpaceOnUse">
<stop stop-color="#6B67E9"/>
<stop offset="1" stop-color="#8224E3"/>
</linearGradient>
</defs>
</svg>
