<svg width="100" height="100" viewBox="0 0 100 100" fill="none" xmlns="http://www.w3.org/2000/svg">
<path d="M39.1055 6.00391C19.9414 6.00391 4.01172 19.9258 4.01172 37.4336C4.01172 45.8398 7.76953 53.4727 13.7305 59.1055L13.543 60.0273C12.1992 63.9648 8.89453 66.1914 6.93359 66.9023C5.79297 67.3086 4.84766 67.9258 4.32422 69.0039C3.80859 70.0742 4.12109 71.5586 4.90234 72.332C6.73047 74.168 9.10547 73.9883 10.8398 74.0039C17.3633 74.082 25.0508 70.6602 29.707 68.332L29.7617 68.3086L31.3555 67.3867L30.7461 67.1992L30.8164 67.2148C33.4102 67.8164 36.1289 68.0039 38.8008 68.0039C55.6523 68.0039 70.1523 57.9336 73.3555 43.4414V43.4336C73.7852 41.5039 74.0117 39.4961 74.0117 37.4336C74.0117 19.9414 58.2695 6.00391 39.1055 6.00391ZM39.1055 10.0039C56.3398 10.0039 70.0117 22.3477 70.0117 37.4336C70.0117 39.207 69.8164 40.9258 69.4492 42.5742C66.7148 54.9492 54.0664 64.0039 38.8008 64.0039C36.332 64.0039 33.9023 63.8164 31.7305 63.3164L30.8555 63.0586L27.8945 64.7617C23.4727 66.9727 15.8477 70.0664 10.8867 70.0039C10.207 70.0039 10.1445 69.8711 9.66797 69.8164C12.5117 68.4258 15.793 65.9023 17.3555 61.2617L17.3867 61.1602L18.1055 57.7852L17.2227 57.0039C11.4961 51.9961 8.01172 45.0508 8.01172 37.4336C8.01172 22.3633 21.8711 10.0039 39.1055 10.0039ZM77.582 42.3945C77.4805 43.0352 77.4102 43.6758 77.2695 44.3086C77.1133 44.9961 76.9102 45.668 76.707 46.3477C85.918 49.9023 91.9805 57.0664 91.9805 65.0273C91.9805 70.7383 89.0117 76.0742 83.6055 80.0664L82.5195 80.8711L82.8555 82.1836C83.9336 86.3164 87.7148 88.4492 90.332 89.8711C86.1836 90.4336 77.168 89.4961 72.6367 84.1367L71.8789 83.2305L70.7227 83.4648C68.9023 83.8242 66.793 84.0039 64.2617 84.0039C51.8242 84.0039 41.7227 79.1836 37.793 71.9727C36.168 71.9414 34.6523 71.832 33.2305 71.6602C36.9414 81.4883 48.8711 88.0039 64.2617 88.0039C66.5664 88.0039 68.5742 87.8633 70.3789 87.5898C74.793 92.0586 81.9883 93.9961 87.8164 93.9961C88.1992 93.9961 88.582 93.9883 88.9492 93.9727C92.332 93.8164 94.5352 93.0352 95.5117 91.6523C95.9414 91.0273 96.0898 90.293 95.918 89.5742C95.582 88.1445 94.2695 87.4414 92.4492 86.4648C90.6602 85.4961 88.3086 84.2227 87.207 82.3242C92.8086 77.6992 95.9805 71.4805 95.9805 65.0273C95.9805 55.2148 88.6445 46.457 77.582 42.3945Z" fill="#262626"/>
<path d="M22.0117 28.0039V24.0039H56.0117V28.0039H22.0117Z" fill="url(#paint0_linear_1823_27058)"/>
<path d="M22.0117 38.0039V34.0039H56.0117V38.0039H22.0117Z" fill="url(#paint1_linear_1823_27058)"/>
<path d="M22.0117 48.0039V44.0039H46.0117V48.0039H22.0117Z" fill="url(#paint2_linear_1823_27058)"/>
<path d="M68.7305 60.0039C69.9414 58.7539 71.043 57.4102 72.043 56.0039H78.0117V60.0039H68.7305Z" fill="url(#paint3_linear_1823_27058)"/>
<path d="M52.1992 70.0039C55.4102 69.0117 58.4336 67.6602 61.1914 66.0039H78.0117V70.0039H52.1992Z" fill="url(#paint4_linear_1823_27058)"/>
<defs>
<linearGradient id="paint0_linear_1823_27058" x1="21.9103" y1="38.5992" x2="49.1703" y2="21.6249" gradientUnits="userSpaceOnUse">
<stop stop-color="#6B67E9"/>
<stop offset="1" stop-color="#8224E3"/>
</linearGradient>
<linearGradient id="paint1_linear_1823_27058" x1="21.9103" y1="38.5992" x2="49.1703" y2="21.6249" gradientUnits="userSpaceOnUse">
<stop stop-color="#6B67E9"/>
<stop offset="1" stop-color="#8224E3"/>
</linearGradient>
<linearGradient id="paint2_linear_1823_27058" x1="21.9103" y1="38.5992" x2="49.1703" y2="21.6249" gradientUnits="userSpaceOnUse">
<stop stop-color="#6B67E9"/>
<stop offset="1" stop-color="#8224E3"/>
</linearGradient>
<linearGradient id="paint3_linear_1823_27058" x1="68.7028" y1="58.4365" x2="73.7645" y2="53.2741" gradientUnits="userSpaceOnUse">
<stop stop-color="#6B67E9"/>
<stop offset="1" stop-color="#8224E3"/>
</linearGradient>
<linearGradient id="paint4_linear_1823_27058" x1="52.1223" y1="68.4365" x2="55.2974" y2="59.4304" gradientUnits="userSpaceOnUse">
<stop stop-color="#6B67E9"/>
<stop offset="1" stop-color="#8224E3"/>
</linearGradient>
</defs>
</svg>
