<svg width="100" height="100" viewBox="0 0 100 100" fill="none" xmlns="http://www.w3.org/2000/svg">
<path fill-rule="evenodd" clip-rule="evenodd" d="M3.83984 50C3.83984 24.5302 24.5302 3.83984 50 3.83984C75.4698 3.83984 96.1602 24.5302 96.1602 50C96.1602 55.5847 95.1654 60.9396 93.3436 65.897C92.5963 64.3225 91.6543 62.8584 90.5486 61.5357C91.4204 58.4869 91.9559 55.2953 92.1094 52H74.0273C74.0114 52.7354 73.9868 53.4663 73.9539 54.1924C72.5694 54.2493 71.2203 54.4436 69.9199 54.7619C69.9699 53.8497 70.0058 52.9288 70.0273 52H52V68.0547C53.1302 68.0796 54.2491 68.1253 55.3558 68.1909C54.9327 69.4606 54.6304 70.7856 54.4626 72.1521C53.6486 72.1094 52.8276 72.0781 52 72.0586V91.9258C54.3861 91.3974 56.7319 89.9359 58.9107 87.6216C59.7525 88.6544 60.6929 89.6037 61.7177 90.455C61.6972 90.4765 61.6767 90.4981 61.6562 90.5195C61.6907 90.5097 61.7252 90.4997 61.7596 90.4898C63.0867 91.5863 64.5541 92.519 66.1308 93.257C61.1081 95.1338 55.6726 96.1602 50 96.1602C24.5302 96.1602 3.83984 75.4698 3.83984 50ZM48 27.9414V8.07422C43.6746 9.0321 39.4816 13.0562 36.1758 19.668C35.1742 21.6711 34.2733 23.903 33.4805 26.3047C37.9829 27.246 42.865 27.8202 48 27.9414ZM63.8242 19.668C60.5184 13.0562 56.3254 9.0321 52 8.07422V27.9414C57.1418 27.8228 62.0305 27.2601 66.5273 26.3281C65.7328 23.9176 64.829 21.6775 63.8242 19.668ZM32.5977 17.8789C34.2373 14.5997 36.173 11.7546 38.3438 9.48047C30.8221 11.636 24.195 15.8454 19.0352 21.4375C22.1012 22.9847 25.6519 24.3166 29.5781 25.375C30.4527 22.6854 31.455 20.1642 32.5977 17.8789ZM80.9492 21.4219C75.7915 15.8379 69.1706 11.6339 61.6562 9.48047C63.827 11.7546 65.7627 14.5997 67.4023 17.8789C68.5494 20.1731 69.5567 22.7048 70.4336 25.4062C74.3817 24.3442 77.9285 22.9973 80.9492 21.4219ZM92.1094 48C91.6992 39.1931 88.5606 31.1265 83.5664 24.5469C80.0871 26.4607 76.0423 28.0516 71.5547 29.2656C73.0232 34.9457 73.8814 41.2854 74.0273 48H92.1094ZM28.4531 29.2305C23.9786 28.0176 19.9271 26.4455 16.4102 24.5781C11.4297 31.1522 8.30017 39.207 7.89062 48H25.9727C26.1189 41.2718 26.9793 34.9193 28.4531 29.2305ZM48 31.9453C42.4743 31.8234 37.2162 31.207 32.3516 30.1719C30.9615 35.5245 30.1215 41.5747 29.9727 48H48V31.9453ZM70.0273 48C69.8788 41.5856 69.0422 35.5452 67.6562 30.1992C62.793 31.2245 57.5289 31.8268 52 31.9453V48H70.0273ZM25.9727 52H7.89062C8.30082 60.8069 11.4394 68.8735 16.4336 75.4531C19.9129 73.5393 23.9577 71.9484 28.4453 70.7344C26.9768 65.0543 26.1186 58.7146 25.9727 52ZM48 52H29.9727C30.1212 58.4144 30.9578 64.4548 32.3438 69.8008C37.207 68.7755 42.4711 68.1732 48 68.0547V52ZM48 91.9258V72.0586C42.8582 72.1772 37.9695 72.7399 33.4727 73.6719C34.2672 76.0824 35.171 78.3225 36.1758 80.332C39.4816 86.9438 43.6746 90.9679 48 91.9258ZM32.5977 82.1211C31.4506 79.8269 30.4433 77.2952 29.5664 74.5938C25.6183 75.6558 22.0715 77.0027 19.0508 78.5781C24.2085 84.1621 30.8294 88.3661 38.3438 90.5195C36.173 88.2454 34.2373 85.4003 32.5977 82.1211Z" fill="#262626"/>
<path d="M75.2035 58.1631C66.024 58.1631 58.5469 65.6402 58.5469 74.8197C58.5469 83.9992 66.024 91.4763 75.2035 91.4763C79.1953 91.4763 82.8612 90.0588 85.7342 87.7058L95.6794 97.651C95.8329 97.8108 96.0167 97.9384 96.2201 98.0264C96.4236 98.1143 96.6425 98.1607 96.8641 98.163C97.0857 98.1653 97.3055 98.1233 97.5107 98.0395C97.7159 97.9557 97.9023 97.8319 98.059 97.6752C98.2157 97.5185 98.3395 97.3321 98.4233 97.1269C98.5071 96.9217 98.549 96.7019 98.5468 96.4803C98.5445 96.2587 98.4981 96.0398 98.4102 95.8364C98.3222 95.6329 98.1946 95.4491 98.0347 95.2956L88.0896 85.3504C90.4426 82.4774 91.8601 78.8115 91.8601 74.8197C91.8601 65.6402 84.3829 58.1631 75.2035 58.1631ZM75.2035 61.4944C82.5826 61.4944 88.5288 67.4406 88.5288 74.8197C88.5288 82.1988 82.5826 88.145 75.2035 88.145C67.8244 88.145 61.8782 82.1988 61.8782 74.8197C61.8782 67.4406 67.8244 61.4944 75.2035 61.4944Z" fill="url(#paint0_linear_1823_27038)"/>
<defs>
<linearGradient id="paint0_linear_1823_27038" x1="58.4276" y1="82.4885" x2="95.7268" y2="66.094" gradientUnits="userSpaceOnUse">
<stop stop-color="#6B67E9"/>
<stop offset="1" stop-color="#8224E3"/>
</linearGradient>
</defs>
</svg>
