<svg id="full" width="42" height="48" viewBox="0 0 42 48" fill="none" xmlns="http://www.w3.org/2000/svg">
<path d="M30.9788 0.626465C27.6066 0.626465 24.849 3.3839 24.849 6.75588C24.849 10.1279 27.6066 12.8853 30.9788 12.8853C34.3509 12.8853 37.1085 10.1279 37.1085 6.75588C37.1085 3.3839 34.3509 0.626465 30.9788 0.626465ZM30.9788 2.6696C33.2495 2.6696 35.0653 4.48528 35.0653 6.75588C35.0653 9.02648 33.2495 10.8422 30.9788 10.8422C28.708 10.8422 26.8923 9.02648 26.8923 6.75588C26.8923 4.48528 28.708 2.6696 30.9788 2.6696ZM26.3814 13.9069C23.2926 13.9069 20.7625 16.4368 20.7625 19.5255V31.082C20.7585 31.1259 20.7585 31.1658 20.7625 31.2097V31.2735C20.7585 31.3693 20.7705 31.4691 20.7944 31.5609C20.9461 33.1052 22.2471 34.3382 23.8274 34.3382C24.1866 34.3382 24.5258 34.2624 24.849 34.1467V44.0432C24.849 46.0065 26.4613 47.6187 28.4247 47.6187C29.4224 47.6187 30.3283 47.1996 30.9788 46.5332C31.6292 47.1996 32.5351 47.6187 33.5328 47.6187C35.4962 47.6187 37.1085 46.0065 37.1085 44.0432V34.1467C37.4317 34.2624 37.771 34.3382 38.1301 34.3382C39.7543 34.3382 41.1072 33.0373 41.195 31.4332C41.199 31.3813 41.199 31.3254 41.195 31.2735C41.195 31.2416 41.195 31.2097 41.195 31.1778V19.5255C41.195 16.4368 38.6649 13.9069 35.5761 13.9069H26.3814ZM26.3814 15.95H35.5761C37.5595 15.95 39.1517 17.5462 39.1517 19.5255V31.1139C39.1517 31.1458 39.1517 31.1778 39.1517 31.2097V31.2735C39.1517 31.3055 39.1517 31.3374 39.1517 31.3693C39.1039 31.9001 38.6729 32.2951 38.1301 32.2951C37.5515 32.2951 37.1085 31.8522 37.1085 31.2735V31.1778C37.1085 31.1458 37.1085 31.1139 37.1085 31.082V22.0794H35.0653V31.082C35.0613 31.1259 35.0613 31.1658 35.0653 31.2097V44.0432C35.0653 44.9011 34.3908 45.5755 33.5328 45.5755C32.7267 45.5755 32.0762 44.9849 32.0004 44.2028C31.9964 44.1509 32.0004 44.095 32.0004 44.0432V32.2951H29.9571V44.2028C29.8813 44.9849 29.2308 45.5755 28.4247 45.5755C27.5667 45.5755 26.8923 44.9011 26.8923 44.0432V22.0794H24.849V31.1139C24.849 31.1458 24.849 31.1778 24.849 31.2097V31.2735C24.849 31.8522 24.406 32.2951 23.8274 32.2951C23.2727 32.2951 22.8377 31.8841 22.8058 31.3374C22.8058 31.3174 22.8058 31.2935 22.8058 31.2735C22.8137 31.2097 22.8137 31.1458 22.8058 31.082V19.5255C22.8058 17.5462 24.3981 15.95 26.3814 15.95Z" fill="url(#paint0_linear_810:6563)" stroke="white" stroke-width="0.626562"/>
<path d="M10.6067 0.626465C7.23453 0.626465 4.47694 3.3839 4.47694 6.75588C4.47694 10.1279 7.23453 12.8853 10.6067 12.8853C13.9788 12.8853 16.7364 10.1279 16.7364 6.75588C16.7364 3.3839 13.9788 0.626465 10.6067 0.626465ZM10.6067 2.6696C12.8774 2.6696 14.6932 4.48528 14.6932 6.75588C14.6932 9.02648 12.8774 10.8422 10.6067 10.8422C8.33597 10.8422 6.52019 9.02648 6.52019 6.75588C6.52019 4.48528 8.33597 2.6696 10.6067 2.6696ZM6.00938 13.9069C2.92056 13.9069 0.390444 16.4368 0.390444 19.5255V31.082C0.386454 31.1259 0.386454 31.1658 0.390444 31.2097V31.2735C0.386454 31.3693 0.398426 31.4691 0.42237 31.5609C0.574018 33.1052 1.87499 34.3382 3.45532 34.3382C3.81448 34.3382 4.15369 34.2624 4.47694 34.1467V44.0432C4.47694 46.0065 6.08919 47.6187 8.05262 47.6187C9.05031 47.6187 9.9562 47.1996 10.6067 46.5332C11.2572 47.1996 12.1631 47.6187 13.1607 47.6187C15.1242 47.6187 16.7364 46.0065 16.7364 44.0432V34.1467C17.0597 34.2624 17.3989 34.3382 17.7581 34.3382C19.3823 34.3382 20.7351 33.0373 20.8229 31.4332C20.8269 31.3813 20.8269 31.3254 20.8229 31.2735C20.8229 31.2416 20.8229 31.2097 20.8229 31.1778V19.5255C20.8229 16.4368 18.2928 13.9069 15.204 13.9069H6.00938ZM6.00938 15.95H15.204C17.1874 15.95 18.7797 17.5462 18.7797 19.5255V31.1139C18.7797 31.1458 18.7797 31.1778 18.7797 31.2097V31.2735C18.7797 31.3055 18.7797 31.3374 18.7797 31.3693C18.7318 31.9001 18.3008 32.2951 17.7581 32.2951C17.1794 32.2951 16.7364 31.8522 16.7364 31.2735V31.1778C16.7364 31.1458 16.7364 31.1139 16.7364 31.082V22.0794H14.6932V31.082C14.6892 31.1259 14.6892 31.1658 14.6932 31.2097V44.0432C14.6932 44.9011 14.0188 45.5755 13.1607 45.5755C12.3546 45.5755 11.7041 44.9849 11.6283 44.2028C11.6243 44.1509 11.6283 44.095 11.6283 44.0432V32.2951H9.58506V44.2028C9.50924 44.9849 8.85875 45.5755 8.05262 45.5755C7.19462 45.5755 6.52019 44.9011 6.52019 44.0432V22.0794H4.47694V31.1139C4.47694 31.1458 4.47694 31.1778 4.47694 31.2097V31.2735C4.47694 31.8522 4.03397 32.2951 3.45532 32.2951C2.90061 32.2951 2.46562 31.8841 2.43369 31.3374C2.43369 31.3174 2.43369 31.2935 2.43369 31.2735C2.44167 31.2097 2.44167 31.1458 2.43369 31.082V19.5255C2.43369 17.5462 4.02599 15.95 6.00938 15.95Z" fill="#363636" stroke="white" stroke-width="0.626562"/>
<defs>
<linearGradient id="paint0_linear_810:6563" x1="20.6986" y1="29.2041" x2="42.6373" y2="25.0101" gradientUnits="userSpaceOnUse">
<stop stop-color="#6B67E9"/>
<stop offset="1" stop-color="#8224E3"/>
</linearGradient>
</defs>
</svg>
