<svg id="full" width="48" height="47" viewBox="0 0 48 47" fill="none" xmlns="http://www.w3.org/2000/svg">
<path d="M23.6914 0C10.727 0 0.195312 10.5317 0.195312 23.4961C0.195312 36.4605 10.727 46.9922 23.6914 46.9922C36.6558 46.9922 47.1875 36.4605 47.1875 23.4961C47.1875 10.5317 36.6558 0 23.6914 0ZM23.6914 2.04314C35.5516 2.04314 45.1444 11.6359 45.1444 23.4961C45.1444 35.3563 35.5516 44.949 23.6914 44.949C11.8312 44.949 2.23845 35.3563 2.23845 23.4961C2.23845 11.6359 11.8312 2.04314 23.6914 2.04314Z" fill="#262626"/>
<path d="M17.099 16.5605C17.6496 13.0432 20.1762 10.7344 23.9866 10.7344C27.9421 10.7344 30.6168 13.336 30.6168 16.9636C30.6168 18.7227 29.9956 20.0039 28.7493 21.7262L26.2951 25.0982C25.5627 26.0871 25.3414 26.6004 25.3414 27.8457V29.0169C25.3414 29.2365 25.1959 29.382 24.9763 29.382H22.558C22.3384 29.3861 22.1929 29.2385 22.1929 29.0189V27.5184C22.1929 26.0515 22.521 25.2817 23.2903 24.2183L25.7464 20.8483C27.0275 19.0902 27.4663 18.2478 27.4663 17.0015C27.4663 14.9134 26.0019 13.5936 23.9128 13.5936C21.8615 13.5936 20.5431 14.8401 20.1038 17.0753C20.0671 17.2949 19.9215 17.4054 19.7008 17.3686L17.3923 16.9636C17.1716 16.9268 17.0632 16.7812 17.099 16.5605Z" fill="url(#paint0_linear_825:6575)"/>
<path d="M22.0093 32.5385C22.0093 32.3189 22.1558 32.1714 22.3764 32.1714H25.1618C25.3815 32.1714 25.5269 32.3199 25.5269 32.5385V35.689C25.5269 35.9097 25.3804 36.0541 25.1618 36.0541H22.3764C22.1548 36.0541 22.0093 35.9086 22.0093 35.689V32.5385Z" fill="url(#paint1_linear_825:6575)"/>
<defs>
<linearGradient id="paint0_linear_825:6575" x1="17.052" y1="26.1322" x2="31.3137" y2="22.7839" gradientUnits="userSpaceOnUse">
<stop stop-color="#6B67E9"/>
<stop offset="1" stop-color="#8224E3"/>
</linearGradient>
<linearGradient id="paint1_linear_825:6575" x1="17.052" y1="26.1322" x2="31.3137" y2="22.7839" gradientUnits="userSpaceOnUse">
<stop stop-color="#6B67E9"/>
<stop offset="1" stop-color="#8224E3"/>
</linearGradient>
</defs>
</svg>
