<svg id="full" width="103" height="48" viewBox="0 0 103 48" fill="none" xmlns="http://www.w3.org/2000/svg">
<path d="M10.8561 0.626465C7.48416 0.626465 4.72672 3.3839 4.72672 6.75588C4.72672 10.1279 7.48416 12.8853 10.8561 12.8853C14.2281 12.8853 16.9855 10.1279 16.9855 6.75588C16.9855 3.3839 14.2281 0.626465 10.8561 0.626465ZM10.8561 2.6696C13.1267 2.6696 14.9424 4.48528 14.9424 6.75588C14.9424 9.02648 13.1267 10.8422 10.8561 10.8422C8.58554 10.8422 6.76986 9.02648 6.76986 6.75588C6.76986 4.48528 8.58554 2.6696 10.8561 2.6696ZM6.25907 13.9069C3.17042 13.9069 0.640444 16.4368 0.640444 19.5255V31.082C0.636454 31.1259 0.636454 31.1658 0.640444 31.2097V31.2735C0.636454 31.3693 0.648425 31.4691 0.672368 31.5609C0.824008 33.1052 2.12491 34.3382 3.70515 34.3382C4.0643 34.3382 4.40349 34.2624 4.72672 34.1467V44.0432C4.72672 46.0065 6.33888 47.6187 8.30221 47.6187C9.29984 47.6187 10.2057 47.1996 10.8561 46.5332C11.5066 47.1996 12.4124 47.6187 13.4101 47.6187C15.3734 47.6187 16.9855 46.0065 16.9855 44.0432V34.1467C17.3088 34.2624 17.648 34.3382 18.0071 34.3382C19.6313 34.3382 20.984 33.0373 21.0718 31.4332C21.0758 31.3813 21.0758 31.3254 21.0718 31.2735C21.0718 31.2416 21.0718 31.2097 21.0718 31.1778V19.5255C21.0718 16.4368 18.5418 13.9069 15.4532 13.9069H6.25907ZM6.25907 15.95H15.4532C17.4365 15.95 19.0287 17.5462 19.0287 19.5255V31.1139C19.0287 31.1458 19.0287 31.1778 19.0287 31.2097V31.2735C19.0287 31.3055 19.0287 31.3374 19.0287 31.3693C18.9808 31.9001 18.5498 32.2951 18.0071 32.2951C17.4285 32.2951 16.9855 31.8522 16.9855 31.2735V31.1778C16.9855 31.1458 16.9855 31.1139 16.9855 31.082V22.0794H14.9424V31.082C14.9384 31.1259 14.9384 31.1658 14.9424 31.2097V44.0432C14.9424 44.9011 14.268 45.5755 13.4101 45.5755C12.604 45.5755 11.9535 44.9849 11.8777 44.2028C11.8737 44.1509 11.8777 44.095 11.8777 44.0432V32.2951H9.83457V44.2028C9.75875 44.9849 9.10829 45.5755 8.30221 45.5755C7.44425 45.5755 6.76986 44.9011 6.76986 44.0432V22.0794H4.72672V31.1139C4.72672 31.1458 4.72672 31.1778 4.72672 31.2097V31.2735C4.72672 31.8522 4.28377 32.2951 3.70515 32.2951C3.15047 32.2951 2.71551 31.8841 2.68358 31.3374C2.68358 31.3174 2.68358 31.2935 2.68358 31.2735C2.69156 31.2097 2.69156 31.1458 2.68358 31.082V19.5255C2.68358 17.5462 4.27579 15.95 6.25907 15.95Z" fill="#363636" stroke="white" stroke-width="0.626562"/>
<path d="M30.9062 0.626465C27.5342 0.626465 24.7768 3.3839 24.7768 6.75588C24.7768 10.1279 27.5342 12.8853 30.9062 12.8853C34.2782 12.8853 37.0356 10.1279 37.0356 6.75588C37.0356 3.3839 34.2782 0.626465 30.9062 0.626465ZM30.9062 2.6696C33.1768 2.6696 34.9925 4.48528 34.9925 6.75588C34.9925 9.02648 33.1768 10.8422 30.9062 10.8422C28.6356 10.8422 26.8199 9.02648 26.8199 6.75588C26.8199 4.48528 28.6356 2.6696 30.9062 2.6696ZM26.3091 13.9069C23.2205 13.9069 20.6905 16.4368 20.6905 19.5255V31.082C20.6865 31.1259 20.6865 31.1658 20.6905 31.2097V31.2735C20.6865 31.3693 20.6985 31.4691 20.7224 31.5609C20.8741 33.1052 22.175 34.3382 23.7552 34.3382C24.1143 34.3382 24.4535 34.2624 24.7768 34.1467V44.0432C24.7768 46.0065 26.3889 47.6187 28.3523 47.6187C29.3499 47.6187 30.2557 47.1996 30.9062 46.5332C31.5566 47.1996 32.4625 47.6187 33.4601 47.6187C35.4234 47.6187 37.0356 46.0065 37.0356 44.0432V34.1467C37.3588 34.2624 37.698 34.3382 38.0572 34.3382C39.6813 34.3382 41.0341 33.0373 41.1219 31.4332C41.1259 31.3813 41.1259 31.3254 41.1219 31.2735C41.1219 31.2416 41.1219 31.2097 41.1219 31.1778V19.5255C41.1219 16.4368 38.5919 13.9069 35.5032 13.9069H26.3091ZM26.3091 15.95H35.5032C37.4865 15.95 39.0787 17.5462 39.0787 19.5255V31.1139C39.0787 31.1458 39.0787 31.1778 39.0787 31.2097V31.2735C39.0787 31.3055 39.0787 31.3374 39.0787 31.3693C39.0309 31.9001 38.5999 32.2951 38.0572 32.2951C37.4785 32.2951 37.0356 31.8522 37.0356 31.2735V31.1778C37.0356 31.1458 37.0356 31.1139 37.0356 31.082V22.0794H34.9925V31.082C34.9885 31.1259 34.9885 31.1658 34.9925 31.2097V44.0432C34.9925 44.9011 34.3181 45.5755 33.4601 45.5755C32.654 45.5755 32.0036 44.9849 31.9278 44.2028C31.9238 44.1509 31.9278 44.095 31.9278 44.0432V32.2951H29.8846V44.2028C29.8088 44.9849 29.1583 45.5755 28.3523 45.5755C27.4943 45.5755 26.8199 44.9011 26.8199 44.0432V22.0794H24.7768V31.1139C24.7768 31.1458 24.7768 31.1778 24.7768 31.2097V31.2735C24.7768 31.8522 24.3338 32.2951 23.7552 32.2951C23.2005 32.2951 22.7656 31.8841 22.7336 31.3374C22.7336 31.3174 22.7336 31.2935 22.7336 31.2735C22.7416 31.2097 22.7416 31.1458 22.7336 31.082V19.5255C22.7336 17.5462 24.3258 15.95 26.3091 15.95Z" fill="url(#paint0_linear_815:6582)" stroke="white" stroke-width="0.626562"/>
<path d="M50.9562 0.626465C47.5843 0.626465 44.8268 3.3839 44.8268 6.75588C44.8268 10.1279 47.5843 12.8853 50.9562 12.8853C54.3282 12.8853 57.0856 10.1279 57.0856 6.75588C57.0856 3.3839 54.3282 0.626465 50.9562 0.626465ZM50.9562 2.6696C53.2268 2.6696 55.0425 4.48528 55.0425 6.75588C55.0425 9.02648 53.2268 10.8422 50.9562 10.8422C48.6856 10.8422 46.87 9.02648 46.87 6.75588C46.87 4.48528 48.6856 2.6696 50.9562 2.6696ZM46.3592 13.9069C43.2705 13.9069 40.7405 16.4368 40.7405 19.5255V31.082C40.7366 31.1259 40.7366 31.1658 40.7405 31.2097V31.2735C40.7366 31.3693 40.7485 31.4691 40.7725 31.5609C40.9241 33.1052 42.225 34.3382 43.8052 34.3382C44.1644 34.3382 44.5036 34.2624 44.8268 34.1467V44.0432C44.8268 46.0065 46.439 47.6187 48.4023 47.6187C49.3999 47.6187 50.3058 47.1996 50.9562 46.5332C51.6067 47.1996 52.5125 47.6187 53.5102 47.6187C55.4735 47.6187 57.0856 46.0065 57.0856 44.0432V34.1467C57.4089 34.2624 57.7481 34.3382 58.1072 34.3382C59.7314 34.3382 61.0841 33.0373 61.1719 31.4332C61.1759 31.3813 61.1759 31.3254 61.1719 31.2735C61.1719 31.2416 61.1719 31.2097 61.1719 31.1778V19.5255C61.1719 16.4368 58.6419 13.9069 55.5533 13.9069H46.3592ZM46.3592 15.95H55.5533C57.5366 15.95 59.1288 17.5462 59.1288 19.5255V31.1139C59.1288 31.1458 59.1288 31.1778 59.1288 31.2097V31.2735C59.1288 31.3055 59.1288 31.3374 59.1288 31.3693C59.0809 31.9001 58.6499 32.2951 58.1072 32.2951C57.5286 32.2951 57.0856 31.8522 57.0856 31.2735V31.1778C57.0856 31.1458 57.0856 31.1139 57.0856 31.082V22.0794H55.0425V31.082C55.0385 31.1259 55.0385 31.1658 55.0425 31.2097V44.0432C55.0425 44.9011 54.3681 45.5755 53.5102 45.5755C52.7041 45.5755 52.0536 44.9849 51.9778 44.2028C51.9738 44.1509 51.9778 44.095 51.9778 44.0432V32.2951H49.9347V44.2028C49.8588 44.9849 49.2084 45.5755 48.4023 45.5755C47.5444 45.5755 46.87 44.9011 46.87 44.0432V22.0794H44.8268V31.1139C44.8268 31.1458 44.8268 31.1778 44.8268 31.2097V31.2735C44.8268 31.8522 44.3839 32.2951 43.8052 32.2951C43.2506 32.2951 42.8156 31.8841 42.7837 31.3374C42.7837 31.3174 42.7837 31.2935 42.7837 31.2735C42.7917 31.2097 42.7917 31.1458 42.7837 31.082V19.5255C42.7837 17.5462 44.3759 15.95 46.3592 15.95Z" fill="#363636" stroke="white" stroke-width="0.626562"/>
<path d="M92.3093 0.626465C88.9373 0.626465 86.1798 3.3839 86.1798 6.75588C86.1798 10.1279 88.9373 12.8853 92.3093 12.8853C95.6812 12.8853 98.4387 10.1279 98.4387 6.75588C98.4387 3.3839 95.6812 0.626465 92.3093 0.626465ZM92.3093 2.6696C94.5799 2.6696 96.3955 4.48528 96.3955 6.75588C96.3955 9.02648 94.5799 10.8422 92.3093 10.8422C90.0387 10.8422 88.223 9.02648 88.223 6.75588C88.223 4.48528 90.0387 2.6696 92.3093 2.6696ZM87.7122 13.9069C84.6235 13.9069 82.0936 16.4368 82.0936 19.5255V31.082C82.0896 31.1259 82.0896 31.1658 82.0936 31.2097V31.2735C82.0896 31.3693 82.1016 31.4691 82.1255 31.5609C82.2771 33.1052 83.578 34.3382 85.1583 34.3382C85.5174 34.3382 85.8566 34.2624 86.1798 34.1467V44.0432C86.1798 46.0065 87.792 47.6187 89.7553 47.6187C90.753 47.6187 91.6588 47.1996 92.3093 46.5332C92.9597 47.1996 93.8656 47.6187 94.8632 47.6187C96.8265 47.6187 98.4387 46.0065 98.4387 44.0432V34.1467C98.7619 34.2624 99.1011 34.3382 99.4602 34.3382C101.084 34.3382 102.437 33.0373 102.525 31.4332C102.529 31.3813 102.529 31.3254 102.525 31.2735C102.525 31.2416 102.525 31.2097 102.525 31.1778V19.5255C102.525 16.4368 99.995 13.9069 96.9063 13.9069H87.7122ZM87.7122 15.95H96.9063C98.8896 15.95 100.482 17.5462 100.482 19.5255V31.1139C100.482 31.1458 100.482 31.1778 100.482 31.2097V31.2735C100.482 31.3055 100.482 31.3374 100.482 31.3693C100.434 31.9001 100.003 32.2951 99.4602 32.2951C98.8816 32.2951 98.4387 31.8522 98.4387 31.2735V31.1778C98.4387 31.1458 98.4387 31.1139 98.4387 31.082V22.0794H96.3955V31.082C96.3915 31.1259 96.3915 31.1658 96.3955 31.2097V44.0432C96.3955 44.9011 95.7211 45.5755 94.8632 45.5755C94.0571 45.5755 93.4066 44.9849 93.3308 44.2028C93.3268 44.1509 93.3308 44.095 93.3308 44.0432V32.2951H91.2877V44.2028C91.2119 44.9849 90.5614 45.5755 89.7553 45.5755C88.8974 45.5755 88.223 44.9011 88.223 44.0432V22.0794H86.1798V31.1139C86.1798 31.1458 86.1798 31.1778 86.1798 31.2097V31.2735C86.1798 31.8522 85.7369 32.2951 85.1583 32.2951C84.6036 32.2951 84.1686 31.8841 84.1367 31.3374C84.1367 31.3174 84.1367 31.2935 84.1367 31.2735C84.1447 31.2097 84.1447 31.1458 84.1367 31.082V19.5255C84.1367 17.5462 85.7289 15.95 87.7122 15.95Z" fill="url(#paint1_linear_815:6582)" stroke="white" stroke-width="0.626562"/>
<path d="M68.2001 29.6283C68.6851 29.6283 69.0901 29.2322 69.0901 28.7382C69.0901 28.2532 68.6851 27.8527 68.2001 27.8527C67.7106 27.8527 67.3101 28.2532 67.3101 28.7382C67.3101 29.2322 67.7106 29.6283 68.2001 29.6283ZM71.749 29.6283C72.234 29.6283 72.639 29.2322 72.639 28.7382C72.639 28.2532 72.234 27.8527 71.749 27.8527C71.2595 27.8527 70.859 28.2532 70.859 28.7382C70.859 29.2322 71.2595 29.6283 71.749 29.6283ZM75.2978 29.6283C75.7829 29.6283 76.1879 29.2322 76.1879 28.7382C76.1879 28.2532 75.7829 27.8527 75.2978 27.8527C74.8083 27.8527 74.4078 28.2532 74.4078 28.7382C74.4078 29.2322 74.8083 29.6283 75.2978 29.6283Z" fill="black"/>
<defs>
<linearGradient id="paint0_linear_815:6582" x1="20.6266" y1="29.2041" x2="42.5642" y2="25.0105" gradientUnits="userSpaceOnUse">
<stop stop-color="#6B67E9"/>
<stop offset="1" stop-color="#8224E3"/>
</linearGradient>
<linearGradient id="paint1_linear_815:6582" x1="82.0296" y1="29.2041" x2="103.967" y2="25.0105" gradientUnits="userSpaceOnUse">
<stop stop-color="#6B67E9"/>
<stop offset="1" stop-color="#8224E3"/>
</linearGradient>
</defs>
</svg>
