<svg id="full" width="22" height="48" viewBox="0 0 22 48" fill="none" xmlns="http://www.w3.org/2000/svg">
  <path d="M10.8813 0.626465C7.50919 0.626465 4.7516 3.3839 4.7516 6.75588C4.7516 10.1279 7.50919 12.8853 10.8813 12.8853C14.2535 12.8853 17.0111 10.1279 17.0111 6.75588C17.0111 3.3839 14.2535 0.626465 10.8813 0.626465ZM10.8813 2.6696C13.1521 2.6696 14.9678 4.48528 14.9678 6.75588C14.9678 9.02648 13.1521 10.8422 10.8813 10.8422C8.61062 10.8422 6.79485 9.02648 6.79485 6.75588C6.79485 4.48528 8.61062 2.6696 10.8813 2.6696ZM6.28403 13.9069C3.19522 13.9069 0.665102 16.4368 0.665102 19.5255V31.082C0.661112 31.1259 0.661112 31.1658 0.665102 31.2097V31.2735C0.661112 31.3693 0.673084 31.4691 0.697028 31.5609C0.848676 33.1052 2.14965 34.3382 3.72997 34.3382C4.08914 34.3382 4.42835 34.2624 4.7516 34.1467V44.0432C4.7516 46.0065 6.36385 47.6187 8.32728 47.6187C9.32496 47.6187 10.2309 47.1996 10.8813 46.5332C11.5318 47.1996 12.4377 47.6187 13.4354 47.6187C15.3988 47.6187 17.0111 46.0065 17.0111 44.0432V34.1467C17.3343 34.2624 17.6735 34.3382 18.0327 34.3382C19.6569 34.3382 21.0098 33.0373 21.0976 31.4332C21.1016 31.3813 21.1016 31.3254 21.0976 31.2735C21.0976 31.2416 21.0976 31.2097 21.0976 31.1778V19.5255C21.0976 16.4368 18.5675 13.9069 15.4787 13.9069H6.28403ZM6.28403 15.95H15.4787C17.462 15.95 19.0543 17.5462 19.0543 19.5255V31.1139C19.0543 31.1458 19.0543 31.1778 19.0543 31.2097V31.2735C19.0543 31.3055 19.0543 31.3374 19.0543 31.3693C19.0064 31.9001 18.5754 32.2951 18.0327 32.2951C17.4541 32.2951 17.0111 31.8522 17.0111 31.2735V31.1778C17.0111 31.1458 17.0111 31.1139 17.0111 31.082V22.0794H14.9678V31.082C14.9638 31.1259 14.9638 31.1658 14.9678 31.2097V44.0432C14.9678 44.9011 14.2934 45.5755 13.4354 45.5755C12.6293 45.5755 11.9788 44.9849 11.903 44.2028C11.899 44.1509 11.903 44.095 11.903 44.0432V32.2951H9.85972V44.2028C9.7839 44.9849 9.13341 45.5755 8.32728 45.5755C7.46928 45.5755 6.79485 44.9011 6.79485 44.0432V22.0794H4.7516V31.1139C4.7516 31.1458 4.7516 31.1778 4.7516 31.2097V31.2735C4.7516 31.8522 4.30863 32.2951 3.72997 32.2951C3.17526 32.2951 2.74028 31.8841 2.70835 31.3374C2.70835 31.3174 2.70835 31.2935 2.70835 31.2735C2.71633 31.2097 2.71633 31.1458 2.70835 31.082V19.5255C2.70835 17.5462 4.30065 15.95 6.28403 15.95Z" fill="#363636" stroke="white" stroke-width="0.626562"/>
</svg>
