<svg width="115" height="115" viewBox="0 0 115 115" fill="none" xmlns="http://www.w3.org/2000/svg">
<path d="M81.0674 68.4462C78.6326 68.2901 77.2172 66.9051 76.8426 64.3142C76.7427 63.6247 76.7427 63.6069 76.732 59.1323L76.7222 54.8014H78.8769L78.885 58.9905C78.893 62.7659 78.8975 63.2091 78.934 63.474C79.0803 64.5523 79.3719 65.2774 79.8696 65.7973C80.2674 66.2138 80.7329 66.4573 81.3778 66.5866C81.681 66.6482 82.547 66.6482 82.8244 66.5866C83.4469 66.4599 84.0176 66.1506 84.4637 65.6983C84.9908 65.1721 85.3805 64.4256 85.5696 63.5819L85.632 63.2974L85.6391 59.0735L85.6463 54.8478H87.8465V68.1314H85.6695V67.0772C85.6695 66.3619 85.6614 66.0265 85.6445 66.0319C85.5951 66.0895 85.5534 66.1534 85.5205 66.2219C85.1236 66.927 84.5409 67.5097 83.8358 67.9066C83.0153 68.357 82.1921 68.5176 81.0674 68.4462ZM105.772 68.4355C104.886 68.3617 104.028 68.082 103.269 67.6185C101.71 66.6553 100.788 65.0678 100.518 62.8845C100.425 62.1282 100.413 61.1132 100.492 60.4711C100.665 59.0351 101.23 57.626 102.034 56.6208C102.24 56.3622 102.708 55.8957 102.966 55.6897C103.661 55.1347 104.474 54.7469 105.343 54.5561C105.848 54.4464 106.736 54.3947 107.272 54.4438C108.619 54.5686 109.852 55.2019 110.69 56.1981C111.543 57.2104 112.01 58.6249 112.071 60.3667C112.08 60.7213 112.082 61.0761 112.075 61.4307L112.064 61.998L107.349 62.0033L102.635 62.0095V62.22C102.635 62.8595 102.79 63.5882 103.059 64.2089C103.291 64.7431 103.692 65.3264 104.018 65.6092C104.689 66.1884 105.525 66.5417 106.408 66.6188C106.742 66.65 107.591 66.617 107.97 66.559C109.054 66.3922 110.084 65.9677 110.914 65.3461C111.012 65.272 111.106 65.2034 111.123 65.1935C111.147 65.1784 111.153 65.3692 111.152 66.1746V67.1735L110.928 67.3117C109.967 67.9 108.889 68.273 107.769 68.4052C107.429 68.4471 106.179 68.4658 105.771 68.4355H105.772ZM109.875 60.0028C109.875 58.9317 109.423 57.741 108.783 57.1283C108.327 56.691 107.744 56.4088 107.118 56.3221C106.808 56.2739 106.154 56.2926 105.827 56.3577C105.158 56.4851 104.543 56.8115 104.064 57.2942C103.535 57.8173 103.135 58.456 102.896 59.16C102.807 59.4186 102.703 59.8423 102.67 60.0777L102.655 60.1901H109.875V60.0028ZM45.923 68.1011L49.4807 58.7658L53.0286 49.46H55.3082L55.4028 49.7008C55.6918 50.4419 62.5048 68.1109 62.5048 68.1198C62.5048 68.126 61.959 68.1305 61.2918 68.1305H60.0789L59.0978 65.5191L58.115 62.9077H50.2076L50.1737 62.9968C50.155 63.045 49.7349 64.2205 49.2408 65.6074L48.3436 68.1305H47.128C46.1665 68.1305 45.915 68.1251 45.923 68.1011ZM57.3934 60.9152C57.3934 60.9108 56.7335 59.1216 55.9254 56.9374C54.4146 52.8544 54.3299 52.6083 54.2103 51.9528C54.1542 51.6459 54.1256 51.637 54.0926 51.9171C54.0455 52.2209 53.977 52.521 53.8875 52.8152C53.8474 52.9392 53.1669 54.8041 52.3749 56.9606C51.8905 58.2731 51.4104 59.5872 50.9345 60.9027C50.9345 60.9134 52.3882 60.9223 54.164 60.9223C55.9406 60.9223 57.3934 60.9188 57.3934 60.9152ZM63.2379 67.7916V67.4509L67.1773 62.0416L71.1167 56.6324L67.5492 56.6208L63.9835 56.6092L63.9773 55.7049L63.971 54.8014H74.2882V55.4114L70.3488 60.8501C68.1816 63.8415 66.4085 66.2941 66.4085 66.2995C66.4085 66.3057 68.1602 66.3111 70.3007 66.3111H74.1937V68.1305H63.2379V67.7916ZM92.1445 68.1153C92.1356 68.1064 92.1293 65.107 92.1293 61.4503V54.8005H94.2823V56.1713C94.2823 56.9258 94.2912 57.5421 94.3019 57.5421C94.3135 57.5421 94.3661 57.4191 94.4188 57.2683C94.6684 56.5653 95.0807 55.9312 95.6219 55.4177C96.0873 54.9663 96.6818 54.6711 97.3227 54.5731C97.5073 54.5437 97.6634 54.5374 98.0326 54.5472C98.4964 54.5597 98.7381 54.5936 99.02 54.6855L99.1091 54.714V56.9473L98.855 56.8206C98.4145 56.5974 97.9213 56.4987 97.4288 56.5352C97.0819 56.553 96.8545 56.5976 96.5771 56.7011C96.0143 56.9087 95.5369 57.2983 95.2206 57.8079C94.738 58.5953 94.4307 59.4775 94.3198 60.3944C94.3019 60.5522 94.2921 61.841 94.2877 64.3801L94.2814 68.1323H93.221C92.6377 68.1323 92.1534 68.1251 92.1445 68.1162V68.1153Z" fill="#0089D6"/>
<path d="M14.6575 40.1592H25.5382L14.2432 73.6251C14.1272 73.9691 13.9062 74.268 13.6113 74.4797C13.3164 74.6914 12.9625 74.8053 12.5995 74.8053H4.13191C3.8569 74.8052 3.58586 74.7397 3.34116 74.6142C3.09647 74.4887 2.88515 74.3068 2.72465 74.0834C2.5642 73.8601 2.45926 73.6017 2.41852 73.3298C2.37778 73.0578 2.40241 72.78 2.49037 72.5195L13.0138 41.3392C13.1298 40.9952 13.3508 40.6963 13.6457 40.4845C13.9406 40.2727 14.2944 40.1588 14.6575 40.1587V40.1592Z" fill="url(#paint0_linear_3360_20251)"/>
<path d="M30.4685 62.6062H13.2151C13.0547 62.6058 12.8978 62.6538 12.7651 62.7439C12.6323 62.834 12.5297 62.962 12.4708 63.1113C12.4119 63.2605 12.3993 63.4241 12.4347 63.5806C12.4701 63.7371 12.5519 63.8793 12.6693 63.9886L23.7562 74.337C24.0792 74.6381 24.5044 74.8055 24.946 74.8053H34.7156L30.4685 62.6062Z" fill="#0078D4"/>
<path d="M14.6579 40.1591C14.2909 40.1577 13.9331 40.2737 13.6367 40.4901C13.3403 40.7065 13.1209 41.012 13.0105 41.362L2.50392 72.491C2.41013 72.7525 2.38069 73.0327 2.4181 73.308C2.45551 73.5833 2.55867 73.8455 2.71885 74.0725C2.87903 74.2995 3.09152 74.4846 3.33834 74.6121C3.58517 74.7396 3.85908 74.8058 4.1369 74.8051H12.8233C13.1468 74.7473 13.4492 74.6047 13.6995 74.3918C13.9499 74.1789 14.1392 73.9034 14.2482 73.5933L16.3433 67.4185L23.8275 74.3989C24.1411 74.6583 24.5345 74.8018 24.9414 74.8051H34.6751L30.406 62.6057L17.9613 62.6086L25.5779 40.1591H14.6579Z" fill="url(#paint1_linear_3360_20251)"/>
<path d="M28.5558 41.3374C28.4399 40.9939 28.2192 40.6954 27.9247 40.484C27.6302 40.2726 27.2768 40.159 26.9143 40.1591H14.7881C15.1505 40.1591 15.5038 40.2728 15.7983 40.4842C16.0927 40.6956 16.3134 40.994 16.4294 41.3374L26.953 72.519C27.0411 72.7796 27.0659 73.0575 27.0252 73.3296C26.9846 73.6016 26.8797 73.8601 26.7193 74.0836C26.5589 74.3071 26.3476 74.4892 26.1028 74.6147C25.858 74.7403 25.5869 74.8057 25.3118 74.8056H37.4385C37.7135 74.8054 37.9845 74.7398 38.2291 74.6142C38.4737 74.4885 38.6849 74.3065 38.8452 74.0831C39.0055 73.8596 39.1104 73.6013 39.1511 73.3293C39.1919 73.0574 39.1673 72.7796 39.0795 72.519L28.5558 41.3374Z" fill="url(#paint2_linear_3360_20251)"/>
<defs>
<linearGradient id="paint0_linear_3360_20251" x1="18.6233" y1="42.7266" x2="7.32351" y2="76.1085" gradientUnits="userSpaceOnUse">
<stop stop-color="#114A8B"/>
<stop offset="1" stop-color="#0669BC"/>
</linearGradient>
<linearGradient id="paint1_linear_3360_20251" x1="22.1534" y1="58.2833" x2="19.5397" y2="59.1672" gradientUnits="userSpaceOnUse">
<stop stop-opacity="0.3"/>
<stop offset="0.071" stop-opacity="0.2"/>
<stop offset="0.321" stop-opacity="0.1"/>
<stop offset="0.623" stop-opacity="0.05"/>
<stop offset="1" stop-opacity="0"/>
</linearGradient>
<linearGradient id="paint2_linear_3360_20251" x1="20.7164" y1="41.7527" x2="33.1201" y2="74.7984" gradientUnits="userSpaceOnUse">
<stop stop-color="#3CCBF4"/>
<stop offset="1" stop-color="#2892DF"/>
</linearGradient>
</defs>
</svg>
