<svg width="115" height="115" viewBox="0 0 115 115" fill="none" xmlns="http://www.w3.org/2000/svg">
<path d="M21.074 67.1816C20.2389 68.5008 19.4189 69.8295 18.6142 71.1674C17.9141 72.3375 18.2628 73.8635 19.4365 74.5672L35.4796 84.4091C36.6506 85.1136 38.173 84.7613 38.8767 83.5903C39.6279 82.2451 40.4085 80.9165 41.2179 79.6054C47.5413 69.174 53.9824 70.3477 65.4617 75.8533L81.3906 83.354C82.6758 83.9426 84.0841 83.354 84.6692 82.1829L92.2813 64.9555C92.8664 63.7844 92.2813 62.262 91.1103 61.6734C87.714 60.1509 81.0383 56.9874 75.1814 54.0576C53.516 43.6272 35.1273 44.3308 21.074 67.1816Z" fill="url(#paint0_linear_3360_20273)"/>
<path d="M92.9857 28.0398C93.8207 26.7218 94.6407 25.3943 95.4455 24.0576C96.1456 22.8839 95.7933 21.3614 94.6232 20.6578L78.5792 10.8106C77.4091 10.1113 75.8858 10.4627 75.183 11.6338C74.431 12.9789 73.6505 14.3078 72.8418 15.6195C66.5148 26.0456 60.0764 24.8754 48.5971 19.3681L32.6682 11.8674C31.3839 11.2815 29.9756 11.8674 29.3905 13.0411L21.7784 30.265C21.1933 31.4396 21.7784 32.9621 22.9485 33.5471C26.3465 35.0731 33.0204 38.2366 38.8774 41.1664C60.5437 51.4801 78.9315 50.8941 92.9857 28.0398Z" fill="url(#paint1_linear_3360_20273)"/>
<path d="M13.3356 105.487C12.3742 106.128 10.8517 106.393 9.24905 106.393C4.16982 106.393 1.30957 103.355 1.30957 98.4731C1.30957 93.7818 4.16982 90.5024 9.22051 90.5024C10.7189 90.5024 12.2422 90.7958 13.3356 91.5691V93.6204C12.2422 92.9274 11.0123 92.5546 9.2214 92.5546C5.58433 92.5546 3.44829 94.9555 3.44829 98.5016C3.44829 102.049 5.69225 104.393 9.3534 104.393C10.9837 104.393 12.2422 104.021 13.3633 103.463V105.488L13.3356 105.487ZM14.8063 100.289C14.8063 96.766 16.8648 94.2099 20.3939 94.2099C23.8954 94.2099 25.9548 96.7669 25.9548 100.289C25.9548 103.807 23.8954 106.421 20.3939 106.421C16.8924 106.393 14.8063 103.807 14.8063 100.289ZM16.7845 100.289C16.7845 102.529 17.8815 104.529 20.4216 104.529C22.9063 104.529 24.0033 102.502 24.0033 100.289C24.0033 98.0735 22.9331 96.0739 20.4216 96.0739C17.8824 96.0739 16.7845 98.0485 16.7845 100.289ZM38.3055 106.181H36.2738V99.0867C36.2738 96.9827 35.4167 96.0489 33.4938 96.0489C31.6191 96.0489 30.3125 97.3029 30.3125 99.6762V106.208H28.2781V94.4748H30.3125V96.3941C31.0581 95.0072 32.4485 94.234 34.0262 94.234C36.7268 94.234 38.2769 96.1016 38.2769 99.3275V106.181H38.3055ZM46.9905 94.4507V96.3147H43.9421V106.181H41.9666V96.3138H40.0669V94.4498H41.9666V93.1682C41.9666 90.9831 43.1965 89.5168 45.708 89.5168C46.3216 89.5168 46.7221 89.6212 47.0699 89.7015V91.5691C46.7221 91.4888 46.269 91.4611 45.7883 91.4611C44.5308 91.4611 43.9171 92.1818 43.9171 93.2485V94.4498L46.9905 94.4507ZM52.3097 106.232C50.3868 106.232 49.1569 105.327 49.1569 103.167V89.5409H51.1886V102.926C51.1886 103.996 51.8816 104.368 52.7672 104.368C52.9786 104.368 53.1115 104.368 53.3514 104.342V106.156C53.1668 106.208 52.819 106.232 52.3097 106.232ZM55.062 94.4507H57.0937V101.539C57.0937 103.648 57.9499 104.581 59.8737 104.581C61.744 104.581 63.0541 103.327 63.0541 100.954V94.4498H65.0885V106.181H63.055V104.26C62.3058 105.647 60.9145 106.421 59.3404 106.421C56.6406 106.421 55.0906 104.553 55.0906 101.328V94.4498L55.062 94.4507ZM73.7468 106.393C69.3356 106.393 67.4127 103.86 67.4127 100.261C67.4127 96.7143 69.3918 94.1814 72.9727 94.1814C76.6071 94.1814 78.0528 96.6902 78.0528 100.261V101.167H69.4721C69.7646 103.167 71.0462 104.449 73.8262 104.449C75.1925 104.449 76.3413 104.181 77.4115 103.807V105.675C76.4215 106.208 74.9232 106.393 73.7459 106.393H73.7468ZM69.4159 99.4595H75.9935C75.8855 97.2753 74.8964 96.0489 72.8647 96.0489C70.726 96.0489 69.6317 97.4082 69.4159 99.4595ZM90.4267 106.181H88.3959V99.0867C88.3959 96.9827 87.5397 96.0489 85.6159 96.0489C83.7447 96.0489 82.4355 97.3029 82.4355 99.6762V106.208H80.4038V94.4748H82.4355V96.3941C83.1846 95.0072 84.5742 94.234 86.1492 94.234C88.8489 94.234 90.399 96.1016 90.399 99.3275V106.181H90.4267ZM101.572 105.86C100.879 106.232 99.7816 106.393 98.7122 106.393C94.5177 106.393 92.5672 103.86 92.5672 100.261C92.5672 96.7143 94.5177 94.1814 98.7122 94.1814C99.7816 94.1814 100.582 94.3142 101.52 94.7432V96.6099C100.771 96.2621 99.9697 96.0489 98.8718 96.0489C95.827 96.0489 94.5694 97.9691 94.5694 100.261C94.5694 102.553 95.8555 104.473 98.928 104.473C100.13 104.473 100.879 104.312 101.6 104.048V105.86H101.572ZM109.484 106.393C105.077 106.393 103.15 103.86 103.15 100.261C103.15 96.7143 105.129 94.1814 108.711 94.1814C112.345 94.1814 113.79 96.6902 113.79 100.261V101.167H105.21C105.502 103.167 106.788 104.449 109.568 104.449C110.93 104.449 112.08 104.181 113.149 103.807V105.675C112.159 106.208 110.689 106.393 109.483 106.393H109.484ZM105.182 99.4595H111.759C111.652 97.2753 110.662 96.0489 108.631 96.0489C106.467 96.0489 105.398 97.4082 105.182 99.4595Z" fill="#253858"/>
<defs>
<linearGradient id="paint0_linear_3360_20273" x1="91.8961" y1="89.5107" x2="43.4317" y2="61.6838" gradientUnits="userSpaceOnUse">
<stop stop-color="#0052CC"/>
<stop offset="0.918" stop-color="#2380FB"/>
<stop offset="1" stop-color="#2684FF"/>
</linearGradient>
<linearGradient id="paint1_linear_3360_20273" x1="22.1616" y1="5.681" x2="70.626" y2="33.5111" gradientUnits="userSpaceOnUse">
<stop stop-color="#0052CC"/>
<stop offset="0.918" stop-color="#2380FB"/>
<stop offset="1" stop-color="#2684FF"/>
</linearGradient>
</defs>
</svg>
