<svg width="115" height="115" viewBox="0 0 115 115" fill="none" xmlns="http://www.w3.org/2000/svg">
<path d="M103.762 27.7828L60.6839 2.98869C59.9704 2.54276 58.9893 2.36438 57.9191 2.36438C56.8488 2.36438 55.8678 2.63194 55.1543 2.98869L12.3443 27.872C10.8281 28.7639 9.75781 30.9936 9.75781 32.6882V82.3656C9.75781 83.3467 9.93619 84.5061 10.6497 85.4872L105.902 30.1909C105.367 29.1206 104.564 28.318 103.762 27.7828Z" fill="#9B4F96"/>
<path d="M10.3828 85.3981C10.8288 86.1116 11.4531 86.7359 12.0774 87.0927L55.0658 111.976C55.7793 112.422 56.7603 112.6 57.8306 112.6C58.9008 112.6 59.8819 112.333 60.5954 111.976L103.405 87.0927C104.922 86.2008 105.992 83.9711 105.992 82.2765V32.5991C105.992 31.7964 105.903 30.9045 105.457 30.1018L10.3828 85.3981Z" fill="#68217A"/>
<path d="M76.9165 68.2741C73.1706 74.874 66.0356 79.3333 57.9195 79.3333C45.8792 79.3333 36.0686 69.5227 36.0686 57.4824C36.0686 45.4421 45.8792 35.6314 57.9195 35.6314C66.0356 35.6314 73.1706 40.0908 76.9165 46.7799L88.5109 40.0908C82.4461 29.4775 71.0301 22.2533 57.9195 22.2533C38.4766 22.2533 22.6904 38.0395 22.6904 57.4824C22.6904 76.9253 38.4766 92.7115 57.9195 92.7115C70.9409 92.7115 82.3569 85.5765 88.4217 75.0523L76.9165 68.2741ZM87.3514 59.4445L88.1541 55.6094H84.4082V51.4176H88.9568L90.027 45.888H94.3972L93.327 51.3284H96.7161L97.7864 45.888H102.067L100.997 51.3284H103.138V55.5203H100.194L99.3917 59.3553H103.138V63.5471H98.5891L97.5188 68.8984H93.1486L94.2189 63.5471H90.8297L89.7595 68.8984H85.4785L86.5487 63.5471H84.4082V59.3553H87.3514V59.4445ZM91.6324 59.4445H95.0215L95.8242 55.6094H92.4351L91.6324 59.4445Z" fill="white"/>
</svg>
