<svg width="115" height="115" viewBox="0 0 115 115" fill="none" xmlns="http://www.w3.org/2000/svg">
<path d="M80.2645 5.62509H73.6789L80.5276 13.0571V16.5952H66.4217V12.4524H73.2695L66.4217 5.0204V1.47876H80.2645V5.62509ZM63.6248 5.62509H57.0392L63.8879 13.0571V16.5952H49.7811V12.4524H56.6298L49.7811 5.0204V1.47876H63.6248V5.62509ZM47.1483 5.79455H40.0418V12.2794H47.1483V16.5952H34.9902V1.47876H47.1483V5.79455Z" fill="#131313"/>
<path d="M25.3065 104.49L18.085 23.4956H97.4325L90.2047 104.476L57.7101 113.486L25.3065 104.49Z" fill="#1572B6"/>
<path d="M57.7598 106.6L84.0157 99.3202L90.1928 30.1187H57.7598V106.6Z" fill="#33A9DC"/>
<path d="M57.7598 59.4622H70.9042L71.8131 49.2904H57.7598V39.3567H82.669L82.4308 42.0216L79.9898 69.3951H57.7598V59.4622Z" fill="white"/>
<path d="M57.8191 85.2607L57.7754 85.2732L46.7126 82.2854L46.0045 74.3629H36.0342L37.4264 89.96L57.7736 95.6083L57.82 95.5949V85.2607H57.8191Z" fill="#EBEBEB"/>
<path d="M70.06 68.975L68.8631 82.2782L57.7842 85.2686V95.6037L78.1484 89.9599L78.2982 88.2814L80.0267 68.975H70.06Z" fill="white"/>
<path d="M57.7934 39.3567V49.2895H33.7993L33.5995 47.0571L33.1473 42.0216L32.9092 39.3567H57.7934ZM57.7586 59.4631V69.3968H46.8358L46.6369 67.1645L46.1839 62.1281L45.9457 59.4631H57.7586Z" fill="#EBEBEB"/>
</svg>
