<svg width="115" height="115" viewBox="0 0 115 115" fill="none" xmlns="http://www.w3.org/2000/svg">
<g clip-path="url(#clip0_3360_20319)">
<path d="M14.2991 37.38H20.5423V66.2795C17.3404 66.8877 14.9886 67.1312 12.4351 67.1312C4.81315 67.1312 0.839844 63.685 0.839844 57.0762C0.839844 50.7118 5.05663 46.577 11.5834 46.577C12.5965 46.577 13.3671 46.6573 14.2991 46.9008V37.38ZM14.2991 51.9265C13.5696 51.6839 12.9613 51.6027 12.1916 51.6027C9.02905 51.6027 7.20516 53.5488 7.20516 56.954C7.20516 60.278 8.94789 62.1028 12.1506 62.1028C12.84 62.1028 13.4082 62.0618 14.3 61.9405L14.2991 51.9265Z" fill="#092E20"/>
<path d="M30.4753 47.0211V61.4945C30.4753 66.4801 30.1105 68.8721 29.0162 70.9395C28.0021 72.9275 26.6643 74.1832 23.9075 75.562L18.1104 72.8053C20.8671 71.5076 22.2041 70.3731 23.0558 68.6295C23.9477 66.8458 24.2331 64.7784 24.2331 59.3451V47.0211H30.4753ZM24.2322 37.413H30.4753V43.8184H24.2322V37.413ZM34.2471 48.4401C37.003 47.1433 39.6384 46.5761 42.5174 46.5761C45.7193 46.5761 47.8276 47.4269 48.7605 49.0894C49.2868 50.0214 49.4491 51.2379 49.4491 53.8324V66.5211C46.6522 66.9269 43.1257 67.2105 40.5303 67.2105C35.3013 67.2105 32.9494 65.3858 32.9494 61.3322C32.9494 56.9531 36.0709 54.9267 43.733 54.2774V52.8995C43.733 51.7641 43.1658 51.3592 41.5845 51.3592C39.2746 51.3592 36.6792 52.0076 34.2462 53.2652V48.4401H34.2471ZM44.0167 58.3729C39.8819 58.7778 38.5441 59.4271 38.5441 61.0486C38.5441 62.2642 39.3147 62.8323 41.0173 62.8323C41.9493 62.8323 42.801 62.752 44.0167 62.5487V58.3729ZM52.4913 47.9942C56.1801 47.022 59.2205 46.5761 62.3019 46.5761C65.5046 46.5761 67.8155 47.3048 69.1943 48.7246C70.492 50.0624 70.8969 51.5207 70.8969 54.6431V66.8859H64.6538V54.8875C64.6538 52.4955 63.8422 51.6036 61.6125 51.6036C60.7616 51.6036 59.9919 51.6839 58.7344 52.0495V66.8868H52.4913V47.9942ZM73.3228 70.2911C75.5124 71.4264 77.701 71.9535 80.0119 71.9535C84.1056 71.9535 85.8492 70.2911 85.8492 66.3178V66.1965C84.6336 66.8047 83.4171 67.0482 81.7956 67.0482C76.3222 67.0482 72.8358 63.4397 72.8358 57.7236C72.8358 50.6288 77.9846 46.6153 87.1059 46.6153C89.7815 46.6153 92.2546 46.899 95.2549 47.5072L93.1171 52.0112C91.4546 51.6865 92.9833 51.9666 91.7275 51.8453V52.4946L91.8078 55.1292L91.8488 58.5344C91.8899 59.3861 91.8899 60.2378 91.93 61.0887V62.7922C91.93 68.1434 91.4841 70.6558 90.1463 72.7232C88.2002 75.7645 84.836 77.2646 80.052 77.2646C77.619 77.2646 75.5124 76.899 73.3219 76.0481V70.2902L73.3228 70.2911ZM85.7288 51.6419H85.0795C83.8639 51.6018 82.4449 51.9256 81.471 52.5338C79.9717 53.3856 79.2012 54.9258 79.2012 57.1154C79.2012 60.237 80.7414 62.0207 83.4982 62.0207C84.35 62.0207 85.0394 61.8584 85.8492 61.6158V59.4664C85.8492 58.7377 85.8091 57.9261 85.8091 57.0753L85.7689 54.1972L85.7279 52.1289V51.6428L85.7288 51.6419ZM104.947 46.4949C111.19 46.4949 115.001 50.4272 115.001 56.7916C115.001 63.3193 111.029 67.4139 104.703 67.4139C98.4603 67.4139 94.6092 63.4807 94.6092 57.1573C94.6092 50.5886 98.5825 46.494 104.947 46.494V46.4949ZM104.825 62.3864C107.217 62.3864 108.637 60.3993 108.637 56.954C108.637 53.5488 107.258 51.5215 104.867 51.5215C102.393 51.5215 100.974 53.5086 100.974 56.9531C100.974 60.4002 102.393 62.3864 104.825 62.3864Z" fill="#092E20"/>
</g>
<defs>
<clipPath id="clip0_3360_20319">
<rect width="114.16" height="114.16" fill="white" transform="translate(0.839844 0.24231)"/>
</clipPath>
</defs>
</svg>
