<svg width="115" height="115" viewBox="0 0 115 115" fill="none" xmlns="http://www.w3.org/2000/svg">
<g clip-path="url(#clip0_3360_20324)">
<path d="M77.3729 105.84C77.3729 105.573 77.4621 105.305 77.3729 105.038C77.1945 104.77 77.1053 104.592 76.927 104.413C76.481 103.878 76.0351 103.432 75.5 102.897L70.2379 97.546L74.3405 93.3542L76.5702 90.9461C76.927 90.5893 77.3729 89.8758 77.3729 89.3407V88.984C77.3729 88.1813 77.0162 87.7353 76.2135 87.557L76.3918 87.6462H75.7675C75.2324 87.6462 73.7162 89.0732 73.3595 89.5191C72.0217 90.8569 71.1298 92.1055 69.346 93.4433V82.83C69.346 81.849 68.8109 81.403 67.8298 81.403H67.5623C66.5812 81.403 65.7785 81.849 65.7785 82.83V105.93C65.7785 106.911 66.5812 107.267 67.5623 107.267H67.8298C68.8109 107.267 69.346 106.821 69.346 105.93V101.827L72.0217 104.413C72.8243 105.216 73.627 105.751 74.3405 106.465C74.6973 106.821 75.4108 107.267 75.9459 107.267H76.2135C77.1053 107.267 77.3729 106.821 77.5513 106.108L77.3729 106.197V105.84ZM112.245 87.6462H111.888C109.926 87.6462 108.143 88.1813 106.537 89.3407C103.862 91.3028 102.345 93.8893 102.345 97.2784V106.019C102.345 107 102.702 107.267 103.683 107.267H103.951C104.932 107.267 105.913 106.911 105.913 106.019V97.8135C105.913 96.0298 106.27 94.3352 107.607 92.9974C108.678 91.9272 110.016 91.0353 111.532 91.0353C112.691 91.0353 114.029 90.7677 114.029 89.3407C114.029 88.2705 113.226 87.6462 112.245 87.6462ZM98.5104 92.1055C97.5293 90.5002 96.1915 89.2515 94.4969 88.4488C91.3754 86.9327 88.0754 86.7543 85.043 88.538L84.5971 88.8056C83.3485 89.5191 82.2782 90.411 81.4755 91.5704C79.1567 94.9595 78.8891 98.7946 80.9404 102.362L81.1188 102.719C82.0107 104.235 83.1701 105.484 84.6863 106.286C87.897 108.07 91.3754 108.248 94.5861 106.465L94.8537 106.286C95.7455 105.751 95.9239 104.859 95.478 103.967C95.2996 103.611 94.9429 103.343 94.5861 103.165H94.4077C93.7834 103.076 92.0889 103.789 91.4645 104.057C90.2159 104.235 88.7889 104.324 87.5403 103.878L94.3185 97.9919C95.2996 97.1 96.3699 96.119 97.4401 95.3163C98.332 94.6028 99.2239 93.6217 98.5104 92.3731V92.1055ZM92.3564 95.3163L84.7755 101.827C84.5079 101.559 84.3295 101.203 84.1512 100.935C83.616 100.043 83.2593 98.973 83.2593 97.9027C83.1701 95.2271 84.1512 92.9974 86.5592 91.6596C88.343 90.5893 90.3051 90.411 92.2672 91.1245C93.2483 91.4812 94.4077 92.1055 95.032 92.9974C94.1402 93.8001 93.1591 94.5136 92.3564 95.3163ZM20.2929 81.403H20.0253C19.0442 81.403 18.5091 81.7598 18.5091 82.7408V89.965C16.7254 88.3597 14.5849 87.7353 12.0876 87.7353H11.3741C9.67954 87.7353 8.07417 88.0029 6.55798 88.8948C3.34723 90.7677 1.56348 93.5325 1.56348 97.2784V97.9919C1.56348 99.6865 2.00941 101.113 2.90129 102.63C4.77423 105.84 7.71742 107.446 11.3741 107.446H12.0876C13.7822 107.446 15.5659 107.178 16.9929 106.376C20.2037 104.503 22.0766 101.738 22.0766 98.0811V82.9192C22.0766 81.7598 21.2739 81.403 20.2929 81.403ZM17.528 100.846C16.1902 103.076 14.2281 104.324 11.6417 104.324C10.5714 104.324 9.50117 104.057 8.60929 103.522C6.29042 102.273 4.9526 100.222 4.9526 97.546C4.9526 96.5649 5.13098 95.673 5.57692 94.7812C6.82554 92.1947 8.87686 90.7677 11.7309 90.7677C13.1579 90.7677 14.4065 91.2137 15.4767 92.0163C17.3497 93.3542 18.4199 95.1379 18.4199 97.4568C18.5091 98.7054 18.1524 99.7757 17.528 100.846ZM34.2061 87.6462H33.671C31.9764 87.6462 30.2819 87.9137 28.8549 88.8056C25.6441 90.6785 23.8604 93.4433 23.8604 97.1892V97.9027C23.8604 99.5973 24.3063 101.024 25.1982 102.54C27.0711 105.751 30.0143 107.357 33.7602 107.357H34.4737C36.1683 107.357 37.8628 107.089 39.379 106.286C42.5898 104.413 44.4627 101.649 44.4627 97.9919V97.2784C44.4627 95.673 43.9276 94.3352 43.2141 92.9974C41.2519 89.4299 38.1304 87.6462 34.2061 87.6462ZM39.9141 100.846C38.5763 102.986 36.7034 104.324 34.1169 104.324C32.9575 104.324 31.7981 104.057 30.7278 103.432C28.4981 102.095 27.2495 100.222 27.2495 97.6352C27.2495 96.6541 27.4279 95.7622 27.8738 94.8703C29.1224 92.2839 31.1737 90.8569 34.0278 90.8569C35.3656 90.8569 36.525 91.2137 37.5953 91.9272C39.5574 93.265 40.7168 95.1379 40.7168 97.546C40.806 98.6162 40.5384 99.7757 39.9141 100.846ZM61.7651 88.8948L61.6759 88.984C60.1597 88.0029 58.4651 87.6462 56.6814 87.6462H55.9679C54.2733 87.6462 52.5788 87.9137 51.1518 88.8056C47.941 90.6785 46.1573 93.4433 46.1573 97.1V97.8135C46.1573 98.7054 46.3356 99.5081 46.514 100.4C47.941 105.305 51.7761 108.07 56.949 107.713C58.376 107.624 62.211 107.178 62.211 105.038V104.681C62.211 103.878 61.5867 103.165 60.8732 102.986L60.784 102.808H60.1597L59.9813 103.076C59.1786 103.432 57.8408 104.146 56.949 104.146C55.8787 104.146 54.7193 104.146 53.7382 103.611C51.1518 102.362 49.6356 100.311 49.6356 97.4568C49.6356 96.4757 49.8139 95.5838 50.2599 94.692C51.5085 92.1947 53.5598 90.5893 56.4138 90.6785C56.949 90.6785 57.93 90.9461 58.4651 91.2137C58.9111 91.392 60.0705 92.1055 60.6056 92.1055H60.784L60.8732 91.9272C61.6759 91.7488 62.3002 91.1245 62.3002 90.3218V89.965C62.3002 89.6083 62.1218 89.3407 61.9435 89.0732L61.7651 88.8948ZM5.84448 61.0683L5.93367 61.2466C12.9795 73.1978 25.2874 78.1923 38.7547 78.1923C64.7975 78.1923 86.2917 66.5087 96.1023 41.9821C102.702 42.3389 109.48 40.3767 112.691 34.0444L113.494 32.4391L111.888 31.5472C108.053 29.3175 102.97 29.0499 98.6887 30.2986C98.1536 25.6608 95.1212 21.6474 91.5537 18.7934L90.1267 17.6339L88.9673 19.0609C86.5592 21.8257 85.8457 26.4635 86.2025 30.031C86.47 32.6174 87.2727 35.2931 88.8781 37.4336C87.6295 38.1471 86.2917 39.1281 85.043 39.5741C82.5458 40.4659 79.781 41.3578 77.1053 41.3578H71.1298V28.7824H59.5354V6.48547H46.1573V17.188H23.8604V28.7824H12.266V41.2686H2.27698L2.0986 42.6064C1.65266 48.3144 2.36616 53.8441 4.77423 59.1061L5.84448 61.0683ZM59.5354 31.458H69.346V41.2686H59.5354V31.458ZM47.941 8.26922H57.7516V18.0799H47.941V8.26922ZM47.941 19.8636H57.7516V29.6742H47.941V19.8636ZM47.941 31.458H57.7516V41.2686H47.941V31.458ZM36.3466 19.8636H46.1573V29.6742H36.3466V19.8636ZM36.3466 31.458H46.1573V41.2686H36.3466V31.458ZM37.3277 59.2845C37.3277 60.8007 36.0791 62.0493 34.5629 62.0493C33.0467 62.0493 31.7981 60.8007 31.7981 59.2845C31.7981 57.7683 33.0467 56.5197 34.5629 56.5197C36.0791 56.6089 37.3277 57.7683 37.3277 59.2845ZM25.6441 19.8636H34.5629V29.6742H25.6441V19.8636ZM25.6441 31.458H34.5629V41.2686H25.6441V31.458ZM14.0497 31.458H23.8604V41.2686H14.0497V31.458ZM16.1902 65.3493C17.6172 65.3493 19.0442 65.3493 20.3821 65.2601C23.8604 65.0817 26.8927 64.6358 29.39 63.9223C31.4413 68.6492 35.1872 73.0194 41.8763 76.2301L38.7547 76.3193C24.6631 76.2301 17.0821 71.5032 10.839 65.2601C12.7119 65.3493 14.4957 65.3493 16.1902 65.3493ZM34.5629 61.2466C35.6331 61.2466 36.525 60.3548 36.525 59.2845C36.525 59.0169 36.4358 58.7494 36.3466 58.571C36.1683 58.8386 35.9899 59.0169 35.6331 59.0169C35.1872 59.0169 34.8304 58.6602 34.8304 58.2143C34.8304 57.9467 35.0088 57.6791 35.1872 57.5008C35.098 57.4116 34.8304 57.3224 34.5629 57.3224C33.4926 57.3224 32.6007 58.2143 32.6007 59.2845C32.6899 60.3548 33.4926 61.2466 34.5629 61.2466Z" fill="#019BC6"/>
</g>
<defs>
<clipPath id="clip0_3360_20324">
<rect width="114.16" height="114.16" fill="white" transform="translate(0.671875 0.24231)"/>
</clipPath>
</defs>
</svg>
