<svg width="115" height="115" viewBox="0 0 115 115" fill="none" xmlns="http://www.w3.org/2000/svg">
<path d="M60.1122 90.4948H55.6447L55.6528 98.8526C55.6528 101.295 54.6048 103.272 52.1629 103.272C49.72 103.272 48.6631 101.295 48.6631 98.8526V90.5028H44.2073L44.2064 98.8526C44.2064 103.679 47.3093 107.591 52.137 107.591C56.9621 107.591 60.1104 103.679 60.1104 98.8526L60.1122 90.4948ZM100.388 85.4022H104.833V107.16H100.388V85.4022ZM40.5747 90.3138C36.7432 89.429 34.3262 93.2355 34.2264 93.4398C34.1764 93.5397 34.1746 93.5985 34.0043 93.5941C33.8651 93.5905 33.8482 93.4398 33.8482 93.4398L33.3728 90.5269H29.3924V107.144H33.8553V98.1498C33.8553 97.4167 35.8344 93.892 39.6695 94.799C41.6093 95.2574 42.4316 96.0797 42.4316 96.0797V91.0174C41.7137 90.6438 41.2213 90.4627 40.5747 90.3138ZM66.1689 112.619V106.64L66.1707 106.64V104.402C66.1707 104.402 66.1787 104.223 66.3392 104.22C66.4828 104.218 66.5149 104.314 66.5506 104.402C66.8886 105.243 68.7491 108.452 72.8802 107.445C76.578 106.403 79.2902 103.008 79.2902 98.9765C79.2902 94.1194 75.3498 90.1791 70.4918 90.1791C65.6329 90.1791 61.6935 94.1194 61.6935 98.9765V112.618L66.1689 112.619ZM70.4954 94.5252C71.6764 94.525 72.8092 94.9939 73.6445 95.8289C74.4798 96.6638 74.9492 97.7964 74.9494 98.9774C74.9496 100.158 74.4807 101.291 73.6457 102.127C72.8108 102.962 71.6782 103.431 70.4971 103.431C69.9124 103.432 69.3333 103.317 68.7929 103.093C68.2526 102.869 67.7616 102.541 67.348 102.128C66.5128 101.293 66.0434 100.16 66.0431 98.9792C66.043 98.3944 66.1581 97.8153 66.3818 97.275C66.6054 96.7347 66.9334 96.2437 67.3468 95.8301C67.7602 95.4165 68.2511 95.0884 68.7913 94.8645C69.3315 94.6406 69.9106 94.5253 70.4954 94.5252ZM94.1096 107.153H98.585V98.9765C98.585 94.1194 94.6474 90.18 89.7875 90.18C84.9286 90.18 80.9892 94.1194 80.9892 98.9765C80.9892 103.009 83.7014 106.403 87.3991 107.445C91.5303 108.452 93.3898 105.244 93.7287 104.402C93.7644 104.314 93.7956 104.219 93.9401 104.221C94.1024 104.223 94.1078 104.402 94.1078 104.402M94.2362 98.9765C94.2364 99.5614 94.1214 100.141 93.8977 100.681C93.6741 101.221 93.3462 101.712 92.9327 102.126C92.5193 102.54 92.0284 102.868 91.4882 103.092C90.9479 103.316 90.3688 103.431 89.784 103.431C89.1991 103.432 88.6199 103.317 88.0795 103.093C87.5391 102.869 87.0481 102.541 86.6344 102.128C86.2207 101.715 85.8925 101.224 85.6686 100.683C85.4446 100.143 85.3292 99.5641 85.329 98.9792C85.3287 97.7981 85.7976 96.6651 86.6325 95.8297C87.4675 94.9942 88.6001 94.5247 89.7813 94.5243C90.9625 94.5239 92.0954 94.9928 92.9308 95.8278C93.7663 96.6627 94.2358 97.7954 94.2362 98.9765ZM15.4096 107.118H10.333V85.3942H15.7806C22.3769 85.3942 27.3803 86.6044 27.3803 96.2554C27.3803 105.815 22.0799 107.118 15.4096 107.118ZM16.6225 89.1597H14.8281V103.349L16.6707 103.396C20.4504 103.396 22.8844 103.052 22.8844 96.2545C22.8844 89.7385 20.7358 89.1597 16.6225 89.1597ZM75.2045 17.0783C71.0733 14.5034 67.174 13.4912 63.2765 10.9181C60.8587 9.2815 57.507 5.38222 54.6985 2.02966C54.1535 7.40857 52.5161 9.59188 50.6449 11.1518C46.668 14.2707 44.1726 15.2071 40.7424 17.0792C37.8572 18.5597 22.1851 27.9155 22.1851 48.0308C22.1851 68.1489 39.1049 82.962 57.895 82.962C76.6877 82.962 92.9831 69.3172 92.9831 48.6551C92.9831 27.9931 77.7008 18.6373 75.2045 17.0783ZM75.6567 75.6246C75.266 76.0152 71.6789 78.5089 67.4692 78.8995C63.2578 79.2902 57.5667 79.5238 54.1357 76.405C53.5908 75.8591 53.7468 75.0796 54.1357 74.7684C54.5263 74.4553 54.8385 74.2216 55.3058 74.2216C55.7732 74.2216 55.6965 74.2216 55.9301 74.3777C57.4883 75.6246 59.8276 76.6386 64.8177 76.6386C69.8095 76.6386 73.3173 75.2348 74.8754 74.0656C75.5791 73.5197 75.8894 73.988 75.967 74.3001C76.0455 74.6114 76.2016 75.0787 75.6567 75.6246ZM62.0101 68.5288C62.8689 67.7493 64.2728 66.5025 65.5972 65.9557C66.9216 65.4108 67.6253 65.4884 68.8722 65.4884C70.119 65.4884 71.4443 65.5651 72.3817 66.1903C73.3173 66.8128 73.8631 68.2166 74.1744 68.997C74.4865 69.7765 74.1744 70.243 73.5518 70.5551C73.006 70.8682 72.9275 70.7112 72.3817 69.6989C71.8359 68.684 71.3667 67.6708 68.6385 67.6708C65.9084 67.6708 65.0523 68.6073 63.726 69.6989C62.4007 70.7906 61.9334 71.1804 61.466 70.5551C60.9978 69.9326 61.153 69.3083 62.0101 68.5288ZM82.6739 69.1531C79.8672 68.9194 74.2519 60.1862 70.6648 60.0301C66.1439 59.874 56.3181 69.4644 48.5998 69.4644C43.9228 69.4644 42.5181 68.7634 40.9591 67.7493C38.6197 66.1118 37.4505 63.6164 37.5281 60.1862C37.6075 54.1045 43.2985 48.4125 50.471 48.3341C59.594 48.2583 65.9094 57.3804 70.5105 57.3019C74.4089 57.2243 81.8944 49.5836 85.5583 49.5836C89.4566 49.5836 90.5501 53.638 90.5501 56.055C90.5501 58.472 89.7688 62.8377 87.8977 65.566C86.0256 68.2951 84.8564 69.3083 82.6739 69.1531Z" fill="#0073BA"/>
</svg>
