<svg width="115" height="115" viewBox="0 0 115 115" fill="none" xmlns="http://www.w3.org/2000/svg">
<g clip-path="url(#clip0_3360_20332)">
<path fill-rule="evenodd" clip-rule="evenodd" d="M57.4156 1.5907C36.4627 1.5907 19.4707 18.5783 19.4707 39.5355C19.4707 56.3001 30.3427 70.5238 45.4198 75.5406C47.316 75.892 48.0125 74.7174 48.0125 73.7149C48.0125 72.8105 47.9768 69.821 47.9608 66.6512C37.4036 68.946 35.1766 62.174 35.1766 62.174C33.4509 57.7878 30.9634 56.6212 30.9634 56.6212C27.5208 54.2667 31.2221 54.3148 31.2221 54.3148C35.033 54.5824 37.0398 58.2257 37.0398 58.2257C40.4235 64.0265 45.9166 62.3488 48.0812 61.3794C48.4228 58.9267 49.4056 57.2518 50.491 56.3046C42.0628 55.3458 33.2029 52.0914 33.2029 37.552C33.2029 33.4093 34.6852 30.0246 37.1129 27.3668C36.7187 26.4107 35.4201 22.5507 37.4803 17.3243C37.4803 17.3243 40.6661 16.3058 47.9153 21.2155C50.9432 20.3745 54.1896 19.9526 57.4138 19.9384C60.6388 19.9535 63.887 20.3754 66.9194 21.2155C74.1614 16.3066 77.3436 17.3252 77.3436 17.3252C79.4092 22.5516 78.1106 26.4107 77.7164 27.3677C80.1495 30.0237 81.6211 33.4093 81.6211 37.5529C81.6211 52.1262 72.7442 55.3351 64.2946 56.2734C65.6556 57.4507 66.8685 59.7606 66.8685 63.3014C66.8685 68.3779 66.8257 72.4636 66.8257 73.7131C66.8257 74.7209 67.5089 75.9053 69.4318 75.5325C84.5009 70.5095 95.3586 56.2912 95.3586 39.532C95.3604 18.5791 78.372 1.5907 57.4156 1.5907Z" fill="#181616"/>
<path d="M33.8433 56.0701C33.7586 56.2592 33.4616 56.3154 33.1923 56.1861C32.9158 56.0612 32.7624 55.8052 32.8516 55.6152C32.9318 55.4226 33.2297 55.3682 33.5053 55.4975C33.7818 55.6224 33.9388 55.881 33.8442 56.0701H33.8433ZM35.38 57.7861C35.199 57.9529 34.8449 57.8753 34.6041 57.6095C34.3562 57.3446 34.3098 56.9905 34.4935 56.8211C34.679 56.6534 35.0224 56.7319 35.2694 56.9968C35.5192 57.2643 35.5682 57.6148 35.3791 57.7852L35.38 57.7861ZM36.8757 59.9694C36.6438 60.1317 36.263 59.9801 36.0284 59.6421C35.7948 59.3058 35.7948 58.9018 36.0329 58.7386C36.2683 58.5763 36.6429 58.7225 36.8802 59.057C37.1138 59.4004 37.1138 59.8062 36.8757 59.9703V59.9694ZM38.9252 62.0813C38.7174 62.3106 38.2742 62.249 37.9504 61.936C37.6186 61.6301 37.5268 61.1957 37.7346 60.9665C37.946 60.7373 38.391 60.8015 38.7174 61.1119C39.0474 61.4169 39.1473 61.8521 38.9252 62.0805V62.0813ZM41.7543 63.3068C41.6615 63.6047 41.2352 63.7393 40.8053 63.6136C40.3754 63.4834 40.0954 63.1355 40.181 62.8359C40.2702 62.5362 40.7001 62.3962 41.1326 62.5308C41.5607 62.6593 41.8417 63.0035 41.7534 63.3068H41.7543ZM44.858 63.5342C44.8696 63.8464 44.5048 64.1068 44.0535 64.1121C43.6004 64.1228 43.233 63.8696 43.2276 63.561C43.2276 63.2452 43.5844 62.9884 44.0375 62.9813C44.4888 62.9723 44.858 63.2238 44.858 63.5342ZM47.7477 63.0428C47.8012 63.3478 47.489 63.6617 47.0404 63.7447C46.5998 63.8267 46.1931 63.6377 46.136 63.3344C46.0825 63.0223 46.4009 62.7101 46.8406 62.6281C47.2892 62.5496 47.6906 62.7333 47.7477 63.0437V63.0428Z" fill="#181616"/>
<path d="M22.503 96.8342H12.9599C12.8416 96.8342 12.7282 96.8812 12.6446 96.9649C12.5609 97.0485 12.514 97.1619 12.514 97.2802V101.946C12.514 102.065 12.5609 102.178 12.6446 102.262C12.7282 102.345 12.8416 102.392 12.9599 102.392H16.6817V108.19C16.6817 108.19 15.846 108.475 13.5334 108.475C10.8078 108.475 6.9986 107.48 6.9986 99.1032C6.9986 90.7258 10.9657 89.6225 14.6901 89.6225C17.9134 89.6225 19.3011 90.1898 20.1859 90.4636C20.4624 90.5474 20.721 90.2709 20.721 90.0248L21.785 85.5163C21.7867 85.4488 21.772 85.3819 21.7422 85.3213C21.7124 85.2608 21.6683 85.2083 21.6138 85.1685C21.2543 84.9116 19.0657 83.688 13.5352 83.688C7.16359 83.688 0.62793 86.3975 0.62793 99.4296C0.62793 112.46 8.11077 114.402 14.4163 114.402C19.6374 114.402 22.8044 112.17 22.8044 112.17C22.9346 112.099 22.9489 111.916 22.9489 111.831V97.2793C22.9489 97.161 22.9019 97.0476 22.8183 96.964C22.7347 96.8803 22.6212 96.8333 22.503 96.8333V96.8342ZM71.2449 84.8011H65.8704C65.8118 84.8013 65.7538 84.8131 65.6997 84.8358C65.6456 84.8584 65.5965 84.8916 65.5553 84.9332C65.514 84.9749 65.4814 85.0243 65.4593 85.0786C65.4371 85.1329 65.4259 85.191 65.4263 85.2497L65.428 95.6347H57.0515V85.2497C57.0519 85.1911 57.0407 85.133 57.0186 85.0788C56.9965 85.0246 56.964 84.9752 56.9228 84.9336C56.8817 84.8919 56.8327 84.8588 56.7787 84.836C56.7248 84.8133 56.6669 84.8014 56.6083 84.8011H51.2347C51.1761 84.8013 51.1181 84.8131 51.064 84.8358C51.0099 84.8584 50.9609 84.8916 50.9196 84.9332C50.8784 84.9749 50.8457 85.0243 50.8236 85.0786C50.8014 85.1329 50.7902 85.191 50.7906 85.2497V113.371C50.7906 113.618 50.9904 113.819 51.2347 113.819H56.6083C56.6669 113.819 56.7249 113.807 56.7789 113.784C56.833 113.761 56.882 113.728 56.9231 113.686C56.9643 113.645 56.9969 113.595 57.0189 113.541C57.0409 113.486 57.052 113.428 57.0515 113.37V101.342H65.428L65.4138 113.37C65.4138 113.618 65.6136 113.819 65.8597 113.819H71.2449C71.3035 113.819 71.3615 113.807 71.4155 113.784C71.4695 113.761 71.5185 113.728 71.5597 113.686C71.6009 113.645 71.6334 113.595 71.6555 113.541C71.6775 113.486 71.6886 113.428 71.6881 113.37V85.2488C71.6887 85.1902 71.6777 85.1321 71.6557 85.0778C71.6337 85.0235 71.6011 84.9741 71.5599 84.9325C71.5187 84.8908 71.4696 84.8578 71.4155 84.8352C71.3615 84.8127 71.3034 84.801 71.2449 84.8011ZM29.1787 85.4405C27.2665 85.4405 25.7146 87.004 25.7146 88.9394C25.7146 90.872 27.2665 92.44 29.1787 92.44C31.0926 92.44 32.6436 90.872 32.6436 88.9394C32.6436 87.004 31.0917 85.4405 29.1787 85.4405ZM31.815 94.0097H26.4584C26.2123 94.0097 25.9929 94.263 25.9929 94.5091V113.107C25.9929 113.653 26.3336 113.816 26.7742 113.816H31.5992C32.1299 113.816 32.2592 113.555 32.2592 113.098V94.4583C32.2594 94.3997 32.2481 94.3417 32.2259 94.2875C32.2037 94.2333 32.1711 94.184 32.1298 94.1424C32.0886 94.1009 32.0396 94.0678 31.9856 94.0452C31.9315 94.0226 31.8736 94.0108 31.815 94.0106V94.0097ZM92.1112 94.0516H86.7778C86.7192 94.0521 86.6613 94.0641 86.6074 94.0869C86.5535 94.1097 86.5046 94.143 86.4635 94.1847C86.4224 94.2265 86.3899 94.2759 86.368 94.3302C86.346 94.3845 86.3349 94.4425 86.3354 94.5011V108.289C86.3354 108.289 84.9797 109.279 83.0577 109.279C81.1358 109.279 80.6256 108.408 80.6256 106.525V94.5011C80.6261 94.4425 80.615 94.3843 80.5929 94.33C80.5709 94.2756 80.5384 94.2262 80.4972 94.1844C80.456 94.1426 80.407 94.1094 80.353 94.0866C80.299 94.0638 80.241 94.0519 80.1823 94.0516H74.7704C74.652 94.0525 74.5388 94.1004 74.4555 94.1846C74.3723 94.2689 74.3258 94.3827 74.3263 94.5011V107.435C74.3263 113.027 77.4434 114.395 81.7306 114.395C85.2482 114.395 88.0844 112.451 88.0844 112.451C88.0844 112.451 88.2181 113.477 88.2806 113.597C88.343 113.718 88.5009 113.841 88.673 113.841L92.1156 113.825C92.1744 113.825 92.2326 113.813 92.2868 113.791C92.3411 113.768 92.3903 113.735 92.4317 113.693C92.4731 113.651 92.5059 113.602 92.5282 113.547C92.5505 113.493 92.5618 113.435 92.5616 113.376L92.5589 94.4984C92.5584 94.3801 92.5114 94.2668 92.4279 94.183C92.3444 94.0992 92.2312 94.0516 92.113 94.0507L92.1112 94.0516ZM106.686 93.4201C103.657 93.4201 101.597 94.7713 101.597 94.7713V85.2488C101.598 85.1902 101.586 85.1322 101.564 85.0779C101.542 85.0237 101.51 84.9743 101.468 84.9327C101.427 84.891 101.378 84.8579 101.324 84.8351C101.27 84.8124 101.212 84.8005 101.154 84.8002H95.7661C95.7073 84.8002 95.6491 84.8118 95.5948 84.8344C95.5405 84.8569 95.4912 84.89 95.4498 84.9317C95.4084 84.9734 95.3756 85.0229 95.3533 85.0773C95.3311 85.1317 95.3198 85.19 95.3201 85.2488V113.37C95.3198 113.428 95.3311 113.487 95.3533 113.541C95.3756 113.596 95.4084 113.645 95.4498 113.687C95.4912 113.728 95.5405 113.761 95.5948 113.784C95.6491 113.807 95.7073 113.818 95.7661 113.818H99.5048C99.6743 113.818 99.8009 113.732 99.8946 113.579C99.9864 113.428 100.121 112.282 100.121 112.282C100.121 112.282 102.324 114.369 106.496 114.369C111.393 114.369 114.202 111.886 114.202 103.219C114.202 94.5519 109.716 93.4192 106.685 93.4192L106.686 93.4201ZM104.581 109.263C102.733 109.207 101.478 108.368 101.478 108.368V99.4626C101.478 99.4626 102.716 98.7045 104.234 98.5672C106.154 98.395 108.004 98.9756 108.004 103.556C108.004 108.388 107.171 109.341 104.582 109.263L104.581 109.263ZM47.7787 109.158C47.5442 109.158 46.943 109.254 46.325 109.254C44.345 109.254 43.6734 108.333 43.6734 107.142V99.2343H47.7047C47.7636 99.2343 47.8218 99.2226 47.8762 99.2C47.9305 99.1774 47.9798 99.1442 48.0213 99.1024C48.0627 99.0606 48.0955 99.011 48.1177 98.9565C48.1399 98.902 48.1511 98.8436 48.1506 98.7848V94.4538C48.1509 94.3951 48.1395 94.3369 48.1172 94.2826C48.0949 94.2283 48.0621 94.1789 48.0207 94.1373C47.9792 94.0957 47.93 94.0627 47.8758 94.0402C47.8215 94.0177 47.7634 94.0061 47.7047 94.0061H43.6734L43.6672 88.6816C43.6672 88.4792 43.5637 88.3784 43.33 88.3784H37.8361C37.6238 88.3784 37.5088 88.4729 37.5088 88.6771V94.18C37.5088 94.18 34.7556 94.8445 34.57 94.898C34.4774 94.925 34.396 94.9813 34.3382 95.0585C34.2803 95.1357 34.249 95.2296 34.249 95.3261V98.7839C34.2486 98.8424 34.2598 98.9005 34.2819 98.9547C34.304 99.009 34.3365 99.0583 34.3777 99.1C34.4188 99.1417 34.4678 99.1748 34.5218 99.1975C34.5757 99.2203 34.6337 99.2321 34.6922 99.2325H37.5088V107.552C37.5088 113.733 41.8433 114.339 44.7686 114.339C46.1038 114.339 47.7029 113.911 47.9669 113.813C48.1274 113.753 48.2193 113.588 48.2193 113.409L48.2229 109.605C48.221 109.487 48.1735 109.375 48.0903 109.291C48.0072 109.208 47.8948 109.16 47.7769 109.157L47.7787 109.158Z" fill="#100E0F"/>
</g>
<defs>
<clipPath id="clip0_3360_20332">
<rect width="114.16" height="114.16" fill="white" transform="translate(0.335938 0.24231)"/>
</clipPath>
</defs>
</svg>
