<svg width="115" height="115" viewBox="0 0 115 115" fill="none" xmlns="http://www.w3.org/2000/svg">
<g clip-path="url(#clip0_3360_20342)">
<path d="M98.0571 44.6264L93.4728 30.5169L84.3873 2.55752C83.9208 1.11803 81.8856 1.11803 81.4174 2.55752L72.3318 30.5178H42.1632L33.0777 2.55752C32.6104 1.11803 30.5751 1.11803 30.1077 2.55752L21.0222 30.5178L16.438 44.6273C16.2342 45.2545 16.2342 45.9302 16.438 46.5574C16.6418 47.1847 17.0389 47.7313 17.5724 48.119L57.2475 76.9435L96.9226 48.1181C97.4561 47.7304 97.8532 47.1838 98.057 46.5565C98.2608 45.9293 98.2608 45.2536 98.0571 44.6264Z" fill="#FC6D26"/>
<path d="M57.2484 76.9436L72.3326 30.5179H42.1641L57.2484 76.9436Z" fill="#E24329"/>
<path d="M57.2478 76.9436L42.1635 30.5179H21.0225L57.2478 76.9436Z" fill="#FC6D26"/>
<path d="M21.023 30.5179L16.4387 44.6274C16.2352 45.2545 16.2353 45.93 16.4391 46.557C16.6428 47.1841 17.0398 47.7306 17.5732 48.1182L57.2483 76.9436L21.023 30.5179Z" fill="#FCA326"/>
<path d="M21.0225 30.5178H42.1635L33.0779 2.55575C32.6106 1.11716 30.5753 1.11716 30.108 2.55575L21.0225 30.5178Z" fill="#E24329"/>
<path d="M57.248 76.9436L72.3323 30.5179H93.4734L57.248 76.9436Z" fill="#FC6D26"/>
<path d="M93.4734 30.5179L98.0576 44.6274C98.2612 45.2545 98.261 45.93 98.0573 46.557C97.8535 47.1841 97.4565 47.7306 96.9231 48.1182L57.248 76.9436L93.4734 30.5179Z" fill="#FCA326"/>
<path d="M93.473 30.5178H72.332L81.4176 2.55575C81.8849 1.11716 83.9202 1.11716 84.3875 2.55575L93.473 30.5178Z" fill="#E24329"/>
<path d="M58.4848 84.0634H54.4803L54.4937 113.857H70.6901V110.173H58.4964L58.483 84.0634H58.4848ZM86.1116 108.626C85.4701 109.293 84.6997 109.822 83.8472 110.182C82.9948 110.541 82.078 110.724 81.1527 110.718C78.1043 110.718 76.8762 109.216 76.8762 107.26C76.8762 104.304 78.923 102.894 83.2906 102.894C84.1093 102.894 85.4284 102.985 86.1107 103.121V108.624L86.1116 108.626ZM81.9715 90.5679C78.7393 90.5679 75.7729 91.7139 73.4603 93.6207L74.8757 96.0707C76.5132 95.1164 78.5146 94.1603 81.3811 94.1603C84.6569 94.1603 86.1125 95.8433 86.1125 98.6643V100.118C85.4757 99.9825 84.1566 99.8915 83.3387 99.8915C76.3313 99.8915 72.7834 102.349 72.7834 107.489C72.7834 112.082 75.6035 114.402 79.88 114.402C82.7608 114.402 85.5211 113.082 86.4763 110.945L87.205 113.857H90.026V98.6188C90.026 93.7973 87.9328 90.5679 81.9724 90.5679H81.9715ZM102.942 110.854C101.441 110.854 100.121 110.673 99.1205 110.218V96.4364C100.485 95.2993 102.168 94.4805 104.306 94.4805C108.173 94.4805 109.675 97.2096 109.675 101.622C109.675 107.898 107.263 110.854 102.941 110.854M104.623 90.5679C101.045 90.5679 99.1205 93.0027 99.1205 93.0027V89.1587L99.1071 84.0634H95.1953L95.2078 113.13C97.1637 113.947 99.8482 114.402 102.759 114.402C110.219 114.402 113.813 109.626 113.813 101.393C113.813 94.889 110.493 90.5679 104.623 90.5679ZM14.9658 87.2929C18.5154 87.2929 20.7897 88.4755 22.2898 89.6581L24.0112 86.6793C21.6655 84.6226 18.511 83.5176 15.1459 83.5176C6.6392 83.5176 0.679688 88.7038 0.679688 99.1655C0.679688 110.126 7.11011 114.402 14.4645 114.402C18.1497 114.402 21.2891 113.537 23.336 112.674L23.2522 100.962V97.2783H12.3329V100.962H19.294L19.3779 109.854C18.4681 110.309 16.8753 110.673 14.7365 110.673C8.8234 110.673 4.86348 106.953 4.86348 99.1192C4.86526 91.1592 8.95986 87.2929 14.9649 87.2929M43.1205 84.0634H39.2078L39.2203 89.0668V106.35C39.2203 111.173 41.3135 114.402 47.2739 114.402C48.0963 114.402 48.9016 114.327 49.6838 114.186V110.672C49.0817 110.763 48.4734 110.809 47.8644 110.809C44.5876 110.809 43.1321 109.127 43.1321 106.307V94.3886H49.6829V91.1137H43.1312L43.1187 84.0634H43.1205ZM29.2804 113.857H33.193V91.1137H29.2786V113.857H29.2804ZM29.2804 87.9761H33.193V84.0634H29.2786V87.9752L29.2804 87.9761Z" fill="#5C5C5C"/>
</g>
<defs>
<clipPath id="clip0_3360_20342">
<rect width="114.16" height="114.16" fill="white" transform="translate(0.167969 0.24231)"/>
</clipPath>
</defs>
</svg>
