<svg width="115" height="115" viewBox="0 0 115 115" fill="none" xmlns="http://www.w3.org/2000/svg">
<path d="M31.5612 64.27L28.9863 62.7877L57.6619 13.3511L60.2332 14.828L31.5612 64.27Z" fill="#E434AA"/>
<path d="M28.3975 58.8386H85.7451V61.7996H28.3975V58.8386Z" fill="#E434AA"/>
<path d="M58.215 76.9882L29.5322 60.5028L31.0163 57.9386L59.7026 74.425L58.215 76.9882ZM83.1357 34.0185L54.4486 17.5331L55.9362 14.9725L84.6198 31.458L83.1357 34.0185Z" fill="#E434AA"/>
<path d="M31.0231 34.0087L29.5391 31.4472L58.2254 14.9618L59.7094 17.5224L31.0231 34.0087Z" fill="#E434AA"/>
<path d="M82.6067 64.27L53.932 14.828L56.5059 13.3511L85.1824 62.7877L82.6067 64.27ZM30.6719 29.4869H33.6445V62.4578H30.6719V29.4869Z" fill="#E434AA"/>
<path d="M80.5156 29.4869H83.4874V62.4578H80.5156V29.4869Z" fill="#E434AA"/>
<path d="M57.7106 75.7351L56.4111 73.4983L81.3596 59.1587L82.659 61.3946L57.7106 75.7351Z" fill="#E434AA"/>
<path d="M87.4275 63.4192C85.7107 66.398 81.8783 67.4121 78.8887 65.7015C78.1784 65.2954 77.5553 64.7529 77.0553 64.1052C76.5553 63.4575 76.1882 62.7174 75.9752 61.9273C75.7622 61.1373 75.7075 60.313 75.8141 59.5017C75.9207 58.6905 76.1867 57.9083 76.5966 57.2001C78.3144 54.2213 82.1458 53.2081 85.1354 54.9187C88.1455 56.6463 89.1667 60.4439 87.4275 63.4183M37.5458 34.7436C35.8281 37.7189 31.9957 38.7356 29.0061 37.025C28.2958 36.6185 27.6729 36.0757 27.173 35.4277C26.6731 34.7797 26.3061 34.0394 26.0931 33.2492C25.8801 32.4591 25.8254 31.6346 25.9319 30.8232C26.0384 30.0118 26.3042 29.2294 26.714 28.521C28.4317 25.5457 32.2641 24.528 35.2528 26.2387C38.2424 27.9707 39.2627 31.7647 37.5449 34.7436M26.7318 63.4192C25.0105 60.4439 26.0317 56.6463 29.0239 54.9187C32.0135 53.2081 35.8281 54.2213 37.5628 57.2001C39.2841 60.1754 38.2629 63.973 35.2706 65.7015C32.2641 67.4121 28.4487 66.3971 26.7318 63.4183M76.6135 34.7436C74.8967 31.7647 75.9179 27.9707 78.9057 26.2387C81.8952 24.528 85.7107 25.5457 87.4454 28.521C89.1667 31.4998 88.1455 35.2939 85.1532 37.025C82.1637 38.7356 78.3313 37.7189 76.6135 34.7436ZM57.0797 80.8696C53.6237 80.8696 50.8294 78.0896 50.8294 74.6479C50.8294 71.2088 53.6237 68.4288 57.0797 68.4288C60.5357 68.4288 63.3299 71.2088 63.3299 74.6479C63.3299 78.0691 60.5357 80.8696 57.0797 80.8696ZM57.0797 23.5149C53.6237 23.5149 50.8294 20.7349 50.8294 17.2923C50.8294 13.8541 53.6237 11.0741 57.0797 11.0741C60.5357 11.0741 63.3299 13.8541 63.3299 17.2923C63.3299 20.7349 60.5357 23.5149 57.0797 23.5149ZM95.0959 108.612C95.0223 108.616 94.9487 108.605 94.8797 108.579C94.8106 108.553 94.7476 108.514 94.6945 108.462C94.6431 108.41 94.603 108.347 94.5767 108.278C94.5505 108.209 94.5387 108.135 94.542 108.061V91.5935C94.542 91.4258 94.5938 91.2903 94.6954 91.1895C94.7484 91.1385 94.8113 91.0989 94.8801 91.0731C94.949 91.0474 95.0224 91.036 95.0959 91.0397H95.5775C95.7443 91.0397 95.8798 91.0878 95.9806 91.1895C96.0317 91.2432 96.0713 91.3067 96.097 91.3761C96.1228 91.4456 96.1342 91.5195 96.1305 91.5935V107.107H104.833C105.018 107.107 105.161 107.156 105.261 107.257C105.363 107.358 105.411 107.501 105.411 107.682V108.062C105.415 108.135 105.404 108.209 105.378 108.278C105.352 108.347 105.312 108.409 105.261 108.462C105.161 108.563 105.018 108.612 104.833 108.612H95.0959ZM89.271 110.243C89.1809 110.244 89.0917 110.225 89.0093 110.188C88.927 110.152 88.8535 110.098 88.7939 110.03C88.6805 109.913 88.571 109.792 88.4657 109.667L87.3544 108.135C86.3475 108.619 85.1702 108.863 83.8252 108.863C82.4286 108.863 81.2442 108.616 80.2684 108.124C79.2927 107.629 78.5436 106.867 78.0245 105.839C77.5018 104.808 77.2165 103.508 77.1683 101.934C77.1505 101.181 77.1397 100.477 77.1397 99.8255C77.1397 99.1745 77.1505 98.4699 77.1674 97.718C77.2165 96.1608 77.5197 94.8685 78.0735 93.8366C78.6274 92.8092 79.3971 92.043 80.3835 91.5409C81.3654 91.0397 82.5124 90.7882 83.8261 90.7882C85.1354 90.7882 86.2815 91.0397 87.2679 91.5409C88.2498 92.043 89.0231 92.8092 89.5877 93.8366C90.1495 94.8685 90.4483 96.1608 90.4831 97.718C90.514 98.4201 90.5303 99.1228 90.5322 99.8255C90.5322 100.477 90.5143 101.181 90.4831 101.934C90.3993 104.327 89.783 106.087 88.6405 107.208L90.2566 109.465C90.2769 109.492 90.2934 109.522 90.3056 109.553C90.3234 109.594 90.3297 109.658 90.3297 109.741C90.3304 109.806 90.3174 109.872 90.2917 109.932C90.2659 109.993 90.2278 110.048 90.1799 110.093C90.1346 110.14 90.08 110.178 90.0196 110.204C89.9592 110.23 89.8941 110.243 89.8285 110.243H89.271ZM83.8252 107.358C85.271 107.358 86.459 106.922 87.3927 106.052C88.3265 105.18 88.8251 103.766 88.8947 101.808C88.9259 101.055 88.9437 100.394 88.9437 99.8255C88.9437 99.2583 88.9259 98.5956 88.8947 97.8438C88.859 96.5372 88.6191 95.4741 88.1731 94.6553C87.7272 93.8339 87.1314 93.2373 86.3823 92.8582C85.6375 92.4818 84.7831 92.2936 83.8252 92.2936C82.8816 92.2936 82.0379 92.4809 81.2896 92.8582C80.5405 93.2381 79.9447 93.8339 79.4988 94.6553C79.0528 95.4741 78.8049 96.5372 78.7567 97.8438C78.7389 98.5956 78.7282 99.2583 78.7282 99.8255C78.7282 100.394 78.7389 101.056 78.7567 101.808C78.8227 103.766 79.3275 105.18 80.2684 106.052C81.2094 106.922 82.3938 107.358 83.8252 107.358ZM63.1935 108.612C63.12 108.616 63.0466 108.605 62.9778 108.579C62.9089 108.553 62.846 108.513 62.793 108.462C62.7414 108.41 62.7011 108.347 62.6747 108.278C62.6484 108.209 62.6364 108.135 62.6396 108.061V91.3384C62.6396 91.1717 62.6923 91.0397 62.793 90.938C62.8461 90.8869 62.9091 90.8472 62.9782 90.8215C63.0472 90.7957 63.1208 90.7844 63.1944 90.7882H63.6225C63.7928 90.7882 63.9257 90.8372 64.0265 90.938C64.0782 90.9909 64.1184 91.0537 64.1448 91.1228C64.1712 91.1918 64.1831 91.2655 64.1799 91.3393V97.289C64.6289 96.7068 65.1907 96.2212 65.8317 95.8611C66.4792 95.4919 67.3389 95.3073 68.4163 95.3073C69.5588 95.3073 70.514 95.5543 71.2766 96.0493C72.0436 96.5399 72.6144 97.2088 72.9943 98.056C73.3707 98.9033 73.5615 99.8603 73.5615 100.931V108.062C73.5648 108.136 73.5529 108.209 73.5267 108.278C73.5004 108.347 73.4604 108.41 73.409 108.462C73.3554 108.514 73.2918 108.554 73.2222 108.579C73.1525 108.605 73.0783 108.616 73.0041 108.612H72.576C72.502 108.616 72.4281 108.605 72.3586 108.579C72.2892 108.553 72.2257 108.513 72.172 108.462C72.1209 108.409 72.0812 108.346 72.0555 108.277C72.0297 108.208 72.0184 108.135 72.0222 108.061V101.055C72.0222 99.7176 71.6948 98.6652 71.0393 97.9062C70.3811 97.1428 69.4232 96.7637 68.1621 96.7637C66.9706 96.7637 66.0091 97.1428 65.2769 97.9053C64.5456 98.6652 64.1799 99.7176 64.1799 101.055V108.062C64.183 108.136 64.171 108.209 64.1446 108.278C64.1182 108.347 64.078 108.41 64.0265 108.462C63.973 108.514 63.9095 108.554 63.84 108.579C63.7705 108.605 63.6965 108.616 63.6225 108.612H63.1935ZM48.5444 113.381C48.4704 113.385 48.3964 113.374 48.3269 113.348C48.2574 113.322 48.1939 113.283 48.1404 113.231C48.0889 113.179 48.0487 113.116 48.0223 113.047C47.9959 112.978 47.9839 112.905 47.987 112.831V96.1118C47.987 95.945 48.0387 95.8085 48.1404 95.7077C48.1939 95.6564 48.2574 95.6167 48.3269 95.5909C48.3964 95.5651 48.4704 95.5539 48.5444 95.5579H48.9725C49.1402 95.5579 49.2758 95.607 49.3765 95.7077C49.4276 95.7614 49.4672 95.8249 49.4929 95.8944C49.5187 95.9638 49.5301 96.0378 49.5264 96.1118V97.289C49.9482 96.7218 50.4985 96.2482 51.1781 95.8709C51.8604 95.4955 52.7211 95.3073 53.7628 95.3073C54.7563 95.3073 55.5885 95.4776 56.2609 95.8228C56.907 96.1422 57.4681 96.6101 57.8984 97.1883C58.3203 97.7591 58.6298 98.3941 58.8322 99.0969C59.0338 99.8015 59.1417 100.519 59.1595 101.258C59.1774 101.509 59.1836 101.784 59.1836 102.087C59.1836 102.386 59.1774 102.662 59.1595 102.912C59.1437 103.643 59.0337 104.369 58.8322 105.072C58.6298 105.777 58.3203 106.41 57.8984 106.981C57.4682 107.56 56.9071 108.028 56.2609 108.347C55.5885 108.693 54.7563 108.863 53.7637 108.863C52.7211 108.863 51.8604 108.671 51.1772 108.285C50.4994 107.901 49.9482 107.431 49.5273 106.88V112.831C49.531 112.905 49.5195 112.978 49.4936 113.047C49.4676 113.116 49.4278 113.179 49.3765 113.232C49.3228 113.283 49.2593 113.323 49.1898 113.348C49.1204 113.374 49.0464 113.385 48.9725 113.381H48.5444ZM53.613 107.406C54.6029 107.406 55.3869 107.191 55.9586 106.755C56.5294 106.32 56.9593 105.726 57.1947 105.048C57.4453 104.344 57.5881 103.592 57.6228 102.787C57.6368 102.319 57.6368 101.851 57.6228 101.383C57.5945 100.612 57.4501 99.8497 57.1947 99.1218C56.9581 98.4441 56.528 97.8507 55.9577 97.4148C55.3869 96.9796 54.6021 96.7637 53.613 96.7637C52.6551 96.7637 51.8818 96.9903 51.2932 97.4389C50.7155 97.8776 50.2666 98.4639 49.9937 99.1361C49.722 99.786 49.564 100.478 49.5264 101.181C49.5085 101.432 49.5023 101.759 49.5023 102.16C49.5023 102.561 49.5094 102.888 49.5264 103.139C49.5442 103.808 49.6976 104.47 49.9937 105.121C50.2861 105.776 50.748 106.34 51.3315 106.755C51.9273 107.191 52.6872 107.406 53.613 107.406ZM37.9775 108.864C37.2042 108.872 36.4397 108.7 35.7442 108.362C35.0949 108.051 34.529 107.59 34.0934 107.017C33.6774 106.473 33.4554 105.806 33.4628 105.121C33.4628 103.985 33.9266 103.073 34.8488 102.386C35.7719 101.699 36.9741 101.258 38.4546 101.055L42.4404 100.505V99.624C42.4404 98.7383 42.1648 98.0382 41.6217 97.5298C41.075 97.0179 40.2036 96.7628 39.0085 96.7628C38.1345 96.7628 37.4299 96.9341 36.8903 97.2792C36.3543 97.6208 35.985 98.0694 35.7826 98.6206C35.6987 98.8703 35.5391 98.997 35.3019 98.997H34.9005C34.699 98.997 34.5563 98.9444 34.4688 98.8329C34.3844 98.7218 34.3403 98.5853 34.344 98.4458C34.344 98.2095 34.4341 97.9169 34.6089 97.5682C34.7864 97.2159 35.0584 96.8681 35.4312 96.5229C35.8004 96.1813 36.2776 95.8924 36.8662 95.6587C37.4548 95.4259 38.1683 95.3073 39.0085 95.3073C40.002 95.3073 40.8208 95.4393 41.4683 95.7086C42.1167 95.9762 42.6215 96.324 42.9845 96.7495C43.343 97.1776 43.5999 97.652 43.7506 98.1675C43.904 98.6866 43.9771 99.1985 43.9771 99.7007V108.062C43.9808 108.135 43.9694 108.209 43.9436 108.278C43.9179 108.347 43.8783 108.409 43.8273 108.462C43.7736 108.513 43.7101 108.553 43.6407 108.579C43.5712 108.605 43.4973 108.616 43.4233 108.612H42.9943C42.9203 108.616 42.8463 108.605 42.7769 108.579C42.7074 108.553 42.6439 108.513 42.5903 108.462C42.5392 108.409 42.4995 108.346 42.4737 108.277C42.448 108.208 42.4366 108.135 42.4404 108.061V106.88C42.2005 107.221 41.9117 107.526 41.5833 107.783C41.2141 108.086 40.7361 108.34 40.1581 108.55C39.5766 108.759 38.8515 108.863 37.9775 108.863V108.864ZM38.2281 107.406C39.0014 107.406 39.7086 107.24 40.3463 106.905C40.984 106.571 41.4924 106.055 41.8723 105.362C42.2522 104.668 42.4404 103.793 42.4404 102.738V101.885L39.1869 102.338C37.8071 102.519 36.7654 102.839 36.0582 103.289C35.3536 103.742 34.9986 104.31 34.9986 104.996C34.9986 105.55 35.1592 106.003 35.4802 106.355C35.8004 106.703 36.208 106.968 36.7021 107.142C37.1971 107.32 37.7055 107.406 38.2281 107.406ZM26.425 108.612C26.351 108.616 26.2771 108.605 26.2076 108.579C26.1382 108.553 26.0747 108.513 26.021 108.462C25.9706 108.409 25.9314 108.346 25.9056 108.277C25.8799 108.208 25.8682 108.135 25.8712 108.061V96.1367C25.8712 95.9691 25.9229 95.8299 26.021 95.722C26.0728 95.6676 26.1357 95.6248 26.2053 95.5965C26.275 95.5682 26.3499 95.555 26.425 95.5579H26.829C26.9967 95.5579 27.1358 95.6141 27.2473 95.722C27.3013 95.7765 27.3435 95.8413 27.3716 95.9126C27.3997 95.9839 27.4129 96.0602 27.4105 96.1367V97.2899C27.6922 96.7231 28.1531 96.2651 28.7216 95.9869C29.2924 95.7015 29.9997 95.5588 30.8389 95.5588H31.7727C31.9404 95.5588 32.0759 95.607 32.1767 95.7077C32.2278 95.7614 32.2674 95.8249 32.2931 95.8944C32.3189 95.9638 32.3303 96.0378 32.3266 96.1118V96.4596C32.3266 96.6308 32.2775 96.7628 32.1767 96.8645C32.123 96.9155 32.0596 96.9552 31.9901 96.9809C31.9206 97.0067 31.8467 97.018 31.7727 97.0143H30.6891C29.6786 97.0143 28.8812 97.3069 28.2926 97.8919C27.704 98.4779 27.4105 99.2752 27.4105 100.279V108.062C27.4135 108.137 27.4004 108.211 27.3723 108.28C27.3441 108.349 27.3015 108.411 27.2473 108.462C27.1323 108.564 26.9825 108.618 26.829 108.612H26.425ZM15.5067 108.864C14.0609 108.864 12.8444 108.585 11.8625 108.024C10.8976 107.481 10.1164 106.664 9.61852 105.675C9.10301 104.672 8.82475 103.515 8.77124 102.212C8.75429 101.456 8.74805 100.662 8.74805 99.8255C8.74805 98.9898 8.75429 98.1952 8.77213 97.4389C8.82475 96.1189 9.10301 94.9595 9.61941 93.9623C10.1227 92.9773 10.9084 92.1646 11.8759 91.6283C12.8658 91.0664 14.0788 90.7882 15.5058 90.7882C16.667 90.7882 17.6597 90.9594 18.482 91.3046C19.307 91.6452 19.9803 92.0742 20.4985 92.5826C21.0211 93.0945 21.4082 93.6074 21.6588 94.1255C21.913 94.6455 22.0459 95.0799 22.0629 95.4322C22.0744 95.4983 22.0689 95.5662 22.0471 95.6297C22.0253 95.6932 21.9877 95.7501 21.938 95.7952C21.8264 95.8921 21.6816 95.942 21.534 95.9343H20.9792C20.8267 95.9343 20.7179 95.8959 20.6519 95.8228C20.5823 95.7461 20.5163 95.6177 20.4503 95.4322C20.2652 94.885 19.9777 94.378 19.6031 93.9383C19.2106 93.4611 18.68 93.0669 18.0155 92.761C17.3529 92.4506 16.5136 92.2936 15.5067 92.2936C14.0083 92.2936 12.7954 92.7012 11.8625 93.5128C10.9287 94.3244 10.4301 95.6765 10.3606 97.5682C10.3118 99.0739 10.3118 100.581 10.3606 102.086C10.4301 103.961 10.9287 105.306 11.8625 106.128C12.7963 106.947 14.0083 107.358 15.5067 107.358C16.4993 107.358 17.3885 107.17 18.1787 106.794C18.9655 106.422 19.6179 105.816 20.0463 105.058C20.4985 104.282 20.725 103.289 20.725 102.086V100.805H16.3388C16.2637 100.808 16.1888 100.795 16.1191 100.766C16.0495 100.738 15.9866 100.695 15.9348 100.641C15.8325 100.527 15.7787 100.379 15.7849 100.226V99.8746C15.7849 99.6935 15.834 99.5508 15.9348 99.4492C15.9885 99.3981 16.052 99.3585 16.1214 99.3328C16.1909 99.307 16.2648 99.2956 16.3388 99.2993H21.7355C21.9202 99.2993 22.0629 99.3484 22.1636 99.4492C22.2653 99.5508 22.3144 99.6935 22.3144 99.8746V102.086C22.3144 103.424 22.0495 104.606 21.5197 105.627C21.0019 106.636 20.1935 107.465 19.199 108.009C18.1823 108.578 16.9515 108.863 15.5067 108.863V108.864Z" fill="#E434AA"/>
</svg>
