<svg width="115" height="115" viewBox="0 0 115 115" fill="none" xmlns="http://www.w3.org/2000/svg">
<path d="M18.2939 24.1626L25.5065 104.359L57.8718 112.994L90.3272 104.522L97.5478 24.1626H18.2939ZM82.5456 42.4202L82.0934 47.6234L81.8945 50.027H43.9282L44.8353 60.7295H80.9919L80.7502 62.7193L78.418 88.5025L78.2467 90.0098L57.9209 95.4806V95.4761L57.8968 95.4868L37.5825 90.2105L36.2037 74.9995H46.1642L46.8696 82.5448L57.9155 85.3444L57.9209 85.1357V85.1464L68.9908 82.7838L70.1467 70.5402H35.7604L33.322 43.0383L33.0839 40.2164H82.7828L82.5456 42.4202ZM25.7741 1.53308H30.7882V6.48834H35.376V1.53308H40.3911V16.5362H35.376V11.5123H30.7891V16.5362H25.7741V1.53308ZM46.9847 6.50886H42.5699V1.53308H56.4163V6.50886H51.9997V16.5362H46.9847V6.50886ZM58.6139 1.53308H63.842L67.059 6.80496L70.2725 1.53308H75.5033V16.5362H70.5079V9.09975L67.059 14.4341H66.9716L63.5201 9.09975V16.5362H58.613V1.53308H58.6139ZM77.9997 1.53308H83.0156V11.5774H90.0676V16.5371H77.9997V1.53308Z" fill="#E44D26"/>
</svg>
