<svg width="115" height="115" viewBox="0 0 115 115" fill="none" xmlns="http://www.w3.org/2000/svg">
<g clip-path="url(#clip0_3360_20285)">
<path d="M57.418 114.086C56.1025 113.93 54.0512 113.551 52.9364 113.239L51.7769 112.904L51.1526 111.187C50.7959 110.229 49.9486 107.598 49.2797 105.323L48.031 101.198L46.2696 101.065C43.5717 100.864 42.0332 100.373 37.5961 98.3222C35.3887 97.2965 33.2482 96.3377 32.8469 96.2039C32.4678 96.0479 31.9327 95.6688 31.6428 95.379C31.1746 94.8661 31.1077 94.554 30.9293 91.1648L30.751 87.4859L29.5023 86.3264C22.6349 79.8603 18.0194 70.9193 16.6147 61.3762C16.1688 58.2769 16.1688 52.2568 16.6147 49.1575C17.9971 39.7036 22.6126 30.718 29.3017 24.4525L31.1746 22.6911L31.4422 20.8405C31.8658 17.6743 33.0029 15.3777 34.6752 14.3075C35.1657 13.973 35.5671 13.4379 35.8124 12.7913C36.9941 9.7143 38.9116 8.04204 45.2662 4.54143C49.4135 2.24485 53.36 0.862439 57.1951 0.305017C59.2687 0.0151575 63.6389 0.0151575 65.6233 0.327314C71.309 1.1746 74.4975 2.77997 78.5778 6.83801C81.3426 9.60282 82.9257 11.7879 83.8622 14.2183C84.6425 16.225 85.4898 20.0601 85.7351 22.5796L85.8912 24.2296L88.0094 26.5931C95.1667 34.5753 99.0017 44.6089 99.0017 55.2669C99.0017 62.0451 97.4855 68.5335 94.5201 74.3753L93.3829 76.6273L94.0741 77.1624C95.0998 77.9651 95.7687 79.2806 96.8835 82.6697C97.7085 85.1447 97.8869 86.0143 97.8869 87.3298C97.8869 90.05 96.9058 92.904 95.4788 94.2418C94.2971 95.3567 91.1755 95.8026 87.452 95.379C86.2256 95.2452 85.9804 95.1337 85.5567 94.554L85.0662 93.9074L83.1709 94.0189C80.8521 94.1749 79.6034 94.554 79.6034 95.0891C79.6034 95.8249 79.3136 96.2039 78.4663 96.6499C77.6413 97.0512 77.5967 97.1404 77.5967 98.0769C77.5967 98.6343 77.842 100.24 78.1541 101.667C79.2467 106.728 78.8008 107.665 74.8319 108.556C74.2076 108.69 74.2076 108.69 74.3414 110.006C74.6312 112.548 73.2934 113.573 69.1462 113.997C67.0503 114.22 59.0011 114.287 57.418 114.086Z" fill="#201D1E"/>
<path d="M46.4932 98.3892C44.1966 98.077 41.0527 96.8953 37.1508 94.8885C34.3191 93.4393 33.3603 92.8372 33.3157 92.5028C33.2934 92.2575 33.2042 90.7636 33.1373 89.1582C32.7583 81.176 30.9968 72.4802 28.4104 65.9695C27.853 64.5425 27.4293 63.3384 27.4739 63.2938C27.4962 63.2716 28.7894 62.3128 30.3279 61.1756C33.4718 58.8568 37.5298 56.3818 39.9379 55.3339L41.5433 54.6204L43.4608 56.6494C45.5121 58.8568 46.6047 59.5926 50.3951 61.4209L52.7809 62.5581L53.1822 64.2749C53.4052 65.2114 53.918 67.0397 54.3194 68.3552C54.9214 70.2282 55.2336 70.8525 55.7687 71.2984C56.5045 71.9227 56.9504 72.0119 57.8423 71.6552C58.6004 71.3653 58.5781 71.566 57.6416 72.8592C56.7274 74.1301 56.6606 74.9551 57.3741 75.6017C57.8646 76.07 63.7064 79.0355 65.4455 79.7044L66.3374 80.0611L64.2192 80.1949C63.0598 80.2841 60.5179 80.4402 58.5558 80.5739C55.4119 80.7969 51.5323 81.176 48.5668 81.5996C47.5634 81.7334 47.5188 81.7334 47.3405 81.1091C47.1398 80.3733 47.1175 76.7612 47.2736 73.1714C47.385 70.7633 47.229 70.139 46.627 70.518C46.1141 70.8302 45.9803 72.4356 46.2256 75.4011C46.4709 78.478 46.2925 80.7523 45.8243 80.9307C45.6682 80.9976 44.9993 80.6854 44.3304 80.2618C43.6838 79.8158 43.0817 79.4591 42.9926 79.4591C42.6581 79.4591 42.8142 80.3064 43.2601 80.8638C43.5054 81.176 43.7061 81.5773 43.7061 81.778C43.7061 82.157 43.0372 82.5807 42.4128 82.5807C41.9446 82.5807 41.0973 83.3834 41.3426 83.6286C41.4095 83.7178 42.502 83.7624 43.773 83.7401C45.0216 83.7178 46.1587 83.7624 46.3148 83.8739C46.4709 83.9631 46.6938 85.1002 46.8276 86.5049C46.9614 87.865 47.3628 91.0758 47.7195 93.6399C48.3215 98.0547 48.3438 98.679 47.9871 98.6121C47.8979 98.5898 47.229 98.5006 46.4932 98.3892ZM72.3799 94.5541C72.09 92.369 71.7555 83.205 71.9785 82.982C72.09 82.8705 72.8704 82.759 73.7177 82.7367L75.2339 82.6921L75.5014 83.8962C75.6575 84.5651 75.9474 87.0623 76.148 89.4704C76.3487 91.8785 76.5271 94.0413 76.5494 94.2865C76.594 94.7325 76.1257 94.8885 73.3386 95.3568C72.5136 95.4683 72.5136 95.4683 72.3799 94.5541ZM73.9629 79.303C74.2974 78.701 75.2116 77.1848 76.0143 75.8916C76.8169 74.5984 78.1994 72.3018 79.0912 70.7856L80.7412 68.0208L80.0946 67.2181C79.1358 66.0141 79.1358 65.9695 79.5372 65.0553C79.8047 64.4087 79.9162 63.5168 79.9162 61.6216C79.9162 58.5892 79.5149 56.8946 78.4446 55.6906C77.8203 54.9994 77.6419 54.9102 76.8838 54.9771C76.4156 55.0217 76.0589 54.9994 76.0812 54.9102C76.1257 54.821 76.7724 54.2413 77.5081 53.617L78.8906 52.4799L81.4547 54.8656C82.8594 56.2034 84.5317 57.7419 85.156 58.3216C86.5607 59.6149 86.583 59.8155 85.535 64.1411C84.4202 68.7789 81.6777 76.6051 80.4959 78.5226C79.9162 79.4591 79.5149 79.5929 76.7501 79.7713C75.4791 79.8381 74.2528 79.9942 74.0298 80.128C73.3386 80.507 73.3163 80.3956 73.9629 79.303Z" fill="#335061"/>
<path d="M72.8035 78.3665C73.2271 77.0287 73.6285 74.42 73.9406 70.9862C74.3643 66.6606 74.4089 66.5269 75.8805 66.5269C76.9507 66.5269 77.9987 66.9951 78.8237 67.8647L79.448 68.5113L78.0433 70.9193C76.148 74.1747 73.0934 78.7901 72.8481 78.7901C72.7589 78.7901 72.7143 78.6118 72.8035 78.3665Z" fill="#335061"/>
<path d="M29.1223 82.3352C16.257 68.1544 15.209 46.3927 26.6696 31.1639C28.0521 29.3355 31.1513 25.9464 31.4635 25.9464C31.5527 25.9464 31.7087 26.2809 31.7756 26.6822C31.8871 27.2619 31.7533 27.7302 31.1736 28.845C30.4601 30.2497 30.4378 30.3166 30.4601 33.0591C30.4601 35.5787 30.527 36.0469 31.0844 37.5408C32.2885 40.7515 34.1391 42.736 36.6586 43.5833L37.7735 43.9623L38.1748 45.59C38.3978 46.4596 39.0221 48.0203 39.5795 49.0237C40.6721 51.0304 40.8059 51.7662 40.2039 52.3236C39.9809 52.502 38.0411 53.6837 35.9006 54.9324C33.7601 56.2033 31.1736 57.7641 30.148 58.4107C29.1974 59.0353 28.2231 59.6229 27.2271 60.1721C25.7778 60.9079 24.9751 61.8667 24.9751 62.937C24.9751 63.7173 26.8703 69.4922 28.2527 72.9929C28.6318 73.907 29.1446 75.5124 29.3899 76.5604C29.925 78.79 30.6162 83.1379 30.5047 83.4947C30.4601 83.6508 29.8358 83.1156 29.1223 82.3352ZM82.5011 78.8569C82.5011 78.7677 83.1031 76.9617 83.8612 74.7989C86.0909 68.3328 88.3205 60.9302 88.4543 59.6147C88.5881 58.0539 88.2537 57.5188 85.3997 54.977C81.297 51.3203 80.4943 50.473 80.4943 49.871C80.4943 49.5588 80.9626 48.444 81.52 47.4183C82.6348 45.367 83.3483 43.4495 84.1956 40.1941C84.8422 37.6746 85.6226 32.5909 85.6226 30.8294C85.6226 30.1382 85.6895 29.2464 85.7564 28.8673L85.9125 28.1538L86.4699 28.6666C88.8334 30.874 92.5347 37.0726 94.0731 41.4205C95.79 46.2589 96.392 49.9379 96.392 55.2668C96.392 59.3917 96.1468 61.666 95.2995 64.9883C94.4968 68.199 93.538 70.7855 92.0664 73.7064L90.7286 76.2928L89.3016 76.5381C87.8746 76.7833 86.1132 77.3853 83.7943 78.411C83.0808 78.7231 82.5011 78.9238 82.5011 78.8569ZM56.1015 69.6037C55.9455 69.3139 55.4549 68.1321 55.0536 66.9727C54.3624 65.0106 54.2955 64.6538 54.2955 62.0674C54.2955 58.9904 54.6076 57.9647 55.611 57.6972C56.5029 57.4742 59.6467 58.4776 62.3893 59.86C63.8163 60.5958 65.1318 61.1755 65.2879 61.1755C65.6223 61.1755 65.6446 61.7552 65.3102 61.9782C65.1764 62.0674 64.5967 62.2458 64.0169 62.4018C62.9467 62.6917 62.969 62.7363 64.7304 63.1822C65.7338 63.4498 65.7784 63.4944 65.7784 64.2971C65.7784 65.0552 65.6446 65.2112 63.95 66.5714C61.4751 68.5335 60.8285 68.8902 58.7995 69.5368C56.659 70.228 56.5029 70.228 56.1015 69.6037ZM73.2478 65.0552C70.8175 64.6315 70.9067 64.6984 70.9067 63.4275C70.9067 62.2012 71.2411 61.8444 72.356 61.8444C72.6904 61.8444 72.8911 61.7552 72.8019 61.6214C72.735 61.51 72.2445 61.3985 71.7317 61.3985C70.8844 61.3985 70.7506 61.3316 70.5276 60.7296C70.2824 60.083 70.2824 60.0607 72.0661 58.9458C76.8822 55.8465 77.841 56.181 78.4876 61.2424C78.6883 62.9147 78.5991 64.2971 78.2201 65.0329C77.9748 65.5011 75.9012 65.5234 73.2478 65.0552ZM67.2277 63.9849C66.8932 63.7396 66.804 63.3829 66.7817 62.3795C66.7817 61.1086 66.8041 61.0863 67.4953 60.8856C69.3905 60.3282 70.3493 63.2268 68.5432 64.0518C67.8297 64.364 67.7405 64.364 67.2277 63.9849Z" fill="#D33833"/>
<path d="M58.3104 111.544C57.5746 111.433 56.0807 111.121 54.9659 110.853L52.9591 110.34L52.045 107.219C50.2612 101.243 48.9011 94.5094 47.9646 87.2629C47.7417 85.4792 47.6302 83.9407 47.7194 83.8515C47.9869 83.5394 55.0328 82.6252 59.1354 82.3576C62.0117 82.1792 63.8846 82.1792 66.0474 82.3353C69.8602 82.6475 70.2838 82.7813 70.4845 83.5839C70.596 83.9184 70.7744 86.4825 70.9081 89.2474C71.0642 92.0122 71.198 94.3533 71.2649 94.4202C71.3095 94.4871 71.4433 97.0959 71.577 100.217C71.8 105.457 72.0899 109.359 72.3797 110.273C72.5135 110.719 71.7777 110.987 69.1021 111.455C67.0285 111.812 60.607 111.879 58.3104 111.544ZM72.8257 104.721C72.7588 103.763 72.6473 101.778 72.5581 100.284C72.402 97.2519 72.3128 97.4303 74.2081 97.1628L75.2783 97.029L75.8803 100.106C76.2148 101.823 76.4824 103.763 76.4824 104.454V105.702L75.1891 106.082C72.9817 106.706 72.9817 106.706 72.8257 104.721ZM87.1849 93.7513C86.672 93.3723 87.1626 93.1716 89.4814 92.7034C92.5138 92.1236 91.5105 91.8338 87.0511 92.0345L83.4167 92.1682L83.3052 91.2318C83.2383 90.6966 83.0599 89.2251 82.9262 87.9318C82.7995 86.5939 82.6135 85.2622 82.3687 83.9407C82.0566 82.4468 82.0566 82.2684 82.391 81.9117C82.8816 81.3765 84.3755 80.6853 86.6274 79.905C87.6085 79.5705 88.8348 79.08 89.3477 78.8124C91.6219 77.6753 93.3611 78.8124 94.409 82.09C96.1482 87.5974 96.1705 90.1615 94.5428 92.2351C93.651 93.35 92.4692 93.7736 89.8605 93.8851C88.4112 93.952 87.3855 93.8851 87.1849 93.7513ZM91.1983 88.1325C90.3956 87.798 87.6085 87.6197 86.6051 87.8204L85.7356 88.021L86.516 88.1548C86.9396 88.244 88.2997 88.3332 89.526 88.3332C91.2429 88.3555 91.6219 88.2886 91.1983 88.1325ZM89.9943 85.3231C91.0199 85.167 91.0422 85.1447 90.4179 85.0109C89.2585 84.7434 87.0957 84.8103 86.4045 85.1447C85.7579 85.4346 85.8025 85.4346 87.3186 85.4569C88.1882 85.4792 89.3923 85.4123 89.9943 85.3231ZM87.8538 82.759C89.3923 81.8671 89.5929 81.6887 88.9686 81.8002C87.3186 82.1124 86.0923 82.6252 85.2673 83.3833L84.3978 84.1637L85.1781 84.0076C85.6018 83.9407 86.8058 83.3833 87.8538 82.759ZM79.0688 92.8149C79.0242 92.6365 78.8235 91.2541 78.6229 89.7156C78.4222 88.1771 78.11 85.9251 77.9094 84.7211C77.7087 83.4056 77.6641 82.4245 77.7756 82.313C77.8871 82.2015 78.4668 82.1347 79.0688 82.1792L80.1613 82.2461L80.6965 83.5839C81.41 85.39 81.8113 87.8426 81.8336 90.3399C81.8336 92.3912 81.8336 92.4135 81.2316 92.6365C80.1167 93.0601 79.1803 93.1493 79.0688 92.8149ZM66.5602 77.8091C64.9772 77.1624 62.5245 76.0699 61.1421 75.3564C58.8901 74.197 58.6448 74.0186 58.7786 73.5949C59.2692 72.0119 60.7185 70.3842 63.0373 68.8011C63.8177 68.2883 64.4866 67.8646 64.5312 67.8646C64.9549 67.8646 67.8758 73.4612 69.548 77.4077C70.1277 78.7901 70.1723 79.0131 69.8379 79.0131C69.6372 79.0131 68.1656 78.478 66.5602 77.8091ZM72.8034 78.3665C73.227 77.0287 73.6284 74.4199 73.9405 70.9862C74.2304 68.0653 74.4087 67.0173 74.654 66.8167C75.5013 66.1255 77.7533 66.7275 78.8904 67.9315L79.4033 68.4667L78.8458 69.4477C77.6195 71.6551 76.6384 73.2605 74.877 75.9584C73.1601 78.5894 72.4689 79.3921 72.8034 78.3665ZM71.421 77.7868C70.8899 76.6837 70.3844 75.5686 69.9048 74.4422C68.4555 71.0754 67.6751 69.5369 66.6271 68.0207C65.7798 66.7721 65.7576 66.6829 66.1366 66.2816C66.3596 66.0363 66.8278 65.8579 67.2068 65.8579C67.5859 65.8356 68.1433 65.7018 68.4555 65.5235C69.2805 65.0552 69.8156 65.1221 70.975 65.8579C71.5547 66.2147 72.2905 66.5937 72.6027 66.6606L73.2047 66.8167L73.0486 70.3619C72.8926 73.8402 72.4912 77.0064 72.0676 78.1212C71.8669 78.6786 71.8669 78.6786 71.421 77.7868ZM71.6885 72.4355C71.6885 71.8781 71.5993 71.7666 71.1311 71.7666C70.7744 71.7666 70.5514 71.9004 70.5068 72.1679C70.373 72.8368 70.6406 73.2605 71.1757 73.1713C71.577 73.1267 71.6885 72.9706 71.6885 72.4355ZM70.9973 68.868C71.198 68.3106 70.8858 67.8646 70.3284 67.8646C70.0163 67.8646 69.7264 68.0207 69.6595 68.1991C69.4365 68.7565 69.7487 69.2024 70.3284 69.2024C70.6183 69.2024 70.9081 69.0464 70.9973 68.868ZM50.7294 60.083C49.1464 59.5256 47.8977 58.8567 47.4072 58.2993C46.9167 57.7419 47.0728 57.0284 47.6748 57.2736C48.366 57.5635 49.5923 57.7864 51.3538 57.9425C53.249 58.0986 53.2713 58.1209 52.8254 59.6817C52.5801 60.6181 52.3794 60.6627 50.7294 60.083ZM66.092 59.4141C65.3339 59.2134 63.5502 58.277 63.5502 58.054C63.5502 57.9648 64.286 57.9425 65.1778 58.0094C66.3819 58.0763 67.4075 57.9648 68.9683 57.6081C70.1723 57.3405 71.2426 57.1621 71.3541 57.2067C71.4879 57.2513 70.9081 57.8087 70.0831 58.4553C68.5224 59.6817 67.8758 59.8378 66.092 59.4141ZM51.3984 56.9392C49.2801 56.7162 46.8944 55.9804 45.6681 55.1554C44.5086 54.375 43.3715 52.8142 42.3458 50.54C41.3425 48.3326 40.3614 45.4117 40.2276 44.0739C40.0938 42.9813 40.1161 42.8698 40.8965 41.9111C41.4539 41.2645 41.6992 40.7293 41.6546 40.3949C41.5654 39.726 41.0526 39.8152 39.8486 40.6847C38.2655 41.8219 36.2365 41.4651 34.7203 39.7929C33.1372 38.0314 31.9555 34.9321 32.1784 33.0592C32.5798 29.6478 36.0358 27.262 38.7337 28.5329C39.5587 28.9343 40.629 30.5619 41.0303 32.0335C41.2533 32.8139 41.3202 32.8585 42.1674 32.8585C42.658 32.8585 43.3938 32.7024 43.8174 32.5464C44.7762 32.145 44.8208 31.6322 44.1073 29.0012C43.483 26.6154 43.5053 24.5418 44.2411 21.0635C44.8654 18.1203 44.9768 15.8237 44.5755 14.2406C44.3302 13.3041 44.3748 13.1704 45.0214 12.167C47.0282 9.04544 53.0037 4.67525 57.307 3.18136C59.1577 2.55705 63.1934 2.49015 65.8467 3.06987C69.6372 3.89486 73.7621 5.67861 75.7243 7.35088C76.6607 8.15356 80.2728 12.5683 80.2728 12.9251C80.2728 12.9697 79.8938 12.9697 79.4255 12.8805C77.6195 12.5906 75.8134 13.6386 75.8134 14.9541C75.8134 15.4669 75.8358 15.4669 76.304 15.1548C77.1736 14.5305 79.0019 14.6866 80.5404 15.5115C82.8593 16.7379 83.6843 18.3655 84.0856 22.5128C84.4646 26.3255 84.2194 33.9288 83.662 36.6936C82.7255 41.1084 81.2985 44.6982 79.0019 48.2434C77.1736 51.0528 76.3486 51.9893 74.6763 53.0818C71.4433 55.1554 68.0764 56.2703 64.9995 56.2703C62.7921 56.2703 61.3874 55.8689 58.7786 54.5311C56.3929 53.3048 53.5612 50.7183 51.3315 47.7528C50.5288 46.6826 49.8376 45.8353 49.7707 45.8799C49.5254 46.1475 50.3504 47.7751 51.5098 49.3136C53.026 51.3426 56.1922 54.4419 57.5077 55.1777C57.9982 55.4676 58.4219 55.802 58.4219 55.8912C58.4219 56.0027 57.8867 56.0027 57.2401 55.9358C55.8354 55.7574 54.4307 56.0919 53.851 56.7162C53.628 56.9615 53.3382 57.1398 53.2044 57.1398C53.0706 57.1175 52.2679 57.0284 51.3984 56.9392ZM72.5358 49.1353C72.9817 49.0015 73.5615 48.667 73.829 48.3995L74.275 47.9089L70.5291 47.7751C65.3562 47.5968 63.9738 47.1508 62.1455 45.1218C61.5657 44.4975 60.9637 44.007 60.763 44.0516C60.5401 44.0962 60.8745 44.6759 61.9671 46.0137C63.9961 48.5109 64.4643 48.9123 65.713 49.269C66.9616 49.6258 71.2203 49.5366 72.5358 49.1353ZM72.8257 44.2968C72.7588 43.8286 72.6919 43.2935 72.6919 43.0928C72.6919 42.7806 72.2014 42.7137 69.0798 42.6023C65.8021 42.5131 64.3083 42.2901 62.5468 41.6435C61.7218 41.3536 63.5948 43.1151 64.6873 43.6948C66.2481 44.4752 68.9237 45.0326 71.5547 45.0995L72.9817 45.1218L72.8257 44.2968ZM75.9918 44.5644C77.4411 44.1185 79.0688 42.8252 80.0945 41.309C80.5404 40.6401 80.8748 40.0827 80.8302 40.0381C80.808 39.9935 79.8715 40.4172 78.7566 40.9746C77.6641 41.532 76.2817 42.1117 75.6797 42.2455C75.2232 42.3439 74.7696 42.4554 74.3196 42.58C74.1412 42.6246 74.0297 43.0705 74.0297 43.784C74.0297 45.0772 74.1189 45.0995 75.9918 44.5644ZM72.9817 40.4618C74.7655 39.9935 75.7466 39.5699 77.9317 38.2544C79.2026 37.5186 79.3141 37.3848 79.6708 36.1808C79.8715 35.4673 80.0499 34.7761 80.0499 34.62C80.0499 34.4862 79.1803 33.4605 78.1323 32.3457C74.8993 28.8897 72.9149 26.0357 71.6662 22.9364C71.5101 22.6019 71.4656 22.7357 71.3987 23.5161C71.2649 25.5228 72.6919 28.2654 75.8803 32.1004C78.1323 34.7761 78.4445 35.445 78.0208 36.4706C77.7979 37.0503 77.3519 37.3402 75.5013 38.2321C72.8257 39.4807 71.8446 39.7706 70.3284 39.7706C68.9906 39.7706 68.2994 39.1908 68.0764 37.8753C67.9649 37.2064 67.8981 37.1172 67.7197 37.4294C67.4075 38.0091 67.4967 39.4138 67.8981 40.1942C68.2325 40.8631 68.2994 40.8854 69.771 40.8854C70.596 40.8854 72.0453 40.6847 72.9817 40.4618ZM36.504 35.1551C36.5709 33.2376 36.95 32.4126 37.775 32.4126C38.377 32.4126 38.7783 32.8362 39.4918 34.1963C40.0046 35.1997 40.0269 35.1997 40.0938 34.5531C40.2053 33.572 39.5364 32.0781 38.5553 31.2086C37.8418 30.5396 37.5074 30.4059 36.7047 30.4059C35.8797 30.4059 35.6345 30.5173 35.1439 31.0971C34.4304 31.9443 34.4081 32.3011 35.0993 31.8552C35.7236 31.4315 36.4594 31.6322 36.1919 32.1673C35.8351 32.8585 36.0135 36.872 36.3925 36.872C36.4371 36.872 36.4817 36.1139 36.504 35.1551ZM64.8211 28.9343C65.49 28.4214 65.6907 27.9532 65.5569 27.0613C65.5346 26.883 65.1332 26.3255 64.665 25.835C64.1745 25.3445 63.4387 24.185 62.9927 23.2709L62.2123 21.5986L62.2792 22.6019C62.3684 23.6276 62.9258 24.9654 63.7954 26.3478C64.2414 27.039 64.2637 27.1282 63.9069 27.4627C63.6171 27.7525 63.2157 27.8194 62.1455 27.7748C58.8009 27.5965 58.9793 27.5965 58.9124 28.087C58.6894 29.6255 63.1042 30.2498 64.8211 28.9343ZM81.4992 27.9755C81.9897 27.7525 82.5694 27.3735 82.7701 27.1282C83.1491 26.7269 83.1045 26.5931 81.8336 24.0958C80.6519 21.7993 80.4958 21.5763 80.4958 22.2675C80.4958 22.6911 80.7634 23.6945 81.0978 24.4972C81.5438 25.5674 81.6329 26.0134 81.4546 26.1917C81.2985 26.3478 80.4066 26.5262 79.4478 26.6377C78.4891 26.7269 77.6864 26.8161 77.6641 26.8161C77.4857 26.8607 77.6418 27.485 77.954 27.9086C78.2215 28.31 78.5114 28.3991 79.4478 28.3991C80.0944 28.3991 81.0086 28.1985 81.4992 27.9755ZM53.7395 18.2764C55.0773 16.4703 56.3929 15.8014 58.4888 15.8237C59.9827 15.8237 60.005 15.8237 59.9381 15.2663C59.8266 14.3744 58.5334 13.6163 57.4408 13.7947C55.501 14.0845 53.0483 16.0467 52.2679 17.8973C51.7328 19.1459 51.9558 20.9966 52.5132 20.0155C52.6247 19.8148 53.1821 19.0344 53.7395 18.2764Z" fill="#6F6C6E"/>
<path d="M42.5244 30.9187C42.4352 30.8518 42.3683 30.5396 42.3683 30.2497C42.3683 28.845 40.6961 26.9721 38.8677 26.3701C37.7975 26.0133 35.1218 26.214 34.5867 26.7045C34.386 26.9052 34.1185 26.9944 34.0516 26.9052C33.9624 26.8383 33.8955 25.4336 33.8955 23.8282C33.8955 20.0378 34.2077 18.9452 35.7462 17.3175C37.3069 15.6676 40.0272 14.3075 41.8555 14.2629L43.1487 14.2406L43.3494 15.7791C43.5278 16.9831 43.4609 18.0533 43.0818 20.9073C42.4798 25.389 42.4798 25.8127 43.0818 28.3322C43.4832 30.0268 43.5055 30.4281 43.2825 30.718C42.948 31.097 42.7474 31.1639 42.5244 30.9187ZM37.8421 12.7467C38.6002 11.4312 40.6515 9.42445 42.569 8.15352C45.9581 5.87924 50.5067 4.20697 50.5067 5.21034C50.5067 5.38871 50.306 5.63398 50.0608 5.76776C48.2547 6.68193 46.3595 8.48798 45.3784 10.1602C45.044 10.74 44.5088 11.5204 44.1521 11.8994C43.5724 12.5237 43.4163 12.5683 42.1008 12.546C41.1744 12.527 40.2524 12.6781 39.3805 12.992C37.5299 13.6609 37.3515 13.6163 37.8421 12.7467Z" fill="#6F6C6E"/>
<path d="M33.8937 93.2163C33.5815 93.0379 33.3586 92.815 33.3808 92.7035C33.4477 92.3244 33.0241 86.1036 32.7788 84.03C32.266 79.7044 31.2181 74.3309 30.3039 71.3208C29.6127 68.9796 28.9438 67.0175 28.7431 66.5269C28.587 66.2148 28.4086 65.7688 28.2972 65.5236C27.4945 63.5615 27.4276 63.2939 27.6505 63.227C27.7843 63.1824 28.4978 62.6696 29.2113 62.0899C32.0653 59.8379 36.4801 56.9839 39.022 55.8021C39.8247 55.4231 40.7165 54.9994 41.0064 54.8657C41.4969 54.6204 41.6307 54.7096 42.9462 56.1589C43.7266 57.0062 44.3732 57.7643 44.3732 57.8312C44.3732 57.9872 44.507 57.9203 36.9038 61.2872C33.9606 62.6027 31.5079 63.6952 31.4856 63.7398C31.441 63.7844 31.664 65.0108 31.9984 66.4601C33.2694 72.1012 34.2504 77.8761 34.7856 82.7591C35.1869 86.4381 35.0531 93.5062 34.5849 93.5062C34.518 93.5062 34.2058 93.3724 33.8937 93.2163ZM71.9768 86.2374C71.7538 86.0367 71.7538 84.6766 71.9322 83.7401C72.0883 82.9598 72.3781 82.8037 74.0058 82.7145C75.076 82.6253 75.1206 82.6476 75.3436 83.3165C75.4774 83.6732 75.5889 84.3199 75.5889 84.7435C75.5889 85.4124 75.4774 85.5462 74.7639 85.8583C73.7828 86.2597 72.1997 86.4827 71.9768 86.2374ZM44.3732 85.4793C42.8124 85.2117 42.0097 84.9442 41.2962 84.4759C40.6496 84.0523 40.4267 83.7847 40.6273 83.6733C40.7611 83.5841 41.0064 83.5618 41.1402 83.651C41.2517 83.7401 42.4334 83.807 43.7489 83.807C45.1982 83.807 46.2239 83.8962 46.3799 84.0523C46.5137 84.1861 46.6029 84.6543 46.5583 85.078L46.4914 85.8361L44.3732 85.4793ZM47.4056 81.3321C47.2272 80.8638 47.2272 75.3788 47.4056 72.8147L47.5617 70.7856L48.409 71.8559L49.2785 72.9484V77.2072C49.2785 79.5483 49.2116 81.4659 49.1225 81.4882C49.011 81.4882 48.6319 81.5327 48.2306 81.5773C47.74 81.6442 47.4948 81.5773 47.4056 81.3321ZM67.1383 78.0098C64.7303 77.0511 59.5128 74.5538 58.9331 74.0633C58.5094 73.7065 59.5128 71.9451 60.8952 70.6519C62.456 69.1803 64.1729 68.0208 64.5519 68.1546C65.087 68.3776 67.0715 71.8782 68.5653 75.245C69.9923 78.545 70.1707 79.0132 69.8586 79.0132C69.7471 79.0132 68.543 78.545 67.1383 78.0098ZM72.8018 78.4558C73.4038 76.7166 73.9389 73.1045 74.1619 69.4701C74.3179 67.0621 74.3402 66.9283 74.8531 66.7276C76.124 66.2594 77.7963 66.7499 78.8888 67.9316L79.4016 68.4668L78.8442 69.4478C76.124 74.3309 72.2443 80.0835 72.8018 78.4558ZM82.6793 59.0575C80.8732 57.7197 79.0449 56.2481 78.6435 55.8467C78.2199 55.4231 77.5733 54.9549 77.1719 54.8211L76.4584 54.5981L77.6625 53.5502L78.8665 52.5022L80.9624 54.5535C82.1219 55.6907 83.7272 57.1845 84.5522 57.898C86.113 59.2359 86.5366 60.0831 86.1353 61.0642C85.9792 61.4655 85.6448 61.2872 82.6793 59.0575Z" fill="#4A738D"/>
<path d="M58.645 111.477C55.7687 111.031 53.3606 110.452 53.1153 110.162C52.8032 109.783 51.666 105.769 50.6404 101.511C49.2134 95.7134 47.4296 84.3196 47.8756 83.9183C48.1208 83.673 53.6951 82.8703 57.3071 82.5582C61.6104 82.1791 69.7934 82.5136 70.3508 83.071C70.4177 83.1156 70.6184 85.8135 70.7968 89.0689C70.9751 92.3019 71.1758 95.3566 71.2427 95.8471C71.3096 96.3377 71.4657 99.1248 71.5772 102.023C71.6886 104.922 71.9116 108.021 72.0454 108.913C72.2461 110.184 72.2238 110.541 72.0008 110.697C70.663 111.522 62.1679 112.012 58.645 111.477ZM73.0265 106.215C72.9819 106.148 72.8704 104.164 72.7812 101.845L72.6251 97.6086L73.7845 97.341C75.1224 97.0289 75.3676 97.1181 75.3676 97.8316C75.3676 98.1214 75.5683 99.2809 75.8136 100.44C76.0588 101.6 76.3264 103.205 76.3933 104.03C76.5494 105.524 76.5494 105.524 75.9028 105.792C75.0332 106.126 73.1379 106.416 73.0265 106.215ZM87.7424 93.7512C86.8728 93.5952 86.8728 93.5729 87.408 93.3499C87.7201 93.2161 88.3221 93.06 88.7458 92.9708C91.1761 92.5026 91.6667 92.3242 91.4214 92.079C91.243 91.9229 89.9721 91.856 87.3188 91.9006L83.4837 91.9675L83.1047 88.4446C82.8817 86.5047 82.5695 84.3196 82.3912 83.5838L82.079 82.246L82.681 81.7555C83.0155 81.4656 83.9965 80.9751 84.8438 80.6629C85.7134 80.3285 87.2519 79.7265 88.2998 79.2805C90.5741 78.3441 91.5106 78.2772 92.5139 79.013C93.495 79.7042 94.1416 81.1758 94.9889 84.5872C95.7024 87.575 95.8139 89.0466 95.3902 90.4513C95.0112 91.6999 93.5619 93.1715 92.4247 93.4614C91.1538 93.7958 88.7904 93.9296 87.7424 93.7512ZM91.466 88.1324C90.2842 87.6642 88.0323 87.4635 86.8282 87.7088C84.7546 88.1547 85.4681 88.3777 88.8127 88.3554C90.9977 88.3554 91.8227 88.2885 91.466 88.1324ZM91.0423 85.2784C91.4437 85.1223 91.3545 85.0554 90.418 84.8994C88.166 84.5203 85.6242 84.8548 85.6242 85.546C85.6242 85.7912 90.2619 85.5683 91.0423 85.2784ZM88.01 82.7812C89.1694 82.1568 90.0836 81.6217 90.039 81.5771C89.8829 81.4211 87.787 81.9339 86.7613 82.3575C86.1593 82.6251 85.3789 83.1379 85.0445 83.517L84.3979 84.2082L85.156 84.0521C85.5573 83.9852 86.8505 83.4055 88.01 82.7812ZM79.1581 92.8371C79.1581 92.5918 77.9095 84.0075 77.7088 82.9818C77.6196 82.3575 77.6196 82.3575 78.8459 82.3575H80.0723L80.5182 83.3609C81.1871 84.8548 81.5885 87.0399 81.7668 89.8493L81.9006 92.3242L80.8304 92.7033C79.5817 93.1046 79.1581 93.1492 79.1581 92.8371ZM69.236 78.7231C66.159 77.7198 58.8679 74.3083 58.8679 73.8624C58.8679 72.703 60.8301 70.3841 63.0152 68.9571L64.4868 68.0206L64.9996 68.6672C66.0029 69.8713 70.2616 78.6562 69.9718 78.9015C69.9272 78.9238 69.615 78.8569 69.236 78.7231ZM73.0042 78.2326C73.4278 77.0955 74.2082 71.2314 74.2751 68.3551L74.3197 66.9727L75.1224 66.7497C76.2595 66.4598 77.5081 66.7943 78.4 67.6639C78.8237 68.0652 79.1581 68.4888 79.1581 68.6003C79.1581 68.8902 76.1703 73.907 74.5204 76.4042C73.1825 78.4333 72.692 79.013 73.0042 78.2326ZM71.2873 77.2961C70.9974 76.7164 70.1279 74.7989 69.3698 73.082C68.6117 71.3428 67.5414 69.2469 66.984 68.3997C66.0921 67.0173 66.0029 66.8166 66.2705 66.3484C66.4489 65.9916 66.6718 65.8578 66.9617 65.947C67.207 66.0139 67.8982 65.8578 68.5002 65.6125L69.5927 65.1889L70.9974 65.9693C71.7778 66.3929 72.5582 66.7497 72.7589 66.7497C73.2048 66.7497 73.2048 66.549 72.915 71.1199C72.7143 74.3083 72.2238 78.0096 71.9339 78.2772C71.867 78.3441 71.5772 77.8981 71.2873 77.2961ZM71.8224 72.859C72.2015 72.3908 71.8224 71.7665 71.1312 71.7665C70.44 71.7665 70.061 72.3908 70.44 72.859C70.6184 73.0597 70.9083 73.2158 71.1312 73.2158C71.3542 73.2158 71.6441 73.0597 71.8224 72.859ZM70.9974 68.9348C71.2873 68.4666 70.9528 67.7977 70.4177 67.6862C70.061 67.6193 69.3475 68.199 69.3475 68.5334C69.3475 68.8679 70.061 69.4476 70.4177 69.3807C70.5961 69.3361 70.8637 69.1355 70.9974 68.9348ZM50.7296 59.9714C49.2803 59.5032 47.5411 58.5444 47.2735 58.0539C46.8945 57.3627 47.1844 57.162 48.0316 57.4965C48.433 57.6749 49.6816 57.8755 50.8188 57.9647C51.9336 58.0539 52.8924 58.1877 52.9593 58.2769C53.0038 58.3438 52.937 58.8343 52.8032 59.3471C52.5356 60.3951 52.2903 60.462 50.7296 59.9714ZM65.78 59.2356C65.0219 58.9681 63.5503 58.1877 63.5503 58.0539C63.5503 57.9647 64.0631 58.0093 64.6874 58.1431C65.6462 58.3438 66.2482 58.2769 68.5894 57.8086C70.1056 57.4742 71.3542 57.2512 71.3542 57.2958C71.3542 57.3181 70.7522 57.8086 70.0387 58.3661C68.7901 59.3248 68.634 59.3917 67.4076 59.3694C66.6941 59.3694 65.9583 59.3025 65.78 59.2356ZM50.9525 56.783C49.8154 56.6715 47.1844 55.8911 46.1364 55.3783C44.9993 54.7986 43.9513 53.5276 42.8811 51.4763C41.8777 49.5142 40.4953 45.5899 40.25 43.9846C40.1162 43.0258 40.1385 42.9143 41.0081 41.911C41.9669 40.8184 42.0561 40.5508 41.6993 39.9934C41.521 39.7036 41.3649 39.7259 40.6514 40.1495C38.6001 41.3312 38.444 41.3981 37.3737 41.2421C35.7461 40.9968 34.6312 39.9711 33.4718 37.7191C32.6022 36.0469 32.4684 35.5563 32.3792 34.0402C32.29 32.524 32.3569 32.1226 32.7806 31.2753C33.8954 29.0457 35.367 28.243 37.998 28.3767C38.9345 28.4213 40.1608 29.8037 40.696 31.4091C40.9189 32.1449 41.1865 32.8361 41.2757 32.9253C41.5432 33.2598 43.7283 32.8138 44.3304 32.301L44.9101 31.8105L44.3081 29.2686C43.55 26.0356 43.55 24.9653 44.375 20.9742C45.133 17.2952 45.1776 16.3141 44.7317 14.575L44.3973 13.3486L45.1108 12.1446C46.9837 9.02304 54.0741 4.02854 57.9761 3.11437C63.305 1.84344 72.2684 4.20692 76.1034 7.86361C77.1514 8.86697 80.05 12.5014 80.05 12.8358C80.05 12.8581 79.4034 12.9027 78.623 12.9027C77.3966 12.9027 77.1068 12.9919 76.594 13.4601C75.9473 14.0621 75.5237 14.9317 75.7021 15.2439C75.769 15.3554 76.1703 15.2885 76.594 15.1101C78.0879 14.4858 80.0277 14.9317 81.5885 16.2918C83.4837 17.9195 83.9965 19.8816 84.1972 26.3923C84.4425 34.2185 83.3499 39.9042 80.5851 45.4116C79.9385 46.6602 77.6642 50.1608 76.75 51.2534C74.9217 53.4607 69.6373 55.8688 65.9137 56.181C63.8178 56.3593 62.1233 56.0026 59.6483 54.8432C56.2146 53.2155 53.918 51.1865 50.9971 47.1507C50.239 46.1251 49.5924 45.3893 49.5478 45.5453C49.414 45.9244 50.5512 48.2433 51.4877 49.4696C52.8032 51.2088 55.9693 54.3526 57.1511 55.1107L58.2213 55.7796L56.4376 55.8465C54.966 55.9134 54.5646 56.0249 54.141 56.4485C53.5836 56.9391 53.1599 56.9837 50.9525 56.783ZM72.3798 49.2466C73.3386 48.9568 74.4758 48.1541 74.4758 47.7973C74.4758 47.7081 73.0042 47.6413 71.1981 47.6413C65.9583 47.6636 63.5949 46.9501 62.0341 44.8987C61.6105 44.3413 61.1422 43.8731 60.9861 43.8285C60.3395 43.6724 60.451 44.2744 61.1868 45.1886C61.6327 45.7014 62.4131 46.6602 62.926 47.3291C63.9962 48.6669 64.9996 49.2912 66.605 49.5811C67.9651 49.8264 71.0643 49.648 72.3798 49.2466ZM72.8704 43.9623L72.8035 42.7805L69.6819 42.6245C66.3151 42.4684 64.13 42.1562 62.9037 41.6434C62.48 41.465 62.101 41.3535 62.0787 41.3981C62.0341 41.4427 62.3017 41.8441 62.6807 42.29C64.0185 43.8954 67.4745 45.0771 71.0866 45.0994L72.9373 45.1217L72.8704 43.9623ZM77.2629 44.1406C77.798 43.8285 78.6007 43.1819 79.0466 42.6913C79.9608 41.7326 81.2094 39.9488 81.0533 39.815C81.0087 39.7705 80.2284 40.1272 79.3365 40.5954C77.6196 41.5319 75.2338 42.4461 74.4758 42.4461C74.0744 42.4461 74.0298 42.6022 74.0298 43.6947V44.9656L75.167 44.8318C75.7913 44.7427 76.7277 44.4305 77.2629 44.1406ZM73.1379 40.5063C74.6318 40.1272 76.3041 39.3691 78.0656 38.2989C79.2473 37.5854 79.4034 37.407 79.7155 36.3813C80.2284 34.5976 80.1615 34.3746 78.7568 32.9253C75.7021 29.8483 72.3798 25.0991 71.9339 23.2262C71.867 22.8694 71.6441 22.6019 71.4657 22.6019C70.6407 22.6019 71.5103 25.9241 72.915 28.2653C73.3386 28.9565 74.4089 30.4058 75.2561 31.4314C78.2662 35.1104 78.4 35.378 77.798 36.7158C77.3075 37.8083 71.3765 39.9934 69.7265 39.6813C68.7678 39.5029 68.4333 39.1015 68.2549 38.0313C68.0988 37.0725 67.7644 36.9833 67.4745 37.8083C67.1847 38.611 67.5191 39.9488 68.1434 40.5954C68.6786 41.1306 68.79 41.1529 70.3062 40.9968C71.1981 40.9076 72.469 40.6846 73.1379 40.5063ZM37.1062 32.8807C37.3514 32.6132 37.6413 32.4125 37.7974 32.4125C38.1764 32.4125 38.8899 33.2598 39.4919 34.4192L40.0271 35.4226L40.0939 34.3746C40.1831 33.126 39.6034 31.8551 38.5778 30.9855C37.2176 29.8706 35.7238 29.9821 34.8542 31.2753C34.2076 32.2341 34.2076 32.5463 34.8319 32.1003C35.0994 31.8997 35.5231 31.7436 35.7461 31.7436C36.1028 31.7436 36.1251 31.8551 35.969 32.4794C35.7015 33.5273 35.7907 35.7793 36.1474 36.5374C36.415 37.184 36.4373 37.1171 36.571 35.2665C36.6602 33.8172 36.794 33.2152 37.1062 32.8807ZM65.0219 28.845C66.0698 27.797 66.0252 27.1727 64.7766 25.768C64.2192 25.1437 63.3942 23.8505 62.926 22.8917C62.2125 21.3532 62.101 21.2194 62.0341 21.7992C61.9449 22.4681 62.7253 24.9207 63.2158 25.5004C63.3719 25.6788 63.6618 26.1471 63.8401 26.5261C64.1969 27.2396 64.1969 27.2396 63.5503 27.5072C63.082 27.7078 62.3908 27.7301 61.1645 27.5964C60.2057 27.5072 59.3362 27.418 59.2024 27.3957C58.801 27.3957 58.8233 28.4213 59.2247 28.8673C59.8044 29.5139 60.7855 29.7369 62.6138 29.6477C64.1077 29.5808 64.3084 29.5139 65.0219 28.845ZM81.9898 27.8416C82.5249 27.5072 83.0378 27.1058 83.1047 26.9497C83.1938 26.6599 80.5628 21.0411 80.3175 21.0411C80.0277 21.0411 80.5182 23.5383 81.0533 24.6978C81.7445 26.2585 81.6999 26.3031 79.604 26.5038C78.8014 26.593 78.021 26.6822 77.8872 26.7268C77.3966 26.8829 77.575 27.6855 78.2216 28.1761C78.7122 28.5774 79.002 28.6443 79.9162 28.5328C80.4959 28.4659 81.4324 28.1538 81.9898 27.8416ZM53.0484 19.3911C53.8511 18.031 55.2112 16.6932 56.3261 16.2249C56.7274 16.0466 57.7085 15.9128 58.5112 15.9128C59.3139 15.9128 60.0274 15.8013 60.0943 15.6898C60.5402 14.954 59.0463 13.6831 57.7085 13.6831C56.6828 13.6831 54.8545 14.6196 53.7173 15.7567C52.7809 16.6932 51.7329 18.5661 51.7329 19.3242C51.7329 19.7256 52.112 20.5951 52.2903 20.5951C52.3349 20.5951 52.6694 20.06 53.0484 19.3911Z" fill="#83B3C7"/>
<path d="M33.984 25.5896C33.8057 24.0734 33.984 20.7958 34.3408 19.6586C35.0766 17.1614 38.4657 14.7756 42.0555 14.2182C42.8805 14.1067 42.992 14.129 43.1035 14.5972C43.3264 15.3999 43.3041 15.4668 42.7467 15.4668C41.8771 15.4668 39.4245 16.3587 38.3096 17.0722C35.634 18.7668 34.0509 22.2451 34.4746 25.4781C34.5638 26.147 34.5192 26.6153 34.3854 26.7045C34.2293 26.7936 34.0955 26.37 33.984 25.5896ZM37.6853 13.2371C37.6853 13.1479 38.1536 12.4567 38.711 11.6986C39.915 10.0933 42.4123 8.15345 44.9987 6.81563C47.0277 5.76768 49.8817 4.69743 50.1939 4.8981C50.5952 5.12107 50.3723 5.5893 49.7479 5.90146C44.9987 8.22034 43.371 9.29059 41.2751 11.4757C40.2941 12.479 39.7589 12.8358 38.8671 13.1034C38.2205 13.2817 37.6853 13.3486 37.6853 13.2371Z" fill="#83B3C7"/>
<path d="M65.7794 59.1912C64.999 58.9459 63.8172 58.3216 63.6612 58.054C63.572 57.898 63.728 57.898 64.1071 58.054C65.0213 58.3885 66.3368 58.3216 68.9678 57.7419C70.2833 57.452 71.3536 57.2514 71.3536 57.2737C71.3536 57.2959 70.7516 57.7865 70.0381 58.3662C68.834 59.3027 68.6111 59.3919 67.5185 59.3696C66.8719 59.3696 66.0915 59.2804 65.7794 59.1912ZM50.6844 56.6939C48.8783 56.471 46.5594 55.6683 45.5115 54.9325C44.3075 54.0629 43.1257 52.2123 41.9663 49.4474C41.0967 47.3292 40.1379 44.1185 40.1379 43.3158C40.1379 43.0928 40.5393 42.4462 41.0521 41.8665C41.9886 40.7962 42.1447 39.949 41.4312 39.8152C41.2305 39.7706 40.4947 40.105 39.8258 40.5733C38.7555 41.2868 38.4657 41.376 37.663 41.2645C36.1468 41.0638 34.7867 40.0605 33.8279 38.4328C31.5759 34.5531 31.8881 30.9633 34.6529 29.135C35.5894 28.4884 35.9238 28.3992 37.1279 28.3992C38.2204 28.3992 38.644 28.5107 39.1346 28.8897C39.7589 29.3802 41.0298 31.766 41.0298 32.4795C41.0298 32.7025 41.1859 32.9254 41.3643 32.9923C41.9886 33.2376 43.7054 32.8363 44.3075 32.3234L44.8872 31.8106L44.3075 29.2242C43.5494 25.9465 43.5494 25.01 44.3743 21.0635C45.1324 17.4737 45.1993 16.0467 44.7088 14.4413C44.3966 13.3934 44.4189 13.3265 44.9318 12.4346C46.2919 10.1157 49.5026 7.35091 53.5161 5.07663C56.5039 3.40436 57.864 2.95842 60.6511 2.82464C64.5753 2.62397 68.4327 3.51585 72.8252 5.65635C74.765 6.59282 75.3001 6.97186 76.6156 8.39887C77.4629 9.31304 78.5778 10.6731 79.1129 11.4312L80.0717 12.7914H78.8007C77.3737 12.7914 76.5042 13.215 75.9467 14.1292C75.4562 14.9764 75.4785 15.5562 75.9913 15.3555C77.7751 14.5974 79.1798 14.7535 80.9858 15.8906C83.1709 17.273 83.7284 18.9007 84.1074 24.8094C84.5756 32.3903 83.55 38.9233 81.0527 44.386C80.0494 46.5711 77.396 50.6069 76.2143 51.7217C74.5197 53.3494 71.4205 54.9325 68.455 55.7129C66.4483 56.248 63.3267 56.248 61.7659 55.7352C57.9086 54.4419 54.7424 52.0116 51.6431 47.9535C50.5506 46.5265 49.6141 45.3894 49.5472 45.434C49.3465 45.6347 50.2161 47.7306 50.9073 48.7339C52.156 50.54 55.4559 53.9514 56.9052 54.9325L58.2876 55.8466L57.1059 55.7575C55.6789 55.6237 54.7424 55.8689 54.0735 56.4933C53.5607 56.9838 53.2039 56.9838 50.6844 56.6939ZM71.7772 49.4251C73.1373 49.1353 74.4751 48.3103 74.4751 47.7529C74.4751 47.6637 73.0035 47.5745 71.1975 47.5745C67.407 47.5968 66.3368 47.463 64.7091 46.861C63.349 46.3482 62.4348 45.6347 61.7659 44.5644C61.4761 44.1185 61.097 43.784 60.8517 43.784C60.0714 43.784 60.2051 43.9847 63.126 47.6414C63.5051 48.1096 64.0402 48.6448 64.3524 48.8231C65.7794 49.7819 68.9232 50.0272 71.7772 49.4251ZM72.9144 44.0739C72.9144 43.3158 72.8029 42.8476 72.6468 42.7807C72.4907 42.7361 71.0637 42.6469 69.4583 42.5577C65.8017 42.4016 63.9733 42.0895 62.3456 41.4429C61.9889 41.2868 61.9666 41.3314 62.1896 41.7104C63.2375 43.7171 67.407 45.211 71.9779 45.2556H72.9144V44.0739ZM76.8386 44.3415C77.4852 44.0739 78.3994 43.4273 78.9122 42.9145C79.7595 42.0672 81.2311 39.9713 81.075 39.8152C81.0304 39.7929 79.9825 40.2611 78.7339 40.8631C77.4852 41.4652 75.9244 42.0895 75.2555 42.2232L74.0292 42.4685V45.1664L74.8765 45.0104C75.3224 44.9435 76.2143 44.6313 76.8386 44.3415ZM73.4049 40.5287C74.7204 40.1273 76.192 39.4361 78.0872 38.299C79.1575 37.6524 79.4028 37.3625 79.6926 36.4929C80.25 34.8876 80.1609 34.0849 79.3805 33.4829C77.3514 31.8998 72.8252 25.7904 72.134 23.7168C71.911 23.0256 71.6434 22.602 71.4205 22.602C71.1306 22.602 71.086 22.8027 71.2198 23.8952C71.4428 25.7681 73.0036 28.7559 75.0326 31.1863C77.6636 34.3301 78.0426 34.8876 78.0426 35.5565C78.0426 36.8274 77.6859 37.1619 75.1664 38.2767C72.5799 39.4138 71.2867 39.726 69.9266 39.6145C68.8117 39.5253 68.4773 39.2355 68.3212 38.1652C68.1428 37.1396 67.8976 36.9166 67.5854 37.5186C67.0949 38.4328 67.3401 39.7483 68.2097 40.7517C68.5219 41.1084 68.7894 41.1307 70.3948 41.0192C71.3982 40.93 72.7583 40.7071 73.4049 40.5287ZM37.1947 32.814C37.6407 32.368 37.6853 32.368 38.2204 32.7248C38.5326 32.9254 39.0677 33.6166 39.4021 34.2633L40.0264 35.4227L40.0933 34.3747C40.2717 31.6991 37.3508 29.2465 35.5002 30.5397C34.9651 30.8964 34.2293 32.1451 34.4299 32.3457C34.4968 32.4126 34.6975 32.3011 34.8982 32.1005C35.0988 31.8998 35.4556 31.7437 35.7231 31.7437C36.1022 31.7437 36.1468 31.8329 35.9684 32.4795C35.7009 33.5721 35.79 36.0247 36.1468 36.649C36.4367 37.1619 36.4589 37.0727 36.5927 35.2443C36.7042 33.6612 36.8157 33.1707 37.1947 32.814ZM64.3524 29.3802C66.0915 28.5553 66.2253 27.3066 64.776 25.7458C64.2409 25.1661 63.4159 23.8952 62.9477 22.9141C62.2119 21.3534 62.1004 21.2196 62.0335 21.7993C61.922 22.6243 62.524 24.4749 63.349 25.7458C63.7057 26.3033 63.9956 26.883 63.9956 27.0168C63.9956 27.7303 62.0781 27.8863 59.7146 27.3735C59.0011 27.2174 58.7335 27.6188 58.9565 28.4884C59.2241 29.6032 62.6801 30.1606 64.3524 29.3802ZM81.8777 27.9086C83.3939 27.0614 83.3939 27.0168 81.8331 23.8729C81.075 22.3121 80.4061 21.0412 80.3392 21.0412C80.0271 21.0412 80.5176 23.5608 81.0527 24.7202C81.6993 26.1472 81.6101 26.3702 80.3838 26.4148C79.5142 26.437 78.221 26.5931 77.8866 26.7269C77.396 26.9053 77.5744 27.6857 78.221 28.1762C78.7116 28.5776 79.0014 28.6444 79.8933 28.533C80.4953 28.4661 81.3872 28.1762 81.8777 27.9086ZM52.9363 19.6365C53.1816 19.1237 53.8951 18.1872 54.4971 17.5629C55.8126 16.2697 57.1059 15.8014 58.8673 15.9575C59.8038 16.0467 60.0045 16.0021 60.0937 15.6677C60.4058 14.7312 59.1126 13.6832 57.7079 13.6832C55.8795 13.6832 53.2485 15.6677 52.2674 17.7636C51.6877 19.0345 51.6208 19.525 51.9553 20.1716C52.2897 20.7959 52.4681 20.7067 52.9363 19.6365Z" fill="#F1D8B9"/>
<path d="M60.2046 111.656C59.8924 111.611 58.889 111.455 57.9749 111.321C55.9236 111.031 53.4709 110.452 53.2033 110.206C52.7351 109.783 50.7507 102.492 49.7473 97.4749C49.0115 93.8851 47.9859 86.9508 47.8967 85.0332L47.8298 83.8292L48.8331 83.6508C54.6526 82.6029 63.17 82.09 67.451 82.5583C68.8112 82.7143 70.0375 82.9596 70.1713 83.0934C70.4388 83.361 70.8402 88.6453 71.353 99.0803C71.5983 104.075 71.9773 109.114 72.1557 110.028C72.2895 110.585 72.2226 110.63 70.8402 110.965C68.1645 111.633 62.5903 111.99 60.2046 111.656ZM72.8469 103.406C72.7577 101.823 72.6908 99.8829 72.6908 99.058V97.6087L73.8725 97.3634C74.4969 97.2296 75.0766 97.1627 75.1212 97.185C75.2773 97.3411 76.459 103.919 76.4813 104.721C76.4813 105.68 76.0576 105.948 74.1178 106.148L72.9807 106.26L72.8469 103.406ZM88.0311 93.7959C87.5628 93.7513 87.1838 93.6175 87.1838 93.4837C87.1838 93.3723 87.2284 93.2831 87.273 93.2831C87.3845 93.2831 90.3945 92.6811 91.1749 92.4804C91.5986 92.3912 91.6432 92.302 91.4425 92.1013C91.2418 91.9007 90.0824 91.8561 87.3399 91.9007L83.4825 91.9453L83.1035 88.3332C82.8805 86.3264 82.5683 84.1413 82.39 83.4724L82.0555 82.2461L82.6575 81.7556C82.992 81.4657 84.4413 80.8414 85.846 80.3286C87.2507 79.8158 88.9007 79.1468 89.4804 78.857C91.1303 78.032 92.7803 78.634 93.6499 80.3509C94.2742 81.5549 95.6566 87.0845 95.6566 88.3332C95.6566 90.8304 94.2965 92.9932 92.4236 93.4614C91.3087 93.7513 89.1013 93.9074 88.0311 93.7959ZM92.0445 88.2663C91.9776 88.1994 91.1303 87.9987 90.1716 87.798C88.0534 87.3967 85.623 87.5974 85.623 88.1771C85.623 88.2886 87.0946 88.3778 88.9007 88.3778C90.6844 88.3778 92.1114 88.3332 92.0445 88.2663ZM91.1972 85.2562C91.5763 85.0332 89.8371 84.7211 88.1872 84.6988C87.0277 84.6988 85.623 85.1447 85.623 85.546C85.623 85.7913 90.6621 85.5461 91.1972 85.2562ZM86.7602 83.4724C87.5439 83.0346 88.3395 82.6183 89.1459 82.2238C89.7925 81.9117 90.2831 81.5995 90.2385 81.5549C90.1939 81.488 89.4135 81.5995 88.4993 81.7779C86.9162 82.1123 84.5082 83.4055 84.5082 83.9184C84.5082 84.342 85.5784 84.1413 86.7602 83.4724ZM79.0454 91.7892C78.9785 91.0757 78.6664 88.9352 78.3542 87.0399C78.0644 85.1447 77.8191 83.3164 77.8191 82.9819C77.8191 82.3799 77.8637 82.3576 78.9562 82.3576C80.0711 82.3576 80.0711 82.3576 80.517 83.361C81.1636 84.8326 81.5873 87.0176 81.7434 89.8493L81.8994 92.302L80.7177 92.6811C80.0711 92.8817 79.4691 93.0601 79.3799 93.0601C79.2907 93.0601 79.1346 92.4804 79.0454 91.7892ZM71.0854 76.7834C70.6395 75.8692 69.7699 73.9294 69.1233 72.5024C68.499 71.0754 67.5179 69.2247 66.9828 68.3997C66.4477 67.5748 66.0017 66.8613 66.0017 66.7944C66.0017 66.4822 66.7375 65.9025 67.0051 65.9917C67.1612 66.0586 67.6517 65.9471 68.1199 65.7687C69.324 65.2559 69.9929 65.3228 71.13 66.0809C71.6875 66.4376 72.3564 66.7498 72.6462 66.7498C73.1367 66.7498 73.1367 66.7721 73.0253 69.2693C72.8469 72.7699 72.4678 76.1145 72.1334 77.3854L71.8435 78.4556L71.0854 76.7834ZM71.8212 72.8591C72.2003 72.3909 71.8212 71.7666 71.13 71.7666C70.4388 71.7666 70.0598 72.3909 70.4388 72.8591C70.6172 73.0598 70.9071 73.2159 71.13 73.2159C71.353 73.2159 71.6429 73.0598 71.8212 72.8591ZM70.9962 68.9349C71.2861 68.4666 70.9517 67.7977 70.4165 67.6862C70.0598 67.6194 69.3463 68.1991 69.3463 68.5335C69.3463 68.868 70.0598 69.4477 70.4165 69.3808C70.5949 69.3362 70.8625 69.1355 70.9962 68.9349ZM50.4385 59.8377C48.1865 59.035 46.7818 57.9871 47.1609 57.3851C47.2278 57.2736 47.6068 57.3182 48.0082 57.4966C48.3872 57.6526 49.6581 57.8756 50.7953 58.0094C51.9324 58.1209 52.9135 58.2547 52.9581 58.3215C53.0027 58.3661 52.9358 58.8344 52.802 59.3472C52.5344 60.4397 52.2669 60.5066 50.4385 59.8377ZM46.0014 55.1554C44.9758 54.5534 45.0873 54.3973 46.1129 54.977C47.1386 55.579 47.1832 55.6013 46.9156 55.6013C46.8041 55.6013 46.3805 55.4007 46.0014 55.1554ZM42.9022 51.3426C42.59 50.7183 42.367 50.1609 42.4116 50.1163C42.4562 50.0717 42.7684 50.5845 43.1028 51.2534C43.4373 51.9223 43.6603 52.4798 43.5934 52.4798C43.5265 52.4798 43.2366 51.9669 42.9022 51.3426ZM40.3603 42.8698C40.3603 42.6914 40.6502 42.357 40.9846 42.134L41.5866 41.7104L41.0292 42.357C40.7171 42.7137 40.4495 43.0482 40.4272 43.0928C40.3826 43.1374 40.3603 43.0482 40.3603 42.8698ZM32.4003 33.6389C32.4003 33.1484 32.4449 32.97 32.4895 33.2598C32.5341 33.5274 32.5341 33.9287 32.4895 34.1517C32.4226 34.3524 32.378 34.1294 32.4003 33.6389ZM33.8942 29.8484C34.3179 29.4248 34.6969 29.068 34.7638 29.068C34.8307 29.068 34.5408 29.4248 34.1172 29.8484C33.6936 30.2721 33.3145 30.6288 33.2476 30.6288C33.1807 30.6288 33.4706 30.2721 33.8942 29.8484ZM39.5353 29.67C39.4461 29.514 39.1117 29.2018 38.7995 29.0011C38.5097 28.8005 38.3313 28.6221 38.4205 28.6221C38.7326 28.6221 39.6468 29.3133 39.7806 29.6477C39.9367 30.0491 39.7806 30.0491 39.5353 29.67ZM36.7482 28.466C37.0158 28.4214 37.4171 28.4214 37.6401 28.466C37.8408 28.5329 37.6178 28.5775 37.1273 28.5552C36.6367 28.5552 36.4584 28.5106 36.7482 28.466ZM34.0057 25.3667C33.7827 23.4046 34.0057 20.7736 34.4739 19.3689C35.2097 17.2507 38.0637 15.1548 41.2299 14.4413C42.1218 14.2406 42.8799 14.1291 42.9245 14.1737C42.9914 14.2183 43.0582 14.4859 43.0805 14.7757C43.1474 15.2217 42.9914 15.3331 41.5198 15.7122C39.3347 16.2696 37.8631 17.0946 36.5698 18.5216C35.0537 20.1939 34.4962 21.71 34.4516 24.4303C34.4293 25.6343 34.3625 26.66 34.2956 26.7491C34.2064 26.816 34.0949 26.1917 34.0057 25.3667ZM52.5567 16.6932C52.8243 16.3365 53.3594 15.7345 53.7608 15.3554C54.3182 14.8649 54.2513 14.9764 53.5378 15.8014C52.2223 17.2953 52.0216 17.4736 52.5567 16.6932ZM37.6847 13.3487C37.6847 13.0143 38.7772 11.5873 39.8475 10.4947C41.9211 8.39881 44.9089 6.57046 48.3649 5.34413C49.502 4.92049 50.0818 4.80901 50.2601 4.98738C50.6392 5.36643 50.171 5.70088 47.3615 7.06099C45.0427 8.17584 43.1251 9.53595 41.4752 11.2305C40.6725 12.0555 39.8252 12.7913 39.5799 12.8582C39.3347 12.9251 38.7995 13.0812 38.4205 13.1926C38.0191 13.3264 37.6847 13.3933 37.6847 13.3487ZM79.3799 12.3454C79.2461 12.1001 79.2238 11.8994 79.313 11.8994C79.4245 11.8994 79.6251 12.1001 79.7812 12.3454C79.9373 12.5906 79.9596 12.7913 79.8258 12.7913C79.7143 12.7913 79.5137 12.5906 79.3799 12.3454ZM47.1609 9.8927C48.0082 9.04542 48.7662 8.33191 48.8108 8.33191C48.8777 8.33191 48.2311 9.04542 47.3838 9.8927C46.5366 10.7623 45.7785 11.4535 45.7339 11.4535C45.667 11.4535 46.3136 10.7623 47.1609 9.8927ZM49.1453 8.15354C49.3237 7.86368 50.6169 6.90491 50.6169 7.06099C50.6169 7.12788 50.2378 7.44004 49.7919 7.79679C49.346 8.13124 49.0561 8.30962 49.1453 8.15354ZM71.576 5.32183C71.2638 5.14346 71.13 5.00968 71.2415 5.00968C71.3753 5.00968 71.7098 5.14346 72.0219 5.32183C72.3341 5.50021 72.4901 5.63399 72.3564 5.63399C72.2449 5.63399 71.8881 5.50021 71.576 5.32183ZM54.1844 4.8759C54.1844 4.71982 55.9904 3.82794 56.1019 3.91713C56.1465 3.98402 55.7229 4.22929 55.1878 4.49685C54.6303 4.76441 54.1844 4.94279 54.1844 4.8759ZM61.0518 2.82458C61.3194 2.77999 61.7653 2.77999 62.0552 2.82458C62.3228 2.86918 62.0998 2.91377 61.5424 2.91377C60.9849 2.91377 60.762 2.86918 61.0518 2.82458Z" fill="#F6F5F5"/>
</g>
<defs>
<clipPath id="clip0_3360_20285">
<rect width="114.16" height="114.16" fill="white" transform="translate(0.671875 0.0821533)"/>
</clipPath>
</defs>
</svg>
