<svg width="115" height="115" viewBox="0 0 115 115" fill="none" xmlns="http://www.w3.org/2000/svg">
<path d="M53.2525 43.8715C53.4823 44.0394 53.7535 44.1418 54.037 44.1676C54.3205 44.1934 54.6057 44.1418 54.8621 44.0182C55.1185 43.8945 55.3365 43.7036 55.4929 43.4657C55.6492 43.2278 55.738 42.9519 55.7497 42.6675L55.7854 42.6496L56.3116 33.276C55.6784 33.3563 55.0451 33.4633 54.403 33.606C50.9247 34.3998 47.9012 36.1122 45.5378 38.431L53.2168 43.8804L53.2525 43.8715ZM52.2179 57.5975C52.1286 57.2013 51.889 56.8553 51.5496 56.6324C51.2102 56.4095 50.7975 56.327 50.3985 56.4023L50.3806 56.3845L41.1586 57.9453C42.5476 61.7721 45.1546 65.0371 48.579 67.2386L52.1555 58.6053L52.1287 58.5696C52.2536 58.2753 52.2982 57.9364 52.2179 57.5975ZM49.1498 50.953C49.462 50.8638 49.7474 50.6854 49.9704 50.4179C50.4966 49.7579 50.4074 48.8036 49.7742 48.2506L49.7831 48.2149L42.764 41.9361C40.6859 45.3252 39.696 49.3922 40.1508 53.584L49.1409 50.9887L49.1498 50.953ZM55.9638 53.7089L58.5502 54.9575L61.1367 53.7178L61.7788 50.9262L59.9861 48.6965H57.1143L55.3216 50.9262L55.9638 53.7089ZM61.3329 42.6407C61.3507 42.9618 61.4577 43.2828 61.6807 43.5504C62.2069 44.2104 63.1612 44.3353 63.839 43.8447L63.8658 43.8536L71.5002 38.44C68.5949 35.5925 64.8347 33.7782 60.7977 33.276L61.3329 42.6407ZM66.693 56.3667C66.3632 56.3009 66.0207 56.348 65.7209 56.5004C64.9539 56.8661 64.6239 57.7758 64.9539 58.5428L64.945 58.5607L68.5571 67.2832C72.0354 65.0624 74.6397 61.7536 76.0042 57.9274L66.702 56.3577L66.693 56.3667ZM59.9415 60.9866C59.7899 60.7012 59.5491 60.4693 59.237 60.3177C58.8729 60.1377 58.453 60.1069 58.0665 60.2318C57.6801 60.3567 57.3576 60.6275 57.1678 60.9866H57.1589L52.6282 69.1829C55.7676 70.2532 59.228 70.494 62.7064 69.7002C63.3307 69.5575 63.9371 69.388 64.5258 69.1918L59.9772 60.9777H59.9415V60.9866Z" fill="#486BB3"/>
<path d="M101.333 59.2028L93.9577 27.1756C93.7647 26.3443 93.3872 25.5672 92.853 24.9018C92.3188 24.2363 91.6416 23.6997 90.8718 23.3316L61.0207 9.07942C60.1556 8.66916 59.2102 8.48187 58.2559 8.52646C57.4978 8.56213 56.7575 8.74943 56.0708 9.07942L26.2286 23.3405C25.458 23.7074 24.7801 24.2437 24.2458 24.9093C23.7114 25.575 23.3344 26.3527 23.1428 27.1845L15.7759 59.2117C15.428 60.7012 15.7134 62.2709 16.5518 63.5552C16.6499 63.7068 16.7569 63.8584 16.8729 64.0011L37.5287 89.6871C38.0655 90.3531 38.7448 90.8902 39.5165 91.2591C40.2882 91.6279 41.1327 91.8192 41.9881 91.8187L75.1124 91.8098C76.8515 91.8098 78.4926 91.025 79.5717 89.6871L100.219 64.0011C100.756 63.3383 101.136 62.5619 101.329 61.7305C101.523 60.8992 101.524 60.0348 101.333 59.2028ZM89.9799 58.8104C89.7659 59.7647 88.7313 60.3444 87.6789 60.1125H87.6521C87.6432 60.1125 87.6254 60.1036 87.6165 60.1036C87.4648 60.0679 87.2865 60.0412 87.1527 60.0055C86.5373 59.845 86.1003 59.5953 85.5473 59.3901C84.3611 58.962 83.389 58.6142 82.4346 58.4715C81.953 58.4358 81.7033 58.6677 81.4358 58.8461C81.302 58.8193 80.9006 58.748 80.6687 58.7123C78.9563 64.0903 75.3086 68.7459 70.3676 71.6623C70.4568 71.8675 70.5995 72.3045 70.6619 72.3848C70.5459 72.688 70.3765 72.9734 70.5281 73.4372C70.8759 74.338 71.4378 75.212 72.1156 76.2733C72.4456 76.7639 72.7756 77.1385 73.07 77.7003C73.1413 77.8341 73.2305 78.0392 73.3018 78.1819C73.7656 79.163 73.4267 80.2957 72.5438 80.7238C71.6519 81.1519 70.5459 80.697 70.0733 79.716C70.0019 79.5733 69.9127 79.386 69.8503 79.2611C69.6006 78.6814 69.5114 78.182 69.333 77.6201C68.9317 76.4339 68.5927 75.4439 68.1111 74.6144C67.8346 74.2131 67.5047 74.1596 67.2014 74.0615C67.1479 73.9634 66.9338 73.5799 66.8179 73.3747C61.5035 75.3905 55.6327 75.3778 50.3271 73.3391L49.9258 74.0704C49.6225 74.1507 49.3371 74.2309 49.1588 74.445C48.5077 75.2209 48.2491 76.4695 47.7764 77.6557C47.598 78.2176 47.5177 78.7171 47.2591 79.2968C47.2056 79.4306 47.1075 79.6089 47.0361 79.7516C46.5634 80.7327 45.4575 81.1876 44.5745 80.7595C43.6916 80.3314 43.3527 79.2076 43.8164 78.2176C43.8878 78.0749 43.977 77.8698 44.0483 77.736C44.3426 77.1741 44.6816 76.7995 45.0026 76.309C45.6805 75.2477 46.2691 74.3023 46.6169 73.4015C46.7061 73.1072 46.5723 72.6969 46.4564 72.3937L46.7775 71.6177C42.0238 68.7994 38.269 64.3133 36.4763 58.7569L35.7004 58.8907C35.4952 58.7747 35.0761 58.4982 34.6747 58.525C33.7204 58.6588 32.7393 59.0155 31.5621 59.4436C31.0091 59.6577 30.5721 59.8985 29.9567 60.059C29.8318 60.0947 29.6445 60.1304 29.4929 60.1661C29.484 60.1661 29.4662 60.175 29.4572 60.175H29.4305C28.3691 60.4069 27.3435 59.8271 27.1294 58.8728C26.9154 57.9185 27.5843 56.9553 28.6367 56.6967C28.6456 56.6967 28.6545 56.6877 28.6635 56.6877H28.6813C28.8329 56.6521 29.0202 56.5986 29.154 56.5807C29.7783 56.4648 30.2778 56.4915 30.8664 56.4469C32.115 56.3132 33.1496 56.2061 34.0682 55.9207C34.3626 55.8048 34.639 55.4034 34.8352 55.1448L35.5844 54.9307C34.7461 49.1246 36.1641 43.4256 39.2322 38.8146L38.6614 38.3062C38.6257 38.0832 38.5811 37.5659 38.3046 37.2716C37.6001 36.6116 36.7171 36.0676 35.6469 35.4076C35.1385 35.1133 34.6747 34.9171 34.1663 34.5425C34.0593 34.4622 33.9166 34.3373 33.7918 34.2482C33.7828 34.2392 33.7739 34.2392 33.765 34.2303C32.9088 33.5436 32.7126 32.3663 33.328 31.5993C33.6758 31.1623 34.202 30.9482 34.755 30.966C35.1831 30.9839 35.6201 31.1355 36.0036 31.4387C36.1285 31.5369 36.289 31.6617 36.4049 31.7598C36.8866 32.1701 37.1809 32.5803 37.5822 33.0084C38.4652 33.9003 39.1876 34.6495 39.9903 35.1846C40.4095 35.4254 40.7305 35.3273 41.0516 35.2916C41.1586 35.363 41.4976 35.6127 41.6938 35.7465C44.7351 32.5179 48.7307 30.1277 53.3684 29.0753C54.4476 28.8345 55.5268 28.665 56.597 28.5758L56.6416 27.8177C56.8824 27.5858 57.15 27.2558 57.2213 26.8902C57.3016 25.927 57.1767 24.8924 57.0251 23.6527C56.9448 23.073 56.8021 22.5824 56.7843 21.9581C56.7754 21.8243 56.7843 21.6459 56.7843 21.5032V21.4497C56.7843 20.3527 57.587 19.4609 58.5681 19.4609C59.558 19.4609 60.3518 20.3527 60.3518 21.4497C60.3518 21.6014 60.3607 21.8154 60.3518 21.9581C60.3251 22.5913 60.1913 23.073 60.111 23.6527C59.9594 24.9013 59.8345 25.9359 59.9059 26.8902C59.9772 27.3718 60.2537 27.5591 60.4856 27.7821C60.4945 27.9158 60.5123 28.3439 60.5302 28.5758C66.2114 29.0842 71.4824 31.6796 75.3621 35.7376L76.0399 35.256C76.2718 35.2738 76.7802 35.3362 77.128 35.14C77.9307 34.6049 78.6531 33.8557 79.5361 32.9639C79.9374 32.5358 80.2317 32.1255 80.7133 31.7152C80.8204 31.6171 80.9898 31.4923 81.1147 31.3942C81.9709 30.7074 83.166 30.7877 83.7814 31.5547C84.3968 32.3217 84.2006 33.5079 83.3444 34.1857C83.2195 34.2838 83.0679 34.4176 82.9519 34.5068C82.4436 34.8814 81.9709 35.0776 81.4714 35.3719C80.4012 36.0319 79.5182 36.5759 78.8136 37.2359C78.4836 37.5927 78.5104 37.9227 78.4747 38.2438L77.8415 38.8146C79.3844 41.1067 80.535 43.7109 81.186 46.5471C81.8371 49.3654 81.9352 52.1838 81.5606 54.8862L82.283 55.1002C82.4168 55.2875 82.6755 55.7334 83.05 55.8761C83.9687 56.1615 85.0033 56.2686 86.2519 56.4023C86.8405 56.4469 87.34 56.4202 87.9643 56.5361C88.1159 56.5629 88.3299 56.6253 88.4816 56.661C89.5251 56.8929 90.2029 57.8561 89.9799 58.8104Z" fill="#486BB3"/>
<path d="M74.2915 41.936L67.317 48.1792V48.197C67.1032 48.3849 66.944 48.627 66.8563 48.8978C66.7686 49.1686 66.7555 49.458 66.8185 49.7356C66.8815 50.0132 67.0183 50.2687 67.2143 50.475C67.4103 50.6814 67.6584 50.8311 67.9324 50.9083L67.9413 50.944L76.976 53.5483C77.1633 51.595 77.0473 49.5794 76.5836 47.5638C76.1287 45.5125 75.3349 43.6306 74.2915 41.936Z" fill="#486BB3"/>
<path d="M10.6933 100.127C10.9698 99.8241 11.2552 99.512 11.5406 99.182C11.8438 98.852 12.1292 98.5309 12.4057 98.2187C12.6822 97.8887 12.9409 97.5855 13.1817 97.2912C13.4314 97.0058 13.6454 96.7471 13.8238 96.5331H17.1594C16.4905 97.3001 15.8394 98.0314 15.1973 98.736C14.573 99.4317 13.8773 100.145 13.1192 100.885C13.4938 101.224 13.8862 101.635 14.2876 102.107C14.6889 102.571 15.0814 103.053 15.4559 103.561C15.8305 104.061 16.1784 104.569 16.4905 105.068C16.8027 105.568 17.0702 106.032 17.2843 106.442H14.0646C13.8595 106.112 13.6276 105.755 13.369 105.372C13.1192 104.97 12.8517 104.578 12.5573 104.185C12.2719 103.784 11.9598 103.401 11.6298 103.035C11.3176 102.669 11.0055 102.366 10.6844 102.107V106.442H7.875V92.261L10.6844 91.8062V100.127M27.0592 106.13C26.5776 106.263 25.9622 106.397 25.2131 106.504C24.455 106.629 23.6701 106.692 22.8407 106.692C22.0023 106.692 21.2977 106.576 20.7269 106.353C20.174 106.13 19.7369 105.809 19.407 105.407C19.077 104.988 18.8451 104.506 18.7113 103.936C18.5686 103.374 18.5062 102.749 18.5062 102.072V96.5509H21.3156V101.733C21.3156 102.634 21.4315 103.294 21.6723 103.695C21.9131 104.096 22.3591 104.301 23.0101 104.301C23.2153 104.301 23.4293 104.292 23.6523 104.283C23.8752 104.257 24.0804 104.23 24.2588 104.212V96.5599H27.0682V106.13M36.0761 101.429C36.0761 99.619 35.4072 98.7182 34.0783 98.7182C33.7929 98.7182 33.4986 98.7539 33.2132 98.8341C32.9367 98.9055 32.7137 99.0036 32.5354 99.1195V104.23C32.6781 104.257 32.8475 104.283 33.0616 104.301C33.2756 104.31 33.5075 104.319 33.7572 104.319C34.5242 104.319 35.104 104.052 35.4875 103.525C35.8799 102.999 36.0761 102.304 36.0761 101.429ZM38.939 101.51C38.939 102.304 38.8231 103.017 38.5823 103.659C38.373 104.273 38.0321 104.833 37.5834 105.3C37.1464 105.755 36.6023 106.103 35.9602 106.353C35.318 106.593 34.5867 106.709 33.7751 106.709C33.4362 106.709 33.0794 106.692 32.7048 106.656C32.3391 106.629 31.9735 106.593 31.6078 106.54C31.26 106.486 30.9121 106.433 30.5911 106.37C30.2611 106.299 29.9757 106.219 29.726 106.148V92.2878L32.5354 91.8329V96.7739C32.8511 96.635 33.1797 96.5274 33.5164 96.4528C33.8553 96.3815 34.221 96.3369 34.6134 96.3369C35.318 96.3369 35.9423 96.4617 36.4775 96.7115C37.0215 96.9523 37.4674 97.3001 37.8331 97.746C38.1988 98.2009 38.4753 98.7449 38.6625 99.3871C38.8409 100.02 38.939 100.725 38.939 101.51ZM40.6247 101.581C40.6247 100.698 40.7585 99.9311 41.0171 99.2801C41.2936 98.6112 41.6503 98.0582 42.0873 97.6212C42.5244 97.1842 43.0327 96.8453 43.5946 96.6223C44.1743 96.3993 44.763 96.2834 45.3695 96.2834C46.7786 96.2834 47.8935 96.7204 48.7051 97.5855C49.5256 98.4417 49.9269 99.6992 49.9269 101.376C49.9269 101.537 49.918 101.724 49.9091 101.92C49.9002 102.107 49.8823 102.277 49.8734 102.428H43.4965C43.5589 103.008 43.8265 103.463 44.3081 103.802C44.7897 104.141 45.423 104.31 46.2346 104.31C46.7519 104.31 47.2513 104.266 47.7418 104.176C48.1603 104.1 48.5698 103.98 48.9637 103.82L49.3383 106.103C49.1867 106.174 48.9905 106.255 48.7318 106.326C48.4821 106.397 48.1967 106.469 47.8845 106.513C47.5813 106.576 47.2602 106.629 46.9035 106.665C46.5556 106.7 46.1989 106.718 45.8511 106.718C44.9592 106.718 44.1833 106.585 43.5144 106.326C42.8633 106.058 42.3103 105.702 41.8733 105.256C41.4392 104.783 41.1109 104.224 40.9101 103.615C40.7228 102.99 40.6247 102.312 40.6247 101.581ZM47.2246 100.511C47.2163 100.273 47.1711 100.039 47.0908 99.8152C47.0283 99.5922 46.9213 99.3871 46.7697 99.2087C46.627 99.0303 46.4486 98.8876 46.2257 98.7717C46.0116 98.6558 45.744 98.6022 45.414 98.6022C45.1019 98.6022 44.8254 98.6558 44.6024 98.7717C44.3795 98.8698 44.1833 99.0125 44.0406 99.1909C43.8889 99.3693 43.773 99.5744 43.6838 99.8152C43.6125 100.038 43.55 100.27 43.5144 100.511H47.2246ZM58.0876 99.0393C57.8379 98.9768 57.5436 98.9144 57.2046 98.852C56.844 98.7753 56.4763 98.7365 56.1076 98.736C55.9293 98.736 55.7152 98.7539 55.4655 98.7895C55.2247 98.8163 55.0463 98.843 54.9214 98.8876V106.469H52.112V97.0771C52.6115 96.8988 53.209 96.7382 53.8869 96.5866C54.5825 96.4261 55.3406 96.3458 56.1879 96.3458C56.3395 96.3458 56.5179 96.3547 56.7319 96.3815C56.946 96.3904 57.16 96.4171 57.3741 96.4528C57.5881 96.4796 57.8022 96.5153 58.0163 96.5688C58.2303 96.6044 58.4087 96.658 58.5603 96.7204L58.0876 99.0393ZM60.0586 96.8898C60.5403 96.7561 61.1557 96.6223 61.9048 96.5153C62.6629 96.3904 63.4478 96.328 64.2772 96.328C65.1156 96.328 65.8202 96.4439 66.3731 96.6669C66.935 96.8809 67.3809 97.1842 67.7109 97.5944C68.0409 97.9958 68.2728 98.4774 68.4066 99.0303C68.5493 99.5833 68.6117 100.199 68.6117 100.877V106.478H65.8023V101.215C65.8023 100.315 65.6864 99.6725 65.4456 99.289C65.2048 98.9144 64.7588 98.7271 64.1078 98.7271C63.9026 98.7271 63.6886 98.736 63.4656 98.7628C63.2426 98.7717 63.0375 98.7985 62.8591 98.8163V106.469H60.0497V96.8898M70.7076 101.581C70.7076 100.698 70.8414 99.9311 71.1001 99.2801C71.3765 98.6112 71.7333 98.0582 72.1703 97.6212C72.6073 97.1842 73.1157 96.8453 73.6776 96.6223C74.2573 96.3993 74.8459 96.2834 75.4524 96.2834C76.8616 96.2834 77.9764 96.7204 78.788 97.5855C79.6086 98.4417 80.0099 99.6992 80.0099 101.376C80.0099 101.537 80.001 101.724 79.9921 101.92C79.9831 102.107 79.9653 102.277 79.9564 102.428H73.5795C73.6419 103.008 73.9095 103.463 74.3911 103.802C74.8727 104.141 75.5059 104.31 76.3175 104.31C76.8348 104.31 77.3343 104.266 77.8248 104.176C78.2433 104.1 78.6527 103.98 79.0467 103.82L79.4213 106.103C79.2696 106.174 79.0734 106.255 78.8148 106.326C78.5651 106.397 78.2797 106.469 77.9675 106.513C77.6643 106.576 77.3432 106.629 76.9864 106.665C76.6386 106.7 76.2819 106.718 75.934 106.718C75.0422 106.718 74.2662 106.585 73.5973 106.326C72.9463 106.058 72.3933 105.702 71.9563 105.256C71.5222 104.783 71.1938 104.224 70.993 103.615C70.8147 102.99 70.7076 102.312 70.7076 101.581ZM77.3075 100.511C77.2992 100.273 77.2541 100.039 77.1737 99.8152C77.1113 99.5922 77.0043 99.3871 76.8527 99.2087C76.71 99.0303 76.5316 98.8876 76.3086 98.7717C76.0946 98.6558 75.827 98.6022 75.497 98.6022C75.1849 98.6022 74.9084 98.6558 74.6854 98.7717C74.4624 98.8698 74.2662 99.0125 74.1235 99.1909C73.9719 99.3693 73.856 99.5744 73.7668 99.8152C73.6954 100.038 73.633 100.27 73.5973 100.511H77.3075ZM82.0969 94.0804L84.9063 93.6256V96.5509H88.2776V98.8876H84.9063V102.375C84.9063 102.964 85.0044 103.436 85.2095 103.793C85.4236 104.141 85.8428 104.319 86.476 104.319C86.7792 104.319 87.0825 104.292 87.4035 104.248C87.7335 104.185 88.0279 104.105 88.2865 104.007L88.6789 106.192C88.34 106.326 87.9654 106.451 87.5462 106.549C87.1271 106.647 86.6187 106.7 86.0211 106.7C85.2541 106.7 84.6209 106.602 84.1125 106.397C83.6131 106.183 83.2117 105.898 82.9085 105.532C82.6053 105.158 82.3912 104.703 82.2663 104.176C82.1504 103.65 82.0969 103.062 82.0969 102.419V94.0804ZM89.7135 101.581C89.7135 100.698 89.8473 99.9311 90.1059 99.2801C90.3824 98.6112 90.7392 98.0582 91.1762 97.6212C91.6132 97.1842 92.1216 96.8453 92.6835 96.6223C93.2632 96.3993 93.8518 96.2834 94.4583 96.2834C95.8675 96.2834 96.9823 96.7204 97.7939 97.5855C98.6144 98.4417 99.0158 99.6992 99.0158 101.376C99.0158 101.537 99.0069 101.724 98.9979 101.92C98.989 102.107 98.9712 102.277 98.9623 102.428H92.5854C92.6478 103.008 92.9153 103.463 93.3969 103.802C93.8786 104.141 94.5118 104.31 95.3234 104.31C95.8407 104.31 96.3401 104.266 96.8307 104.176C97.2492 104.1 97.6586 103.98 98.0525 103.82L98.4271 106.103C98.2755 106.174 98.0793 106.255 97.8207 106.326C97.5709 106.397 97.2855 106.469 96.9734 106.513C96.6701 106.576 96.3491 106.629 95.9923 106.665C95.6445 106.7 95.2877 106.718 94.9399 106.718C94.048 106.718 93.2721 106.585 92.6032 106.326C91.9521 106.058 91.3992 105.702 90.9621 105.256C90.5281 104.783 90.1997 104.224 89.9989 103.615C89.8116 102.99 89.7135 102.312 89.7135 101.581ZM96.3134 100.511C96.3051 100.273 96.26 100.039 96.1796 99.8152C96.1172 99.5922 96.0101 99.3871 95.8585 99.2087C95.7158 99.0303 95.5375 98.8876 95.3145 98.7717C95.1004 98.6558 94.8329 98.6022 94.5029 98.6022C94.1907 98.6022 93.9142 98.6558 93.6913 98.7717C93.4683 98.8698 93.2721 99.0125 93.1294 99.1909C92.9778 99.3693 92.8618 99.5744 92.7726 99.8152C92.7013 100.038 92.6389 100.27 92.6032 100.511H96.3134ZM104.046 104.453C104.563 104.453 104.929 104.399 105.143 104.301C105.357 104.203 105.464 104.007 105.464 103.713C105.464 103.49 105.321 103.294 105.045 103.124C104.768 102.946 104.349 102.749 103.778 102.535C103.341 102.375 102.94 102.205 102.574 102.027C102.227 101.849 101.923 101.644 101.674 101.403C101.424 101.153 101.228 100.859 101.085 100.52C100.942 100.181 100.88 99.7706 100.88 99.2979C100.88 98.3704 101.228 97.6301 101.914 97.095C102.61 96.5509 103.555 96.2834 104.759 96.2834C105.366 96.2834 105.937 96.3369 106.49 96.4528C107.043 96.5509 107.48 96.6669 107.81 96.7917L107.319 98.9768C106.989 98.8609 106.632 98.7628 106.249 98.6736C105.874 98.5844 105.446 98.5398 104.965 98.5398C104.082 98.5398 103.645 98.7806 103.645 99.2711C103.645 99.3871 103.662 99.4852 103.698 99.5744C103.734 99.6636 103.814 99.7528 103.921 99.8419C104.037 99.9133 104.189 100.002 104.376 100.11C104.581 100.199 104.831 100.297 105.134 100.413C105.749 100.636 106.258 100.868 106.659 101.091C107.06 101.305 107.373 101.545 107.605 101.804C107.845 102.054 108.006 102.339 108.095 102.651C108.193 102.964 108.247 103.329 108.247 103.748C108.247 104.729 107.872 105.47 107.132 105.969C106.4 106.469 105.366 106.727 104.019 106.727C103.136 106.727 102.405 106.656 101.816 106.504C101.237 106.353 100.835 106.228 100.612 106.13L101.085 103.846C101.567 104.034 102.057 104.185 102.557 104.301C103.056 104.399 103.555 104.453 104.046 104.453Z" fill="#486CB4"/>
</svg>
