<svg width="115" height="115" viewBox="0 0 115 115" fill="none" xmlns="http://www.w3.org/2000/svg">
<path fill-rule="evenodd" clip-rule="evenodd" d="M74.1861 30.611C71.8636 23.3797 68.1383 16.9796 62.8887 11.4723C61.5616 10.0792 60.0864 8.80291 59.1607 7.06999C58.5756 5.97299 58.0182 4.86082 57.4483 3.75667L57.0861 2.84607L56.9854 3.2046C56.9381 5.00619 55.9178 6.22717 54.6478 7.36788C53.2172 8.6504 51.8865 10.0435 50.513 11.3893L46.2891 16.9448L42.8741 23.2254L40.59 29.3927L40.5213 29.4882C39.2647 33.6167 38.6448 37.862 38.3407 42.1484C38.2257 43.76 38.3577 45.3939 38.4477 47.0135C38.5771 49.3288 38.9793 51.604 39.5822 53.8453C41.7735 61.9846 46.2213 68.7352 52.303 74.4717C53.4321 75.5375 54.6531 76.507 55.8313 77.5201L56.353 79.311L56.8382 82.0901L57.0701 84.9914C57.0674 85.58 57.0433 86.1713 57.0781 86.7582C57.0879 86.9089 57.2841 87.048 57.3947 87.1925L58.3794 87.5386L59.4041 87.9372L59.2284 85.3588L59.2204 82.8188L59.5745 78.9498L59.8313 78.1079L60.5671 76.8049C61.4751 76.0753 62.4481 75.4118 63.2749 74.5993C64.7705 73.1303 66.2635 71.6409 67.6022 70.0311C69.3439 67.9444 70.8316 65.6583 72.034 63.2207C72.8358 61.5859 73.5921 59.9181 74.2173 58.2101C74.7685 56.7047 75.1101 55.1216 75.5444 53.5724L75.6586 53.2379C76.5549 49.0568 76.7056 44.8329 76.3765 40.5822C76.1116 37.1565 75.3063 33.8503 74.1861 30.611ZM56.4378 75.4501C56.5751 74.7625 56.7455 74.0784 56.8694 73.3881C56.7455 74.0784 56.576 74.7625 56.4378 75.4501ZM59.4853 75.9246L58.9091 74.6626L59.4853 75.9246L60.3317 76.6479L59.4853 75.9246ZM95.2977 91.9132C94.561 90.5014 93.48 89.4294 92.0512 88.7257C90.8543 88.137 89.5674 87.8784 88.2438 87.8409C87.2521 87.8124 86.2567 87.8632 85.2632 87.8757C84.3811 87.8864 83.4981 87.9016 82.6161 87.8935C81.5788 87.8828 80.5416 87.8516 79.5043 87.8222C79.3322 87.8168 79.21 87.8516 79.1297 88.0264C79.004 88.2985 78.855 88.5607 78.7007 88.8586L78.8738 88.9138C79.3884 89.0048 79.9057 89.0824 80.4176 89.185C81.0758 89.3161 81.3719 89.6942 81.4022 90.249C81.4468 91.0392 81.4647 91.8312 81.462 92.6232C81.4486 95.7572 81.4263 98.8913 81.4031 102.024C81.4013 102.231 81.3978 102.447 81.3416 102.642C81.2765 102.866 81.206 103.157 81.0384 103.268C80.7367 103.461 80.398 103.591 80.0439 103.647C79.5436 103.729 79.4597 103.751 79.3037 104.243L79.2359 104.49C79.161 104.758 79.2011 104.811 79.4811 104.813C81.0883 104.831 82.6946 104.866 84.3008 104.861C85.7662 104.855 87.2315 104.944 88.6915 104.669C90.0713 104.409 91.3591 103.954 92.5346 103.185C94.0597 102.185 95.1567 100.849 95.7356 99.1053C96.2029 97.697 96.3073 96.2602 96.1485 94.7877C96.0494 93.7843 95.7607 92.8089 95.2977 91.9132ZM92.482 100.53C91.6222 102.13 90.3397 103.198 88.5069 103.48C87.3591 103.656 86.2094 103.605 85.1151 103.17C84.4221 102.896 84.1644 102.297 84.143 101.59C84.1234 100.897 84.1135 100.204 84.1135 99.5102C84.11 97.0718 84.11 94.6334 84.1135 92.196C84.1153 91.428 84.1287 90.6584 84.1412 89.8896C84.1501 89.3491 84.2634 89.168 84.7905 89.1243C87.1058 88.9299 89.315 89.1796 91.1496 90.8091C92.284 91.8169 92.9297 93.1021 93.1982 94.5782C93.3097 95.1936 93.3436 95.8232 93.4131 96.4475C93.3569 97.8727 93.1643 99.2596 92.482 100.53ZM111.915 97.8888C111.458 96.7775 110.593 96.081 109.506 95.635C109.135 95.4825 108.753 95.3568 108.352 95.2087L108.492 95.1195C108.925 94.8421 109.406 94.6183 109.779 94.2767C110.685 93.4464 111.062 92.402 110.885 91.1614C110.717 89.9814 110.129 89.1154 109.077 88.5535C108.123 88.0452 107.094 87.8596 106.029 87.8605C104.186 87.8623 102.343 87.89 100.5 87.8935C99.865 87.8944 99.2299 87.8472 98.5949 87.8382C98.4718 87.8365 98.289 87.8677 98.2364 87.9497C98.091 88.1727 97.9947 88.4296 97.8912 88.6775C97.8315 88.822 97.8904 88.9014 98.0553 88.9228C98.4986 88.9834 98.941 89.0592 99.3851 89.1252C99.9987 89.2171 100.296 89.5364 100.333 90.1544L100.341 90.521C100.342 92.443 100.348 94.365 100.34 96.287C100.329 98.2064 100.311 100.126 100.286 102.045C100.283 102.287 100.25 102.529 100.215 102.769C100.163 103.131 99.9693 103.381 99.5983 103.459L98.5486 103.666C98.4246 103.691 98.2453 103.688 98.1945 103.764C98.0018 104.053 97.8466 104.367 97.868 104.747L97.976 104.777L101.502 104.863L102.209 104.861C103.429 104.846 104.651 104.87 105.869 104.808C107.188 104.742 108.427 104.35 109.572 103.677C110.791 102.959 111.73 102.013 112.063 100.589C112.277 99.6806 112.278 98.7664 111.915 97.8888ZM102.958 89.7005C102.963 89.3143 103.134 89.1466 103.517 89.1368C104.462 89.111 105.4 89.1163 106.311 89.4418C107.49 89.8628 108.216 90.8795 108.202 92.1219C108.196 92.5991 108.203 93.0718 108.027 93.5302C107.68 94.4328 107.015 94.909 106.072 95.0018C105.579 95.0517 105.082 95.0571 104.644 95.0803L103.179 95.0161C102.985 95.0089 102.9 94.9233 102.901 94.7235L102.958 89.7005ZM109.028 101.735C108.556 102.762 107.697 103.302 106.62 103.489C105.762 103.636 104.882 103.597 104.041 103.376C103.411 103.214 103.154 102.708 103.028 102.148C102.944 101.772 102.958 101.325 102.951 100.935C102.939 100.332 102.948 99.0803 102.948 99.0803H102.936C102.936 98.1885 102.938 97.4161 102.933 96.5608C102.932 96.3762 102.963 96.2843 103.189 96.2915C103.99 96.3155 104.793 96.3289 105.594 96.3601C106.311 96.3878 106.981 96.6 107.612 96.9398C108.571 97.4571 109.149 98.2491 109.308 99.3372C109.429 100.162 109.378 100.974 109.028 101.735ZM21.1007 102.697L21.1177 97.8478C21.1204 97.1182 21.0276 96.4029 20.7886 95.7108C20.1295 93.8049 18.3119 92.9371 16.4193 93.6212C15.5586 93.9324 14.7872 94.4042 14.0505 94.9394C13.6215 95.2515 13.6215 95.2515 13.3111 94.8065C12.4326 93.5471 11.1777 93.1164 9.71685 93.581C8.77235 93.8807 7.94648 94.3935 7.1643 94.9893C7.09117 95.0446 6.94401 95.1061 6.90031 95.0732C6.82717 95.0187 6.77633 94.8894 6.77812 94.7922L6.83163 93.9306C6.83609 93.7496 6.80131 93.5677 6.78347 93.3777C6.43029 93.4999 6.14845 93.6221 5.85324 93.6934C4.94085 93.9164 4.02222 94.1215 3.10448 94.3311C2.88241 94.3819 2.64784 94.4488 2.62644 94.7039C2.60414 94.9545 2.84584 94.9964 3.03313 95.0714C3.42734 95.2301 3.81887 95.3987 4.20862 95.5699C4.53594 95.7144 4.65813 95.9757 4.65635 96.3271C4.6501 97.8299 4.65991 99.331 4.65099 100.834C4.64743 101.445 4.61889 102.055 4.59124 102.666C4.56627 103.207 4.38165 103.434 3.85723 103.57C3.57896 103.643 3.29624 103.692 3.01619 103.758C2.95465 103.772 2.84941 103.812 2.84851 103.842C2.83692 104.107 2.82265 104.378 2.86724 104.636C2.87616 104.682 3.15621 104.682 3.3114 104.7L3.41575 104.694C4.4967 104.678 5.57765 104.661 6.6595 104.649C7.23298 104.643 7.80556 104.648 8.42809 104.648L8.49498 103.783C8.13823 103.718 7.81983 103.669 7.50589 103.6C7.01625 103.493 6.80755 103.234 6.79506 102.74L6.78614 102.032C6.78079 100.198 6.77366 98.3642 6.77366 96.5296C6.77366 96.2629 6.88425 96.0515 7.11881 95.8919C7.61559 95.5565 8.14001 95.2899 8.72062 95.1409C9.94428 94.8279 11.0056 95.2631 11.4765 96.3039C11.6255 96.6321 11.7423 96.9951 11.7753 97.3519C11.9483 99.1909 11.8734 101.032 11.7691 102.871C11.7468 103.268 11.5604 103.467 11.1688 103.565L10.2484 103.759C10.1744 103.778 10.0665 103.728 10.0611 103.789C10.0406 104.044 10.0522 104.433 10.0522 104.433H10.2716L13.0739 104.525C13.8418 104.523 14.6106 104.616 15.3776 104.636C15.5149 104.639 15.6371 104.659 15.6451 104.5C15.6539 104.254 15.6506 104.007 15.6353 103.761L15.4891 103.735L14.6998 103.558C14.1673 103.432 13.9836 103.229 13.9818 102.691C13.9756 101.363 13.9934 100.036 13.9818 98.7084C13.975 97.9494 13.9467 97.1907 13.8971 96.4333C13.8837 96.2317 13.9149 96.0997 14.0754 95.9864C14.5408 95.6463 15.0642 95.3939 15.6202 95.2417C17.346 94.7868 18.7587 95.7331 18.8479 97.5124C18.9353 99.2284 18.8987 100.951 18.8853 102.67C18.8809 103.269 18.6829 103.45 18.0933 103.61L17.89 103.663C17.2862 103.807 17.2915 103.807 17.3272 104.449C17.3388 104.649 17.3941 104.701 17.6082 104.696C18.8381 104.668 20.068 104.661 21.2979 104.65C21.8009 104.646 22.3039 104.65 22.8515 104.65L22.963 103.815C22.4823 103.688 22.039 103.593 21.6109 103.453C21.2327 103.325 21.099 103.096 21.1007 102.697ZM63.455 95.347C63.9616 94.8769 63.9652 94.2562 63.8234 93.5668C63.422 93.9868 62.9725 94.1804 62.4597 94.2169C61.7721 94.266 61.0969 94.2062 60.4565 93.9324C58.7245 93.1886 57.0193 93.2412 55.3193 94.0573C53.8897 94.7423 53.0103 95.8098 52.922 97.4286C52.8658 98.4658 53.0602 99.4478 53.7523 100.273C54.167 100.767 54.6995 101.087 55.2997 101.308C55.5584 101.404 55.578 101.527 55.3613 101.692C55.2012 101.813 55.0354 101.926 54.8645 102.031C54.5022 102.258 54.1377 102.483 53.771 102.703C53.5561 102.833 53.483 102.999 53.5534 103.253C53.7594 104.001 54.2901 104.432 54.9537 104.747L55.1954 104.916L54.984 105.127C54.3338 105.654 53.6578 106.152 53.0353 106.711C52.5126 107.181 52.344 107.811 52.5019 108.506C52.8203 109.893 53.7398 110.751 55.0446 111.145C57.3252 111.835 59.4666 111.439 61.4189 110.088C62.5765 109.286 63.4069 108.243 63.6593 106.807C63.942 105.193 63.0457 103.793 61.4412 103.504C60.3798 103.311 59.2935 103.256 58.2197 103.133C57.7185 103.076 57.2101 103.042 56.7223 102.927C56.3075 102.829 56.1015 102.491 56.1399 102.161C56.1782 101.836 56.5234 101.534 56.9185 101.503C57.714 101.438 58.4935 101.314 59.2266 100.979C61.1692 100.091 62.0708 98.5354 61.8452 96.4413C61.8158 96.1594 61.7515 95.8812 61.6936 95.553C62.3152 95.6573 62.9511 95.8152 63.455 95.347ZM57.5606 105.173C58.3508 105.196 59.2498 105.245 60.1185 105.499C60.8829 105.722 61.5116 106.113 61.6971 106.966C61.921 107.997 61.4251 109.023 60.4271 109.574C59.4924 110.09 58.4775 110.132 57.4483 110.026C56.5671 109.935 55.7742 109.63 55.1392 108.979C54.3026 108.122 54.2981 106.936 55.1356 106.082C55.8839 105.318 56.2844 105.16 57.5606 105.173ZM59.5379 98.9635C59.0777 100.436 57.7381 100.639 56.6884 100.168C55.7938 99.768 55.4041 98.9796 55.1998 98.0797C55.1205 97.7336 55.1017 97.3742 55.0553 97.0201C55.0741 96.5126 55.1579 96.0257 55.3764 95.569C56.0462 94.1625 57.6917 94.2464 58.6023 94.8832C58.993 95.1561 59.265 95.5271 59.4353 95.9668C59.8146 96.9239 59.8508 97.9827 59.5379 98.9635ZM51.181 103.657C50.8624 103.609 50.5474 103.538 50.2383 103.447C49.6961 103.281 49.6301 103.179 49.6238 102.606C49.6078 101.008 49.5971 99.4094 49.5792 97.8121C49.5703 97.0932 49.4847 96.3842 49.2644 95.6975C48.6847 93.8869 46.909 92.9148 45.1323 93.449C44.1477 93.746 43.3022 94.2981 42.5147 94.9465L42.2275 95.1668L42.2284 94.8716C42.2471 94.5318 42.2837 94.192 42.281 93.8522C42.2792 93.6747 42.2114 93.4963 42.1784 93.3402C41.5069 93.5427 40.9049 93.746 40.2903 93.9012C39.6741 94.0564 39.0453 94.1616 38.4219 94.2883C38.1124 94.3507 37.885 94.538 37.8903 94.7512C37.8983 95.0517 38.1472 95.1097 38.3648 95.1998C38.759 95.3612 39.1523 95.5244 39.5421 95.6975C39.8203 95.8214 39.9336 96.0515 39.9309 96.3503C39.9113 98.4275 39.8988 100.506 39.8685 102.584C39.8596 103.24 39.6937 103.413 39.048 103.558L38.7661 103.614C38.1686 103.716 38.1516 103.74 38.1927 104.371L38.1962 104.475C38.1891 104.718 38.2952 104.796 38.5449 104.794C40.1325 104.775 41.7209 104.766 43.3085 104.772C43.989 104.775 44.0621 104.721 44.0478 104.022L44.0157 103.722C43.6269 103.657 43.2549 103.609 42.8911 103.529C42.5102 103.444 42.3738 103.288 42.3381 102.901C42.3051 102.547 42.2944 102.188 42.2908 101.831C42.273 100.198 42.2587 98.5648 42.2507 96.9327C42.2489 96.5216 42.3247 96.1398 42.7029 95.8749C43.2595 95.4772 43.9156 95.2419 44.5981 95.1953C46.0144 95.0981 47.0909 95.9374 47.1676 97.3492C47.2621 99.091 47.2336 100.839 47.2559 102.585C47.2577 102.715 47.2345 102.846 47.2167 102.975C47.1828 103.23 47.0579 103.422 46.7993 103.488C46.5469 103.554 46.2909 103.613 46.0331 103.652C45.6487 103.709 45.6407 103.707 45.6113 104.094L45.6211 104.356C45.6666 104.807 45.6675 104.794 46.1241 104.789C47.6599 104.777 49.1948 104.769 50.7297 104.771C51.3719 104.772 51.4174 104.742 51.4227 104.08L51.421 103.923C51.4308 103.754 51.355 103.685 51.181 103.657ZM72.6324 93.5587C71.0226 93.1654 69.4957 93.458 68.0455 94.208C66.6363 94.9367 65.6945 96.0631 65.336 97.6186C64.9739 99.1909 65.1469 100.725 65.8417 102.185C66.2939 103.133 66.9895 103.866 67.9367 104.342C70.1539 105.459 72.8661 104.952 74.6053 103.459C75.9779 102.28 76.4818 100.712 76.5121 98.77C76.4934 98.5755 76.4746 98.201 76.4229 97.8299C76.1313 95.7162 74.6677 94.0564 72.6324 93.5587ZM73.8516 101.724C73.4244 103.406 71.9698 104.153 70.3287 103.575C69.4912 103.281 68.8651 102.718 68.4442 101.958C67.4756 100.209 67.2892 98.3508 67.8404 96.444C68.2078 95.1739 69.2531 94.4792 70.4964 94.5666C71.6077 94.6442 72.4621 95.1775 73.0891 96.0819C73.7499 97.0362 74.005 98.1216 74.0728 99.2614C74.0844 99.4442 74.0746 99.6271 74.0746 99.8108L74.1531 99.8197C74.055 100.456 74.0086 101.104 73.8516 101.724ZM32.144 93.5311C30.4503 93.144 28.8636 93.5266 27.3938 94.3873C26.1229 95.1311 25.3015 96.2424 24.9867 97.6944C24.6914 99.0509 24.8118 100.384 25.2926 101.684C25.5851 102.476 26.0284 103.172 26.6785 103.715C28.0476 104.858 29.6476 105.147 31.3502 104.828C32.7915 104.558 34.0579 103.918 34.9783 102.72C35.8399 101.6 36.1681 100.314 36.202 98.9198C36.1512 98.4783 36.1387 98.0288 36.045 97.598C35.5795 95.4477 34.3219 94.0279 32.144 93.5311ZM33.5255 101.719C33.1125 103.392 31.6347 104.158 30.0052 103.58C28.9591 103.208 28.2777 102.442 27.8469 101.46C27.1566 99.8821 27.0157 98.2402 27.4625 96.576C27.805 95.3033 28.8369 94.3659 30.4164 94.5906C31.3859 94.728 32.1422 95.223 32.7058 96.0105C33.4675 97.0727 33.7181 98.2892 33.7529 99.5673V99.8286L33.8171 99.8384C33.7235 100.466 33.6771 101.105 33.5255 101.719Z" fill="#4FAA41"/>
</svg>
