<svg width="115" height="115" viewBox="0 0 115 115" fill="none" xmlns="http://www.w3.org/2000/svg">
<g clip-path="url(#clip0_3360_20326)">
<path d="M27.1026 41.0193H48.5968V42.7138H29.0647V55.5569H47.4374V57.2514H29.0647V71.343H48.8644V73.0376H27.1026V41.0193ZM50.5589 41.0193H52.8778L63.0452 55.1109L73.3018 41.0193L87.3934 23.1818L64.2046 56.6271L76.1558 73.0376H73.7477L62.956 58.0541L52.0751 73.0376H49.7563L61.7966 56.6271L50.5589 41.0193ZM77.0476 42.7138V41.0193H101.574V42.7138H90.2474V73.0376H88.2853V42.7138H77.0476ZM0.167969 41.0193H2.57603L36.6457 91.6778L22.554 73.0376L2.21928 43.4273L2.1301 73.0376H0.167969V41.0193ZM101.396 70.8079C101.842 70.8079 102.109 70.5404 102.109 70.0944C102.109 69.6485 101.842 69.3809 101.396 69.3809C100.95 69.3809 100.682 69.6485 100.682 70.0944C100.682 70.5404 101.039 70.8079 101.396 70.8079ZM103.358 68.935C103.358 70.0944 104.25 70.8971 105.498 70.8971C106.836 70.8971 107.639 70.0944 107.639 68.6674V63.7621H106.569V68.6674C106.569 69.4701 106.212 69.8269 105.498 69.8269C104.874 69.8269 104.428 69.4701 104.428 68.8458H103.358V68.935ZM108.977 68.8458C109.066 70.0944 110.047 70.8971 111.652 70.8971C113.258 70.8971 114.328 70.0944 114.328 68.7566C114.328 67.6864 113.704 67.1512 112.366 66.7945L111.563 66.6161C110.671 66.4377 110.315 66.081 110.315 65.635C110.315 65.0107 110.85 64.5648 111.742 64.5648C112.544 64.5648 113.079 64.9215 113.169 65.635H114.239C114.15 64.4756 113.169 63.6729 111.742 63.6729C110.225 63.6729 109.244 64.4756 109.244 65.7242C109.244 66.7053 109.779 67.3296 111.028 67.5972L111.92 67.7755C112.812 67.9539 113.258 68.3107 113.258 68.8458C113.258 69.4701 112.633 69.916 111.742 69.916C110.85 69.916 110.136 69.4701 110.047 68.8458H108.977Z" fill="black"/>
</g>
<defs>
<clipPath id="clip0_3360_20326">
<rect width="114.16" height="114.16" fill="white" transform="translate(0.167969 0.0821533)"/>
</clipPath>
</defs>
</svg>
