<svg width="115" height="115" viewBox="0 0 115 115" fill="none" xmlns="http://www.w3.org/2000/svg">
<path d="M57.081 29.5487C26.9891 29.5487 2.59277 41.9119 2.59277 57.1621C2.59277 72.4122 26.9891 84.7754 57.081 84.7754C87.1729 84.7754 111.569 72.4122 111.569 57.1621C111.569 41.9119 87.1729 29.5487 57.081 29.5487ZM42.9029 62.5419C41.6025 63.7584 40.1586 64.2605 38.5684 64.7778C36.9781 65.296 34.9545 65.1889 32.4938 65.1889H26.9169L25.3713 74.1077H18.8597L24.6703 43.7839H37.1922C40.9595 43.7839 43.7074 44.8676 45.4349 46.8448C47.1625 48.8221 47.6815 51.6289 46.993 55.1723C46.7085 56.6323 46.2296 57.9897 45.5535 59.1991C44.853 60.447 43.9582 61.5753 42.9029 62.5419ZM61.9096 65.1889L64.4791 52.3281C64.7717 50.8226 64.6646 49.7042 64.1572 49.1575C63.6488 48.6099 62.5678 48.2433 60.9152 48.2433H55.7512L52.4236 65.1889H45.9629L51.7735 35.7571H58.2342L56.6895 43.7839H62.4448C66.0667 43.7839 68.5639 44.5108 69.9383 45.7737C71.3127 47.0366 71.7247 48.7668 71.1753 51.5959L68.4721 65.1889H61.9096ZM97.8157 55.2196C97.532 56.6796 97.0522 58.0138 96.3771 59.2223C95.701 60.4326 94.8181 61.5394 93.7273 62.5419C92.4269 63.7584 90.9821 64.2605 89.3928 64.7778C87.8035 65.296 85.778 65.1889 83.3173 65.1889H77.7404L76.1957 74.1077H69.6841L75.4938 43.7839H88.0166C91.7839 43.7839 94.5318 44.8676 96.2584 46.8448C97.9842 48.8221 98.5042 51.677 97.8157 55.2196ZM85.5488 48.2433H81.0885L78.6564 60.7296H82.6181C85.242 60.7296 87.1988 60.4709 88.4831 59.4809C89.7692 58.4927 90.6352 56.9587 91.0856 54.6461C91.5172 52.4244 91.321 50.6915 90.4969 49.7782C89.6719 48.8649 88.0229 48.2433 85.5488 48.2433ZM34.7253 48.2433H30.2641L27.832 60.7296H31.7928C34.4176 60.7296 36.3735 60.4709 37.6586 59.4809C38.9438 58.4927 39.8107 56.9587 40.2603 54.6461C40.6919 52.4244 40.4957 50.6915 39.6716 49.7782C38.8475 48.8649 37.1993 48.2433 34.7253 48.2433Z" fill="#6181B6"/>
</svg>
