<svg width="115" height="116" viewBox="0 0 115 116" fill="none" xmlns="http://www.w3.org/2000/svg">
<path d="M84.5051 83.0745C85.2052 77.2479 84.9956 76.3926 89.3355 77.3371L90.437 77.4334C93.7743 77.585 98.1401 76.8965 100.705 75.7049C106.227 73.1426 109.5 68.866 104.057 69.9889C91.6383 72.5513 90.7848 68.3461 90.7848 68.3461C103.898 48.8898 109.379 24.1911 104.647 18.1451C91.7418 1.65516 69.403 9.45283 69.0293 9.6544L68.9097 9.67669C66.4562 9.16743 63.7101 8.8633 60.6251 8.81336C55.0054 8.7206 50.7413 10.2867 47.5065 12.7394C47.5065 12.7394 7.65483 -3.67915 9.50904 33.3872C9.90325 41.2723 20.8109 93.0519 33.8216 77.412C38.5771 71.6933 43.172 66.8575 43.172 66.8575C45.4534 68.3728 48.1861 69.147 51.0508 68.8687L51.2729 68.6796C51.2033 69.3895 51.2337 70.0843 51.3612 70.9066C48.0104 74.6516 48.9951 75.3089 42.2944 76.6878C35.5144 78.0844 39.4975 80.5719 42.0973 81.2221C45.2501 82.0105 52.5429 83.1271 57.4714 76.2293L57.2752 77.016C58.5899 78.0684 58.5016 84.5764 58.6871 89.2258C58.8735 93.876 59.1847 98.215 60.1328 100.774C61.0809 103.332 62.1993 109.921 71.0056 108.034C78.3654 106.46 83.9923 104.191 84.5051 83.0745Z" fill="black"/>
<path d="M68.138 112.635C64.2432 112.635 61.7067 111.129 60.1665 109.674C57.8413 107.48 56.9191 104.654 56.368 102.965L56.1298 102.261C55.0203 99.2657 54.644 94.9535 54.421 89.4007C54.3871 88.5668 54.3639 87.7079 54.3381 86.7973C54.3193 86.1311 54.2961 85.2954 54.2622 84.4213C52.859 85.0904 51.3696 85.5611 49.8368 85.8198C47.0907 86.2889 44.1386 86.1373 41.0607 85.3676C38.889 84.8245 36.6325 83.6989 35.3465 81.9606C31.5979 85.2436 28.0224 84.7986 26.0745 84.1484C22.6381 83.0024 19.5629 79.7818 16.6724 74.3048C14.613 70.4028 12.6215 65.3191 10.7521 59.1937C7.49675 48.5269 5.42849 37.292 5.24476 33.6032C4.66682 22.0578 7.77501 13.8008 14.481 9.06408C25.0596 1.59195 41.0875 5.98622 46.931 7.98135C50.8571 5.6152 55.4761 4.46379 60.6953 4.54674C63.4985 4.59222 66.1679 4.83838 68.6473 5.28075C71.2337 4.46736 76.3424 3.29989 82.1904 3.37303C92.9652 3.50146 101.894 7.70041 108.009 15.5159C112.374 21.0919 110.216 32.8014 108.542 39.2853C106.185 48.4056 102.057 58.1057 96.9858 66.5499C98.3628 66.5597 100.358 66.3947 103.194 65.8088C108.79 64.6538 110.426 67.6541 110.87 68.9972C112.65 74.386 104.915 78.4583 102.503 79.5785C99.4117 81.0135 94.3717 81.8875 90.2441 81.6984L90.0639 81.6868L88.9794 81.5914L88.8724 82.4958L88.7689 83.3796C88.4915 94.0812 86.9629 100.859 83.8172 105.337C80.52 110.032 75.9375 111.347 71.9009 112.212C70.5238 112.507 69.2725 112.635 68.138 112.635ZM59.9417 73.6858C62.4559 75.6979 62.6762 79.4839 62.8733 86.5592C62.8983 87.4421 62.9215 88.2778 62.9527 89.0582C63.0472 91.4217 63.2693 96.9557 64.1362 99.2943C64.2584 99.6251 64.3681 99.9605 64.484 100.316C65.4499 103.274 65.9342 104.757 70.1109 103.864C73.6168 103.112 75.4193 102.438 76.8303 100.43C78.8807 97.5096 80.0276 91.6357 80.2381 82.9711L84.504 83.0746L80.2676 82.5662L80.3924 81.5085C80.7982 78.0212 81.0908 75.5026 83.4212 73.8366C85.2915 72.5005 87.4222 72.6299 89.1194 72.9358C87.2545 71.5266 86.739 69.874 86.6017 69.1961L86.2458 67.4436L87.2456 65.9604C93.0044 57.4162 97.7528 46.9153 100.275 37.1492C102.867 27.1148 102.077 21.7858 101.286 20.778C90.8256 7.41144 72.6857 12.9304 70.7914 13.5565L70.4712 13.7295L68.8658 14.0283L68.0435 13.8579C65.7764 13.387 63.2577 13.1266 60.558 13.0829C56.3162 13.0115 52.8941 14.014 50.0883 16.1429L48.1413 17.619L45.8822 16.6887C41.0554 14.715 26.8781 10.7471 19.397 16.0457C15.2445 18.9871 13.3528 24.7504 13.7738 33.1759C13.9129 35.9577 15.8028 46.4881 18.9208 56.7009C23.2294 70.8149 27.1448 75.5035 28.7796 76.0484C29.065 76.1447 29.8052 75.5695 30.5419 74.6847C33.6136 71.0025 36.7942 67.4126 40.0796 63.9198L42.5501 61.32L45.537 63.3044C46.7411 64.1044 48.0691 64.5584 49.4327 64.644L56.5561 58.5685L55.5242 69.0998C55.5011 69.3362 55.4895 69.6581 55.5822 70.2557L55.8926 72.2517L54.5459 73.7572L54.3907 73.932L58.3042 75.738L59.9417 73.6858Z" fill="black"/>
<path d="M104.057 69.989C91.6381 72.5513 90.7845 68.3461 90.7845 68.3461C103.898 48.889 109.379 24.1894 104.649 18.1451C91.7433 1.65613 69.4027 9.45379 69.0299 9.65625L68.9095 9.67766C66.456 9.16839 63.7099 8.86516 60.6231 8.81521C55.0034 8.72335 50.7411 10.2886 47.5063 12.7412C47.5063 12.7412 7.65371 -3.6764 9.50703 33.3891C9.90124 41.275 20.8089 93.0546 33.8196 77.4147C38.575 71.696 43.1691 66.8603 43.1691 66.8603C45.4514 68.3756 48.1832 69.1497 51.047 68.8714L51.27 68.6824C51.2004 69.3923 51.2325 70.0871 51.3592 70.9094C48.0075 74.6544 48.9921 75.3117 42.2915 76.6905C35.5114 78.0872 39.4946 80.5746 42.0953 81.2248C45.2472 82.0132 52.5409 83.1299 57.4685 76.2321L57.2714 77.0187C58.5852 78.0711 59.5074 83.8612 59.3531 89.1099C59.1979 94.3586 59.0944 97.9626 60.1299 100.777C61.1645 103.592 62.1955 109.924 71.0036 108.037C78.3634 106.46 82.1771 102.373 82.7086 95.5555C83.085 90.7081 83.9367 91.4252 83.9911 87.0916L84.6752 85.0403C85.4636 78.4698 84.8001 76.3507 89.3353 77.3362L90.4367 77.4326C93.7741 77.5842 98.1416 76.8956 100.706 75.7041C106.226 73.1435 109.501 68.8661 104.057 69.989Z" fill="#336791"/>
<path d="M68.5837 110.005C61.2418 110.005 58.9158 104.191 57.9641 101.813C56.571 98.3283 56.2705 84.8056 56.5808 73.7161C56.5854 73.529 56.627 73.3448 56.7031 73.1739C56.7793 73.003 56.8885 72.8489 57.0244 72.7204C57.1604 72.5919 57.3204 72.4916 57.4953 72.4252C57.6702 72.3588 57.8565 72.3277 58.0435 72.3336C58.2303 72.3387 58.4143 72.3806 58.5849 72.4568C58.7555 72.5331 58.9094 72.6422 59.0378 72.7779C59.1661 72.9137 59.2665 73.0735 59.3331 73.2481C59.3997 73.4226 59.4313 73.6087 59.4259 73.7954C59.0683 86.5858 59.5757 98.1766 60.6068 100.756C62.2157 104.777 64.6559 108.295 71.5545 106.817C78.1036 105.412 80.5562 102.929 81.6488 96.5962C82.4871 91.7364 84.1451 77.9106 84.3494 75.1823C84.363 74.9959 84.4134 74.8139 84.4974 74.647C84.5815 74.48 84.6978 74.3313 84.8394 74.2093C84.9811 74.0874 85.1455 73.9946 85.3231 73.9362C85.5007 73.8779 85.6881 73.8552 85.8745 73.8695C86.2507 73.898 86.6002 74.0746 86.8463 74.3605C87.0925 74.6464 87.2151 75.0183 87.1873 75.3946C86.9742 78.2352 85.3242 92.0343 84.4537 97.0805C83.1641 104.561 79.8294 107.953 72.1512 109.6C70.8464 109.879 69.6611 110.004 68.5837 110.005ZM28.7739 81.6065C28.1322 81.6043 27.495 81.4989 26.8867 81.2943C22.1179 79.7032 17.5755 71.9368 13.3855 58.2081C10.1962 47.758 8.17517 36.8504 7.99768 33.3052C7.47237 22.7953 10.1783 15.3597 16.0424 11.2063C27.643 2.98675 47.1582 10.8138 47.9831 11.151C48.3326 11.2937 48.6111 11.5695 48.7573 11.9175C48.9035 12.2656 48.9054 12.6575 48.7626 13.007C48.6199 13.3565 48.3442 13.6349 47.9961 13.7811C47.648 13.9273 47.2561 13.9292 46.9067 13.7865C46.7185 13.7098 28.0051 6.21266 17.6817 13.5323C12.6675 17.0873 10.3656 23.6925 10.8392 33.1634C10.9881 36.1503 12.8762 46.7957 16.1066 57.3769C19.8471 69.633 24.1041 77.3665 27.7866 78.5946C28.3646 78.7873 30.1233 79.3732 32.6375 76.3498C35.5695 72.8285 38.6114 69.4002 41.7587 66.07C42.0221 65.8073 42.3778 65.6582 42.7497 65.6545C43.1217 65.6507 43.4803 65.7928 43.7489 66.0501C44.0174 66.3075 44.1745 66.6597 44.1866 67.0315C44.1988 67.4033 44.0649 67.765 43.8136 68.0393C43.7708 68.0839 39.4907 72.5584 34.8262 78.1701C32.617 80.827 30.4997 81.6065 28.7739 81.6065ZM90.696 69.6152C90.438 69.6149 90.1849 69.5444 89.9639 69.4114C89.7428 69.2783 89.5621 69.0877 89.441 68.8599C89.3199 68.6321 89.263 68.3756 89.2764 68.118C89.2897 67.8603 89.3729 67.6112 89.5169 67.3971C102.773 47.7268 107.426 23.9592 103.441 18.8666C98.425 12.4576 91.3426 9.11036 82.389 8.91683C75.7597 8.77413 70.4905 10.4669 69.629 10.7621L69.4122 10.8504C68.5462 11.1224 67.8818 10.648 67.6312 10.0932C67.4883 9.77538 67.4666 9.41624 67.5703 9.08354C67.674 8.75083 67.8958 8.46757 68.1939 8.28716C68.235 8.26308 68.3652 8.20779 68.5766 8.13019L68.5578 8.13555L68.5766 8.1293C70.0401 7.59328 75.3896 5.9888 82.0153 6.06461C91.9223 6.16985 100.106 9.98975 105.68 17.1132C108.318 20.4836 108.324 28.2482 105.697 38.4174C103.02 48.7855 97.9817 59.9277 91.8759 68.9882C91.603 69.3958 91.1535 69.6152 90.696 69.6152ZM91.3738 78.7213C89.1102 78.7213 87.0812 78.402 85.8665 77.6742C84.6178 76.9259 84.3797 75.9092 84.3485 75.3696C84.0078 69.3851 87.3095 68.3434 88.9934 67.868C88.7588 67.5131 88.4252 67.0957 88.0801 66.6649C87.0981 65.4377 85.7532 63.7574 84.7168 61.2441C84.5545 60.8516 84.0461 59.9393 83.4575 58.8824C80.2655 53.1583 73.6237 41.2473 77.8904 35.1478C79.865 32.325 83.7973 31.2137 89.5909 31.8336C87.8866 26.6411 79.7705 10.3982 60.5122 10.0825C54.7204 9.98619 49.9702 11.7673 46.401 15.3713C38.4098 23.4419 38.6987 38.0446 38.7032 38.1909C38.7081 38.3777 38.6762 38.5636 38.6092 38.7381C38.5423 38.9126 38.4416 39.0721 38.313 39.2077C38.1844 39.3433 38.0303 39.4522 37.8596 39.5282C37.6889 39.6043 37.5049 39.6459 37.3181 39.6509C37.1313 39.6558 36.9453 39.6239 36.7709 39.5569C36.5964 39.49 36.4368 39.3893 36.3012 39.2607C36.1657 39.1321 36.0568 38.978 35.9807 38.8073C35.9047 38.6366 35.863 38.4526 35.8581 38.2658C35.8403 37.6174 35.5424 22.2932 44.3791 13.3682C48.5147 9.19153 53.9587 7.12951 60.5595 7.23743C72.8799 7.43988 80.8104 13.7035 85.293 18.9219C90.1796 24.6094 92.5751 30.8828 92.7723 32.977C92.9194 34.5342 91.8019 34.8454 91.5762 34.8918L91.0625 34.9034C85.3768 33.9928 81.729 34.6251 80.2209 36.7799C76.9753 41.4186 83.2586 52.6856 85.9414 57.4973C86.6263 58.7245 87.1204 59.6119 87.347 60.1595C88.2281 62.2965 89.3778 63.7324 90.3009 64.8865C91.1134 65.9014 91.8171 66.7817 92.0686 67.8145C92.1854 68.0196 93.8434 70.4723 103.682 68.4415C106.148 67.9331 107.626 68.3675 108.079 69.7347C108.968 72.4237 103.979 75.5605 101.217 76.843C98.7416 77.9935 94.7915 78.7213 91.3738 78.7213ZM87.1855 75.135C87.4977 75.4499 89.0594 75.993 92.2933 75.8539C95.1687 75.7308 98.2011 75.1056 100.021 74.261C102.347 73.18 103.901 71.9715 104.706 71.1466L104.26 71.2286C97.9692 72.5272 93.5196 72.3542 91.0349 70.714C90.8679 70.6036 90.7072 70.4843 90.5533 70.3564C90.2839 70.4625 90.0351 70.5321 89.8576 70.582C88.4484 70.9771 86.9911 71.3865 87.1855 75.135ZM46.5499 83.0861C44.9873 83.0861 43.3427 82.8729 41.6633 82.4529C39.9233 82.0176 36.9899 80.7075 37.0345 78.5554C37.0853 76.1411 40.5966 75.4169 41.9184 75.1448C46.6935 74.1611 47.0048 73.7669 48.4969 71.8717C48.9321 71.3196 49.4735 70.632 50.2119 69.8079C51.3081 68.5806 52.5058 67.959 53.7723 67.959C54.6544 67.959 55.3777 68.2578 55.8557 68.4567C57.3791 69.0881 58.65 70.615 59.1726 72.4407C59.6444 74.088 59.4188 75.6737 58.5394 76.9054C55.6524 80.9483 51.5061 83.0861 46.5499 83.0861ZM40.1088 78.6776C40.5378 79.0093 41.3975 79.4526 42.3545 79.6916C43.8092 80.0555 45.2201 80.2401 46.5508 80.2401C50.6053 80.2401 53.8606 78.5616 56.225 75.251C56.7182 74.5607 56.5701 73.684 56.4381 73.2229C56.1616 72.257 55.4749 71.3784 54.7676 71.085C54.3841 70.9263 54.0657 70.805 53.7732 70.805C53.6162 70.805 53.1382 70.805 52.3337 71.7049C51.7786 72.3292 51.2449 72.9723 50.7337 73.6331C48.875 75.993 48.0233 76.7939 42.4937 77.9328C41.1442 78.2093 40.4521 78.4912 40.1088 78.6776ZM51.0512 72.1134C50.7115 72.1128 50.3831 71.9908 50.1255 71.7693C49.8679 71.5479 49.698 71.2416 49.6465 70.9058C49.6111 70.6695 49.5873 70.4317 49.5751 70.1931C45.9506 70.1254 42.4535 68.5699 39.7984 65.7998C36.4414 62.2974 34.9136 57.4447 35.6075 52.4867C36.3611 47.1025 36.0793 42.3497 35.9277 39.7962C35.8857 39.0863 35.8554 38.5735 35.8572 38.2185C35.8599 37.7681 35.8688 36.5739 39.8608 34.5502C41.2807 33.8305 44.1276 32.5747 47.2375 32.2528C52.3899 31.7203 55.7862 34.0151 56.8029 38.7153C59.5472 51.4049 57.0205 57.0175 55.1752 61.1165C54.8319 61.88 54.5072 62.6006 54.2477 63.299L54.0185 63.9143C53.0436 66.5284 52.2008 68.7867 52.4595 70.4732C52.4879 70.6579 52.4796 70.8464 52.4351 71.0279C52.3906 71.2094 52.3108 71.3804 52.2003 71.5311C52.0897 71.6817 51.9505 71.8091 51.7907 71.906C51.6309 72.0028 51.4535 72.0672 51.2688 72.0955L51.0512 72.1134ZM38.7121 38.6127L38.7674 39.6286C38.9244 42.281 39.2169 47.2166 38.4249 52.8818C37.8532 56.9711 39.1018 60.9622 41.8524 63.8305C44.0259 66.0977 46.8861 67.349 49.8258 67.349H49.8864C50.2155 65.9621 50.7622 64.4976 51.3509 62.9199L51.5783 62.3081C51.8717 61.5197 52.2151 60.7562 52.579 59.9482C54.3547 56.0025 56.5657 51.091 54.0194 39.3173C53.5154 36.985 52.2927 35.6356 50.2833 35.1906C46.1557 34.2791 40.0044 37.3837 38.7121 38.6127ZM47.3009 38.0089C47.2295 38.5119 48.2222 39.8551 49.5172 40.0344C50.8095 40.2154 51.9154 39.1648 51.9859 38.6618C52.0563 38.1588 51.0646 37.604 49.7696 37.4238C48.4755 37.2437 47.3695 37.5059 47.3009 38.0089ZM49.8142 40.5294L49.4512 40.5044C48.6485 40.3929 47.8369 39.8872 47.2812 39.1505C47.0859 38.8919 46.7675 38.3906 46.8308 37.9429C46.9209 37.2865 47.7218 36.8932 48.9713 36.8932C49.2505 36.8932 49.5413 36.9137 49.8338 36.9547C50.517 37.0493 51.1511 37.2464 51.6193 37.5077C52.4309 37.9608 52.4907 38.4665 52.4541 38.7278C52.3542 39.4529 51.201 40.5294 49.8142 40.5294ZM47.7727 38.0928C47.8128 38.4031 48.5816 39.427 49.5823 39.5652L49.8151 39.5813C50.739 39.5813 51.4294 38.8544 51.5105 38.6163C51.4249 38.454 50.8309 38.0508 49.7045 37.8939C49.4619 37.8591 49.2172 37.8415 48.9722 37.8412C48.248 37.8412 47.8636 38.0045 47.7727 38.0928ZM86.6629 36.9824C86.7334 37.4854 85.7416 38.8286 84.4475 39.0087C83.1543 39.1889 82.0474 38.1391 81.9761 37.6361C81.9083 37.1331 82.9001 36.5775 84.1933 36.3982C85.4865 36.2171 86.5916 36.4802 86.6629 36.9824ZM84.1487 39.2656C82.9036 39.2656 81.8289 38.297 81.7406 37.6682C81.6381 36.9137 82.8805 36.3402 84.1594 36.1627C84.4412 36.1235 84.7204 36.1039 84.9889 36.1039C86.093 36.1039 86.8243 36.4276 86.8975 36.9503C86.9447 37.2883 86.6852 37.81 86.2384 38.2809C85.9432 38.5904 85.3233 39.1264 84.4787 39.2433L84.1487 39.2656ZM84.9897 36.5784C84.7436 36.5784 84.4867 36.5971 84.2263 36.6328C82.9411 36.812 82.1741 37.3275 82.2115 37.604C82.2544 37.9081 83.0749 38.792 84.1496 38.792L84.4145 38.7733C85.1164 38.676 85.6435 38.2176 85.895 37.9536C86.2901 37.5389 86.4471 37.1483 86.4283 37.0154C86.4034 36.8388 85.9289 36.5784 84.9897 36.5784ZM88.526 65.8702C88.2682 65.8704 88.0152 65.8004 87.7941 65.6678C87.573 65.5352 87.3921 65.345 87.2708 65.1175C87.1494 64.89 87.0923 64.6338 87.1054 64.3763C87.1185 64.1188 87.2014 63.8697 87.3452 63.6557C90.3758 59.1294 89.821 54.514 89.285 50.0501C89.0558 48.1487 88.8204 46.1821 88.881 44.2949C88.9434 42.3532 89.1905 40.7514 89.4286 39.2023C89.7113 37.3668 89.9789 35.633 89.8683 33.5745C89.8582 33.3879 89.885 33.2012 89.9471 33.025C90.0092 32.8487 90.1054 32.6865 90.2302 32.5474C90.355 32.4084 90.506 32.2953 90.6745 32.2146C90.843 32.1339 91.0258 32.0871 91.2124 32.0771C91.3989 32.067 91.5857 32.0938 91.7619 32.1559C91.9381 32.2179 92.1004 32.3141 92.2395 32.439C92.3785 32.5638 92.4916 32.7147 92.5723 32.8832C92.653 33.0518 92.6998 33.2345 92.7098 33.4211C92.8365 35.7739 92.5341 37.736 92.2416 39.6348C92.0159 41.1002 91.7823 42.6155 91.7261 44.3858C91.6717 46.0572 91.8848 47.832 92.1105 49.7103C92.6813 54.4569 93.3279 59.8367 89.7104 65.2388C89.5802 65.4333 89.4039 65.5927 89.1973 65.7029C88.9907 65.813 88.7602 65.8705 88.526 65.8702Z" fill="white"/>
</svg>
