<svg width="115" height="116" viewBox="0 0 115 116" fill="none" xmlns="http://www.w3.org/2000/svg">
<path fill-rule="evenodd" clip-rule="evenodd" d="M47.0696 21.4504C50.4195 21.4504 53.7694 21.5021 57.1148 21.4147C58.0022 21.3915 59.5942 22.1255 59.5229 20.2811C59.4685 18.7801 58.0762 19.3232 57.2325 19.3099C53.4537 19.2501 49.6623 19.1065 45.8986 19.3429C43.2203 19.5096 42.431 18.4929 42.7672 16.0367C42.8831 15.1894 42.7717 14.3118 42.7895 13.4485C42.9072 7.69943 44.2968 5.74266 49.8728 4.32458C56.016 2.76379 62.3028 2.81552 68.4291 4.16047C73.9365 5.36985 76.2241 9.65442 75.9459 13.6179C75.607 18.4546 75.8692 23.3331 75.8647 28.1938C75.8567 34.3059 72.6986 37.5496 66.5366 37.6343C61.4618 37.7039 56.3808 37.7592 51.3087 37.6183C45.2636 37.4488 40.8292 42.4701 40.7988 48.1603C40.7988 48.5919 40.8729 49.0379 40.7872 49.4544C40.352 51.544 42.0912 54.9216 39.8757 55.5423C36.5045 56.4895 32.557 56.4895 29.5835 53.4812C28.5757 52.4645 27.7266 51.3255 27.2789 50.0091C24.8896 42.9945 24.5123 35.8907 26.7616 28.7664C28.1636 24.3195 31.9773 21.5538 36.7016 21.4745C40.1567 21.4165 43.6127 21.4629 47.0678 21.4629L47.0696 21.4504ZM53.2253 11.5327C53.0809 9.83548 52.1685 8.59666 50.2857 8.54493C48.2264 8.49142 47.1624 9.73648 47.1597 11.7628C47.1579 13.6411 48.1809 14.8442 50.0503 14.8987C52.1042 14.9584 53.0987 13.6857 53.2253 11.5327Z" fill="#386F9F"/>
<path fill-rule="evenodd" clip-rule="evenodd" d="M72.9252 55.8366C69.1436 55.8366 65.3603 55.8036 61.5787 55.8633C60.727 55.874 59.2982 55.3353 59.2536 56.7918C59.2037 58.4435 60.7368 58.0136 61.7107 58.0235C65.4923 58.0707 69.2774 58.1109 73.0581 58.0056C75.0006 57.9521 75.7934 58.324 75.9388 60.6143C76.5961 70.9824 72.0966 71.8787 63.7977 73.7651C59.0369 74.8469 53.9327 74.2734 49.2378 72.1704C45.3555 70.4339 42.9733 67.9313 43.2739 63.2454C43.5718 58.6201 43.6217 53.9351 43.2658 49.3143C42.8377 43.7374 46.3071 39.6357 53.0542 39.6339C57.5938 39.633 62.1638 39.2869 66.6642 39.7008C73.0991 40.2912 78.1444 34.7134 78.3656 28.2277C78.3745 28.0127 78.3192 27.7817 78.3745 27.582C78.9418 25.5886 76.9243 22.6258 79.6231 21.6189C83.7017 20.0982 88.3011 21.6965 90.3845 24.7913C93.0111 28.6879 93.3661 33.273 93.7906 37.7502C94.2499 42.5762 92.896 47.1194 90.8688 51.4726C89.4918 54.4247 87.1764 55.8517 83.9505 55.8562C80.276 55.8589 76.6024 55.8562 72.9269 55.8562C72.9252 55.8491 72.9252 55.8428 72.9252 55.8366ZM71.9405 65.4688C71.5365 63.6262 70.7053 62.3687 68.5648 62.316C66.3387 62.2625 65.7643 63.9277 65.7759 65.4144C65.7884 66.9948 66.229 68.9391 68.6388 68.7572C70.642 68.6038 71.6186 67.3632 71.9405 65.4688Z" fill="#FFCF46"/>
<path fill-rule="evenodd" clip-rule="evenodd" d="M13.4414 103.353C13.4414 105.656 13.5457 107.812 13.3923 109.95C13.3263 110.872 14.3431 112.608 12.4086 112.606C10.7033 112.606 10.2654 111.249 10.3198 109.609C10.4242 106.478 10.3501 103.341 10.3501 100.208V93.0751C10.3501 88.7762 11.5033 87.3207 15.6149 86.4306C19.4375 85.5994 22.4413 86.8864 23.986 90.2327C25.5308 93.5799 25.6503 97.0288 24.1046 100.434C22.5813 103.789 19.7755 105.041 16.1812 104.047C15.3625 103.824 14.5357 103.63 13.4414 103.353ZM13.4414 94.9266C13.4414 96.1128 13.6019 97.3222 13.4084 98.4763C12.9607 101.144 14.6641 101.801 16.6726 102.276C18.6589 102.745 20.0207 101.9 20.8172 100.15C22.1559 97.2161 22.3806 94.1899 21.3639 91.0871C20.4613 88.3294 18.377 88.0066 15.944 88.349C13.5413 88.6906 13.2157 90.3245 13.4253 92.3446C13.5145 93.1964 13.4414 94.066 13.4414 94.9266ZM39.2942 103.21C37.6487 103.638 36.2199 104.095 34.7572 104.37C31.5554 104.968 29.1848 103.21 28.3509 100.005C27.3163 96.0379 28.1921 92.086 28.2189 88.1278C28.2305 86.3236 29.9001 87.0273 31.055 86.0605C31.055 90.2969 31.0711 93.9536 31.0497 97.6076C31.0381 99.4431 31.5126 100.952 33.2482 101.92C35.1639 102.988 36.7354 101.971 38.4032 101.285C39.5983 100.793 39.4494 99.79 39.4512 98.8357C39.4601 95.3824 39.4503 91.9326 39.4619 88.4792C39.4636 87.6275 39.3753 86.5867 40.6329 86.6286C41.754 86.6652 42.2418 87.3314 42.2231 88.5533C42.1419 94.2675 42.3034 99.9898 42.0715 105.696C41.8958 110.011 38.8518 112.646 34.4727 112.84C33.8172 112.868 33.1304 112.928 32.8852 112.115C32.5115 110.863 33.5255 111.099 34.1918 110.886C39.0088 109.354 39.6384 108.439 39.2942 103.21ZM59.6504 88.3829C60.9248 87.7809 61.6571 87.2297 62.4624 87.0808C66.9816 86.2451 70.4447 86.5635 70.4358 92.6505C70.4296 95.7855 70.4376 98.9213 70.4296 102.055C70.4278 102.933 70.484 103.787 69.1756 103.863C67.7958 103.945 67.4926 103.156 67.4989 102.074C67.5149 99.0533 67.597 96.0325 67.5943 93.0126C67.5925 90.667 67.1136 88.5907 64.1302 88.5979C61.5135 88.6023 59.6602 90.5555 59.6468 93.2508C59.6318 96.1684 59.6327 99.0861 59.6495 102.004C59.6521 103.04 59.6744 103.949 58.1761 103.863C56.8267 103.783 56.9926 102.873 56.9926 102.036C56.9836 94.3656 57.0211 86.6875 56.956 79.012C56.9444 77.667 57.4751 76.8322 58.6684 76.7752C60.3523 76.6976 59.5808 78.1701 59.6058 78.9085C59.7155 81.915 59.6504 84.9287 59.6504 88.3829ZM73.9114 95.2602C73.7411 89.2712 76.5817 86.0739 81.7243 86.2594C84.3054 86.3539 86.2416 87.4991 87.4911 89.7288C89.6985 93.6726 89.3997 97.6183 87.0113 101.312C85.3703 103.848 82.8463 105.044 79.7693 104.391C76.7351 103.749 74.3592 101.017 73.9293 97.8332C73.8151 96.9904 73.9114 96.1173 73.9114 95.2602ZM85.7912 95.4002C85.6557 94.3549 85.6797 92.8976 85.2445 91.5972C84.6496 89.8135 83.5651 88.3776 81.3524 88.2795C79.12 88.1831 78.006 89.488 77.2613 91.294C76.0921 94.1293 76.1679 96.9761 77.4343 99.7606C78.2477 101.554 79.5035 102.867 81.6797 102.503C83.8229 102.145 85.0875 100.741 85.5254 98.6564C85.7243 97.7119 85.6922 96.7229 85.7912 95.4011V95.4002ZM92.0406 96.1984C92.0406 95.1175 92.0201 94.0383 92.0442 92.9627C92.0941 90.8891 91.4332 88.5916 94.2293 87.5321C97.4311 86.3227 100.604 85.4165 103.828 87.2886C105.033 87.9896 105.478 89.2632 105.49 90.6153C105.523 94.3888 105.473 98.1641 105.524 101.938C105.542 103.254 105.196 103.912 103.716 103.877C102.095 103.838 102.436 102.732 102.447 101.849C102.485 98.8348 102.695 95.823 102.638 92.8129C102.563 89.0224 100.483 87.4768 96.9397 88.407C95.4699 88.7941 94.5512 89.5076 94.6235 91.327C94.7671 94.8785 94.6565 98.4424 94.6698 102C94.6734 103.031 94.6886 103.944 93.2009 103.858C91.8381 103.779 92.0611 102.837 92.0504 102.019C92.0254 100.078 92.0433 98.1365 92.0406 96.1984ZM53.1834 87.7934C52.9604 88.0574 52.7731 88.4712 52.5769 88.4748C49.0415 88.5238 50.0226 91.1629 49.9316 93.1206C49.8451 94.9445 49.9316 96.7773 49.9057 98.6065C49.879 100.424 50.0368 102.113 52.2487 102.596C52.8828 102.733 53.1718 103.099 53.0398 103.732C52.8944 104.431 52.337 104.404 51.7849 104.397C49.2431 104.352 47.3585 102.555 47.2836 99.9238C47.2069 97.2357 47.3113 94.5413 47.2479 91.8559C47.2149 90.5805 47.8776 88.9528 45.8209 88.4471C45.5953 88.3927 45.515 87.7533 45.3679 87.3885C48.1113 86.5278 46.9732 84.1617 47.3496 82.3663C47.528 81.5164 48.3351 81.2836 49.0977 81.2114C49.8692 81.1382 49.8754 81.7625 49.9004 82.2843C50.002 84.3534 48.9309 87.1227 52.7401 86.972C52.8676 86.9675 53.0166 87.4732 53.1834 87.7925V87.7934Z" fill="#386F9F"/>
</svg>
