<svg width="115" height="116" viewBox="0 0 115 116" fill="none" xmlns="http://www.w3.org/2000/svg">
<g clip-path="url(#clip0_3360_20247)">
<path d="M109.649 65.4047H104.922V62.9967H114.286V57.7346H105.368C103.049 57.7346 99.9271 59.6075 99.9271 63.175V64.9588C99.9271 68.5263 102.959 70.3101 105.368 70.3101H109.827V72.8073L100.195 72.8965V78.1586H109.649C111.611 78.1586 114.911 76.7316 115 72.8073V70.756C115 67.3669 112.235 65.4047 109.649 65.4047ZM54.709 64.602C54.709 58.0914 48.555 57.467 48.555 57.467H37.585V78.0694H43.1146V73.1641L47.9307 78.1586H56.136L49.6253 71.5587C49.6253 71.5587 54.709 71.1127 54.709 64.602ZM47.4848 67.3669H43.0254V62.6399H47.4848C47.4848 62.6399 48.7334 63.0859 48.7334 64.9588C48.7334 66.9209 47.4848 67.3669 47.4848 67.3669ZM68.3547 57.6454H62.7359C58.7224 57.6454 57.3846 61.3021 57.3846 62.9967V78.0694H63.0034V74.5019H68.2655V78.0694H73.7059V62.9967C73.7059 58.6265 69.7817 57.6454 68.3547 57.6454ZM68.2655 68.6155H62.9142V63.621C62.9142 63.621 62.9142 62.4615 64.698 62.4615H66.6601C68.1763 62.4615 68.2655 63.621 68.2655 63.621V68.6155ZM76.2924 57.6454H82.1787V78.0694H76.2924V57.6454ZM90.384 57.6454H84.5868V78.0694H98.2325V72.8073H90.384V57.6454Z" fill="#CC0000"/>
<path d="M65.2331 55.059C65.7682 54.613 66.2141 54.2563 66.2141 54.2563C66.2141 54.2563 51.2306 39.2728 34.4633 40.9673C26.0797 41.6808 15.734 49.351 9.6692 59.4292C3.60445 69.5073 2.80176 78.0694 2.80176 78.0694H25.6338C25.6338 78.0694 21.2636 58.1805 35.712 50.1536C38.8335 48.6375 48.9117 42.9295 65.2331 55.059ZM50.3387 40.6106C50.0712 40.4322 49.3577 40.0755 47.5739 39.6295L47.4847 41.5025C48.4658 41.8592 49.3577 42.216 50.2495 42.5727L50.3387 40.6106Z" fill="#CC0000"/>
<path d="M50.3393 50.7779L50.4284 48.9942C49.4474 48.8158 48.4663 48.7266 47.5744 48.6374L47.4853 50.4212C48.4663 50.4212 49.3582 50.5996 50.3393 50.7779ZM36.8719 39.7187H37.1395L36.6044 37.9349C35.7125 37.9349 34.8206 38.0241 33.8396 38.1133L34.3747 39.8079C35.1774 39.7187 35.9801 39.7187 36.8719 39.7187ZM38.8341 52.2941C39.6367 51.8482 40.5286 51.5806 41.3313 51.3131L40.707 49.4401C39.8151 49.6185 38.9233 49.9753 38.2098 50.332L38.8341 52.2941ZM25.0992 42.7511L23.7614 40.7889C23.1371 41.0565 22.3344 41.5024 21.6209 41.9484L22.9587 43.9997C23.6722 43.5538 24.3857 43.1078 25.0992 42.7511ZM31.0747 55.6833L32.5017 57.7346C33.0369 57.0211 33.572 56.3076 34.1963 55.6833L32.8585 53.7211C32.145 54.3454 31.6099 55.059 31.0747 55.6833ZM27.7748 61.8372C27.3289 62.9075 27.0613 63.9777 26.8829 64.9588L29.2018 66.8317C29.291 65.6723 29.5586 64.602 29.8261 63.4426L27.7748 61.8372ZM14.2183 51.3131L12.167 49.5293C11.4535 50.2428 10.6508 50.9563 10.0265 51.6698L12.2562 53.5428C12.8805 52.7401 13.5048 52.0266 14.2183 51.3131ZM5.47792 64.1561L2.17798 62.9075C1.64285 64.1561 1.01854 65.5831 0.750977 66.3858L4.05092 67.6344C4.40767 66.6533 5.03198 65.2263 5.47792 64.1561ZM26.437 72.2721C26.5262 73.7883 26.6154 75.037 26.7937 75.9288L30.2721 77.1775C30.0045 76.018 29.7369 74.7694 29.5586 73.4316L26.437 72.2721Z" fill="#CC0000"/>
</g>
<defs>
<clipPath id="clip0_3360_20247">
<rect width="114.16" height="114.16" fill="white" transform="translate(0.839844 0.922119)"/>
</clipPath>
</defs>
</svg>
