<svg width="115" height="116" viewBox="0 0 115 116" fill="none" xmlns="http://www.w3.org/2000/svg">
<g clip-path="url(#clip0_3360_20267)">
<path d="M3.71079 89.6843V87.5839H1.82269V89.678H0.839844V84.647H1.82269V86.7616H3.71079V84.647H4.69275V89.6843H3.71079ZM8.2433 89.6843H7.47629L7.40672 89.4203C7.06955 89.6283 6.68094 89.738 6.28474 89.7369C5.598 89.7369 5.30279 89.2803 5.30279 88.6533C5.30279 88.0298 5.63724 87.6633 6.39355 87.6633H7.29881V87.2878C7.29881 86.8802 7.18019 86.7411 6.58174 86.7411C6.23302 86.7447 5.88072 86.7794 5.54003 86.8481L5.42141 86.1551C5.84951 86.0374 6.29188 85.9776 6.73782 85.9776C7.91866 85.9776 8.26382 86.3852 8.26382 87.2878L8.2433 89.6843ZM7.26046 88.3197H6.60939C6.30615 88.3197 6.21875 88.3955 6.21875 88.6747C6.21875 88.9529 6.30615 89.0403 6.59155 89.0403C6.83934 89.0378 7.08252 88.9731 7.29881 88.8522L7.26046 88.3197ZM10.2081 89.7645C9.76831 89.7581 9.33179 89.6878 8.91221 89.5558L9.03707 88.8629C9.40274 88.9636 9.77911 89.0189 10.1591 89.0234C10.5738 89.0234 10.6407 88.9324 10.6407 88.6533C10.6407 88.3786 10.6407 88.3188 9.98157 88.1797C9.06918 87.9603 8.99872 87.7409 8.99872 87.0372C8.99872 86.3326 9.33318 85.9883 10.407 85.9883C10.7825 85.9883 11.1588 86.0303 11.5245 86.1168L11.438 86.8383C11.0973 86.7781 10.7528 86.742 10.407 86.7304C9.99227 86.7304 9.9227 86.8214 9.9227 87.047C9.9227 87.2771 9.92271 87.3645 10.4552 87.4831C11.5076 87.7507 11.6057 87.8907 11.6057 88.6363C11.6057 89.3784 11.3506 89.7547 10.2188 89.7547L10.2081 89.7645ZM14.5141 89.6843V87.1487C14.5141 86.9498 14.4267 86.8588 14.2108 86.8588C13.8657 86.8972 13.5312 87.0015 13.2289 87.1656V89.6843H12.2425V84.5774L13.2289 84.7165V86.3219C13.6586 86.1125 14.1274 85.9952 14.6051 85.9776C15.2213 85.9776 15.4479 86.4031 15.4479 87.0479V89.6843H14.5141ZM16.2452 85.5424V84.647H17.2281V85.5424H16.2452ZM16.2452 89.6843V86.0472H17.2281V89.6843H16.2452ZM17.9353 86.0856C17.9353 85.1732 18.4856 84.647 19.7637 84.647C20.2345 84.6495 20.7035 84.7066 21.1612 84.8173L21.0542 85.6289C20.6403 85.5352 20.2194 85.4758 19.7958 85.4514C19.1269 85.4514 18.911 85.678 18.911 86.2042V88.1208C18.911 88.647 19.1269 88.8727 19.7958 88.8727C20.2177 88.863 20.6382 88.8201 21.0533 88.7442L21.1612 89.5558C20.7038 89.6664 20.2351 89.7236 19.7646 89.7262C18.4856 89.7262 17.9353 89.2 17.9353 88.2876V86.0856ZM23.2339 89.7645C21.9488 89.7645 21.6036 89.0823 21.6036 88.3367V87.4341C21.6036 86.692 21.9488 86.0053 23.2339 86.0053C24.5236 86.0053 24.8679 86.692 24.8679 87.4341V88.3572C24.8679 89.0707 24.5236 89.7547 23.2339 89.7547V89.7645ZM23.2339 86.7892C22.7327 86.7892 22.5383 87.0087 22.5383 87.4162V88.4062C22.5383 88.8138 22.7327 89.0332 23.2339 89.0332C23.7361 89.0332 23.935 88.8138 23.935 88.4062V87.4162C23.935 86.9676 23.7361 86.7509 23.2339 86.7509V86.7892ZM27.5123 86.849C27.1707 86.9988 26.8434 87.1763 26.5303 87.3752V89.7164H25.5439V86.0472H26.401V86.445C26.7064 86.2435 27.0368 86.0828 27.3838 85.9669L27.5123 86.849ZM31.317 88.4276C31.3431 88.5987 31.3293 88.7736 31.2767 88.9385C31.2241 89.1034 31.1341 89.2539 31.0138 89.3784C30.7703 89.6281 30.4251 89.7512 30.0773 89.7057C29.7471 89.6993 29.4182 89.6631 29.0945 89.5978V91.0854L28.1116 91.2245V86.0472H28.8572L28.9482 86.354C29.296 86.107 29.7107 85.9741 30.1362 85.9776C30.8952 85.9776 31.2956 86.4129 31.2956 87.2352L31.317 88.4276ZM29.0766 88.8343C29.3486 88.8941 29.6305 88.9253 29.9096 88.9324C30.2441 88.9324 30.3832 88.7755 30.3832 88.4481V87.2174C30.3832 86.9186 30.2646 86.7509 29.9194 86.7509C29.6135 86.7616 29.3174 86.8766 29.0838 87.0791L29.0766 88.8343ZM6.57104 97.2831H0.839844V93.8306H16.1863V97.2831H10.4552V114.539H6.57104V97.2831Z" fill="black"/>
<path d="M19.7255 111.73C21.2831 111.724 22.8308 111.483 24.3169 111.017L24.9056 113.874C23.1399 114.526 21.2733 114.862 19.3911 114.866C14.6704 114.866 13.04 112.654 13.04 109.024V105.055C13.04 101.854 14.4546 99.1086 19.2618 99.1086C24.069 99.1086 25.1606 101.934 25.1606 105.195V108.428H16.8055V109.201C16.8055 111.016 17.4432 111.73 19.7255 111.73ZM16.7743 105.355H21.5548V104.61C21.5548 103.181 21.1222 102.192 19.2725 102.192C17.4263 102.192 16.7752 103.182 16.7752 104.609L16.7743 105.355ZM35.2005 102.568C33.8337 103.202 32.5186 103.941 31.2673 104.78V114.539H27.4635V99.3949H30.6367L30.8847 101.07C32.1023 100.238 33.4249 99.5713 34.8179 99.0872L35.2005 102.568ZM44.3805 102.568C43.0142 103.203 41.6992 103.942 40.4474 104.78V114.539H36.6435V99.3949H39.8204L40.0639 101.07C41.2819 100.239 42.6044 99.572 43.997 99.0872L44.3805 102.568ZM56.9471 114.528H53.8674L53.5918 113.536C52.2667 114.407 50.7157 114.872 49.1298 114.873C46.3873 114.873 45.1966 112.982 45.1966 110.372C45.1966 107.299 46.5237 106.118 49.5722 106.118H53.1816V104.533C53.1816 102.854 52.7178 102.261 50.3204 102.261C48.9202 102.276 47.5271 102.432 46.1607 102.725L45.697 99.84C47.3718 99.3732 49.1017 99.1333 50.8404 99.1265C55.5602 99.1265 56.9471 100.801 56.9471 104.599V114.528ZM53.1923 108.804H50.4185C49.1878 108.804 48.8435 109.142 48.8435 110.292C48.8435 111.445 49.1779 111.821 50.3597 111.821C51.3536 111.806 52.3276 111.54 53.1914 111.048L53.1923 108.804ZM68.5067 95.9451C67.7991 95.7904 67.0779 95.7064 66.3537 95.6945C64.8803 95.6945 64.6645 96.3492 64.6645 97.4988V99.394H68.479L68.2632 102.369H64.6529V114.486H60.8981V102.408H58.49V99.4324H60.8874V97.283C60.8874 94.1373 62.3331 92.5899 65.6678 92.5899C66.7577 92.5863 67.8485 92.7326 68.9 93.0287L68.5067 95.9451ZM75.8406 114.845C70.698 114.845 69.3147 111.988 69.3147 108.895V105.066C69.3147 101.963 70.698 99.1158 75.8406 99.1158C80.9822 99.1158 82.3798 101.972 82.3798 105.066V108.895C82.3691 111.978 80.9822 114.845 75.8406 114.845ZM75.8406 102.32C73.8758 102.32 73.0704 103.223 73.0704 104.926V109.002C73.0704 110.71 73.8374 111.612 75.8406 111.612C77.8473 111.612 78.6143 110.71 78.6143 109.003V104.927C78.6143 103.212 77.8366 102.31 75.8406 102.31V102.32ZM92.0442 102.568C90.6778 103.203 89.3628 103.942 88.111 104.78V114.539H84.317V99.3949H87.4902L87.7382 101.07C88.9558 100.238 90.2784 99.5713 91.6714 99.0872L92.0442 102.568ZM102.367 114.528V103.965C102.367 103.164 102.032 102.756 101.168 102.756C99.7856 102.912 98.4478 103.349 97.2349 104.034V114.539H93.497V99.3949H96.3599L96.7336 100.673C98.6023 99.7291 100.649 99.1888 102.74 99.0872C103.321 99.0338 103.904 99.1603 104.411 99.4495C104.917 99.7387 105.323 100.177 105.572 100.704C107.443 99.7369 109.502 99.1854 111.606 99.0872C114.104 99.0872 114.999 100.861 114.999 103.561V114.528H111.244V103.965C111.244 103.164 110.909 102.756 110.045 102.756C108.658 102.899 107.318 103.335 106.112 104.034V114.539L102.367 114.528Z" fill="black"/>
<path fill-rule="evenodd" clip-rule="evenodd" d="M47.5166 14.6873L68.3223 26.8043V51.041L47.5166 38.9204V14.6873Z" fill="#5C4EE5"/>
<path fill-rule="evenodd" clip-rule="evenodd" d="M70.6006 26.8043V51.041L91.4134 38.9204V14.6873L70.6006 26.8043Z" fill="#4040B2"/>
<path fill-rule="evenodd" clip-rule="evenodd" d="M24.4355 1.1593V25.3951L45.2377 37.5122V13.279L24.4355 1.1593ZM47.5164 65.806L68.3221 77.9266V53.6997L47.5164 41.5791V65.806Z" fill="#5C4EE5"/>
</g>
<defs>
<clipPath id="clip0_3360_20267">
<rect width="114.16" height="114.16" fill="white" transform="translate(0.839844 0.922119)"/>
</clipPath>
</defs>
</svg>
