<svg width="100" height="101" viewBox="0 0 100 101" fill="none" xmlns="http://www.w3.org/2000/svg">
<g clip-path="url(#clip0_3368_18274)">
<path d="M0 50.0022V0.00219727H100V100.002H0" fill="#007ACC"/>
<path d="M21.9248 50.1772V54.2522H34.9248V91.2523H44.1498V54.2522H57.1499V50.2522C57.1499 48.0022 57.1499 46.1772 57.0499 46.1272C57.0499 46.0522 49.1249 46.0272 39.4998 46.0272L21.9998 46.1022V50.2022L21.9248 50.1772ZM80.3499 46.0022C82.8999 46.6022 84.8499 47.7522 86.5999 49.5772C87.5249 50.5772 88.8999 52.3272 88.9999 52.7772C88.9999 52.9272 84.6749 55.8522 82.0499 57.4772C81.9499 57.5522 81.5499 57.1272 81.1499 56.4772C79.8499 54.6272 78.5249 53.8272 76.4499 53.6772C73.4499 53.4772 71.4499 55.0522 71.4499 57.6772C71.4499 58.4772 71.5999 58.9272 71.8999 59.5772C72.5749 60.9522 73.8249 61.7772 77.6999 63.4772C84.8499 66.5522 87.9499 68.5772 89.8249 71.4772C91.9499 74.7272 92.4249 79.8273 90.9999 83.6523C89.3999 87.8273 85.4999 90.6523 79.9249 91.5773C78.1749 91.8773 74.1749 91.8273 72.2999 91.5023C68.2999 90.7523 64.4749 88.7523 62.1249 86.1773C61.1999 85.1773 59.4249 82.5023 59.5249 82.3273L60.4749 81.7273L64.2249 79.5523L67.0499 77.9022L67.6999 78.7773C68.5249 80.0773 70.3749 81.8273 71.4499 82.4273C74.6999 84.1023 79.0499 83.8773 81.1999 81.9273C82.1249 81.0773 82.5249 80.1773 82.5249 78.9273C82.5249 77.7773 82.3499 77.2522 81.7749 76.3772C80.9749 75.2772 79.3749 74.3772 74.8749 72.3772C69.6999 70.1772 67.4999 68.7772 65.4499 66.6272C64.2749 65.3272 63.1999 63.3022 62.6999 61.6272C62.3249 60.1772 62.1999 56.6272 62.5499 55.2022C63.6249 50.2022 67.3999 46.7022 72.7999 45.7022C74.5499 45.3522 78.6749 45.5022 80.3999 45.9522L80.3499 46.0022Z" fill="white"/>
</g>
<defs>
<clipPath id="clip0_3368_18274">
<rect width="100" height="100" fill="white" transform="translate(0 0.00219727)"/>
</clipPath>
</defs>
</svg>
