<svg width="115" height="116" viewBox="0 0 115 116" fill="none" xmlns="http://www.w3.org/2000/svg">
<g clip-path="url(#clip0_3368_18280)">
<path d="M35.2011 70.1263L27.7807 58.1769L35.2011 46.2169L38.7793 58.1769L35.2011 70.1263ZM18.6872 68.9624L9.36439 60.1061H24.2025L31.6229 72.059L18.6872 68.9624ZM18.6872 47.3451L31.5882 44.2476L24.1677 56.2077H9.32693L18.6872 47.3451ZM37.6368 38.3809L20.7786 42.5718L18.2707 46.6931L13.2084 46.6548L0.839844 58.176L13.2075 69.6937L18.2698 69.6554L20.7786 73.7732L37.6368 78.0024L42.1658 62.2903L39.6159 58.2108L42.1658 54.1278L37.6368 38.3809ZM75.9179 50.01C73.674 50.01 72.1515 50.9197 71.0091 52.5983H70.9359V50.4453H66.9787V66.2618H71.0099V57.2949C71.0099 55.149 72.4209 53.6507 74.3616 53.6507C76.1873 53.6507 77.5563 54.7102 77.5563 56.5698V66.3001H81.5903V55.9499C81.6286 52.4868 79.3427 50.01 75.9188 50.01H75.9179ZM60.8497 59.5906C60.8497 61.7088 59.5957 63.1652 57.5399 63.1652C55.6759 63.1652 54.4951 62.144 54.4951 60.2907V50.4453H50.4611V61.0158C50.4611 64.4789 52.5169 66.7398 56.2057 66.7398C58.529 66.7398 59.8223 65.9006 60.9264 64.4406H61.0414V66.301H64.9229V50.4453H60.8889V59.5906H60.8497ZM83.7602 50.4453H87.7915V66.2618H83.7602V50.4453ZM83.7602 45.5257H87.7915V48.6963H83.7602V45.5257ZM110.663 50.4453L108.266 57.591C107.733 59.0474 107.316 61.0541 107.316 61.0541H107.2L106.135 57.591L103.431 50.4453H99.0942L103.546 61.7088C104.497 64.1159 104.804 65.1336 104.804 66.0076C104.804 67.3213 104.08 68.1606 102.369 68.1606H100.808V71.4775H103.397C106.745 71.4775 107.922 70.2021 109.18 66.7015L115 50.4836H110.663V50.4453ZM95.3269 61.6356V53.2502H97.9152V50.4836H95.3269V45.5257H91.293V50.4453H89.0107V53.2145H91.293V62.5097C91.293 65.4957 93.652 66.3001 95.7836 66.3001L97.9927 66.227V63.1643H96.9653C96.0146 63.1991 95.3278 62.8022 95.3278 61.6347L95.3269 61.6356Z" fill="#110B09"/>
</g>
<defs>
<clipPath id="clip0_3368_18280">
<rect width="114.16" height="114.16" fill="white" transform="translate(0.839844 0.922119)"/>
</clipPath>
</defs>
</svg>
