<svg id="full" width="112" height="36" viewBox="0 0 112 36" fill="none" xmlns="http://www.w3.org/2000/svg">
<path d="M3.06 28C2.86 28 2.69 27.93 2.55 27.79C2.41 27.65 2.34 27.48 2.34 27.28V7.75C2.34 7.53 2.4 7.35 2.52 7.21C2.66 7.07 2.84 7 3.06 7H11.76C14.1 7 15.84 7.52 16.98 8.56C18.14 9.58 18.72 10.98 18.72 12.76C18.72 13.8 18.46 14.69 17.94 15.43C17.44 16.15 16.85 16.67 16.17 16.99C17.01 17.37 17.71 17.99 18.27 18.85C18.85 19.71 19.14 20.69 19.14 21.79C19.14 23.65 18.51 25.15 17.25 26.29C16.01 27.43 14.26 28 12 28H3.06ZM11.22 15.61C12.26 15.61 13.05 15.36 13.59 14.86C14.13 14.36 14.4 13.69 14.4 12.85C14.4 11.99 14.13 11.33 13.59 10.87C13.05 10.39 12.26 10.15 11.22 10.15H6.51V15.61H11.22ZM11.52 24.82C12.56 24.82 13.37 24.54 13.95 23.98C14.53 23.4 14.82 22.67 14.82 21.79C14.82 20.89 14.53 20.16 13.95 19.6C13.37 19.02 12.56 18.73 11.52 18.73H6.51V24.82H11.52ZM27.0764 28.3C26.0564 28.3 25.1164 28.1 24.2564 27.7C23.4164 27.28 22.7464 26.72 22.2464 26.02C21.7664 25.32 21.5264 24.55 21.5264 23.71C21.5264 22.35 22.0764 21.25 23.1764 20.41C24.2764 19.57 25.7864 19 27.7064 18.7L31.8164 18.1V17.47C31.8164 16.59 31.5964 15.93 31.1564 15.49C30.7164 15.05 30.0064 14.83 29.0264 14.83C28.3664 14.83 27.8264 14.96 27.4064 15.22C27.0064 15.46 26.6864 15.7 26.4464 15.94C26.2064 16.2 26.0464 16.37 25.9664 16.45C25.8864 16.69 25.7364 16.81 25.5164 16.81H23.2064C23.0264 16.81 22.8664 16.75 22.7264 16.63C22.6064 16.51 22.5464 16.35 22.5464 16.15C22.5664 15.65 22.8064 15.08 23.2664 14.44C23.7464 13.8 24.4764 13.25 25.4564 12.79C26.4364 12.33 27.6364 12.1 29.0564 12.1C31.4164 12.1 33.1364 12.63 34.2164 13.69C35.2964 14.75 35.8364 16.14 35.8364 17.86V27.28C35.8364 27.48 35.7664 27.65 35.6264 27.79C35.5064 27.93 35.3364 28 35.1164 28H32.6864C32.4864 28 32.3164 27.93 32.1764 27.79C32.0364 27.65 31.9664 27.48 31.9664 27.28V26.11C31.5264 26.75 30.8964 27.28 30.0764 27.7C29.2764 28.1 28.2764 28.3 27.0764 28.3ZM28.0964 25.45C29.1964 25.45 30.0964 25.09 30.7964 24.37C31.4964 23.65 31.8464 22.6 31.8464 21.22V20.59L28.8464 21.07C27.6864 21.25 26.8064 21.54 26.2064 21.94C25.6264 22.34 25.3364 22.83 25.3364 23.41C25.3364 24.05 25.6064 24.55 26.1464 24.91C26.6864 25.27 27.3364 25.45 28.0964 25.45ZM40.4351 28C40.2351 28 40.0651 27.93 39.9251 27.79C39.7851 27.65 39.7151 27.48 39.7151 27.28V7.42C39.7151 7.2 39.7851 7.03 39.9251 6.91C40.0651 6.77 40.2351 6.7 40.4351 6.7H42.9251C43.1451 6.7 43.3151 6.77 43.4351 6.91C43.5751 7.03 43.6451 7.2 43.6451 7.42V27.28C43.6451 27.48 43.5751 27.65 43.4351 27.79C43.3151 27.93 43.1451 28 42.9251 28H40.4351ZM48.3745 28C48.1745 28 48.0045 27.93 47.8645 27.79C47.7245 27.65 47.6545 27.48 47.6545 27.28V7.42C47.6545 7.2 47.7245 7.03 47.8645 6.91C48.0045 6.77 48.1745 6.7 48.3745 6.7H50.8645C51.0845 6.7 51.2545 6.77 51.3745 6.91C51.5145 7.03 51.5845 7.2 51.5845 7.42V27.28C51.5845 27.48 51.5145 27.65 51.3745 27.79C51.2545 27.93 51.0845 28 50.8645 28H48.3745Z" fill="white"/>
<path d="M61.24 28C60.98 28 60.77 27.94 60.61 27.82C60.47 27.68 60.35 27.49 60.25 27.25L55.96 13.33C55.94 13.27 55.93 13.18 55.93 13.06C55.93 12.88 55.99 12.73 56.11 12.61C56.25 12.47 56.4 12.4 56.56 12.4H58.78C59 12.4 59.18 12.46 59.32 12.58C59.46 12.7 59.55 12.83 59.59 12.97L62.53 22.9L65.65 13.06C65.71 12.88 65.81 12.73 65.95 12.61C66.11 12.47 66.31 12.4 66.55 12.4H68.05C68.29 12.4 68.48 12.47 68.62 12.61C68.78 12.73 68.89 12.88 68.95 13.06L72.07 22.9L75.01 12.97C75.03 12.83 75.11 12.7 75.25 12.58C75.41 12.46 75.59 12.4 75.79 12.4H78.01C78.19 12.4 78.34 12.47 78.46 12.61C78.6 12.73 78.67 12.88 78.67 13.06L78.61 13.33L74.32 27.25C74.24 27.49 74.12 27.68 73.96 27.82C73.82 27.94 73.62 28 73.36 28H71.41C70.89 28 70.56 27.75 70.42 27.25L67.3 17.77L64.18 27.25C64.02 27.75 63.68 28 63.16 28H61.24ZM82.1894 9.82C81.9894 9.82 81.8194 9.75 81.6794 9.61C81.5394 9.47 81.4694 9.3 81.4694 9.1V6.94C81.4694 6.74 81.5394 6.57 81.6794 6.43C81.8194 6.29 81.9894 6.22 82.1894 6.22H84.9194C85.1194 6.22 85.2894 6.29 85.4294 6.43C85.5894 6.57 85.6694 6.74 85.6694 6.94V9.1C85.6694 9.3 85.5994 9.47 85.4594 9.61C85.3194 9.75 85.1394 9.82 84.9194 9.82H82.1894ZM82.3094 28C82.1094 28 81.9394 27.93 81.7994 27.79C81.6594 27.65 81.5894 27.48 81.5894 27.28V13.12C81.5894 12.92 81.6594 12.75 81.7994 12.61C81.9394 12.47 82.1094 12.4 82.3094 12.4H84.7994C85.0194 12.4 85.1894 12.47 85.3094 12.61C85.4494 12.73 85.5194 12.9 85.5194 13.12V27.28C85.5194 27.48 85.4494 27.65 85.3094 27.79C85.1894 27.93 85.0194 28 84.7994 28H82.3094ZM89.4395 28C89.2395 28 89.0695 27.93 88.9295 27.79C88.7895 27.65 88.7195 27.48 88.7195 27.28V25.57C88.7195 25.29 88.8595 24.97 89.1395 24.61L96.8195 15.52H89.6795C89.4795 15.52 89.3095 15.45 89.1695 15.31C89.0295 15.17 88.9595 15 88.9595 14.8V13.12C88.9595 12.92 89.0295 12.75 89.1695 12.61C89.3095 12.47 89.4795 12.4 89.6795 12.4H101.05C101.27 12.4 101.44 12.47 101.56 12.61C101.7 12.73 101.77 12.9 101.77 13.12V14.95C101.77 15.23 101.63 15.53 101.35 15.85L93.8495 24.88H101.68C101.9 24.88 102.07 24.95 102.19 25.09C102.33 25.21 102.4 25.38 102.4 25.6V27.28C102.4 27.48 102.33 27.65 102.19 27.79C102.07 27.93 101.9 28 101.68 28H89.4395ZM105.977 28C105.777 28 105.607 27.93 105.467 27.79C105.327 27.65 105.257 27.48 105.257 27.28V24.31C105.257 24.11 105.327 23.94 105.467 23.8C105.607 23.64 105.777 23.56 105.977 23.56H108.977C109.177 23.56 109.347 23.64 109.487 23.8C109.627 23.94 109.697 24.11 109.697 24.31V27.28C109.697 27.48 109.627 27.65 109.487 27.79C109.347 27.93 109.177 28 108.977 28H105.977Z" fill="#994EFF"/>
</svg>
