<svg width="79" height="79" viewBox="0 0 79 79" fill="none" xmlns="http://www.w3.org/2000/svg">
  <path d="M10.4673 20.54C8.18106 20.54 6.31982 22.4103 6.31982 24.706V63.774C6.31982 66.0697 8.18106 67.94 10.4673 67.94H30.0198C30.0198 70.4873 27.8946 72.68 25.2798 72.68C24.8647 72.6859 24.4685 72.8549 24.177 73.1506C23.8854 73.4462 23.722 73.8448 23.722 74.26C23.722 74.6752 23.8854 75.0737 24.177 75.3694C24.4685 75.6651 24.8647 75.8341 25.2798 75.84H47.3998C47.815 75.8341 48.2112 75.6651 48.5027 75.3694C48.7942 75.0737 48.9576 74.6752 48.9576 74.26C48.9576 73.8448 48.7942 73.4462 48.5027 73.1506C48.2112 72.8549 47.815 72.6859 47.3998 72.68C44.7851 72.68 42.6598 70.4873 42.6598 67.94H62.2123C64.4986 67.94 66.3598 66.0697 66.3598 63.774V39.5H63.1998V55.3H9.47982V24.706C9.47982 24.153 9.92222 23.7 10.4673 23.7H26.3321C25.599 22.7867 25.2602 21.6602 25.3076 20.54H10.4673ZM9.47982 58.46H63.1998V63.774C63.1998 64.327 62.7574 64.78 62.2123 64.78H10.4673C9.92222 64.78 9.47982 64.327 9.47982 63.774V58.46ZM36.3398 60.04C35.9208 60.04 35.5189 60.2064 35.2226 60.5028C34.9263 60.7991 34.7598 61.2009 34.7598 61.62C34.7598 62.039 34.9263 62.4409 35.2226 62.7372C35.5189 63.0335 35.9208 63.2 36.3398 63.2C36.7589 63.2 37.1607 63.0335 37.4571 62.7372C37.7534 62.4409 37.9198 62.039 37.9198 61.62C37.9198 61.2009 37.7534 60.7991 37.4571 60.5028C37.1607 60.2064 36.7589 60.04 36.3398 60.04ZM33.1798 67.94H39.4998C39.4998 69.7364 40.2212 71.3373 41.2619 72.68H31.4178C32.4584 71.3373 33.1798 69.7364 33.1798 67.94Z" fill="#262626"/>
  <path d="M69.5195 52.14C69.5195 50.3941 70.9336 48.98 72.6795 48.98C74.4254 48.98 75.8395 50.3941 75.8395 52.14C75.8395 53.8859 72.6795 58.46 72.6795 58.46C72.6795 58.46 69.5195 53.8859 69.5195 52.14Z" fill="url(#paint0_linear)"/>
  <path fill-rule="evenodd" clip-rule="evenodd" d="M33.9178 6.31997L48.0249 22.12H72.1612L56.3612 6.31997H33.9178ZM30.3889 3.15997C29.024 3.15997 28.3013 4.77411 29.2104 5.79228L34.1146 11.2851L29.1395 18.3924C28.5444 19.2426 28.5954 20.3868 29.2639 21.1807L41.2761 35.4451C41.7112 35.9618 42.3522 36.26 43.0277 36.26H64.7802C66.0449 36.26 67.0702 35.2347 67.0702 33.97V25.28H64.0702V33.26H43.358L31.9102 19.6657L36.1673 13.5841L46.1389 24.7523C46.4387 25.088 46.8674 25.28 47.3175 25.28H75.9756C77.3833 25.28 78.0882 23.5781 77.0929 22.5827L58.1329 3.62274C57.8366 3.32644 57.4347 3.15997 57.0156 3.15997H30.3889ZM74.2602 25.28V45.82H71.1002V25.28H74.2602Z" fill="url(#paint1_linear)"/>
  <defs>
    <linearGradient id="paint0_linear" x1="69.5007" y1="54.7451" x2="75.9765" y2="52.8475" gradientUnits="userSpaceOnUse">
      <stop stop-color="#6B67E9"/>
      <stop offset="1" stop-color="#8224E3"/>
    </linearGradient>
    <linearGradient id="paint1_linear" x1="28.58" y1="29.1031" x2="71.9373" y2="7.28812" gradientUnits="userSpaceOnUse">
      <stop stop-color="#6B67E9"/>
      <stop offset="1" stop-color="#8224E3"/>
    </linearGradient>
  </defs>
</svg>
