<svg id="full" width="126px" height="76px" viewBox="0 0 126 76" version="1.1" xmlns="http://www.w3.org/2000/svg" xmlns:xlink="http://www.w3.org/1999/xlink">
  <g id="Page-1" stroke="none" stroke-width="1" fill="none" fill-rule="evenodd">
  <g id="Desktop-HD-Copy-2" transform="translate(-1101.000000, -5047.000000)" fill="#8E54E9" fill-rule="nonzero">
    <path d="M1136.2276,5075.14855 C1136.2276,5077.10167 1136.74843,5079.1199 1137.79009,5081.20322 C1138.18072,5081.98447 1138.37603,5082.57041 1138.37603,5082.96103 C1138.37603,5083.35166 1138.11561,5083.67718 1137.59478,5083.93759 L1135.05572,5085.6954 C1134.79531,5085.95582 1134.46979,5086.08603 1134.07916,5086.08603 C1132.90729,5086.21623 1131.54011,5084.58863 1129.97761,5081.20322 C1128.54532,5083.02614 1126.75496,5084.42587 1124.60653,5085.40243 C1122.4581,5086.37899 1120.21201,5086.86727 1117.86826,5086.86727 C1116.43598,5086.99748 1114.93858,5086.73706 1113.37609,5086.08603 C1111.29276,5085.43499 1109.66516,5084.32822 1108.49329,5082.76572 C1107.061,5080.94281 1106.40996,5078.66417 1106.54017,5075.9298 C1106.27975,5072.28397 1107.58183,5069.35429 1110.44641,5067.14076 C1113.31098,5064.92722 1116.56618,5063.95066 1120.21201,5064.21108 C1122.94638,5064.21108 1126.00627,5064.6017 1129.39167,5065.38295 L1129.39167,5062.25796 C1129.7823,5059.6538 1129.16381,5057.50537 1127.53621,5055.81266 C1125.90861,5054.11995 1123.66252,5053.46892 1120.79794,5053.85954 L1120.60263,5053.85954 C1117.99847,5053.72933 1115.06879,5054.38037 1111.81359,5055.81266 C1110.90213,5056.20328 1110.25109,5056.33349 1109.86047,5056.20328 L1109.66516,5056.20328 C1109.01412,5056.20328 1108.6886,5055.55225 1108.6886,5054.25016 C1108.6886,5052.94808 1108.81881,5052.03663 1109.07922,5051.5158 C1109.73026,5050.86476 1111.29276,5050.14861 1113.76671,5049.36736 C1116.50108,5048.45591 1119.23545,5048.00018 1121.96982,5048.00018 C1126.00627,5047.60955 1129.65209,5048.71632 1132.90729,5051.32048 C1135.51145,5054.31527 1136.61822,5057.76578 1136.2276,5061.67202 L1136.2276,5075.14855 Z M1119.43076,5081.39854 C1122.29534,5081.39854 1124.63908,5080.68239 1126.46199,5079.2501 C1127.76407,5078.20844 1128.61043,5076.97146 1129.00105,5075.53918 C1129.26146,5074.3673 1129.39167,5072.86991 1129.39167,5071.047 L1129.39167,5070.26575 C1126.78751,5069.61471 1124.24846,5069.28919 1121.7745,5069.28919 C1119.82138,5069.15898 1118.06358,5069.4845 1116.50108,5070.26575 C1114.41775,5071.43762 1113.44119,5073.19543 1113.5714,5075.53918 C1113.44119,5077.23188 1113.92947,5078.66417 1115.03624,5079.83604 C1116.14301,5081.00791 1117.60785,5081.52875 1119.43076,5081.39854 Z M1152.82912,5085.89071 C1151.52704,5086.02092 1150.68069,5085.36988 1150.29006,5083.93759 L1140.52446,5051.71111 C1140.39425,5051.19027 1140.29659,5050.63689 1140.23149,5050.05096 C1140.16639,5049.46502 1140.39425,5049.17205 1140.91508,5049.17205 L1145.40726,5049.17205 C1146.70934,5049.04184 1147.49059,5049.69288 1147.75101,5051.12517 L1154.78224,5078.66417 L1161.22754,5051.12517 C1161.48795,5049.69288 1162.3343,5049.04184 1163.76659,5049.17205 L1167.0869,5049.17205 C1168.51918,5049.04184 1169.36554,5049.69288 1169.62595,5051.12517 L1176.07125,5079.05479 L1183.2978,5051.12517 C1183.55821,5049.69288 1184.40456,5049.04184 1185.83685,5049.17205 L1189.54778,5049.17205 C1190.45924,5049.04184 1190.84986,5049.56268 1190.71965,5050.73455 L1180.36811,5083.93759 C1180.1077,5085.50009 1179.26135,5086.21623 1177.82906,5086.08603 L1174.31344,5086.08603 C1172.88115,5086.21623 1172.0348,5085.50009 1171.77439,5083.93759 L1165.32909,5057.17984 L1158.88379,5083.93759 C1158.62338,5085.50009 1157.77702,5086.15113 1156.34473,5085.89071 L1152.82912,5085.89071 Z M1206.1493,5087.06259 C1201.85244,5087.06259 1198.14151,5086.28134 1195.01652,5084.71884 C1193.97485,5084.19801 1193.45402,5083.41676 1193.45402,5082.3751 L1193.45402,5080.22666 C1193.45402,5079.05479 1194.03996,5078.66417 1195.21183,5079.05479 L1195.99308,5079.44542 C1197.81599,5080.22666 1199.44359,5080.7475 1200.87588,5081.00791 C1205.43316,5081.91937 1209.07898,5081.65895 1211.81335,5080.22666 L1212.00866,5080.03135 C1213.18054,5079.38031 1213.86413,5078.33865 1214.05944,5076.90636 C1214.25475,5075.47407 1213.89668,5074.23709 1212.98522,5073.19543 C1212.20398,5072.54439 1211.42273,5072.05611 1210.64148,5071.73059 C1209.86023,5071.40507 1208.29774,5070.91679 1205.95399,5070.26575 L1202.63369,5069.09388 C1200.94098,5068.70325 1199.37849,5067.92201 1197.9462,5066.75013 C1195.34204,5064.79701 1194.0074,5062.29051 1193.9423,5059.23062 C1193.8772,5056.17073 1195.11417,5053.53402 1197.65323,5051.32048 C1200.19229,5049.10695 1203.48004,5048.00018 1207.51649,5048.00018 C1209.3394,5048.00018 1211.29252,5048.26059 1213.37585,5048.78143 C1215.98001,5049.30226 1217.67271,5050.08351 1218.45396,5051.12517 C1218.71438,5051.5158 1218.84459,5051.97152 1218.84459,5052.49236 L1218.84459,5054.44548 C1218.84459,5055.35693 1218.51906,5055.81266 1217.86803,5055.81266 C1217.60761,5055.68245 1217.02167,5055.48714 1216.11022,5055.22672 C1213.37585,5054.05485 1210.77169,5053.53402 1208.29774,5053.66423 C1206.73524,5053.53402 1205.30295,5053.72933 1204.00087,5054.25016 C1201.78734,5055.03141 1200.68057,5056.4637 1200.68057,5058.54703 C1200.68057,5060.10952 1201.59202,5061.41161 1203.41493,5062.45327 C1204.32639,5062.9741 1205.36806,5063.42983 1206.53993,5063.82045 L1209.07898,5064.40639 C1212.07377,5065.31785 1214.02689,5066.03399 1214.93835,5066.55482 C1216.37063,5067.20586 1217.67271,5068.18242 1218.84459,5069.4845 C1220.27687,5071.43762 1220.92792,5073.65116 1220.79771,5076.12511 C1220.6675,5077.68761 1220.34198,5079.1199 1219.82115,5080.42198 C1218.25865,5083.41676 1215.58938,5085.43499 1211.81335,5086.47665 C1209.99044,5086.99748 1208.16753,5087.19279 1206.34462,5087.06259 L1206.1493,5087.06259 Z M1214.1571,5107.57035 C1207.51649,5112.51825 1199.50869,5116.35939 1190.13372,5119.09376 C1181.14936,5121.69792 1172.29522,5123 1163.57128,5123 C1152.11297,5123.13021 1141.04529,5121.14454 1130.36823,5117.04298 C1119.69118,5112.94143 1110.12089,5107.04952 1101.65737,5099.36724 C1101.00633,5098.84641 1100.87612,5098.32558 1101.26674,5097.80475 C1101.65737,5097.28391 1102.2433,5097.21881 1103.02455,5097.60944 C1112.39953,5102.94796 1122.36044,5107.01697 1132.90729,5109.81644 C1143.45414,5112.61591 1154.1312,5114.01565 1164.93846,5114.01565 C1181.34468,5113.88544 1197.03474,5110.69534 1212.00866,5104.44536 C1212.78991,5104.05473 1213.4735,5104.02218 1214.05944,5104.3477 C1214.64538,5104.67322 1214.9709,5105.1615 1215.036,5105.81254 C1215.1011,5106.46358 1214.80814,5107.04952 1214.1571,5107.57035 Z M1219.82115,5101.12505 C1218.64927,5099.56256 1213.37585,5099.36724 1204.00087,5100.53912 L1203.80556,5100.53912 C1203.15452,5100.66933 1202.79645,5100.50656 1202.73134,5100.05084 C1202.66624,5099.59511 1202.8941,5099.10683 1203.41493,5098.586 C1205.88889,5097.0235 1208.88367,5095.91673 1212.39929,5095.26569 C1215.26387,5094.74486 1218.03078,5094.67976 1220.70005,5095.07038 C1223.36932,5095.461 1224.99691,5095.98184 1225.58285,5096.63288 C1226.16879,5097.28391 1226.26644,5098.94407 1225.87582,5101.61333 C1225.48519,5104.2826 1224.70395,5106.98441 1223.53207,5109.71878 C1221.96958,5112.97398 1220.08156,5115.57814 1217.86803,5117.53126 C1217.34719,5117.92189 1216.85891,5118.01954 1216.40319,5117.82423 C1215.94746,5117.62892 1215.8498,5117.27085 1216.11022,5116.75001 L1216.30553,5116.5547 C1219.82115,5107.70056 1220.99302,5102.55734 1219.82115,5101.12505 Z" id="a"></path>
  </g>
  </g>
</svg>
