<svg width="79" height="79" viewBox="0 0 79 79" fill="none" xmlns="http://www.w3.org/2000/svg">
<path d="M36.34 1.58002C24.922 1.58002 16.5036 5.51767 11.06 11.6895C5.61641 17.8676 3.16 26.1626 3.16 34.76C3.16 41.7219 5.31399 48.2024 8.96774 53.5102C12.2759 58.3242 14.22 64.0209 14.22 69.8348V77.42H17.38V69.8348C17.38 63.3235 15.2137 57.0158 11.5723 51.7203C8.27032 46.9186 6.32 41.0677 6.32 34.76C6.32 26.7674 8.6036 19.2624 13.43 13.788C18.2564 8.30736 25.638 4.74002 36.34 4.74002C47.0852 4.74002 54.0471 7.86916 58.6452 12.6524C63.2432 17.4294 65.5268 24.021 66.3723 31.1556L66.4094 31.4766L73.9884 44.5363C74.3773 45.2399 74.1798 45.9435 73.4947 46.3323L66.36 49.8996V59.4043C66.36 65.317 61.4966 69.915 55.6024 69.3719L55.5777 69.3657L48.98 68.9399V77.42H52.14V72.3097L55.3123 72.5134C63.0087 73.2355 69.52 67.0821 69.52 59.4043V51.8499L75.0253 49.0973C77.1793 47.8999 77.9323 45.1349 76.7473 42.9995L76.7411 42.9871L69.3966 30.3348C68.4584 22.9347 66.0514 15.7938 60.9226 10.4552C55.6827 5.01158 47.7148 1.58002 36.34 1.58002Z" fill="#262626"/>
<path fill-rule="evenodd" clip-rule="evenodd" d="M42.66 15.9605V12.64H45.82V15.9605C46.826 16.1641 47.758 16.5715 48.585 17.1208L50.9427 14.7631L53.1769 16.9973L50.8192 19.355C51.3685 20.182 51.7759 21.114 51.9795 22.12H55.3V25.28H51.9795C51.7759 26.286 51.3685 27.218 50.8192 28.045L53.1769 30.4026L50.9427 32.6369L48.585 30.2792C47.758 30.8285 46.826 31.2358 45.82 31.4395V34.76H42.66V31.4395C41.654 31.2358 40.722 30.8285 39.895 30.2792L37.5373 32.6369L35.3031 30.4026L37.6608 28.045C37.1115 27.218 36.7041 26.286 36.5005 25.28H33.18V22.12H36.5005C36.7041 21.114 37.1115 20.182 37.6608 19.355L35.3031 16.9973L37.5373 14.7631L39.895 17.1208C40.722 16.5715 41.654 16.1641 42.66 15.9605ZM23.7 28.6005V25.28H26.86V28.6005C27.866 28.8041 28.7856 29.2176 29.6188 29.7731L31.9827 27.4031L34.2169 29.6373L31.8469 32.0073C32.3962 32.8344 32.8035 33.7601 33.0072 34.76H36.34V37.92H33.0195C32.8159 38.926 32.4085 39.858 31.8592 40.685L34.2169 43.0426L31.9827 45.2769L29.625 42.9192C28.798 43.4685 27.866 43.8758 26.86 44.0795V47.4H23.7V44.0795C22.694 43.8758 21.762 43.4685 20.935 42.9192L18.5773 45.2769L16.3431 43.0426L18.7008 40.685C18.1515 39.858 17.7441 38.926 17.5405 37.92H14.22V34.76H17.5528C17.7565 33.7601 18.1638 32.8344 18.7131 32.0073L16.3431 29.6373L18.5773 27.4031L20.9412 29.7731C21.7744 29.2176 22.694 28.8041 23.7 28.6005ZM30.02 36.34C30.02 38.9578 27.8978 41.08 25.28 41.08C22.6622 41.08 20.54 38.9578 20.54 36.34C20.54 33.7222 22.6622 31.6 25.28 31.6C27.8978 31.6 30.02 33.7222 30.02 36.34ZM44.24 28.44C46.8578 28.44 48.98 26.3178 48.98 23.7C48.98 21.0822 46.8578 18.96 44.24 18.96C41.6222 18.96 39.5 21.0822 39.5 23.7C39.5 26.3178 41.6222 28.44 44.24 28.44Z" fill="url(#paint0_linear)"/>
<defs>
<linearGradient id="paint0_linear" x1="14.0975" y1="33.7788" x2="50.0919" y2="15.0813" gradientUnits="userSpaceOnUse">
<stop stop-color="#6B67E9"/>
<stop offset="1" stop-color="#8224E3"/>
</linearGradient>
</defs>
</svg>
