<svg id='full' width="79" height="79" viewBox="0 0 79 79" fill="none" xmlns="http://www.w3.org/2000/svg">
  <path d="M36.34 1.58002C24.922 1.58002 16.5036 5.51767 11.06 11.6895C5.61641 17.8676 3.16 26.1626 3.16 34.76C3.16 41.7219 5.31399 48.2024 8.96774 53.5102C12.2759 58.3242 14.22 64.0209 14.22 69.8348V77.42H17.38V69.8348C17.38 63.3235 15.2137 57.0158 11.5723 51.7203C8.27032 46.9186 6.32 41.0677 6.32 34.76C6.32 26.7674 8.6036 19.2624 13.43 13.788C18.2564 8.30736 25.638 4.74002 36.34 4.74002C47.0852 4.74002 54.0471 7.86916 58.6452 12.6524C63.2432 17.4294 65.5268 24.021 66.3723 31.1556L66.4094 31.4766L73.9884 44.5363C74.3773 45.2399 74.1798 45.9435 73.4947 46.3323L66.36 49.8996V59.4043C66.36 65.317 61.4966 69.915 55.6024 69.3719L55.5777 69.3657L48.98 68.9399V77.42H52.14V72.3097L55.3123 72.5134C63.0087 73.2355 69.52 67.0821 69.52 59.4043V51.8499L75.0253 49.0973C77.1793 47.8999 77.9323 45.1349 76.7473 42.9995L76.7411 42.9871L69.3966 30.3348C68.4584 22.9347 66.0514 15.7938 60.9226 10.4552C55.6827 5.01158 47.7148 1.58002 36.34 1.58002ZM42.66 12.64V15.9605C41.654 16.1642 40.722 16.5715 39.895 17.1208L37.5373 14.7631L35.3031 16.9974L37.6608 19.355C37.1115 20.182 36.7041 21.114 36.5005 22.12H33.18V25.28H36.5005C36.7041 26.286 37.1115 27.218 37.6608 28.045L35.3031 30.4027L37.5373 32.6369L39.895 30.2792C40.722 30.8285 41.654 31.2359 42.66 31.4395V34.76H45.82V31.4395C46.826 31.2359 47.758 30.8285 48.585 30.2792L50.9427 32.6369L53.1769 30.4027L50.8192 28.045C51.3685 27.218 51.7759 26.286 51.9795 25.28H55.3V22.12H51.9795C51.7759 21.114 51.3685 20.182 50.8192 19.355L53.1769 16.9974L50.9427 14.7631L48.585 17.1208C47.758 16.5715 46.826 16.1642 45.82 15.9605V12.64H42.66ZM44.24 18.96C46.8754 18.96 48.98 21.0646 48.98 23.7C48.98 26.3354 46.8754 28.44 44.24 28.44C41.6046 28.44 39.5 26.3354 39.5 23.7C39.5 21.0646 41.6046 18.96 44.24 18.96ZM23.7 25.28V28.6005C22.694 28.8042 21.7744 29.2177 20.9412 29.7731L18.5773 27.4031L16.3431 29.6374L18.7131 32.0074C18.1638 32.8344 17.7565 33.7602 17.5528 34.76H14.22V37.92H17.5405C17.7441 38.926 18.1515 39.858 18.7008 40.685L16.3431 43.0427L18.5773 45.2769L20.935 42.9192C21.762 43.4685 22.694 43.8759 23.7 44.0795V47.4H26.86V44.0795C27.866 43.8759 28.798 43.4685 29.625 42.9192L31.9827 45.2769L34.2169 43.0427L31.8592 40.685C32.4085 39.858 32.8159 38.926 33.0195 37.92H36.34V34.76H33.0072C32.8035 33.7602 32.3962 32.8344 31.8469 32.0074L34.2169 29.6374L31.9827 27.4031L29.6188 29.7731C28.7856 29.2177 27.866 28.8042 26.86 28.6005V25.28H23.7ZM25.28 31.6C27.9154 31.6 30.02 33.7046 30.02 36.34C30.02 38.9754 27.9154 41.08 25.28 41.08C22.6446 41.08 20.54 38.9754 20.54 36.34C20.54 33.7046 22.6446 31.6 25.28 31.6Z" fill="#262626"/>
</svg>
