<svg id='full' width="79" height="79" viewBox="0 0 79 79" fill="none" xmlns="http://www.w3.org/2000/svg">
  <path d="M2.51814 0.296265L0.296265 2.51814L11.9981 14.22H1.58001V17.38H17.38V1.58001H14.22V11.9981L2.51814 0.296265ZM76.4819 0.296265L64.78 11.9981V1.58001H61.62V17.38H77.42V14.22H67.0019L78.7038 2.51814L76.4819 0.296265ZM39.5 14.22C35.1612 14.22 31.6 17.7812 31.6 22.12C31.6 26.4588 35.1612 30.02 39.5 30.02C43.8388 30.02 47.4 26.4588 47.4 22.12C47.4 17.7812 43.8388 14.22 39.5 14.22ZM39.5 17.38C42.1169 17.38 44.24 19.5031 44.24 22.12C44.24 24.7369 42.1169 26.86 39.5 26.86C36.8831 26.86 34.76 24.7369 34.76 22.12C34.76 19.5031 36.8831 17.38 39.5 17.38ZM23.7 23.7C19.3612 23.7 15.8 27.2612 15.8 31.6C15.8 35.9388 19.3612 39.5 23.7 39.5C28.0388 39.5 31.6 35.9388 31.6 31.6C31.6 27.2612 28.0388 23.7 23.7 23.7ZM23.7 39.5C20.324 39.5 17.2874 40.4258 15.01 41.87C12.7326 43.3142 11.06 45.3016 11.06 47.6963V53.72H23.7C24.2678 53.7262 24.7986 53.4299 25.0887 52.9362C25.3726 52.4424 25.3726 51.8376 25.0887 51.3438C24.7986 50.8501 24.2678 50.5538 23.7 50.56H14.22V47.6963C14.22 46.931 14.973 45.6225 16.6888 44.5363C18.4045 43.45 20.9165 42.66 23.7 42.66C25.2492 42.66 26.8292 42.9624 28.2919 43.4006C29.1374 43.6599 30.0324 43.1846 30.2916 42.3391C30.5508 41.4935 30.0756 40.5986 29.23 40.3394C27.5327 39.8271 25.6318 39.5 23.7 39.5ZM55.3 23.7C50.9612 23.7 47.4 27.2612 47.4 31.6C47.4 35.9388 50.9612 39.5 55.3 39.5C59.6388 39.5 63.2 35.9388 63.2 31.6C63.2 27.2612 59.6388 23.7 55.3 23.7ZM55.3 39.5C53.2263 39.5 51.3068 39.858 49.7206 40.3888C49.1281 40.5184 48.6591 40.9813 48.5233 41.5799C48.3875 42.1724 48.6035 42.7896 49.0788 43.1661C49.5602 43.5488 50.2082 43.6167 50.7575 43.3513C52.0104 42.9316 53.5781 42.66 55.3 42.66C58.0712 42.66 60.5399 43.4809 62.2619 44.5856C63.9838 45.6904 64.78 47.0544 64.78 47.6963V50.56H55.3C54.7322 50.5538 54.2014 50.8501 53.9113 51.3438C53.6274 51.8376 53.6274 52.4424 53.9113 52.9362C54.2014 53.4299 54.7322 53.7262 55.3 53.72H67.94V47.6963C67.94 45.3386 66.2613 43.3821 63.99 41.9194C61.7188 40.4567 58.6945 39.5 55.3 39.5ZM23.7 26.86C26.3169 26.86 28.44 28.9831 28.44 31.6C28.44 34.2169 26.3169 36.34 23.7 36.34C21.0831 36.34 18.96 34.2169 18.96 31.6C18.96 28.9831 21.0831 26.86 23.7 26.86ZM55.3 26.86C57.9169 26.86 60.04 28.9831 60.04 31.6C60.04 34.2169 57.9169 36.34 55.3 36.34C52.6831 36.34 50.56 34.2169 50.56 31.6C50.56 28.9831 52.6831 26.86 55.3 26.86ZM39.5 31.6C35.1612 31.6 31.6 35.1612 31.6 39.5C31.6 43.8388 35.1612 47.4 39.5 47.4C43.8388 47.4 47.4 43.8388 47.4 39.5C47.4 35.1612 43.8388 31.6 39.5 31.6ZM39.5 47.4C36.124 47.4 33.0874 48.3258 30.81 49.77C28.5326 51.2142 26.86 53.2016 26.86 55.5963V61.62H52.14V55.5963C52.14 53.2016 50.4674 51.2142 48.19 49.77C45.9126 48.3258 42.876 47.4 39.5 47.4ZM39.5 34.76C42.1169 34.76 44.24 36.8831 44.24 39.5C44.24 42.1169 42.1169 44.24 39.5 44.24C36.8831 44.24 34.76 42.1169 34.76 39.5C34.76 36.8831 36.8831 34.76 39.5 34.76ZM39.5 50.56C42.2835 50.56 44.7955 51.35 46.5113 52.4363C48.227 53.5225 48.98 54.831 48.98 55.5963V58.46H30.02V55.5963C30.02 54.831 30.773 53.5225 32.4888 52.4363C34.2045 51.35 36.7165 50.56 39.5 50.56ZM1.58001 61.62V64.78H11.9981L0.296265 76.4819L2.51814 78.7038L14.22 67.0019V77.42H17.38V61.62H1.58001ZM61.62 61.62V77.42H64.78V67.0019L76.4819 78.7038L78.7038 76.4819L67.0019 64.78H77.42V61.62H61.62Z" fill="#262626"/>
</svg>
