<svg width="79" height="79" viewBox="0 0 79 79" fill="none" xmlns="http://www.w3.org/2000/svg">
  <path d="M30.02 14.22C27.4216 14.22 25.28 16.3616 25.28 18.96V28.44H4.74C2.14164 28.44 0 30.5816 0 33.18V62.9037C0 63.774 0.709766 64.4837 1.58 64.4837H77.42C78.2902 64.4837 79 63.774 79 62.9037V39.5C79 36.9016 76.8584 34.76 74.26 34.76H53.72V18.96C53.72 16.3616 51.5784 14.22 48.98 14.22H30.02ZM30.02 17.38H48.98C49.8564 17.38 50.56 18.0836 50.56 18.96V36.34C50.56 37.2102 51.2698 37.92 52.14 37.92H74.26C75.1364 37.92 75.84 38.6236 75.84 39.5V61.3237H3.16V33.18C3.16 32.3036 3.86359 31.6 4.74 31.6H26.86C27.7302 31.6 28.44 30.8902 28.44 30.02V18.96C28.44 18.0836 29.1436 17.38 30.02 17.38Z" fill="#262626"/>
  <path d="M38.2165 23.7C38.6918 23.3852 39.0436 22.91 39.204 22.12H41.0803V34.76H38.5622V25.9219H36.044V24.1937H36.1922C36.9822 24.1937 37.7413 24.0148 38.2165 23.7Z" fill="url(#paint0_linear)"/>
  <path d="M11.9984 37.2781C12.6279 36.6486 13.5907 36.34 15.0103 36.34C16.2755 36.34 17.2445 36.6486 17.874 37.2781C18.5036 37.9077 18.8122 38.6915 18.8122 39.7962C18.8122 40.2715 18.8245 40.6171 18.664 40.9319C18.664 41.2466 18.4789 41.5552 18.3184 41.87C18.1579 42.1848 17.9913 42.4934 17.6765 42.8081L14.3684 46.1162C14.3684 46.431 14.2203 46.7458 14.2203 46.9062H18.9603V48.98H11.0603C11.0603 48.3505 11.0479 47.8752 11.2084 47.4L11.7022 45.9681C11.8626 45.4929 12.165 45.0485 12.6403 44.7337C12.955 44.2585 13.4488 43.9252 13.924 43.45L15.0103 42.5119L15.6522 41.87C15.8126 41.7095 15.9361 41.3886 16.0965 41.2281C16.257 41.0677 16.294 40.7467 16.294 40.5862V39.6481C16.294 38.5434 15.8003 38.0681 15.0103 38.0681C14.6955 38.0681 14.3807 38.0558 14.2203 38.2162L13.7265 38.71C13.5661 38.8705 13.5784 39.1852 13.5784 39.5V40.4381H11.0603V39.9937C11.0603 38.7285 11.3689 37.9077 11.9984 37.2781Z" fill="url(#paint1_linear)"/>
  <path d="M61.4722 43.5981C62.1017 42.9686 63.0336 42.66 64.1384 42.66C65.2432 42.66 66.2245 42.9748 66.854 43.45C67.4836 43.9252 67.7922 44.7029 67.7922 45.9681C67.7922 46.7581 67.6132 47.4185 67.2984 47.8937C66.9836 48.369 66.4961 48.6714 65.8665 48.8319C66.6565 48.9923 67.3293 49.2948 67.644 49.77C67.9588 50.2452 68.0884 51.0537 68.0884 51.8437C68.0884 52.319 68.1007 52.6029 67.9403 53.0781C67.7798 53.5534 67.6132 53.8866 67.2984 54.3619C66.9836 54.6766 66.5393 54.9852 66.064 55.3C65.5888 55.4605 64.7803 55.5962 63.9903 55.5962C62.725 55.5962 61.7993 55.2877 61.324 54.6581C60.6945 54.0286 60.3365 53.109 60.3365 51.8437H62.904C62.5947 52.3108 62.7384 52.7362 62.8958 53.2018L62.904 53.2262C63.0645 53.541 63.515 53.8681 63.9903 53.8681C64.305 53.8681 64.6198 53.8805 64.7803 53.72L65.274 53.2262C65.4345 53.0658 65.4222 52.7942 65.4222 52.6337V51.0537C65.4222 50.739 65.237 50.5723 65.0765 50.4119L64.6322 49.9181C64.4717 49.7577 64.1569 49.77 63.8422 49.77H63.0522V48.0419H63.8422C64.1569 48.0419 64.3236 48.0542 64.484 47.8937L64.9284 47.4C65.0889 47.2395 65.1136 47.0729 65.274 46.7581C65.274 46.4434 65.4222 46.2829 65.4222 45.9681C65.4222 45.3386 65.237 44.8942 65.0765 44.7337C64.9161 44.419 64.6136 44.3881 64.1384 44.3881C63.8236 44.3881 63.657 44.3758 63.4965 44.5362L63.0522 45.03C62.8917 45.1905 62.904 45.5114 62.904 45.6719V46.4619H60.534C60.534 45.1966 60.8426 44.2277 61.4722 43.5981Z" fill="url(#paint2_linear)"/>
  <defs>
    <linearGradient id="paint0_linear" x1="10.89" y1="42.4781" x2="51.5468" y2="12.0352" gradientUnits="userSpaceOnUse">
      <stop stop-color="#6B67E9"/>
      <stop offset="1" stop-color="#8224E3"/>
    </linearGradient>
    <linearGradient id="paint1_linear" x1="10.89" y1="42.4781" x2="51.5468" y2="12.0352" gradientUnits="userSpaceOnUse">
      <stop stop-color="#6B67E9"/>
      <stop offset="1" stop-color="#8224E3"/>
    </linearGradient>
    <linearGradient id="paint2_linear" x1="10.89" y1="42.4781" x2="51.5468" y2="12.0352" gradientUnits="userSpaceOnUse">
      <stop stop-color="#6B67E9"/>
      <stop offset="1" stop-color="#8224E3"/>
    </linearGradient>
  </defs>
</svg>
