<svg width="203" height="47" viewBox="0 0 203 47" fill="none" xmlns="http://www.w3.org/2000/svg">
<g clip-path="url(#clip0)">
<circle cx="23.1376" cy="24.3569" r="17.9958" fill="url(#paint0_linear)" fill-opacity="0.1"/>
<path fill-rule="evenodd" clip-rule="evenodd" d="M12.5397 34.1021C12.5159 34.0975 12.5035 34.0949 12.5035 34.0949C12.5035 34.0949 11.4328 29.1151 13.378 27.1698C13.7965 26.7514 14.3419 26.5247 14.9399 26.447L15.7927 27.2998C15.7567 27.3222 15.7181 27.3396 15.6795 27.357C15.6157 27.3857 15.5522 27.4143 15.5012 27.4653C14.1308 28.8357 15.261 31.3375 15.261 31.3375C15.261 31.3375 15.2714 31.3422 15.2912 31.3506L12.5397 34.1021ZM18.5758 28.066L15.5288 25.0191L16.7854 21.9859L9.29511 22.8191C9.29511 22.8191 11.1281 17.3187 12.9625 15.4844C14.416 14.0308 18.2281 14.231 20.114 14.4306C20.1469 14.3934 20.1796 14.356 20.2124 14.3185C20.329 14.1851 20.4459 14.0515 20.5709 13.9264C29.6467 4.85063 39.7309 6.86748 39.7309 6.86748C39.7309 6.86748 39.7334 6.87981 39.7378 6.904L32.6936 13.9482C32.6864 13.9409 32.6792 13.9337 32.672 13.9264C31.5577 12.8121 29.7526 12.8121 28.6383 13.9264C27.524 15.0407 27.524 16.8458 28.6383 17.9601C28.6455 17.9674 28.6528 17.9745 28.6601 17.9817L18.5758 28.066Z" fill="white"/>
<path fill-rule="evenodd" clip-rule="evenodd" d="M12.5397 34.1021C12.5444 34.1259 12.547 34.1382 12.547 34.1382C12.547 34.1382 17.5267 35.209 19.472 33.2637C19.8905 32.8452 20.1172 32.2999 20.1948 31.7019L19.342 30.849C19.3196 30.8851 19.3022 30.9237 19.2849 30.9622C19.2561 31.0261 19.2275 31.0896 19.1766 31.1405C17.8061 32.511 15.3044 31.3808 15.3044 31.3808C15.3044 31.3808 15.2997 31.3704 15.2912 31.3506L12.5397 34.1021ZM18.5758 28.066L21.6228 31.113L24.6559 29.8564L23.8228 37.3467C23.8228 37.3467 29.3232 35.5136 31.1575 33.6793C32.611 32.2258 32.4109 28.4137 32.2112 26.5278C32.2484 26.4949 32.2859 26.4621 32.3234 26.4293C32.4568 26.3127 32.5904 26.1959 32.7154 26.0709C41.7912 16.9951 39.7744 6.91084 39.7744 6.91084C39.7744 6.91084 39.762 6.90837 39.7378 6.904L32.6936 13.9482C32.7009 13.9554 32.7082 13.9626 32.7154 13.9698C33.8297 15.0841 33.8297 16.8892 32.7154 18.0035C31.6011 19.1178 29.796 19.1178 28.6817 18.0035C28.6745 17.9962 28.6673 17.989 28.6602 17.9817L18.5758 28.066Z" fill="#E1E1E1"/>
</g>
<path d="M63.4325 16.6667C63.6145 17.695 63.8472 18.7953 64.1304 19.9676C64.4338 21.1194 64.7574 22.3019 65.1013 23.5154C65.4654 24.7082 65.8397 25.8908 66.224 27.0631C66.6286 28.2354 67.0331 29.3357 67.4377 30.3641C67.7816 29.5825 68.1457 28.6365 68.5301 27.5259C68.9144 26.3947 69.2987 25.2121 69.6831 23.9781C70.0674 22.7236 70.4214 21.469 70.7451 20.2144C71.089 18.9393 71.3722 17.7567 71.5947 16.6667H73.5366C72.8084 19.7928 72.0093 22.6516 71.1395 25.243C70.2899 27.8344 69.3493 30.2921 68.3177 32.6161H66.4667C66.1633 31.8963 65.8397 31.0942 65.4958 30.2098C65.1721 29.3049 64.8282 28.3485 64.4641 27.3408C64.1202 26.3124 63.7764 25.243 63.4325 24.1324C63.1088 23.0012 62.7953 21.8495 62.4918 20.6772C62.1884 21.8495 61.8648 23.0012 61.5209 24.1324C61.1972 25.243 60.8533 26.3124 60.4892 27.3408C60.1453 28.3485 59.8015 29.3049 59.4576 30.2098C59.1339 31.0942 58.8204 31.8963 58.5169 32.6161H56.6357C55.604 30.2921 54.6533 27.8344 53.7835 25.243C52.9339 22.6516 52.145 19.7928 51.4167 16.6667H53.5104C53.7329 17.7567 54.006 18.9393 54.3297 20.2144C54.6735 21.469 55.0376 22.7236 55.422 23.9781C55.8063 25.2121 56.1907 26.3844 56.575 27.495C56.9796 28.6056 57.3538 29.5517 57.6977 30.3332C58.082 29.3049 58.4664 28.2046 58.8507 27.0323C59.2553 25.86 59.6295 24.6774 59.9734 23.4845C60.3173 22.2917 60.6409 21.1194 60.9444 19.9676C61.2478 18.7953 61.5108 17.695 61.7333 16.6667H63.4325Z" fill="white"/>
<path d="M75.9152 24.626C75.9152 23.2274 76.1074 22.014 76.4917 20.9857C76.8963 19.9368 77.4121 19.0627 78.0392 18.3634C78.6865 17.6642 79.4147 17.15 80.2239 16.8209C81.0532 16.4713 81.9028 16.2965 82.7726 16.2965C84.6944 16.2965 86.2216 16.934 87.3544 18.2092C88.5074 19.4843 89.0839 21.4484 89.0839 24.1015C89.0839 24.2661 89.0738 24.4306 89.0536 24.5951C89.0536 24.7597 89.0435 24.9139 89.0232 25.0579H78.0088C78.0695 27.0117 78.5449 28.5131 79.4349 29.562C80.325 30.6109 81.741 31.1353 83.6829 31.1353C84.755 31.1353 85.6046 31.0325 86.2317 30.8268C86.8588 30.6212 87.3139 30.4464 87.5971 30.3024L87.9613 32.03C87.6781 32.1945 87.142 32.3899 86.3531 32.6161C85.5844 32.8424 84.6741 32.9555 83.6222 32.9555C82.2467 32.9555 81.0735 32.7498 80.1025 32.3385C79.1315 31.9271 78.3325 31.3513 77.7054 30.6109C77.0783 29.8705 76.6232 28.9964 76.34 27.9886C76.0568 26.9603 75.9152 25.8394 75.9152 24.626ZM87.051 23.3611C87.0105 21.6952 86.6262 20.3995 85.8979 19.474C85.1697 18.5485 84.1381 18.0858 82.803 18.0858C82.095 18.0858 81.4578 18.2297 80.8914 18.5177C80.3452 18.8056 79.8597 19.1964 79.4349 19.69C79.0304 20.163 78.7067 20.7183 78.464 21.3559C78.2415 21.9934 78.11 22.6619 78.0695 23.3611H87.051Z" fill="white"/>
<path d="M96.0886 24.5026C96.0886 26.1479 96.4729 27.4436 97.2416 28.3897C98.0103 29.3152 99.0723 29.7779 100.428 29.7779C101.014 29.7779 101.51 29.7574 101.914 29.7162C102.339 29.6545 102.683 29.5928 102.946 29.5311V20.2761C102.622 20.0499 102.187 19.8442 101.641 19.6591C101.115 19.4535 100.549 19.3506 99.9421 19.3506C98.607 19.3506 97.626 19.8134 96.9989 20.7389C96.392 21.6644 96.0886 22.9189 96.0886 24.5026ZM106.618 32.1225C105.889 32.3488 104.969 32.5544 103.856 32.7395C102.764 32.9246 101.611 33.0172 100.397 33.0172C99.1431 33.0172 98.0204 32.8218 97.0292 32.431C96.038 32.0403 95.1884 31.485 94.4804 30.7651C93.7927 30.0247 93.2566 29.1404 92.8723 28.112C92.5082 27.0631 92.3261 25.8908 92.3261 24.5951C92.3261 23.32 92.4778 22.1683 92.7812 21.1399C93.1049 20.091 93.5702 19.1964 94.177 18.456C94.7839 17.7156 95.5222 17.15 96.392 16.7592C97.2619 16.3479 98.2632 16.1422 99.396 16.1422C100.165 16.1422 100.842 16.2348 101.429 16.4199C102.016 16.605 102.521 16.8106 102.946 17.0369V9.29351L106.618 8.67651V32.1225Z" fill="white"/>
<path d="M110.401 24.626C110.401 23.2069 110.604 21.9626 111.008 20.8931C111.433 19.8237 111.989 18.9393 112.677 18.24C113.365 17.5202 114.154 16.9855 115.044 16.6358C115.934 16.2656 116.844 16.0805 117.775 16.0805C119.959 16.0805 121.659 16.7695 122.872 18.1475C124.106 19.5254 124.723 21.5821 124.723 24.3175C124.723 24.5231 124.713 24.7597 124.693 25.027C124.693 25.2738 124.683 25.5001 124.662 25.7057H114.194C114.295 27.0014 114.74 28.0092 115.529 28.729C116.338 29.4283 117.502 29.7779 119.019 29.7779C119.909 29.7779 120.718 29.6957 121.446 29.5311C122.195 29.3666 122.781 29.1918 123.206 29.0067L123.691 32.0608C123.489 32.1637 123.206 32.2768 122.842 32.4002C122.498 32.503 122.093 32.5956 121.628 32.6778C121.183 32.7807 120.698 32.8629 120.172 32.9246C119.646 32.9863 119.11 33.0172 118.564 33.0172C117.168 33.0172 115.954 32.8115 114.922 32.4002C113.891 31.9683 113.041 31.3821 112.374 30.6417C111.706 29.8808 111.21 28.9964 110.887 27.9886C110.563 26.9603 110.401 25.8394 110.401 24.626ZM121.052 22.9601C121.052 22.4459 120.981 21.9626 120.839 21.5101C120.698 21.0371 120.485 20.636 120.202 20.307C119.939 19.9573 119.605 19.69 119.201 19.5049C118.816 19.2992 118.351 19.1964 117.805 19.1964C117.239 19.1964 116.743 19.3095 116.318 19.5357C115.893 19.7414 115.529 20.019 115.226 20.3687C114.943 20.7183 114.72 21.1194 114.558 21.5718C114.396 22.0243 114.285 22.487 114.225 22.9601H121.052Z" fill="white"/>
<path d="M132.682 32.6161C131.67 30.4978 130.629 28.0709 129.556 25.3355C128.505 22.5796 127.544 19.6283 126.674 16.4816H130.588C130.811 17.3865 131.063 18.3634 131.347 19.4123C131.65 20.4407 131.964 21.4793 132.287 22.5282C132.631 23.5565 132.975 24.5643 133.319 25.5515C133.683 26.5181 134.017 27.3922 134.32 28.1737C134.624 27.3922 134.947 26.5181 135.291 25.5515C135.635 24.5643 135.969 23.5565 136.292 22.5282C136.636 21.4793 136.96 20.4407 137.263 19.4123C137.567 18.3634 137.83 17.3865 138.052 16.4816H141.845C140.975 19.6283 140.004 22.5796 138.932 25.3355C137.88 28.0709 136.849 30.4978 135.837 32.6161H132.682Z" fill="white"/>
<path d="M143.352 24.626C143.352 23.2069 143.554 21.9626 143.959 20.8931C144.383 19.8237 144.94 18.9393 145.627 18.24C146.315 17.5202 147.104 16.9855 147.994 16.6358C148.884 16.2656 149.794 16.0805 150.725 16.0805C152.91 16.0805 154.609 16.7695 155.823 18.1475C157.056 19.5254 157.673 21.5821 157.673 24.3175C157.673 24.5231 157.663 24.7597 157.643 25.027C157.643 25.2738 157.633 25.5001 157.613 25.7057H147.145C147.246 27.0014 147.691 28.0092 148.48 28.729C149.289 29.4283 150.452 29.7779 151.969 29.7779C152.859 29.7779 153.668 29.6957 154.396 29.5311C155.145 29.3666 155.732 29.1918 156.156 29.0067L156.642 32.0608C156.44 32.1637 156.156 32.2768 155.792 32.4002C155.448 32.503 155.044 32.5956 154.578 32.6778C154.133 32.7807 153.648 32.8629 153.122 32.9246C152.596 32.9863 152.06 33.0172 151.514 33.0172C150.118 33.0172 148.904 32.8115 147.873 32.4002C146.841 31.9683 145.991 31.3821 145.324 30.6417C144.656 29.8808 144.161 28.9964 143.837 27.9886C143.514 26.9603 143.352 25.8394 143.352 24.626ZM154.002 22.9601C154.002 22.4459 153.931 21.9626 153.79 21.5101C153.648 21.0371 153.436 20.636 153.152 20.307C152.889 19.9573 152.556 19.69 152.151 19.5049C151.767 19.2992 151.301 19.1964 150.755 19.1964C150.189 19.1964 149.693 19.3095 149.269 19.5357C148.844 19.7414 148.48 20.019 148.176 20.3687C147.893 20.7183 147.67 21.1194 147.509 21.5718C147.347 22.0243 147.236 22.487 147.175 22.9601H154.002Z" fill="white"/>
<path d="M167.088 32.9246C165.996 32.9041 165.086 32.7807 164.358 32.5544C163.65 32.3282 163.083 32.0094 162.658 31.5981C162.234 31.1662 161.93 30.6417 161.748 30.0247C161.586 29.3872 161.505 28.6673 161.505 27.8652V9.29351L165.177 8.67651V27.1557C165.177 27.6081 165.207 27.9886 165.268 28.2971C165.349 28.6056 165.48 28.873 165.662 29.0992C165.844 29.3049 166.087 29.4694 166.391 29.5928C166.714 29.6957 167.119 29.7779 167.604 29.8396L167.088 32.9246Z" fill="white"/>
<path d="M184.926 24.5334C184.926 25.8086 184.744 26.9706 184.38 28.0195C184.016 29.0684 183.5 29.963 182.833 30.7034C182.165 31.4438 181.356 32.0197 180.405 32.431C179.475 32.8424 178.443 33.048 177.31 33.048C176.177 33.048 175.146 32.8424 174.215 32.431C173.285 32.0197 172.486 31.4438 171.818 30.7034C171.151 29.963 170.625 29.0684 170.24 28.0195C169.876 26.9706 169.694 25.8086 169.694 24.5334C169.694 23.2583 169.876 22.1066 170.24 21.0782C170.625 20.0293 171.151 19.1347 171.818 18.3943C172.506 17.6539 173.315 17.0883 174.246 16.6975C175.176 16.2862 176.198 16.0805 177.31 16.0805C178.423 16.0805 179.444 16.2862 180.375 16.6975C181.326 17.0883 182.135 17.6539 182.802 18.3943C183.47 19.1347 183.986 20.0293 184.35 21.0782C184.734 22.1066 184.926 23.2583 184.926 24.5334ZM181.164 24.5334C181.164 22.9292 180.82 21.6644 180.132 20.7389C179.465 19.7928 178.524 19.3198 177.31 19.3198C176.096 19.3198 175.146 19.7928 174.458 20.7389C173.79 21.6644 173.457 22.9292 173.457 24.5334C173.457 26.1582 173.79 27.4436 174.458 28.3897C175.146 29.3357 176.096 29.8088 177.31 29.8088C178.524 29.8088 179.465 29.3357 180.132 28.3897C180.82 27.4436 181.164 26.1582 181.164 24.5334Z" fill="white"/>
<path d="M199.238 24.626C199.238 22.9601 198.863 21.6644 198.115 20.7389C197.387 19.8134 196.203 19.3506 194.565 19.3506C194.221 19.3506 193.857 19.3712 193.472 19.4123C193.108 19.4329 192.744 19.4946 192.38 19.5974V28.8216C192.704 29.0478 193.129 29.2638 193.654 29.4694C194.201 29.6545 194.777 29.7471 195.384 29.7471C196.719 29.7471 197.69 29.2843 198.297 28.3588C198.924 27.4333 199.238 26.189 199.238 24.626ZM203 24.5643C203 25.7983 202.838 26.9294 202.515 27.9578C202.211 28.9861 201.766 29.8705 201.179 30.6109C200.593 31.3513 199.855 31.9271 198.964 32.3385C198.095 32.7498 197.103 32.9555 195.991 32.9555C195.242 32.9555 194.555 32.8629 193.928 32.6778C193.3 32.4927 192.785 32.2871 192.38 32.0608V38.3234H188.709V17.006C189.457 16.8004 190.377 16.605 191.47 16.4199C192.562 16.2348 193.715 16.1422 194.929 16.1422C196.183 16.1422 197.306 16.3376 198.297 16.7284C199.288 17.1191 200.128 17.6847 200.815 18.4251C201.523 19.145 202.059 20.0293 202.424 21.0782C202.808 22.1066 203 23.2686 203 24.5643Z" fill="white"/>
<defs>
<linearGradient id="paint0_linear" x1="17.4246" y1="40.3532" x2="25.9941" y2="12.931" gradientUnits="userSpaceOnUse">
<stop offset="0.411458" stop-color="white"/>
<stop offset="1" stop-color="white"/>
</linearGradient>
<clipPath id="clip0">
<rect width="45.7037" height="45.7037" fill="white" transform="translate(0 0.648193)"/>
</clipPath>
</defs>
</svg>
