<svg id="full" width="88px" height="99px" viewBox="0 0 88 99" version="1.1" xmlns="http://www.w3.org/2000/svg" xmlns:xlink="http://www.w3.org/1999/xlink">
  <g id="Page-1" stroke="none" stroke-width="1" fill="none" fill-rule="evenodd">
  <g id="Desktop-HD-Copy-2" transform="translate(-511.000000, -5036.000000)" fill="#8E54E9" fill-rule="nonzero">
    <path d="M555.071325,5134.71872 C553.769243,5134.71872 552.532268,5134.3932 551.360396,5133.74216 L539.25105,5126.51562 C537.948969,5125.86458 537.818763,5125.34374 538.860426,5124.95312 C540.813546,5124.30208 542.636458,5123.52083 544.329163,5122.60938 C544.589578,5122.34896 544.915099,5122.34896 545.305723,5122.60938 L554.485389,5128.07811 C554.876013,5128.33853 555.266637,5128.33853 555.657261,5128.07811 L591.789987,5107.17973 C592.050402,5107.04952 592.180611,5106.724 592.180611,5106.20317 L592.180611,5064.6017 C592.180611,5064.21108 591.985299,5063.88556 591.594675,5063.62514 L555.657261,5042.92207 C555.266637,5042.66165 554.876013,5042.66165 554.485389,5042.92207 L518.547974,5063.62514 C518.15735,5063.88556 517.962038,5064.21108 517.962038,5064.6017 L517.962038,5106.20317 C517.962038,5106.724 518.15735,5107.04952 518.547974,5107.17973 L528.313576,5113.03909 C530.787529,5114.21096 532.838306,5114.34117 534.465905,5113.42971 C536.093504,5112.51825 536.907305,5111.15107 536.907305,5109.32816 L536.907305,5068.11732 C537.037515,5067.8569 537.200274,5067.62904 537.395586,5067.43373 C537.590898,5067.23841 537.818763,5067.14076 538.079178,5067.14076 L542.571354,5067.14076 C542.961979,5067.14076 543.254947,5067.23841 543.450259,5067.43373 C543.645571,5067.62904 543.743227,5067.92201 543.743227,5068.31263 L543.743227,5109.32816 C543.743227,5112.84377 542.79922,5115.6107 540.911202,5117.62892 C539.023185,5119.64714 536.386472,5120.65626 533.001065,5120.65626 C531.698984,5120.65626 530.65732,5120.52605 529.876072,5120.26563 C528.443785,5120.00522 526.75108,5119.35417 524.797959,5118.31251 L515.22767,5112.84377 C514.055797,5112.19274 513.14434,5111.28128 512.493301,5110.10941 C511.842262,5108.93753 511.516741,5107.63545 511.516741,5106.20317 L511.516741,5064.6017 C511.516741,5063.29962 511.842262,5062.06265 512.493301,5060.89077 C513.14434,5059.7189 514.055797,5058.80744 515.22767,5058.1564 L551.360396,5037.25802 C552.402059,5036.60698 553.639037,5036.28146 555.071325,5036.28146 C556.503612,5036.28146 557.74059,5036.60698 558.782253,5037.25802 L594.91498,5058.1564 C596.086852,5058.80744 596.998309,5059.7189 597.649348,5060.89077 C598.300387,5062.06265 598.625908,5063.29962 598.625908,5064.6017 L598.625908,5106.20317 C598.625908,5107.63545 598.300387,5108.93753 597.649348,5110.10941 C596.998309,5111.28128 596.086852,5112.19274 594.91498,5112.84377 L558.782253,5133.74216 C557.610381,5134.3932 556.373406,5134.71872 555.071325,5134.71872 Z M584.172818,5093.70319 C584.172818,5097.60944 582.610322,5100.63677 579.485329,5102.7852 C576.360336,5104.93364 571.933263,5106.00785 566.204111,5106.00785 C559.042668,5106.00785 553.899452,5104.57557 550.77446,5101.71099 C548.300507,5099.49745 547.063531,5096.50267 547.063531,5092.72663 C547.063531,5092.46622 547.161187,5092.23835 547.356499,5092.04304 C547.551811,5091.84773 547.844779,5091.75007 548.235403,5091.75007 L552.72758,5091.75007 C553.378619,5091.75007 553.769243,5092.01049 553.899452,5092.53132 C554.290077,5095.13548 555.201534,5096.9584 556.633821,5098.00006 C558.456732,5099.17193 561.646831,5099.75787 566.204111,5099.75787 C569.980142,5099.75787 572.747064,5099.30214 574.504872,5098.39068 C576.26268,5097.47923 577.076482,5095.98184 576.946273,5093.89851 C576.946273,5092.59643 576.360336,5091.61987 575.188464,5090.96883 C573.365553,5090.05737 569.75228,5089.34123 564.348646,5088.82039 C558.945012,5088.29956 555.006222,5087.323 552.532268,5085.89071 C549.667691,5084.19801 548.267956,5081.49619 548.33306,5077.78526 C548.398163,5074.07434 549.863003,5071.20976 552.72758,5069.19153 C555.592158,5067.17331 559.628604,5066.1642 564.836926,5066.1642 C570.566078,5066.1642 574.895496,5067.17331 577.825177,5069.19153 C580.754857,5071.20976 582.415009,5074.3673 582.805634,5078.66417 C582.805634,5079.05479 582.707978,5079.34776 582.512666,5079.54307 C582.317353,5079.73838 582.089488,5079.83604 581.829073,5079.83604 L576.946273,5079.83604 C576.425439,5079.83604 576.099921,5079.57563 575.969712,5079.05479 C575.448879,5076.58084 574.374663,5074.85558 572.747064,5073.87902 C571.119465,5072.90246 568.450199,5072.41418 564.73927,5072.41418 C561.028342,5072.41418 558.456732,5073.00012 557.024445,5074.17199 C555.982782,5074.95324 555.461949,5076.06001 555.461949,5077.4923 C555.461949,5078.40375 555.722364,5079.1199 556.243197,5079.64073 C556.76403,5080.16156 557.870796,5080.61729 559.563501,5081.00791 C561.256207,5081.39854 563.990575,5081.85426 567.766607,5082.3751 C573.756177,5083.15634 577.922833,5084.26311 580.266577,5085.6954 C582.870737,5087.38811 584.172818,5090.05737 584.172818,5093.70319 Z" id="n"></path>
  </g>
  </g>
</svg>
