<svg id="full" width="51px" height="36px" viewBox="0 0 51 36" version="1.1" xmlns="http://www.w3.org/2000/svg" xmlns:xlink="http://www.w3.org/1999/xlink">
  <g id="Page-1" stroke="none" stroke-width="1" fill="none" fill-rule="evenodd">
  <g id="Desktop-HD-Copy-2" transform="translate(-971.000000, -3288.000000)" fill="#8224E3" fill-rule="nonzero">
    <path d="M1013.92847,3303.50004 C1012.20972,3303.50004 1010.73837,3302.88806 1009.51442,3301.66411 C1008.29046,3300.44015 1007.67849,3298.9688 1007.67849,3297.25006 C1007.67849,3295.53131 1008.29046,3294.05996 1009.51442,3292.836 C1010.73837,3291.61205 1012.20972,3291.00007 1013.92847,3291.00007 C1015.64722,3291.00007 1017.11857,3291.61205 1018.34252,3292.836 C1019.56648,3294.05996 1020.17846,3295.53131 1020.17846,3297.25006 C1020.17846,3298.9688 1019.56648,3300.44015 1018.34252,3301.66411 C1017.11857,3302.88806 1015.64722,3303.50004 1013.92847,3303.50004 Z M1013.92847,3294.75006 C1013.25139,3294.75006 1012.66545,3294.99746 1012.17066,3295.49225 C1011.67587,3295.98704 1011.42848,3296.57297 1011.42848,3297.25006 C1011.42848,3297.92714 1011.67587,3298.51307 1012.17066,3299.00786 C1012.66545,3299.50266 1013.25139,3299.75005 1013.92847,3299.75005 C1014.60555,3299.75005 1015.19149,3299.50266 1015.68628,3299.00786 C1016.18107,3298.51307 1016.42846,3297.92714 1016.42846,3297.25006 C1016.42846,3296.57297 1016.18107,3295.98704 1015.68628,3295.49225 C1015.19149,3294.99746 1014.60555,3294.75006 1013.92847,3294.75006 Z M978.928554,3303.50004 C977.209808,3303.50004 975.738457,3302.88806 974.514502,3301.66411 C973.290546,3300.44015 972.678569,3298.9688 972.678569,3297.25006 C972.678569,3295.53131 973.290546,3294.05996 974.514502,3292.836 C975.738457,3291.61205 977.209808,3291.00007 978.928554,3291.00007 C980.6473,3291.00007 982.11865,3291.61205 983.342606,3292.836 C984.566561,3294.05996 985.178539,3295.53131 985.178539,3297.25006 C985.178539,3298.9688 984.566561,3300.44015 983.342606,3301.66411 C982.11865,3302.88806 980.6473,3303.50004 978.928554,3303.50004 Z M978.928554,3294.75006 C978.251472,3294.75006 977.665535,3294.99746 977.170745,3295.49225 C976.675955,3295.98704 976.42856,3296.57297 976.42856,3297.25006 C976.42856,3297.92714 976.675955,3298.51307 977.170745,3299.00786 C977.665535,3299.50266 978.251472,3299.75005 978.928554,3299.75005 C979.605636,3299.75005 980.191572,3299.50266 980.686362,3299.00786 C981.181152,3298.51307 981.428548,3297.92714 981.428548,3297.25006 C981.428548,3296.57297 981.181152,3295.98704 980.686362,3295.49225 C980.191572,3294.99746 979.605636,3294.75006 978.928554,3294.75006 Z M1009.86598,3311.2344 C1010.90764,3312.74481 1011.42848,3314.41147 1011.42848,3316.23439 L1011.42848,3319.75 C1011.42848,3320.79167 1011.06389,3321.67708 1010.33473,3322.40625 C1009.60556,3323.13541 1008.72015,3323.49999 1007.67849,3323.49999 L985.178539,3323.49999 C984.136875,3323.49999 983.25146,3323.13541 982.522295,3322.40625 C981.793131,3321.67708 981.428548,3320.79167 981.428548,3319.75 L981.428548,3316.23439 C981.428548,3314.41147 981.94938,3312.73179 982.991044,3311.19534 C984.032708,3309.65888 985.478017,3308.59118 987.326971,3307.99222 C989.175925,3307.39326 991.0379,3307.38024 992.912895,3307.95316 C994.058726,3308.31774 995.217577,3308.50003 996.389449,3308.50003 C997.561322,3308.50003 998.746215,3308.31774 999.944129,3307.95316 C1001.81912,3307.38024 1003.6811,3307.39326 1005.53005,3307.99222 C1007.37901,3308.59118 1008.82432,3309.6719 1009.86598,3311.2344 Z M1007.67849,3319.75 L1007.67849,3316.23439 C1007.67849,3314.82814 1007.18369,3313.61721 1006.19411,3312.60158 C1005.20453,3311.58596 1004.00662,3311.05211 1002.60037,3311.00002 C1000.56913,3311.83336 998.511841,3312.25002 996.428512,3312.25002 C994.345183,3312.25002 992.287897,3311.83336 990.256652,3311.00002 C988.850405,3311.05211 987.652492,3311.58596 986.66291,3312.60158 C985.673329,3313.61721 985.178539,3314.82814 985.178539,3316.23439 L985.178539,3319.75 L1007.67849,3319.75 Z M1014.86597,3306.00004 C1016.68888,3306.00004 1018.23836,3306.63806 1019.51439,3307.91409 C1020.79043,3309.19013 1021.42845,3310.73961 1021.42845,3312.56252 C1021.42845,3313.08335 1021.24616,3313.52606 1020.88158,3313.89064 C1020.517,3314.25522 1020.07429,3314.43752 1019.55346,3314.43752 C1019.03262,3314.43752 1018.58992,3314.25522 1018.22533,3313.89064 C1017.86075,3313.52606 1017.67846,3313.08335 1017.67846,3312.56252 C1017.67846,3311.78127 1017.40502,3311.11721 1016.85815,3310.57034 C1016.31128,3310.02346 1015.64722,3309.75003 1014.86597,3309.75003 L1012.99097,3309.75003 C1012.73056,3309.75003 1012.41806,3309.80211 1012.05347,3309.90628 C1011.32431,3308.86461 1010.41285,3307.92711 1009.31911,3307.09378 C1010.41285,3306.36462 1011.63681,3306.00004 1012.99097,3306.00004 L1014.86597,3306.00004 Z M996.428512,3306.00004 C994.866016,3306.00004 993.407685,3305.60941 992.053522,3304.82816 C990.699359,3304.04692 989.631653,3302.97921 988.850405,3301.62505 C988.069157,3300.27088 987.678533,3298.81255 987.678533,3297.25006 C987.678533,3295.68756 988.069157,3294.22923 988.850405,3292.87507 C989.631653,3291.5209 990.699359,3290.4532 992.053522,3289.67195 C993.407685,3288.8907 994.866016,3288.50008 996.428512,3288.50008 C997.991008,3288.50008 999.449338,3288.8907 1000.8035,3289.67195 C1002.15766,3290.4532 1003.22537,3291.5209 1004.00662,3292.87507 C1004.78787,3294.22923 1005.17849,3295.68756 1005.17849,3297.25006 C1005.17849,3298.81255 1004.78787,3300.27088 1004.00662,3301.62505 C1003.22537,3302.97921 1002.15766,3304.04692 1000.8035,3304.82816 C999.449338,3305.60941 997.991008,3306.00004 996.428512,3306.00004 Z M996.428512,3292.25007 C995.074349,3292.25007 993.902477,3292.74486 992.912895,3293.73444 C991.923314,3294.72402 991.428524,3295.89589 991.428524,3297.25006 C991.428524,3298.60422 991.923314,3299.77609 992.912895,3300.76567 C993.902477,3301.75525 995.074349,3302.25004 996.428512,3302.25004 C997.782675,3302.25004 998.954547,3301.75525 999.944129,3300.76567 C1000.93371,3299.77609 1001.4285,3298.60422 1001.4285,3297.25006 C1001.4285,3295.89589 1000.93371,3294.72402 999.944129,3293.73444 C998.954547,3292.74486 997.782675,3292.25007 996.428512,3292.25007 Z M983.537918,3307.09378 C982.44417,3307.92711 981.532714,3308.89065 980.803549,3309.9844 C980.49105,3309.82815 980.178551,3309.75003 979.866051,3309.75003 L977.991056,3309.75003 C977.209808,3309.75003 976.545747,3310.02346 975.998873,3310.57034 C975.451999,3311.11721 975.178563,3311.78127 975.178563,3312.56252 C975.178563,3313.08335 974.996272,3313.52606 974.631689,3313.89064 C974.267106,3314.25522 973.8244,3314.43752 973.303567,3314.43752 C972.782735,3314.43752 972.340028,3314.25522 971.975445,3313.89064 C971.610862,3313.52606 971.428571,3313.08335 971.428571,3312.56252 C971.428571,3310.73961 972.066591,3309.19013 973.342629,3307.91409 C974.618668,3306.63806 976.168144,3306.00004 977.991056,3306.00004 L979.866051,3306.00004 C981.220214,3306.00004 982.44417,3306.36462 983.537918,3307.09378 Z" id="u"></path>
  </g>
  </g>
</svg>
