<svg width="37" height="29" viewBox="0 0 37 29" fill="none" xmlns="http://www.w3.org/2000/svg">
<path d="M7.9787 14.3713H8.6516C10.4781 14.3713 12.1122 15.0762 13.5542 16.4861C15.0282 17.864 15.7651 19.5943 15.7651 21.6771C15.7651 23.7278 15.0282 25.4261 13.5542 26.7719C12.1122 28.0857 10.3178 28.7425 8.17096 28.7425C5.83182 28.7425 3.8772 27.8133 2.30709 25.9548C0.769031 24.0643 0 21.3887 0 17.928C0 14.7558 0.672902 11.7918 2.01871 9.03612C3.39655 6.24838 5.06279 4.05344 7.01741 2.45129C9.00408 0.817096 10.7664 0 12.3045 0C13.3299 0 14.1309 0.304408 14.7077 0.913225C15.2845 1.52204 15.5729 2.30709 15.5729 3.26838C15.5729 4.67827 14.948 5.71967 13.6984 6.39257C12.0001 7.32182 10.6543 8.41128 9.66096 9.66096C8.66762 10.9106 8.10687 12.4807 7.9787 14.3713ZM29.2232 14.3713H29.848C31.6424 14.3713 33.2606 15.0762 34.7025 16.4861C36.1765 17.864 36.9135 19.5943 36.9135 21.6771C36.9135 23.6958 36.1765 25.3941 34.7025 26.7719C33.2606 28.1497 31.4662 28.8387 29.3193 28.8387C26.9481 28.8387 24.9935 27.8774 23.4555 25.9548C21.9174 24.0322 21.1484 21.3566 21.1484 17.928C21.1484 15.4607 21.5489 13.1376 22.35 10.9587C23.151 8.77977 24.1764 6.88924 25.4261 5.28709C26.7078 3.6529 28.0696 2.37118 29.5116 1.44193C30.9856 0.480645 32.2993 0 33.4529 0C34.5103 0 35.3114 0.304408 35.8561 0.913225C36.4329 1.49 36.7212 2.27505 36.7212 3.26838C36.7212 4.71032 36.0964 5.75171 34.8467 6.39257C33.0844 7.3859 31.7546 8.49139 30.8574 9.70902C29.9602 10.8946 29.4154 12.4487 29.2232 14.3713Z" fill="url(#paint0_linear)"/>
<defs>
<linearGradient id="paint0_linear" x1="-0.110061" y1="17.5378" x2="31.0864" y2="-0.013628" gradientUnits="userSpaceOnUse">
<stop stop-color="#6B67E9"/>
<stop offset="1" stop-color="#8224E3"/>
</linearGradient>
</defs>
</svg>
