<?xml version="1.0" encoding="UTF-8"?>
<svg width="101px" height="89px" viewBox="0 0 101 89" version="1.1" xmlns="http://www.w3.org/2000/svg" xmlns:xlink="http://www.w3.org/1999/xlink">
    <!-- Generator: sketchtool 53.2 (72643) - https://sketchapp.com -->
    <title>0411BAB7-4665-4CCE-AB1E-328C2010580E</title>
    <desc>Created with sketchtool.</desc>
    <g id="Page-1" stroke="none" stroke-width="1" fill="none" fill-rule="evenodd">
        <g id="Desktop-HD-Copy-2" transform="translate(-205.000000, -5041.000000)" fill="#8E54E9" fill-rule="nonzero">
            <path d="M286.711859,5070.07044 C292.180596,5072.02356 296.60767,5074.33475 299.993078,5077.00402 C303.378485,5079.67328 305.071191,5082.50531 305.071191,5085.50009 C305.071191,5088.49487 303.280829,5091.42455 299.70011,5094.28913 C296.11939,5097.15371 291.399348,5099.49745 285.539987,5101.32036 L283.782179,5101.9063 L284.368115,5104.64067 C285.539987,5110.23961 285.702746,5115.18752 284.856395,5119.48438 C284.010044,5123.78125 282.284786,5126.64583 279.680626,5128.07811 C277.076467,5129.5104 273.853818,5129.57551 270.01268,5128.27342 C266.171543,5126.97134 262.102543,5124.5625 257.805678,5121.04688 L255.266622,5118.50782 L253.118189,5120.46094 C248.821325,5124.23698 244.622116,5126.84114 240.520563,5128.27342 C236.419011,5129.70571 233.066153,5129.67316 230.461993,5128.17577 C227.857834,5126.67838 226.165129,5123.91146 225.383881,5119.87501 C224.602632,5115.83856 224.732841,5111.08597 225.774505,5105.61723 L226.555753,5102.10161 L223.821384,5101.32036 C218.222438,5099.36724 213.697712,5096.9584 210.247198,5094.09382 C206.796684,5091.22924 205.071429,5088.36467 205.071429,5085.50009 C205.071429,5082.63551 206.699028,5079.83604 209.95423,5077.10167 C213.209431,5074.3673 217.571399,5072.08866 223.040136,5070.26575 L226.555753,5069.09388 L225.969817,5065.77357 C224.797944,5060.17463 224.602632,5055.35693 225.383881,5051.32048 C226.165129,5047.28403 227.857834,5044.51712 230.461993,5043.01972 C233.066153,5041.52233 236.451564,5041.48978 240.618219,5042.92207 C244.784875,5044.35435 249.08174,5047.08872 253.508814,5051.12517 L255.07131,5052.68767 L257.610366,5050.34392 C261.907231,5046.56789 266.008784,5043.99628 269.915024,5042.6291 C273.821265,5041.26191 277.076467,5041.32702 279.680626,5042.82441 C282.284786,5044.3218 283.977491,5047.25148 284.758739,5051.61345 C285.539987,5055.97542 285.344675,5061.08609 284.172803,5066.94545 L283.586867,5069.09388 C284.62853,5069.4845 285.670196,5069.81002 286.711859,5070.07044 Z M260.344735,5053.46892 L258.00099,5055.61735 C260.995774,5058.87255 263.795248,5062.32306 266.399408,5065.96889 C270.696273,5066.35951 275.05824,5067.07566 279.485314,5068.11732 L279.875938,5066.1642 C280.917601,5061.21629 281.210569,5056.95198 280.754842,5053.37126 C280.299115,5049.79054 279.224899,5047.5119 277.532194,5046.53534 C275.839488,5045.55878 273.430641,5045.72154 270.305648,5047.02362 C267.180656,5048.3257 263.860351,5050.47413 260.344735,5053.46892 Z M234.95417,5090.38289 C233.652089,5093.50788 232.610426,5096.43756 231.829178,5099.17193 C234.693755,5099.82297 237.688539,5100.2787 240.813531,5100.53912 C239.902074,5099.23703 238.860411,5097.60944 237.688539,5095.65632 C236.907291,5094.09382 235.995833,5092.33601 234.95417,5090.38289 Z M234.95417,5080.61729 C235.735418,5079.05479 236.646876,5077.36209 237.688539,5075.53918 C238.599996,5073.97668 239.641659,5072.28397 240.813531,5070.46106 C237.55833,5070.85169 234.563546,5071.37252 231.829178,5072.02356 C232.740635,5074.88814 233.782298,5077.75271 234.95417,5080.61729 Z M237.102603,5085.50009 C238.53489,5088.36467 239.96718,5091.06648 241.399467,5093.60554 C242.831755,5096.1446 244.394251,5098.6511 246.086956,5101.12505 C249.08174,5101.25526 252.109076,5101.32036 255.168966,5101.32036 C258.228855,5101.32036 261.191086,5101.19016 264.055663,5100.92974 C265.878575,5098.32558 267.506177,5095.75397 268.938464,5093.21491 C270.370751,5090.67586 271.737936,5088.10425 273.040017,5085.50009 C271.60773,5082.63551 270.175439,5079.9337 268.743152,5077.39464 C267.310865,5074.85558 265.748369,5072.41418 264.055663,5070.07044 C261.06088,5069.81002 258.066093,5069.67981 255.07131,5069.67981 C252.076526,5069.67981 249.08174,5069.81002 246.086956,5070.07044 C244.264045,5072.6746 242.701549,5075.14855 241.399467,5077.4923 C239.836971,5080.35687 238.404684,5083.02614 237.102603,5085.50009 Z M272.454081,5095.461 C271.282209,5097.54433 270.240545,5099.23703 269.329088,5100.53912 C272.454081,5100.14849 275.51397,5099.62766 278.508754,5098.97662 C277.597297,5095.98184 276.555634,5093.11726 275.383761,5090.38289 C274.342098,5092.33601 273.365538,5094.02872 272.454081,5095.461 Z M275.188449,5080.61729 C276.490531,5077.75271 277.532194,5074.88814 278.313442,5072.02356 C275.579073,5071.37252 272.649393,5070.85169 269.5244,5070.46106 C270.435857,5072.15377 271.412418,5073.84647 272.454081,5075.53918 C273.235329,5076.84126 274.146786,5078.53396 275.188449,5080.61729 Z M255.07131,5058.54703 C252.98798,5060.76056 251.03486,5063.10431 249.211949,5065.57826 C253.118189,5065.44805 257.02443,5065.44805 260.930671,5065.57826 C259.107759,5063.10431 257.154639,5060.76056 255.07131,5058.54703 Z M232.415114,5046.63299 C230.852618,5047.54445 229.843504,5049.66033 229.387777,5052.98064 C228.93205,5056.30094 229.159912,5060.30484 230.071369,5064.99233 L230.657305,5067.92201 C235.084379,5067.01055 239.446347,5066.35951 243.743212,5065.96889 C246.347371,5062.32306 249.146846,5058.87255 252.141629,5055.61735 L250.774445,5054.25016 C246.998413,5050.86476 243.417691,5048.48846 240.032283,5047.12127 C236.646876,5045.75409 234.107819,5045.59133 232.415114,5046.63299 Z M227.727625,5098.19537 C229.029706,5093.7683 230.657305,5089.53654 232.610426,5085.50009 C230.657305,5081.46364 229.029706,5077.29698 227.727625,5073.00012 L224.40732,5074.17199 C219.850041,5075.73449 216.204215,5077.5574 213.469846,5079.64073 C210.735478,5081.72406 209.368294,5083.67718 209.368294,5085.50009 C209.628709,5087.97404 210.800581,5089.92716 212.88391,5091.35945 C216.008903,5093.70319 220.110456,5095.72142 225.188569,5097.41412 C226.100026,5097.67454 226.946377,5097.93496 227.727625,5098.19537 Z M250.383821,5117.33595 L252.336941,5115.57814 C249.211949,5112.19274 246.412477,5108.67712 243.938524,5105.03129 C239.51145,5104.77088 235.084379,5104.18494 230.657305,5103.27348 L229.876057,5106.39848 C228.9646,5110.95576 228.769288,5114.862 229.290121,5118.1172 C229.810954,5121.3724 230.917721,5123.45573 232.610426,5124.36718 C234.823961,5125.27864 237.102603,5125.21354 239.446347,5124.17187 C243.482797,5122.60938 247.128619,5120.33073 250.383821,5117.33595 Z M255.266622,5112.45315 C257.349951,5110.10941 259.237966,5107.76566 260.930671,5105.42192 C259.107759,5105.55213 257.187189,5105.61723 255.168966,5105.61723 C253.150742,5105.61723 251.230172,5105.55213 249.407261,5105.42192 C251.230172,5108.02608 253.183292,5110.36982 255.266622,5112.45315 Z M280.852498,5118.31251 L280.657186,5118.31251 C281.308225,5113.88544 281.178019,5109.58857 280.266562,5105.42192 L279.680626,5103.07817 C275.383761,5103.98963 270.956688,5104.64067 266.399408,5105.03129 C263.925454,5108.67712 261.191086,5112.19274 258.196302,5115.57814 L260.735359,5117.72658 C264.250975,5120.72136 267.538727,5122.83724 270.598617,5124.07422 C273.658506,5125.31119 275.969697,5125.47395 277.532194,5124.5625 C279.485314,5123 280.592083,5120.91667 280.852498,5118.31251 Z M284.368115,5097.41412 C289.185813,5095.72142 293.124603,5093.7683 296.184493,5091.55476 C299.244383,5089.34123 300.774326,5087.323 300.774326,5085.50009 C300.774326,5083.67718 299.342039,5081.6915 296.477461,5079.54307 C293.612884,5077.39464 289.901955,5075.53918 285.344675,5073.97668 L282.414995,5073.19543 C281.112913,5077.4923 279.550417,5081.59385 277.727506,5085.50009 C279.680626,5089.66675 281.308225,5093.7683 282.610307,5097.80475 C283.000931,5097.80475 283.586867,5097.67454 284.368115,5097.41412 Z M255.07131,5076.51574 C257.545263,5076.51574 259.661143,5077.39464 261.418951,5079.15245 C263.176759,5080.91026 264.055663,5083.02614 264.055663,5085.50009 C264.055663,5087.97404 263.176759,5090.08992 261.418951,5091.84773 C259.661143,5093.60554 257.545263,5094.48444 255.07131,5094.48444 C252.597356,5094.48444 250.481477,5093.60554 248.723669,5091.84773 C246.96586,5090.08992 246.086956,5087.97404 246.086956,5085.50009 C246.086956,5083.02614 246.96586,5080.91026 248.723669,5079.15245 C250.481477,5077.39464 252.597356,5076.51574 255.07131,5076.51574 Z" id="r"></path>
        </g>
    </g>
</svg>
