<svg width="79" height="79" viewBox="0 0 79 79" fill="none" xmlns="http://www.w3.org/2000/svg">
<path d="M39.5 3.15997C19.4624 3.15997 3.15997 19.4624 3.15997 39.5C3.15997 59.5375 19.4624 75.84 39.5 75.84C59.5375 75.84 75.84 59.5375 75.84 39.5C75.84 34.7142 74.9029 30.1475 73.2138 25.9589C72.3196 26.6699 71.4228 27.3196 70.5538 27.9215C71.9047 31.5334 72.68 35.4236 72.68 39.5C72.68 57.7964 57.7964 72.68 39.5 72.68C21.2036 72.68 6.31997 57.7964 6.31997 39.5C6.31997 21.2036 21.2036 6.31997 39.5 6.31997C40.2141 6.31997 40.9138 6.38374 41.6169 6.42798C41.9392 5.32988 42.4026 4.29192 42.984 3.3297C41.8369 3.22068 40.6771 3.15997 39.5 3.15997ZM26.86 28.44C25.6028 28.44 24.3972 28.9394 23.5083 29.8283C22.6194 30.7172 22.12 31.9228 22.12 33.18C22.12 34.4371 22.6194 35.6427 23.5083 36.5317C24.3972 37.4206 25.6028 37.92 26.86 37.92C28.1171 37.92 29.3227 37.4206 30.2117 36.5317C31.1006 35.6427 31.6 34.4371 31.6 33.18C31.6 31.9228 31.1006 30.7172 30.2117 29.8283C29.3227 28.9394 28.1171 28.44 26.86 28.44ZM52.14 28.44C50.8828 28.44 49.6772 28.9394 48.7883 29.8283C47.8994 30.7172 47.4 31.9228 47.4 33.18C47.4 34.4371 47.8994 35.6427 48.7883 36.5317C49.6772 37.4206 50.8828 37.92 52.14 37.92C53.3971 37.92 54.6027 37.4206 55.4917 36.5317C56.3806 35.6427 56.88 34.4371 56.88 33.18C56.88 31.9228 56.3806 30.7172 55.4917 29.8283C54.6027 28.9394 53.3971 28.44 52.14 28.44ZM18.8921 45.8015C18.6042 45.811 18.3244 45.899 18.0829 46.056C17.8414 46.213 17.6474 46.433 17.5219 46.6923C17.3964 46.9515 17.3441 47.2402 17.3708 47.527C17.3974 47.8138 17.502 48.0879 17.6731 48.3196C17.6731 48.3196 25.9383 60.04 39.5 60.04C53.0616 60.04 61.3268 48.3196 61.3268 48.3196C61.5707 47.9783 61.669 47.5541 61.6002 47.1403C61.5313 46.7265 61.3009 46.357 60.9596 46.1131C60.6183 45.8692 60.1941 45.7709 59.7803 45.8398C59.3665 45.9086 58.997 46.1391 58.7531 46.4804C58.7531 46.4804 51.2183 56.88 39.5 56.88C27.7816 56.88 20.2468 46.4804 20.2468 46.4804C20.096 46.2628 19.8928 46.0866 19.6561 45.9679C19.4194 45.8493 19.1567 45.7921 18.8921 45.8015Z" fill="#262626"/>
<path fill-rule="evenodd" clip-rule="evenodd" d="M73.8442 2.28825L73.8478 2.29133C78.36 6.15886 78.5678 13.0029 74.5584 17.1555L74.5533 17.1608L64.9946 27.0152C63.1573 28.9643 60.0336 28.9643 58.1963 27.0152L48.6324 17.1555C44.623 13.0029 44.8309 6.15886 49.343 2.29133L49.3466 2.28825C53.0088 -0.841337 58.0725 -0.560501 61.6023 2.04405C65.142 -0.547647 70.166 -0.854941 73.8442 2.28825ZM63.1518 4.83765C62.9463 5.0068 62.748 5.18828 62.5582 5.38183L61.6201 6.36933L60.6326 5.38183C60.3703 5.10902 60.0901 4.86018 59.7956 4.63609C57.3185 2.75112 53.8265 2.61654 51.3995 4.69058C48.2888 7.35683 48.1407 12.0968 50.9057 14.9606L60.4845 24.8356C61.077 25.4775 62.1138 25.4775 62.7063 24.8356L72.2851 14.9606C75.0501 12.0968 74.902 7.35683 71.7913 4.69058C69.2804 2.5449 65.672 2.76305 63.1518 4.83765Z" fill="url(#paint0_linear)"/>
<defs>
<linearGradient id="paint0_linear" x1="45.6885" y1="17.324" x2="74.0989" y2="3.44844" gradientUnits="userSpaceOnUse">
<stop stop-color="#6B67E9"/>
<stop offset="1" stop-color="#8224E3"/>
</linearGradient>
</defs>
</svg>
