<svg id='full' width="79" height="79" viewBox="0 0 79 79" fill="none" xmlns="http://www.w3.org/2000/svg">
  <g clip-path="url(#clip0)">
    <path d="M54.51 0C48.822 0 44.24 4.58262 44.24 10.1126C44.24 18.8026 52.1387 24.0172 57.1947 27.3352C58.6167 28.2832 59.7252 28.9152 60.5152 29.7052L61.4626 30.4952L62.41 29.7052C63.2 29.0732 64.4634 28.2832 65.7274 27.3352C71.0994 23.8592 79 18.8026 79 10.1126C79 4.58262 74.418 0 68.73 0C66.044 0 63.516 1.10723 61.62 2.84523C59.724 1.10723 57.196 0 54.51 0ZM39.5 3.16C19.4624 3.16 3.15997 19.4624 3.15997 39.5C3.15997 59.5376 19.4624 75.84 39.5 75.84C59.5375 75.84 75.84 59.5376 75.84 39.5C75.84 34.7142 74.9029 30.1475 73.2138 25.9589C72.3196 26.6699 71.4228 27.3196 70.5538 27.9216C71.9047 31.5334 72.68 35.4236 72.68 39.5C72.68 57.7964 57.7964 72.68 39.5 72.68C21.2036 72.68 6.31997 57.7964 6.31997 39.5C6.31997 21.2036 21.2036 6.32 39.5 6.32C40.2141 6.32 40.9138 6.38377 41.6169 6.42801C41.9392 5.32991 42.4026 4.29195 42.984 3.32973C41.8369 3.22071 40.6771 3.16 39.5 3.16ZM54.51 3.16C56.88 3.16 58.9327 4.266 60.3547 6.32L61.62 8.21477L62.8852 6.32C64.1492 4.424 66.36 3.16 68.73 3.16C72.68 3.16 75.84 6.32062 75.84 10.1126C75.84 17.0646 69.2027 21.4874 64.3047 24.6474C63.1987 25.2794 62.41 25.9108 61.62 26.3848C60.83 25.7528 60.0412 25.2794 58.9352 24.6474C54.0372 21.4874 47.4 17.0646 47.4 10.1126C47.4 6.32062 50.56 3.16 54.51 3.16ZM26.86 28.44C25.6028 28.44 24.3972 28.9394 23.5083 29.8283C22.6194 30.7172 22.12 31.9229 22.12 33.18C22.12 34.4371 22.6194 35.6428 23.5083 36.5317C24.3972 37.4206 25.6028 37.92 26.86 37.92C28.1171 37.92 29.3227 37.4206 30.2117 36.5317C31.1006 35.6428 31.6 34.4371 31.6 33.18C31.6 31.9229 31.1006 30.7172 30.2117 29.8283C29.3227 28.9394 28.1171 28.44 26.86 28.44ZM52.14 28.44C50.8828 28.44 49.6772 28.9394 48.7883 29.8283C47.8994 30.7172 47.4 31.9229 47.4 33.18C47.4 34.4371 47.8994 35.6428 48.7883 36.5317C49.6772 37.4206 50.8828 37.92 52.14 37.92C53.3971 37.92 54.6027 37.4206 55.4917 36.5317C56.3806 35.6428 56.88 34.4371 56.88 33.18C56.88 31.9229 56.3806 30.7172 55.4917 29.8283C54.6027 28.9394 53.3971 28.44 52.14 28.44ZM18.8921 45.8015C18.6042 45.811 18.3244 45.899 18.0829 46.056C17.8414 46.213 17.6474 46.433 17.5219 46.6923C17.3964 46.9516 17.3441 47.2402 17.3708 47.527C17.3974 47.8138 17.502 48.0879 17.6731 48.3196C17.6731 48.3196 25.9383 60.04 39.5 60.04C53.0616 60.04 61.3268 48.3196 61.3268 48.3196C61.5707 47.9783 61.669 47.5541 61.6002 47.1403C61.5313 46.7265 61.3009 46.3571 60.9596 46.1132C60.6183 45.8693 60.1941 45.7709 59.7803 45.8398C59.3665 45.9087 58.997 46.1391 58.7531 46.4804C58.7531 46.4804 51.2183 56.88 39.5 56.88C27.7816 56.88 20.2468 46.4804 20.2468 46.4804C20.096 46.2628 19.8928 46.0866 19.6561 45.968C19.4194 45.8493 19.1567 45.7921 18.8921 45.8015Z" fill="#262626"/>
  </g>
  <defs>
    <clipPath id="clip0">
      <rect width="79" height="79" fill="white"/>
    </clipPath>
  </defs>
</svg>
