<?xml version="1.0" encoding="UTF-8"?>
<svg width="51px" height="36px" viewBox="0 0 51 36" version="1.1" xmlns="http://www.w3.org/2000/svg" xmlns:xlink="http://www.w3.org/1999/xlink">
    <!-- Generator: sketchtool 53.2 (72643) - https://sketchapp.com -->
    <title>4F4E3AF8-2C10-44B6-A066-0D345F760BA4</title>
    <desc>Created with sketchtool.</desc>
    <g id="Page-1" stroke="none" stroke-width="1" fill="none" fill-rule="evenodd">
        <g id="Desktop-HD-Copy-2" transform="translate(-162.000000, -3293.000000)" fill="#8224E3" fill-rule="nonzero">
            <path d="M182.0379,3310.37504 C182.246233,3310.53129 182.350399,3310.73962 182.350399,3311.00004 C182.350399,3311.26045 182.246233,3311.46878 182.0379,3311.62503 L165.709814,3328.03125 C165.50148,3328.18749 165.267106,3328.26562 165.00669,3328.26562 C164.746275,3328.26562 164.537941,3328.18749 164.381692,3328.03125 L162.819196,3326.46875 C162.610862,3326.3125 162.506696,3326.10417 162.506696,3325.84375 C162.506696,3325.58333 162.610862,3325.34896 162.819196,3325.14063 L176.959787,3311.00004 L162.819196,3296.85944 C162.610862,3296.65111 162.506696,3296.41674 162.506696,3296.15632 C162.506696,3295.89591 162.610862,3295.68757 162.819196,3295.53132 L164.381692,3293.96883 C164.537941,3293.81258 164.746275,3293.73445 165.00669,3293.73445 C165.267106,3293.73445 165.50148,3293.81258 165.709814,3293.96883 L182.0379,3310.37504 Z M212.428452,3327.5625 C212.428452,3327.82291 212.337306,3328.04427 212.155015,3328.22656 C211.972725,3328.40885 211.75137,3328.49999 211.490955,3328.49999 L185.866016,3328.49999 C185.6056,3328.49999 185.384246,3328.40885 185.201955,3328.22656 C185.019664,3328.04427 184.928518,3327.82291 184.928518,3327.5625 L184.928518,3325.375 C184.928518,3325.11459 185.019664,3324.89323 185.201955,3324.71094 C185.384246,3324.52865 185.6056,3324.4375 185.866016,3324.4375 L211.490955,3324.4375 C211.75137,3324.4375 211.972725,3324.52865 212.155015,3324.71094 C212.337306,3324.89323 212.428452,3325.11459 212.428452,3325.375 L212.428452,3327.5625 Z" id="t"></path>
        </g>
    </g>
</svg>
