<svg width="79" height="79" viewBox="0 0 79 79" fill="none" xmlns="http://www.w3.org/2000/svg">
  <path d="M6.95277 9.47998C4.75657 9.47998 3.16016 11.1241 3.16016 13.3899V52.9732C3.16016 55.2373 4.75657 56.88 6.95277 56.88H48.6561L47.9741 53.72H6.95277C6.74895 53.72 6.32016 53.719 6.32016 52.9701V13.3899C6.32016 12.6409 6.74895 12.64 6.95277 12.64H65.7275C65.9329 12.64 66.3602 12.6409 66.3602 13.3899V17.0097C66.6825 17.2972 68.1013 18.6306 69.5202 20.9658V13.3899C69.5202 11.1241 67.9237 9.47998 65.7275 9.47998H6.95277ZM63.231 18.96C62.8505 18.9528 62.4801 19.0832 62.188 19.3272C62.188 19.3272 57.5377 23.2974 56.9419 30.8007C55.629 29.4744 54.6552 28.7455 54.6552 28.7455C54.3985 28.5571 54.0909 28.4506 53.7726 28.44C53.4228 28.4285 53.079 28.5334 52.7953 28.7384C52.5116 28.9434 52.3039 29.2368 52.205 29.5725C52.205 29.5725 50.5602 34.9512 50.5602 39.5C50.5602 41.7582 50.8467 45.5245 52.8623 48.98H52.1402C51.9045 48.9802 51.6719 49.0332 51.4594 49.135C51.2468 49.2367 51.0597 49.3848 50.9118 49.5682C50.7639 49.7516 50.6589 49.9658 50.6044 50.1951C50.55 50.4244 50.5475 50.6629 50.5972 50.8933L53.9362 66.36H3.16016V69.52H75.8402V66.36H72.4641L75.8031 50.8933C75.8528 50.6629 75.8503 50.4244 75.7959 50.1951C75.7415 49.9658 75.6364 49.7516 75.4885 49.5682C75.3406 49.3848 75.1535 49.2367 74.9409 49.135C74.7284 49.0332 74.4958 48.9802 74.2602 48.98H73.7325L73.7355 48.9769C74.9263 46.5267 75.8402 43.6265 75.8402 38.71C75.8402 32.879 74.1799 27.9401 74.1799 27.9401C74.0704 27.6126 73.8567 27.3299 73.5713 27.1354C73.286 26.941 72.9448 26.8453 72.5999 26.8631C72.303 26.878 72.0164 26.9764 71.7729 27.147C71.7729 27.147 70.7164 27.8783 69.2332 29.1312C68.1449 22.8354 64.2401 19.3519 64.2401 19.3519C63.9604 19.1065 63.603 18.9677 63.231 18.96ZM63.1816 23.0334C64.3091 24.3057 66.1978 26.8814 66.3355 31.8407C64.7761 33.4215 63.1431 35.3027 61.7775 37.4694C61.2341 36.405 60.6478 35.4489 60.0402 34.5687V32.39C60.0402 26.9174 62.0131 24.3109 63.1816 23.0334ZM71.7791 31.2729C72.2112 33.082 72.6802 35.5661 72.6802 38.71C72.6802 44.2363 71.6615 46.3097 70.1651 48.98H61.5584C61.5735 48.3187 61.6236 47.5071 61.7467 46.647C61.9836 44.9912 62.4367 43.1341 63.0644 41.7219C65.3263 36.6325 69.644 32.9708 71.7791 31.2729ZM54.6089 33.0349C55.3417 33.727 56.2059 34.6543 57.0684 35.7969C57.1585 35.9628 57.2777 36.1112 57.4202 36.2351C58.3264 37.5148 59.2067 39.1123 59.9291 41.0769C59.2777 42.7329 58.855 44.5396 58.6175 46.1996C58.471 47.224 58.3876 48.1479 58.3707 48.98H56.7012C54.1318 45.9884 53.7202 41.8969 53.7202 39.5C53.7202 37.2998 54.1776 34.9143 54.6089 33.0349ZM54.0966 52.14H70.7052C70.9466 52.1977 71.1982 52.1977 71.4396 52.14H72.3037L69.2332 66.36H57.1671L54.0966 52.14ZM22.1202 60.04V63.2H50.0201L49.3381 60.04H22.1202Z" fill="#262626"/>
  <path d="M33.1802 39.3025V25.28L42.6602 34.76L38.1979 35.155L40.429 40.29L38.5713 41.08L36.5253 35.945L33.1802 39.3025Z" fill="url(#paint0_linear)"/>
  <defs>
    <linearGradient id="paint0_linear" x1="33.1519" y1="34.8886" x2="43.0138" y2="32.2878" gradientUnits="userSpaceOnUse">
      <stop stop-color="#6B67E9"/>
      <stop offset="1" stop-color="#8224E3"/>
    </linearGradient>
  </defs>
</svg>
