<?xml version="1.0" standalone="no"?>
<!DOCTYPE svg PUBLIC "-//W3C//DTD SVG 20010904//EN"
 "http://www.w3.org/TR/2001/REC-SVG-20010904/DTD/svg10.dtd">
<svg version="1.0" xmlns="http://www.w3.org/2000/svg"
 width="752.000000pt" height="752.000000pt" viewBox="0 0 752.000000 752.000000"
 preserveAspectRatio="xMidYMid meet">
<metadata>
Created by potrace 1.14, written by Peter Selinger 2001-2017
</metadata>
<g transform="translate(0.000000,752.000000) scale(0.100000,-0.100000)"
fill="#000000" stroke="none">
<path d="M5809 6446 c-2 -2 -42 -7 -89 -10 -47 -4 -94 -9 -105 -11 -11 -2 -41
-7 -66 -10 -171 -20 -603 -125 -680 -165 -21 -11 -102 -34 -111 -32 -5 1 -8
-2 -8 -7 0 -9 -51 -25 -66 -21 -4 1 -10 -3 -13 -8 -3 -5 -40 -24 -81 -42 -88
-39 -178 -82 -237 -115 -24 -13 -43 -21 -43 -18 0 2 -7 -3 -16 -11 -8 -9 -22
-16 -30 -16 -8 0 -14 -5 -14 -12 0 -6 -3 -9 -6 -5 -4 3 -13 -1 -21 -9 -8 -8
-19 -12 -24 -9 -5 4 -9 2 -9 -3 0 -10 -93 -69 -97 -61 -1 2 -8 -3 -15 -12 -7
-9 -29 -25 -48 -35 -19 -11 -46 -29 -60 -42 -14 -12 -32 -20 -40 -17 -8 4 -11
3 -8 -1 6 -6 -165 -144 -178 -144 -3 0 -15 -11 -28 -25 -13 -14 -26 -25 -30
-25 -4 0 -20 -14 -36 -30 -17 -17 -30 -29 -30 -27 0 4 -41 -33 -146 -133 -23
-21 -45 -36 -48 -33 -3 4 -6 1 -6 -5 0 -6 -28 -40 -62 -75 -60 -61 -65 -64
-103 -61 -86 8 -201 16 -220 15 -11 0 -23 5 -27 12 -6 9 -8 9 -8 0 0 -14 -68
-15 -76 -1 -3 5 -11 5 -17 0 -7 -5 -53 -9 -103 -10 -50 -1 -109 -4 -130 -8
-21 -3 -64 -6 -95 -7 -32 -1 -54 -6 -51 -11 3 -5 -2 -7 -11 -3 -9 3 -19 2 -22
-3 -4 -6 -17 -10 -31 -10 -13 0 -57 -12 -97 -26 -39 -14 -78 -26 -84 -27 -7 0
-13 -3 -13 -7 0 -3 -19 -17 -43 -30 -23 -13 -59 -42 -80 -64 -21 -23 -43 -40
-48 -38 -6 1 -8 -2 -4 -8 3 -5 1 -15 -4 -22 -42 -52 -83 -111 -107 -153 -22
-41 -39 -70 -44 -75 -3 -3 -14 -23 -25 -45 -10 -22 -26 -48 -35 -59 -8 -10
-14 -20 -13 -22 4 -7 -49 -119 -59 -125 -5 -3 -9 -9 -8 -13 4 -13 -42 -116
-52 -116 -5 0 -6 -4 -3 -10 3 -5 -4 -27 -15 -50 -11 -22 -17 -40 -14 -40 4 0
-1 -8 -10 -19 -9 -10 -16 -22 -15 -27 2 -5 -2 -20 -8 -34 -19 -41 -26 -65 -25
-72 1 -5 -2 -8 -6 -8 -4 0 -8 -10 -9 -22 -1 -11 -7 -24 -13 -28 -7 -4 -11 -11
-10 -16 1 -8 -13 -49 -37 -114 -19 -48 -17 -50 53 -45 37 2 69 7 72 10 3 2 12
-1 20 -8 13 -10 14 -9 7 2 -6 11 -4 13 7 8 9 -3 19 -3 22 0 3 4 21 7 38 8 18
1 62 6 98 10 36 5 84 9 107 9 24 0 43 3 43 6 0 4 15 7 33 7 17 1 57 4 87 7 30
4 75 9 100 11 25 3 59 6 75 9 59 8 161 19 190 21 17 1 32 3 35 5 3 1 28 3 55
5 28 2 50 4 50 5 0 1 19 3 42 5 44 4 45 2 25 -48 -7 -16 -12 -32 -12 -36 0 -5
-7 -14 -15 -21 -8 -7 -13 -16 -10 -20 3 -4 -2 -20 -10 -36 -12 -25 -35 -78
-40 -94 -8 -24 -27 -68 -35 -82 -6 -10 -10 -25 -10 -33 0 -10 -5 -13 -12 -9
-6 4 -8 3 -5 -3 4 -6 -1 -30 -11 -54 l-18 -42 233 -234 c128 -128 238 -233
245 -233 6 0 9 -3 6 -6 -4 -3 106 -118 242 -255 192 -191 253 -247 267 -242
10 3 37 14 61 25 23 10 48 16 54 12 6 -4 8 -3 5 3 -3 5 11 16 31 25 53 22 106
43 112 43 3 1 23 9 45 19 22 10 45 19 50 20 6 2 30 12 55 24 41 19 67 21 56 3
-6 -9 -20 -121 -30 -231 -2 -19 -4 -35 -5 -35 -1 0 -4 -29 -7 -65 -2 -36 -6
-74 -8 -85 -3 -11 -5 -35 -5 -53 -1 -18 -5 -31 -9 -28 -5 3 -9 -1 -9 -9 0 -8
4 -12 9 -9 4 3 4 -10 1 -28 -4 -18 -8 -45 -8 -60 0 -16 -2 -28 -5 -28 -3 0 -4
-17 -4 -37 1 -21 -1 -42 -3 -46 -3 -5 -7 -34 -9 -65 -4 -53 -11 -117 -14 -117
0 0 -3 -22 -5 -50 -2 -27 -7 -75 -11 -105 -10 -86 -12 -120 -4 -120 4 0 33 9
66 20 32 12 64 22 69 23 6 1 15 5 20 9 6 4 40 16 75 29 36 12 71 26 78 32 6 5
12 6 12 2 0 -4 10 -1 23 7 12 8 45 22 72 32 28 10 54 23 59 27 6 5 18 9 28 9
10 0 18 5 18 12 0 6 3 8 6 5 4 -3 16 -1 28 5 11 7 23 13 26 14 3 1 15 5 28 9
12 4 22 11 22 16 0 5 4 9 10 9 12 0 123 50 130 59 3 3 32 19 65 36 33 16 87
46 120 67 85 54 96 61 111 76 8 7 14 11 14 9 0 -3 16 10 37 29 20 18 40 31 44
28 5 -3 6 2 3 10 -4 11 0 16 10 16 9 0 16 7 16 15 0 7 6 18 13 22 13 8 71 122
82 161 4 12 11 20 16 17 5 -3 6 0 3 8 -2 7 0 34 6 58 18 72 20 84 22 122 2 20
5 37 8 37 21 0 16 615 -4 649 -4 5 -2 12 3 15 5 3 8 14 6 24 -2 11 22 40 69
82 40 36 81 77 92 92 10 16 25 28 33 28 8 0 12 2 9 6 -8 7 62 80 74 76 5 -1 7
2 4 6 -3 5 4 20 17 34 12 13 36 41 52 62 17 22 35 44 40 50 6 6 26 32 45 56
19 25 38 47 42 48 4 2 8 10 8 17 0 7 3 15 8 17 4 2 20 22 36 45 16 24 33 40
39 36 6 -3 7 -1 3 5 -9 15 18 55 29 44 5 -4 5 -2 2 5 -4 6 0 18 8 26 8 9 15
18 15 21 0 5 68 115 87 142 9 11 31 52 72 129 15 28 31 57 36 65 5 8 10 21 11
28 2 8 9 21 18 30 8 10 15 20 15 24 1 5 15 38 32 75 24 52 89 204 111 261 2 4
5 6 8 5 3 -1 6 15 7 34 1 20 8 40 15 44 7 5 9 9 4 9 -5 0 -3 7 4 15 7 8 10 15
7 15 -3 0 3 28 14 63 25 82 70 247 74 272 2 11 8 43 14 70 31 145 52 293 66
470 15 190 5 507 -19 612 -8 34 -17 38 -114 50 -47 6 -518 14 -523 9z m-734
-1031 c22 -4 45 -10 50 -14 6 -3 15 -6 22 -7 19 -3 115 -61 143 -86 67 -61
125 -159 146 -248 10 -42 10 -58 1 -69 -9 -12 -9 -13 1 -7 12 7 11 -50 -3
-129 -10 -57 -70 -159 -125 -215 -58 -57 -141 -106 -161 -94 -8 4 -9 3 -5 -4
7 -12 6 -13 -30 -17 -12 -1 -26 -5 -32 -9 -9 -5 -48 -6 -164 -5 -10 0 -18 4
-18 8 0 4 -10 7 -22 6 -13 -1 -27 1 -33 5 -5 4 -21 11 -35 15 -33 10 -126 79
-167 125 -40 44 -86 127 -78 140 3 5 2 10 -3 10 -14 0 -22 35 -28 124 -5 60
-3 81 7 87 9 5 10 9 2 9 -8 0 -7 12 3 43 30 94 42 120 77 159 21 23 37 44 37
47 1 10 86 71 98 71 7 0 12 4 12 8 0 12 68 34 81 26 8 -4 9 -3 5 4 -4 7 -1 12
6 13 33 2 58 6 62 10 7 6 106 2 151 -6z"/>
<path d="M4953 5385 c0 -8 4 -12 9 -9 5 3 6 10 3 15 -9 13 -12 11 -12 -6z"/>
<path d="M4070 6319 c0 -5 5 -7 10 -4 6 3 10 8 10 11 0 2 -4 4 -10 4 -5 0 -10
-5 -10 -11z"/>
<path d="M4146 6242 c-3 -5 1 -9 9 -9 8 0 12 4 9 9 -3 4 -7 8 -9 8 -2 0 -6 -4
-9 -8z"/>
<path d="M4395 6169 c-4 -6 -5 -12 -2 -15 2 -3 7 2 10 11 7 17 1 20 -8 4z"/>
<path d="M4235 6160 c-3 -5 -1 -10 4 -10 6 0 11 5 11 10 0 6 -2 10 -4 10 -3 0
-8 -4 -11 -10z"/>
<path d="M2070 5680 c0 -5 5 -10 11 -10 5 0 7 5 4 10 -3 6 -8 10 -11 10 -2 0
-4 -4 -4 -10z"/>
<path d="M3595 5680 c-3 -5 -1 -10 4 -10 6 0 11 5 11 10 0 6 -2 10 -4 10 -3 0
-8 -4 -11 -10z"/>
<path d="M1056 4158 c3 -5 10 -6 15 -3 13 9 11 12 -6 12 -8 0 -12 -4 -9 -9z"/>
<path d="M1595 4111 c-3 -5 -2 -12 3 -15 5 -3 9 1 9 9 0 17 -3 19 -12 6z"/>
<path d="M2633 3915 c0 -8 4 -12 9 -9 5 3 6 10 3 15 -9 13 -12 11 -12 -6z"/>
<path d="M2075 3840 c-3 -5 -1 -10 4 -10 6 0 11 5 11 10 0 6 -2 10 -4 10 -3 0
-8 -4 -11 -10z"/>
<path d="M1995 3760 c-3 -5 -1 -10 4 -10 6 0 11 5 11 10 0 6 -2 10 -4 10 -3 0
-8 -4 -11 -10z"/>
<path d="M2150 3760 c0 -5 5 -10 11 -10 5 0 7 5 4 10 -3 6 -8 10 -11 10 -2 0
-4 -4 -4 -10z"/>
<path d="M1675 3280 c-3 -5 -1 -10 4 -10 6 0 11 5 11 10 0 6 -2 10 -4 10 -3 0
-8 -4 -11 -10z"/>
<path d="M1835 3280 c-3 -5 -1 -10 4 -10 6 0 11 5 11 10 0 6 -2 10 -4 10 -3 0
-8 -4 -11 -10z"/>
<path d="M2439 3286 c-2 -3 -16 -7 -31 -10 -15 -2 -46 -13 -70 -24 -24 -10
-47 -19 -51 -20 -28 -4 -163 -174 -171 -216 -1 -6 -11 -29 -21 -51 -10 -22
-19 -47 -20 -55 -2 -8 -5 -24 -8 -35 -5 -23 -18 -97 -24 -140 -8 -57 -10 -350
-3 -376 4 -14 3 -34 -2 -44 -7 -11 -7 -15 -1 -12 9 6 15 -38 17 -125 1 -20 4
-34 9 -31 6 4 12 -37 8 -60 -3 -17 28 -36 70 -41 24 -3 62 -9 84 -12 22 -4 52
-8 68 -8 15 -1 27 -3 27 -6 0 -3 69 -6 153 -7 83 -2 154 -3 157 -4 3 -1 10 0
15 1 6 2 35 4 65 6 30 1 55 3 55 4 0 1 14 4 30 5 59 6 162 34 228 63 26 11 47
19 47 16 0 -3 6 0 13 6 6 5 37 28 67 50 75 55 141 157 153 238 3 19 8 36 11
39 2 3 -27 37 -66 77 -44 43 -73 66 -76 58 -12 -36 -132 -118 -158 -108 -9 3
-12 1 -9 -4 6 -10 3 -11 -32 -14 -10 -1 -23 -4 -29 -8 -12 -8 -195 -4 -234 5
-77 18 -117 32 -131 44 -9 7 -18 10 -21 7 -4 -3 -16 0 -28 6 -12 6 -19 14 -16
17 3 3 -1 21 -9 40 -8 19 -12 39 -9 44 3 5 1 9 -5 9 -8 0 -18 36 -28 110 -9
60 -10 191 -2 195 4 3 6 12 3 19 -3 8 -1 17 5 20 6 4 8 13 5 20 -3 8 0 17 5
21 6 3 9 11 6 16 -4 5 1 12 9 15 9 3 14 10 11 14 -7 12 49 84 78 99 l26 14
-69 69 c-63 61 -88 77 -101 64z"/>
<path d="M1835 3120 c3 -5 8 -10 11 -10 2 0 4 5 4 10 0 6 -5 10 -11 10 -5 0
-7 -4 -4 -10z"/>
<path d="M1444 3042 c4 -3 14 -7 22 -8 9 -1 13 0 10 4 -4 3 -14 7 -22 8 -9 1
-13 0 -10 -4z"/>
<path d="M1753 3035 c0 -8 4 -12 9 -9 4 3 8 9 8 15 0 5 -4 9 -8 9 -5 0 -9 -7
-9 -15z"/>
<path d="M5835 2960 c-3 -5 -1 -10 4 -10 6 0 11 5 11 10 0 6 -2 10 -4 10 -3 0
-8 -4 -11 -10z"/>
<path d="M5995 2960 c-3 -5 -1 -10 4 -10 6 0 11 5 11 10 0 6 -2 10 -4 10 -3 0
-8 -4 -11 -10z"/>
<path d="M6496 2878 c3 -5 10 -6 15 -3 13 9 11 12 -6 12 -8 0 -12 -4 -9 -9z"/>
<path d="M1113 2815 c0 -8 4 -12 9 -9 5 3 6 10 3 15 -9 13 -12 11 -12 -6z"/>
<path d="M5995 2800 c3 -5 8 -10 11 -10 2 0 4 5 4 10 0 6 -5 10 -11 10 -5 0
-7 -4 -4 -10z"/>
<path d="M6150 2800 c0 -5 5 -10 11 -10 5 0 7 5 4 10 -3 6 -8 10 -11 10 -2 0
-4 -4 -4 -10z"/>
<path d="M1915 2741 c-3 -5 -2 -12 3 -15 5 -3 9 1 9 9 0 17 -3 19 -12 6z"/>
<path d="M2640 2720 c-9 -6 -10 -10 -3 -10 6 0 15 5 18 10 8 12 4 12 -15 0z"/>
<path d="M2800 2720 c-9 -6 -10 -10 -3 -10 6 0 15 5 18 10 8 12 4 12 -15 0z"/>
<path d="M5910 2719 c0 -5 5 -7 10 -4 6 3 10 8 10 11 0 2 -4 4 -10 4 -5 0 -10
-5 -10 -11z"/>
<path d="M1995 2649 c-4 -6 -5 -12 -2 -15 2 -3 7 2 10 11 7 17 1 20 -8 4z"/>
<path d="M2790 2559 c0 -5 5 -7 10 -4 6 3 10 8 10 11 0 2 -4 4 -10 4 -5 0 -10
-5 -10 -11z"/>
<path d="M6229 2323 c-13 -16 -12 -17 4 -4 16 13 21 21 13 21 -2 0 -10 -8 -17
-17z"/>
<path d="M5756 2313 c-6 -14 -5 -15 5 -6 7 7 10 15 7 18 -3 3 -9 -2 -12 -12z"/>
<path d="M5910 2319 c0 -5 5 -7 10 -4 6 3 10 8 10 11 0 2 -4 4 -10 4 -5 0 -10
-5 -10 -11z"/>
<path d="M5997 2253 c-10 -9 -9 -23 1 -23 5 0 9 7 9 15 0 17 -1 18 -10 8z"/>
<path d="M5756 2153 c-6 -14 -5 -15 5 -6 7 7 10 15 7 18 -3 3 -9 -2 -12 -12z"/>
<path d="M5910 2160 c0 -5 5 -10 11 -10 5 0 7 5 4 10 -3 6 -8 10 -11 10 -2 0
-4 -4 -4 -10z"/>
<path d="M5360 2080 c-9 -6 -10 -10 -3 -10 6 0 15 5 18 10 8 12 4 12 -15 0z"/>
<path d="M5990 2080 c0 -5 5 -10 10 -10 6 0 10 5 10 10 0 6 -4 10 -10 10 -5 0
-10 -4 -10 -10z"/>
<path d="M3346 1998 c3 -4 9 -8 15 -8 5 0 9 4 9 8 0 5 -7 9 -15 9 -8 0 -12 -4
-9 -9z"/>
<path d="M3510 2000 c0 -5 5 -10 10 -10 6 0 10 5 10 10 0 6 -4 10 -10 10 -5 0
-10 -4 -10 -10z"/>
<path d="M3670 2001 c0 -6 4 -13 10 -16 6 -3 7 1 4 9 -7 18 -14 21 -14 7z"/>
<path d="M5595 2000 c3 -5 8 -10 11 -10 2 0 4 5 4 10 0 6 -5 10 -11 10 -5 0
-7 -4 -4 -10z"/>
<path d="M5744 2002 c4 -3 14 -7 22 -8 9 -1 13 0 10 4 -4 3 -14 7 -22 8 -9 1
-13 0 -10 -4z"/>
<path d="M5513 1925 c0 -8 4 -15 9 -15 4 0 8 4 8 9 0 6 -4 12 -8 15 -5 3 -9
-1 -9 -9z"/>
<path d="M3270 1920 c0 -5 5 -10 11 -10 5 0 7 5 4 10 -3 6 -8 10 -11 10 -2 0
-4 -4 -4 -10z"/>
<path d="M3435 1920 c-3 -5 -1 -10 4 -10 6 0 11 5 11 10 0 6 -2 10 -4 10 -3 0
-8 -4 -11 -10z"/>
<path d="M3595 1920 c-3 -5 -1 -10 4 -10 6 0 11 5 11 10 0 6 -2 10 -4 10 -3 0
-8 -4 -11 -10z"/>
<path d="M5350 1919 c0 -5 5 -7 10 -4 6 3 10 8 10 11 0 2 -4 4 -10 4 -5 0 -10
-5 -10 -11z"/>
<path d="M5755 1849 c-4 -6 -5 -12 -2 -15 2 -3 7 2 10 11 7 17 1 20 -8 4z"/>
<path d="M5266 1842 c-3 -5 1 -9 9 -9 8 0 15 4 15 9 0 4 -4 8 -9 8 -6 0 -12
-4 -15 -8z"/>
<path d="M5430 1840 c0 -5 5 -10 11 -10 5 0 7 5 4 10 -3 6 -8 10 -11 10 -2 0
-4 -4 -4 -10z"/>
<path d="M5595 1840 c3 -5 8 -10 11 -10 2 0 4 5 4 10 0 6 -5 10 -11 10 -5 0
-7 -4 -4 -10z"/>
<path d="M3594 1769 c-3 -6 -2 -15 3 -20 5 -5 9 -1 9 11 0 23 -2 24 -12 9z"/>
<path d="M3754 1769 c-3 -6 -2 -15 3 -20 5 -5 9 -1 9 11 0 23 -2 24 -12 9z"/>
<path d="M3273 1755 c0 -8 4 -12 9 -9 4 3 8 9 8 15 0 5 -4 9 -8 9 -5 0 -9 -7
-9 -15z"/>
<path d="M3430 1760 c0 -5 5 -10 10 -10 6 0 10 5 10 10 0 6 -4 10 -10 10 -5 0
-10 -4 -10 -10z"/>
<path d="M4555 1680 c3 -5 8 -10 11 -10 2 0 4 5 4 10 0 6 -5 10 -11 10 -5 0
-7 -4 -4 -10z"/>
<path d="M4710 1680 c0 -5 5 -10 11 -10 5 0 7 5 4 10 -3 6 -8 10 -11 10 -2 0
-4 -4 -4 -10z"/>
<path d="M3270 1599 c0 -5 5 -7 10 -4 6 3 10 8 10 11 0 2 -4 4 -10 4 -5 0 -10
-5 -10 -11z"/>
<path d="M3430 1599 c0 -5 5 -7 10 -4 6 3 10 8 10 11 0 2 -4 4 -10 4 -5 0 -10
-5 -10 -11z"/>
<path d="M3595 1600 c3 -5 8 -10 11 -10 2 0 4 5 4 10 0 6 -5 10 -11 10 -5 0
-7 -4 -4 -10z"/>
<path d="M4630 1599 c0 -5 5 -7 10 -4 6 3 10 8 10 11 0 2 -4 4 -10 4 -5 0 -10
-5 -10 -11z"/>
<path d="M3675 1529 c-4 -6 -5 -12 -2 -15 2 -3 7 2 10 11 7 17 1 20 -8 4z"/>
<path d="M3346 1522 c-3 -5 1 -9 9 -9 8 0 15 4 15 9 0 4 -4 8 -9 8 -6 0 -12
-4 -15 -8z"/>
<path d="M3510 1520 c0 -5 5 -10 10 -10 6 0 10 5 10 10 0 6 -4 10 -10 10 -5 0
-10 -4 -10 -10z"/>
<path d="M4710 1519 c0 -5 5 -7 10 -4 6 3 10 8 10 11 0 2 -4 4 -10 4 -5 0 -10
-5 -10 -11z"/>
<path d="M2470 1360 c0 -5 5 -10 11 -10 5 0 7 5 4 10 -3 6 -8 10 -11 10 -2 0
-4 -4 -4 -10z"/>
<path d="M2470 1200 c0 -5 5 -10 11 -10 5 0 7 5 4 10 -3 6 -8 10 -11 10 -2 0
-4 -4 -4 -10z"/>
<path d="M4639 1138 c-5 -18 -6 -38 -1 -34 7 8 12 36 6 36 -2 0 -4 -1 -5 -2z"/>
<path d="M2553 1115 c0 -8 4 -12 9 -9 5 3 6 10 3 15 -9 13 -12 11 -12 -6z"/>
<path d="M2630 1046 c0 -2 7 -7 16 -10 8 -3 12 -2 9 4 -6 10 -25 14 -25 6z"/>
<path d="M2795 1040 c3 -5 8 -10 11 -10 2 0 4 5 4 10 0 6 -5 10 -11 10 -5 0
-7 -4 -4 -10z"/>
<path d="M2950 1039 c0 -5 5 -7 10 -4 6 3 10 8 10 11 0 2 -4 4 -10 4 -5 0 -10
-5 -10 -11z"/>
<path d="M2870 959 c0 -5 5 -7 10 -4 6 3 10 8 10 11 0 2 -4 4 -10 4 -5 0 -10
-5 -10 -11z"/>
</g>
</svg>
