<svg version="1" xmlns="http://www.w3.org/2000/svg" width="896" height="896" viewBox="0 0 672.000000 672.000000"><path d="M166.7 57.7c-.2.5-37.2 63.9-82.1 141C39.7 275.8 3 339.3 3 339.9c0 .5 26.8 47 59.6 103.3s69.7 119.7 82.1 141.1l22.6 38.7 165.1-.2 165-.3 82.3-141.3L662 339.9l-82.3-141.4-82.2-141.4H332.3c-90.8-.1-165.4.2-165.6.6zm311.6 71.1c1.4 1.6 1.4 6.1-.8 54.2-1.3 28.9-2.9 56.1-3.5 60.4-1.4 9.6-5 22.3-9.2 32.5-1.8 4.2-23.5 41.5-48.4 82.8l-45.3 75.2 7 16.7c3.8 9.1 6.9 17.1 6.8 17.7-.1 1.5-22.3 41.2-23 41.2-.4 0-21.7-15.5-47.5-34.4-30-21.9-46.9-34.9-46.8-36 0-.9 10.3-16.7 22.9-35.1 12.5-18.4 23.7-34.9 24.8-36.5 1.8-2.6 1.4-2.5-2.4 1.1-8.5 7.8-65.6 62-86.7 82.3-11.7 11.2-21.4 20.2-21.7 20-.2-.3 4.1-14.1 9.6-30.9 5.4-16.7 9.6-30.7 9.2-31.1-.5-.4-12.3-9.2-26.3-19.4-14-10.3-25.5-19.1-25.5-19.5 0-.5 6.5-9 14.5-19l14.5-18 4 .5c2.2.2 10.3.7 18.1 1.1l14.1.7 51.9-68.4c28.5-37.5 54.8-71.2 58.4-74.9 7.3-7.4 15.5-13.8 24.9-19.6 5.7-3.4 100.9-45.1 103.7-45.3.6-.1 1.8.7 2.7 1.7zM282.1 464.7l14.9 10.8-2.3 2.1c-3.7 3.6-107.9 87.5-108.2 87.2-.6-.6 78.6-110.8 79.6-110.8.6 0 7.8 4.8 16 10.7z"/></svg>