<svg version="1" xmlns="http://www.w3.org/2000/svg" width="981.333" height="981.333" viewBox="0 0 736.000000 736.000000"><path d="M202.3 62c-5.8 1.2-11.3 4.2-15.7 8.7C183 74.3 24.1 344.6 18.2 357c-3.5 7.6-3.6 17.4 0 25 1.4 3 38.8 67.6 83.1 143.5 56 95.9 82 139.5 85.1 142.8 2.5 2.6 6.7 5.8 9.3 7l4.8 2.2 168.7.3 168.7.2 5.8-2.2c3.7-1.3 7.5-3.8 10.5-6.7 3.7-3.6 21.8-34 86.5-144.6 44.9-77 82.5-142.3 83.5-145 2.2-6.4 2.2-13.7 0-20-1.8-4.9-162-279.8-166.8-286.2-1.4-1.8-4.4-4.6-6.8-6.3-9.3-6.3.3-6-180.1-5.9-90.2.1-165.9.5-168.2.9zm328.1 77.6c.9.8 1.6 2.8 1.6 4.4 0 6.7-5 111.9-5.6 116-2.1 16.8-7.7 35.1-14.8 48.5-2.3 4.4-25.2 42.8-50.9 85.3S414 471.7 414 472.4c0 .7 3.4 9.4 7.5 19.2l7.5 17.9-11 19.7c-14.7 26.2-14.4 25.8-15 25.7-1.9-.2-103.5-75.9-103.4-77 .1-.8 11.9-18.7 26.2-39.7 14.4-21.1 26.5-38.9 26.9-39.5.8-1.5-1.1.3-66.1 61.8-30.1 28.6-55.2 52.1-55.6 52.3-.4.2 3.9-14 9.6-31.5 5.7-17.5 10.7-32.8 11-33.9.5-1.9-3.3-5-28.5-23.4-18.5-13.5-28.8-21.6-28.4-22.3 1.2-1.9 31.3-38.6 32.1-39.1.7-.4 24.6.9 33.8 1.9l5.2.5 57.1-74.8c66.2-86.8 68.8-89.8 93.2-104.3 6.2-3.7 108.5-47.7 111.1-47.8.9-.1 2.4.6 3.2 1.5zM316.3 505.8c8.7 6.3 15.7 11.8 15.5 12.2-.3.7-118 95.8-120.8 97.5-1.9 1.2-3.3 3.2 39.9-57 50-69.8 47-65.7 48.4-64.8.7.4 8.3 5.8 17 12.1z"/></svg>