<svg width="93" height="94" viewBox="0 0 93 94" fill="none" xmlns="http://www.w3.org/2000/svg">
<path d="M44.4915 35.4375H73.4767V81.6875H44.4915C38.2342 81.6875 33.1641 76.5114 33.1641 70.1327V47C33.1641 40.6098 38.2342 35.4375 44.4915 35.4375Z" fill="#FFCC80"/>
<path d="M65.7704 41.2188C65.7704 44.41 68.3585 47 71.5516 47H77.3329C80.5261 47 83.1141 44.41 83.1141 41.2188C83.1141 38.0275 80.5261 35.4375 77.3329 35.4375H71.5516C68.3585 35.4375 65.7704 38.0275 65.7704 41.2188ZM59.9891 52.7812C59.9891 55.9725 62.5772 58.5625 65.7704 58.5625H77.3329C80.5261 58.5625 83.1141 55.9725 83.1141 52.7812C83.1141 49.59 80.5261 47 77.3329 47H65.7704C62.5772 47 59.9891 49.59 59.9891 52.7812ZM58.0621 64.3438C58.0621 67.535 60.6501 70.125 63.8433 70.125H75.4058C78.599 70.125 81.1871 67.535 81.1871 64.3438C81.1871 61.1525 78.599 58.5625 75.4058 58.5625H63.8433C60.6501 58.5625 58.0621 61.1525 58.0621 64.3438ZM56.135 75.9062C56.135 79.0975 58.723 81.6875 61.9162 81.6875H73.4787C76.6719 81.6875 79.26 79.0975 79.26 75.9062C79.26 72.715 76.6719 70.125 73.4787 70.125H61.9162C58.723 70.125 56.135 72.715 56.135 75.9062ZM47.5132 26.8928C49.2977 24.906 50.5618 22.5048 51.2055 19.8956L52.6007 14.201C52.8705 13.0872 53.8514 12.3125 54.9729 12.3125H56.2737C59.7059 12.3125 61.9933 16.1667 61.9933 18.6584V21.3428C61.9933 26.7926 61.1203 32.1518 58.4995 36.8982L53.439 46.075L37.6504 37.8541L47.5132 26.8928Z" fill="#FFCC80"/>
<path d="M79.2591 47H71.5508C70.487 47 69.6237 47.8614 69.6237 48.9271C69.6237 49.9928 70.487 50.8542 71.5508 50.8542L79.2591 47ZM77.332 58.5625H69.6237C68.5599 58.5625 67.6966 59.4239 67.6966 60.4896C67.6966 61.5553 68.5599 62.4167 69.6237 62.4167L77.332 58.5625ZM75.4049 70.125H67.6966C66.6329 70.125 65.7695 70.9864 65.7695 72.0521C65.7695 73.1178 66.6329 73.9792 67.6966 73.9792L75.4049 70.125Z" fill="#F2A25A"/>
<path d="M34.9368 79.7604H15.666L9.88477 37.3646H34.9368V79.7604Z" fill="#6B67E9"/>
<path d="M25.3014 66.2708C24.2792 66.2708 23.2989 66.6769 22.5761 67.3997C21.8533 68.1225 21.4473 69.1028 21.4473 70.125C21.4473 71.1472 21.8533 72.1275 22.5761 72.8503C23.2989 73.5731 24.2792 73.9791 25.3014 73.9791C26.3236 73.9791 27.3039 73.5731 28.0267 72.8503C28.7495 72.1275 29.1556 71.1472 29.1556 70.125C29.1556 69.1028 28.7495 68.1225 28.0267 67.3997C27.3039 66.6769 26.3236 66.2708 25.3014 66.2708Z" fill="#F3E5F5"/>
</svg>
