<svg width="193" height="150" viewBox="0 0 193 150" fill="none" xmlns="http://www.w3.org/2000/svg">
<g clip-path="url(#clip0_1257_33417)">
<path fill-rule="evenodd" clip-rule="evenodd" d="M191.993 147.728H0.727195C0.392671 147.728 0.101311 147.98 0.078365 148.313C0.0559889 148.679 0.34519 148.984 0.705613 148.984H191.993C192.339 148.984 192.621 148.702 192.621 148.356C192.621 148.008 192.339 147.728 191.993 147.728Z" fill="#363636"/>
<path fill-rule="evenodd" clip-rule="evenodd" d="M71.1175 27.2396C65.8752 29.4368 59.8225 26.9592 57.6254 21.7166C55.4284 16.4741 57.906 10.4214 63.1483 8.2242C68.3906 6.02692 74.4433 8.50445 76.6404 13.7471C78.8375 18.9896 76.3598 25.0423 71.1175 27.2396Z" fill="#361989"/>
<path fill-rule="evenodd" clip-rule="evenodd" d="M71.0136 26.9922C65.9072 29.1322 60.0121 26.7191 57.8722 21.6131C55.7323 16.5071 58.1452 10.6119 63.2515 8.47191C68.3579 6.33182 74.2531 8.74481 76.3929 13.8509C78.5328 18.9571 76.1199 24.8522 71.0136 26.9922Z" fill="#6B67E9"/>
<path fill-rule="evenodd" clip-rule="evenodd" d="M74.7134 14.6062C76.4637 18.7826 74.4965 23.587 70.3203 25.3373C66.1442 27.0876 61.34 25.121 59.5897 20.9448C57.8393 16.7684 59.8055 11.964 63.9827 10.2136C68.1589 8.46336 72.9631 10.4299 74.7134 14.6062Z" fill="white"/>
<path fill-rule="evenodd" clip-rule="evenodd" d="M70.1392 24.9041C66.1864 26.5606 61.6239 24.6927 59.9675 20.7402C58.3111 16.7878 60.1779 12.2247 64.1307 10.568C68.0835 8.91147 72.647 10.7793 74.3035 14.7319C75.9599 18.6843 74.092 23.2475 70.1392 24.9041Z" fill="white"/>
<path fill-rule="evenodd" clip-rule="evenodd" d="M60.7711 19.9531L59.488 20.491C59.2765 20.5795 59.1773 20.8228 59.2657 21.0337C59.3542 21.2446 59.597 21.3442 59.8085 21.2557L61.0916 20.7179C61.3031 20.6295 61.4024 20.3861 61.3139 20.1752C61.2254 19.9644 60.9826 19.8648 60.7711 19.9531Z" fill="#8224E3"/>
<path fill-rule="evenodd" clip-rule="evenodd" d="M69.574 23.5567C69.3625 23.645 69.2632 23.8884 69.3517 24.0993L69.8891 25.3827C69.9776 25.5936 70.2214 25.6932 70.4319 25.6048C70.6434 25.5165 70.7427 25.2731 70.6542 25.0622L70.1168 23.7787C70.0283 23.5679 69.7844 23.4683 69.574 23.5567Z" fill="#8224E3"/>
<path fill-rule="evenodd" clip-rule="evenodd" d="M74.4604 14.2158L73.1773 14.7537C72.9669 14.8421 72.8666 15.0855 72.955 15.2963C73.0435 15.5073 73.2874 15.6068 73.4978 15.5185L74.782 14.9806C74.9924 14.8922 75.0917 14.6488 75.0032 14.4379C74.9147 14.2271 74.6719 14.1275 74.4604 14.2158Z" fill="#8224E3"/>
<path fill-rule="evenodd" clip-rule="evenodd" d="M63.8365 9.8672C63.6261 9.95558 63.5257 10.199 63.6142 10.4099L64.1527 11.6933C64.2401 11.9042 64.484 12.0037 64.6944 11.9153C64.9059 11.827 65.0052 11.5836 64.9167 11.3728L64.3793 10.0893C64.2908 9.87842 64.0469 9.77882 63.8365 9.8672Z" fill="#8224E3"/>
<path fill-rule="evenodd" clip-rule="evenodd" d="M66.7202 6.37655L66.8346 4.74893C66.8443 4.61534 66.9598 4.51466 67.0936 4.52404L68.9605 4.65526C69.0943 4.66465 69.1946 4.78055 69.186 4.91414L69.0716 6.54176C69.0619 6.67546 68.9464 6.77615 68.8126 6.76676L66.9458 6.63565C66.812 6.62615 66.7116 6.51015 66.7202 6.37655Z" fill="#6B67E9"/>
<path fill-rule="evenodd" clip-rule="evenodd" d="M59.4377 9.47319L58.1967 8.41351C58.0952 8.32664 57.942 8.33862 57.8546 8.44049L56.6395 9.86362C56.5521 9.96548 56.564 10.1185 56.6665 10.2054L57.9064 11.2651C58.0089 11.3521 58.1622 11.3401 58.2485 11.2382L59.4646 9.81527C59.551 9.7134 59.5391 9.56028 59.4377 9.47319Z" fill="#6B67E9"/>
<path fill-rule="evenodd" clip-rule="evenodd" d="M61.4368 6.8054C61.317 6.85569 61.1789 6.79903 61.1281 6.67882L60.6749 5.59561C60.6242 5.4754 60.6803 5.33695 60.8012 5.28666L63.0112 4.36014C63.131 4.30985 63.2702 4.36651 63.3198 4.48672L63.7741 5.56993C63.8248 5.69014 63.7676 5.82859 63.6479 5.87888L61.4368 6.8054Z" fill="#6B67E9"/>
<path fill-rule="evenodd" clip-rule="evenodd" d="M62.0179 7.19604C60.9409 7.27795 59.8845 6.67321 59.4431 5.62151C58.8928 4.30716 59.5111 2.79522 60.8254 2.24433C62.1398 1.69345 63.6516 2.31243 64.2031 3.62667C64.6433 4.67859 64.3347 5.85676 63.52 6.56789L63.766 7.15514C64.8872 6.29401 65.3383 4.75391 64.7664 3.39046C64.0865 1.76748 62.2121 1.00044 60.5891 1.68071C58.9661 2.36088 58.2 4.23464 58.8798 5.85762C59.4507 7.22119 60.8654 7.9798 62.265 7.78437L62.0179 7.19604Z" fill="#6B67E9"/>
<path fill-rule="evenodd" clip-rule="evenodd" d="M63.0682 8.0349C63.3261 7.92677 63.5861 7.82976 63.8473 7.74365L63.1923 6.18066L61.9707 6.69238L62.6182 8.23604C62.766 8.1659 62.916 8.09878 63.0682 8.0349Z" fill="#8224E3"/>
<path fill-rule="evenodd" clip-rule="evenodd" d="M67.8304 17.4278C67.9923 17.813 67.811 18.2561 67.4257 18.4175C67.0405 18.5789 66.5981 18.3975 66.4362 18.0124C66.2743 17.6274 66.4556 17.1842 66.8409 17.0229C67.2261 16.8614 67.6696 17.0427 67.8304 17.4278Z" fill="#8224E3"/>
<path fill-rule="evenodd" clip-rule="evenodd" d="M67.9382 11.5391L67.3987 17.7524C67.3847 17.9088 67.2465 18.0247 67.0901 18.0111C66.9336 17.9975 66.8181 17.8596 66.8311 17.7032C66.8332 17.6785 66.7857 17.9523 67.9382 11.5391Z" fill="#8224E3"/>
<path fill-rule="evenodd" clip-rule="evenodd" d="M72.5982 20.7957L67.0246 17.9968C66.8843 17.9262 66.8282 17.7553 66.8984 17.6149C66.9685 17.4745 67.1401 17.4178 67.2804 17.4883C67.3019 17.4994 67.0656 17.3538 72.5982 20.7957Z" fill="#8224E3"/>
<path fill-rule="evenodd" clip-rule="evenodd" d="M67.418 17.6007C67.4838 17.7581 67.4104 17.9391 67.2528 18.005C67.0953 18.0711 66.914 17.9969 66.8482 17.8396C66.7824 17.6823 66.8568 17.5011 67.0144 17.4353C67.1708 17.3692 67.3521 17.4434 67.418 17.6007Z" fill="#FAE0B2"/>
<path fill-rule="evenodd" clip-rule="evenodd" d="M149.935 63.3811C152.283 62.9071 153.801 60.6196 153.328 58.2718C152.854 55.924 150.566 54.4052 148.218 54.8792C145.871 55.3533 144.352 57.6408 144.825 59.9885C145.3 62.3362 147.588 63.8552 149.935 63.3811ZM149.6 61.72C151.03 61.4313 151.955 60.0376 151.667 58.6071C151.378 57.1768 149.985 56.2514 148.554 56.5402C147.124 56.8291 146.198 58.2228 146.487 59.6531C146.775 61.0835 148.169 62.0089 149.6 61.72ZM143.815 62.3652C143.74 62.2789 143.621 62.2434 143.51 62.2733C142.965 62.4206 141.979 62.2009 141.491 62.0304L140.96 59.4006C141.343 59.0543 142.167 58.469 142.726 58.3934C142.84 58.378 142.936 58.2991 142.973 58.1902L143.645 56.1911C143.681 56.0822 143.652 55.9616 143.571 55.8804C143.171 55.4823 142.868 54.5182 142.772 54.0106L144.784 52.2358C145.275 52.3946 146.195 52.8156 146.539 53.262C146.61 53.353 146.726 53.3963 146.839 53.3735L148.905 52.9562C149.019 52.9334 149.108 52.8484 149.139 52.7372C149.283 52.1918 149.966 51.4474 150.358 51.1104L152.901 51.9653C153.009 52.4705 153.104 53.4766 152.891 53.9987C152.846 54.1051 152.867 54.2274 152.943 54.3136L154.339 55.8951C154.414 55.9813 154.533 56.017 154.644 55.987C155.189 55.8397 156.175 56.0594 156.663 56.2299L157.194 58.8597C156.811 59.2059 155.987 59.7912 155.428 59.8669C155.313 59.8823 155.218 59.9612 155.182 60.0702L154.509 62.069C154.473 62.1781 154.501 62.2988 154.583 62.3799C154.983 62.778 155.285 63.7421 155.381 64.2497L153.37 66.0245C152.878 65.8657 151.959 65.4448 151.614 64.9983C151.544 64.9073 151.427 64.8639 151.315 64.8868L149.248 65.3042C149.135 65.3269 149.045 65.412 149.016 65.523C148.871 66.0684 148.187 66.8129 147.795 67.15L145.253 66.2949C145.145 65.7898 145.05 64.7836 145.263 64.2617C145.307 64.1552 145.286 64.033 145.211 63.9468L143.815 62.3652Z" fill="#363636"/>
<path fill-rule="evenodd" clip-rule="evenodd" d="M161.459 69.2687C160.05 69.5531 158.677 68.6416 158.393 67.2326C158.108 65.8236 159.02 64.4508 160.429 64.1663C161.837 63.8817 163.211 64.7934 163.495 66.2024C163.78 67.6114 162.868 68.9841 161.459 69.2687ZM160.895 71.7796C160.918 71.6916 160.99 71.6242 161.08 71.6062L162.716 71.2757C162.805 71.2576 162.897 71.292 162.953 71.364C163.226 71.7175 163.953 72.0508 164.343 72.1765L165.936 70.7713C165.86 70.3693 165.62 69.6059 165.303 69.2907C165.239 69.2264 165.216 69.131 165.245 69.0445L165.777 67.4618C165.806 67.3756 165.882 67.313 165.972 67.3008C166.415 67.2409 167.068 66.7775 167.371 66.5033L166.95 64.421C166.565 64.286 165.784 64.112 165.352 64.2286C165.265 64.2524 165.17 64.2241 165.11 64.1559L164.005 62.9036C163.945 62.8353 163.929 62.7385 163.963 62.6542C164.133 62.2408 164.058 61.4441 163.972 61.0442L161.958 60.3672C161.648 60.6341 161.107 61.2236 160.992 61.6554C160.969 61.7434 160.897 61.8107 160.809 61.8288L159.172 62.1593C159.082 62.1773 158.991 62.143 158.934 62.0709C158.661 61.7174 157.934 61.3841 157.545 61.2584L155.952 62.6636C156.027 63.0656 156.268 63.8291 156.584 64.1443C156.649 64.2085 156.672 64.304 156.642 64.3903L156.11 65.9732C156.081 66.0594 156.006 66.1219 155.915 66.1342C155.473 66.1939 154.82 66.6574 154.517 66.9316L154.937 69.014C155.323 69.149 156.104 69.3229 156.536 69.2063C156.623 69.1825 156.718 69.2107 156.777 69.279L157.882 70.5313C157.943 70.5996 157.959 70.6964 157.924 70.7807C157.755 71.1941 157.829 71.9908 157.916 72.3907L159.929 73.0679C160.239 72.8008 160.781 72.2114 160.895 71.7796Z" fill="#6B67E9"/>
<path fill-rule="evenodd" clip-rule="evenodd" d="M45.7878 38.6826L43.9685 37.9969L42.3725 39.1066C42.1901 39.233 41.943 39.0961 41.9527 38.875L42.0433 36.9331L40.4948 35.7581C40.3178 35.6242 40.3718 35.3462 40.5854 35.2876L42.4599 34.7732L43.0987 32.9372C43.171 32.7281 43.4526 32.6932 43.5746 32.8782L44.6429 34.5021L46.5864 34.5424C46.8076 34.547 46.9274 34.8035 46.7892 34.9764L45.5752 36.4945L46.1375 38.3554C46.2011 38.5673 45.995 38.7607 45.7878 38.6826Z" fill="#FFC331"/>
<path fill-rule="evenodd" clip-rule="evenodd" d="M48.5698 27.0629L47.5813 24.4082L45.0519 25.1647L43.962 22.5925L41.4563 23.0172L40.3265 21.2256L39.4189 21.7976L40.9308 24.1939L43.3059 23.7914L44.439 26.4671L46.9274 25.7231L47.823 28.1289L48.5698 27.0629Z" fill="url(#paint0_linear_1257_33417)"/>
<path fill-rule="evenodd" clip-rule="evenodd" d="M154.866 39.2847L152.381 37.9238L150.963 40.1507L148.456 38.918L146.838 40.8791L144.812 40.2632L144.5 41.2892L147.211 42.1128L148.744 40.2544L151.351 41.5368L152.747 39.3465L154.998 40.5798L154.866 39.2847Z" fill="#86B1F2"/>
<path fill-rule="evenodd" clip-rule="evenodd" d="M89.3774 5.82961L88.3145 8.45551L90.6906 9.60519L89.7583 12.2382L91.8939 13.617L91.5172 15.7016L92.5726 15.892L93.0766 13.1039L91.0522 11.7973L92.0223 9.05819L89.6849 7.9274L90.6486 5.54785L89.3774 5.82961Z" fill="url(#paint1_linear_1257_33417)"/>
<path fill-rule="evenodd" clip-rule="evenodd" d="M152.021 73.5238L151.499 72.4943L150.322 72.5345L149.818 71.339L148.579 71.7681L147.948 70.4414L146.758 70.6957L145.943 69.5183L146.389 69.21L146.999 70.0903L148.255 69.822L148.86 71.0973L150.121 70.6611L150.676 71.9801L151.826 71.9412L152.31 72.8953L153.059 72.7118L153.189 73.2382L152.021 73.5238Z" fill="#FFC331"/>
<path fill-rule="evenodd" clip-rule="evenodd" d="M130.275 25.8494L129.724 24.2138L132.258 23.0384L131.75 20.5477L133.502 19.3579L132.9 18.4707L130.555 20.0618L131.038 22.4223L128.401 23.6451L129.229 26.1064L130.275 25.8494Z" fill="#363636"/>
<path fill-rule="evenodd" clip-rule="evenodd" d="M150.576 22.0767C153.37 26.3469 149.569 32.2734 144.593 31.3918C143.7 31.2335 142.768 31.4392 141.968 31.9322L139.217 33.6283C138.459 34.0958 137.506 33.8931 137.028 33.1628L135.969 31.5451C135.491 30.8146 135.649 29.8017 136.331 29.2178C138.819 27.0868 139.878 26.4821 140.212 24.6951C141.189 19.468 147.781 17.8057 150.576 22.0767Z" fill="#377DFF"/>
<path fill-rule="evenodd" clip-rule="evenodd" d="M146.289 27.4192C146.623 27.767 147.129 28.0812 147.469 27.7052C147.905 27.2232 147.281 26.8619 146.289 27.4192ZM145.118 22.6071C144.915 22.53 144.375 22.7533 144.592 23.9176C145.199 23.3858 145.383 23.1529 145.118 22.6071ZM144.014 24.4257C143.959 24.1934 143.905 23.9323 143.883 23.6734C143.756 22.1805 144.91 21.6644 145.518 22.0494C145.908 22.2958 146.065 22.8674 145.841 23.4092C145.64 23.8959 145.204 24.2476 144.763 24.6337C145 25.4623 145.372 26.2258 145.869 26.9067C147.23 26.0869 148.202 26.5352 148.266 27.2772C148.305 27.7532 148 28.2444 147.539 28.445C147.264 28.5647 146.552 28.7295 145.708 27.7964C143.412 29.4161 140.414 31.8098 140.404 31.817L140.024 31.2881C140.033 31.2809 143.014 28.9029 145.302 27.2855C144.829 26.6297 144.462 25.9036 144.207 25.121C141.589 27.4059 139.282 29.2124 139.201 29.2777L138.822 28.7476C138.99 28.6117 141.224 26.8714 144.014 24.4257Z" fill="white"/>
<path fill-rule="evenodd" clip-rule="evenodd" d="M142.038 31.893C142.015 31.9067 141.991 31.9182 141.968 31.9324L139.217 33.6286C138.459 34.096 137.506 33.8934 137.028 33.163L135.969 31.5453C135.491 30.8149 135.649 29.8019 136.331 29.218C137.438 28.2699 138.261 27.6243 138.864 27.042L142.038 31.893Z" fill="#377DFF"/>
<path fill-rule="evenodd" clip-rule="evenodd" d="M18.5233 112.055C18.5233 112.055 18.4338 111.617 18.4154 111.47C18.3938 111.297 18.369 110.773 18.369 110.773C18.369 110.773 18.3679 108.945 18.5039 108.956C18.6388 108.967 18.8136 109.281 18.8535 109.393C18.8924 109.506 18.9496 109.634 18.9895 109.747C19.0294 109.859 19.146 109.924 19.2895 109.884C19.433 109.845 19.3737 109.361 19.3186 109.198C19.1503 108.69 18.4251 107.422 18.355 107.284C18.2708 107.122 18.8535 103.95 18.9668 102.848H18.9679C19.2064 101.05 19.5431 99.2129 19.569 99.0219L22.7729 91.9418L20.6341 89.7588C20.6341 89.7588 16.9683 97.5661 16.8302 97.9773C16.7644 98.1737 16.5324 102.385 16.5345 102.385C16.5507 104.466 16.5712 106.3 16.5647 106.652C16.5647 106.652 16.2626 107.701 16.0306 108.358C15.7997 109.014 15.8504 109.712 15.8137 109.907C15.8083 109.935 15.6453 110.597 15.7565 111.427C15.8536 112.144 16.0921 111.417 16.0921 111.417C16.0921 111.417 16.1536 110.056 16.2604 110.078C16.3435 110.096 16.2658 110.837 16.364 111.63C16.3889 111.834 16.4147 112.035 16.4396 112.219C16.5054 112.704 16.8237 112.798 16.8367 112.28C16.841 112.096 16.841 111.792 16.8097 111.575C16.7763 111.341 16.8216 111.114 16.8237 110.914C16.8291 110.513 16.827 110.222 16.8432 110.231C16.8647 110.242 16.9219 110.163 16.9554 110.378C16.9953 110.637 16.9586 111.208 17.0482 111.585C17.0989 111.797 17.1766 112.251 17.1766 112.251C17.1766 112.251 17.3849 112.969 17.428 112.967C17.6654 112.956 17.6654 112.399 17.5586 112.119C17.5834 111.904 17.4874 111.431 17.4874 111.431C17.4874 111.431 17.51 110.427 17.6525 110.427C17.7701 110.426 18.1823 112.834 18.4197 112.807C18.614 112.785 18.5233 112.055 18.5233 112.055Z" fill="#F7A491"/>
<path fill-rule="evenodd" clip-rule="evenodd" d="M21.4704 96.0432C21.4704 96.0432 20.1409 95.8133 19.4352 95.55C18.4953 95.2004 17.877 94.8939 17.877 94.8939C17.877 94.8939 18.9086 90.4761 20.197 87.7934C20.729 86.6841 21.2675 86.1488 22.0186 86.0215C22.0229 86.0204 23.6016 87.0607 23.539 89.5653C23.5239 90.1534 21.4704 96.0432 21.4704 96.0432Z" fill="#B75742"/>
<path fill-rule="evenodd" clip-rule="evenodd" d="M25.5576 110.89L27.281 126.742C27.281 126.742 26.4382 130.095 26.5396 131.046C26.641 131.999 28.4129 144.492 28.4129 144.492L28.3385 145.192L28.3363 147.262H34.9103C34.9103 147.262 33.515 146.619 31.5629 145.347C31.4193 145.253 31.0859 144.953 31.005 144.355C30.4838 140.505 31.5154 127.66 31.5154 127.66L32.3279 110.941L25.5576 110.89Z" fill="#F7A491"/>
<path fill-rule="evenodd" clip-rule="evenodd" d="M20.2741 114.225C19.9029 114.322 19.3309 127.952 19.0234 128.555C17.0745 132.385 16.6105 144.029 16.6105 144.029L16.044 145.687L15.4375 147.72C15.4375 147.72 17.3842 148.253 18.4051 147.673L18.1882 143.835L23.1067 129.329L25.798 114.533L20.2741 114.225Z" fill="#F7A491"/>
<path fill-rule="evenodd" clip-rule="evenodd" d="M30.0557 87.822C29.2626 86.7062 25.9886 83.4721 25.626 83.4785C24.5652 83.498 21.0862 83.499 20.4053 83.8551L20.4096 84.617C20.4279 88.0216 20.8628 91.4122 21.7185 94.7078C22.3164 97.0052 22.8818 99.458 22.8117 100.339L22.829 100.355C24.8415 102.356 28.0173 102.199 29.8583 100.007C29.8583 100.007 29.8507 97.5652 30.1345 95.3379C30.578 91.8492 32.0273 90.5953 30.0557 87.822Z" fill="#FFC331"/>
<path fill-rule="evenodd" clip-rule="evenodd" d="M24.5583 80.013C24.5583 80.013 24.65 82.2845 24.4515 83.1456C24.254 84.0068 23.9896 84.0715 25.6903 84.3337C26.3593 84.4362 27.0036 84.5895 27.0036 84.5895C27.0036 84.5895 26.8288 83.3258 26.8029 82.7917C26.7586 81.9122 26.9993 79.1982 26.9993 79.1982L24.5583 80.013Z" fill="#F7A491"/>
<path fill-rule="evenodd" clip-rule="evenodd" d="M25.8547 81.1428C26.2043 81.3381 26.5313 81.4525 26.8324 81.5011C26.8906 80.4284 26.9996 79.1982 26.9996 79.1982L24.6709 79.9752C24.9418 80.4403 25.3259 80.8493 25.8547 81.1428Z" fill="#F47458"/>
<path fill-rule="evenodd" clip-rule="evenodd" d="M25.0989 73.6527C25.0989 73.6527 24.1266 73.9958 23.5903 75.0661C23.0529 76.1365 22.8532 79.1462 24.9683 80.3235C26.015 80.9062 27.2226 81.0163 27.7912 80.5037C28.3707 79.9814 28.3006 78.8192 28.2423 77.8534C28.1268 75.9401 27.706 73.0443 25.0989 73.6527Z" fill="#F7A491"/>
<path fill-rule="evenodd" clip-rule="evenodd" d="M23.5397 77.4303C23.6606 77.9332 23.4998 78.4177 23.1825 78.5138C22.8642 78.6087 22.5092 78.2796 22.3894 77.7767C22.2696 77.2749 22.4293 76.7893 22.7477 76.6944C23.0649 76.5983 23.4199 76.9275 23.5397 77.4303Z" fill="#F7A491"/>
<path fill-rule="evenodd" clip-rule="evenodd" d="M18.2914 145.66C17.3936 146.072 16.4321 145.818 16.0436 145.686L15.4199 147.728C15.4199 147.728 17.3807 148.308 18.4015 147.728L18.2914 145.66Z" fill="#F47458"/>
<path fill-rule="evenodd" clip-rule="evenodd" d="M28.2682 147.776H35.1033C35.3558 147.752 35.4173 147.54 35.3299 147.409C35.1486 147.139 34.3522 146.941 33.4555 146.511C31.8832 146.682 28.5844 145.565 28.3362 145.189C28.1937 145.941 28.1279 147.744 28.2682 147.776Z" fill="#F47458"/>
<path fill-rule="evenodd" clip-rule="evenodd" d="M41.9967 92.9862C42.1284 92.8017 42.5719 91.9017 42.5719 91.9017C42.5719 91.9017 43.0316 90.3597 42.9366 90.3791C42.8794 90.391 42.6906 90.61 42.4661 91.0762C42.3291 91.3622 42.1791 91.8607 42.0366 92.1078C41.7884 92.5405 41.51 92.7218 41.5791 92.5546C41.6287 92.4326 41.7992 92.3323 41.9492 92.0733C42.315 91.442 42.6377 90.4093 42.4974 90.4298C42.3733 90.4481 42.0204 91.1604 41.6298 91.7129C41.4582 91.9546 40.9748 92.2567 40.6705 92.4488C40.6737 92.3118 40.7115 92.1747 40.732 92.11C40.7708 91.9891 41.3136 91.2694 41.101 91.1787C40.8885 91.0881 39.5968 92.6474 39.5968 92.6474L39.0658 93.5517L39.0194 93.5862H39.0173C39.0173 93.5862 32.5707 96.1135 32.3549 96.0444C31.8477 95.8847 30.1157 90.8636 30.1157 90.8636L26.5093 91.5132C26.4565 91.4852 30.3002 98.9871 31.0168 99.3551C31.647 99.6778 38.3472 96.1869 39.6054 95.4401C41.3395 94.7732 42.0161 93.979 42.2978 93.5732C42.4489 93.3553 43.0294 92.4057 43.0294 92.4057C43.0294 92.4057 43.1535 91.0913 43.0596 91.0794C42.7413 91.0406 42.6539 92.2794 42.6539 92.2794C42.6539 92.2794 42.2233 92.8654 42.1489 92.942C41.9633 93.1319 41.9967 92.9862 41.9967 92.9862Z" fill="#F8A492"/>
<path fill-rule="evenodd" clip-rule="evenodd" d="M24.1806 86.4882C23.6885 88.5752 26.314 93.2262 26.314 93.2262C26.314 93.2262 30.0542 91.41 30.7113 90.6266C30.7113 90.6266 28.1323 86.3695 27.9715 86.0911C27.6262 85.4911 26.4154 84.2491 25.5985 84.4767C25.0784 84.6224 24.1806 86.4882 24.1806 86.4882Z" fill="#FFC331"/>
<path fill-rule="evenodd" clip-rule="evenodd" d="M24.7749 81.3441C25.0544 79.4298 28.2291 75.5299 27.0033 73.9008C26.0116 72.582 24.2818 72.9765 23.18 73.3557C18.1816 75.0745 18.4697 81.3571 16.892 82.3402C14.0313 84.1207 12.2724 85.23 12.0662 89.2432C11.8213 94.0032 15.8636 96.4333 20.7239 95.269C23.3386 94.6431 24.0314 93.7874 25.0792 91.3194C25.5519 90.2069 26.5047 86.7365 26.2436 85.0412C26.0105 83.5229 24.5505 82.8862 24.7749 81.3441Z" fill="#184655"/>
<path fill-rule="evenodd" clip-rule="evenodd" d="M26.6753 77.8358C26.6753 78.4023 26.4692 78.862 26.2156 78.862C25.962 78.862 25.7559 78.4023 25.7559 77.8358C25.7559 77.2693 25.962 76.8096 26.2156 76.8096C26.4692 76.8096 26.6753 77.2693 26.6753 77.8358Z" fill="#F7A491"/>
<path fill-rule="evenodd" clip-rule="evenodd" d="M32.9416 121.202L33.1747 111.797C33.2157 109.139 32.6891 106.505 31.6348 104.085L29.8575 100.007C29.1389 100.242 28.4612 100.443 27.7058 100.53C26.0623 100.72 24.4458 100.531 22.811 100.338C22.8066 100.402 22.7991 100.458 22.7883 100.504C22.4926 101.89 20.8405 104.977 20.1445 109.198C19.3546 113.988 19.0589 121.152 19.1582 121.714C26.7109 122.057 28.5108 122.33 32.9416 121.202Z" fill="#6B67E9"/>
<path fill-rule="evenodd" clip-rule="evenodd" d="M127.025 74.123L132.714 79.8118C132.714 79.8118 143.548 84.0484 144.757 86.6501C145.968 89.2529 143.668 89.1321 141.126 88.7684C138.585 88.4058 131.383 83.9275 131.383 83.9275L124.786 76.3014L127.025 74.123Z" fill="#E1E1E1"/>
<path fill-rule="evenodd" clip-rule="evenodd" d="M143.676 85.5094L142.269 85.0098L139.545 86.281C139.545 86.281 138.139 87.2338 137.458 89.5938C136.777 91.9549 137.458 106.071 138.592 108.34C139.728 110.609 143.676 85.5094 143.676 85.5094Z" fill="#E1E1E1"/>
<path fill-rule="evenodd" clip-rule="evenodd" d="M152.609 142.118C152.609 142.118 153.61 142.763 153.692 143.058C153.774 143.355 154.508 146.563 154.232 146.934C153.958 147.307 152.953 147.126 153.343 147.397C153.638 147.601 155.54 147.758 156.755 147.43C157.11 147.335 156.948 144.336 157 143.879C157.076 143.216 157.536 141.71 157.257 141.318C157.121 141.127 156.34 140.79 155.638 140.517C154.9 140.229 154.08 139.414 154.08 139.414L152.609 142.118Z" fill="#F7A491"/>
<path fill-rule="evenodd" clip-rule="evenodd" d="M155.576 140.491C155.576 140.491 154.986 146.181 154.294 146.602C154.111 146.713 153.139 146.796 153.049 147.262C153.047 147.272 153.026 147.737 153.321 147.749L157.009 147.737C157.009 147.737 157.047 144.94 157.024 143.844C157.024 143.844 157.534 141.046 157.368 140.837C157.2 140.628 155.576 140.491 155.576 140.491Z" fill="#3C8F7C"/>
<path fill-rule="evenodd" clip-rule="evenodd" d="M167.043 142.118C167.043 142.118 168.043 142.763 168.125 143.058C168.208 143.355 168.941 146.563 168.667 146.934C168.392 147.307 167.387 147.126 167.778 147.397C168.072 147.601 169.974 147.758 171.19 147.43C171.544 147.335 171.382 144.336 171.435 143.879C171.51 143.216 171.97 141.71 171.691 141.318C171.555 141.127 170.775 140.79 170.072 140.517C169.334 140.229 168.514 139.414 168.514 139.414L167.043 142.118Z" fill="#F7A491"/>
<path fill-rule="evenodd" clip-rule="evenodd" d="M148.928 105.136C148.928 105.136 152.301 111.833 152.992 113.63L158.131 126.669L169.465 140.001C169.465 140.001 168.635 142.144 167.38 142.718C167.38 142.718 153.715 131.684 152.592 129.946C150.878 127.297 143.076 111.067 143.076 111.067L141.626 107.946L148.928 105.136Z" fill="#283074"/>
<path fill-rule="evenodd" clip-rule="evenodd" d="M140.777 105.066L140.831 110.775C140.831 110.775 138.391 129.427 138.865 130.535C140.017 133.238 152.692 142.396 152.692 142.396L154.418 139.431L145.309 129.264L148.759 119.369C149.725 117.071 151.777 112.629 151.726 110.137C151.68 108.001 147.447 103.048 147.447 103.048L140.777 105.066Z" fill="url(#paint2_linear_1257_33417)"/>
<path fill-rule="evenodd" clip-rule="evenodd" d="M145.953 113.505C149.311 112.742 152.03 111.555 152.308 110.618C152.434 110.194 150.561 105.933 149.184 100.245C148.734 98.3883 148.815 96.6434 148.094 90.1385C147.941 88.7594 147.37 85.8674 145.233 85.1207C144.482 84.8595 144.064 84.893 144.064 84.893C144.046 84.8962 141.345 84.9135 140.11 85.5998C139.805 86.0131 138.668 88.2782 138.366 94.4507C138.233 97.1463 137.696 105.799 137.806 107.205C137.822 107.414 137.844 107.616 137.868 107.811C138.352 111.546 142.281 114.339 145.953 113.505Z" fill="#E1E1E1"/>
<path fill-rule="evenodd" clip-rule="evenodd" d="M140.017 89.8208L140.026 89.8197C141.396 89.6687 144.839 85.1569 144.839 85.1569L144.832 85.145L142.707 81.7793C142.707 81.7793 139.577 82.3491 140.189 83.303C140.801 84.2548 141.145 86.5414 141.145 86.5414C141.135 86.5673 141.121 86.5986 141.102 86.6364C140.887 87.1036 140.186 88.487 140.017 89.8208Z" fill="#F7A491"/>
<path fill-rule="evenodd" clip-rule="evenodd" d="M140.19 83.3018C139.577 82.35 142.707 81.7803 142.707 81.7803L142.884 82.0598C142.889 82.2972 142.862 82.513 142.796 82.6986C142.458 83.6536 141.645 84.4931 140.802 84.8978C140.646 84.3075 140.44 83.6925 140.19 83.3018Z" fill="#FE875E"/>
<path fill-rule="evenodd" clip-rule="evenodd" d="M140.94 76.4586C141.007 76.3938 143.381 80.298 142.811 81.9059C142.241 83.5138 140.324 84.7947 139.184 84.2217C137.925 83.5872 136.02 79.1099 137.168 77.2107C138.317 75.3115 140.94 76.4586 140.94 76.4586Z" fill="#F7A491"/>
<path fill-rule="evenodd" clip-rule="evenodd" d="M137.503 74.7065C138.9 74.4064 141.395 74.8185 142.8 75.807C144.528 77.0221 144.584 79.1792 143.806 80.5896C143.028 82 143.497 83.037 143.497 83.037C143.497 83.037 141.069 82.8849 140.576 81.2327C140.37 80.5389 140.627 80.0695 140.161 79.6777C139.802 79.3767 139.499 78.5004 139.143 77.7969C139.143 77.7969 137.577 76.9638 136.981 77.649C136.777 77.8843 135.711 75.0915 137.503 74.7065Z" fill="#363636"/>
<path fill-rule="evenodd" clip-rule="evenodd" d="M139.916 79.9807C140.128 80.4911 140.541 80.8041 140.837 80.6811C141.134 80.558 141.202 80.0444 140.989 79.534C140.777 79.0246 140.365 78.7106 140.068 78.8347C139.771 78.9577 139.703 79.4714 139.916 79.9807Z" fill="#F7A491"/>
<path fill-rule="evenodd" clip-rule="evenodd" d="M170.026 140.497C170.026 140.497 169.419 146.181 168.728 146.602C168.544 146.713 167.572 146.796 167.482 147.261C167.48 147.272 167.452 147.752 167.755 147.744L171.439 147.737C171.439 147.737 171.481 144.94 171.458 143.843C171.458 143.843 171.967 141.045 171.801 140.836C171.634 140.628 170.026 140.497 170.026 140.497Z" fill="#3C8F7C"/>
<path fill-rule="evenodd" clip-rule="evenodd" d="M103.32 147.73C83.3404 149.3 81.0268 122.459 101.209 120.874C121.089 119.311 123.222 146.166 103.32 147.73ZM88.5612 114.232C85.6335 108.107 84.8296 98.967 88.0205 91.7165C93.3999 79.4783 108.203 74.4844 107.113 60.6153C106.838 57.1219 105.284 54.312 102.994 52.5042C96.9696 47.7468 87.276 50.2647 80.3567 53.5868C75.9377 55.7103 71.8328 58.7202 68.0462 62.6188L66.1211 38.1231C74.4259 32.2295 84.4757 29.1481 94.506 28.3599C115.06 26.7448 130.932 34.4539 132.548 55.0134C134.021 73.7642 121.35 82.0714 112.85 91.4446C108.131 96.648 107.065 100.656 107.429 105.298C107.618 107.698 108.519 110.662 109.965 112.551L88.5612 114.232Z" fill="#FFC331"/>
<path fill-rule="evenodd" clip-rule="evenodd" d="M123.98 75.3615C123.942 75.192 124.08 75.3259 123.826 74.0019C123.752 73.6199 123.514 73.2173 123.337 73.0029C123.241 72.8867 123.021 72.6885 122.884 72.6065C122.655 72.4702 122.476 72.6927 122.521 72.8184C122.567 72.9442 122.803 73.3788 122.849 73.5045C122.894 73.6302 122.915 73.9391 122.811 74.0417C122.707 74.1444 121.052 72.2466 120.949 72.0806C120.861 71.9391 120.666 71.3221 120.666 71.3221C120.666 71.3221 120.521 70.873 120.346 70.9874C120.23 71.0623 120.103 71.432 120.435 72.161C120.724 72.7977 121.126 73.3062 121.08 73.3436C120.962 73.4416 120.243 72.5811 120.243 72.5811C120.243 72.5811 119.993 72.1016 119.822 71.9313C119.715 71.6129 119.52 71.2166 119.316 71.3715C119.278 71.4002 119.414 72.0792 119.414 72.0792C119.414 72.0792 119.665 72.5283 119.771 72.7493C119.96 73.1391 120.389 73.6122 120.537 73.8664C120.658 74.0776 120.54 74.0286 120.53 74.0535C120.523 74.0728 120.337 73.836 120.054 73.49C119.912 73.3156 119.716 73.1489 119.582 72.9215C119.455 72.7109 119.244 72.4451 119.112 72.2881C118.74 71.8436 118.541 72.1457 118.825 72.6141C118.933 72.7925 119.052 72.9859 119.174 73.1812C119.645 73.9415 120.227 74.5355 120.17 74.6073C120.096 74.7002 119.097 73.5545 119.097 73.5545C119.097 73.5545 118.391 73.0847 118.811 73.776C119.298 74.578 119.823 75.0917 119.848 75.1122C120.014 75.2568 120.457 75.9377 121.106 76.351C121.757 76.7654 122.811 77.3891 122.811 77.3891C122.932 77.5359 123.241 78.0107 123.667 78.6819L125.244 76.7859C124.689 76.2086 124.006 75.4791 123.98 75.3615Z" fill="#F8A492"/>
<path fill-rule="evenodd" clip-rule="evenodd" d="M122.736 78.0357L124.915 76.1289L132.397 83.5122C132.397 83.5122 143.979 84.5276 144.009 84.5363L144.473 84.6808C148.674 86.1322 146.944 89.5606 146.135 90.0915C144.249 91.3271 133.777 90.5868 130.422 88.5052C127.659 86.7916 122.736 78.0357 122.736 78.0357Z" fill="#E1E1E1"/>
<path fill-rule="evenodd" clip-rule="evenodd" d="M44.7686 88.6219C44.8516 88.9295 44.9002 89.0309 45.006 89.237C45.6901 90.5665 47.2786 92.4635 47.2786 92.4635L48.5066 89.51C48.5066 89.51 48.307 88.582 47.9595 87.2568C46.7725 87.587 45.6426 87.7791 44.7686 88.6219Z" fill="#F8A492"/>
<path fill-rule="evenodd" clip-rule="evenodd" d="M51.8111 86.06C51.8111 86.06 44.9598 89.2088 44.7386 89.1484C44.5961 89.1096 41.9286 84.3442 41.9005 79.8638C41.8865 77.794 43.9012 75.3034 46.1479 75.7966C47.2788 76.0437 47.2616 76.3804 48.9352 78.9757C50.6089 81.5709 51.8111 86.06 51.8111 86.06Z" fill="#2BD4FA"/>
<path fill-rule="evenodd" clip-rule="evenodd" d="M57.6598 142.514L57.4968 145.392C57.4364 145.755 57.2012 146.656 57.2012 146.988C57.2012 148.233 62.7413 145.931 61.4993 145.379C61.387 145.329 60.7989 144.951 60.7612 144.527C60.705 143.874 60.5604 142.554 60.5604 142.554L57.6598 142.514Z" fill="#F7A491"/>
<path fill-rule="evenodd" clip-rule="evenodd" d="M61.4865 145.368C61.4865 145.368 60.1851 145.748 59.5193 145.844C58.8535 145.939 57.9751 145.137 57.5035 145.354C56.9856 145.592 57.005 147.738 57.005 147.738C57.005 147.738 63.9803 148.348 65.9422 147.716C66.7191 147.467 64.1454 146.255 61.4865 145.368Z" fill="#363636"/>
<path fill-rule="evenodd" clip-rule="evenodd" d="M46.3268 142.514L46.1628 145.392C46.1034 145.755 45.8682 146.656 45.8682 146.988C45.8682 148.233 51.4083 145.931 50.1663 145.379C50.054 145.329 49.2911 144.67 49.2533 144.246C49.1972 143.593 49.2274 142.554 49.2274 142.554L46.3268 142.514Z" fill="#F7A491"/>
<path fill-rule="evenodd" clip-rule="evenodd" d="M50.1523 145.368C50.1523 145.368 48.852 145.748 48.1862 145.844C47.5204 145.939 46.642 145.137 46.1704 145.354C45.6514 145.592 45.6309 147.738 45.6309 147.738C45.6309 147.738 52.6375 148.45 54.608 147.716C55.3741 147.432 52.8123 146.255 50.1523 145.368Z" fill="#363636"/>
<path fill-rule="evenodd" clip-rule="evenodd" d="M48.0205 90.213L52.8992 82.9183C52.9197 82.8535 52.965 82.7229 53.0319 82.5233C53.2779 81.8003 53.7894 80.2939 54.2351 78.795L54.2394 78.7788C54.3797 78.2554 54.6765 77.3414 54.9635 76.4576C55.2818 75.4746 55.6779 74.2561 55.6919 74.0483C55.6789 74.0127 55.6563 73.949 55.6261 73.8642C55.4469 73.3684 55.2052 72.1882 55.12 71.675C55.0649 71.3482 55.011 70.5538 55.3746 70.5538C55.9476 70.5538 55.6746 71.3472 55.9379 71.8427C56.0351 71.5114 56.2314 70.8546 56.335 70.1895L56.43 68.6386C56.4494 68.5216 56.3329 67.666 56.7343 67.666L56.7527 67.6668C57.1131 67.6949 57.1055 68.6045 57.2555 70.143C57.303 69.966 57.3505 69.7525 57.3861 69.5562C57.3818 69.4511 57.4541 68.9885 57.508 68.7444C57.4357 68.3156 57.4778 67.6396 57.9051 67.7032C58.1199 67.7354 58.1026 68.6789 58.1026 68.6789C58.1005 68.8085 58.0875 69.8061 58.094 70.0033C58.1382 69.6684 58.3098 68.2406 58.6454 68.2406C58.9238 68.2406 58.9454 68.625 58.94 68.929C58.9368 69.109 58.762 70.6559 58.7523 70.8357C58.8828 70.601 59.0382 69.2378 59.1677 69.2378C59.7105 69.2378 59.5141 71.176 59.3155 71.6811C59.2961 71.7326 59.2767 71.8342 59.254 71.9515C59.186 72.2968 59.0727 72.8748 58.7879 73.3936C58.4479 74.0157 57.9774 75.0051 57.9062 75.1562C57.8534 75.4659 57.6904 76.5763 57.4843 77.9738C57.3969 78.5727 57.3008 79.2277 57.1994 79.9075L57.1951 79.9065C57.1757 80.0532 57.0742 80.5216 56.689 82.2751C56.1602 84.675 56.1052 84.7786 56.0825 84.8229C55.8527 85.2556 50.592 92.8806 50.3676 93.2054L50.2359 93.3964L48.0205 90.213Z" fill="#F7A491"/>
<path fill-rule="evenodd" clip-rule="evenodd" d="M57.0958 73.1993C57.0958 73.1993 56.6998 72.1184 55.9951 72.1164C55.9951 72.1164 56.389 71.9647 56.7267 72.2503C57.0645 72.5357 57.0958 73.1993 57.0958 73.1993Z" fill="#F47458"/>
<path fill-rule="evenodd" clip-rule="evenodd" d="M46.8409 71.1105L46.2129 75.3506C46.2129 75.3506 48.6064 77.4009 50.0016 76.9682C51.1725 76.6056 50.3696 74.9719 50.3696 74.9719C50.3696 74.9719 49.7459 72.7089 49.9369 71.5226C50.129 70.3363 46.8409 71.1105 46.8409 71.1105Z" fill="#F7A491"/>
<path fill-rule="evenodd" clip-rule="evenodd" d="M47.2916 72.3918C47.8915 72.6942 49.0775 73.1068 50.0012 73.2066C49.9127 72.6134 49.862 71.9859 49.9365 71.5222C50.0249 70.9748 49.3721 70.8452 48.6437 70.864C47.6908 70.9513 46.8405 71.1101 46.8405 71.1101L46.7207 71.9249C46.9009 72.129 47.0919 72.2912 47.2916 72.3918Z" fill="#FE875E"/>
<path fill-rule="evenodd" clip-rule="evenodd" d="M43.8208 66.2201C43.7226 66.2206 44.7672 70.9564 46.3848 71.7711C48.0013 72.5859 50.4131 72.1612 50.8653 70.8857C51.366 69.4747 49.5401 64.643 47.2653 64.0292C44.9917 63.4154 43.8208 66.2201 43.8208 66.2201Z" fill="#F7A491"/>
<path fill-rule="evenodd" clip-rule="evenodd" d="M45.6917 61.8694C44.4011 62.6644 43.8076 63.8435 43.608 64.3264C43.0026 64.6335 42.2688 65.2975 41.917 67.0867C41.4832 69.2868 43.0231 70.9825 44.6547 71.4928C46.2863 72.0029 46.5626 73.1553 46.5626 73.1553L46.7234 71.915C46.7234 71.915 46.3608 70.8352 45.8147 70.2947C45.2687 69.7543 46.0737 68.9666 46.1439 68.3243C46.1989 67.8296 45.8568 66.8691 45.9313 66.0574C45.9313 66.0574 46.8377 64.5908 47.7312 64.2284C49.2549 63.6106 47.3492 60.8493 45.6917 61.8694Z" fill="#13375B"/>
<path fill-rule="evenodd" clip-rule="evenodd" d="M46.3795 69.1483C46.591 69.6953 46.5046 70.2383 46.1863 70.3612C45.869 70.4842 45.4395 70.1403 45.2291 69.5933C45.0176 69.0463 45.1039 68.5033 45.4212 68.3804C45.7395 68.2575 46.1679 68.6012 46.3795 69.1483Z" fill="#F7A491"/>
<path fill-rule="evenodd" clip-rule="evenodd" d="M52.4023 90.3293L61.8143 88.6923C61.8143 88.6923 60.7428 85.8154 60.3608 85.8154C59.9777 85.8154 53.2441 88.9524 53.2441 88.9524L52.7077 90.1006L52.4023 90.3293Z" fill="#F8A492"/>
<path fill-rule="evenodd" clip-rule="evenodd" d="M47.5811 97.2175C47.5811 97.2175 46.6423 102.062 47.0254 105.734C47.4074 109.407 47.4376 122.456 47.4376 122.456L45.9775 143.332L49.4426 143.413C49.4426 143.413 53.5507 122.546 53.4741 123.082C53.3975 123.617 54.8511 108.39 54.8511 108.39L49.9541 96.7578L47.5811 97.2175Z" fill="#283074"/>
<path fill-rule="evenodd" clip-rule="evenodd" d="M48.4992 96.9877C48.4992 96.9877 47.8874 101.349 48.6525 103.263C49.4175 105.176 55.2156 123.946 55.2922 125.476C55.3688 127.006 57.2972 143.922 57.2972 143.922L61.3255 143.802L62.1974 124.995L60.3727 101.357L58.6008 95.3809L48.4992 96.9877Z" fill="#283074"/>
<path fill-rule="evenodd" clip-rule="evenodd" d="M46.2129 75.351C46.2129 75.351 47.2068 76.0459 48.1326 75.965C49.0596 75.8851 50.3696 74.9722 50.3696 74.9722L50.1872 74.3138C50.1872 74.3138 47.7905 73.9412 47.7301 73.9816C47.6697 74.0217 46.2129 75.351 46.2129 75.351Z" fill="#F7A491"/>
<path fill-rule="evenodd" clip-rule="evenodd" d="M56.8008 85.6736C56.8008 85.6736 60.3608 89.2595 61.9676 88.6465C63.5744 88.0347 64.2391 85.9423 60.3187 82.8808C56.8094 80.141 56.8008 85.6736 56.8008 85.6736Z" fill="#F8A492"/>
<path fill-rule="evenodd" clip-rule="evenodd" d="M59.2132 90.1014C58.6845 87.0303 54.8515 77.4748 54.545 75.7147C54.3961 74.859 52.3296 74.8396 50.3602 74.9518C48.2797 75.0694 46.2132 75.3511 46.2132 75.3511C46.2132 75.3511 44.3722 75.6737 43.5618 76.4831C42.7514 77.2935 42.5367 79.5348 43.701 83.7876C44.6204 87.1457 45.76 88.9889 46.3244 91.4341C46.4387 92.2553 46.5369 93.0647 46.6664 94.01C46.8736 97.6671 46.6632 102.497 46.6632 102.497C46.6632 102.497 56.6881 104.717 60.438 101.35C60.438 101.35 59.7549 93.247 59.2132 90.1014Z" fill="#2BD4FA"/>
<path fill-rule="evenodd" clip-rule="evenodd" d="M61.769 83.4975C61.769 83.4975 57.8356 86.9625 57.6058 86.9625C57.4579 86.9625 51.9923 82.672 50.7308 79.1476C50.0337 77.1988 51.4959 75.0179 53.1674 75.0254C54.3253 75.0308 54.84 75.3492 57.1364 77.4146C59.4316 79.4811 61.769 83.4975 61.769 83.4975Z" fill="#2BD4FA"/>
<path fill-rule="evenodd" clip-rule="evenodd" d="M121.855 14.7979L113.327 20.5677C112.461 21.1534 111.284 20.9264 110.698 20.0606L104.929 11.532C104.343 10.6662 104.57 9.48933 105.435 8.90369L113.964 3.1338C114.83 2.54806 116.007 2.77522 116.592 3.64098L122.362 12.1695C122.948 13.0354 122.721 14.212 121.855 14.7979Z" fill="#363636"/>
<path fill-rule="evenodd" clip-rule="evenodd" d="M117.568 8.75001C119.062 10.9574 118.482 13.9576 116.276 15.451C114.068 16.9443 111.068 16.3655 109.574 14.158C108.081 11.9507 108.66 8.95051 110.867 7.45713C113.075 5.96375 116.075 6.5427 117.568 8.75001Z" fill="white"/>
<path fill-rule="evenodd" clip-rule="evenodd" d="M111.981 9.47168L113.962 11.6303C114.106 11.7885 114.095 12.0341 113.938 12.1791C113.779 12.3241 113.534 12.3134 113.389 12.1553C113.366 12.1301 113.345 12.1007 113.33 12.0717L111.981 9.47168Z" fill="#363636"/>
<path fill-rule="evenodd" clip-rule="evenodd" d="M113.489 11.6465L116.475 9.97461L113.87 12.1942C113.729 12.3143 113.518 12.2974 113.397 12.1565C113.277 12.0155 113.295 11.8039 113.435 11.6838C113.451 11.6698 113.47 11.6567 113.489 11.6465Z" fill="#363636"/>
<path fill-rule="evenodd" clip-rule="evenodd" d="M38 61.5116H20.3037C17.307 61.5116 14.8779 59.0828 14.8779 56.0865V52.0871C14.8779 49.091 17.307 46.6621 20.3037 46.6621H38C40.9956 46.6621 43.4247 49.091 43.4247 52.0871V56.0866C43.4247 59.0828 40.9956 61.5116 38 61.5116Z" fill="#377DFF"/>
<path fill-rule="evenodd" clip-rule="evenodd" d="M40.0371 55.9053L47.0675 59.0564L42.3604 52.4678L40.0371 55.9053Z" fill="#377DFF"/>
<path fill-rule="evenodd" clip-rule="evenodd" d="M24.3834 53.6063C24.3834 54.2107 23.832 54.7008 23.1522 54.7008C22.4723 54.7008 21.9209 54.2107 21.9209 53.6063C21.9209 53.0017 22.4723 52.5117 23.1522 52.5117C23.832 52.5117 24.3834 53.0017 24.3834 53.6063Z" fill="white"/>
<path fill-rule="evenodd" clip-rule="evenodd" d="M30.1129 53.6063C30.1129 54.2107 29.5615 54.7008 28.8817 54.7008C28.2018 54.7008 27.6504 54.2107 27.6504 53.6063C27.6504 53.0017 28.2018 52.5117 28.8817 52.5117C29.5615 52.5117 30.1129 53.0017 30.1129 53.6063Z" fill="white"/>
<path fill-rule="evenodd" clip-rule="evenodd" d="M35.8414 53.6063C35.8414 54.2107 35.2911 54.7008 34.6102 54.7008C33.9303 54.7008 33.3789 54.2107 33.3789 53.6063C33.3789 53.0017 33.9303 52.5117 34.6102 52.5117C35.2911 52.5117 35.8414 53.0017 35.8414 53.6063Z" fill="white"/>
<path fill-rule="evenodd" clip-rule="evenodd" d="M102.195 3.36624L101.036 0.896051L101.999 0.444336L102.656 1.8447L104.261 0.874145L104.811 1.78405L102.195 3.36624Z" fill="#6B67E9"/>
<path fill-rule="evenodd" clip-rule="evenodd" d="M36.6102 38.9L34.0409 39.8165L33.6826 38.815L35.1405 38.2955L34.3279 36.6051L35.2862 36.1445L36.6102 38.9Z" fill="url(#paint3_linear_1257_33417)"/>
<path fill-rule="evenodd" clip-rule="evenodd" d="M143.11 14.0173C143.301 14.6258 143.491 15.2344 143.682 15.8429C143.832 16.3191 143.942 17.0921 144.407 17.3622C144.522 17.4292 144.712 17.3985 144.773 17.2665C145.003 16.7593 144.671 16.1102 144.513 15.6138C144.318 15.0063 144.124 14.3986 143.93 13.791C143.764 13.2717 142.945 13.4923 143.11 14.0173Z" fill="#FFC331"/>
<path fill-rule="evenodd" clip-rule="evenodd" d="M149.549 13.3578C148.564 16.7225 148.554 16.6211 148.628 16.9644C148.685 17.2322 149.049 17.3113 149.231 17.1239C149.462 16.8864 149.405 16.9561 150.356 13.5802C150.503 13.0609 149.701 12.8415 149.549 13.3578Z" fill="#FFC331"/>
<path fill-rule="evenodd" clip-rule="evenodd" d="M153.31 20.8457C153.891 20.5671 154.471 20.2885 155.052 20.01C155.569 19.7622 156.234 19.5653 156.588 19.0958C156.744 18.8893 156.529 18.6174 156.31 18.6108C155.736 18.5939 155.124 19.0336 154.623 19.2769C154.044 19.558 153.464 19.8391 152.885 20.1202C152.398 20.3564 152.824 21.0784 153.31 20.8457Z" fill="#FFC331"/>
<path fill-rule="evenodd" clip-rule="evenodd" d="M151.408 30.9526C152.004 31.7213 152.6 32.5081 153.275 33.2101C153.638 33.588 154.166 33.0334 153.841 32.6437C153.215 31.8929 152.573 31.1608 151.969 30.3912C151.653 29.9886 151.099 30.5543 151.408 30.9526Z" fill="#FFC331"/>
<path fill-rule="evenodd" clip-rule="evenodd" d="M153.598 27.0279C154.137 27.2636 154.68 27.4825 155.228 27.6964C155.727 27.8917 156.32 28.2412 156.86 28.1643C157.146 28.1235 157.18 27.7406 157.019 27.5633C156.817 27.3409 156.708 27.358 155.521 26.9005C154.985 26.694 154.454 26.4772 153.915 26.2761C153.484 26.1148 153.171 26.8404 153.598 27.0279Z" fill="#FFC331"/>
</g>
<defs>
<linearGradient id="paint0_linear_1257_33417" x1="48.5698" y1="24.6772" x2="39.4189" y2="24.6772" gradientUnits="userSpaceOnUse">
<stop stop-color="#2BD4FA"/>
<stop offset="1" stop-color="#8224E3" stop-opacity="0.7"/>
</linearGradient>
<linearGradient id="paint1_linear_1257_33417" x1="93.0766" y1="10.7199" x2="88.3145" y2="10.7199" gradientUnits="userSpaceOnUse">
<stop stop-color="#2BD4FA"/>
<stop offset="1" stop-color="#8224E3" stop-opacity="0.7"/>
</linearGradient>
<linearGradient id="paint2_linear_1257_33417" x1="154.418" y1="122.722" x2="138.804" y2="122.722" gradientUnits="userSpaceOnUse">
<stop stop-color="#283074"/>
<stop offset="1" stop-color="#377DFF"/>
</linearGradient>
<linearGradient id="paint3_linear_1257_33417" x1="36.6102" y1="37.9805" x2="33.6826" y2="37.9805" gradientUnits="userSpaceOnUse">
<stop stop-color="#2BD4FA"/>
<stop offset="1" stop-color="#8224E3" stop-opacity="0.7"/>
</linearGradient>
<clipPath id="clip0_1257_33417">
<rect width="192.621" height="148.701" fill="white" transform="translate(0 0.363281)"/>
</clipPath>
</defs>
</svg>
