<svg width="180" height="181" viewBox="0 0 180 181" fill="none" xmlns="http://www.w3.org/2000/svg">
<g filter="url(#filter0_d_504_11884)">
<circle cx="90" cy="85.8976" r="82" fill="#1F2024"/>
</g>
<g clip-path="url(#clip0_504_11884)" filter="url(#filter1_d_504_11884)">
<path fill-rule="evenodd" clip-rule="evenodd" d="M62.1527 106.678L58.8223 103.327C57.8929 104.194 56.9635 104.868 56.0147 105.349C55.0659 105.85 53.9235 106.1 52.5681 106.1C51.5419 106.1 50.6125 105.908 49.7605 105.503C48.9086 105.099 48.1921 104.579 47.5725 103.885C46.9723 103.211 46.5076 102.422 46.159 101.517C45.8105 100.611 45.6556 99.6485 45.6556 98.647V98.57C45.6556 97.5493 45.8299 96.6056 46.159 95.7004C46.5076 94.8145 46.9723 94.0249 47.5919 93.3508C48.2115 92.6768 48.9279 92.1375 49.7799 91.7523C50.6318 91.3672 51.5613 91.1746 52.5488 91.1746C53.7493 91.1746 54.8336 91.4057 55.8017 91.8871C56.7698 92.3686 57.7186 93.0234 58.648 93.8516L61.9784 90.019C61.4363 89.4798 60.836 88.9791 60.2164 88.5361C59.5775 88.0931 58.8804 87.708 58.1446 87.3806C57.3895 87.0724 56.5569 86.8221 55.6468 86.6295C54.7368 86.4561 53.7105 86.3598 52.6069 86.3598C50.7674 86.3598 49.0828 86.6872 47.5725 87.3228C46.0429 87.9583 44.7456 88.8442 43.6612 89.9613C42.5769 91.0783 41.725 92.3686 41.1054 93.8516C40.4858 95.3345 40.1953 96.9137 40.1953 98.6085V98.6663C40.1953 100.361 40.5051 101.96 41.1054 103.442C41.725 104.925 42.5769 106.216 43.6612 107.314C44.7456 108.411 46.0429 109.278 47.5338 109.913C49.0247 110.549 50.6512 110.857 52.3939 110.857C53.5556 110.857 54.6012 110.761 55.5306 110.568C56.46 110.376 57.312 110.087 58.1059 109.721C58.8804 109.355 59.6162 108.912 60.2745 108.392C60.9135 107.911 61.5331 107.333 62.1527 106.678ZM90.616 98.647V98.57C90.616 96.8752 90.3062 95.296 89.6866 93.813C89.067 92.3301 88.1956 91.0398 87.0726 89.9613C85.9496 88.8635 84.6135 87.9968 83.0645 87.3613C81.5155 86.7258 79.8309 86.3984 77.9915 86.3984C76.152 86.3984 74.4481 86.7258 72.899 87.3613C71.35 87.9968 70.014 88.8828 68.8909 89.9998C67.7679 91.1168 66.8966 92.4071 66.2576 93.8901C65.6186 95.373 65.3088 96.9522 65.3088 98.647V98.7048C65.3088 100.4 65.6186 101.979 66.2382 103.462C66.8579 104.945 67.7292 106.235 68.8522 107.314C69.9753 108.411 71.3113 109.278 72.8603 109.913C74.4093 110.549 76.0939 110.876 77.9334 110.876C79.7728 110.876 81.4768 110.549 83.0258 109.913C84.5748 109.278 85.9108 108.392 87.0339 107.275C88.1569 106.158 89.0282 104.868 89.6672 103.385C90.3062 101.921 90.616 100.342 90.616 98.647ZM85.1363 98.7048C85.1363 99.7255 84.9621 100.669 84.6135 101.574C84.265 102.46 83.7809 103.25 83.142 103.924C82.5223 104.598 81.7672 105.137 80.8765 105.522C79.9858 105.908 79.0177 106.1 77.9915 106.1C76.9265 106.1 75.9584 105.908 75.087 105.503C74.2157 105.099 73.4606 104.579 72.8022 103.885C72.1633 103.211 71.6598 102.422 71.3113 101.517C70.9628 100.611 70.7885 99.6485 70.7885 98.647V98.57C70.7885 97.5493 70.9628 96.6056 71.3113 95.7004C71.6598 94.8145 72.1439 94.0249 72.7829 93.3508C73.4025 92.6768 74.1576 92.1375 75.029 91.7523C75.9003 91.3672 76.8684 91.1746 77.9334 91.1746C78.979 91.1746 79.9471 91.3672 80.8184 91.7716C81.7091 92.1568 82.4643 92.696 83.1226 93.3893C83.7616 94.0634 84.265 94.853 84.6135 95.7582C84.9621 96.6634 85.1363 97.6263 85.1363 98.6278V98.7048ZM114.142 95.0456V94.9686C114.142 93.7553 113.929 92.6382 113.503 91.6368C113.077 90.6353 112.477 89.7687 111.702 89.0368C110.928 88.305 109.959 87.7465 108.836 87.3613C107.713 86.9569 106.435 86.7643 105.003 86.7643H95.2631V110.472H100.51V103.385H104.499C105.835 103.385 107.094 103.211 108.255 102.865C109.417 102.518 110.443 101.998 111.315 101.285C112.186 100.592 112.883 99.7255 113.367 98.6855C113.89 97.6456 114.142 96.4322 114.142 95.0456ZM108.836 95.1612C108.836 96.1819 108.468 97.0293 107.752 97.7226C107.016 98.4159 106.009 98.7626 104.693 98.7626H100.53V91.502H104.577C105.893 91.502 106.939 91.8101 107.694 92.4264C108.449 93.0427 108.836 93.9286 108.836 95.1034V95.1612ZM141.25 110.491L131.026 86.6102H126.185L115.962 110.491H121.306L123.494 105.176H133.563L135.751 110.491H141.25ZM131.704 100.573H125.372L128.548 92.8886L131.704 100.573Z" fill="#F5B231"/>
<path d="M42.8092 116.962C42.7317 116.866 42.6349 116.789 42.4994 116.75C42.3638 116.712 42.2477 116.673 42.1315 116.673C42.0734 116.673 41.996 116.673 41.9185 116.693C41.841 116.712 41.783 116.731 41.7249 116.77C41.6668 116.808 41.6087 116.847 41.57 116.904C41.5312 116.962 41.5119 117.02 41.5119 117.097C41.5119 117.232 41.5506 117.328 41.6474 117.386C41.7442 117.444 41.8604 117.501 42.0153 117.559C42.1509 117.598 42.3251 117.656 42.48 117.694C42.6543 117.733 42.8092 117.81 42.9447 117.887C43.0803 117.983 43.2158 118.099 43.3126 118.233C43.4094 118.387 43.4482 118.58 43.4482 118.83C43.4482 119.061 43.4094 119.273 43.3126 119.447C43.2158 119.62 43.0996 119.774 42.9641 119.89C42.8092 120.005 42.6349 120.082 42.4413 120.14C42.2477 120.198 42.0347 120.217 41.8217 120.217C41.5506 120.217 41.2989 120.178 41.0665 120.101C40.8342 120.024 40.6212 119.89 40.4082 119.697L41.0665 118.965C41.1634 119.1 41.2795 119.196 41.4344 119.254C41.5893 119.331 41.7249 119.35 41.8798 119.35C41.9572 119.35 42.0347 119.35 42.1121 119.331C42.1896 119.312 42.267 119.293 42.3251 119.254C42.3832 119.216 42.4413 119.177 42.48 119.119C42.5187 119.061 42.5381 119.004 42.5381 118.927C42.5381 118.792 42.48 118.696 42.3832 118.618C42.2864 118.541 42.1702 118.484 42.0153 118.426C41.8604 118.368 41.7055 118.33 41.5312 118.272C41.357 118.214 41.2021 118.156 41.0472 118.06C40.8923 117.964 40.7761 117.867 40.6793 117.713C40.5825 117.579 40.5244 117.386 40.5244 117.155C40.5244 116.924 40.5631 116.731 40.6599 116.558C40.7567 116.384 40.8729 116.25 41.0278 116.134C41.1827 116.019 41.357 115.942 41.5506 115.884C41.7442 115.826 41.9379 115.807 42.1509 115.807C42.3832 115.807 42.6156 115.845 42.8479 115.903C43.0803 115.961 43.2739 116.076 43.4482 116.25L42.8092 116.962Z" fill="white"/>
<path d="M44.8623 118.041C44.8623 117.713 44.9204 117.405 45.0366 117.136C45.1527 116.866 45.3076 116.635 45.5206 116.442C45.7143 116.25 45.966 116.096 46.2371 115.999C46.5081 115.903 46.8179 115.845 47.1471 115.845C47.4763 115.845 47.7861 115.903 48.0572 115.999C48.3282 116.096 48.58 116.25 48.7736 116.442C48.9672 116.635 49.1415 116.866 49.2577 117.136C49.3738 117.405 49.4319 117.713 49.4319 118.041C49.4319 118.368 49.3738 118.676 49.2577 118.946C49.1415 119.216 48.9866 119.447 48.7736 119.639C48.58 119.832 48.3282 119.986 48.0572 120.082C47.7861 120.178 47.4763 120.236 47.1471 120.236C46.8179 120.236 46.5081 120.178 46.2371 120.082C45.966 119.986 45.7143 119.832 45.5206 119.639C45.327 119.447 45.1527 119.216 45.0366 118.946C44.9204 118.676 44.8623 118.368 44.8623 118.041ZM45.8304 118.041C45.8304 118.233 45.8692 118.426 45.9273 118.58C45.9853 118.734 46.0822 118.888 46.1983 119.004C46.3145 119.119 46.4501 119.216 46.605 119.293C46.7599 119.35 46.9535 119.389 47.1471 119.389C47.3407 119.389 47.5344 119.35 47.6893 119.293C47.8442 119.235 47.9797 119.139 48.0959 119.004C48.2121 118.888 48.3089 118.734 48.367 118.58C48.4251 118.426 48.4638 118.233 48.4638 118.041C48.4638 117.848 48.4251 117.675 48.367 117.502C48.3089 117.328 48.2121 117.193 48.0959 117.078C47.9797 116.962 47.8442 116.866 47.6893 116.789C47.5344 116.731 47.3407 116.693 47.1471 116.693C46.9535 116.693 46.7599 116.731 46.605 116.789C46.4501 116.866 46.3145 116.943 46.1983 117.078C46.0822 117.193 45.9853 117.347 45.9273 117.502C45.8498 117.656 45.8304 117.829 45.8304 118.041Z" fill="white"/>
<path d="M53.7504 117.02C53.6536 116.904 53.5374 116.827 53.4213 116.77C53.2857 116.712 53.1308 116.673 52.9566 116.673C52.7823 116.673 52.6274 116.712 52.4725 116.77C52.3176 116.847 52.2014 116.924 52.0852 117.059C51.9691 117.174 51.8916 117.328 51.8335 117.482C51.7754 117.656 51.7367 117.829 51.7367 118.021C51.7367 118.214 51.7754 118.407 51.8335 118.561C51.8916 118.734 51.9884 118.869 52.0852 118.984C52.2014 119.1 52.3176 119.196 52.4725 119.273C52.608 119.331 52.7823 119.37 52.9372 119.37C53.1308 119.37 53.3051 119.331 53.4406 119.254C53.5955 119.177 53.7117 119.061 53.8085 118.927L54.583 119.504C54.4088 119.755 54.1764 119.947 53.9053 120.063C53.6343 120.178 53.3438 120.236 53.0534 120.236C52.7242 120.236 52.4144 120.178 52.1433 120.082C51.8722 119.986 51.6205 119.832 51.4269 119.639C51.2333 119.447 51.059 119.216 50.9428 118.946C50.8266 118.676 50.7686 118.368 50.7686 118.041C50.7686 117.713 50.8266 117.405 50.9428 117.136C51.059 116.866 51.2139 116.635 51.4269 116.442C51.6205 116.25 51.8722 116.096 52.1433 115.999C52.4144 115.903 52.7242 115.845 53.0534 115.845C53.1695 115.845 53.3051 115.864 53.4213 115.884C53.5568 115.903 53.673 115.942 53.8085 115.98C53.9247 116.019 54.0602 116.096 54.1764 116.173C54.2926 116.25 54.3894 116.346 54.4862 116.462L53.7504 117.02Z" fill="white"/>
<path d="M58.7651 117.02C58.6683 116.904 58.5521 116.827 58.4359 116.77C58.3004 116.712 58.1455 116.673 57.9712 116.673C57.7969 116.673 57.642 116.712 57.4871 116.77C57.3322 116.847 57.2161 116.924 57.0999 117.059C56.9837 117.174 56.9062 117.328 56.8482 117.482C56.7901 117.656 56.7513 117.829 56.7513 118.021C56.7513 118.214 56.7901 118.407 56.8482 118.561C56.9062 118.734 57.0031 118.869 57.0999 118.984C57.2161 119.1 57.3322 119.196 57.4871 119.273C57.6227 119.331 57.7969 119.37 57.9518 119.37C58.1455 119.37 58.3197 119.331 58.4553 119.254C58.6102 119.177 58.7264 119.061 58.8232 118.927L59.5977 119.504C59.4234 119.755 59.1911 119.947 58.92 120.063C58.6489 120.178 58.3585 120.236 58.068 120.236C57.7388 120.236 57.429 120.178 57.158 120.082C56.8869 119.986 56.6352 119.832 56.4415 119.639C56.2479 119.447 56.0736 119.216 55.9575 118.946C55.8413 118.676 55.7832 118.368 55.7832 118.041C55.7832 117.713 55.8413 117.405 55.9575 117.136C56.0736 116.866 56.2286 116.635 56.4415 116.442C56.6352 116.25 56.8869 116.096 57.158 115.999C57.429 115.903 57.7388 115.845 58.068 115.845C58.1842 115.845 58.3197 115.864 58.4359 115.884C58.5714 115.903 58.6876 115.942 58.8232 115.98C58.9393 116.019 59.0749 116.096 59.1911 116.173C59.3072 116.25 59.404 116.346 59.5009 116.462L58.7651 117.02Z" fill="white"/>
<path d="M61.0488 115.922H63.9145V116.77H61.9782V117.559H63.8177V118.407H61.9782V119.254H64.0307V120.101H61.0488V115.922V115.922Z" fill="white"/>
<path d="M65.7166 115.922H67.3431C67.5561 115.922 67.7691 115.942 67.9627 115.98C68.1563 116.019 68.3306 116.096 68.4661 116.192C68.6017 116.288 68.7179 116.423 68.8147 116.577C68.8921 116.75 68.9502 116.943 68.9502 117.193C68.9502 117.482 68.8728 117.752 68.7179 117.944C68.563 118.156 68.3306 118.291 68.0402 118.349L69.1051 120.121H67.9821L67.0914 118.445H66.6267V120.121H65.6973V115.922H65.7166ZM66.646 117.675H67.1882C67.2656 117.675 67.3625 117.675 67.4593 117.675C67.5561 117.675 67.6335 117.656 67.711 117.617C67.7884 117.579 67.8465 117.54 67.9046 117.482C67.9627 117.424 67.9821 117.328 67.9821 117.213C67.9821 117.097 67.9627 117.02 67.924 116.962C67.8853 116.904 67.8272 116.847 67.7497 116.808C67.6916 116.77 67.5948 116.75 67.5174 116.731C67.4205 116.712 67.3431 116.712 67.2656 116.712H66.6654V117.675H66.646Z" fill="white"/>
<path d="M74.0228 116.75H72.8223V115.922H76.172V116.75H74.9715V120.14H74.0421V116.75H74.0228Z" fill="white"/>
<path d="M77.5645 115.922H79.1909C79.4039 115.922 79.6169 115.942 79.8105 115.98C80.0042 116.019 80.1784 116.096 80.314 116.192C80.4495 116.288 80.5657 116.423 80.6625 116.577C80.74 116.75 80.798 116.943 80.798 117.193C80.798 117.482 80.7206 117.752 80.5657 117.944C80.4108 118.156 80.1784 118.291 79.888 118.349L80.9529 120.121H79.8299L78.9586 118.445H78.4939V120.121H77.5645V115.922ZM78.4939 117.675H79.036C79.1135 117.675 79.2103 117.675 79.3071 117.675C79.4039 117.675 79.4814 117.656 79.5588 117.617C79.6363 117.579 79.6944 117.54 79.7525 117.482C79.8105 117.424 79.8299 117.328 79.8299 117.213C79.8299 117.097 79.8105 117.02 79.7718 116.962C79.7331 116.904 79.675 116.847 79.5976 116.808C79.5395 116.77 79.4427 116.75 79.3652 116.731C79.2684 116.712 79.1909 116.712 79.1135 116.712H78.5132V117.675H78.4939Z" fill="white"/>
<path d="M83.7605 115.922H84.535L86.3745 120.121H85.3289L84.961 119.235H83.3152L82.9667 120.121H81.9404L83.7605 115.922ZM84.1091 117.155L83.5863 118.464H84.6125L84.1091 117.155Z" fill="white"/>
<path d="M87.7119 115.922H88.6413V120.121H87.7119V115.922Z" fill="white"/>
<path d="M90.4229 115.922H91.6814L93.4822 118.85H93.5015V115.922H94.431V120.121H93.2111L91.3716 117.136H91.3523V120.121H90.4229V115.922Z" fill="white"/>
<path d="M96.2129 115.922H97.1423V120.121H96.2129V115.922Z" fill="white"/>
<path d="M98.9229 115.922H100.181L101.982 118.85H102.002V115.922H102.931V120.121H101.711L99.8716 117.136H99.8523V120.121H98.9229V115.922Z" fill="white"/>
<path d="M108.525 119.832C108.254 119.967 107.964 120.082 107.673 120.14C107.383 120.198 107.073 120.236 106.763 120.236C106.434 120.236 106.124 120.178 105.853 120.082C105.582 119.986 105.33 119.832 105.137 119.639C104.943 119.447 104.769 119.216 104.653 118.946C104.537 118.676 104.479 118.368 104.479 118.041C104.479 117.713 104.537 117.405 104.653 117.136C104.769 116.866 104.924 116.635 105.137 116.442C105.33 116.25 105.582 116.096 105.853 115.999C106.124 115.903 106.434 115.845 106.763 115.845C107.092 115.845 107.422 115.884 107.693 115.961C107.983 116.038 108.235 116.173 108.448 116.384L107.79 117.097C107.654 116.962 107.518 116.866 107.364 116.808C107.209 116.75 107.015 116.712 106.763 116.712C106.57 116.712 106.376 116.75 106.221 116.808C106.066 116.885 105.931 116.962 105.815 117.097C105.698 117.213 105.602 117.367 105.543 117.521C105.485 117.694 105.447 117.867 105.447 118.06C105.447 118.253 105.485 118.445 105.543 118.599C105.602 118.753 105.698 118.907 105.815 119.023C105.931 119.139 106.066 119.235 106.221 119.312C106.376 119.37 106.57 119.408 106.763 119.408C106.957 119.408 107.151 119.389 107.286 119.331C107.441 119.293 107.557 119.235 107.635 119.196V118.522H106.88V117.675H108.525V119.832V119.832Z" fill="white"/>
<path d="M115.748 117.02C115.652 116.904 115.535 116.827 115.419 116.77C115.284 116.712 115.129 116.673 114.955 116.673C114.78 116.673 114.625 116.712 114.471 116.77C114.316 116.847 114.199 116.924 114.083 117.059C113.967 117.174 113.89 117.328 113.832 117.482C113.773 117.656 113.735 117.829 113.735 118.021C113.735 118.214 113.773 118.407 113.832 118.561C113.89 118.734 113.986 118.869 114.083 118.984C114.199 119.1 114.316 119.196 114.471 119.273C114.606 119.331 114.78 119.37 114.935 119.37C115.129 119.37 115.303 119.331 115.439 119.254C115.594 119.177 115.71 119.061 115.807 118.927L116.581 119.504C116.407 119.755 116.174 119.947 115.903 120.063C115.632 120.178 115.342 120.236 115.051 120.236C114.722 120.236 114.412 120.178 114.141 120.082C113.87 119.986 113.619 119.832 113.425 119.639C113.231 119.447 113.057 119.216 112.941 118.946C112.825 118.676 112.767 118.368 112.767 118.041C112.767 117.713 112.825 117.405 112.941 117.136C113.057 116.866 113.212 116.635 113.425 116.442C113.619 116.25 113.87 116.096 114.141 115.999C114.412 115.903 114.722 115.845 115.051 115.845C115.168 115.845 115.303 115.864 115.419 115.884C115.555 115.903 115.671 115.942 115.807 115.98C115.923 116.019 116.058 116.096 116.174 116.173C116.291 116.25 116.387 116.346 116.484 116.462L115.748 117.02Z" fill="white"/>
<path d="M118.034 115.922H120.9V116.77H118.964V117.559H120.803V118.407H118.964V119.254H121.016V120.101H118.034V115.922Z" fill="white"/>
<path d="M122.7 115.922H123.959L125.76 118.85H125.779V115.922H126.708V120.121H125.488L123.649 117.136H123.63V120.121H122.7V115.922Z" fill="white"/>
<path d="M129.302 116.75H128.102V115.922H131.451V116.75H130.251V120.14H129.302V116.75Z" fill="white"/>
<path d="M132.885 115.922H135.75V116.77H133.814V117.559H135.654V118.407H133.814V119.254H135.867V120.101H132.885V115.922Z" fill="white"/>
<path d="M137.532 115.922H139.159C139.372 115.922 139.584 115.942 139.778 115.98C139.972 116.019 140.146 116.096 140.282 116.192C140.417 116.288 140.533 116.423 140.63 116.577C140.708 116.75 140.766 116.943 140.766 117.193C140.766 117.482 140.688 117.752 140.533 117.944C140.378 118.156 140.146 118.291 139.856 118.349L140.921 120.121H139.797L138.907 118.445H138.442V120.121H137.513V115.922H137.532ZM138.461 117.675H139.004C139.081 117.675 139.178 117.675 139.275 117.675C139.372 117.675 139.449 117.656 139.526 117.617C139.604 117.579 139.662 117.54 139.72 117.482C139.778 117.424 139.797 117.328 139.797 117.213C139.797 117.097 139.778 117.02 139.739 116.962C139.701 116.904 139.643 116.847 139.565 116.808C139.507 116.77 139.41 116.75 139.333 116.731C139.236 116.712 139.159 116.712 139.081 116.712H138.481V117.675H138.461Z" fill="white"/>
</g>
<path fill-rule="evenodd" clip-rule="evenodd" d="M90.4104 72.5726C90.5266 72.5726 90.6234 72.5919 90.7395 72.6112V68.2972H93.2761H94.341L95.4641 64.8883L99.4141 66.1017C99.4334 65.8898 99.4915 65.678 99.6077 65.4854L95.6577 64.2721L96.7807 60.8632L93.857 58.7448L96.1998 55.4707C96.0062 55.3937 95.8126 55.2589 95.6771 55.1048L93.3535 58.3596L91.9594 57.3581L90.4297 56.2604L87.506 58.3788L85.1631 55.1048C85.0082 55.2589 84.8339 55.3937 84.6403 55.4707L86.9832 58.764L84.0594 60.8825L85.1824 64.2913L81.2324 65.5046C81.3292 65.6972 81.4067 65.8898 81.426 66.1209L85.3761 64.9076L86.4991 68.3164H87.4091H90.1199V72.6304C90.1974 72.5726 90.3136 72.5726 90.4104 72.5726Z" fill="#F4B231"/>
<path fill-rule="evenodd" clip-rule="evenodd" d="M88.8995 74.3252L84.5042 76.3859L82.5485 73.6512L82.0838 73.4971L79.3343 72.6497L79.9926 67.7387C79.9539 67.7387 79.9152 67.7579 79.8765 67.7579C79.7022 67.7579 79.5279 67.7194 79.3537 67.6616L78.6953 72.4764L76.7397 71.8601L75.5005 71.4749L75.4424 74.3252L84.1169 80.5844L86.8277 79.6599L84.8721 76.9252L89.1125 74.9222C88.9963 74.7489 88.9382 74.5371 88.8995 74.3252Z" fill="#F4B231"/>
<path fill-rule="evenodd" clip-rule="evenodd" d="M84.4073 52.5627C84.6202 52.6204 84.8139 52.7167 84.9881 52.8515L87.2342 48.5183L90.4291 49.5968L91.9587 49.0768L93.6239 48.5183L95.8507 52.8323C96.0249 52.6975 96.2185 52.6012 96.4315 52.5434L94.2435 48.3064L97.4384 47.2279L95.7732 44.8976H94.8438H86.208H85.0462L83.4004 47.2472L86.5952 48.3257L84.4073 52.5627Z" fill="#F4B231"/>
<path fill-rule="evenodd" clip-rule="evenodd" d="M84.0193 54.9315C84.5033 54.9315 84.91 54.5271 84.91 54.0456C84.91 53.5641 84.5033 53.1597 84.0193 53.1597C83.5352 53.1597 83.1286 53.5641 83.1286 54.0456C83.1092 54.5271 83.5158 54.9315 84.0193 54.9315Z" fill="#F4B231"/>
<path fill-rule="evenodd" clip-rule="evenodd" d="M78.9863 66.2172C78.9863 66.6987 79.3929 67.1031 79.877 67.1031C80.3611 67.1031 80.7677 66.6987 80.7677 66.2172C80.7677 65.7358 80.3611 65.3313 79.877 65.3313C79.3929 65.3313 78.9863 65.7358 78.9863 66.2172Z" fill="#F4B231"/>
<path fill-rule="evenodd" clip-rule="evenodd" d="M90.4112 73.2082C89.9271 73.2082 89.5205 73.6126 89.5205 74.0941C89.5205 74.5756 89.9271 74.98 90.4112 74.98C90.8953 74.98 91.3019 74.5756 91.3019 74.0941C91.3019 73.6126 90.9146 73.2082 90.4112 73.2082Z" fill="#F4B231"/>
<path fill-rule="evenodd" clip-rule="evenodd" d="M101.834 66.2172C101.834 65.7358 101.427 65.3313 100.943 65.3313C100.459 65.3313 100.053 65.7358 100.053 66.2172C100.053 66.6987 100.459 67.1031 100.943 67.1031C101.447 67.1031 101.834 66.718 101.834 66.2172Z" fill="#F4B231"/>
<path fill-rule="evenodd" clip-rule="evenodd" d="M96.7813 53.1597C96.2972 53.1597 95.8906 53.5641 95.8906 54.0456C95.8906 54.5271 96.2972 54.9315 96.7813 54.9315C97.2654 54.9315 97.672 54.5271 97.672 54.0456C97.672 53.5449 97.2654 53.1597 96.7813 53.1597Z" fill="#F4B231"/>
<path fill-rule="evenodd" clip-rule="evenodd" d="M102.123 72.4764L101.465 67.6616C101.31 67.7194 101.136 67.7579 100.942 67.7579C100.903 67.7579 100.865 67.7579 100.826 67.7387L101.484 72.6497L98.27 73.6512L96.3338 76.3859L91.9384 74.3252C91.8997 74.5371 91.8222 74.7489 91.7061 74.9222L95.9465 76.9252L94.0102 79.6599L94.959 79.9873L96.721 80.5844L105.376 74.3252L105.318 71.4749L102.123 72.4764Z" fill="#F4B231"/>
<path fill-rule="evenodd" clip-rule="evenodd" d="M108.786 63.0395L109.27 62.404L105.959 52.2738L103.209 51.4457L103.17 54.7967L98.291 53.9686C98.291 53.9878 98.291 54.0263 98.291 54.0456C98.291 54.2382 98.2523 54.4308 98.1748 54.6041L103.151 55.4322L103.112 58.7833L105.126 61.4795L101.776 64.9269C101.951 65.0424 102.125 65.1965 102.241 65.3698L105.552 61.9803L107.566 64.6765L108.108 63.9832L108.786 63.0395Z" fill="#F4B231"/>
<path fill-rule="evenodd" clip-rule="evenodd" d="M75.2878 61.9995L78.5988 65.3891C78.715 65.2158 78.8699 65.0617 79.0635 64.9462L75.6751 61.4795L77.6888 58.7833L77.6501 55.4323L82.5876 54.6041C82.5101 54.4308 82.4714 54.2382 82.4714 54.0456C82.4714 54.0263 82.4714 54.0071 82.4714 53.9878L77.6307 54.7967L77.6113 53.5256L77.592 51.4457L74.8425 52.2738L71.5508 62.404L72.2091 63.2706L73.2741 64.6765L75.2878 61.9995Z" fill="#F4B231"/>
<path fill-rule="evenodd" clip-rule="evenodd" d="M100.827 67.1417C101.311 67.1417 101.718 66.7372 101.718 66.2557C101.718 65.7743 101.311 65.3698 100.827 65.3698C100.343 65.3698 99.9365 65.7743 99.9365 66.2557C99.9559 66.7372 100.343 67.1417 100.827 67.1417Z" fill="#F4B231"/>
<path fill-rule="evenodd" clip-rule="evenodd" d="M100.73 66.6409C101.001 66.6409 101.233 66.4098 101.233 66.1402C101.233 65.8706 101.001 65.6395 100.73 65.6395C100.459 65.6395 100.227 65.8706 100.227 66.1402C100.246 66.4098 100.459 66.6409 100.73 66.6409Z" fill="#F8CD83"/>
<path fill-rule="evenodd" clip-rule="evenodd" d="M105.803 52.4471L103.092 51.619L102.995 58.8989L107.371 64.7343L109.094 62.481L105.803 52.4471Z" fill="#F4B231"/>
<defs>
<filter id="filter0_d_504_11884" x="0" y="0.897614" width="180" height="180" filterUnits="userSpaceOnUse" color-interpolation-filters="sRGB">
<feFlood flood-opacity="0" result="BackgroundImageFix"/>
<feColorMatrix in="SourceAlpha" type="matrix" values="0 0 0 0 0 0 0 0 0 0 0 0 0 0 0 0 0 0 127 0" result="hardAlpha"/>
<feOffset dy="5"/>
<feGaussianBlur stdDeviation="4"/>
<feColorMatrix type="matrix" values="0 0 0 0 0 0 0 0 0 0 0 0 0 0 0 0 0 0 0.2 0"/>
<feBlend mode="normal" in2="BackgroundImageFix" result="effect1_dropShadow_504_11884"/>
<feBlend mode="normal" in="SourceGraphic" in2="effect1_dropShadow_504_11884" result="shape"/>
</filter>
<filter id="filter1_d_504_11884" x="38.4765" y="85.8976" width="103.047" height="35.3969" filterUnits="userSpaceOnUse" color-interpolation-filters="sRGB">
<feFlood flood-opacity="0" result="BackgroundImageFix"/>
<feColorMatrix in="SourceAlpha" type="matrix" values="0 0 0 0 0 0 0 0 0 0 0 0 0 0 0 0 0 0 127 0" result="hardAlpha"/>
<feOffset dy="0.273462"/>
<feGaussianBlur stdDeviation="0.136731"/>
<feColorMatrix type="matrix" values="0 0 0 0 0 0 0 0 0 0 0 0 0 0 0 0 0 0 0.25 0"/>
<feBlend mode="normal" in2="BackgroundImageFix" result="effect1_dropShadow_504_11884"/>
<feBlend mode="normal" in="SourceGraphic" in2="effect1_dropShadow_504_11884" result="shape"/>
</filter>
<clipPath id="clip0_504_11884">
<rect width="102.5" height="34.85" fill="white" transform="translate(38.75 85.8976)"/>
</clipPath>
</defs>
</svg>
