<svg width="384" height="284" viewBox="0 0 384 284" fill="none" xmlns="http://www.w3.org/2000/svg">
<g clip-path="url(#clip0_141:1492)" filter="url(#filter0_d_141:1492)">
<path fill-rule="evenodd" clip-rule="evenodd" d="M87.6264 231.32L75.1566 218.773C71.6767 222.018 68.1967 224.542 64.6443 226.344C61.0919 228.219 56.8144 229.157 51.7395 229.157C47.8971 229.157 44.4172 228.436 41.2272 226.921C38.0373 225.407 35.3548 223.46 33.0348 220.864C30.7874 218.34 29.0474 215.384 27.7425 211.995C26.4375 208.605 25.8575 205 25.8575 201.25V200.962C25.8575 197.14 26.51 193.607 27.7425 190.217C29.0474 186.9 30.7874 183.944 33.1074 181.42C35.4273 178.896 38.1098 176.877 41.2997 175.435C44.4896 173.993 47.9696 173.272 51.667 173.272C56.162 173.272 60.2219 174.137 63.8468 175.94C67.4717 177.742 71.0242 180.194 74.5041 183.295L86.9739 168.945C84.9439 166.926 82.6965 165.051 80.3765 163.393C77.9841 161.734 75.3741 160.292 72.6192 159.066C69.7917 157.912 66.6743 156.975 63.2668 156.254C59.8594 155.605 56.0169 155.244 51.8845 155.244C44.9971 155.244 38.6898 156.47 33.0348 158.85C27.3075 161.229 22.45 164.546 18.3901 168.729C14.3302 172.911 11.1402 177.742 8.82028 183.295C6.50032 188.847 5.41284 194.76 5.41284 201.106V201.322C5.41284 207.668 6.57282 213.653 8.82028 219.206C11.1402 224.758 14.3302 229.589 18.3901 233.7C22.45 237.81 27.3075 241.055 32.8899 243.434C38.4723 245.814 44.5621 246.968 51.087 246.968C55.437 246.968 59.3519 246.607 62.8318 245.886C66.3118 245.165 69.5017 244.083 72.4742 242.713C75.3741 241.343 78.1291 239.685 80.594 237.738C82.9865 235.935 85.3064 233.772 87.6264 231.32ZM194.2 201.25V200.962C194.2 194.616 193.04 188.703 190.72 183.151C188.4 177.598 185.137 172.767 180.932 168.729C176.727 164.618 171.725 161.373 165.925 158.994C160.125 156.614 153.818 155.388 146.93 155.388C140.043 155.388 133.663 156.614 127.863 158.994C122.063 161.373 117.061 164.691 112.856 168.873C108.651 173.055 105.389 177.887 102.996 183.439C100.604 188.992 99.4437 194.905 99.4437 201.25V201.467C99.4437 207.812 100.604 213.725 102.924 219.278C105.244 224.83 108.506 229.661 112.711 233.7C116.916 237.81 121.918 241.055 127.718 243.434C133.518 245.814 139.826 247.04 146.713 247.04C153.6 247.04 159.98 245.814 165.78 243.434C171.58 241.055 176.582 237.738 180.787 233.555C184.992 229.373 188.255 224.542 190.647 218.989C193.04 213.509 194.2 207.596 194.2 201.25ZM173.682 201.467C173.682 205.288 173.03 208.822 171.725 212.211C170.42 215.528 168.607 218.484 166.215 221.008C163.895 223.532 161.068 225.551 157.733 226.993C154.398 228.436 150.773 229.157 146.93 229.157C142.943 229.157 139.318 228.436 136.056 226.921C132.793 225.407 129.966 223.46 127.501 220.864C125.108 218.34 123.223 215.384 121.918 211.995C120.613 208.605 119.961 205 119.961 201.25V200.962C119.961 197.14 120.613 193.607 121.918 190.217C123.223 186.9 125.036 183.944 127.428 181.42C129.748 178.896 132.576 176.877 135.838 175.435C139.101 173.993 142.725 173.272 146.713 173.272C150.628 173.272 154.253 173.993 157.515 175.507C160.85 176.949 163.678 178.968 166.143 181.564C168.535 184.088 170.42 187.045 171.725 190.434C173.03 193.823 173.682 197.428 173.682 201.178V201.467ZM282.285 187.766V187.477C282.285 182.934 281.488 178.752 279.893 175.002C278.298 171.253 276.051 168.008 273.151 165.267C270.251 162.527 266.626 160.436 262.421 158.994C258.216 157.48 253.431 156.758 248.066 156.758H211.599V245.526H231.246V218.989H246.181C251.184 218.989 255.896 218.34 260.246 217.042C264.596 215.744 268.438 213.797 271.701 211.129C274.963 208.533 277.573 205.288 279.386 201.394C281.343 197.5 282.285 192.958 282.285 187.766ZM262.421 188.198C262.421 192.02 261.043 195.193 258.361 197.789C255.606 200.385 251.836 201.683 246.906 201.683H231.319V174.497H246.471C251.401 174.497 255.316 175.651 258.143 177.959C260.971 180.266 262.421 183.583 262.421 187.982V188.198ZM383.784 245.598L345.504 156.182H327.38L289.1 245.598H309.11L317.302 225.695H355.002L363.194 245.598H383.784ZM348.042 208.461H324.335L336.225 179.689L348.042 208.461Z" fill="#F5B231"/>
<path d="M15.2001 269.827C14.9101 269.466 14.5476 269.178 14.0401 269.033C13.5326 268.889 13.0976 268.745 12.6626 268.745C12.4451 268.745 12.1551 268.745 11.8651 268.817C11.5751 268.889 11.3576 268.961 11.1401 269.105C10.9226 269.25 10.7051 269.394 10.5601 269.61C10.4151 269.827 10.3426 270.043 10.3426 270.331C10.3426 270.836 10.4876 271.197 10.8501 271.413C11.2126 271.629 11.6476 271.846 12.2276 272.062C12.7351 272.206 13.3876 272.423 13.9676 272.567C14.6201 272.711 15.2001 272.999 15.7075 273.288C16.215 273.648 16.7225 274.081 17.085 274.586C17.4475 275.163 17.5925 275.884 17.5925 276.821C17.5925 277.687 17.4475 278.48 17.085 279.129C16.7225 279.778 16.2875 280.355 15.78 280.787C15.2001 281.22 14.5476 281.508 13.8226 281.725C13.0976 281.941 12.3001 282.013 11.5026 282.013C10.4876 282.013 9.54515 281.869 8.67517 281.581C7.80518 281.292 7.00769 280.787 6.21021 280.066L8.67517 277.326C9.03766 277.831 9.47265 278.191 10.0526 278.408C10.6326 278.696 11.1401 278.768 11.7201 278.768C12.0101 278.768 12.3001 278.768 12.5901 278.696C12.8801 278.624 13.1701 278.552 13.3876 278.408C13.6051 278.263 13.8226 278.119 13.9676 277.903C14.1126 277.687 14.1851 277.47 14.1851 277.182C14.1851 276.677 13.9676 276.316 13.6051 276.028C13.2426 275.74 12.8076 275.523 12.2276 275.307C11.6476 275.091 11.0676 274.946 10.4151 274.73C9.76265 274.514 9.18266 274.297 8.60267 273.937C8.02268 273.576 7.58769 273.216 7.22519 272.639C6.8627 272.134 6.6452 271.413 6.6452 270.548C6.6452 269.682 6.7902 268.961 7.15269 268.312C7.51518 267.663 7.95018 267.159 8.53017 266.726C9.11016 266.293 9.76265 266.005 10.4876 265.788C11.2126 265.572 11.9376 265.5 12.7351 265.5C13.6051 265.5 14.4751 265.644 15.3451 265.861C16.215 266.077 16.94 266.51 17.5925 267.159L15.2001 269.827Z" fill="white"/>
<path d="M22.8855 273.865C22.8855 272.639 23.103 271.485 23.538 270.476C23.973 269.466 24.553 268.601 25.3504 267.88C26.0754 267.159 27.0179 266.582 28.0329 266.221C29.0479 265.861 30.2079 265.644 31.4404 265.644C32.6728 265.644 33.8328 265.861 34.8478 266.221C35.8628 266.582 36.8053 267.159 37.5302 267.88C38.2552 268.601 38.9077 269.466 39.3427 270.476C39.7777 271.485 39.9952 272.639 39.9952 273.865C39.9952 275.091 39.7777 276.244 39.3427 277.254C38.9077 278.264 38.3277 279.129 37.5302 279.85C36.8053 280.571 35.8628 281.148 34.8478 281.508C33.8328 281.869 32.6728 282.085 31.4404 282.085C30.2079 282.085 29.0479 281.869 28.0329 281.508C27.0179 281.148 26.0754 280.571 25.3504 279.85C24.6255 279.129 23.973 278.264 23.538 277.254C23.103 276.244 22.8855 275.091 22.8855 273.865ZM26.5104 273.865C26.5104 274.586 26.6554 275.307 26.8729 275.884C27.0904 276.461 27.4529 277.038 27.8879 277.47C28.3229 277.903 28.8304 278.264 29.4104 278.552C29.9904 278.768 30.7154 278.912 31.4404 278.912C32.1653 278.912 32.8903 278.768 33.4703 278.552C34.0503 278.336 34.5578 277.975 34.9928 277.47C35.4278 277.038 35.7903 276.461 36.0078 275.884C36.2253 275.307 36.3703 274.586 36.3703 273.865C36.3703 273.144 36.2253 272.495 36.0078 271.846C35.7903 271.197 35.4278 270.692 34.9928 270.259C34.5578 269.827 34.0503 269.466 33.4703 269.178C32.8903 268.961 32.1653 268.817 31.4404 268.817C30.7154 268.817 29.9904 268.961 29.4104 269.178C28.8304 269.466 28.3229 269.755 27.8879 270.259C27.4529 270.692 27.0904 271.269 26.8729 271.846C26.5829 272.423 26.5104 273.072 26.5104 273.865Z" fill="white"/>
<path d="M56.1619 270.043C55.7994 269.61 55.3644 269.322 54.9294 269.106C54.4219 268.889 53.8419 268.745 53.1894 268.745C52.537 268.745 51.957 268.889 51.377 269.106C50.797 269.394 50.362 269.682 49.927 270.187C49.492 270.62 49.202 271.197 48.9845 271.774C48.767 272.423 48.622 273.072 48.622 273.793C48.622 274.514 48.767 275.235 48.9845 275.812C49.202 276.461 49.5645 276.966 49.927 277.398C50.362 277.831 50.797 278.191 51.377 278.48C51.8845 278.696 52.537 278.84 53.1169 278.84C53.8419 278.84 54.4944 278.696 55.0019 278.408C55.5819 278.119 56.0169 277.687 56.3794 277.182L59.2793 279.345C58.6269 280.283 57.7569 281.004 56.7419 281.436C55.7269 281.869 54.6394 282.085 53.5519 282.085C52.3195 282.085 51.1595 281.869 50.1445 281.508C49.1295 281.148 48.187 280.571 47.462 279.85C46.737 279.129 46.0845 278.264 45.6496 277.254C45.2146 276.244 44.9971 275.091 44.9971 273.865C44.9971 272.639 45.2146 271.485 45.6496 270.476C46.0845 269.466 46.6645 268.601 47.462 267.88C48.187 267.159 49.1295 266.582 50.1445 266.221C51.1595 265.861 52.3195 265.644 53.5519 265.644C53.9869 265.644 54.4944 265.716 54.9294 265.789C55.4369 265.861 55.8719 266.005 56.3794 266.149C56.8144 266.293 57.3219 266.582 57.7569 266.87C58.1919 267.159 58.5544 267.519 58.9168 267.952L56.1619 270.043Z" fill="white"/>
<path d="M74.9389 270.043C74.5764 269.61 74.1414 269.322 73.7064 269.106C73.1989 268.889 72.6189 268.745 71.9664 268.745C71.3139 268.745 70.7339 268.889 70.154 269.106C69.574 269.394 69.139 269.682 68.704 270.187C68.269 270.62 67.979 271.197 67.7615 271.774C67.544 272.423 67.399 273.072 67.399 273.793C67.399 274.514 67.544 275.235 67.7615 275.812C67.979 276.461 68.3415 276.966 68.704 277.398C69.139 277.831 69.574 278.191 70.154 278.48C70.6614 278.696 71.3139 278.84 71.8939 278.84C72.6189 278.84 73.2714 278.696 73.7789 278.408C74.3589 278.119 74.7939 277.687 75.1564 277.182L78.0563 279.345C77.4038 280.283 76.5338 281.004 75.5189 281.436C74.5039 281.869 73.4164 282.085 72.3289 282.085C71.0964 282.085 69.9365 281.869 68.9215 281.508C67.9065 281.148 66.964 280.571 66.239 279.85C65.514 279.129 64.8615 278.264 64.4266 277.254C63.9916 276.244 63.774 275.091 63.774 273.865C63.774 272.639 63.9916 271.485 64.4266 270.476C64.8615 269.466 65.4415 268.601 66.239 267.88C66.964 267.159 67.9065 266.582 68.9215 266.221C69.9365 265.861 71.0964 265.644 72.3289 265.644C72.7639 265.644 73.2714 265.716 73.7064 265.789C74.2139 265.861 74.6489 266.005 75.1564 266.149C75.5914 266.293 76.0988 266.582 76.5338 266.87C76.9688 267.159 77.3313 267.519 77.6938 267.952L74.9389 270.043Z" fill="white"/>
<path d="M83.4935 265.933H94.2233V269.106H86.9735V272.062H93.8608V275.235H86.9735V278.408H94.6583V281.581H83.4935V265.933Z" fill="white"/>
<path d="M100.966 265.933H107.056C107.853 265.933 108.651 266.005 109.376 266.149C110.101 266.293 110.753 266.582 111.26 266.942C111.768 267.303 112.203 267.808 112.565 268.385C112.855 269.034 113.073 269.755 113.073 270.692C113.073 271.774 112.783 272.783 112.203 273.504C111.623 274.298 110.753 274.802 109.666 275.019L113.653 281.653H109.448L106.113 275.379H104.373V281.653H100.893V265.933H100.966ZM104.446 272.495H106.476C106.766 272.495 107.128 272.495 107.491 272.495C107.853 272.495 108.143 272.423 108.433 272.279C108.723 272.134 108.941 271.99 109.158 271.774C109.376 271.557 109.448 271.197 109.448 270.764C109.448 270.332 109.376 270.043 109.231 269.827C109.086 269.61 108.868 269.394 108.578 269.25C108.361 269.106 107.998 269.034 107.708 268.961C107.346 268.889 107.056 268.889 106.766 268.889H104.518V272.495H104.446Z" fill="white"/>
<path d="M132.068 269.034H127.573V265.933H140.116V269.034H135.621V281.725H132.141V269.034H132.068Z" fill="white"/>
<path d="M145.336 265.933H151.426C152.223 265.933 153.02 266.005 153.745 266.149C154.47 266.293 155.123 266.582 155.63 266.942C156.138 267.303 156.573 267.808 156.935 268.385C157.225 269.034 157.443 269.755 157.443 270.692C157.443 271.774 157.153 272.783 156.573 273.504C155.993 274.298 155.123 274.802 154.035 275.019L158.023 281.653H153.818L150.556 275.379H148.816V281.653H145.336V265.933ZM148.816 272.495H150.845C151.135 272.495 151.498 272.495 151.86 272.495C152.223 272.495 152.513 272.423 152.803 272.279C153.093 272.134 153.31 271.99 153.528 271.774C153.745 271.557 153.818 271.197 153.818 270.764C153.818 270.332 153.745 270.043 153.6 269.827C153.455 269.61 153.238 269.394 152.948 269.25C152.73 269.106 152.368 269.034 152.078 268.961C151.715 268.889 151.425 268.889 151.135 268.889H148.888V272.495H148.816Z" fill="white"/>
<path d="M168.535 265.933H171.435L178.323 281.653H174.408L173.03 278.336H166.868L165.563 281.653H161.72L168.535 265.933ZM169.84 270.548L167.883 275.451H171.725L169.84 270.548Z" fill="white"/>
<path d="M183.325 265.933H186.805V281.653H183.325V265.933Z" fill="white"/>
<path d="M193.474 265.933H198.187L204.929 276.894H205.002V265.933H208.482V281.653H203.914L197.027 270.476H196.954V281.653H193.474V265.933Z" fill="white"/>
<path d="M215.151 265.933H218.631V281.653H215.151V265.933Z" fill="white"/>
<path d="M225.302 265.933H230.014L236.756 276.894H236.829V265.933H240.309V281.653H235.741L228.854 270.476H228.781V281.653H225.302V265.933Z" fill="white"/>
<path d="M261.261 280.571C260.246 281.076 259.159 281.508 258.071 281.725C256.984 281.941 255.824 282.085 254.664 282.085C253.431 282.085 252.271 281.869 251.256 281.508C250.241 281.148 249.299 280.571 248.574 279.85C247.849 279.129 247.196 278.264 246.761 277.254C246.326 276.244 246.109 275.091 246.109 273.865C246.109 272.639 246.326 271.485 246.761 270.476C247.196 269.466 247.776 268.601 248.574 267.88C249.299 267.159 250.241 266.582 251.256 266.221C252.271 265.861 253.431 265.644 254.664 265.644C255.896 265.644 257.129 265.789 258.144 266.077C259.231 266.365 260.174 266.87 260.971 267.663L258.506 270.331C257.999 269.827 257.491 269.466 256.911 269.25C256.331 269.033 255.606 268.889 254.664 268.889C253.939 268.889 253.214 269.033 252.634 269.25C252.054 269.538 251.546 269.827 251.111 270.331C250.676 270.764 250.314 271.341 250.096 271.918C249.879 272.567 249.734 273.216 249.734 273.937C249.734 274.658 249.879 275.379 250.096 275.956C250.314 276.533 250.676 277.11 251.111 277.542C251.546 277.975 252.054 278.336 252.634 278.624C253.214 278.84 253.939 278.985 254.664 278.985C255.389 278.985 256.114 278.912 256.621 278.696C257.201 278.552 257.636 278.336 257.926 278.191V275.668H255.099V272.495H261.261V280.571Z" fill="white"/>
<path d="M288.303 270.043C287.941 269.61 287.506 269.322 287.071 269.106C286.563 268.889 285.983 268.745 285.331 268.745C284.678 268.745 284.098 268.889 283.518 269.106C282.938 269.394 282.503 269.682 282.068 270.187C281.633 270.62 281.343 271.197 281.126 271.774C280.908 272.423 280.763 273.072 280.763 273.793C280.763 274.514 280.908 275.235 281.126 275.812C281.343 276.461 281.706 276.966 282.068 277.398C282.503 277.831 282.938 278.191 283.518 278.48C284.026 278.696 284.678 278.84 285.258 278.84C285.983 278.84 286.636 278.696 287.143 278.408C287.723 278.119 288.158 277.687 288.521 277.182L291.421 279.345C290.768 280.283 289.898 281.004 288.883 281.436C287.868 281.869 286.781 282.085 285.693 282.085C284.461 282.085 283.301 281.869 282.286 281.508C281.271 281.148 280.328 280.571 279.603 279.85C278.878 279.129 278.226 278.264 277.791 277.254C277.356 276.244 277.138 275.091 277.138 273.865C277.138 272.639 277.356 271.485 277.791 270.476C278.226 269.466 278.806 268.601 279.603 267.88C280.328 267.159 281.271 266.582 282.286 266.221C283.301 265.861 284.461 265.644 285.693 265.644C286.128 265.644 286.636 265.716 287.071 265.789C287.578 265.861 288.013 266.005 288.521 266.149C288.956 266.293 289.463 266.582 289.898 266.87C290.333 267.159 290.696 267.519 291.058 267.952L288.303 270.043Z" fill="white"/>
<path d="M296.858 265.933H307.588V269.106H300.338V272.062H307.225V275.235H300.338V278.408H308.023V281.581H296.858V265.933Z" fill="white"/>
<path d="M314.33 265.933H319.042L325.785 276.894H325.857V265.933H329.337V281.653H324.77L317.882 270.476H317.81V281.653H314.33V265.933Z" fill="white"/>
<path d="M339.052 269.034H334.557V265.933H347.099V269.034H342.604V281.725H339.052V269.034Z" fill="white"/>
<path d="M352.464 265.933H363.194V269.106H355.944V272.062H362.832V275.235H355.944V278.408H363.629V281.581H352.464V265.933Z" fill="white"/>
<path d="M369.863 265.933H375.953C376.751 265.933 377.548 266.005 378.273 266.149C378.998 266.293 379.651 266.582 380.158 266.942C380.666 267.303 381.101 267.808 381.463 268.385C381.753 269.034 381.971 269.755 381.971 270.692C381.971 271.774 381.681 272.783 381.101 273.504C380.521 274.298 379.651 274.802 378.563 275.019L382.551 281.653H378.346L375.011 275.379H373.271V281.653H369.791V265.933H369.863ZM373.343 272.495H375.373C375.663 272.495 376.026 272.495 376.388 272.495C376.751 272.495 377.041 272.423 377.331 272.279C377.621 272.134 377.838 271.99 378.056 271.774C378.273 271.557 378.346 271.197 378.346 270.764C378.346 270.332 378.273 270.043 378.128 269.827C377.983 269.61 377.766 269.394 377.476 269.25C377.258 269.106 376.896 269.034 376.606 268.961C376.243 268.889 375.953 268.889 375.663 268.889H373.416V272.495H373.343Z" fill="white"/>
</g>
<path fill-rule="evenodd" clip-rule="evenodd" d="M193.425 103.622C193.86 103.622 194.222 103.694 194.657 103.766V87.6134H204.155H208.142L212.347 74.8499L227.137 79.3928C227.209 78.5996 227.427 77.8064 227.862 77.0853L213.072 72.5424L217.277 59.779L206.33 51.8469L215.102 39.5882C214.377 39.2998 213.652 38.795 213.144 38.2181L204.445 50.4047L199.225 46.655L193.497 42.5447L182.55 50.4768L173.778 38.2181C173.198 38.795 172.545 39.2998 171.82 39.5882L180.593 51.919L169.645 59.8511L173.85 72.6145L159.06 77.1574C159.423 77.8785 159.713 78.5996 159.785 79.465L174.575 74.922L178.78 87.6855H182.188H192.337V103.838C192.627 103.622 193.062 103.622 193.425 103.622Z" fill="#F4B231"/>
<path fill-rule="evenodd" clip-rule="evenodd" d="M187.769 110.184L171.312 117.9L163.99 107.66L162.25 107.083L151.955 103.91L154.42 85.5224C154.275 85.5224 154.13 85.5946 153.985 85.5946C153.332 85.5946 152.68 85.4503 152.027 85.234L149.562 103.261L142.24 100.954L137.6 99.5118L137.383 110.184L169.862 133.62L180.012 130.158L172.689 119.919L188.567 112.419C188.132 111.77 187.914 110.977 187.769 110.184Z" fill="#F4B231"/>
<path fill-rule="evenodd" clip-rule="evenodd" d="M170.95 28.6997C171.748 28.916 172.473 29.2766 173.125 29.7814L181.535 13.5566L193.497 17.5948L199.225 15.6478L205.46 13.5566L213.797 29.7092C214.449 29.2045 215.174 28.8439 215.972 28.6276L207.779 12.7634L219.742 8.72529L213.507 0H210.027H177.692H173.343L167.18 8.7974L179.142 12.8355L170.95 28.6997Z" fill="#F4B231"/>
<path fill-rule="evenodd" clip-rule="evenodd" d="M169.5 37.5692C171.312 37.5692 172.835 36.0549 172.835 34.2521C172.835 32.4494 171.312 30.9351 169.5 30.9351C167.688 30.9351 166.165 32.4494 166.165 34.2521C166.093 36.0549 167.615 37.5692 169.5 37.5692Z" fill="#F4B231"/>
<path fill-rule="evenodd" clip-rule="evenodd" d="M150.65 79.8255C150.65 81.6283 152.173 83.1426 153.985 83.1426C155.798 83.1426 157.32 81.6283 157.32 79.8255C157.32 78.0228 155.798 76.5085 153.985 76.5085C152.173 76.5085 150.65 78.0228 150.65 79.8255Z" fill="#F4B231"/>
<path fill-rule="evenodd" clip-rule="evenodd" d="M193.425 106.002C191.613 106.002 190.09 107.516 190.09 109.319C190.09 111.121 191.613 112.636 193.425 112.636C195.238 112.636 196.76 111.121 196.76 109.319C196.76 107.516 195.31 106.002 193.425 106.002Z" fill="#F4B231"/>
<path fill-rule="evenodd" clip-rule="evenodd" d="M236.199 79.8255C236.199 78.0228 234.677 76.5085 232.864 76.5085C231.052 76.5085 229.529 78.0228 229.529 79.8255C229.529 81.6283 231.052 83.1426 232.864 83.1426C234.749 83.1426 236.199 81.7004 236.199 79.8255Z" fill="#F4B231"/>
<path fill-rule="evenodd" clip-rule="evenodd" d="M217.277 30.9351C215.464 30.9351 213.942 32.4494 213.942 34.2521C213.942 36.0549 215.464 37.5692 217.277 37.5692C219.089 37.5692 220.612 36.0549 220.612 34.2521C220.612 32.3773 219.089 30.9351 217.277 30.9351Z" fill="#F4B231"/>
<path fill-rule="evenodd" clip-rule="evenodd" d="M237.286 103.261L234.821 85.234C234.241 85.4503 233.589 85.5946 232.864 85.5946C232.719 85.5946 232.574 85.5946 232.429 85.5224L234.894 103.91L222.859 107.66L215.609 117.9L199.152 110.184C199.007 110.977 198.717 111.77 198.282 112.419L214.159 119.919L206.909 130.158L210.462 131.384L217.059 133.62L249.466 110.184L249.249 99.5118L237.286 103.261Z" fill="#F4B231"/>
<path fill-rule="evenodd" clip-rule="evenodd" d="M262.226 67.9274L264.039 65.5478L251.642 27.618L241.347 24.5173L241.202 37.0644L222.932 33.9637C222.932 34.0358 222.932 34.18 222.932 34.2521C222.932 34.9732 222.787 35.6943 222.497 36.3433L241.129 39.444L240.984 51.9911L248.524 62.0865L235.982 74.9941C236.634 75.4268 237.287 76.0037 237.722 76.6527L250.119 63.9613L257.659 74.0567L259.689 71.4608L262.226 67.9274Z" fill="#F4B231"/>
<path fill-rule="evenodd" clip-rule="evenodd" d="M136.803 64.0335L149.2 76.7248C149.635 76.0758 150.215 75.4989 150.94 75.0663L138.253 62.0865L145.793 51.9911L145.648 39.444L164.135 36.3433C163.845 35.6943 163.7 34.9732 163.7 34.2521C163.7 34.18 163.7 34.1079 163.7 34.0358L145.575 37.0644L145.503 32.3051L145.43 24.5173L135.136 27.618L122.811 65.5478L125.276 68.7927L129.263 74.0567L136.803 64.0335Z" fill="#F4B231"/>
<path fill-rule="evenodd" clip-rule="evenodd" d="M232.429 83.2869C234.242 83.2869 235.764 81.7726 235.764 79.9698C235.764 78.1671 234.242 76.6528 232.429 76.6528C230.617 76.6528 229.094 78.1671 229.094 79.9698C229.167 81.7726 230.617 83.2869 232.429 83.2869Z" fill="#F4B231"/>
<path fill-rule="evenodd" clip-rule="evenodd" d="M232.066 81.4121C233.081 81.4121 233.951 80.5468 233.951 79.5372C233.951 78.5277 233.081 77.6624 232.066 77.6624C231.051 77.6624 230.181 78.5277 230.181 79.5372C230.254 80.5468 231.051 81.4121 232.066 81.4121Z" fill="#F8CD83"/>
<path fill-rule="evenodd" clip-rule="evenodd" d="M251.061 28.2669L240.911 25.1661L240.549 52.4237L256.934 74.2729L263.386 65.8361L251.061 28.2669Z" fill="#F4B231"/>
<defs>
<filter id="filter0_d_141:1492" x="-0.133396" y="153.514" width="384.05" height="130.753" filterUnits="userSpaceOnUse" color-interpolation-filters="sRGB">
<feFlood flood-opacity="0" result="BackgroundImageFix"/>
<feColorMatrix in="SourceAlpha" type="matrix" values="0 0 0 0 0 0 0 0 0 0 0 0 0 0 0 0 0 0 127 0" result="hardAlpha"/>
<feOffset dy="0.133396"/>
<feGaussianBlur stdDeviation="0.066698"/>
<feColorMatrix type="matrix" values="0 0 0 0 0 0 0 0 0 0 0 0 0 0 0 0 0 0 0.25 0"/>
<feBlend mode="normal" in2="BackgroundImageFix" result="effect1_dropShadow_141:1492"/>
<feBlend mode="normal" in="SourceGraphic" in2="effect1_dropShadow_141:1492" result="shape"/>
</filter>
<clipPath id="clip0_141:1492">
<rect width="383.784" height="130.486" fill="white" transform="translate(0 153.514)"/>
</clipPath>
</defs>
</svg>
