<svg version="1.2" xmlns="http://www.w3.org/2000/svg" viewBox="0 0 54 43" width="181" height="180"><defs><clipPath clipPathUnits="userSpaceOnUse" id="cp1"><path d="m1.26 23.9h51.65v17.56h-51.65z" /></clipPath></defs><style>.s0{display: none;fill:#1f2024}.s1{fill:#f5b231}.s2{fill:#ffffff}.s3{fill:#f4b231}.s4{fill:#f8cd83}</style><path class="s0" d="m27.1 70.2c-22.9 0-41.3-18.4-41.3-41.3c0-22.8 18.4-41.3 41.3-41.3c22.8 0 41.3 18.5 41.3 41.3c0 22.9-18.5 41.3-41.3 41.3z" /><g clip-path="url(#cp1)"><path fill-rule="evenodd" class="s1" d="m12.1 35.2q-0.5 0.4-1.1 0.7q-0.6 0.3-1.3 0.4q-0.7 0.2-1.6 0.2q-1.3 0-2.4-0.5q-1.1-0.5-2-1.3q-0.8-0.8-1.2-2q-0.5-1.1-0.5-2.4q0-1.3 0.5-2.4q0.4-1.1 1.2-2q0.9-0.8 2-1.3q1.2-0.5 2.5-0.5q0.9 0 1.6 0.2q0.7 0.1 1.2 0.3q0.6 0.3 1.1 0.6q0.5 0.4 0.9 0.8l-1.7 1.9q-0.7-0.6-1.4-1q-0.8-0.3-1.7-0.3q-0.7 0-1.4 0.3q-0.6 0.2-1.1 0.8q-0.4 0.5-0.7 1.1q-0.3 0.7-0.3 1.5q0 0.8 0.3 1.5q0.3 0.7 0.7 1.2q0.5 0.5 1.1 0.8q0.7 0.3 1.4 0.3q1 0 1.8-0.4q0.7-0.4 1.4-1l1.7 1.7q-0.5 0.5-1 0.8zm14.8-2.5q-0.5 1.1-1.3 2q-0.9 0.8-2 1.3q-1.2 0.5-2.6 0.5q-1.4 0-2.5-0.5q-1.2-0.5-2.1-1.3q-0.8-0.8-1.3-1.9q-0.5-1.2-0.5-2.4v-0.1q0-1.3 0.5-2.4q0.5-1.1 1.4-1.9q0.8-0.9 2-1.4q1.1-0.4 2.5-0.4q1.4 0 2.6 0.4q1.2 0.5 2 1.3q0.9 0.9 1.3 2q0.5 1.1 0.5 2.4q0 1.3-0.5 2.4zm-2.3-2.4q0-0.7-0.2-1.4q-0.3-0.7-0.8-1.2q-0.5-0.5-1.1-0.8q-0.7-0.3-1.5-0.3q-0.8 0-1.5 0.3q-0.6 0.2-1.1 0.8q-0.5 0.5-0.7 1.1q-0.3 0.7-0.3 1.5q0 0.8 0.3 1.5q0.2 0.7 0.7 1.2q0.5 0.5 1.2 0.8q0.6 0.3 1.4 0.3q0.8 0 1.5-0.3q0.7-0.3 1.1-0.8q0.5-0.5 0.8-1.2q0.2-0.7 0.2-1.4zm14.3 0q-0.4 0.8-1.1 1.3q-0.6 0.5-1.5 0.8q-0.9 0.3-1.9 0.3h-2v3.5h-2.7v-11.9h4.9q1.1 0 2 0.3q0.8 0.3 1.4 0.8q0.6 0.6 0.9 1.3q0.4 0.8 0.4 1.7q0 1.1-0.4 1.9zm-2.3-1.8q0-0.9-0.6-1.4q-0.6-0.4-1.6-0.4h-2v3.6h2.1q1 0 1.5-0.5q0.6-0.5 0.6-1.3zm13.5 7.8l-1.1-2.7h-5l-1.1 2.7h-2.7l5.1-12.1h2.5l5.1 12.1zm-3.6-8.9l-1.6 3.9h3.2z" /><path class="s2" d="m3.3 39.6q0-0.1-0.1-0.2q-0.1 0-0.2 0q-0.1 0-0.1 0q-0.1 0-0.1 0.1q-0.1 0-0.1 0q0 0.1 0 0.1q0 0.1 0 0.2q0.1 0 0.2 0.1q0.1 0 0.2 0q0.2 0.1 0.3 0.1q0.1 0.1 0.2 0.2q0 0.1 0 0.3q0 0.2 0 0.3q-0.1 0.1-0.2 0.2q-0.1 0.1-0.3 0.2q-0.1 0-0.3 0q-0.2 0-0.4-0.1q-0.1 0-0.3-0.2l0.3-0.3q0.1 0.1 0.2 0.1q0.1 0.1 0.2 0.1q0.1 0 0.2-0.1q0 0 0.1 0q0 0 0-0.1q0.1 0 0.1-0.1q0-0.1-0.1-0.1q-0.1-0.1-0.2-0.1q-0.1 0-0.2-0.1q-0.2 0-0.3-0.1q-0.1-0.1-0.2-0.2q0-0.1 0-0.2q0-0.2 0-0.3q0.1-0.2 0.2-0.3q0.1 0 0.3-0.1q0.1 0 0.3 0q0.2 0 0.3 0q0.2 0.1 0.3 0.2z" /><path fill-rule="evenodd" class="s2" d="m4.3 40.1q0-0.3 0.1-0.5q0.1-0.2 0.3-0.3q0.1-0.2 0.3-0.2q0.2-0.1 0.5-0.1q0.2 0 0.5 0.1q0.2 0 0.3 0.2q0.2 0.1 0.3 0.3q0 0.2 0 0.5q0 0.2 0 0.5q-0.1 0.2-0.3 0.3q-0.1 0.2-0.3 0.2q-0.3 0.1-0.5 0.1q-0.3 0-0.5-0.1q-0.2 0-0.3-0.2q-0.2-0.1-0.3-0.3q-0.1-0.3-0.1-0.5zm0.5 0q0 0.1 0.1 0.3q0 0.1 0.1 0.2q0.1 0.1 0.2 0.1q0.1 0.1 0.3 0.1q0.1 0 0.3-0.1q0.1 0 0.2-0.1q0.1-0.1 0.1-0.2q0.1-0.2 0.1-0.3q0-0.1-0.1-0.3q0-0.1-0.1-0.2q-0.1-0.1-0.2-0.1q-0.2-0.1-0.3-0.1q-0.2 0-0.3 0.1q-0.1 0-0.2 0.1q-0.1 0.1-0.1 0.2q-0.1 0.1-0.1 0.3z" /><path class="s2" d="m8.8 39.6q-0.1-0.1-0.1-0.1q-0.1-0.1-0.3-0.1q-0.1 0-0.2 0.1q-0.1 0-0.2 0.1q-0.1 0.1-0.1 0.2q-0.1 0.1-0.1 0.3q0 0.1 0.1 0.3q0 0.1 0.1 0.2q0.1 0.1 0.2 0.1q0.1 0.1 0.2 0.1q0.2 0 0.3-0.1q0.1-0.1 0.2-0.2l0.3 0.3q-0.1 0.2-0.3 0.3q-0.2 0.1-0.4 0.1q-0.3 0-0.5-0.1q-0.2 0-0.3-0.2q-0.2-0.1-0.3-0.3q-0.1-0.3-0.1-0.5q0-0.3 0.1-0.5q0.1-0.2 0.3-0.3q0.1-0.2 0.3-0.2q0.2-0.1 0.5-0.1q0.1 0 0.2 0q0.1 0 0.2 0.1q0 0 0.1 0.1q0.1 0 0.2 0.1z" /><path class="s2" d="m11.3 39.6q0-0.1-0.1-0.1q-0.1-0.1-0.3-0.1q-0.1 0-0.2 0.1q-0.1 0-0.2 0.1q-0.1 0.1-0.1 0.2q-0.1 0.1-0.1 0.3q0 0.1 0.1 0.3q0 0.1 0.1 0.2q0.1 0.1 0.2 0.1q0.1 0.1 0.2 0.1q0.2 0 0.3-0.1q0.1-0.1 0.2-0.2l0.4 0.3q-0.2 0.2-0.4 0.3q-0.2 0.1-0.4 0.1q-0.3 0-0.5-0.1q-0.2 0-0.3-0.2q-0.2-0.1-0.3-0.3q-0.1-0.3-0.1-0.5q0-0.3 0.1-0.5q0.1-0.2 0.3-0.3q0.1-0.2 0.3-0.2q0.2-0.1 0.5-0.1q0.1 0 0.2 0q0.1 0 0.2 0.1q0.1 0 0.2 0.1q0 0 0.1 0.1z" /><path class="s2" d="m12.5 39h1.4v0.5h-0.9v0.4h0.9v0.4h-0.9v0.4h1v0.4h-1.5z" /><path fill-rule="evenodd" class="s2" d="m15.7 39q0.1 0 0.3 0.1q0.1 0 0.2 0.1q0.1 0 0.2 0.2q0.1 0.1 0.1 0.3q0 0.2-0.1 0.3q-0.2 0.2-0.4 0.3l0.6 0.8h-0.6l-0.5-0.8h-0.2v0.8h-0.5v-2.1zm0.1 0.9q0.1 0 0.1 0q0.1 0 0.1-0.1q0.1 0 0.1-0.1q0-0.1-0.1-0.1q0-0.1-0.1-0.1q0 0-0.1-0.1q0 0-0.1 0h-0.3v0.5c0 0 0.4 0 0.4 0z" /><path class="s2" d="m19 39.4h-0.6v-0.4h1.7v0.4h-0.6v1.8h-0.5v-1.8z" /><path fill-rule="evenodd" class="s2" d="m20.8 39h0.8q0.2 0 0.4 0.1q0.1 0 0.2 0.1q0.1 0 0.2 0.2q0 0.1 0.1 0.3q0 0.2-0.2 0.3q-0.1 0.2-0.3 0.3l0.5 0.8h-0.5l-0.5-0.8h-0.2v0.8h-0.5zm0.9 0.9q0.1 0 0.1 0q0.1 0 0.1-0.1q0.1 0 0.1-0.1q0-0.1-0.1-0.1q0-0.1-0.1-0.1q0 0-0.1 0q0-0.1-0.1-0.1h-0.3v0.5c0 0 0.4 0 0.4 0z" /><path fill-rule="evenodd" class="s2" d="m23.9 39h0.4l1 2.1h-0.6l-0.2-0.4h-0.8l-0.2 0.4h-0.5zm0.2 0.7l-0.3 0.6h0.6z" /><path class="s2" d="m25.9 39h0.5v2.1h-0.5z" /><path class="s2" d="m27.3 39h0.6l0.9 1.5h0.1v-1.5h0.4v2.1h-0.6l-0.9-1.5v1.5h-0.5z" /><path class="s2" d="m30.2 39h0.5v2.1h-0.5z" /><path class="s2" d="m31.6 39h0.6l0.9 1.5v-1.5h0.5v2.1h-0.6l-0.9-1.5v1.5h-0.5z" /><path class="s2" d="m36.4 41q-0.2 0.1-0.4 0.2q-0.2 0-0.5 0q-0.2 0-0.4-0.1q-0.2 0-0.4-0.2q-0.1-0.1-0.2-0.3q-0.1-0.3-0.1-0.5q0-0.3 0.1-0.5q0.1-0.2 0.2-0.3q0.2-0.2 0.4-0.2q0.2-0.1 0.4-0.1q0.3 0 0.5 0q0.2 0.1 0.4 0.3l-0.3 0.3q-0.1-0.1-0.3-0.1q-0.1-0.1-0.3-0.1q-0.1 0-0.2 0.1q-0.2 0-0.2 0.1q-0.1 0.1-0.2 0.2q0 0.2 0 0.3q0 0.2 0 0.3q0.1 0.1 0.2 0.2q0 0.1 0.2 0.1q0.1 0.1 0.2 0.1q0.2 0 0.3-0.1q0.1 0 0.2 0v-0.4h-0.4v-0.4h0.8z" /><path class="s2" d="m40.1 39.6q-0.1-0.1-0.2-0.1q-0.1-0.1-0.2-0.1q-0.2 0-0.3 0.1q-0.1 0-0.2 0.1q-0.1 0.1-0.1 0.2q0 0.1-0.1 0.3q0.1 0.1 0.1 0.3q0 0.1 0.1 0.2q0.1 0.1 0.2 0.1q0.1 0.1 0.3 0.1q0.1 0 0.2-0.1q0.1-0.1 0.2-0.2l0.4 0.3q-0.2 0.2-0.4 0.3q-0.2 0.1-0.4 0.1q-0.2 0-0.4-0.1q-0.3 0-0.4-0.2q-0.2-0.1-0.3-0.3q0-0.3 0-0.5q0-0.3 0-0.5q0.1-0.2 0.3-0.3q0.1-0.2 0.4-0.2q0.2-0.1 0.4-0.1q0.1 0 0.2 0q0.1 0 0.2 0.1q0.1 0 0.2 0.1q0.1 0 0.1 0.1z" /><path class="s2" d="m41.2 39h1.5v0.5h-1v0.4h0.9v0.4h-0.9v0.4h1v0.4h-1.5z" /><path class="s2" d="m43.6 39h0.6l0.9 1.5v-1.5h0.5v2.1h-0.6l-1-1.5v1.5h-0.4z" /><path class="s2" d="m46.9 39.4h-0.6v-0.4h1.7v0.4h-0.6v1.8h-0.5z" /><path class="s2" d="m48.7 39h1.4v0.5h-0.9v0.4h0.9v0.4h-0.9v0.4h1v0.4h-1.5z" /><path fill-rule="evenodd" class="s2" d="m51.9 39q0.1 0 0.3 0.1q0.1 0 0.2 0.1q0.1 0 0.2 0.2q0.1 0.1 0.1 0.3q0 0.2-0.1 0.3q-0.2 0.2-0.4 0.3l0.5 0.8h-0.5l-0.5-0.8h-0.2v0.8h-0.5v-2.1zm0.1 0.9q0.1 0 0.1 0q0.1 0 0.1-0.1q0.1 0 0.1-0.1q0-0.1-0.1-0.1q0-0.1-0.1-0.1q0 0-0.1-0.1q-0.1 0-0.1 0h-0.3v0.5c0 0 0.3 0 0.4 0z" /></g><path fill-rule="evenodd" class="s3" d="m27.1 17.2v-2.2h-1.3h-0.5l-0.5-1.7l-2 0.6q-0.1-0.1-0.1-0.3l2-0.6l-0.6-1.7l1.5-1.1l-1.2-1.6q0.1-0.1 0.2-0.2l1.2 1.6l1.5-1l0.8 0.5l0.7 0.5l1.1-1.6q0.2 0.1 0.3 0.2l-1.2 1.6l1.5 1.1l-0.6 1.7l2 0.6q-0.1 0.2-0.1 0.3l-2-0.6l-0.5 1.7h-0.6h-1.2v2.2q-0.1 0-0.2 0q-0.1 0-0.2 0z" /><path fill-rule="evenodd" class="s3" d="m26.6 18.4l-2.1 1l1 1.4l-1.4 0.4l-4.3-3.1v-1.5l0.6 0.2l1 0.3l0.3-2.4q0.2 0.1 0.3 0.1q0 0 0 0l-0.3 2.4l1.4 0.5h0.2l1 1.4l2.2-1q0.1 0.1 0.1 0.3z" /><path fill-rule="evenodd" class="s3" d="m25.4 5l-1.6-0.6l0.8-1.2h0.6h4.3h0.5l0.8 1.2l-1.6 0.6l1.1 2.1q-0.1 0-0.3 0.1l-1.1-2.1l-0.8 0.2l-0.8 0.3l-1.6-0.5l-1.1 2.1q-0.2-0.1-0.3-0.1z" /><path fill-rule="evenodd" class="s3" d="m23.6 7.9c0-0.3 0.2-0.5 0.5-0.5c0.2 0 0.4 0.2 0.4 0.5c0 0.2-0.2 0.4-0.4 0.4c-0.3 0-0.5-0.2-0.5-0.4z" /><path fill-rule="evenodd" class="s3" d="m22 13.5c0.2 0 0.4 0.2 0.4 0.5c0 0.2-0.2 0.4-0.4 0.4c-0.3 0-0.5-0.2-0.5-0.4c0-0.3 0.2-0.5 0.5-0.5z" /><path fill-rule="evenodd" class="s3" d="m27.7 18c0 0.2-0.2 0.4-0.4 0.4c-0.2 0-0.5-0.2-0.5-0.4c0-0.3 0.3-0.5 0.5-0.5c0.2 0 0.4 0.2 0.4 0.5z" /><path fill-rule="evenodd" class="s3" d="m32.6 14.4c-0.2 0-0.4-0.2-0.4-0.4c0-0.3 0.2-0.5 0.4-0.5c0.2 0 0.5 0.2 0.5 0.5c0 0.2-0.2 0.4-0.5 0.4z" /><path fill-rule="evenodd" class="s3" d="m31 7.9c0 0.2-0.3 0.4-0.5 0.4c-0.2 0-0.4-0.2-0.4-0.4c0-0.3 0.2-0.5 0.4-0.5c0.2 0 0.5 0.2 0.5 0.5z" /><path fill-rule="evenodd" class="s3" d="m34.8 16.6v1.5l-4.3 3.1l-0.9-0.3l-0.5-0.1l1-1.4l-2.2-1q0.1-0.2 0.2-0.3l2.2 1l1-1.4l1.6-0.5l-0.4-2.4q0.1 0 0.1 0q0.1 0 0.3-0.1l0.3 2.4z" /><path fill-rule="evenodd" class="s3" d="m36.2 12.9l-0.3 0.3l-1-1.4l-1.6 1.8q-0.1-0.2-0.3-0.3l1.7-1.7l-1-1.4v-1.6l-2.5-0.5q0.1-0.1 0.1-0.2q0-0.1 0-0.1l2.4 0.4v-1.7l1.4 0.5l1.7 5.1l-0.2 0.3z" /><path fill-rule="evenodd" class="s3" d="m18.7 13.2l-0.6-0.7l-0.3-0.4l1.6-5.1l1.4-0.5v1.1l0.1 0.6l2.4-0.4q0 0 0 0.1q0 0.1 0.1 0.2l-2.5 0.5v1.6l-1 1.4l1.7 1.7q-0.2 0.1-0.3 0.3l-1.6-1.7z" /><path fill-rule="evenodd" class="s3" d="m32.1 14c0-0.2 0.2-0.4 0.4-0.4c0.3 0 0.5 0.2 0.5 0.4c0 0.2-0.2 0.5-0.5 0.5c-0.2 0-0.4-0.3-0.4-0.5z" /><path fill-rule="evenodd" class="s4" d="m32.2 13.9c0-0.1 0.2-0.2 0.3-0.2c0.1 0 0.2 0.1 0.2 0.2c0 0.2-0.1 0.3-0.2 0.3c-0.1 0-0.2-0.1-0.3-0.3z" /><path fill-rule="evenodd" class="s3" d="m36.7 12.1l-0.9 1.1l-2.2-2.9l0.1-3.7l1.4 0.4z" /></svg>