<svg width="24" height="44" viewBox="0 0 24 44" fill="none" xmlns="http://www.w3.org/2000/svg">
<path d="M22.2094 16.8223C21.4112 16.6923 20.5051 17.0065 19.8687 17.5481C19.653 16.649 18.8008 15.8908 17.8948 15.7391C17.1397 15.6199 16.2768 15.8908 15.662 16.389C15.3815 15.5225 14.4647 14.8075 13.5802 14.6559C12.728 14.5151 11.5631 14.97 11.0561 15.6091V8.76323C11.0561 7.82084 10.506 6.90011 9.59995 6.61847C8.11141 6.14186 6.74152 7.2359 6.74152 8.66574V25.9971C5.555 25.9971 4.58422 25.0222 4.58422 23.8307V21.8701C4.58422 21.4585 4.24983 21.1227 3.83995 21.1227H3.19276C1.58556 21.1227 0.280396 22.4333 0.280396 24.0473V29.3984C0.280396 30.3299 0.679497 31.229 1.38062 31.8464L4.28219 34.4028C4.87545 34.9228 5.63051 35.2044 6.41792 35.2044H18.3586C19.2215 35.2044 20.0413 34.8578 20.6453 34.2512L23.0615 31.8248C23.6656 31.2182 24.0107 30.3841 24.0107 29.5284V19.0754C23.9999 17.9922 23.2665 16.9956 22.2094 16.8223Z" fill="#707070"/>
<path d="M13.5587 6.15263C13.9038 6.15263 14.249 6.02265 14.5079 5.75185L15.6512 4.60364C16.1798 4.07287 16.1798 3.21713 15.6512 2.68636C15.1227 2.16642 14.2706 2.16642 13.742 2.69719L12.5987 3.8454C12.0701 4.37617 12.0701 5.23191 12.5987 5.76268C12.8683 6.02265 13.2135 6.15263 13.5587 6.15263ZM14.0225 9.20729C14.0225 9.9547 14.6265 10.5613 15.3708 10.5613H16.9888C17.733 10.5613 18.3371 9.9547 18.3371 9.20729C18.3371 8.45987 17.733 7.85327 16.9888 7.85327H15.3708C14.6265 7.85327 14.0225 8.45987 14.0225 9.20729ZM9.16854 4.33284C9.91281 4.33284 10.5169 3.72624 10.5169 2.97883V1.35401C10.5169 0.606598 9.91281 0 9.16854 0C8.42427 0 7.82022 0.606598 7.82022 1.35401V2.97883C7.82022 3.72624 8.42427 4.33284 9.16854 4.33284ZM20.2247 37.8582H4.95101C4.64899 37.8582 4.41169 38.0965 4.41169 38.3998V43.4476C4.41169 43.7509 4.64899 43.9892 4.95101 43.9892H20.2247C20.5267 43.9892 20.764 43.7509 20.764 43.4476V38.3998C20.764 38.1073 20.5267 37.8582 20.2247 37.8582ZM17.4849 42.0827C16.8485 42.0827 16.3416 41.5628 16.3416 40.9345C16.3416 40.2954 16.8593 39.7863 17.4849 39.7863C18.1213 39.7863 18.6283 40.3063 18.6283 40.9345C18.6283 41.5628 18.1106 42.0827 17.4849 42.0827ZM3.82921 5.76268C4.08809 6.02265 4.43326 6.16347 4.77843 6.16347C5.1236 6.16347 5.46876 6.03348 5.72764 5.76268C6.25618 5.23191 6.25618 4.37617 5.72764 3.8454L4.59506 2.69719C4.06652 2.16642 3.21438 2.16642 2.68584 2.69719C2.1573 3.22797 2.1573 4.0837 2.68584 4.61448L3.82921 5.76268ZM2.96629 7.85327H1.34831C0.604045 7.85327 0 8.45987 0 9.20729C0 9.9547 0.604045 10.5613 1.34831 10.5613H2.96629C3.71056 10.5613 4.31461 9.9547 4.31461 9.20729C4.31461 8.45987 3.71056 7.85327 2.96629 7.85327Z" fill="#363636"/>
</svg>
