<svg id="full" width="112" height="216" viewBox="0 0 112 216" fill="none" xmlns="http://www.w3.org/2000/svg">
<path d="M5.71148 172.534C5.71148 172.534 9.59325 171.633 12.1544 174.22C12.1544 174.22 10.5253 175.696 6.66518 174.092L5.71148 172.534Z" fill="#6C63FF"/>
<path d="M5.28132 172.498C5.28132 172.498 2.99659 175.76 4.47527 179.087C4.47527 179.087 6.46046 178.123 6.38171 173.959L5.28132 172.498Z" fill="#6C63FF"/>
<path d="M2.66368 167.615C2.66368 167.615 4.0283 164.63 10.6169 168.193C10.6169 168.193 9.92117 170.185 7.13005 170.23C4.33893 170.274 3.49612 169.074 2.66368 167.615Z" fill="#6C63FF"/>
<path d="M18.8458 147.629C18.8458 147.629 21.1984 147.08 22.744 148.649C22.744 148.649 21.7566 149.534 19.4251 148.57L18.8458 147.629Z" fill="#6C63FF"/>
<path d="M18.5892 147.61C18.5892 147.61 17.2102 149.583 18.1046 151.593C18.1046 151.593 19.3027 151 19.2654 148.492L18.5892 147.61Z" fill="#6C63FF"/>
<path d="M17.007 144.654C17.007 144.654 17.8304 142.851 21.8084 145.006C21.8084 145.006 21.3881 146.208 19.701 146.234C18.014 146.261 17.5153 145.537 17.007 144.654Z" fill="#6C63FF"/>
<path d="M16.7527 144.547C16.7527 144.547 14.7618 144.467 14.8984 148.974C14.8984 148.974 16.1684 149.143 16.9523 147.654C17.7362 146.166 17.3139 145.4 16.7527 144.547Z" fill="#6C63FF"/>
<path d="M15.3414 141.044C15.3414 141.044 16.2281 137.903 20.4079 139.79C20.4079 139.79 19.6963 142.665 15.8298 142.056L15.3414 141.044Z" fill="#6C63FF"/>
<path d="M13.7738 136.559C13.7738 136.559 15.6376 133.322 19.5533 135.917C19.5533 135.917 18.4655 138.915 14.1714 137.639L13.7738 136.559Z" fill="#6C63FF"/>
<path d="M15.2316 140.98C15.2316 140.98 12.3319 139.464 10.8303 143.79C10.8303 143.79 13.4206 145.242 15.629 142.027L15.2316 140.98Z" fill="#6C63FF"/>
<path d="M31.5236 167.463C30.7686 167.6 30.0299 167.815 29.3187 168.102C13.4713 174.506 13.9627 215.858 13.9627 215.858L9.28697 215.883C9.28697 215.883 7.71762 198.145 1.16317 172.861C-4.74137 150.114 18.8521 129.568 23.645 125.671C24.1844 125.237 24.4835 125.006 24.4835 125.006C48.4074 133.615 31.5236 167.463 31.5236 167.463Z" fill="#AFC0E0"/>
<path opacity="0.2" d="M26.2254 125.715C25.6734 125.466 25.1038 125.229 24.499 125.012C24.499 125.012 24.2058 125.242 23.6605 125.677C18.8676 129.574 -4.72587 150.119 1.17868 172.867C7.73312 198.151 9.28772 215.883 9.28772 215.883L11.9171 215.869C11.9171 215.869 10.3624 198.13 3.79326 172.847C-2.08715 150.205 21.2771 129.737 26.2254 125.715Z" fill="white"/>
<path d="M110.327 172.269C104.036 197.623 102.684 215.372 102.684 215.372L97.9995 215.397C97.9995 215.397 98.0573 172.178 81.033 167.447C80.6642 167.339 80.2891 167.253 79.9097 167.192C79.9097 167.192 62.6475 133.531 86.4846 124.667C86.4846 124.667 86.727 124.844 87.1647 125.191C91.6094 128.695 116.046 149.194 110.327 172.269Z" fill="#AFC0E0"/>
<path opacity="0.1" d="M31.5245 167.462C30.7696 167.6 30.0308 167.815 29.3196 168.102C26.3716 154.121 24.4751 139.939 23.6459 125.677C24.1854 125.243 24.4844 125.012 24.4844 125.012C48.4083 133.615 31.5245 167.462 31.5245 167.462Z" fill="black"/>
<path opacity="0.1" d="M87.1733 125.197C86.2776 139.428 84.227 153.563 81.0417 167.464C80.6729 167.356 80.2978 167.271 79.9184 167.209C79.9184 167.209 62.6562 133.549 86.4932 124.684C86.4843 124.673 86.7268 124.85 87.1733 125.197Z" fill="black"/>
<path d="M78.6957 173.604C77.0823 180.092 75.1862 186.751 73.0074 193.579C73.0074 193.579 62.5498 204.549 37.0858 193.775C37.0858 193.775 34.5087 186.663 31.6511 174.562C25.3603 147.957 17.7126 97.2336 33.1296 45.0052C37.7197 29.3045 44.2836 14.2446 52.6652 0.183274C52.6652 0.183274 66.1638 15.4514 76.1706 44.7608C86.1774 74.0702 92.6806 117.427 78.6957 173.604Z" fill="#E3E8F4"/>
<path d="M55.3867 107.287C67.0348 107.223 76.4259 97.7656 76.3624 86.1634C76.2989 74.5611 66.8048 65.2074 55.1567 65.2711C43.5087 65.3349 34.1175 74.7921 34.1811 86.3943C34.2446 97.9966 43.7387 107.35 55.3867 107.287Z" fill="#AFC0E0"/>
<path d="M70.2293 86.2088C70.2447 89.0301 69.4555 91.7978 67.9536 94.1899C66.4517 96.5821 64.2987 98.5003 61.7452 99.7214C59.1917 100.943 56.3427 101.416 53.5294 101.088C50.7162 100.759 48.0545 99.6419 45.854 97.8656C44.7799 96.9943 43.8311 95.9801 43.0343 94.8513C42.6766 94.3471 42.3511 93.8209 42.0599 93.2758C40.9265 91.1492 40.3285 88.7803 40.3173 86.3725C40.3166 86.2523 40.316 86.135 40.3153 86.0177C40.3746 82.8313 41.4569 79.7475 43.4036 77.2182C45.3503 74.6889 48.059 72.8471 51.1329 71.9627C52.3067 71.6335 53.5154 71.4438 54.7339 71.3974L55.1814 71.395C57.1462 71.3831 59.094 71.7568 60.9136 72.4949C62.7333 73.233 64.3891 74.321 65.7865 75.6966C67.1839 77.0723 68.2955 78.7087 69.0578 80.5124C69.8201 82.3161 70.2182 84.2518 70.2293 86.2088Z" fill="#15579E"/>
<path d="M76.1681 44.7606C52.3015 56.3032 33.1152 44.9963 33.1152 44.9963C37.7108 29.298 44.2796 14.241 52.6656 0.183128C52.6656 0.183128 66.1642 15.4512 76.1681 44.7606Z" fill="#AFC0E0"/>
<path d="M78.6961 173.604C77.6013 177.997 76.3793 182.467 75.0301 187.013C74.3902 189.181 73.7152 191.366 73.0048 193.57C73.0048 193.57 62.5472 204.54 37.0833 193.767C37.0833 193.767 36.2462 191.457 34.9864 187.232C34.0443 184.04 32.8696 179.762 31.6398 174.554C31.6398 174.554 41.1192 178.523 54.5426 178.449C62.8353 178.432 71.0432 176.786 78.6961 173.604Z" fill="#AFC0E0"/>
<path d="M75.0295 187.012C74.3897 189.18 73.7146 191.366 73.0043 193.57C73.0043 193.57 62.5467 204.54 37.0828 193.766C37.0828 193.766 36.2457 191.457 34.9858 187.232C34.9829 187.232 60.9165 194.51 75.0295 187.012Z" fill="#E3E8F4"/>
<path opacity="0.2" d="M51.1411 71.942L51.1089 71.9657L40.3206 85.9971C40.3212 86.1144 40.3219 86.2317 40.3225 86.3519C40.3337 88.7596 40.9317 91.1286 42.0652 93.2552L54.748 71.3768L51.1411 71.942Z" fill="white"/>
<path opacity="0.2" d="M54.6796 84.534L45.8543 97.8537C44.7802 96.9824 43.8315 95.9682 43.0347 94.8395L53.5725 83.449L54.6796 84.534Z" fill="white"/>
<path opacity="0.2" d="M42.7694 193.738C42.7694 193.738 40.1923 186.623 37.3347 174.525C31.0439 147.917 23.3961 97.1936 38.8131 44.9652C42.9568 30.8335 48.6954 17.2152 55.9191 4.37116C53.9105 1.59883 52.6573 0.186171 52.6573 0.186171C44.2744 14.2434 37.7085 29.2994 33.1157 44.9964C17.6988 97.2248 25.3465 147.948 31.6373 174.556C34.4949 186.654 37.072 193.769 37.072 193.769C47.133 198.023 54.8493 198.884 60.5058 198.372C55.6691 198.032 49.7905 196.706 42.7694 193.738Z" fill="white"/>
</svg>
