<svg width="397" height="328" viewBox="0 0 397 328" fill="none" xmlns="http://www.w3.org/2000/svg">
<g clip-path="url(#clip0_1904_28412)">
<mask id="mask0_1904_28412" style="mask-type:alpha" maskUnits="userSpaceOnUse" x="148" y="156" width="86" height="171">
<path d="M234 326.011H157.263V211.057C157.263 208.459 155.158 206.354 152.56 206.354H148.78V161.301C148.78 158.703 150.886 156.597 153.485 156.597H229.295C231.894 156.597 234 158.703 234 161.301V326.011ZM154.495 194.906C154.169 194.906 153.904 195.171 153.904 195.496V200.394C153.904 200.72 154.169 200.984 154.495 200.984C154.82 200.984 155.085 200.72 155.085 200.394V195.496C155.085 195.171 154.82 194.906 154.495 194.906ZM164.39 164.01C158.608 164.01 153.904 169.223 153.904 175.631V187.649C153.904 187.975 154.169 188.239 154.495 188.239C154.82 188.239 155.085 187.975 155.085 187.649V175.631C155.085 169.873 159.258 165.19 164.39 165.19H180.755C181.081 165.19 181.345 164.926 181.345 164.6C181.345 164.274 181.081 164.01 180.755 164.01H164.39Z" fill="white"/>
</mask>
<g mask="url(#mask0_1904_28412)">
<path fill-rule="evenodd" clip-rule="evenodd" d="M234 326.011H157.263V211.057C157.263 208.459 155.158 206.354 152.56 206.354H148.78V161.301C148.78 158.703 150.886 156.597 153.485 156.597H229.295C231.894 156.597 234 158.703 234 161.301V326.011ZM154.495 194.906C154.169 194.906 153.904 195.171 153.904 195.496V200.394C153.904 200.72 154.169 200.984 154.495 200.984C154.82 200.984 155.085 200.72 155.085 200.394V195.496C155.085 195.171 154.82 194.906 154.495 194.906ZM164.39 164.01C158.608 164.01 153.904 169.223 153.904 175.631V187.649C153.904 187.975 154.169 188.239 154.495 188.239C154.82 188.239 155.085 187.975 155.085 187.649V175.631C155.085 169.873 159.258 165.19 164.39 165.19H180.755C181.081 165.19 181.345 164.926 181.345 164.6C181.345 164.274 181.081 164.01 180.755 164.01H164.39Z" fill="white"/>
<path fill-rule="evenodd" clip-rule="evenodd" d="M234 326.011H157.263V211.057C157.263 208.459 155.158 206.354 152.56 206.354H148.78V161.301C148.78 158.703 150.886 156.597 153.485 156.597H229.295C231.894 156.597 234 158.703 234 161.301V326.011ZM154.495 194.906C154.169 194.906 153.904 195.171 153.904 195.496V200.394C153.904 200.72 154.169 200.984 154.495 200.984C154.82 200.984 155.085 200.72 155.085 200.394V195.496C155.085 195.171 154.82 194.906 154.495 194.906ZM164.39 164.01C158.608 164.01 153.904 169.223 153.904 175.631V187.649C153.904 187.975 154.169 188.239 154.495 188.239C154.82 188.239 155.085 187.975 155.085 187.649V175.631C155.085 169.873 159.258 165.19 164.39 165.19H180.755C181.081 165.19 181.345 164.926 181.345 164.6C181.345 164.274 181.081 164.01 180.755 164.01H164.39Z" fill="url(#paint0_linear_1904_28412)" fill-opacity="0.2"/>
</g>
<mask id="mask1_1904_28412" style="mask-type:alpha" maskUnits="userSpaceOnUse" x="153" y="164" width="29" height="25">
<path d="M154.494 188.239C154.169 188.239 153.903 187.975 153.903 187.649V175.631C153.903 169.223 158.608 164.01 164.39 164.01H180.755C181.081 164.01 181.345 164.274 181.345 164.6C181.345 164.926 181.081 165.19 180.755 165.19H164.39C159.258 165.19 155.084 169.873 155.084 175.631V187.649C155.084 187.975 154.82 188.239 154.494 188.239Z" fill="white"/>
</mask>
<g mask="url(#mask1_1904_28412)">
<path fill-rule="evenodd" clip-rule="evenodd" d="M154.494 188.239C154.169 188.239 153.903 187.975 153.903 187.649V175.631C153.903 169.223 158.608 164.01 164.39 164.01H180.755C181.081 164.01 181.345 164.274 181.345 164.6C181.345 164.926 181.081 165.19 180.755 165.19H164.39C159.258 165.19 155.084 169.873 155.084 175.631V187.649C155.084 187.975 154.82 188.239 154.494 188.239Z" fill="url(#paint1_linear_1904_28412)"/>
</g>
<mask id="mask2_1904_28412" style="mask-type:alpha" maskUnits="userSpaceOnUse" x="153" y="194" width="3" height="7">
<path d="M154.494 200.984C154.169 200.984 153.903 200.72 153.903 200.394V195.496C153.903 195.171 154.169 194.906 154.494 194.906C154.82 194.906 155.084 195.171 155.084 195.496V200.394C155.084 200.72 154.82 200.984 154.494 200.984Z" fill="white"/>
</mask>
<g mask="url(#mask2_1904_28412)">
<path fill-rule="evenodd" clip-rule="evenodd" d="M154.494 200.984C154.169 200.984 153.903 200.72 153.903 200.394V195.496C153.903 195.171 154.169 194.906 154.494 194.906C154.82 194.906 155.084 195.171 155.084 195.496V200.394C155.084 200.72 154.82 200.984 154.494 200.984Z" fill="url(#paint2_linear_1904_28412)"/>
</g>
<mask id="mask3_1904_28412" style="mask-type:alpha" maskUnits="userSpaceOnUse" x="88" y="206" width="70" height="121">
<path d="M157.262 326.011H135.614V211.057C135.614 208.458 133.508 206.354 130.91 206.354H88.5342H152.558C155.157 206.354 157.262 208.458 157.262 211.057V326.011Z" fill="white"/>
</mask>
<g mask="url(#mask3_1904_28412)">
<path fill-rule="evenodd" clip-rule="evenodd" d="M157.262 326.011H135.614V211.057C135.614 208.458 133.508 206.354 130.91 206.354H88.5342H152.558C155.157 206.354 157.262 208.458 157.262 211.057V326.011Z" fill="#6B67E9"/>
</g>
<mask id="mask4_1904_28412" style="mask-type:alpha" maskUnits="userSpaceOnUse" x="62" y="206" width="74" height="121">
<path d="M135.615 326.011H62.1836V211.057C62.1836 208.458 64.2894 206.354 66.8873 206.354H130.911C133.509 206.354 135.615 208.458 135.615 211.057V326.011ZM68.2453 248.515C67.9196 248.515 67.6552 248.779 67.6552 249.105V254.882C67.6552 255.208 67.9196 255.472 68.2453 255.472C68.5712 255.472 68.8354 255.208 68.8354 254.882V249.105C68.8354 248.779 68.5712 248.515 68.2453 248.515ZM79.921 212.061C73.1574 212.061 67.6552 218.164 67.6552 225.665V239.846C67.6552 240.172 67.9196 240.436 68.2453 240.436C68.5712 240.436 68.8354 240.172 68.8354 239.846V225.665C68.8354 218.814 73.8082 213.242 79.921 213.242H99.2292C99.5547 213.242 99.8188 212.978 99.8188 212.652C99.8188 212.326 99.5547 212.061 99.2292 212.061H79.921Z" fill="white"/>
</mask>
<g mask="url(#mask4_1904_28412)">
<path fill-rule="evenodd" clip-rule="evenodd" d="M135.615 326.011H62.1836V211.057C62.1836 208.458 64.2894 206.354 66.8873 206.354H130.911C133.509 206.354 135.615 208.458 135.615 211.057V326.011ZM68.2453 248.515C67.9196 248.515 67.6552 248.779 67.6552 249.105V254.882C67.6552 255.208 67.9196 255.472 68.2453 255.472C68.5712 255.472 68.8354 255.208 68.8354 254.882V249.105C68.8354 248.779 68.5712 248.515 68.2453 248.515ZM79.921 212.061C73.1574 212.061 67.6552 218.164 67.6552 225.665V239.846C67.6552 240.172 67.9196 240.436 68.2453 240.436C68.5712 240.436 68.8354 240.172 68.8354 239.846V225.665C68.8354 218.814 73.8082 213.242 79.921 213.242H99.2292C99.5547 213.242 99.8188 212.978 99.8188 212.652C99.8188 212.326 99.5547 212.061 99.2292 212.061H79.921Z" fill="white"/>
<path fill-rule="evenodd" clip-rule="evenodd" d="M135.615 326.011H62.1836V211.057C62.1836 208.458 64.2894 206.354 66.8873 206.354H130.911C133.509 206.354 135.615 208.458 135.615 211.057V326.011ZM68.2453 248.515C67.9196 248.515 67.6552 248.779 67.6552 249.105V254.882C67.6552 255.208 67.9196 255.472 68.2453 255.472C68.5712 255.472 68.8354 255.208 68.8354 254.882V249.105C68.8354 248.779 68.5712 248.515 68.2453 248.515ZM79.921 212.061C73.1574 212.061 67.6552 218.164 67.6552 225.665V239.846C67.6552 240.172 67.9196 240.436 68.2453 240.436C68.5712 240.436 68.8354 240.172 68.8354 239.846V225.665C68.8354 218.814 73.8082 213.242 79.921 213.242H99.2292C99.5547 213.242 99.8188 212.978 99.8188 212.652C99.8188 212.326 99.5547 212.061 99.2292 212.061H79.921Z" fill="url(#paint3_linear_1904_28412)" fill-opacity="0.2"/>
</g>
<mask id="mask5_1904_28412" style="mask-type:alpha" maskUnits="userSpaceOnUse" x="67" y="212" width="33" height="29">
<path d="M68.2453 240.436C67.9196 240.436 67.6553 240.172 67.6553 239.846V225.666C67.6553 218.164 73.1575 212.061 79.9211 212.061H99.2293C99.5548 212.061 99.8189 212.327 99.8189 212.652C99.8189 212.978 99.5548 213.242 99.2293 213.242H79.9211C73.8083 213.242 68.8355 218.815 68.8355 225.666V239.846C68.8355 240.172 68.5712 240.436 68.2453 240.436Z" fill="white"/>
</mask>
<g mask="url(#mask5_1904_28412)">
<path fill-rule="evenodd" clip-rule="evenodd" d="M68.2453 240.436C67.9196 240.436 67.6553 240.172 67.6553 239.846V225.666C67.6553 218.164 73.1575 212.061 79.9211 212.061H99.2293C99.5548 212.061 99.8189 212.327 99.8189 212.652C99.8189 212.978 99.5548 213.242 99.2293 213.242H79.9211C73.8083 213.242 68.8355 218.815 68.8355 225.666V239.846C68.8355 240.172 68.5712 240.436 68.2453 240.436Z" fill="url(#paint4_linear_1904_28412)"/>
</g>
<mask id="mask6_1904_28412" style="mask-type:alpha" maskUnits="userSpaceOnUse" x="67" y="248" width="2" height="8">
<path d="M68.2453 255.472C67.9196 255.472 67.6553 255.208 67.6553 254.882V249.105C67.6553 248.779 67.9196 248.515 68.2453 248.515C68.5712 248.515 68.8355 248.779 68.8355 249.105V254.882C68.8355 255.208 68.5712 255.472 68.2453 255.472Z" fill="white"/>
</mask>
<g mask="url(#mask6_1904_28412)">
<path fill-rule="evenodd" clip-rule="evenodd" d="M68.2453 255.472C67.9196 255.472 67.6553 255.208 67.6553 254.882V249.105C67.6553 248.779 67.9196 248.515 68.2453 248.515C68.5712 248.515 68.8355 248.779 68.8355 249.105V254.882C68.8355 255.208 68.5712 255.472 68.2453 255.472Z" fill="url(#paint5_linear_1904_28412)"/>
</g>
<mask id="mask7_1904_28412" style="mask-type:alpha" maskUnits="userSpaceOnUse" x="269" y="206" width="70" height="121">
<path d="M338.283 326.011H316.635V211.057C316.635 208.459 314.529 206.354 311.932 206.354H269.556H333.58C336.178 206.354 338.283 208.459 338.283 211.057V326.011Z" fill="white"/>
</mask>
<g mask="url(#mask7_1904_28412)">
<path fill-rule="evenodd" clip-rule="evenodd" d="M338.283 326.011H316.635V211.057C316.635 208.459 314.529 206.354 311.932 206.354H269.556H333.58C336.178 206.354 338.283 208.459 338.283 211.057V326.011Z" fill="#6B67E9"/>
</g>
<mask id="mask8_1904_28412" style="mask-type:alpha" maskUnits="userSpaceOnUse" x="243" y="206" width="74" height="121">
<path d="M316.635 326.011H243.204V211.057C243.204 208.459 245.31 206.354 247.907 206.354H311.932C314.529 206.354 316.635 208.459 316.635 211.057V326.011ZM249.265 248.515C248.939 248.515 248.675 248.779 248.675 249.105V254.882C248.675 255.208 248.939 255.472 249.265 255.472C249.591 255.472 249.856 255.208 249.856 254.882V249.105C249.856 248.779 249.591 248.515 249.265 248.515ZM260.942 212.061C254.178 212.061 248.675 218.164 248.675 225.666V239.846C248.675 240.172 248.939 240.436 249.265 240.436C249.591 240.436 249.856 240.172 249.856 239.846V225.666C249.856 218.815 254.828 213.242 260.942 213.242H280.249C280.575 213.242 280.84 212.978 280.84 212.652C280.84 212.326 280.575 212.061 280.249 212.061H260.942Z" fill="white"/>
</mask>
<g mask="url(#mask8_1904_28412)">
<path fill-rule="evenodd" clip-rule="evenodd" d="M316.635 326.011H243.204V211.057C243.204 208.459 245.31 206.354 247.907 206.354H311.932C314.529 206.354 316.635 208.459 316.635 211.057V326.011ZM249.265 248.515C248.939 248.515 248.675 248.779 248.675 249.105V254.882C248.675 255.208 248.939 255.472 249.265 255.472C249.591 255.472 249.856 255.208 249.856 254.882V249.105C249.856 248.779 249.591 248.515 249.265 248.515ZM260.942 212.061C254.178 212.061 248.675 218.164 248.675 225.666V239.846C248.675 240.172 248.939 240.436 249.265 240.436C249.591 240.436 249.856 240.172 249.856 239.846V225.666C249.856 218.815 254.828 213.242 260.942 213.242H280.249C280.575 213.242 280.84 212.978 280.84 212.652C280.84 212.326 280.575 212.061 280.249 212.061H260.942Z" fill="white"/>
<path fill-rule="evenodd" clip-rule="evenodd" d="M316.635 326.011H243.204V211.057C243.204 208.459 245.31 206.354 247.907 206.354H311.932C314.529 206.354 316.635 208.459 316.635 211.057V326.011ZM249.265 248.515C248.939 248.515 248.675 248.779 248.675 249.105V254.882C248.675 255.208 248.939 255.472 249.265 255.472C249.591 255.472 249.856 255.208 249.856 254.882V249.105C249.856 248.779 249.591 248.515 249.265 248.515ZM260.942 212.061C254.178 212.061 248.675 218.164 248.675 225.666V239.846C248.675 240.172 248.939 240.436 249.265 240.436C249.591 240.436 249.856 240.172 249.856 239.846V225.666C249.856 218.815 254.828 213.242 260.942 213.242H280.249C280.575 213.242 280.84 212.978 280.84 212.652C280.84 212.326 280.575 212.061 280.249 212.061H260.942Z" fill="url(#paint6_linear_1904_28412)" fill-opacity="0.2"/>
</g>
<mask id="mask9_1904_28412" style="mask-type:alpha" maskUnits="userSpaceOnUse" x="248" y="212" width="33" height="29">
<path d="M249.266 240.436C248.94 240.436 248.676 240.172 248.676 239.846V225.666C248.676 218.164 254.178 212.061 260.942 212.061H280.25C280.575 212.061 280.841 212.327 280.841 212.652C280.841 212.978 280.575 213.242 280.25 213.242H260.942C254.829 213.242 249.857 218.815 249.857 225.666V239.846C249.857 240.172 249.592 240.436 249.266 240.436Z" fill="white"/>
</mask>
<g mask="url(#mask9_1904_28412)">
<path fill-rule="evenodd" clip-rule="evenodd" d="M249.266 240.436C248.94 240.436 248.676 240.172 248.676 239.846V225.666C248.676 218.164 254.178 212.061 260.942 212.061H280.25C280.575 212.061 280.841 212.327 280.841 212.652C280.841 212.978 280.575 213.242 280.25 213.242H260.942C254.829 213.242 249.857 218.815 249.857 225.666V239.846C249.857 240.172 249.592 240.436 249.266 240.436Z" fill="url(#paint7_linear_1904_28412)"/>
</g>
<mask id="mask10_1904_28412" style="mask-type:alpha" maskUnits="userSpaceOnUse" x="248" y="248" width="2" height="8">
<path d="M249.266 255.472C248.94 255.472 248.676 255.208 248.676 254.882V249.105C248.676 248.779 248.94 248.515 249.266 248.515C249.592 248.515 249.857 248.779 249.857 249.105V254.882C249.857 255.208 249.592 255.472 249.266 255.472Z" fill="white"/>
</mask>
<g mask="url(#mask10_1904_28412)">
<path fill-rule="evenodd" clip-rule="evenodd" d="M249.266 255.472C248.94 255.472 248.676 255.208 248.676 254.882V249.105C248.676 248.779 248.94 248.515 249.266 248.515C249.592 248.515 249.857 248.779 249.857 249.105V254.882C249.857 255.208 249.592 255.472 249.266 255.472Z" fill="url(#paint8_linear_1904_28412)"/>
</g>
<mask id="mask11_1904_28412" style="mask-type:alpha" maskUnits="userSpaceOnUse" x="240" y="102" width="119" height="224">
<path d="M240.132 302.668L300.405 187.195H288.056C285.779 187.195 284.527 184.548 285.971 182.788L350.211 104.493C352.995 101.099 358.495 103.251 358.237 107.633L353.721 184.197C353.462 188.579 349.576 191.846 345.214 191.347L336.604 190.362L276.8 319.875C275.244 323.246 271.869 325.406 268.156 325.406H247.427L240.132 302.668Z" fill="white"/>
</mask>
<g mask="url(#mask11_1904_28412)">
<path fill-rule="evenodd" clip-rule="evenodd" d="M240.132 302.668L300.405 187.195H288.056C285.779 187.195 284.527 184.548 285.971 182.788L350.211 104.493C352.995 101.099 358.495 103.251 358.237 107.633L353.721 184.197C353.462 188.579 349.576 191.846 345.214 191.347L336.604 190.362L276.8 319.875C275.244 323.246 271.869 325.406 268.156 325.406H247.427L240.132 302.668Z" fill="url(#paint9_linear_1904_28412)"/>
</g>
<mask id="mask12_1904_28412" style="mask-type:alpha" maskUnits="userSpaceOnUse" x="190" y="205" width="87" height="121">
<path d="M190.298 221.682L232.85 316.206C235.37 321.804 240.939 325.406 247.079 325.406H269.016C271.926 325.406 274.609 323.827 276.02 321.281L276.8 319.875C274.443 319.875 272.285 318.553 271.214 316.454L214.518 205.367L190.298 221.682Z" fill="white"/>
</mask>
<g mask="url(#mask12_1904_28412)">
<path fill-rule="evenodd" clip-rule="evenodd" d="M190.298 221.682L232.85 316.206C235.37 321.804 240.939 325.406 247.079 325.406H269.016C271.926 325.406 274.609 323.827 276.02 321.281L276.8 319.875C274.443 319.875 272.285 318.553 271.214 316.454L214.518 205.367L190.298 221.682Z" fill="url(#paint10_linear_1904_28412)"/>
</g>
<mask id="mask13_1904_28412" style="mask-type:alpha" maskUnits="userSpaceOnUse" x="105" y="194" width="116" height="131">
<path d="M220.245 216.587C215.978 213.219 209.744 214.209 206.731 218.735L144.168 312.732C139.156 320.26 130.712 324.783 121.669 324.783H112.865L105.701 304.145C105.701 304.145 163.864 214.963 178.854 201.472C178.854 201.472 193.784 188.018 208.504 198.191C212.392 200.878 215.345 204.714 217.148 209.083L220.245 216.587Z" fill="white"/>
</mask>
<g mask="url(#mask13_1904_28412)">
<path fill-rule="evenodd" clip-rule="evenodd" d="M220.245 216.587C215.978 213.219 209.744 214.209 206.731 218.735L144.168 312.732C139.156 320.26 130.712 324.783 121.669 324.783H112.865L105.701 304.145C105.701 304.145 163.864 214.963 178.854 201.472C178.854 201.472 193.784 188.018 208.504 198.191C212.392 200.878 215.345 204.714 217.148 209.083L220.245 216.587Z" fill="url(#paint11_linear_1904_28412)"/>
</g>
<mask id="mask14_1904_28412" style="mask-type:alpha" maskUnits="userSpaceOnUse" x="37" y="233" width="108" height="93">
<path d="M37.6553 248.637C37.6553 248.637 48.1279 235.547 68.4218 233.511C68.4218 233.511 78.0605 236.796 97.2628 271.204C116.466 305.612 129.212 321.302 144.168 312.732L142.93 314.788C138.848 321.564 131.517 325.707 123.608 325.707H115.336C106.227 325.707 98.3186 311.678 93 304.284C78.0548 283.509 46.836 251.863 37.6553 248.637Z" fill="white"/>
</mask>
<g mask="url(#mask14_1904_28412)">
<path fill-rule="evenodd" clip-rule="evenodd" d="M37.6553 248.637C37.6553 248.637 48.1279 235.547 68.4218 233.511C68.4218 233.511 78.0605 236.796 97.2628 271.204C116.466 305.612 129.212 321.302 144.168 312.732L142.93 314.788C138.848 321.564 131.517 325.707 123.608 325.707H115.336C106.227 325.707 98.3186 311.678 93 304.284C78.0548 283.509 46.836 251.863 37.6553 248.637Z" fill="url(#paint12_linear_1904_28412)"/>
</g>
<path fill-rule="evenodd" clip-rule="evenodd" d="M350.989 131.836C350.967 131.836 350.943 131.834 350.921 131.831C350.598 131.795 350.365 131.503 350.401 131.178L350.825 127.44C350.862 127.116 351.154 126.883 351.478 126.921C351.802 126.957 352.035 127.249 351.998 127.573L351.574 131.311C351.54 131.612 351.284 131.836 350.989 131.836Z" fill="#91B3FA"/>
<path fill-rule="evenodd" clip-rule="evenodd" d="M297.363 179.026C297.237 179.026 297.11 178.986 297.003 178.903C296.745 178.704 296.696 178.333 296.895 178.076L349.941 109.149C350.566 108.338 351.583 108.062 352.53 108.446C353.48 108.83 354.019 109.734 353.903 110.751L352.967 119.014C352.931 119.337 352.636 119.569 352.315 119.534C351.99 119.497 351.758 119.205 351.795 118.881L352.731 110.619C352.796 110.041 352.442 109.683 352.088 109.54C351.734 109.397 351.231 109.408 350.877 109.869L297.83 178.795C297.714 178.946 297.54 179.026 297.363 179.026Z" fill="#91B3FA"/>
<path fill-rule="evenodd" clip-rule="evenodd" d="M177.022 251.284C176.908 251.284 176.794 251.252 176.693 251.183C176.423 251 176.351 250.634 176.534 250.364L203.969 209.699C204.951 208.242 206.583 207.453 208.335 207.584C210.088 207.716 211.583 208.745 212.335 210.333C212.474 210.628 212.349 210.979 212.054 211.119C211.76 211.26 211.408 211.133 211.269 210.838C210.701 209.638 209.571 208.861 208.247 208.761C206.922 208.66 205.689 209.258 204.946 210.359L177.512 251.024C177.398 251.192 177.212 251.284 177.022 251.284Z" fill="#91B3FA"/>
<path fill-rule="evenodd" clip-rule="evenodd" d="M169.893 261.851C169.779 261.851 169.665 261.818 169.564 261.75C169.294 261.568 169.222 261.202 169.405 260.931L171.164 258.324C171.347 258.053 171.714 257.982 171.983 258.165C172.253 258.346 172.325 258.714 172.143 258.984L170.383 261.592C170.269 261.76 170.083 261.851 169.893 261.851Z" fill="#91B3FA"/>
<mask id="mask15_1904_28412" style="mask-type:alpha" maskUnits="userSpaceOnUse" x="239" y="5" width="70" height="39">
<path d="M239.705 8.46338C252.765 4.59343 265.22 5.63704 271.438 7.28142C278.789 9.2253 281.228 10.684 287.736 11.4181C293.52 12.0706 308.894 7.39044 306.925 10.9109C304.36 15.4998 305.062 33.4723 308.892 40.9655C309.45 42.0553 291.244 44.7539 280.214 42.7384C265.007 39.9598 260.11 35.3 250.126 37.4199C245.519 38.3978 242.019 40.3537 239.783 41.852C240.801 30.7717 238.685 19.5437 239.705 8.46338Z" fill="white"/>
</mask>
<g mask="url(#mask15_1904_28412)">
<path fill-rule="evenodd" clip-rule="evenodd" d="M239.705 8.46338C252.765 4.59343 265.22 5.63704 271.438 7.28142C278.789 9.2253 281.228 10.684 287.736 11.4181C293.52 12.0706 308.894 7.39044 306.925 10.9109C304.36 15.4998 305.062 33.4723 308.892 40.9655C309.45 42.0553 291.244 44.7539 280.214 42.7384C265.007 39.9598 260.11 35.3 250.126 37.4199C245.519 38.3978 242.019 40.3537 239.783 41.852C240.801 30.7717 238.685 19.5437 239.705 8.46338Z" fill="#FFC331"/>
</g>
<path fill-rule="evenodd" clip-rule="evenodd" d="M239.868 157.545C239.542 157.545 239.278 157.28 239.278 156.954V4.90023C239.278 4.57442 239.542 4.31006 239.868 4.31006C240.194 4.31006 240.458 4.57442 240.458 4.90023V156.954C240.458 157.28 240.194 157.545 239.868 157.545Z" fill="#26264F"/>
<mask id="mask16_1904_28412" style="mask-type:alpha" maskUnits="userSpaceOnUse" x="174" y="150" width="11" height="8">
<path d="M174.488 157.562C174.487 157.483 174.492 157.403 174.513 157.323C175.706 152.591 180.584 150.167 180.584 150.167L182.931 150.35C184.281 154.521 185.151 156.556 184.935 157.695C184.929 157.728 184.919 157.758 184.911 157.788C182.974 157.961 178.989 158.074 174.488 157.562Z" fill="white"/>
</mask>
<g mask="url(#mask16_1904_28412)">
<path fill-rule="evenodd" clip-rule="evenodd" d="M174.488 157.562C174.487 157.483 174.492 157.403 174.513 157.323C175.706 152.591 180.584 150.167 180.584 150.167L182.931 150.35C184.281 154.521 185.151 156.556 184.935 157.695C184.929 157.728 184.919 157.758 184.911 157.788C182.974 157.961 178.989 158.074 174.488 157.562Z" fill="url(#paint13_linear_1904_28412)"/>
</g>
<mask id="mask17_1904_28412" style="mask-type:alpha" maskUnits="userSpaceOnUse" x="174" y="157" width="11" height="2">
<path d="M184.939 157.788C184.835 158.168 184.554 158.465 184.194 158.54C181.441 159.119 177.064 158.654 175.225 158.413C174.82 158.36 174.524 157.985 174.517 157.562C179.019 158.074 183.004 157.961 184.939 157.788Z" fill="white"/>
</mask>
<g mask="url(#mask17_1904_28412)">
<path fill-rule="evenodd" clip-rule="evenodd" d="M184.939 157.788C184.835 158.168 184.554 158.465 184.194 158.54C181.441 159.119 177.064 158.654 175.225 158.413C174.82 158.36 174.524 157.985 174.517 157.562C179.019 158.074 183.004 157.961 184.939 157.788Z" fill="url(#paint14_linear_1904_28412)"/>
</g>
<mask id="mask18_1904_28412" style="mask-type:alpha" maskUnits="userSpaceOnUse" x="178" y="146" width="5" height="7">
<path d="M178.652 146.514L179.68 151.462C179.754 151.824 180.034 152.095 180.371 152.128C180.784 152.166 181.372 152.188 181.963 152.102C182.493 152.024 182.862 151.485 182.768 150.907L182.054 146.514H178.652Z" fill="white"/>
</mask>
<g mask="url(#mask18_1904_28412)">
<path fill-rule="evenodd" clip-rule="evenodd" d="M178.652 146.514L179.68 151.462C179.754 151.824 180.034 152.095 180.371 152.128C180.784 152.166 181.372 152.188 181.963 152.102C182.493 152.024 182.862 151.485 182.768 150.907L182.054 146.514H178.652Z" fill="#EEA886"/>
</g>
<mask id="mask19_1904_28412" style="mask-type:alpha" maskUnits="userSpaceOnUse" x="200" y="157" width="16" height="2">
<path d="M204.819 157.748C202.313 157.678 201.016 157.382 200.345 157.108C200.344 157.358 200.345 157.612 200.353 157.873C200.363 158.155 200.57 158.378 200.826 158.377L214.589 158.289C215.028 158.285 215.284 157.776 215.095 157.373C213.29 157.522 208.694 157.856 204.819 157.748Z" fill="white"/>
</mask>
<g mask="url(#mask19_1904_28412)">
<path fill-rule="evenodd" clip-rule="evenodd" d="M204.819 157.748C202.313 157.678 201.016 157.382 200.345 157.108C200.344 157.358 200.345 157.612 200.353 157.873C200.363 158.155 200.57 158.378 200.826 158.377L214.589 158.289C215.028 158.285 215.284 157.776 215.095 157.373C213.29 157.522 208.694 157.856 204.819 157.748Z" fill="url(#paint15_linear_1904_28412)"/>
</g>
<mask id="mask20_1904_28412" style="mask-type:alpha" maskUnits="userSpaceOnUse" x="200" y="150" width="16" height="8">
<path d="M215.128 157.373C215.111 157.338 215.097 157.302 215.074 157.27C213.858 155.572 210.763 152.189 204.646 150.723L201.711 150.63C201.711 150.63 200.404 152.901 200.38 157.108C201.05 157.382 202.346 157.678 204.853 157.748C208.727 157.856 213.324 157.522 215.128 157.373Z" fill="white"/>
</mask>
<g mask="url(#mask20_1904_28412)">
<path fill-rule="evenodd" clip-rule="evenodd" d="M215.128 157.373C215.111 157.338 215.097 157.302 215.074 157.27C213.858 155.572 210.763 152.189 204.646 150.723L201.711 150.63C201.711 150.63 200.404 152.901 200.38 157.108C201.05 157.382 202.346 157.678 204.853 157.748C208.727 157.856 213.324 157.522 215.128 157.373Z" fill="url(#paint16_linear_1904_28412)"/>
</g>
<mask id="mask21_1904_28412" style="mask-type:alpha" maskUnits="userSpaceOnUse" x="201" y="145" width="4" height="7">
<path d="M201.166 146.182C201.199 146.401 201.601 149.725 201.757 151.015C201.793 151.321 202.015 151.558 202.296 151.592C202.795 151.651 203.604 151.706 204.311 151.56C204.693 151.482 204.969 151.116 204.969 150.689V145.47L201.166 146.182Z" fill="white"/>
</mask>
<g mask="url(#mask21_1904_28412)">
<path fill-rule="evenodd" clip-rule="evenodd" d="M201.166 146.182C201.199 146.401 201.601 149.725 201.757 151.015C201.793 151.321 202.015 151.558 202.296 151.592C202.795 151.651 203.604 151.706 204.311 151.56C204.693 151.482 204.969 151.116 204.969 150.689V145.47L201.166 146.182Z" fill="#EEA886"/>
</g>
<mask id="mask22_1904_28412" style="mask-type:alpha" maskUnits="userSpaceOnUse" x="177" y="81" width="29" height="69">
<path d="M180.613 81.5562C180.613 81.5562 175.917 123.296 178.525 149.384C178.525 149.384 181.657 149.384 183.222 148.862C183.222 148.862 188.102 108.051 189.679 96.3732C189.739 95.9322 190.367 95.9124 190.454 96.3488C192.401 106.173 200.052 144.703 200.962 148.341C200.962 148.341 203.57 149.384 205.657 148.341C205.657 148.341 201.483 92.5136 198.353 82.5999L180.613 81.5562Z" fill="white"/>
</mask>
<g mask="url(#mask22_1904_28412)">
<path fill-rule="evenodd" clip-rule="evenodd" d="M180.613 81.5562C180.613 81.5562 175.917 123.296 178.525 149.384C178.525 149.384 181.657 149.384 183.222 148.862C183.222 148.862 188.102 108.051 189.679 96.3732C189.739 95.9322 190.367 95.9124 190.454 96.3488C192.401 106.173 200.052 144.703 200.962 148.341C200.962 148.341 203.57 149.384 205.657 148.341C205.657 148.341 201.483 92.5136 198.353 82.5999L180.613 81.5562Z" fill="url(#paint17_linear_1904_28412)"/>
</g>
<mask id="mask23_1904_28412" style="mask-type:alpha" maskUnits="userSpaceOnUse" x="171" y="32" width="37" height="52">
<path d="M171.222 33.0335C171.222 33.0335 187.008 30.9019 201.413 33.0762C204.978 33.6142 207.461 36.8967 206.978 40.4689L205.657 50.2512C205.657 50.2512 201.483 72.6862 198.353 82.5999C198.353 82.5999 186.352 84.6874 180.613 81.5562C180.613 81.5562 175.917 53.3817 173.308 49.2077C173.308 49.2077 170.699 38.251 171.222 33.0335Z" fill="white"/>
</mask>
<g mask="url(#mask23_1904_28412)">
<path fill-rule="evenodd" clip-rule="evenodd" d="M171.222 33.0335C171.222 33.0335 187.008 30.9019 201.413 33.0762C204.978 33.6142 207.461 36.8967 206.978 40.4689L205.657 50.2512C205.657 50.2512 201.483 72.6862 198.353 82.5999C198.353 82.5999 186.352 84.6874 180.613 81.5562C180.613 81.5562 175.917 53.3817 173.308 49.2077C173.308 49.2077 170.699 38.251 171.222 33.0335Z" fill="#377DFF"/>
</g>
<mask id="mask24_1904_28412" style="mask-type:alpha" maskUnits="userSpaceOnUse" x="183" y="18" width="10" height="16">
<path d="M184.995 18.7769L183.02 32.1337C183.02 32.1337 188.538 34.6686 192.402 32.0251L191.57 22.5985L184.995 18.7769Z" fill="white"/>
</mask>
<g mask="url(#mask24_1904_28412)">
<path fill-rule="evenodd" clip-rule="evenodd" d="M184.995 18.7769L183.02 32.1337C183.02 32.1337 188.538 34.6686 192.402 32.0251L191.57 22.5985L184.995 18.7769Z" fill="#EEA886"/>
</g>
<mask id="mask25_1904_28412" style="mask-type:alpha" maskUnits="userSpaceOnUse" x="184" y="9" width="12" height="16">
<path d="M193.499 10.079C193.562 10.1918 194.752 16.9272 195.484 21.0964C195.788 22.8189 194.521 24.4191 192.775 24.5224L191.177 24.617C188.239 24.7911 185.652 22.6994 185.206 19.7906L184.051 12.2384C184.051 12.2384 191.989 7.33971 193.499 10.079Z" fill="white"/>
</mask>
<g mask="url(#mask25_1904_28412)">
<path fill-rule="evenodd" clip-rule="evenodd" d="M193.499 10.079C193.562 10.1918 194.752 16.9272 195.484 21.0964C195.788 22.8189 194.521 24.4191 192.775 24.5224L191.177 24.617C188.239 24.7911 185.652 22.6994 185.206 19.7906L184.051 12.2384C184.051 12.2384 191.989 7.33971 193.499 10.079Z" fill="#EEA886"/>
</g>
<mask id="mask26_1904_28412" style="mask-type:alpha" maskUnits="userSpaceOnUse" x="181" y="4" width="16" height="15">
<path d="M182.327 12.2572C181.715 11.4949 181.179 10.2623 182.485 8.96623C183.807 7.65395 185.305 7.98103 186.257 8.42121C186.677 8.61588 187.196 8.52966 187.496 8.17546C187.629 8.01815 187.827 7.9111 188.12 7.94391C188.673 8.00605 189.166 7.64103 189.233 7.08844C189.345 6.14129 189.849 5.02611 191.524 4.70264C194.595 4.10898 196.128 7.18281 196.073 9.34335C196.019 11.5038 192.651 11.958 190.742 11.5995C189.338 11.336 188.126 12.5689 187.58 13.242C187.382 13.4864 187.308 13.8065 187.38 14.1128L187.865 16.1999C187.529 16.8487 187.199 17.5112 186.726 18.0649C186.386 18.4635 186.013 18.6835 185.617 18.7766C185.045 17.7107 183.444 17.5298 182.699 17.506C182.414 17.4969 182.149 17.3714 181.961 17.1566C181.399 16.5126 180.521 15.0756 182.203 13.6647C182.621 13.314 182.669 12.6827 182.327 12.2572Z" fill="white"/>
</mask>
<g mask="url(#mask26_1904_28412)">
<path fill-rule="evenodd" clip-rule="evenodd" d="M182.326 12.2572C181.714 11.4949 181.178 10.2623 182.484 8.96623C183.806 7.65395 185.304 7.98103 186.256 8.42121C186.676 8.61588 187.195 8.52966 187.495 8.17546C187.628 8.01815 187.826 7.9111 188.119 7.94391C188.672 8.00605 189.165 7.64103 189.232 7.08844C189.344 6.14129 189.848 5.02611 191.523 4.70264C194.594 4.10898 196.127 7.18281 196.072 9.34335C196.018 11.5038 192.65 11.958 190.741 11.5995C189.337 11.336 188.125 12.5689 187.579 13.242C187.381 13.4864 187.307 13.8065 187.379 14.1128L187.864 16.1999C187.528 16.8487 187.198 17.5112 186.725 18.0649C186.385 18.4635 186.012 18.6835 185.616 18.7766C185.044 17.7107 183.443 17.5298 182.698 17.506C182.413 17.4969 182.148 17.3714 181.96 17.1566C181.398 16.5126 180.52 15.0756 182.202 13.6647C182.62 13.314 182.668 12.6827 182.326 12.2572Z" fill="#363636"/>
</g>
<mask id="mask27_1904_28412" style="mask-type:alpha" maskUnits="userSpaceOnUse" x="182" y="16" width="5" height="6">
<path d="M186.171 21.011C186.171 21.011 186.105 17.2423 184.58 16.8883C183.054 16.5343 181.409 17.6371 182.714 19.8934C184.336 22.7 186.171 21.011 186.171 21.011Z" fill="white"/>
</mask>
<g mask="url(#mask27_1904_28412)">
<path fill-rule="evenodd" clip-rule="evenodd" d="M186.171 21.011C186.171 21.011 186.105 17.2423 184.58 16.8883C183.054 16.5343 181.409 17.6371 182.714 19.8934C184.336 22.7 186.171 21.011 186.171 21.011Z" fill="#EEA886"/>
</g>
<mask id="mask28_1904_28412" style="mask-type:alpha" maskUnits="userSpaceOnUse" x="151" y="7" width="30" height="45">
<path d="M180.146 51.0493C180.146 51.0493 135.347 38.8549 157.591 7.49414L159.096 9.62512C159.096 9.62512 152.394 30.8662 174.595 32.8844C174.595 32.8844 180.346 47.7145 180.146 51.0493Z" fill="white"/>
</mask>
<g mask="url(#mask28_1904_28412)">
<path fill-rule="evenodd" clip-rule="evenodd" d="M180.146 51.0493C180.146 51.0493 135.347 38.8549 157.591 7.49414L159.096 9.62512C159.096 9.62512 152.394 30.8662 174.595 32.8844C174.595 32.8844 180.346 47.7145 180.146 51.0493Z" fill="#377DFF"/>
</g>
<mask id="mask29_1904_28412" style="mask-type:alpha" maskUnits="userSpaceOnUse" x="157" y="1" width="8" height="9">
<path d="M157.439 7.65557C157.439 7.65557 156.935 1.60064 159.962 1.09611C162.99 0.591465 163.999 3.61899 164.503 5.13269C165.008 6.64651 159.962 9.67392 158.952 9.67392C157.944 9.67392 157.439 7.65557 157.439 7.65557Z" fill="white"/>
</mask>
<g mask="url(#mask29_1904_28412)">
<path fill-rule="evenodd" clip-rule="evenodd" d="M157.439 7.65557C157.439 7.65557 156.935 1.60064 159.962 1.09611C162.99 0.591465 163.999 3.61899 164.503 5.13269C165.008 6.64651 159.962 9.67392 158.952 9.67392C157.944 9.67392 157.439 7.65557 157.439 7.65557Z" fill="#EEA886"/>
</g>
<mask id="mask30_1904_28412" style="mask-type:alpha" maskUnits="userSpaceOnUse" x="204" y="37" width="36" height="27">
<path d="M204.288 54.3982C204.288 54.3982 210.078 77.3159 239.124 52.0686L236.898 50.7091C236.898 50.7091 211.325 68.8509 206.819 37.9043C206.819 37.9043 204.288 51.6149 204.288 54.3982Z" fill="white"/>
</mask>
<g mask="url(#mask30_1904_28412)">
<path fill-rule="evenodd" clip-rule="evenodd" d="M204.288 54.3982C204.288 54.3982 210.078 77.3159 239.124 52.0686L236.898 50.7091C236.898 50.7091 211.325 68.8509 206.819 37.9043C206.819 37.9043 204.288 51.6149 204.288 54.3982Z" fill="#377DFF"/>
</g>
<mask id="mask31_1904_28412" style="mask-type:alpha" maskUnits="userSpaceOnUse" x="236" y="44" width="10" height="9">
<path d="M238.973 52.2305C238.973 52.2305 245.048 52.33 245.35 49.2756C245.651 46.2212 242.563 45.4162 241.019 45.0137C239.475 44.6113 236.791 49.8479 236.858 50.8548C236.925 51.8617 238.973 52.2305 238.973 52.2305Z" fill="white"/>
</mask>
<g mask="url(#mask31_1904_28412)">
<path fill-rule="evenodd" clip-rule="evenodd" d="M238.973 52.2305C238.973 52.2305 245.048 52.33 245.35 49.2756C245.651 46.2212 242.563 45.4162 241.019 45.0137C239.475 44.6113 236.791 49.8479 236.858 50.8548C236.925 51.8617 238.973 52.2305 238.973 52.2305Z" fill="#EEA886"/>
</g>
<path opacity="0.5" fill-rule="evenodd" clip-rule="evenodd" d="M396.239 326.368V326.575C396.239 326.907 396.036 327.178 395.792 327.178H1.77369C1.52827 327.178 1.32617 326.907 1.32617 326.575V326.368C1.32617 326.037 1.52827 325.764 1.77369 325.764H395.792C396.036 325.764 396.239 326.037 396.239 326.368Z" fill="white"/>
</g>
<defs>
<linearGradient id="paint0_linear_1904_28412" x1="234" y1="241.304" x2="148.78" y2="241.304" gradientUnits="userSpaceOnUse">
<stop stop-color="#2BD4FA"/>
<stop offset="1" stop-color="#8224E3" stop-opacity="0.7"/>
</linearGradient>
<linearGradient id="paint1_linear_1904_28412" x1="298.735" y1="171.877" x2="468.976" y2="58.1314" gradientUnits="userSpaceOnUse">
<stop stop-color="#FFE4E3"/>
<stop offset="1" stop-color="#FFDDD9"/>
</linearGradient>
<linearGradient id="paint2_linear_1904_28412" x1="159.941" y1="170.676" x2="221.088" y2="129.822" gradientUnits="userSpaceOnUse">
<stop stop-color="#FFE4E3"/>
<stop offset="1" stop-color="#FFDDD9"/>
</linearGradient>
<linearGradient id="paint3_linear_1904_28412" x1="135.615" y1="266.182" x2="62.1836" y2="266.182" gradientUnits="userSpaceOnUse">
<stop stop-color="#2BD4FA"/>
<stop offset="1" stop-color="#8224E3" stop-opacity="0.7"/>
</linearGradient>
<linearGradient id="paint4_linear_1904_28412" x1="158.322" y1="211.518" x2="54.1716" y2="317.116" gradientUnits="userSpaceOnUse">
<stop stop-color="#FFE1DF"/>
<stop offset="1" stop-color="#FFD7D4"/>
</linearGradient>
<linearGradient id="paint5_linear_1904_28412" x1="70.8376" y1="207.322" x2="9.69535" y2="269.314" gradientUnits="userSpaceOnUse">
<stop stop-color="#FFE1DF"/>
<stop offset="1" stop-color="#FFD7D4"/>
</linearGradient>
<linearGradient id="paint6_linear_1904_28412" x1="316.635" y1="266.182" x2="243.204" y2="266.182" gradientUnits="userSpaceOnUse">
<stop stop-color="#2BD4FA"/>
<stop offset="1" stop-color="#8224E3" stop-opacity="0.7"/>
</linearGradient>
<linearGradient id="paint7_linear_1904_28412" x1="310.982" y1="183.017" x2="255.125" y2="358.292" gradientUnits="userSpaceOnUse">
<stop stop-color="#FFE4E3"/>
<stop offset="1" stop-color="#FFDDD9"/>
</linearGradient>
<linearGradient id="paint8_linear_1904_28412" x1="251.045" y1="170.698" x2="187.377" y2="370.508" gradientUnits="userSpaceOnUse">
<stop stop-color="#FFE4E3"/>
<stop offset="1" stop-color="#FFDDD9"/>
</linearGradient>
<linearGradient id="paint9_linear_1904_28412" x1="316.292" y1="98.0954" x2="225.767" y2="292.178" gradientUnits="userSpaceOnUse">
<stop stop-color="#377DFF"/>
<stop offset="1" stop-color="#283074"/>
</linearGradient>
<linearGradient id="paint10_linear_1904_28412" x1="248.571" y1="327.575" x2="191.892" y2="230.114" gradientUnits="userSpaceOnUse">
<stop stop-color="#377DFF"/>
<stop offset="1" stop-color="#283074"/>
</linearGradient>
<linearGradient id="paint11_linear_1904_28412" x1="202.867" y1="194.011" x2="106.038" y2="308.641" gradientUnits="userSpaceOnUse">
<stop stop-color="#377DFF"/>
<stop offset="1" stop-color="#283074"/>
</linearGradient>
<linearGradient id="paint12_linear_1904_28412" x1="143.811" y1="320.335" x2="30.4621" y2="205.611" gradientUnits="userSpaceOnUse">
<stop stop-color="#377DFF"/>
<stop offset="1" stop-color="#283074"/>
</linearGradient>
<linearGradient id="paint13_linear_1904_28412" x1="184.968" y1="154.051" x2="174.488" y2="154.051" gradientUnits="userSpaceOnUse">
<stop stop-color="#08005D"/>
<stop offset="1" stop-color="#1A0F91"/>
</linearGradient>
<linearGradient id="paint14_linear_1904_28412" x1="158.588" y1="157.945" x2="182.646" y2="176.835" gradientUnits="userSpaceOnUse">
<stop stop-color="#4F52FF"/>
<stop offset="1" stop-color="#4042E1"/>
</linearGradient>
<linearGradient id="paint15_linear_1904_28412" x1="217.016" y1="157.688" x2="193.853" y2="175.875" gradientUnits="userSpaceOnUse">
<stop stop-color="#4F52FF"/>
<stop offset="1" stop-color="#4042E1"/>
</linearGradient>
<linearGradient id="paint16_linear_1904_28412" x1="200.38" y1="154.2" x2="215.128" y2="154.2" gradientUnits="userSpaceOnUse">
<stop stop-color="#08005D"/>
<stop offset="1" stop-color="#1A0F91"/>
</linearGradient>
<linearGradient id="paint17_linear_1904_28412" x1="198.06" y1="67.4082" x2="146.287" y2="135.551" gradientUnits="userSpaceOnUse">
<stop stop-color="#08005D"/>
<stop offset="1" stop-color="#1A0F91"/>
</linearGradient>
<clipPath id="clip0_1904_28412">
<rect width="396.147" height="327.037" fill="white" transform="translate(0.603516 0.53418)"/>
</clipPath>
</defs>
</svg>
