<svg width="64" height="64" viewBox="0 0 64 64" fill="none" xmlns="http://www.w3.org/2000/svg">
<mask id="mask0" style="mask-type:alpha" maskUnits="userSpaceOnUse" x="0" y="0" width="64" height="64">
<rect width="64" height="64" fill="#C4C4C4"/>
</mask>
<g mask="url(#mask0)">
<ellipse cx="31.2723" cy="32.2072" rx="31.1062" ry="31.5" fill="url(#paint0_linear)" fill-opacity="0.1"/>
<path fill-rule="evenodd" clip-rule="evenodd" d="M12.9536 49.2652C12.9126 49.257 12.8912 49.2525 12.8912 49.2525C12.8912 49.2525 11.0403 40.5358 14.4027 37.1309C15.1261 36.3983 16.0688 36.0015 17.1025 35.8656L18.5766 37.3584C18.5143 37.3976 18.4475 37.4281 18.3809 37.4584C18.2706 37.5088 18.1608 37.5588 18.0728 37.648C15.7039 40.0468 17.6574 44.4259 17.6574 44.4259C17.6574 44.4259 17.6754 44.4341 17.7097 44.4489L12.9536 49.2652ZM23.3871 38.6995L18.1204 33.3662L20.2925 28.0569L7.34531 29.5152C7.34531 29.5152 10.5137 19.8874 13.6844 16.6766C16.1969 14.1323 22.7862 14.4826 26.046 14.8321C26.1029 14.7669 26.1595 14.7014 26.2162 14.6358C26.4177 14.4023 26.6197 14.1684 26.8358 13.9496C42.5235 -1.93676 59.9544 1.59353 59.9544 1.59353C59.9544 1.59353 59.9586 1.61512 59.9662 1.65747L47.7901 13.9877C47.7777 13.9749 47.7653 13.9622 47.7528 13.9495C45.8267 11.9991 42.7066 11.9991 40.7805 13.9496C38.8544 15.9 38.8544 19.0596 40.7805 21.0101C40.793 21.0228 40.8055 21.0354 40.8182 21.0479L23.3871 38.6995Z" fill="#377DFF"/>
<path fill-rule="evenodd" clip-rule="evenodd" d="M12.9535 49.2652C12.9616 49.3067 12.9661 49.3284 12.9661 49.3284C12.9661 49.3284 21.5737 51.2026 24.9361 47.7977C25.6595 47.0651 26.0513 46.1105 26.1856 45.0638L24.7114 43.571C24.6727 43.6341 24.6427 43.7017 24.6127 43.7691C24.563 43.8809 24.5135 43.9921 24.4255 44.0812C22.0566 46.4801 17.7323 44.5018 17.7323 44.5018C17.7323 44.5018 17.7242 44.4836 17.7096 44.4489L12.9535 49.2652ZM23.3871 38.6996L28.6538 44.033L33.8967 41.8334L32.4566 54.9445C32.4566 54.9445 41.9641 51.7359 45.1348 48.5251C47.6472 45.9808 47.3013 39.3081 46.9562 36.0071C47.0205 35.9494 47.0853 35.8921 47.1501 35.8347C47.3806 35.6306 47.6115 35.4261 47.8277 35.2072C63.5154 19.3209 60.0293 1.66946 60.0293 1.66946C60.0293 1.66946 60.0079 1.66514 59.9661 1.65749L47.79 13.9877C47.8026 14.0002 47.8152 14.0128 47.8277 14.0255C49.7538 15.976 49.7538 19.1356 47.8277 21.0861C45.9016 23.0365 42.7815 23.0365 40.8554 21.0861C40.8429 21.0734 40.8304 21.0607 40.8181 21.0479L23.3871 38.6996Z" fill="#326EDD"/>
</g>
<defs>
<linearGradient id="paint0_linear" x1="21.3973" y1="60.2072" x2="36.5528" y2="12.3158" gradientUnits="userSpaceOnUse">
<stop offset="0.411458" stop-color="#363636"/>
<stop offset="1" stop-color="#ACC7F8"/>
</linearGradient>
</defs>
</svg>
