<svg width="64" height="64" viewBox="0 0 64 64" fill="none" xmlns="http://www.w3.org/2000/svg">
<mask id="mask0" style="mask-type:alpha" maskUnits="userSpaceOnUse" x="0" y="0" width="64" height="64">
<rect width="64" height="64" fill="#C4C4C4"/>
</mask>
<g mask="url(#mask0)">
<circle cx="31.5" cy="32.5" r="31.5" fill="url(#paint0_linear)" fill-opacity="0.1"/>
<path fill-rule="evenodd" clip-rule="evenodd" d="M12.9496 49.5579C12.908 49.5498 12.8864 49.5452 12.8864 49.5452C12.8864 49.5452 11.0121 40.8286 14.4171 37.4237C15.1496 36.6911 16.1042 36.2943 17.151 36.1584L18.6438 37.6512C18.5807 37.6904 18.513 37.7208 18.4456 37.7512C18.3339 37.8015 18.2227 37.8516 18.1335 37.9408C15.7347 40.3396 17.7129 44.7187 17.7129 44.7187C17.7129 44.7187 17.7311 44.7269 17.7659 44.7417L12.9496 49.5579ZM23.5152 38.9923L18.1818 33.6589L20.3813 28.3497L7.2703 29.808C7.2703 29.808 10.4788 20.1801 13.6896 16.9693C16.2339 14.4251 22.9066 14.7754 26.2077 15.1249C26.2653 15.0597 26.3227 14.9941 26.38 14.9285C26.5842 14.6951 26.7886 14.4612 27.0075 14.2423C42.8938 -1.64398 60.5453 1.88631 60.5453 1.88631C60.5453 1.88631 60.5496 1.9079 60.5573 1.95026L48.227 14.2805C48.2145 14.2677 48.2019 14.255 48.1893 14.2423C46.2388 12.2918 43.0792 12.2918 41.1287 14.2423C39.1782 16.1928 39.1782 19.3524 41.1287 21.3029C41.1414 21.3156 41.1541 21.3282 41.1669 21.3407L23.5152 38.9923Z" fill="white"/>
<path fill-rule="evenodd" clip-rule="evenodd" d="M12.9496 49.558C12.9578 49.5995 12.9623 49.6212 12.9623 49.6212C12.9623 49.6212 21.6789 51.4954 25.0839 48.0905C25.8164 47.358 26.2132 46.4033 26.3491 45.3566L24.8563 43.8638C24.8171 43.9269 24.7867 43.9945 24.7563 44.0619C24.706 44.1737 24.6559 44.2849 24.5667 44.374C22.1679 46.7729 17.7888 44.7946 17.7888 44.7946C17.7888 44.7946 17.7806 44.7764 17.7659 44.7417L12.9496 49.558ZM23.5152 38.9924L28.8486 44.3258L34.1578 42.1262L32.6995 55.2373C32.6995 55.2373 42.3274 52.0287 45.5382 48.8179C48.0825 46.2736 47.7321 39.6009 47.3826 36.2999C47.4478 36.2422 47.5134 36.1849 47.579 36.1275C47.8125 35.9234 48.0463 35.7189 48.2652 35.5C64.1515 19.6137 60.6212 1.96227 60.6212 1.96227C60.6212 1.96227 60.5996 1.95795 60.5573 1.95029L48.227 14.2805C48.2398 14.293 48.2525 14.3056 48.2652 14.3183C50.2157 16.2688 50.2157 19.4284 48.2652 21.3789C46.3147 23.3294 43.1551 23.3294 41.2046 21.3789C41.1919 21.3662 41.1794 21.3535 41.1668 21.3407L23.5152 38.9924Z" fill="#E1E1E1"/>
</g>
<defs>
<linearGradient id="paint0_linear" x1="21.5" y1="60.5" x2="36.5" y2="12.5" gradientUnits="userSpaceOnUse">
<stop offset="0.411458" stop-color="white"/>
<stop offset="1" stop-color="white"/>
</linearGradient>
</defs>
</svg>
