<svg id="full" width="200" height="168" viewBox="0 0 200 168" fill="none" xmlns="http://www.w3.org/2000/svg">
  <path fill-rule="evenodd" clip-rule="evenodd" d="M143.858 5.87371C122.861 -8.60057 95.1897 4.5965 82.0536 35.3502L82.0438 35.373C81.4255 36.8213 80.3753 37.937 78.9901 38.6001C72.294 41.8057 65.8216 46.0932 59.8722 51.4501C32.2672 76.3058 26.3635 114.752 46.6855 137.322C67.0074 159.891 105.86 158.039 133.465 133.183C147.628 120.431 156.078 104.101 158.205 88.1738C158.291 87.533 158.447 86.9257 158.674 86.3645C171.031 55.9066 164.537 20.1287 143.858 5.87371Z" fill="black" fill-opacity="0.04"/>
  <path fill-rule="evenodd" clip-rule="evenodd" d="M83.5948 46.3368C83.5948 46.3368 81.8923 48.9222 81.1959 52.1746C80.8985 53.5637 80.5045 55.3188 81.2989 57.2256C81.4906 57.6859 82.472 60.1261 84.7988 60.7756C87.7129 61.5896 90.334 58.929 90.8816 58.3732C92.5842 56.645 93.055 54.6873 93.4962 52.8532C93.7192 51.9265 94.6255 48.1586 93.5346 43.948C93.302 43.051 92.9303 41.9448 92.817 40.2297C92.7253 38.8408 92.6594 37.626 93.2737 36.4463C93.8554 35.329 94.4295 35.4303 96.05 33.9349C96.9558 33.0997 98.4182 31.7504 99.2379 29.7488C99.825 28.315 99.3868 28.2445 100.16 25.7152C100.729 23.8519 101.014 22.9203 101.773 22.2577C102.966 21.2169 104.203 21.5167 104.712 20.529C105.006 19.9591 104.48 19.6963 104.553 18.382C104.59 17.7227 104.63 17.0068 105.15 16.4246C105.565 15.9592 106.319 15.5431 106.978 15.7299C107.531 15.8867 107.584 16.3462 108.038 16.5891C108.771 16.9812 109.735 16.3938 111.108 15.5812C112.523 14.7438 112.525 14.7256 113.603 14.1967C115.057 13.4827 115.526 13.4952 115.933 13.0184C116.845 11.9506 115.698 9.12442 114.271 7.30313C111.836 4.1932 107.532 2.67146 103.571 2.96584C98.0878 3.37351 94.8012 7.14545 94.0918 8.00763C91.7634 10.8384 91.1678 13.9767 90.865 15.5706C90.1025 19.5876 91.277 20.4446 90.1592 24.0409C89.7234 25.4428 88.9947 27.7873 87.0332 29.9903C85.5291 31.6796 84.2383 32.2324 83.4031 34.3263C83.1863 34.8696 82.7389 36.0272 82.8495 37.4991C82.9203 38.4419 83.2503 39.34 83.9104 41.136C84.5273 42.8148 84.7598 43.1302 84.7184 43.8636C84.6607 44.8902 84.1351 45.5163 83.5948 46.3368Z" fill="black"/>
  <path d="M105.601 27.7024C105.647 27.4816 105.864 27.3401 106.085 27.3863C106.292 27.4298 106.43 27.6241 106.407 27.8309L106.401 27.8698L105.706 31.1869L105.42 32.5512C105.392 32.6836 105.301 32.7937 105.176 32.8452C103.878 33.3788 102.437 33.6898 100.801 33.6189C99.5662 33.5652 98.4149 33.2944 97.3498 32.8591C97.141 32.7738 97.0409 32.5353 97.1262 32.3264C97.2115 32.1176 97.45 32.0175 97.6589 32.1028C98.6405 32.504 99.7002 32.7533 100.836 32.8027C102.226 32.8629 103.463 32.6234 104.586 32.1994L104.666 32.1686L105.601 27.7024Z" fill="black"/>
  <path d="M115.314 11.2178C115.538 11.1922 115.741 11.3531 115.766 11.5773C116.296 16.2208 115.778 20.2667 114.371 23.5371C113.208 26.2355 111.244 28.0805 108.904 28.5036C108.638 28.5525 108.331 28.5663 107.993 28.548C107.429 28.52 106.765 28.4052 106.05 28.2213L104.716 27.8682C104.625 27.8438 104.542 27.8212 104.461 27.7988L104.248 27.7388C103.952 27.6548 103.667 27.5685 103.336 27.4627C103.121 27.394 103.002 27.1641 103.071 26.9492C103.139 26.7344 103.369 26.6158 103.584 26.6845L103.894 26.7818C104.043 26.8279 104.186 26.8706 104.328 26.912L104.574 26.982L104.998 27.0981L106.107 27.3915C106.829 27.5855 107.494 27.7053 108.035 27.7321C108.315 27.7472 108.559 27.7363 108.757 27.6999C110.8 27.3304 112.558 25.6798 113.621 23.214C114.969 20.0799 115.469 16.1768 114.955 11.6699C114.929 11.4458 115.09 11.2433 115.314 11.2178Z" fill="black"/>
  <path d="M90.9342 57.8402C91.1565 57.8017 91.3679 57.9507 91.4063 58.173C91.9722 61.4444 92.4491 64.7664 92.8313 68.1394C93.7295 76.1048 94.0451 83.9016 93.8557 91.5255L93.8464 91.8705L94.1477 91.6195C94.6023 91.244 95.0675 90.8741 95.5435 90.5103L95.9025 90.2386C96.5834 89.7286 97.2688 89.2436 97.9571 88.7834C98.1447 88.658 98.3984 88.7084 98.5237 88.8959C98.6491 89.0835 98.5987 89.3372 98.4112 89.4626C97.7349 89.9147 97.0614 90.3912 96.3924 90.8924C95.4462 91.6015 94.543 92.3345 93.68 93.0889C93.4111 93.3239 92.9914 93.1251 93.0029 92.7682C93.2606 84.7794 92.963 76.5987 92.0195 68.2311C91.6391 64.8743 91.1645 61.5681 90.6013 58.3123C90.5629 58.09 90.7119 57.8786 90.9342 57.8402Z" fill="black"/>
  <path d="M101.403 55.3398C101.628 55.3248 101.822 55.4952 101.837 55.7203C102.378 63.8613 103.442 72.1 105.102 80.4392C105.865 84.273 106.737 88.0426 107.713 91.7535C107.772 91.9783 107.632 92.2041 107.41 92.2553L107.373 92.2622L100.911 93.1388C100.715 93.1653 100.529 93.0481 100.468 92.8603C99.3873 89.5379 98.4853 86.0778 97.7939 82.4622C97.1649 79.1754 96.7451 75.9422 96.5065 72.7575C96.4896 72.5325 96.6583 72.3365 96.8833 72.3196C97.1083 72.3028 97.3043 72.4715 97.3212 72.6964C97.5575 75.8509 97.9733 79.0533 98.5963 82.3087C99.2486 85.7194 100.09 88.9902 101.093 92.1366L101.14 92.283L106.806 91.5143L106.714 91.1618C105.887 87.9602 105.137 84.715 104.467 81.4227L104.301 80.5987C102.634 72.2239 101.566 63.9501 101.022 55.7745C101.007 55.5494 101.178 55.3547 101.403 55.3398Z" fill="black"/>
  <path d="M104.705 32.158C104.901 32.0469 105.15 32.116 105.261 32.3124C105.992 33.604 106.722 34.7431 107.469 35.8013C107.8 36.2677 108.104 36.6753 108.417 37.0738C108.491 37.1685 108.567 37.2633 108.644 37.3592L108.761 37.504C109.046 37.8532 111.342 40.5229 112.757 42.2199L114.641 44.4992C116.302 46.5211 116.747 47.1139 116.994 47.5885C117.226 48.0321 117.413 48.4597 117.564 48.8871L117.618 49.0474C118.113 50.5448 118.181 51.3257 118.057 55.0714L117.976 57.3454C117.963 57.7471 117.951 58.1263 117.941 58.5097L117.928 59.1546L117.925 59.3707C117.869 63.5626 117.977 68.5651 118.384 73.3875C118.619 76.1658 118.97 78.7666 119.398 81.177C119.437 81.3956 119.294 81.6052 119.076 81.6489C117.337 81.998 115.57 82.4279 113.782 82.9426C111.75 83.5286 109.786 84.1979 107.889 84.9403C107.679 85.0225 107.442 84.9188 107.36 84.7088C107.278 84.4987 107.382 84.2617 107.592 84.1795C109.512 83.4281 111.499 82.7507 113.556 82.1576C115.201 81.684 116.829 81.2812 118.434 80.9464L118.525 80.9277L118.46 80.5449C118.11 78.4614 117.819 76.2432 117.609 73.8975L117.57 73.4562C117.173 68.7455 117.059 63.8715 117.104 59.7339L117.12 58.6819L117.135 58.1037C117.148 57.6539 117.163 57.1979 117.181 56.6932L117.239 55.0634C117.361 51.4237 117.297 50.6789 116.843 49.3039C116.716 48.9204 116.556 48.5368 116.358 48.138L116.243 47.9155C116.006 47.4842 115.479 46.8021 113.726 44.674L112.035 42.6306C110.71 41.0448 108.692 38.6952 108.205 38.1135L108.128 38.02C108.006 37.8706 107.889 37.7246 107.775 37.5787C107.453 37.1694 107.141 36.7509 106.802 36.273C106.04 35.1932 105.295 34.0314 104.55 32.7147C104.439 32.5184 104.508 32.2691 104.705 32.158Z" fill="black"/>
  <path d="M117.228 81.2209C117.44 81.2209 117.615 81.3829 117.635 81.5901L117.636 81.6294V125.54L117.635 125.573L117.631 125.607L111.788 160.745C111.751 160.968 111.54 161.118 111.318 161.081C111.108 161.046 110.963 160.858 110.977 160.65L110.982 160.611L116.819 125.507L116.819 81.6294C116.819 81.4171 116.981 81.2426 117.189 81.2228L117.228 81.2209Z" fill="black"/>
  <path d="M102.078 100.97C102.289 100.95 102.478 101.095 102.517 101.299L102.523 101.338L104.866 126.266L104.867 126.316L103.696 166.035C103.689 166.261 103.501 166.438 103.276 166.431C103.063 166.425 102.894 166.258 102.88 166.05L102.879 166.011L104.05 126.316L101.709 101.415C101.69 101.203 101.834 101.014 102.039 100.975L102.078 100.97Z" fill="black"/>
  <path fill-rule="evenodd" clip-rule="evenodd" d="M102.115 160.678H113.957L123.657 163C125.029 163.329 125.996 164.555 125.996 165.965V167.594L102.115 167.307V160.678Z" fill="black"/>
  <path fill-rule="evenodd" clip-rule="evenodd" d="M83.1894 147.823L77.4815 154.054L93.4279 167.509H98.2728V166.077L94.5919 163.476L91.132 153.872L83.1894 147.823Z" fill="black"/>
  <path d="M103.912 123.614C104.054 123.438 104.311 123.411 104.486 123.553C104.651 123.686 104.685 123.92 104.572 124.094L104.547 124.127L84.2641 149.206C84.1222 149.382 83.865 149.409 83.6896 149.267C83.5252 149.134 83.491 148.9 83.6043 148.726L83.6289 148.692L103.912 123.614Z" fill="black"/>
  <path d="M103.751 140.827C103.92 140.678 104.179 140.694 104.328 140.864C104.467 141.023 104.461 141.259 104.32 141.411L104.29 141.44L90.2894 153.745C90.12 153.894 89.8619 153.877 89.7129 153.708C89.5733 153.549 89.5792 153.312 89.7201 153.161L89.7501 153.132L103.751 140.827Z" fill="black"/>
  <path d="M106.297 91.6166C106.492 91.5034 106.742 91.5698 106.855 91.765L107.133 92.2469C107.325 92.583 107.533 92.9511 107.766 93.3671L108.047 93.8769C110.087 97.589 110.493 98.8386 110.176 99.7242C109.515 101.576 106.782 102.657 104.35 102.375C103.777 102.31 103.307 102.218 102.756 102.011C101.905 101.692 101.219 101.193 100.786 100.466C100.308 99.663 100.28 98.7936 100.65 96.5924C100.868 95.2765 101.159 93.9203 101.552 92.4806C101.611 92.263 101.836 92.1347 102.053 92.194C102.271 92.2534 102.399 92.478 102.34 92.6957C101.984 93.9988 101.714 95.2317 101.506 96.4285L101.456 96.727C101.116 98.7502 101.139 99.461 101.488 100.048C101.814 100.596 102.351 100.987 103.043 101.246C103.518 101.424 103.931 101.505 104.444 101.564C106.541 101.807 108.898 100.874 109.407 99.4492L109.42 99.4088C109.605 98.7899 109.163 97.5648 107.052 93.7651L106.645 93.0425C106.467 92.7278 106.303 92.442 106.149 92.1749C106.035 91.9798 106.102 91.7298 106.297 91.6166Z" fill="black"/>
  <path d="M95.8383 90.3192C96.0536 90.252 96.2827 90.3722 96.3498 90.5876C96.9468 92.5028 97.6879 94.4077 98.5992 96.3029C99.7675 98.7362 101.121 100.962 102.62 103.002C102.754 103.184 102.715 103.44 102.533 103.573C102.351 103.707 102.096 103.668 101.962 103.486C100.433 101.406 99.0537 99.1371 97.8629 96.6567C96.9339 94.7248 96.1784 92.7829 95.5699 90.8307C95.5027 90.6153 95.6229 90.3863 95.8383 90.3192Z" fill="black"/>
  <path d="M100.61 98.0286C100.801 97.9089 101.053 97.9669 101.173 98.1581C101.292 98.3494 101.234 98.6014 101.043 98.7211C100.737 98.9125 100.438 99.1034 100.143 99.2943L99.8512 99.4852C93.688 103.504 88.0279 108.394 83.2256 113.856L82.8051 114.338C82.2401 114.99 81.688 115.64 80.9715 116.496L78.6511 119.278C76.2129 122.193 74.7639 123.838 73.0453 125.588C70.6815 127.994 68.3814 129.932 65.9383 131.503L65.4814 131.793C60.5007 134.877 53.7402 136.047 48.4443 134.583C48.2268 134.523 48.0993 134.298 48.1594 134.08C48.2195 133.863 48.4445 133.735 48.662 133.795C53.7297 135.197 60.2575 134.067 65.0462 131.102L65.2555 130.969C69.6843 128.177 72.7867 125.036 78.5386 118.138L80.2474 116.088C81.0816 115.091 81.6931 114.372 82.3433 113.624C87.1642 108.082 92.8573 103.115 99.0646 99.0241L99.4037 98.8018C99.7949 98.5445 100.197 98.287 100.61 98.0286Z" fill="black"/>
  <path d="M49.7731 122.817C49.9979 122.799 50.195 122.967 50.2134 123.191C50.7648 129.959 49.2671 135.864 45.4471 140.454L45.1961 140.753C44.3211 141.783 43.4627 142.676 41.956 144.151L40.5355 145.532C36.5921 149.378 34.9585 151.345 33.638 154.284C31.8157 158.347 31.8584 163.061 33.6304 167.438C33.715 167.647 33.6141 167.885 33.405 167.97C33.1959 168.055 32.9577 167.954 32.8731 167.745C31.0204 163.168 30.9756 158.223 32.8927 153.949L32.9939 153.727C34.3851 150.716 36.1296 148.67 40.2571 144.663L40.9343 144.006C42.8637 142.129 43.7897 141.169 44.8192 139.932C48.4901 135.521 49.9343 129.826 49.3991 123.258C49.3808 123.033 49.5482 122.836 49.7731 122.817Z" fill="black"/>
  <path d="M62.49 107.61C64.1348 106.78 65.0597 106.679 65.6803 106.976C66.7148 107.464 67.2541 108.906 67.2244 110.343C67.2211 110.528 67.2075 110.695 67.1835 110.832C67.1543 111.081 67.0993 111.324 67.0193 111.57C66.6655 112.66 65.9607 113.489 64.6045 114.632L63.5077 115.542L63.2684 115.745C61.6699 117.117 60.8182 118.206 60.3734 119.717L60.3416 119.829C60.1198 120.629 60.2019 121.543 60.7569 124.916L62.8663 137.574L62.9782 138.204C64.0012 144.014 64.4253 148.127 64.1547 153.042C63.8985 157.665 62.9142 162.495 60.8035 167.744C60.7193 167.953 60.4814 168.054 60.2721 167.97C60.0628 167.886 59.9614 167.648 60.0455 167.439C62.121 162.278 63.0875 157.535 63.339 152.997C63.6005 148.246 63.201 144.242 62.2266 138.648L61.9337 136.97L59.8848 124.646C59.3694 121.481 59.2982 120.566 59.5441 119.648L59.5543 119.61C60.0539 117.81 61.0292 116.572 62.8595 115.02L63.3343 114.624C63.6099 114.396 63.9542 114.112 64.0778 114.008L64.2916 113.825C65.398 112.869 65.9655 112.17 66.2422 111.318C66.3062 111.121 66.3494 110.93 66.3751 110.716C66.3946 110.602 66.4049 110.475 66.4075 110.327C66.4314 109.176 66.0034 108.032 65.3295 107.714C65.2053 107.654 65.0586 107.628 64.78 107.658C64.3214 107.709 63.6903 107.919 62.8583 108.339C62.2831 108.63 61.7971 108.926 61.3521 109.249L61.0228 109.494C60.8636 109.617 60.7271 109.729 60.5073 109.921L59.9251 110.434C59.1901 111.087 58.695 111.461 57.9927 111.846C57.3562 112.194 56.8416 112.38 56.2445 112.499L56.1239 112.522C56.0051 112.544 55.8904 112.562 55.7282 112.586L55.4408 112.629C54.7277 112.736 54.4008 112.805 53.8259 112.981C51.7519 113.616 49.9372 114.845 48.3852 116.468C47.8145 117.064 47.3115 117.682 46.8755 118.296C46.5822 118.71 46.3652 119.054 46.1953 119.349C45.2236 121.031 44.548 123.08 44.3028 124.915C44.0887 126.518 44.2649 127.689 44.5998 127.847C44.8082 127.945 45.3716 127.652 46.1099 126.986C46.3668 126.755 46.6383 126.486 46.9245 126.183L47.1173 125.977C47.4103 125.659 47.6818 125.347 48.0988 124.858C48.6047 124.264 49.0593 123.642 49.4616 123.006C49.9897 122.172 50.4053 121.354 50.7618 120.506C50.8493 120.298 51.0887 120.201 51.2967 120.288C51.5046 120.376 51.6023 120.615 51.5148 120.823C51.1418 121.71 50.7061 122.568 50.152 123.443C49.7297 124.111 49.2523 124.764 48.7206 125.387L48.3891 125.775C48.0601 126.156 47.8154 126.43 47.5183 126.744C47.2182 127.062 46.9316 127.345 46.6571 127.593L46.5069 127.726C45.5905 128.523 44.8589 128.872 44.2512 128.586C42.6909 127.849 43.3623 122.7 45.4245 119.052L45.4874 118.942C45.6691 118.625 45.8997 118.26 46.2093 117.824C46.6673 117.178 47.1952 116.53 47.7948 115.903C49.4367 114.186 51.3659 112.879 53.5865 112.2L53.7573 112.148C54.2514 112.003 54.5982 111.931 55.2083 111.838L55.7834 111.751C55.8538 111.74 55.9155 111.729 55.9777 111.718C56.5432 111.615 57.0004 111.457 57.6006 111.129C58.2033 110.799 58.6389 110.477 59.2695 109.923L59.982 109.295C60.27 109.044 60.4232 108.921 60.6642 108.741L60.7435 108.682C61.258 108.297 61.8197 107.949 62.49 107.61Z" fill="black"/>
  <path d="M58.0985 147.416C58.3236 147.401 58.5176 147.572 58.5318 147.798C58.703 150.52 58.5274 153.33 57.8829 156.239C56.8924 160.705 55.0057 164.534 52.5621 167.834C52.4278 168.016 52.172 168.054 51.9907 167.92C51.8094 167.785 51.7712 167.529 51.9055 167.348C54.2852 164.134 56.1217 160.407 57.0853 156.063C57.7122 153.232 57.883 150.498 57.7164 147.849C57.7023 147.624 57.8733 147.43 58.0985 147.416Z" fill="black"/>
  <path d="M50.9935 151.26C51.219 151.254 51.407 151.432 51.4134 151.657C51.4863 154.235 51.1289 156.893 50.108 159.64C49.2659 161.904 48.0766 163.906 46.6281 165.67C46.1718 166.223 45.7027 166.739 45.2167 167.228C44.9863 167.456 44.7553 167.677 44.5234 167.891C44.3578 168.044 44.0993 168.034 43.9461 167.869C43.7929 167.703 43.803 167.445 43.9686 167.292C44.194 167.083 44.4185 166.869 44.6398 166.65C45.1057 166.181 45.5579 165.684 45.9973 165.151C47.3901 163.455 48.5332 161.531 49.3423 159.356C50.3233 156.716 50.6669 154.16 50.5967 151.68C50.5904 151.455 50.768 151.267 50.9935 151.26Z" fill="black"/>
  <path d="M199.407 167.183C199.633 167.183 199.816 167.366 199.816 167.591C199.816 167.804 199.654 167.978 199.447 167.998L199.407 168H0.592658C0.367058 168 0.184174 167.817 0.184174 167.591C0.184174 167.379 0.346175 167.205 0.553318 167.185L0.592658 167.183H199.407Z" fill="black"/>
  <path d="M34.6282 66.1107L20.1273 77.1551C19.9126 77.3185 19.9126 77.6415 20.1273 77.805L34.6282 88.8493C34.7744 88.9607 34.977 88.9607 35.1232 88.8493L49.6241 77.805C49.8388 77.6415 49.8388 77.3185 49.6241 77.1551L35.1232 66.1107C34.977 65.9994 34.7744 65.9994 34.6282 66.1107ZM34.8756 66.9489L48.7025 77.4799L34.8756 88.0109L21.0486 77.4799L34.8756 66.9489Z" fill="black"/>
  <path d="M49.3766 77.0717C49.5889 77.0717 49.7634 77.2337 49.7832 77.4408L49.7851 77.4801V93.5464C49.7851 93.6597 49.7381 93.7673 49.6564 93.844L49.6241 93.8713L35.1232 104.916C34.9882 105.018 34.8052 105.026 34.6629 104.939L34.6282 104.916L20.1273 93.8713C20.0371 93.8027 19.98 93.7001 19.9685 93.5886L19.9663 93.5464V77.4801C19.9663 77.2545 20.1492 77.0717 20.3748 77.0717C20.5871 77.0717 20.7616 77.2337 20.7814 77.4408L20.7833 77.4801L20.7831 93.3439L34.8756 104.077L48.968 93.3439L48.9681 77.4801C48.9681 77.2678 49.1301 77.0933 49.3373 77.0735L49.3766 77.0717Z" fill="black"/>
  <path d="M34.8759 88.116C35.0882 88.116 35.2627 88.278 35.2825 88.4851L35.2843 88.5245V104.591C35.2843 104.816 35.1015 104.999 34.8759 104.999C34.6635 104.999 34.489 104.837 34.4692 104.63L34.4674 104.591V88.5245C34.4674 88.2989 34.6503 88.116 34.8759 88.116Z" fill="black"/>
  <path fill-rule="evenodd" clip-rule="evenodd" d="M34.8751 88.5242L49.376 77.4799V93.5461L34.8751 104.59V88.5242Z" fill="black"/>
  <path d="M55.0614 2.60525L40.5605 13.6493C40.3459 13.8128 40.3459 14.1358 40.5605 14.2992L55.0614 25.3436C55.2077 25.4549 55.4102 25.4549 55.5564 25.3436L70.0574 14.2992C70.272 14.1358 70.272 13.8128 70.0574 13.6493L55.5564 2.60525C55.4102 2.49389 55.2077 2.49389 55.0614 2.60525ZM55.3089 3.44346L69.1356 13.9742L55.3089 24.5049L41.482 13.9742L55.3089 3.44346Z" fill="black"/>
  <path d="M69.8099 13.5659C70.0222 13.5659 70.1967 13.7279 70.2165 13.9351L70.2183 13.9744V30.0409C70.2183 30.1543 70.1713 30.2618 70.0896 30.3386L70.0574 30.3659L55.5564 41.4099C55.4215 41.5127 55.2385 41.5206 55.0961 41.4337L55.0614 41.4099L40.5605 30.3659C40.4704 30.2972 40.4133 30.1946 40.4017 30.0831L40.3995 30.0409V13.9744C40.3995 13.7488 40.5824 13.5659 40.808 13.5659C41.0203 13.5659 41.1948 13.7279 41.2146 13.9351L41.2165 13.9744L41.2165 29.8385L55.3089 40.5713L69.4014 29.8382L69.4014 13.9744C69.4014 13.7621 69.5634 13.5876 69.7705 13.5678L69.8099 13.5659Z" fill="black"/>
  <path d="M55.3089 24.6099C55.5212 24.6099 55.6957 24.7719 55.7155 24.979L55.7173 25.0183V41.0849C55.7173 41.3105 55.5345 41.4933 55.3089 41.4933C55.0965 41.4933 54.922 41.3313 54.9022 41.1242L54.9004 41.0849V25.0183C54.9004 24.7927 55.0833 24.6099 55.3089 24.6099Z" fill="black"/>
  <path fill-rule="evenodd" clip-rule="evenodd" d="M55.3091 25.0184L40.8082 13.9741V30.0406L55.3091 41.0849V25.0184Z" fill="black"/>
  <path d="M164.618 24.6934L150.117 35.7377C149.903 35.9012 149.903 36.2242 150.117 36.3876L164.618 47.432C164.765 47.5433 164.967 47.5433 165.113 47.432L179.614 36.3876C179.829 36.2242 179.829 35.9012 179.614 35.7377L165.113 24.6934C164.967 24.582 164.765 24.582 164.618 24.6934ZM164.866 25.5315L178.693 36.0625L164.866 46.5935L151.039 36.0625L164.866 25.5315Z" fill="black"/>
  <path fill-rule="evenodd" clip-rule="evenodd" d="M150.365 36.0629L164.866 47.1072L179.366 36.0629L164.866 25.0186L150.365 36.0629Z" fill="black"/>
  <path d="M179.367 35.6542C179.579 35.6542 179.754 35.8162 179.773 36.0233L179.775 36.0627V52.1289C179.775 52.2422 179.728 52.3498 179.647 52.4266L179.614 52.4539L165.113 63.4982C164.978 63.601 164.795 63.6089 164.653 63.5219L164.618 63.4982L150.117 52.4539C150.027 52.3852 149.97 52.2826 149.959 52.1711L149.956 52.1289V36.0627C149.956 35.8371 150.139 35.6542 150.365 35.6542C150.577 35.6542 150.752 35.8162 150.772 36.0233L150.773 36.0627L150.773 51.9264L164.866 62.6597L178.958 51.9264L178.958 36.0627C178.958 35.8503 179.12 35.6758 179.327 35.656L179.367 35.6542Z" fill="black"/>
  <path d="M164.866 46.6984C165.078 46.6984 165.253 46.8604 165.272 47.0675L165.274 47.1068V63.1731C165.274 63.3987 165.091 63.5816 164.866 63.5816C164.653 63.5816 164.479 63.4196 164.459 63.2124L164.457 63.1731V47.1068C164.457 46.8812 164.64 46.6984 164.866 46.6984Z" fill="black"/>
  <path d="M131.8 56.4811C131.974 56.338 132.231 56.3634 132.374 56.5379C132.509 56.7014 132.495 56.9378 132.349 57.0846L132.318 57.1128L128.259 60.4419C127.309 61.2208 126.017 61.4288 124.874 60.9929L124.786 60.9581L121.515 59.6067L117.529 59.7215C117.316 59.7276 117.137 59.5707 117.112 59.3642L117.109 59.3249C117.102 59.1127 117.259 58.9336 117.466 58.9079L117.505 58.9049L121.579 58.7878C121.622 58.7865 121.665 58.7921 121.706 58.8043L121.747 58.8186L125.098 60.203C125.957 60.558 126.938 60.4268 127.673 59.8642L127.741 59.8102L131.8 56.4811Z" fill="black"/>
  <path d="M124.404 52.1397C125.012 51.8449 125.717 51.8333 126.332 52.105L126.409 52.1404L129.564 53.6733C129.766 53.7719 129.851 54.0164 129.752 54.2193C129.66 54.4103 129.438 54.4964 129.243 54.4237L129.206 54.4082L126.052 52.8752C125.667 52.6881 125.221 52.6776 124.829 52.8436L124.76 52.8748L120.753 54.8194C120.712 54.8397 120.667 54.8526 120.621 54.8578L120.575 54.8604H117.672C117.446 54.8604 117.264 54.6776 117.264 54.452C117.264 54.2396 117.426 54.0651 117.633 54.0453L117.672 54.0435L120.481 54.0432L124.404 52.1397Z" fill="black"/>
  <path d="M139.428 48.5913C139.612 48.4605 139.867 48.5035 139.998 48.6874C140.121 48.8604 140.09 49.0965 139.932 49.2327L139.901 49.257L126.278 58.9463C126.094 59.077 125.839 59.034 125.708 58.8501C125.585 58.6771 125.616 58.441 125.773 58.3048L125.804 58.2805L139.428 48.5913Z" fill="black"/>
  <path d="M135.603 25.0068C141.056 22.0003 146.281 21.8139 151.264 24.9697C151.455 25.0904 151.512 25.3428 151.391 25.5334C151.27 25.7239 151.018 25.7806 150.827 25.6599C146.115 22.6758 141.205 22.851 135.998 25.7222C131.757 28.0602 127.538 32.0148 122.828 37.6491C122.684 37.8222 122.426 37.8452 122.253 37.7005C122.08 37.5559 122.057 37.2983 122.202 37.1252L122.609 36.6403C127.216 31.1916 131.379 27.3358 135.603 25.0068Z" fill="black"/>
  <path d="M87.0378 73.8172C87.2264 73.6934 87.4796 73.7459 87.6034 73.9345C87.7272 74.1231 87.6747 74.3763 87.4861 74.5001C78.5067 80.3944 68.6318 83.9058 59.3216 84.0739C59.096 84.0779 58.9099 83.8984 58.9058 83.6728C58.9017 83.4473 59.0813 83.2611 59.3069 83.257C68.4493 83.092 78.1791 79.6322 87.0378 73.8172Z" fill="black"/>
  <path d="M33.1843 21.4128C33.3839 21.3077 33.6309 21.3844 33.736 21.5841C33.841 21.7837 33.7644 22.0307 33.5647 22.1358C21.0888 28.7014 16.4805 45.1104 22.3893 58.9895C22.4777 59.1971 22.381 59.437 22.1735 59.5254C21.9659 59.6137 21.726 59.5171 21.6376 59.3095C15.571 45.0595 20.309 28.1886 33.1843 21.4128Z" fill="black"/>
  <path d="M135.714 92.2914C135.926 92.2914 136.1 92.4534 136.12 92.6605L136.122 92.6999V124.937C136.122 125.163 135.939 125.346 135.714 125.346C135.501 125.346 135.327 125.184 135.307 124.977L135.305 124.937V92.6999C135.305 92.4743 135.488 92.2914 135.714 92.2914Z" fill="black"/>
  <path d="M147.089 92.2914C147.301 92.2914 147.476 92.4534 147.496 92.6605L147.498 92.6999V124.937C147.498 125.163 147.315 125.346 147.089 125.346C146.877 125.346 146.702 125.184 146.682 124.977L146.681 124.937V92.6999C146.681 92.4743 146.863 92.2914 147.089 92.2914Z" fill="black"/>
  <path d="M158.464 92.2914C158.676 92.2914 158.851 92.4534 158.871 92.6605L158.873 92.6999V124.937C158.873 125.163 158.69 125.346 158.464 125.346C158.252 125.346 158.077 125.184 158.057 124.977L158.056 124.937V92.6999C158.056 92.4743 158.238 92.2914 158.464 92.2914Z" fill="black"/>
  <path d="M169.841 92.2914C170.053 92.2914 170.228 92.4534 170.248 92.6605L170.249 92.6999V124.937C170.249 125.163 170.067 125.346 169.841 125.346C169.629 125.346 169.454 125.184 169.434 124.977L169.433 124.937V92.6999C169.433 92.4743 169.615 92.2914 169.841 92.2914Z" fill="black"/>
  <path d="M181.216 92.2914C181.428 92.2914 181.602 92.4534 181.622 92.6605L181.624 92.6999V124.937C181.624 125.163 181.441 125.346 181.216 125.346C181.003 125.346 180.829 125.184 180.809 124.977L180.807 124.937V92.6999C180.807 92.4743 180.99 92.2914 181.216 92.2914Z" fill="black"/>
  <path d="M192.591 92.2914C192.803 92.2914 192.977 92.4534 192.997 92.6605L192.999 92.6999V124.937C192.999 125.163 192.816 125.346 192.591 125.346C192.378 125.346 192.204 125.184 192.184 124.977L192.182 124.937V92.6999C192.182 92.4743 192.365 92.2914 192.591 92.2914Z" fill="black"/>
  <path d="M192.59 92.2914C192.816 92.2914 192.999 92.4743 192.999 92.6999C192.999 92.9122 192.837 93.0867 192.629 93.1065L192.59 93.1084H135.714C135.488 93.1084 135.305 92.9255 135.305 92.6999C135.305 92.4875 135.467 92.313 135.674 92.2933L135.714 92.2914H192.59Z" fill="black"/>
  <path d="M192.59 98.7399C192.816 98.7399 192.999 98.9228 192.999 99.1484C192.999 99.3607 192.837 99.5352 192.629 99.555L192.59 99.5568H135.714C135.488 99.5568 135.305 99.374 135.305 99.1484C135.305 98.936 135.467 98.7615 135.674 98.7417L135.714 98.7399H192.59Z" fill="black"/>
  <path d="M192.59 105.186C192.816 105.186 192.999 105.369 192.999 105.594C192.999 105.806 192.837 105.981 192.629 106.001L192.59 106.003H135.714C135.488 106.003 135.305 105.82 135.305 105.594C135.305 105.382 135.467 105.207 135.674 105.188L135.714 105.186H192.59Z" fill="black"/>
  <path d="M192.59 111.634C192.816 111.634 192.999 111.817 192.999 112.043C192.999 112.255 192.837 112.43 192.629 112.449L192.59 112.451H135.714C135.488 112.451 135.305 112.268 135.305 112.043C135.305 111.831 135.467 111.656 135.674 111.636L135.714 111.634H192.59Z" fill="black"/>
  <path d="M192.59 118.08C192.816 118.08 192.999 118.263 192.999 118.489C192.999 118.701 192.837 118.875 192.629 118.895L192.59 118.897H135.714C135.488 118.897 135.305 118.714 135.305 118.489C135.305 118.276 135.467 118.102 135.674 118.082L135.714 118.08H192.59Z" fill="black"/>
  <path d="M192.59 124.529C192.816 124.529 192.999 124.712 192.999 124.937C192.999 125.15 192.837 125.324 192.629 125.344L192.59 125.346H135.714C135.488 125.346 135.305 125.163 135.305 124.937C135.305 124.725 135.467 124.551 135.674 124.531L135.714 124.529H192.59Z" fill="black"/>
  <path fill-rule="evenodd" clip-rule="evenodd" d="M147.088 105.594H158.463V99.1482H147.088V105.594Z" fill="black"/>
  <path fill-rule="evenodd" clip-rule="evenodd" d="M169.84 112.041H181.215V105.596H169.84V112.041Z" fill="black"/>
  <path fill-rule="evenodd" clip-rule="evenodd" d="M135.714 124.934H147.089V118.489H135.714V124.934Z" fill="black"/>
  <path fill-rule="evenodd" clip-rule="evenodd" d="M135.272 144.145H193.069V131.638H135.272V144.145Z" fill="black"/>
  <path fill-rule="evenodd" clip-rule="evenodd" d="M143.42 136.78V136.032C143.767 136.017 144.009 135.993 144.148 135.962C144.368 135.913 144.548 135.816 144.686 135.669C144.781 135.569 144.853 135.435 144.902 135.268C144.93 135.168 144.944 135.093 144.944 135.044H145.862V140.638H144.736V136.78H143.42Z" fill="white"/>
  <path fill-rule="evenodd" clip-rule="evenodd" d="M149.821 139.371C149.926 139.712 150.142 139.882 150.469 139.882C150.795 139.882 151.009 139.712 151.111 139.371C151.212 139.03 151.263 138.538 151.263 137.895C151.263 137.221 151.212 136.723 151.111 136.398C151.009 136.074 150.795 135.912 150.469 135.912C150.142 135.912 149.926 136.074 149.821 136.398C149.715 136.723 149.662 137.221 149.662 137.895C149.662 138.538 149.715 139.03 149.821 139.371ZM151.967 135.758C152.254 136.26 152.397 136.972 152.397 137.895C152.397 138.819 152.254 139.53 151.967 140.029C151.68 140.527 151.181 140.777 150.469 140.777C149.756 140.777 149.257 140.527 148.97 140.029C148.683 139.53 148.54 138.819 148.54 137.895C148.54 136.972 148.683 136.26 148.97 135.758C149.257 135.257 149.756 135.006 150.469 135.006C151.181 135.006 151.68 135.257 151.967 135.758Z" fill="white"/>
  <path fill-rule="evenodd" clip-rule="evenodd" d="M154.261 136.78V136.032C154.607 136.017 154.85 135.993 154.988 135.962C155.209 135.913 155.388 135.816 155.527 135.669C155.622 135.569 155.694 135.435 155.742 135.268C155.771 135.168 155.785 135.093 155.785 135.044H156.703V140.638H155.576V136.78H154.261Z" fill="white"/>
  <path fill-rule="evenodd" clip-rule="evenodd" d="M160.662 139.371C160.767 139.712 160.983 139.882 161.31 139.882C161.636 139.882 161.85 139.712 161.952 139.371C162.054 139.03 162.104 138.538 162.104 137.895C162.104 137.221 162.054 136.723 161.952 136.398C161.85 136.074 161.636 135.912 161.31 135.912C160.983 135.912 160.767 136.074 160.662 136.398C160.556 136.723 160.503 137.221 160.503 137.895C160.503 138.538 160.556 139.03 160.662 139.371ZM162.808 135.758C163.095 136.26 163.239 136.972 163.239 137.895C163.239 138.819 163.095 139.53 162.808 140.029C162.522 140.527 162.022 140.777 161.31 140.777C160.597 140.777 160.098 140.527 159.811 140.029C159.524 139.53 159.381 138.819 159.381 137.895C159.381 136.972 159.524 136.26 159.811 135.758C160.098 135.257 160.597 135.006 161.31 135.006C162.022 135.006 162.522 135.257 162.808 135.758Z" fill="white"/>
  <path fill-rule="evenodd" clip-rule="evenodd" d="M165.102 136.78V136.032C165.448 136.017 165.691 135.993 165.83 135.962C166.05 135.913 166.23 135.816 166.368 135.669C166.463 135.569 166.535 135.435 166.584 135.268C166.612 135.168 166.626 135.093 166.626 135.044H167.544V140.638H166.418V136.78H165.102Z" fill="white"/>
  <path fill-rule="evenodd" clip-rule="evenodd" d="M171.504 139.371C171.609 139.712 171.825 139.882 172.152 139.882C172.478 139.882 172.692 139.712 172.794 139.371C172.895 139.03 172.946 138.538 172.946 137.895C172.946 137.221 172.895 136.723 172.794 136.398C172.692 136.074 172.478 135.912 172.152 135.912C171.825 135.912 171.609 136.074 171.504 136.398C171.398 136.723 171.345 137.221 171.345 137.895C171.345 138.538 171.398 139.03 171.504 139.371ZM173.65 135.758C173.937 136.26 174.081 136.972 174.081 137.895C174.081 138.819 173.937 139.53 173.65 140.029C173.363 140.527 172.864 140.777 172.152 140.777C171.44 140.777 170.94 140.527 170.653 140.029C170.366 139.53 170.223 138.819 170.223 137.895C170.223 136.972 170.366 136.26 170.653 135.758C170.94 135.257 171.44 135.006 172.152 135.006C172.864 135.006 173.363 135.257 173.65 135.758Z" fill="white"/>
  <path fill-rule="evenodd" clip-rule="evenodd" d="M175.943 136.78V136.032C176.289 136.017 176.532 135.993 176.671 135.962C176.891 135.913 177.071 135.816 177.209 135.669C177.304 135.569 177.376 135.435 177.425 135.268C177.453 135.168 177.467 135.093 177.467 135.044H178.385V140.638H177.259V136.78H175.943Z" fill="white"/>
  <path fill-rule="evenodd" clip-rule="evenodd" d="M182.345 139.371C182.45 139.712 182.666 139.882 182.993 139.882C183.319 139.882 183.534 139.712 183.635 139.371C183.737 139.03 183.788 138.538 183.788 137.895C183.788 137.221 183.737 136.723 183.635 136.398C183.534 136.074 183.319 135.912 182.993 135.912C182.666 135.912 182.45 136.074 182.345 136.398C182.239 136.723 182.187 137.221 182.187 137.895C182.187 138.538 182.239 139.03 182.345 139.371ZM184.492 135.758C184.778 136.26 184.922 136.972 184.922 137.895C184.922 138.819 184.778 139.53 184.492 140.029C184.205 140.527 183.705 140.777 182.993 140.777C182.281 140.777 181.781 140.527 181.494 140.029C181.208 139.53 181.064 138.819 181.064 137.895C181.064 136.972 181.208 136.26 181.494 135.758C181.781 135.257 182.281 135.006 182.993 135.006C183.705 135.006 184.205 135.257 184.492 135.758Z" fill="white"/>
  <path d="M26.7387 131.924C26.893 131.736 27.1731 131.726 27.3414 131.893L27.3699 131.924L30.0552 135.192C30.1985 135.366 30.1733 135.624 29.999 135.767C29.8356 135.901 29.5991 135.887 29.4522 135.741L29.4241 135.71L27.0541 132.826L24.6839 135.711C24.5296 135.898 24.2495 135.909 24.0812 135.742L24.0527 135.71L21.6833 132.827L19.314 135.71C19.1597 135.898 18.8797 135.909 18.7113 135.742L18.6828 135.711L16.3123 132.826L13.9413 135.711C13.7869 135.898 13.507 135.909 13.3387 135.742L13.3102 135.711L10.9396 132.826L8.56778 135.711C8.41345 135.898 8.13357 135.909 7.96529 135.742L7.9368 135.711L5.24898 132.443C5.10567 132.269 5.13074 132.011 5.30497 131.868C5.46832 131.733 5.70478 131.747 5.85178 131.893L5.87994 131.924L8.25209 134.808L10.6243 131.924C10.7787 131.736 11.0587 131.726 11.2269 131.893L11.2554 131.924L13.6256 134.808L15.997 131.924C16.1513 131.736 16.4313 131.726 16.5996 131.893L16.6281 131.924L18.9982 134.808L21.3679 131.924C21.5222 131.736 21.8023 131.726 21.9707 131.893L21.9991 131.924L24.3682 134.808L26.7387 131.924Z" fill="black"/>
  <path d="M5.30497 138.556C5.46832 138.421 5.70478 138.435 5.85178 138.581L5.87994 138.612L8.25209 141.496L10.6243 138.612C10.7787 138.424 11.0587 138.414 11.2269 138.581L11.2554 138.612L13.6258 141.496L15.997 138.612C16.1513 138.424 16.4313 138.414 16.5996 138.581L16.6281 138.612L18.9982 141.496L21.3679 138.612C21.5222 138.424 21.8023 138.414 21.9707 138.581L21.9991 138.612L24.3682 141.496L26.7387 138.612C26.893 138.424 27.1731 138.414 27.3414 138.581L27.3699 138.612L30.0552 141.88C30.1985 142.054 30.1733 142.312 29.999 142.455C29.8356 142.589 29.5991 142.575 29.4522 142.429L29.4241 142.398L27.0541 139.514L24.6839 142.399C24.5296 142.586 24.2495 142.597 24.0812 142.43L24.0527 142.398L21.6833 139.515L19.314 142.398C19.1597 142.586 18.8797 142.597 18.7113 142.43L18.6828 142.399L16.3123 139.514L13.9413 142.399C13.7869 142.586 13.507 142.597 13.3387 142.43L13.3102 142.399L10.9396 139.514L8.56778 142.399C8.41345 142.586 8.13357 142.597 7.96529 142.43L7.9368 142.399L5.24898 139.131C5.10567 138.957 5.13074 138.699 5.30497 138.556Z" fill="black"/>
  <path d="M148.113 158.814C148.325 158.814 148.5 158.976 148.52 159.183L148.521 159.222V167.318C148.521 167.544 148.339 167.727 148.113 167.727C147.901 167.727 147.726 167.565 147.706 167.357L147.705 167.318V159.222C147.705 158.997 147.887 158.814 148.113 158.814Z" fill="black"/>
  <path d="M150.471 162.337C150.58 162.139 150.828 162.067 151.026 162.176C151.211 162.279 151.286 162.505 151.203 162.696L151.186 162.731L148.552 167.503L148.515 167.575L148.468 167.656C148.357 167.853 148.108 167.922 147.912 167.81C147.727 167.706 147.655 167.479 147.74 167.289L147.758 167.254L147.795 167.189L147.829 167.121L150.471 162.337Z" fill="black"/>
  <path d="M144.04 162.431C144.206 162.3 144.442 162.318 144.586 162.467L144.613 162.498L148.388 167.28L148.432 167.334C148.573 167.51 148.545 167.767 148.369 167.909C148.205 168.041 147.968 168.025 147.823 167.878L147.795 167.846L147.765 167.808L147.746 167.786L143.972 163.004C143.832 162.827 143.863 162.57 144.04 162.431Z" fill="black"/>
  <path d="M14.654 158.665C14.6989 158.444 14.9145 158.302 15.1356 158.346C15.3437 158.389 15.4825 158.582 15.4607 158.789L15.4547 158.828L13.7514 167.22L13.7516 167.318C13.7516 167.53 13.5896 167.705 13.3824 167.725L13.3431 167.727C13.1307 167.727 12.9562 167.565 12.9365 167.357L12.9346 167.318V167.179L12.9366 167.138L12.9427 167.098L14.654 158.665Z" fill="black"/>
  <path d="M16.5017 164.176C16.674 164.031 16.9318 164.052 17.0774 164.225C17.2139 164.386 17.2035 164.623 17.0596 164.772L17.0291 164.8L13.743 167.578L13.6985 167.657C13.5939 167.841 13.3669 167.913 13.1769 167.828L13.1418 167.811C12.957 167.706 12.8851 167.479 12.97 167.289L12.9878 167.254L13.0241 167.191L13.0513 167.136C13.0699 167.099 13.094 167.065 13.1227 167.035L13.153 167.007L16.5017 164.176Z" fill="black"/>
  <path d="M9.26916 162.431C9.43518 162.3 9.67131 162.318 9.81535 162.467L9.84288 162.498L13.6177 167.28L13.6613 167.334C13.8026 167.51 13.7747 167.767 13.5989 167.909C13.4341 168.041 13.1978 168.025 13.0524 167.878L13.0246 167.846L12.9944 167.808L12.976 167.786L9.2016 163.004C9.06183 162.827 9.09208 162.57 9.26916 162.431Z" fill="black"/>
  <path d="M188.738 22.5262C188.872 22.3448 189.128 22.3065 189.309 22.4407C189.48 22.5669 189.524 22.8009 189.417 22.9793L189.395 23.012L183.485 31.0033C183.35 31.1847 183.095 31.223 182.913 31.0888C182.742 30.9626 182.698 30.7286 182.806 30.5503L182.828 30.5175L188.738 22.5262Z" fill="black"/>
  <path d="M185.124 38.576C185.199 38.3773 185.412 38.271 185.612 38.3255L185.65 38.3376L194.952 41.8383C195.164 41.9177 195.27 42.1533 195.191 42.3645C195.116 42.5632 194.903 42.6694 194.702 42.615L194.665 42.6029L185.362 39.1022C185.151 39.0227 185.044 38.7871 185.124 38.576Z" fill="black"/>
  <path d="M196.236 30.8C196.452 30.7362 196.679 30.8598 196.743 31.0761C196.803 31.2798 196.697 31.493 196.504 31.5706L196.467 31.5836L186.032 34.6638C185.816 34.7277 185.589 34.6041 185.525 34.3877C185.465 34.184 185.571 33.9708 185.764 33.8932L185.801 33.8803L196.236 30.8Z" fill="black"/>
  <path d="M14.3035 79.112C14.5266 79.0786 14.7345 79.2324 14.7679 79.4555C14.7994 79.6655 14.665 79.862 14.463 79.9123L14.4244 79.9199L4.59465 81.3913C4.37154 81.4247 4.16359 81.2709 4.1302 81.0478C4.09876 80.8378 4.23315 80.6413 4.43508 80.591L4.47371 80.5833L14.3035 79.112Z" fill="black"/>
  <path d="M14.0599 62.801C14.2533 62.7134 14.4791 62.7889 14.5826 62.9695L14.6006 63.0045L18.7028 72.0579C18.796 72.2634 18.7049 72.5054 18.4994 72.5986C18.306 72.6862 18.0802 72.6106 17.9766 72.4301L17.9587 72.3951L13.8564 63.3417C13.7633 63.1362 13.8544 62.8942 14.0599 62.801Z" fill="black"/>
  <path d="M4.98006 69.6849C5.08156 69.4984 5.30726 69.4225 5.49867 69.5042L5.53412 69.5213L15.0905 74.7219C15.2886 74.8297 15.3618 75.0778 15.254 75.2759C15.1525 75.4624 14.9268 75.5383 14.7354 75.4566L14.7 75.4395L5.1436 70.2389C4.94545 70.1311 4.87223 69.883 4.98006 69.6849Z" fill="black"/>
  <path fill-rule="evenodd" clip-rule="evenodd" d="M54.8081 115.315C54.8081 115.752 54.4535 116.107 54.0162 116.107C53.5786 116.107 53.2243 115.752 53.2243 115.315C53.2243 114.878 53.5786 114.523 54.0162 114.523C54.4535 114.523 54.8081 114.878 54.8081 115.315Z" fill="black"/>
  <path fill-rule="evenodd" clip-rule="evenodd" d="M66.8165 110.335C66.8138 110.491 66.8029 110.64 66.7784 110.785C66.329 110.869 65.847 110.913 65.3432 110.913C63.1891 110.913 61.3945 110.096 60.9888 109.009C61.4435 108.669 61.98 108.326 62.6744 107.974C64.6188 106.994 65.2833 107.239 65.5066 107.346C66.4761 107.803 66.8383 109.284 66.8165 110.335Z" fill="black"/>
  <path fill-rule="evenodd" clip-rule="evenodd" d="M47.6346 167.591H44.8588C44.8828 167.353 44.9095 167.115 44.9362 166.876C45.4217 166.388 45.931 165.834 46.4492 165.205C46.8008 165.483 47.1434 165.867 47.3756 166.394C47.5633 166.826 47.6289 167.24 47.6346 167.591Z" fill="black"/>
  <path fill-rule="evenodd" clip-rule="evenodd" d="M55.2086 167.591H52.4328C52.4567 167.353 52.4834 167.115 52.5101 166.876C52.9957 166.388 53.5049 165.834 54.0231 165.205C54.3744 165.483 54.717 165.867 54.9493 166.394C55.1372 166.826 55.2026 167.24 55.2086 167.591Z" fill="black"/>
  <path fill-rule="evenodd" clip-rule="evenodd" d="M62.9292 167.591H60.1534C60.7087 166.531 61.0371 165.84 61.469 164.976C61.8206 165.253 62.4376 165.867 62.6699 166.394C62.8576 166.826 62.9232 167.24 62.9292 167.591Z" fill="black"/>
  <path fill-rule="evenodd" clip-rule="evenodd" d="M105.91 27.762C105.419 27.6482 104.903 27.5118 104.367 27.3481C103.978 27.2296 103.608 27.1054 103.255 26.9783C103.295 27.4301 103.46 28.1787 103.784 28.7761C104.321 29.7669 105.025 30.2107 105.405 30.574C105.657 29.2617 105.658 28.9224 105.91 27.762Z" fill="black"/>
  <path d="M102.848 27.0143C102.901 27.6233 103.111 28.3927 103.425 28.971C103.609 29.3106 103.821 29.6098 104.062 29.8835C104.248 30.0941 104.437 30.2759 104.672 30.4797L105.006 30.7644C105.053 30.8052 105.09 30.8384 105.122 30.8695C105.356 31.0931 105.745 30.9691 105.806 30.6513L105.894 30.1793C105.917 30.055 105.938 29.9317 105.964 29.7756L106.077 29.077C106.148 28.6388 106.21 28.3075 106.309 27.8488C106.356 27.6306 106.22 27.4148 106.002 27.3643C105.5 27.2479 104.994 27.1127 104.486 26.9576C104.116 26.8448 103.752 26.7236 103.393 26.5942C103.112 26.4931 102.822 26.7171 102.848 27.0143ZM103.773 27.5883L103.961 27.6498C104.056 27.6801 104.152 27.7098 104.247 27.739L104.563 27.8329C104.773 27.8939 104.983 27.9516 105.192 28.0061L105.429 28.066L105.419 28.1152C105.373 28.3452 105.334 28.5597 105.295 28.799L105.133 29.7903L104.965 29.6341C104.846 29.5218 104.74 29.4174 104.675 29.3433C104.473 29.1144 104.297 28.8654 104.143 28.5816C104.006 28.3294 103.891 28.0233 103.807 27.7162L103.773 27.5883Z" fill="black"/>
</svg>
