<svg width="100" height="101" viewBox="0 0 100 101" fill="none" xmlns="http://www.w3.org/2000/svg">
<g clip-path="url(#clip0_3240_18190)">
<path d="M50 18.0137C44.5078 18.0137 40 22.5215 40 28.0137C40 33.5059 44.5078 38.0137 50 38.0137C55.4922 38.0137 60 33.5059 60 28.0137C60 22.5215 55.4922 18.0137 50 18.0137ZM50 22.0137C53.3125 22.0137 56 24.7012 56 28.0137C56 31.3262 53.3125 34.0137 50 34.0137C46.6875 34.0137 44 31.3262 44 28.0137C44 24.7012 46.6875 22.0137 50 22.0137ZM30 30.0137C24.5078 30.0137 20 34.5215 20 40.0137C20 45.5059 24.5078 50.0137 30 50.0137C35.4922 50.0137 40 45.5059 40 40.0137C40 34.5215 35.4922 30.0137 30 30.0137ZM30 50.0137C25.7266 50.0137 21.8828 51.1855 19 53.0137C16.1172 54.8418 14 57.3574 14 60.3887V68.0137H30C30.7188 68.0215 31.3906 67.6465 31.7578 67.0215C32.1172 66.3965 32.1172 65.6309 31.7578 65.0059C31.3906 64.3809 30.7188 64.0059 30 64.0137H18V60.3887C18 59.4199 18.9531 57.7637 21.125 56.3887C23.2969 55.0137 26.4766 54.0137 30 54.0137C31.9609 54.0137 33.9609 54.3965 35.8125 54.9512C36.8828 55.2793 38.0156 54.6777 38.3438 53.6074C38.6719 52.5371 38.0703 51.4043 37 51.0762C34.8516 50.4277 32.4453 50.0137 30 50.0137ZM70 30.0137C64.5078 30.0137 60 34.5215 60 40.0137C60 45.5059 64.5078 50.0137 70 50.0137C75.4922 50.0137 80 45.5059 80 40.0137C80 34.5215 75.4922 30.0137 70 30.0137ZM70 50.0137C67.375 50.0137 64.9453 50.4668 62.9375 51.1387C62.1875 51.3027 61.5938 51.8887 61.4219 52.6465C61.25 53.3965 61.5234 54.1777 62.125 54.6543C62.7344 55.1387 63.5547 55.2246 64.25 54.8887C65.8359 54.3574 67.8203 54.0137 70 54.0137C73.5078 54.0137 76.6328 55.0527 78.8125 56.4512C80.9922 57.8496 82 59.5762 82 60.3887V64.0137H70C69.2812 64.0059 68.6094 64.3809 68.2422 65.0059C67.8828 65.6309 67.8828 66.3965 68.2422 67.0215C68.6094 67.6465 69.2812 68.0215 70 68.0137H86V60.3887C86 57.4043 83.875 54.9277 81 53.0762C78.125 51.2246 74.2969 50.0137 70 50.0137ZM30 34.0137C33.3125 34.0137 36 36.7012 36 40.0137C36 43.3262 33.3125 46.0137 30 46.0137C26.6875 46.0137 24 43.3262 24 40.0137C24 36.7012 26.6875 34.0137 30 34.0137ZM70 34.0137C73.3125 34.0137 76 36.7012 76 40.0137C76 43.3262 73.3125 46.0137 70 46.0137C66.6875 46.0137 64 43.3262 64 40.0137C64 36.7012 66.6875 34.0137 70 34.0137ZM50 40.0137C44.5078 40.0137 40 44.5215 40 50.0137C40 55.5059 44.5078 60.0137 50 60.0137C55.4922 60.0137 60 55.5059 60 50.0137C60 44.5215 55.4922 40.0137 50 40.0137ZM50 60.0137C45.7266 60.0137 41.8828 61.1855 39 63.0137C36.1172 64.8418 34 67.3574 34 70.3887V78.0137H66V70.3887C66 67.3574 63.8828 64.8418 61 63.0137C58.1172 61.1855 54.2734 60.0137 50 60.0137ZM50 44.0137C53.3125 44.0137 56 46.7012 56 50.0137C56 53.3262 53.3125 56.0137 50 56.0137C46.6875 56.0137 44 53.3262 44 50.0137C44 46.7012 46.6875 44.0137 50 44.0137ZM50 64.0137C53.5234 64.0137 56.7031 65.0137 58.875 66.3887C61.0469 67.7637 62 69.4199 62 70.3887V74.0137H38V70.3887C38 69.4199 38.9531 67.7637 41.125 66.3887C43.2969 65.0137 46.4766 64.0137 50 64.0137Z" fill="#262626"/>
<path d="M0.375 3.20117L3.1875 0.388672L18 15.2012V2.01367H22V22.0137H2V18.0137H15.1875L0.375 3.20117Z" fill="url(#paint0_linear_3240_18190)"/>
<path d="M82 15.2012L96.8125 0.388672L99.625 3.20117L84.8125 18.0137H98V22.0137H78V2.01367H82V15.2012Z" fill="url(#paint1_linear_3240_18190)"/>
<path d="M2 82.0137V78.0137H22V98.0137H18V84.8262L3.1875 99.6387L0.375 96.8262L15.1875 82.0137H2Z" fill="url(#paint2_linear_3240_18190)"/>
<path d="M78 98.0137V78.0137H98V82.0137H84.8125L99.625 96.8262L96.8125 99.6387L82 84.8262V98.0137H78Z" fill="url(#paint3_linear_3240_18190)"/>
</g>
<defs>
<linearGradient id="paint0_linear_3240_18190" x1="0.0790779" y1="60.7462" x2="92.6278" y2="20.0674" gradientUnits="userSpaceOnUse">
<stop stop-color="#6B67E9"/>
<stop offset="1" stop-color="#8224E3"/>
</linearGradient>
<linearGradient id="paint1_linear_3240_18190" x1="0.0790779" y1="60.7462" x2="92.6278" y2="20.0674" gradientUnits="userSpaceOnUse">
<stop stop-color="#6B67E9"/>
<stop offset="1" stop-color="#8224E3"/>
</linearGradient>
<linearGradient id="paint2_linear_3240_18190" x1="0.0790779" y1="60.7462" x2="92.6278" y2="20.0674" gradientUnits="userSpaceOnUse">
<stop stop-color="#6B67E9"/>
<stop offset="1" stop-color="#8224E3"/>
</linearGradient>
<linearGradient id="paint3_linear_3240_18190" x1="0.0790779" y1="60.7462" x2="92.6278" y2="20.0674" gradientUnits="userSpaceOnUse">
<stop stop-color="#6B67E9"/>
<stop offset="1" stop-color="#8224E3"/>
</linearGradient>
<clipPath id="clip0_3240_18190">
<rect width="100" height="100" fill="white" transform="translate(0 0.0136719)"/>
</clipPath>
</defs>
</svg>
