<svg width="100" height="101" viewBox="0 0 100 101" fill="none" xmlns="http://www.w3.org/2000/svg">
<path d="M22 8.01367C14.2031 8.01367 8 14.2168 8 22.0137V78.0137C8 85.8105 14.2031 92.0137 22 92.0137H78C85.7969 92.0137 92 85.8105 92 78.0137V30.0137L88 34.6387V78.0137C88 83.6152 83.6016 88.0137 78 88.0137H22C16.3984 88.0137 12 83.6152 12 78.0137V22.0137C12 16.4121 16.3984 12.0137 22 12.0137H74.8125L78 8.01367H22Z" fill="#262626"/>
<path d="M32.75 42.4512L49 57.6387L87.6875 12.0137L90.6875 14.5762L50.6875 61.8262L49.375 63.3887L47.8125 61.9512L30 45.3887L32.75 42.4512Z" fill="url(#paint0_linear_3240_18193)"/>
<defs>
<linearGradient id="paint0_linear_3240_18193" x1="29.8191" y1="43.2567" x2="83.0041" y2="15.6423" gradientUnits="userSpaceOnUse">
<stop stop-color="#6B67E9"/>
<stop offset="1" stop-color="#8224E3"/>
</linearGradient>
</defs>
</svg>
