<svg width="141" height="140" viewBox="0 0 141 140" fill="none" xmlns="http://www.w3.org/2000/svg">
<circle cx="70.5" cy="70" r="70" fill="#f5f9ff"/>
<g clip-path="url(#clip0)">
<path d="M82.4759 37C73.9857 37.1582 68.6185 40.8965 66.2337 46.3984C63.9603 51.6309 64.306 58.2109 65.9056 64.873C65.6419 65.0605 65.4837 65.0781 65.2259 65.4238C64.6458 66.1797 64.347 67.3281 64.5111 68.6816C64.7747 70.8496 65.2962 72.502 65.9818 73.7207C66.4564 74.5527 67.0716 75.1387 67.804 75.5371C68.4661 79.1582 70.3939 82.2168 71.9993 83.9688V94.5332L56.3782 101.635C55.8802 101.852 55.5345 102.32 55.4818 102.859C55.4232 103.398 55.6634 103.926 56.1087 104.236C56.554 104.553 57.1282 104.6 57.6204 104.365L74.9993 96.4668V82.8789L74.5599 82.4395C73.3294 81.209 70.8333 77.5352 70.4935 74.3418L70.3587 73.1055L69.1224 73.0059C69.4271 73.0293 69.0169 72.9941 68.595 72.2441C68.1673 71.4883 67.7103 70.1875 67.4876 68.3184C67.388 67.5039 67.5286 67.3457 67.6107 67.2402C67.6868 67.1348 67.845 67.0469 68.2786 66.7832L69.2337 66.2031L68.9525 65.125C67.2298 58.4922 67.0247 52.1113 68.9818 47.5938C70.9447 43.082 74.8411 40.1465 82.5052 40C84.2337 40.0059 85.9505 40.5215 87.3509 41.2715C88.7454 42.0215 89.8001 43.041 90.1927 43.7383L90.5618 44.3828L91.2943 44.4883C93.9076 44.8457 95.4076 45.8828 96.4271 47.3477C97.4466 48.8066 97.9564 50.8047 98.0618 53.0137C98.2845 57.4375 96.8958 62.5527 96.0755 65.0254L95.6947 66.1621L96.7201 66.7832C97.1536 67.041 97.3118 67.1348 97.388 67.2402C97.47 67.3457 97.6107 67.5039 97.5111 68.3184C97.2884 70.1875 96.8314 71.4883 96.4036 72.2441C95.9818 72.9941 95.5716 73.0293 95.8763 73.0059L94.64 73.1055L94.5052 74.3359C94.1654 77.5293 91.6693 81.209 90.4388 82.4395L89.9993 82.8789V96.4258L105.826 104.342C106.57 104.711 107.472 104.412 107.841 103.674C108.21 102.93 107.911 102.027 107.173 101.658L92.9993 94.5742V83.9688C94.6107 82.2109 96.5326 79.1523 97.1947 75.5371C97.9271 75.1387 98.5423 74.5527 99.0169 73.7207C99.7083 72.502 100.23 70.8496 100.488 68.6816C100.652 67.3281 100.353 66.1797 99.7728 65.4238C99.5501 65.125 99.4212 65.1309 99.1927 64.9551C100.083 62.1191 101.296 57.5371 101.062 52.8672C100.933 50.3008 100.359 47.7344 98.8822 45.625C97.5228 43.6797 95.2728 42.3145 92.3724 41.7402C91.5286 40.5391 90.3275 39.4668 88.7747 38.6289C86.9818 37.668 84.8138 37 82.4993 37H82.4759ZM53.3489 37.3047C51.8548 37.3223 50.3372 37.4805 48.8314 37.7793C42.8138 38.9805 37.0013 42.7539 34.5755 50.0254C31.6517 58.7969 34.8802 66.0449 38.7298 71.5117C38.0091 72.8242 36.9837 74.4531 35.9759 75.9297C35.39 76.7793 34.8509 77.5527 34.4525 78.1387C34.2474 78.4316 34.0833 78.6777 33.9486 78.8828C33.8841 78.9883 33.8314 79.0762 33.7728 79.1875C33.7435 79.2402 33.7142 79.2988 33.6732 79.3926C33.6321 79.4805 33.5443 79.5449 33.5443 80.0078L33.8196 80.875C33.8196 80.8809 33.9779 81.0684 34.054 81.1328C34.1243 81.2031 34.1946 81.25 34.2532 81.291C34.4993 81.4434 34.6341 81.4609 34.7337 81.4844C34.9388 81.5313 35.0208 81.5254 35.1087 81.5313C35.2728 81.5313 35.4017 81.5254 35.554 81.5078C35.8587 81.4844 36.2337 81.4258 36.6849 81.3438C37.5931 81.1738 38.806 80.8867 40.1243 80.4414C42.4622 79.6504 45.0638 78.2559 46.9329 76.0879C47.7767 76.3574 49.2532 76.8731 51.89 77.0137C55.0306 77.1895 59.0091 76.7441 62.3958 74.2012C63.0638 73.7031 63.1986 72.7656 62.7005 72.1035C62.2025 71.4356 61.265 71.3008 60.6029 71.7988C57.9896 73.7559 54.7669 74.166 52.054 74.0195C49.347 73.873 47.1673 73.1465 47.0032 73.0879L45.9017 72.6953L45.2513 73.668C44.0794 75.4316 41.4954 76.8145 39.1634 77.5996C38.8353 77.7109 38.6243 77.7344 38.3079 77.8281C38.3665 77.7461 38.3958 77.6992 38.4486 77.6231C39.6321 75.8887 41.0091 73.832 41.8411 72.1738L42.2513 71.3477L41.7064 70.6094C37.845 65.3945 34.7279 59.0664 37.4232 50.9746C39.4974 44.7461 44.1849 41.7695 49.4173 40.7207C54.6497 39.6719 60.3978 40.7852 63.7259 42.7891C64.1888 43.082 64.7747 43.1055 65.2552 42.8477C65.7415 42.584 66.0404 42.0801 66.0462 41.5352C66.0462 40.9844 65.7474 40.4805 65.2728 40.2109C62.1439 38.3418 57.8431 37.2344 53.3489 37.3047ZM82.5521 49C81.8958 48.9766 81.2982 49.3867 81.0814 50.0078L75.931 64.8848C75.89 64.9668 75.8607 65.0605 75.8431 65.1484L73.5814 71.6758C73.3118 72.4609 73.7279 73.3106 74.5072 73.5859C75.2923 73.8555 76.1478 73.4395 76.4173 72.6543L78.3743 67H86.6243L88.5814 72.6543C88.8509 73.4395 89.7064 73.8555 90.4915 73.5859C91.2708 73.3106 91.6868 72.4609 91.4173 71.6758L83.9173 50.0078C83.7181 49.4219 83.1732 49.0234 82.5521 49ZM82.4993 55.0879L85.5872 64H79.4114L82.4993 55.0879Z" fill="#363636"/>
<path d="M50.9063 47.5C50.8945 46.6738 51.5566 45.9883 52.3828 45.9766C52.7871 45.9766 53.1797 46.1348 53.4668 46.416C53.748 46.7031 53.9063 47.0957 53.9063 47.5V51.1504H58.248C58.3359 51.1328 58.418 51.127 58.5059 51.127C58.5879 51.127 58.6758 51.1328 58.7578 51.1504H61.2188C61.7578 51.1387 62.2617 51.4258 62.5313 51.8887C62.8066 52.3574 62.8066 52.9375 62.5313 53.4062C62.2617 53.8691 61.7578 54.1562 61.2188 54.1504H59.8125C59.6074 55.2402 59.1973 56.793 58.2656 58.5332C57.6035 59.7695 56.666 61.0879 55.4004 62.3652C56.1445 62.998 56.9473 63.6426 57.8496 64.2637C58.3125 64.5625 58.5762 65.0898 58.5352 65.6348C58.5 66.1797 58.166 66.6602 57.668 66.8887C57.1699 67.1172 56.5898 67.0586 56.1504 66.7363C55.0078 65.9453 54 65.1309 53.0859 64.334C51.4336 65.5293 49.4238 66.625 46.9336 67.4746C46.418 67.6738 45.8438 67.5801 45.4219 67.2227C45 66.8652 44.8125 66.3086 44.9238 65.7695C45.0352 65.2305 45.4336 64.8027 45.9609 64.6387C47.9531 63.959 49.5586 63.1328 50.8828 62.2422C49.0195 60.3203 48.0059 58.8555 48.0059 58.8555C47.6836 58.3984 47.6426 57.8066 47.8945 57.3086C48.1465 56.8164 48.6563 56.5 49.2129 56.4941C49.7227 56.4824 50.1973 56.7344 50.4844 57.1562C50.4844 57.1562 51.4395 58.5391 53.2031 60.3379C54.293 59.2539 55.0723 58.1406 55.623 57.1094C56.25 55.9434 56.5723 54.9297 56.7598 54.1504H44.9531C44.4082 54.1562 43.9043 53.8691 43.6348 53.4062C43.3594 52.9375 43.3594 52.3574 43.6348 51.8887C43.9043 51.4258 44.4082 51.1387 44.9531 51.1504H50.9063V47.5Z" fill="url(#paint0_linear)"/>
<path fill-rule="evenodd" clip-rule="evenodd" d="M82.5523 49.001C81.8961 48.9775 81.2984 49.3877 81.0816 50.0088L75.9312 64.8857C75.8902 64.9678 75.8609 65.0615 75.8433 65.1494L73.5816 71.6767C73.3121 72.4619 73.7281 73.3115 74.5074 73.5869C75.2926 73.8564 76.148 73.4404 76.4176 72.6553L78.3746 67.001H86.6246L88.5816 72.6553C88.8512 73.4404 89.7066 73.8564 90.4918 73.5869C91.2711 73.3115 91.6871 72.4619 91.4176 71.6767L83.9176 50.0088C83.7184 49.4228 83.1734 49.0244 82.5523 49.001ZM82.4995 55.0888L85.5874 64.0009H79.4116L82.4995 55.0888Z" fill="url(#paint1_linear)"/>
</g>
<defs>
<linearGradient id="paint0_linear" x1="43.3706" y1="59.1128" x2="61.9818" y2="51.8002" gradientUnits="userSpaceOnUse">
<stop stop-color="#6B67E9"/>
<stop offset="1" stop-color="#8224E3"/>
</linearGradient>
<linearGradient id="paint1_linear" x1="73.4458" y1="64.0021" x2="91.6055" y2="58.178" gradientUnits="userSpaceOnUse">
<stop stop-color="#6B67E9"/>
<stop offset="1" stop-color="#8224E3"/>
</linearGradient>
<clipPath id="clip0">
<rect width="75" height="75" fill="white" transform="translate(32.9995 32.5)"/>
</clipPath>
</defs>
</svg>
