<svg width="140" height="140" viewBox="0 0 140 140" fill="none" xmlns="http://www.w3.org/2000/svg">
<circle opacity="0.05" cx="70" cy="70" r="70" fill="#377DFF"/>
<g clip-path="url(#clip0)">
<path d="M61 44.5V52H41.2188C40.5977 50.2598 38.9512 49 37 49C34.5156 49 32.5 51.0156 32.5 53.5C32.5 55.9844 34.5156 58 37 58C38.9512 58 40.5977 56.7402 41.2188 55H58C50.3828 59.0723 45.0801 66.9121 44.5469 76H37V94H55V76H47.5938C48.1621 67.416 53.4883 60.1504 61 56.875V62.5H79V56.875C86.5 60.1621 91.8438 67.416 92.4063 76H85V94H103V76H95.4531C94.9317 66.8945 89.6231 59.0723 82 55H98.7813C99.4024 56.7402 101.049 58 103 58C105.484 58 107.5 55.9844 107.5 53.5C107.5 51.0156 105.484 49 103 49C101.049 49 99.4024 50.2598 98.7813 52H79V44.5H61ZM64 47.5H76V52.9844C75.9121 53.2773 75.9121 53.582 76 53.875V59.5H64V53.7812C64.041 53.582 64.041 53.3711 64 53.1719V47.5ZM40 79H52V91H40V79ZM88 79H100V91H88V79Z" fill="#363636"/>
<ellipse cx="37" cy="53.5" rx="4.5" ry="4.5" fill="url(#paint0_linear)"/>
<circle cx="103" cy="53.5" r="4.5" fill="url(#paint1_linear)"/>
</g>
<defs>
<linearGradient id="paint0_linear" x1="32.4732" y1="54.4732" x2="40.8655" y2="50.7845" gradientUnits="userSpaceOnUse">
<stop stop-color="#6B67E9"/>
<stop offset="1" stop-color="#8224E3"/>
</linearGradient>
<linearGradient id="paint1_linear" x1="98.4732" y1="54.4732" x2="106.865" y2="50.7845" gradientUnits="userSpaceOnUse">
<stop stop-color="#6B67E9"/>
<stop offset="1" stop-color="#8224E3"/>
</linearGradient>
<clipPath id="clip0">
<rect width="75" height="75" fill="white" transform="translate(32.5 32.5)"/>
</clipPath>
</defs>
</svg>
