<svg width="141" height="140" viewBox="0 0 141 140" fill="none" xmlns="http://www.w3.org/2000/svg">
<circle cx="70.5" cy="70" r="70" fill="#f5f9ff"/>
<path d="M45 44.5C41.704 44.5 39 47.204 39 50.5V83.5C39 84.596 39.3205 85.6126 39.8408 86.5H36C35.6022 86.5 35.2207 86.6581 34.9394 86.9394C34.6581 87.2207 34.5 87.6022 34.5 88C34.5 92.1243 37.8757 95.5 42 95.5H99C103.124 95.5 106.5 92.1243 106.5 88C106.5 87.6022 106.342 87.2207 106.061 86.9394C105.779 86.6581 105.398 86.5 105 86.5H101.159C101.68 85.6126 102 84.596 102 83.5V50.5C102 47.204 99.296 44.5 96 44.5H45ZM45 47.5H96C97.675 47.5 99 48.825 99 50.5V83.5C99 85.175 97.675 86.5 96 86.5H45C43.325 86.5 42 85.175 42 83.5V50.5C42 48.825 43.325 47.5 45 47.5ZM66 52V53.5V82H75V52H66ZM69 55H72V79H69V55ZM78 58V59.5V82H87V58H78ZM81 61H84V79H81V61ZM38.1182 89.5H45H96H102.882C102.226 91.1687 100.914 92.5 99 92.5H42C40.0862 92.5 38.7738 91.1687 38.1182 89.5Z" fill="#363636"/>
<path fill-rule="evenodd" clip-rule="evenodd" d="M54 65.5V67V82H63V65.5H54ZM60 68.5H57V79H60V68.5Z" fill="url(#paint0_linear)"/>
<defs>
<linearGradient id="paint0_linear" x1="53.9732" y1="75.5342" x2="63.4426" y2="73.264" gradientUnits="userSpaceOnUse">
<stop stop-color="#6B67E9"/>
<stop offset="1" stop-color="#8224E3"/>
</linearGradient>
</defs>
</svg>
