<svg width="140" height="140" viewBox="0 0 140 140" fill="none" xmlns="http://www.w3.org/2000/svg">
<circle opacity="0.05" cx="70" cy="70" r="70" fill="#377DFF"/>
<path d="M61 34C59.3594 34 58 35.3594 58 37H46C43.5332 37 41.5 39.0332 41.5 41.5V100C41.5 102.467 43.5332 104.5 46 104.5H94C96.4668 104.5 98.5 102.467 98.5 100V41.5C98.5 39.0332 96.4668 37 94 37H82C82 35.3594 80.6406 34 79 34H61ZM61 37H79V43C79 43.8496 78.3496 44.5 77.5 44.5H62.5C61.6504 44.5 61 43.8496 61 43V37ZM46 40H58V43H49V97H91V43H82V40H94C94.832 40 95.5 40.668 95.5 41.5V100C95.5 100.832 94.832 101.5 94 101.5H46C45.168 101.5 44.5 100.832 44.5 100V41.5C44.5 40.668 45.168 40 46 40ZM52 46H59.1777C60.0039 46.9141 61.1875 47.5 62.5 47.5H77.5C78.8125 47.5 79.9961 46.9141 80.8223 46H88V94H52V46ZM70.6797 53.5C66.5899 53.5 65.166 56.459 66.3379 58.9844C66.1797 59.1309 65.9336 59.5645 65.9453 59.8809C65.9805 60.625 66.5137 60.9062 66.7598 61.0176C66.8535 61.8789 67.4043 62.6992 67.9609 63.0508V64.8027C67.1992 66.7656 62.5 66.1914 62.5 70H77.5C77.5 66.1914 72.8008 66.7656 72.0449 64.8027V63.0508C72.6074 62.541 72.8711 61.7617 72.8945 61.0176C73.1406 60.8184 73.5274 60.5664 73.6445 59.9629C73.7383 59.4707 73.5391 59.0723 73.3047 58.7793C74.043 57.6895 73.9375 54.3203 71.1191 54.3203L70.6797 53.5ZM58 76V79H82V76H58ZM58 83.5V86.5H77.5V83.5H58Z" fill="#363636"/>
<path d="M66.3379 58.9844C65.166 56.459 66.5898 53.5 70.6797 53.5L71.1191 54.3203C73.9375 54.3203 74.043 57.6895 73.3047 58.7793C73.5391 59.0723 73.7383 59.4707 73.6445 59.9629C73.5273 60.5664 73.1406 60.8184 72.8945 61.0176C72.8711 61.7617 72.6074 62.541 72.0449 63.0508V64.8027C72.8008 66.7656 77.5 66.1914 77.5 70H62.5C62.5 66.1914 67.1992 66.7656 67.9609 64.8027V63.0508C67.4043 62.6992 66.8535 61.8789 66.7598 61.0176C66.5137 60.9062 65.9805 60.625 65.9453 59.8809C65.9336 59.5645 66.1797 59.1309 66.3379 58.9844Z" fill="url(#paint0_linear)"/>
<defs>
<linearGradient id="paint0_linear" x1="62.4553" y1="63.5342" x2="76.8469" y2="57.7836" gradientUnits="userSpaceOnUse">
<stop stop-color="#6B67E9"/>
<stop offset="1" stop-color="#8224E3"/>
</linearGradient>
</defs>
</svg>
