<svg width="100" height="100" viewBox="0 0 100 100" fill="none" xmlns="http://www.w3.org/2000/svg">
<circle cx="50" cy="50" r="50" fill="#F9F9F9"/>
<path d="M28.5717 27.5C28.2875 27.5 28.015 27.6129 27.8141 27.8138C27.6132 28.0148 27.5003 28.2873 27.5002 28.5714V44.6429C27.5003 44.927 27.6132 45.1995 27.8141 45.4004C28.015 45.6014 28.2875 45.7143 28.5717 45.7143H35.0002V54.2857H34.0858C34.0269 54.2773 33.9674 54.2738 33.9079 54.2752C33.868 54.2765 33.8281 54.28 33.7886 54.2857H28.5717C28.2875 54.2857 28.015 54.3986 27.8141 54.5996C27.6132 54.8005 27.5003 55.073 27.5002 55.3571V65.9082C27.4804 66.026 27.4804 66.1462 27.5002 66.264V71.2653C27.4719 71.4338 27.4842 71.6067 27.5362 71.7695C27.5882 71.9322 27.6784 72.0802 27.7992 72.201C27.92 72.3219 28.068 72.412 28.2308 72.4641C28.3935 72.5161 28.5664 72.5284 28.7349 72.5H44.6431C44.9273 72.5 45.1998 72.3871 45.4007 72.1862C45.6016 71.9852 45.7145 71.7127 45.7145 71.4286V66.2074C45.7281 66.1096 45.7281 66.0103 45.7145 65.9124V65H54.286V71.4286C54.286 71.7127 54.3989 71.9852 54.5998 72.1862C54.8007 72.3871 55.0732 72.5 55.3574 72.5H71.4288C71.713 72.5 71.9855 72.3871 72.1864 72.1862C72.3873 71.9852 72.5002 71.7127 72.5002 71.4286V55.3571C72.5002 55.073 72.3873 54.8005 72.1864 54.5996C71.9855 54.3986 71.713 54.2857 71.4288 54.2857H65.0002V45.7143H71.4288C71.713 45.7143 71.9855 45.6014 72.1864 45.4004C72.3873 45.1995 72.5002 44.927 72.5002 44.6429V28.5714C72.5002 28.2873 72.3873 28.0148 72.1864 27.8138C71.9855 27.6129 71.713 27.5 71.4288 27.5H55.3574C55.0732 27.5 54.8007 27.6129 54.5998 27.8138C54.3989 28.0148 54.286 28.2873 54.286 28.5714V35H45.7145V28.5714C45.7145 28.2873 45.6016 28.0148 45.4007 27.8138C45.1998 27.6129 44.9273 27.5 44.6431 27.5H28.5717ZM29.6431 29.6429H43.5717V41.529V43.5714H29.6431V29.6429ZM56.4288 29.6429H70.3574V43.5714H56.4288V41.0268V29.6429ZM45.7145 37.1429H54.286V41.0268V44.6429C54.286 44.927 54.3989 45.1995 54.5998 45.4004C54.8007 45.6014 55.0732 45.7143 55.3574 45.7143H62.8574V54.2857H59.5761H55.3574C55.0732 54.2857 54.8007 54.3986 54.5998 54.5996C54.3989 54.8005 54.286 55.073 54.286 55.3571V62.8571H45.7145V60.8503C45.7281 60.7524 45.7281 60.6531 45.7145 60.5552V59.2746V55.3571C45.7145 55.073 45.6016 54.8005 45.4007 54.5996C45.1998 54.3986 44.9273 54.2857 44.6431 54.2857H39.4429C39.384 54.2773 39.3245 54.2738 39.265 54.2752C39.2251 54.2765 39.1853 54.28 39.1458 54.2857H37.1431V45.7143H44.6431C44.9273 45.7143 45.1998 45.6014 45.4007 45.4004C45.6016 45.1995 45.7145 44.927 45.7145 44.6429V41.529V37.1429ZM29.6431 56.4286H31.3423L29.6431 58.1278V56.4286ZM34.3724 56.4286H36.6995L29.6431 63.4849V61.1579C29.6459 61.1551 29.6487 61.1524 29.6515 61.1496L34.3724 56.4286ZM39.7296 56.4286H42.0566L29.6431 68.8421V66.5151L39.7296 56.4286ZM56.4288 56.4286H59.5761H70.3574V70.3571H56.4288V56.4286ZM43.5717 57.9436V59.2746V60.2706L33.6003 70.242C33.5634 70.2779 33.5291 70.3164 33.4977 70.3571H31.1582L43.5717 57.9436ZM43.5717 63.3008V65.6278L38.9574 70.242C38.9205 70.2779 38.8862 70.3164 38.8549 70.3571H36.5153L43.5717 63.3008ZM43.5717 68.6579V70.3571H41.8725L43.5717 68.6579Z" fill="#363636"/>
<rect x="27.5" y="54.2859" width="18.2143" height="18.2143" fill="url(#paint0_linear)"/>
<path d="M31.3423 56.4285H29.6431V58.1278L31.3423 56.4285Z" fill="white"/>
<path d="M36.6995 56.4285H34.3725L29.6515 61.1495L29.6431 61.1579V63.4849L36.6995 56.4285Z" fill="white"/>
<path d="M42.0566 56.4285H39.7296L29.6431 66.515V68.842L42.0566 56.4285Z" fill="white"/>
<path d="M43.5717 59.2745V57.9436L31.1582 70.3571H33.4977C33.5291 70.3163 33.5634 70.2779 33.6003 70.242L43.5717 60.2706V59.2745Z" fill="white"/>
<path d="M43.5717 65.6278V63.3008L36.5153 70.3571H38.8549C38.8862 70.3163 38.9205 70.2779 38.9574 70.242L43.5717 65.6278Z" fill="white"/>
<path d="M43.5717 70.3571V68.6579L41.8725 70.3571H43.5717Z" fill="white"/>
<defs>
<linearGradient id="paint0_linear" x1="27.4457" y1="65.3627" x2="44.4302" y2="57.8973" gradientUnits="userSpaceOnUse">
<stop stop-color="#6B67E9"/>
<stop offset="1" stop-color="#8224E3"/>
</linearGradient>
</defs>
</svg>
