<svg width="141" height="140" viewBox="0 0 141 140" fill="none" xmlns="http://www.w3.org/2000/svg">
<circle cx="70.5" cy="70" r="70" fill="#f5f9ff"/>
<path d="M42 34V40C42 42.4668 44.0332 44.5 46.5 44.5H49.5V54.5781C49.5 59.0898 51.7441 63.3262 55.5 65.8281L61.7813 70L55.5 74.1719C51.7441 76.6738 49.5 80.9102 49.5 85.4219V95.5H46.5C44.0332 95.5 42 97.5332 42 100V106H99V100C99 97.5332 96.9668 95.5 94.5 95.5H91.5V85.4219C91.5 80.9102 89.2559 76.6738 85.5 74.1719L79.2188 70L85.5 65.8281C89.2559 63.3262 91.5 59.0898 91.5 54.5781V44.5H94.5C96.9668 44.5 99 42.4668 99 40V34H42ZM45 37H96V40C96 40.8496 95.3496 41.5 94.5 41.5H46.5C45.6504 41.5 45 40.8496 45 40V37ZM52.5 44.5H88.5V54.5781C88.5 58.0879 86.7363 61.3516 83.8125 63.2969L75.6563 68.7344L73.7813 70L75.6563 71.2656L83.8125 76.7031C86.7363 78.6543 88.5 81.9121 88.5 85.4219V95.5H83.9063C78 95.5 72 95.5 72 95.5C72 95.5 72 95.5 57.0938 95.5H52.5V85.4219C52.5 81.9121 54.2637 78.6543 57.1875 76.7031L65.3438 71.2656L67.2188 70L65.3438 68.7344L57.1875 63.2969C54.2637 61.3516 52.5 58.0879 52.5 54.5781V44.5ZM46.5 98.5H94.5C95.3496 98.5 96 99.1504 96 100V103H45V100C45 99.1504 45.6504 98.5 46.5 98.5Z" fill="#363636"/>
<path d="M84 95.5C84 95.5 83.25 85 70.5 80.4999C70.5 80.4999 66 81.25 61.5 85.75C57 90.25 57 95.5 57 95.5H84Z" fill="url(#paint0_linear)"/>
<path d="M70.5 65.5C70.5 65.5 58.5 62.6348 58.5 55H82.5C82.5 62.4766 70.5 65.5 70.5 65.5Z" fill="url(#paint1_linear)"/>
<defs>
<linearGradient id="paint0_linear" x1="56.9195" y1="89.622" x2="75.3955" y2="75.0044" gradientUnits="userSpaceOnUse">
<stop stop-color="#6B67E9"/>
<stop offset="1" stop-color="#8224E3"/>
</linearGradient>
<linearGradient id="paint1_linear" x1="58.4284" y1="61.3854" x2="71.7179" y2="48.034" gradientUnits="userSpaceOnUse">
<stop stop-color="#6B67E9"/>
<stop offset="1" stop-color="#8224E3"/>
</linearGradient>
</defs>
</svg>
