<svg width="100" height="100" viewBox="0 0 100 100" fill="none" xmlns="http://www.w3.org/2000/svg">
<circle cx="50" cy="50" r="50" fill="#F9F9F9"/>
<path d="M28.5712 25.3572C26.8092 25.3572 25.3569 26.8095 25.3569 28.5715V60.7143C25.3569 62.4763 26.8092 63.9286 28.5712 63.9286H43.5712V66.0715H33.9284C33.8949 66.0715 33.8614 66.0715 33.8279 66.0715C33.5391 66.1008 33.2713 66.2431 33.0913 66.4732L27.7342 72.9018C27.4747 73.2241 27.4245 73.6635 27.6044 74.036C27.7844 74.4085 28.1611 74.6429 28.5712 74.6429H71.4284C71.8385 74.6429 72.2152 74.4085 72.3952 74.036C72.5751 73.6635 72.5249 73.2241 72.2654 72.9018L66.9083 66.4732C66.7032 66.2179 66.3977 66.0715 66.0712 66.0715H56.4284V63.9286H71.4284C73.1904 63.9286 74.6427 62.4763 74.6427 60.7143V28.5715C74.6427 26.8095 73.1904 25.3572 71.4284 25.3572H28.5712ZM28.5712 27.5H71.4284C72.0227 27.5 72.4998 27.9772 72.4998 28.5715V60.7143C72.4998 61.3086 72.0227 61.7857 71.4284 61.7857H28.5712C27.9769 61.7857 27.4998 61.3086 27.4998 60.7143V28.5715C27.4998 27.9772 27.9769 27.5 28.5712 27.5ZM29.6426 29.6429V59.6429H70.3569V29.6429H29.6426ZM31.7855 31.7857H68.2141V57.5H31.7855V31.7857ZM45.7141 63.9286H54.2855V68.2143H45.7141V63.9286ZM34.4306 68.2143H43.5712V70.3572H56.4284V68.2143H65.569L69.1516 72.5H30.848L34.4306 68.2143Z" fill="#363636"/>
<path d="M35.3018 43.8729L43.8732 35.3015L45.4134 36.8417L37.6121 44.643L45.4134 52.4444L43.8732 53.9846L35.3018 45.4131L34.5652 44.643L35.3018 43.8729Z" fill="url(#paint0_linear)"/>
<path d="M54.5875 36.8417L56.1277 35.3015L64.6991 43.8729L65.4357 44.643L64.6991 45.4131L56.1277 53.9846L54.5875 52.4444L62.3888 44.643L54.5875 36.8417Z" fill="url(#paint1_linear)"/>
<defs>
<linearGradient id="paint0_linear" x1="34.4731" y1="46.6633" x2="56.9598" y2="30.3321" gradientUnits="userSpaceOnUse">
<stop stop-color="#6B67E9"/>
<stop offset="1" stop-color="#8224E3"/>
</linearGradient>
<linearGradient id="paint1_linear" x1="34.4731" y1="46.6633" x2="56.9598" y2="30.3321" gradientUnits="userSpaceOnUse">
<stop stop-color="#6B67E9"/>
<stop offset="1" stop-color="#8224E3"/>
</linearGradient>
</defs>
</svg>
