<svg width="28" height="28" viewBox="0 0 28 28" fill="none" xmlns="http://www.w3.org/2000/svg">
<path d="M25.5178 14.5824H2.82129C2.92539 16.6774 3.58523 18.624 4.67284 20.2707H23.6662C24.7533 18.624 25.4137 16.6774 25.5178 14.5824Z" fill="#3F51B5"/>
<path d="M25.5463 14.0137C25.5463 7.73031 20.453 2.63696 14.1697 2.63696C7.88631 2.63696 2.79297 7.73031 2.79297 14.0137C2.79297 14.2059 2.81231 14.3931 2.82141 14.5825H25.5179C25.527 14.3931 25.5463 14.2059 25.5463 14.0137Z" fill="#FFC107"/>
<path d="M23.6662 20.2708H4.67285C6.70814 23.3533 10.1991 25.3903 14.1695 25.3903C18.14 25.3903 21.6309 23.3533 23.6662 20.2708Z" fill="#FF3D00"/>
</svg>
