<svg width="297" height="177" viewBox="0 0 297 177" fill="none" xmlns="http://www.w3.org/2000/svg">
<g filter="url(#filter0_d_2013_28921)">
<path d="M45.8042 44.9758V35.5944H90.152V44.9758H73.6239V89.3638H62.3323V44.9758H45.8042Z" fill="white"/>
<path d="M106.692 90.1915C102.981 90.2874 99.3132 89.3839 96.0745 87.5762C93.1181 85.8564 90.7261 83.3184 89.1888 80.2702C87.514 76.8867 86.6878 73.1488 86.7812 69.3771C86.6867 65.59 87.5127 61.8363 89.1888 58.4361C90.7297 55.3935 93.1211 52.8603 96.0745 51.1421C99.31 49.3265 102.98 48.4225 106.692 48.5268C110.4 48.4246 114.065 49.3286 117.297 51.1421C120.254 52.8596 122.65 55.3927 124.195 58.4361C125.865 61.8383 126.691 65.5906 126.603 69.3771C126.69 73.1482 125.864 76.8846 124.195 80.2702C122.653 83.3192 120.257 85.8571 117.297 87.5762C114.063 89.3835 110.399 90.287 106.692 90.1915V90.1915ZM106.692 81.5178C108.391 81.5751 110.052 81.012 111.363 79.9343C112.698 78.7674 113.692 77.2628 114.24 75.5795C115.524 71.4903 115.524 67.108 114.24 63.0189C113.702 61.3424 112.726 59.8392 111.411 58.664C110.105 57.5747 108.442 57.0025 106.74 57.0565C105.02 57.0045 103.339 57.5756 102.009 58.664C100.672 59.829 99.6774 61.3342 99.1321 63.0189C97.8482 67.108 97.8482 71.4903 99.1321 75.5795C99.6746 77.2654 100.67 78.7714 102.009 79.9343C103.339 81.0271 105.017 81.61 106.74 81.5778L106.692 81.5178Z" fill="white"/>
<path d="M130.973 104.54V49.0426H142.048V55.8208H142.553C143.12 54.6253 143.84 53.5083 144.696 52.4977C145.717 51.3078 146.975 50.3435 148.392 49.6665C150.17 48.8484 152.116 48.4581 154.073 48.5268C156.96 48.5119 159.792 49.3059 162.247 50.8181C164.882 52.4929 166.973 54.8932 168.266 57.7283C169.875 61.3623 170.641 65.3113 170.505 69.2811C170.624 73.1893 169.881 77.0759 168.326 80.6661C167.08 83.5232 165.032 85.9603 162.428 87.6841C159.94 89.2757 157.041 90.1095 154.085 90.0835C152.178 90.1385 150.283 89.7696 148.536 89.0038C147.118 88.3656 145.848 87.4426 144.804 86.2925C143.904 85.301 143.157 84.1809 142.589 82.9694H142.24V104.564L130.973 104.54ZM141.975 69.2212C141.928 71.3593 142.267 73.4885 142.974 75.5074C143.533 77.1378 144.538 78.5798 145.876 79.6703C147.191 80.6779 148.815 81.2032 150.474 81.1579C152.148 81.2047 153.786 80.6704 155.109 79.6463C156.448 78.5395 157.449 77.0806 157.998 75.4355C159.306 71.4197 159.306 67.0946 157.998 63.0788C157.454 61.4542 156.461 60.0155 155.133 58.9279C153.774 57.971 152.15 57.4573 150.486 57.4573C148.822 57.4573 147.199 57.971 145.84 58.9279C144.506 59.9957 143.505 61.4184 142.95 63.0308C142.257 65.0196 141.926 67.1162 141.975 69.2212V69.2212Z" fill="white"/>
<path d="M209.063 90.1435C205.455 90.2079 201.874 89.513 198.554 88.1041C195.69 86.8964 193.198 84.9552 191.331 82.4776C189.554 80.0766 188.596 77.1712 188.598 74.1879H200.094C200.144 75.4488 200.6 76.6602 201.394 77.6429C202.244 78.6733 203.348 79.4669 204.597 79.9463C206.034 80.507 207.567 80.7841 209.111 80.7621C210.697 80.7908 212.27 80.4756 213.721 79.8383C214.98 79.2883 216.065 78.4096 216.863 77.295C217.618 76.1889 218.013 74.8778 217.995 73.54C218.017 72.1685 217.595 70.8263 216.791 69.7131C215.915 68.5387 214.727 67.6326 213.36 67.0978C211.682 66.4255 209.884 66.103 208.076 66.15H203.044V57.7523H208.076C209.647 57.7826 211.207 57.4758 212.65 56.8526C213.896 56.3273 214.971 55.4676 215.756 54.3692C216.505 53.2748 216.892 51.9746 216.863 50.6502C216.908 49.4094 216.591 48.1823 215.95 47.1177C215.309 46.053 214.371 45.1965 213.252 44.6519C211.998 44.0528 210.621 43.7568 209.231 43.7881C207.777 43.7701 206.334 44.052 204.994 44.6159C203.769 45.1302 202.701 45.9579 201.9 47.0152C201.128 48.0583 200.706 49.318 200.696 50.6143H189.754C189.751 47.6717 190.683 44.8038 192.414 42.4205C194.209 39.9897 196.613 38.0704 199.384 36.854C202.51 35.4787 205.899 34.7952 209.315 34.8505C212.685 34.7762 216.027 35.4653 219.09 36.866C221.714 38.0739 223.967 39.9584 225.615 42.3245C227.161 44.5851 227.968 47.2668 227.926 50.0024C227.97 51.3946 227.736 52.7815 227.238 54.083C226.74 55.3844 225.988 56.5745 225.025 57.5844C223.057 59.639 220.463 60.9885 217.646 61.4233V61.8432C221.073 62.1014 224.295 63.5689 226.734 65.9821C228.839 68.2636 229.951 71.283 229.828 74.3798C229.89 77.3221 228.957 80.1997 227.18 82.5496C225.264 85.0388 222.723 86.9797 219.813 88.1761C216.405 89.568 212.744 90.238 209.063 90.1435Z" fill="white"/>
<path d="M236.569 70.3849V69.0653C236.558 68.0678 236.793 67.0829 237.255 66.198C237.701 65.3329 238.38 64.6097 239.218 64.1106C240.148 63.5601 241.217 63.2855 242.299 63.3188C243.408 63.2813 244.505 63.5557 245.465 64.1106C246.298 64.6076 246.971 65.332 247.403 66.198C247.852 67.0869 248.079 68.0704 248.065 69.0653V70.3849C248.079 71.3759 247.852 72.3556 247.403 73.2401C246.961 74.1006 246.28 74.8166 245.441 75.3036C244.485 75.8446 243.398 76.1143 242.299 76.0834C241.202 76.1179 240.117 75.8435 239.169 75.2916C238.332 74.7898 237.658 74.0562 237.231 73.1801C236.796 72.3121 236.57 71.3552 236.569 70.3849V70.3849ZM238.423 89.3997L255.698 64.3625H259.044L241.77 89.3997H238.423ZM240.53 69.0653V70.3849C240.523 70.9175 240.656 71.4427 240.915 71.9085C241.054 72.1446 241.259 72.3358 241.505 72.4592C241.75 72.5826 242.026 72.6329 242.299 72.6043C242.582 72.6404 242.869 72.5939 243.125 72.4704C243.382 72.3468 243.597 72.1516 243.744 71.9085C243.985 71.4367 244.109 70.9142 244.105 70.3849V69.0653C244.109 68.5309 243.994 68.0022 243.768 67.5177C243.627 67.2615 243.41 67.0543 243.148 66.9236C242.886 66.7929 242.59 66.7448 242.299 66.7859C242.019 66.7561 241.735 66.8111 241.486 66.9437C241.237 67.0763 241.034 67.2805 240.903 67.5297C240.658 68.0048 240.53 68.5312 240.53 69.0653ZM249.606 84.661V83.3414C249.594 82.3543 249.821 81.3788 250.268 80.4982C250.708 79.6266 251.383 78.8951 252.219 78.3867C253.158 77.8349 254.235 77.5603 255.324 77.5949C256.433 77.5575 257.531 77.8319 258.49 78.3867C259.318 78.8898 259.989 79.6126 260.428 80.4742C260.868 81.3659 261.09 82.3481 261.079 83.3414V84.661C261.091 85.6481 260.864 86.6236 260.416 87.5043C259.984 88.3808 259.307 89.1141 258.466 89.6157C257.515 90.1692 256.426 90.4437 255.324 90.4075C254.227 90.4453 253.141 90.1707 252.194 89.6157C251.37 89.1296 250.699 88.4231 250.256 87.5762C249.815 86.6854 249.592 85.7026 249.606 84.709V84.661ZM253.519 83.3414V84.661C253.516 85.1855 253.649 85.7017 253.904 86.1606C254.072 86.3796 254.289 86.557 254.538 86.679C254.786 86.8011 255.059 86.8646 255.336 86.8646C255.613 86.8646 255.887 86.8011 256.135 86.679C256.383 86.557 256.6 86.3796 256.769 86.1606C257.011 85.6893 257.135 85.1665 257.13 84.637V83.3174C257.137 82.7813 257.018 82.2511 256.781 81.7698C256.64 81.5158 256.426 81.31 256.166 81.1794C255.906 81.0488 255.613 80.9995 255.324 81.038C255.042 81.0117 254.758 81.0667 254.506 81.1964C254.255 81.3261 254.046 81.5251 253.904 81.7698C253.632 82.2656 253.499 82.8249 253.519 83.3894V83.3414Z" fill="white"/>
</g>
<path d="M52.8345 144.273V115.577H55.4708V141.97H69.194V144.369L52.8345 144.273Z" fill="#009BFF"/>
<path d="M79.0413 144.765C77.7959 144.786 76.5616 144.528 75.4299 144.009C74.3798 143.524 73.4873 142.755 72.8538 141.79C72.1929 140.734 71.8618 139.506 71.9028 138.262C71.8755 137.331 72.0824 136.407 72.5047 135.575C72.9152 134.842 73.508 134.227 74.2261 133.788C75.0397 133.287 75.9244 132.91 76.8504 132.672C77.9502 132.388 79.0684 132.179 80.1969 132.048L83.2666 131.652C83.935 131.592 84.5872 131.413 85.1927 131.124C85.4064 131.008 85.5823 130.834 85.6996 130.621C85.8169 130.408 85.8707 130.167 85.8548 129.925V129.421C85.8882 128.781 85.7877 128.142 85.5598 127.543C85.3318 126.944 84.9813 126.399 84.5306 125.942C83.481 125.065 82.1279 124.634 80.7627 124.742C79.4192 124.679 78.0894 125.036 76.9587 125.762C76.0542 126.346 75.3391 127.18 74.9003 128.161L72.4927 127.309C72.9553 126.194 73.6922 125.212 74.6354 124.454C75.4881 123.755 76.4754 123.236 77.5366 122.931C78.592 122.621 79.6865 122.463 80.7868 122.463C81.6554 122.468 82.5202 122.577 83.3629 122.787C84.2572 122.997 85.1029 123.376 85.8548 123.902C86.6557 124.465 87.3016 125.22 87.7327 126.098C88.2537 127.224 88.4972 128.458 88.4429 129.697V144.309H85.8909V140.914H85.7344C84.9822 142.424 83.6958 143.604 82.123 144.225C81.1425 144.609 80.0945 144.793 79.0413 144.765V144.765ZM79.3784 142.485C80.5902 142.513 81.786 142.206 82.8332 141.598C83.7935 141.019 84.5762 140.189 85.0964 139.198C85.6306 138.202 85.9039 137.088 85.8909 135.959V132.852C85.6143 133.074 85.2947 133.238 84.9519 133.332C84.459 133.488 83.9563 133.612 83.4472 133.704C82.8814 133.812 82.3156 133.896 81.7498 133.98L80.2331 134.172C79.1705 134.284 78.1243 134.517 77.1152 134.867C76.3461 135.121 75.6598 135.577 75.129 136.187C74.6524 136.795 74.4091 137.552 74.4428 138.322C74.4022 138.913 74.5084 139.504 74.752 140.044C74.9955 140.584 75.369 141.056 75.8392 141.418C76.8652 142.159 78.1118 142.535 79.3784 142.485V142.485Z" fill="#009BFF"/>
<path d="M101.961 122.751V124.922H91.6567V122.751H101.961ZM94.8709 117.568H97.3868V138.622C97.3486 139.356 97.5109 140.085 97.8563 140.734C98.1358 141.209 98.5564 141.586 99.0601 141.814C99.5644 142.019 100.104 142.125 100.649 142.125C100.93 142.147 101.211 142.147 101.492 142.125L102.118 141.993L102.647 144.249C102.355 144.36 102.052 144.444 101.745 144.501C101.313 144.59 100.873 144.631 100.432 144.621C99.512 144.619 98.6034 144.414 97.772 144.021C96.8621 143.602 96.0992 142.921 95.582 142.066C95.0648 141.21 94.8171 140.22 94.8709 139.222V117.568Z" fill="#009BFF"/>
<path d="M106.62 144.273H103.863L114.36 115.577H117.177L127.65 144.273H124.894L115.865 118.984H115.672L106.62 144.273ZM108.606 133.284H122.883V135.683H108.606V133.284Z" fill="#009BFF"/>
<path d="M130.455 144.273V122.751H132.863V126.062H133.091C133.499 124.973 134.257 124.049 135.246 123.435C136.333 122.777 137.586 122.444 138.858 122.475C140.142 122.429 141.408 122.795 142.469 123.518C143.454 124.246 144.207 125.241 144.636 126.386H144.816C145.294 125.203 146.137 124.203 147.224 123.53C148.428 122.796 149.822 122.429 151.233 122.475C152.124 122.42 153.018 122.56 153.849 122.885C154.681 123.211 155.431 123.713 156.048 124.358C157.312 125.905 157.936 127.875 157.793 129.865V144.261H155.289V129.865C155.344 129.171 155.256 128.474 155.03 127.816C154.805 127.158 154.446 126.553 153.977 126.038C153.52 125.603 152.979 125.266 152.387 125.045C151.796 124.825 151.165 124.726 150.534 124.754C149.827 124.713 149.119 124.829 148.462 125.092C147.804 125.356 147.213 125.76 146.73 126.278C145.817 127.344 145.339 128.715 145.394 130.117V144.273H142.83V129.637C142.893 128.351 142.463 127.09 141.626 126.11C141.183 125.648 140.645 125.288 140.048 125.054C139.452 124.82 138.811 124.718 138.171 124.754C137.231 124.742 136.306 124.994 135.503 125.482C134.701 125.97 134.052 126.674 133.633 127.513C133.163 128.434 132.927 129.456 132.947 130.489V144.273H130.455Z" fill="#009BFF"/>
<path d="M180.894 122.751V124.922H170.59V122.751H180.894ZM173.816 117.568H176.332V138.622C176.296 139.354 176.454 140.082 176.789 140.734C177.067 141.211 177.488 141.588 177.993 141.814C178.497 142.022 179.037 142.128 179.582 142.125C179.863 142.146 180.144 142.146 180.425 142.125L181.039 141.993L181.58 144.249C180.867 144.507 180.112 144.633 179.353 144.621C178.437 144.619 177.532 144.414 176.705 144.021C175.791 143.608 175.024 142.928 174.506 142.071C173.988 141.214 173.743 140.221 173.804 139.222L173.816 117.568Z" fill="#009BFF"/>
<path d="M191.03 144.765C189.785 144.786 188.55 144.528 187.419 144.009C186.369 143.524 185.476 142.755 184.843 141.79C184.182 140.734 183.851 139.506 183.892 138.263C183.864 137.331 184.071 136.407 184.493 135.575C184.904 134.842 185.497 134.227 186.215 133.788C187.028 133.287 187.913 132.91 188.839 132.672C189.939 132.388 191.057 132.179 192.186 132.048L195.255 131.652C195.924 131.592 196.576 131.413 197.181 131.124C197.399 131.014 197.578 130.84 197.694 130.626C197.81 130.411 197.858 130.167 197.832 129.925V129.421C197.867 128.782 197.768 128.143 197.542 127.544C197.316 126.945 196.968 126.4 196.519 125.942C195.47 125.065 194.117 124.635 192.751 124.742C191.408 124.679 190.078 125.036 188.948 125.762C188.043 126.346 187.328 127.18 186.889 128.161L184.481 127.31C184.913 126.215 185.608 125.243 186.504 124.478C187.357 123.779 188.344 123.26 189.405 122.955C190.46 122.645 191.555 122.487 192.655 122.487C193.524 122.493 194.389 122.601 195.231 122.811C196.124 123.025 196.969 123.403 197.723 123.926C198.524 124.49 199.17 125.245 199.601 126.122C200.116 127.25 200.36 128.482 200.311 129.721V144.333H197.807V140.938H197.663C196.911 142.448 195.624 143.628 194.052 144.249C193.088 144.617 192.061 144.792 191.03 144.765V144.765ZM191.367 142.485C192.579 142.513 193.775 142.206 194.822 141.598C195.779 141.019 196.558 140.189 197.073 139.198C197.607 138.202 197.881 137.088 197.868 135.959V132.852C197.598 133.078 197.281 133.241 196.941 133.332C196.448 133.488 195.945 133.612 195.436 133.704C194.87 133.812 194.304 133.896 193.739 133.98L192.222 134.172C191.159 134.284 190.113 134.517 189.104 134.867C188.335 135.121 187.649 135.577 187.118 136.187C186.641 136.795 186.398 137.552 186.432 138.323C186.402 138.904 186.515 139.484 186.761 140.013C187.006 140.542 187.376 141.003 187.84 141.358C188.865 142.126 190.121 142.524 191.403 142.485H191.367Z" fill="#009BFF"/>
<path d="M207.943 115.577V144.273H205.439V115.577H207.943Z" fill="#009BFF"/>
<path d="M221.703 144.729C219.896 144.795 218.11 144.325 216.572 143.379C215.033 142.433 213.811 141.053 213.06 139.414C212.265 137.591 211.855 135.625 211.855 133.638C211.855 131.65 212.265 129.684 213.06 127.861C213.787 126.263 214.94 124.893 216.394 123.902C217.849 122.932 219.567 122.43 221.318 122.463C222.479 122.463 223.63 122.678 224.712 123.099C225.814 123.534 226.81 124.197 227.637 125.042C228.547 125.987 229.248 127.111 229.696 128.341C230.232 129.842 230.489 131.427 230.454 133.02V134.22H213.601V132.024H227.914C227.937 130.731 227.648 129.452 227.072 128.293C226.558 127.223 225.758 126.314 224.76 125.666C223.699 125.011 222.47 124.674 221.222 124.695C219.973 124.717 218.757 125.095 217.718 125.786C216.684 126.532 215.856 127.527 215.311 128.677C214.722 129.902 214.418 131.242 214.42 132.6V133.92C214.389 135.458 214.693 136.985 215.311 138.395C215.857 139.603 216.738 140.631 217.851 141.358C218.84 141.926 219.942 142.272 221.079 142.371C222.216 142.471 223.362 142.321 224.435 141.934C225.14 141.658 225.783 141.246 226.326 140.72C226.87 140.195 227.303 139.568 227.601 138.874L230.009 139.642C229.663 140.586 229.112 141.442 228.396 142.15C227.603 142.946 226.658 143.574 225.615 143.997C224.374 144.501 223.043 144.75 221.703 144.729Z" fill="#009BFF"/>
<path d="M236.871 130.825V144.273H234.367V122.751H236.774V126.134H237.003C237.516 125.027 238.356 124.102 239.411 123.482C240.616 122.777 241.998 122.427 243.395 122.475C244.727 122.445 246.045 122.755 247.223 123.375C248.331 123.983 249.229 124.912 249.799 126.038C250.453 127.373 250.771 128.847 250.726 130.333V144.273H248.222V130.489C248.305 128.953 247.772 127.447 246.742 126.302C246.224 125.782 245.604 125.376 244.919 125.11C244.235 124.843 243.503 124.722 242.769 124.754C241.712 124.738 240.668 124.99 239.736 125.486C238.856 125.975 238.133 126.703 237.653 127.585C237.118 128.581 236.849 129.696 236.871 130.825V130.825Z" fill="#009BFF"/>
<path d="M264.245 122.751V124.922H253.928V122.751H264.245ZM257.154 117.568H259.67V138.622C259.632 139.356 259.794 140.085 260.14 140.734C260.416 141.212 260.838 141.59 261.344 141.814C261.847 142.022 262.387 142.128 262.933 142.125C263.213 142.147 263.495 142.147 263.775 142.125L264.389 141.993L264.931 144.249C264.638 144.36 264.336 144.444 264.028 144.501C263.593 144.591 263.148 144.631 262.704 144.621C261.787 144.618 260.883 144.413 260.056 144.021C259.146 143.602 258.383 142.921 257.866 142.066C257.348 141.21 257.101 140.22 257.154 139.222V117.568Z" fill="#009BFF"/>
<defs>
<filter id="filter0_d_2013_28921" x="43.8042" y="32.8451" width="223.275" height="77.7185" filterUnits="userSpaceOnUse" color-interpolation-filters="sRGB">
<feFlood flood-opacity="0" result="BackgroundImageFix"/>
<feColorMatrix in="SourceAlpha" type="matrix" values="0 0 0 0 0 0 0 0 0 0 0 0 0 0 0 0 0 0 127 0" result="hardAlpha"/>
<feOffset dx="2" dy="2"/>
<feGaussianBlur stdDeviation="2"/>
<feColorMatrix type="matrix" values="0 0 0 0 0 0 0 0 0 0 0 0 0 0 0 0 0 0 0.25 0"/>
<feBlend mode="normal" in2="BackgroundImageFix" result="effect1_dropShadow_2013_28921"/>
<feBlend mode="normal" in="SourceGraphic" in2="effect1_dropShadow_2013_28921" result="shape"/>
</filter>
</defs>
</svg>
