<svg width="164" height="97" viewBox="0 0 164 97" fill="none" xmlns="http://www.w3.org/2000/svg">
<g filter="url(#filter0_d_1875_32120)">
<path d="M21.0449 22.6805V17.1152H47.1758V22.6805H37.437V49.0337H30.7908V22.6805H21.052H21.0449Z" fill="white"/>
<path d="M56.9216 49.5037C54.51 49.5037 52.4246 48.9842 50.6726 47.9523C48.9207 46.9204 47.5659 45.4757 46.6083 43.6182C45.6508 41.7608 45.1826 39.6115 45.1826 37.1562C45.1826 34.701 45.6578 32.5161 46.6083 30.6658C47.5588 28.8083 48.9136 27.3636 50.6726 26.3317C52.4246 25.2998 54.51 24.7803 56.9216 24.7803C59.3333 24.7803 61.4186 25.2998 63.1706 26.3317C64.9226 27.3636 66.2774 28.8083 67.2349 30.6658C68.1854 32.5233 68.6606 34.6867 68.6606 37.1562C68.6606 39.6257 68.1854 41.7608 67.2349 43.6182C66.2845 45.4757 64.9297 46.9204 63.1706 47.9523C61.4115 48.9842 59.3333 49.5037 56.9216 49.5037ZM56.95 44.3584C58.0494 44.3584 58.9644 44.0452 59.7021 43.4118C60.4398 42.7856 60.993 41.9244 61.369 40.8356C61.7449 39.7467 61.9364 38.5013 61.9364 37.1135C61.9364 35.7258 61.7449 34.4804 61.369 33.3915C60.993 32.3026 60.4327 31.4415 59.7021 30.801C58.9644 30.1676 58.0494 29.8474 56.95 29.8474C55.8506 29.8474 54.9143 30.1676 54.1624 30.801C53.4106 31.4344 52.8502 32.2955 52.4672 33.3915C52.0913 34.4804 51.8997 35.7258 51.8997 37.1135C51.8997 38.5013 52.0913 39.7467 52.4672 40.8356C52.8431 41.9244 53.4106 42.7856 54.1624 43.4118C54.9143 44.0381 55.8435 44.3584 56.95 44.3584Z" fill="white"/>
<path d="M71.2285 58.0153V25.0934H77.7541V29.1144H78.052C78.3429 28.4667 78.7613 27.812 79.3217 27.143C79.875 26.4741 80.5985 25.9118 81.4993 25.4564C82.393 25.008 83.5137 24.7803 84.8472 24.7803C86.585 24.7803 88.1951 25.2357 89.6634 26.1467C91.1317 27.0576 92.3091 28.424 93.1886 30.2459C94.0682 32.0678 94.5079 34.3523 94.5079 37.0922C94.5079 39.8321 94.0824 42.017 93.2241 43.846C92.3729 45.6821 91.2097 47.0698 89.7414 48.0092C88.2731 48.9486 86.6347 49.4183 84.8259 49.4183C83.5421 49.4183 82.4497 49.2048 81.556 48.7778C80.6623 48.3508 79.9246 47.8171 79.3572 47.1623C78.7897 46.5147 78.3499 45.8529 78.052 45.191H77.8534V58.0011H71.2356L71.2285 58.0153ZM77.7045 37.0708C77.7045 38.4942 77.9031 39.7396 78.2932 40.7929C78.6833 41.8533 79.2579 42.6788 80.0026 43.2624C80.7474 43.846 81.6553 44.1449 82.7193 44.1449C83.7832 44.1449 84.7053 43.846 85.4501 43.2481C86.1949 42.6503 86.7623 41.8177 87.1524 40.7573C87.5426 39.6898 87.7341 38.4657 87.7341 37.0708C87.7341 35.676 87.5426 34.4732 87.1595 33.4271C86.7765 32.3809 86.2091 31.5554 85.4643 30.9647C84.7195 30.374 83.8045 30.0751 82.7122 30.0751C81.6199 30.0751 80.7261 30.3598 79.9885 30.9291C79.2508 31.4985 78.6833 32.3098 78.2861 33.363C77.8889 34.4092 77.6974 35.6475 77.6974 37.0708H77.7045Z" fill="white"/>
<path d="M117.241 49.4752C114.921 49.4752 112.857 49.0695 111.049 48.2653C109.24 47.4612 107.814 46.3509 106.779 44.9276C105.736 43.5114 105.204 41.8674 105.168 40.0099H111.942C111.985 40.7928 112.24 41.476 112.708 42.0596C113.177 42.6503 113.808 43.0986 114.595 43.426C115.382 43.7462 116.269 43.9099 117.255 43.9099C118.241 43.9099 119.184 43.7249 119.972 43.3619C120.759 42.999 121.376 42.4937 121.823 41.8532C122.27 41.2056 122.49 40.4654 122.49 39.6256C122.49 38.7859 122.256 38.0173 121.78 37.3554C121.312 36.6936 120.638 36.1812 119.759 35.804C118.886 35.4268 117.844 35.2418 116.645 35.2418H113.68V30.2885H116.645C117.659 30.2885 118.56 30.1106 119.34 29.7619C120.121 29.406 120.731 28.915 121.163 28.2887C121.596 27.6624 121.816 26.9223 121.816 26.0825C121.816 25.2428 121.624 24.5809 121.248 23.9689C120.873 23.364 120.341 22.8871 119.667 22.5455C118.986 22.2039 118.198 22.0331 117.298 22.0331C116.397 22.0331 115.553 22.1968 114.794 22.5242C114.035 22.8516 113.432 23.3141 112.978 23.9191C112.524 24.524 112.276 25.2285 112.247 26.0398H105.8C105.828 24.2037 106.353 22.5811 107.367 21.1791C108.382 19.7771 109.751 18.674 111.474 17.8841C113.198 17.087 115.148 16.6885 117.326 16.6885C119.504 16.6885 121.44 17.087 123.086 17.8912C124.731 18.6883 126.015 19.77 126.93 21.1222C127.845 22.4815 128.299 23.9973 128.292 25.684C128.299 27.4703 127.753 28.9648 126.639 30.1604C125.526 31.356 124.079 32.1175 122.298 32.4378V32.6868C124.639 32.9858 126.419 33.8042 127.646 35.1279C128.873 36.4516 129.483 38.1098 129.469 40.0953C129.476 41.9101 128.959 43.5327 127.909 44.9418C126.859 46.3581 125.412 47.4683 123.568 48.2796C121.724 49.0909 119.61 49.4965 117.227 49.4965L117.241 49.4752Z" fill="white"/>
<path d="M133.449 37.7542V36.9714C133.449 36.3523 133.583 35.7829 133.853 35.2705C134.123 34.7581 134.506 34.3453 135.009 34.0322C135.513 33.7191 136.116 33.5625 136.832 33.5625C137.549 33.5625 138.187 33.7191 138.691 34.0322C139.194 34.3453 139.577 34.7581 139.832 35.2705C140.095 35.7829 140.223 36.3523 140.223 36.9714V37.7542C140.223 38.3734 140.088 38.9356 139.825 39.448C139.563 39.9604 139.18 40.3661 138.676 40.6721C138.173 40.9781 137.556 41.1276 136.825 41.1276C136.094 41.1276 135.484 40.971 134.981 40.665C134.477 40.359 134.094 39.9462 133.839 39.4338C133.584 38.9214 133.456 38.3592 133.456 37.7542H133.449ZM134.541 49.0342L144.72 34.1817H146.691L136.513 49.0342H134.541ZM135.775 36.9643V37.7471C135.775 38.0745 135.853 38.3734 136.002 38.651C136.151 38.9285 136.428 39.0708 136.825 39.0708C137.251 39.0708 137.534 38.9285 137.676 38.651C137.818 38.3734 137.889 38.0745 137.889 37.7471V36.9643C137.889 36.6369 137.818 36.338 137.683 36.0462C137.549 35.7616 137.265 35.6121 136.825 35.6121C136.421 35.6121 136.144 35.7616 135.995 36.0534C135.846 36.3451 135.775 36.6512 135.775 36.9572V36.9643ZM141.123 46.2445V45.4616C141.123 44.8496 141.258 44.2874 141.521 43.775C141.783 43.2555 142.166 42.8427 142.67 42.5296C143.173 42.2164 143.783 42.0599 144.507 42.0599C145.23 42.0599 145.862 42.2164 146.365 42.5296C146.869 42.8427 147.252 43.2555 147.507 43.7679C147.763 44.2803 147.897 44.8496 147.897 45.4688V46.2516C147.897 46.8636 147.77 47.4259 147.507 47.9383C147.245 48.4578 146.862 48.8706 146.358 49.1837C145.854 49.4968 145.237 49.6534 144.507 49.6534C143.776 49.6534 143.159 49.4968 142.656 49.1837C142.152 48.8706 141.776 48.4507 141.521 47.9383C141.265 47.4259 141.138 46.8565 141.138 46.2516L141.123 46.2445ZM143.429 45.4616V46.2445C143.429 46.5505 143.507 46.8494 143.656 47.1341C143.805 47.4187 144.088 47.5611 144.5 47.5611C144.911 47.5611 145.202 47.4187 145.344 47.1412C145.486 46.8636 145.564 46.5647 145.564 46.2374V45.4545C145.564 45.1272 145.493 44.8283 145.358 44.5365C145.223 44.2518 144.932 44.1024 144.5 44.1024C144.095 44.1024 143.819 44.2447 143.663 44.5365C143.507 44.8211 143.429 45.1272 143.429 45.4545V45.4616Z" fill="white"/>
</g>
<path d="M25.187 81.5857V64.5625H26.7333V80.1908H34.8194V81.5857H25.187Z" fill="#009BFF"/>
<path d="M40.6288 81.8777C39.8627 81.8777 39.1605 81.7283 38.5221 81.4222C37.8837 81.1162 37.3801 80.6821 37.0042 80.1056C36.6283 79.5292 36.4438 78.8389 36.4438 78.0133C36.4438 77.3799 36.5644 76.8533 36.7985 76.4192C37.0326 75.9851 37.373 75.6292 37.8057 75.3517C38.2455 75.0741 38.7562 74.8535 39.352 74.6969C39.9478 74.5333 40.6075 74.4123 41.3239 74.3198C42.0332 74.2344 42.6361 74.1561 43.1326 74.0849C43.6291 74.0209 44.0051 73.9141 44.2604 73.7718C44.5228 73.6294 44.6505 73.3946 44.6505 73.0743V72.7754C44.6505 71.9072 44.3952 71.2169 43.8774 70.7187C43.3596 70.2205 42.6219 69.9643 41.6502 69.9643C40.6784 69.9643 39.9833 70.1636 39.4087 70.5693C38.8342 70.9749 38.4299 71.4517 38.1958 71.9997L36.7985 71.4944C37.0822 70.797 37.4865 70.2348 37.9901 69.822C38.5008 69.4021 39.0683 69.1032 39.6996 68.9182C40.3308 68.7331 40.9692 68.6406 41.6147 68.6406C42.1041 68.6406 42.6077 68.7047 43.1326 68.8328C43.6575 68.9609 44.154 69.1815 44.6009 69.4946C45.0548 69.8078 45.4237 70.2419 45.7003 70.797C45.984 71.3521 46.1259 72.0566 46.1259 72.9107V81.5788H44.6505V79.5577H44.5583C44.381 79.9349 44.1185 80.2978 43.771 80.6536C43.4234 81.0095 42.9837 81.3013 42.4588 81.529C41.9339 81.7567 41.3168 81.8706 40.6146 81.8706L40.6288 81.8777ZM40.8274 80.5255C41.6147 80.5255 42.2885 80.3476 42.8631 79.9989C43.4376 79.6502 43.8774 79.1876 44.1895 78.604C44.5016 78.0205 44.6576 77.3871 44.6576 76.6896V74.8464C44.5441 74.9531 44.3668 75.0457 44.1044 75.1311C43.849 75.2165 43.5511 75.2876 43.2177 75.3517C42.8843 75.4157 42.551 75.4727 42.2176 75.5154C41.8842 75.5581 41.5863 75.6008 41.3239 75.6292C40.6075 75.7146 39.9904 75.857 39.4868 76.042C38.9761 76.2342 38.586 76.4904 38.3164 76.8177C38.0469 77.1451 37.9121 77.5721 37.9121 78.0845C37.9121 78.8602 38.1887 79.458 38.742 79.885C39.2953 80.312 39.9904 80.5184 40.8203 80.5184L40.8274 80.5255Z" fill="#009BFF"/>
<path d="M54.1337 68.818V70.1061H48.062V68.818H54.1337ZM49.9559 65.7578H51.4383V78.2476C51.4383 78.7814 51.5305 79.1942 51.7149 79.5002C51.8994 79.8062 52.1334 80.0126 52.4242 80.1407C52.7151 80.2688 53.0272 80.3257 53.3605 80.3257C53.552 80.3257 53.7223 80.3115 53.857 80.2901C53.9918 80.2688 54.1195 80.2403 54.2188 80.2119L54.5309 81.5498C54.389 81.6067 54.2117 81.6566 53.9989 81.7064C53.7861 81.7562 53.5308 81.7775 53.2187 81.7775C52.6796 81.7775 52.1547 81.6566 51.6582 81.4217C51.1546 81.1868 50.7503 80.831 50.4311 80.3542C50.1119 79.8774 49.9488 79.3009 49.9488 78.6035V65.7649L49.9559 65.7578Z" fill="#009BFF"/>
<path d="M60.099 81.8777C59.3329 81.8777 58.6307 81.7283 57.9923 81.4222C57.354 81.1162 56.8503 80.6821 56.4744 80.1056C56.0985 79.5292 55.9141 78.8389 55.9141 78.0133C55.9141 77.3799 56.0346 76.8533 56.2687 76.4192C56.5028 75.9851 56.8433 75.6292 57.2759 75.3517C57.7157 75.0741 58.2264 74.8535 58.8222 74.6969C59.418 74.5333 60.0777 74.4123 60.7941 74.3198C61.5034 74.2344 62.1063 74.1561 62.6028 74.0849C63.0993 74.0209 63.4753 73.9141 63.7306 73.7718C63.9931 73.6294 64.1207 73.3946 64.1207 73.0743V72.7754C64.1207 71.9072 63.8654 71.2169 63.3476 70.7187C62.8298 70.2205 62.0921 69.9643 61.1204 69.9643C60.1486 69.9643 59.4535 70.1636 58.879 70.5693C58.3044 70.9749 57.9001 71.4517 57.666 71.9997L56.2687 71.4944C56.5524 70.797 56.9567 70.2348 57.4603 69.822C57.971 69.4021 58.5385 69.1032 59.1698 68.9182C59.8011 68.7331 60.4394 68.6406 61.0849 68.6406C61.5743 68.6406 62.0779 68.7047 62.6028 68.8328C63.1277 68.9609 63.6242 69.1815 64.0711 69.4946C64.525 69.8078 64.8939 70.2419 65.1705 70.797C65.4542 71.3521 65.5961 72.0566 65.5961 72.9107V81.5788H64.1207V79.5577H64.0285C63.8512 79.9349 63.5888 80.2978 63.2412 80.6536C62.8936 81.0095 62.4539 81.3013 61.929 81.529C61.4041 81.7567 60.787 81.8706 60.0848 81.8706L60.099 81.8777ZM60.2976 80.5255C61.0849 80.5255 61.7587 80.3476 62.3333 79.9989C62.9078 79.6502 63.3476 79.1876 63.6597 78.604C63.9718 78.0205 64.1278 77.3871 64.1278 76.6896V74.8464C64.0143 74.9531 63.837 75.0457 63.5746 75.1311C63.3192 75.2165 63.0213 75.2876 62.6879 75.3517C62.3546 75.4157 62.0212 75.4727 61.6878 75.5154C61.3544 75.5581 61.0565 75.6008 60.7941 75.6292C60.0777 75.7146 59.4606 75.857 58.957 76.042C58.4463 76.2342 58.0562 76.4904 57.7866 76.8177C57.5171 77.1451 57.3823 77.5721 57.3823 78.0845C57.3823 78.8602 57.659 79.458 58.2122 79.885C58.7655 80.312 59.4606 80.5184 60.2905 80.5184L60.2976 80.5255Z" fill="#009BFF"/>
<path d="M68.5965 81.5854V68.818H70.0293V70.7822H70.164C70.4194 70.1203 70.845 69.6008 71.4337 69.2236C72.0295 68.8465 72.7388 68.6543 73.5758 68.6543C74.4553 68.6543 75.1788 68.8607 75.7392 69.2735C76.3066 69.6862 76.7322 70.2556 77.0088 70.9743H77.1152C77.399 70.2627 77.8671 69.7005 78.5197 69.2806C79.1722 68.8607 79.9596 68.6543 80.8817 68.6543C82.0662 68.6543 82.9954 69.0244 83.6834 69.7716C84.3714 70.5189 84.7119 71.6077 84.7119 73.0311V81.5854H83.2366V73.0311C83.2366 72.0205 82.9812 71.2661 82.4634 70.7608C81.9527 70.2556 81.2718 70.0065 80.4348 70.0065C79.463 70.0065 78.7112 70.3054 78.1863 70.9032C77.6614 71.501 77.399 72.2625 77.399 73.1805V81.5854H75.8881V72.8959C75.8881 72.0347 75.647 71.3302 75.1646 70.8035C74.6823 70.2698 74.0085 70.0065 73.136 70.0065C72.5473 70.0065 72.0224 70.1488 71.5543 70.4406C71.0861 70.7324 70.7173 71.1309 70.4549 71.6433C70.1853 72.1557 70.0506 72.7464 70.0506 73.4083V81.5854H68.5752H68.5965Z" fill="#009BFF"/>
<path d="M98.3163 68.818V70.1061H92.2446V68.818H98.3163ZM94.1385 65.7578H95.6209V78.2476C95.6209 78.7814 95.7131 79.1942 95.8976 79.5002C96.082 79.8062 96.316 80.0126 96.6069 80.1407C96.8977 80.2688 97.2098 80.3257 97.5431 80.3257C97.7347 80.3257 97.9049 80.3115 98.0397 80.2901C98.1744 80.2688 98.3021 80.2403 98.4014 80.2119L98.7135 81.5498C98.5716 81.6067 98.3943 81.6566 98.1815 81.7064C97.9687 81.7562 97.7134 81.7775 97.4013 81.7775C96.8622 81.7775 96.3373 81.6566 95.8408 81.4217C95.3372 81.1868 94.9329 80.831 94.6137 80.3542C94.2945 79.8774 94.1314 79.3009 94.1314 78.6035V65.7649L94.1385 65.7578Z" fill="#009BFF"/>
<path d="M104.282 81.8777C103.516 81.8777 102.813 81.7283 102.175 81.4222C101.537 81.1162 101.033 80.6821 100.657 80.1056C100.281 79.5292 100.097 78.8389 100.097 78.0133C100.097 77.3799 100.217 76.8533 100.451 76.4192C100.685 75.9851 101.026 75.6292 101.459 75.3517C101.898 75.0741 102.409 74.8535 103.005 74.6969C103.601 74.5333 104.26 74.4123 104.977 74.3198C105.686 74.2344 106.289 74.1561 106.785 74.0849C107.282 74.0209 107.658 73.9141 107.913 73.7718C108.176 73.6294 108.303 73.3946 108.303 73.0743V72.7754C108.303 71.9072 108.048 71.2169 107.53 70.7187C107.012 70.2205 106.275 69.9643 105.303 69.9643C104.331 69.9643 103.636 70.1636 103.062 70.5693C102.487 70.9749 102.083 71.4517 101.849 71.9997L100.451 71.4944C100.735 70.797 101.139 70.2348 101.643 69.822C102.154 69.4021 102.721 69.1032 103.352 68.9182C103.984 68.7331 104.622 68.6406 105.268 68.6406C105.757 68.6406 106.261 68.7047 106.785 68.8328C107.31 68.9609 107.807 69.1815 108.254 69.4946C108.708 69.8078 109.077 70.2419 109.353 70.797C109.637 71.3521 109.779 72.0566 109.779 72.9107V81.5788H108.303V79.5577H108.211C108.034 79.9349 107.771 80.2978 107.424 80.6536C107.076 81.0095 106.636 81.3013 106.112 81.529C105.587 81.7567 104.97 81.8706 104.267 81.8706L104.282 81.8777ZM104.48 80.5255C105.268 80.5255 105.941 80.3476 106.516 79.9989C107.09 79.6502 107.53 79.1876 107.842 78.604C108.154 78.0205 108.31 77.3871 108.31 76.6896V74.8464C108.197 74.9531 108.02 75.0457 107.757 75.1311C107.502 75.2165 107.204 75.2876 106.871 75.3517C106.537 75.4157 106.204 75.4727 105.87 75.5154C105.537 75.5581 105.239 75.6008 104.977 75.6292C104.26 75.7146 103.643 75.857 103.14 76.042C102.629 76.2342 102.239 76.4904 101.969 76.8177C101.7 77.1451 101.565 77.5721 101.565 78.0845C101.565 78.8602 101.842 79.458 102.395 79.885C102.948 80.312 103.643 80.5184 104.473 80.5184L104.48 80.5255Z" fill="#009BFF"/>
<path d="M114.255 64.5625V81.5857H112.779V64.5625H114.255Z" fill="#009BFF"/>
<path d="M122.362 81.8564C121.177 81.8564 120.149 81.5788 119.284 81.0237C118.418 80.4686 117.744 79.6929 117.276 78.7037C116.801 77.7144 116.567 76.5758 116.567 75.2805C116.567 73.9853 116.801 72.8537 117.276 71.8503C117.751 70.8468 118.404 70.064 119.241 69.4946C120.078 68.9253 121.043 68.6406 122.142 68.6406C122.83 68.6406 123.497 68.7687 124.135 69.0178C124.774 69.2669 125.348 69.6583 125.866 70.1707C126.377 70.6902 126.781 71.3379 127.079 72.1207C127.377 72.9035 127.526 73.8287 127.526 74.9033V75.6364H117.581V74.334H126.015C126.015 73.5156 125.852 72.7754 125.525 72.1207C125.199 71.466 124.738 70.9464 124.156 70.5621C123.575 70.1778 122.901 69.9857 122.142 69.9857C121.333 69.9857 120.624 70.1992 120.014 70.6333C119.404 71.0674 118.922 71.6368 118.574 72.3484C118.227 73.0601 118.056 73.8358 118.049 74.6756V75.4584C118.049 76.469 118.227 77.3586 118.574 78.113C118.922 78.8673 119.425 79.458 120.071 79.8708C120.716 80.2836 121.482 80.4971 122.362 80.4971C122.965 80.4971 123.49 80.4046 123.951 80.2124C124.405 80.0274 124.788 79.7712 125.1 79.4509C125.412 79.1307 125.646 78.7819 125.809 78.3976L127.206 78.8531C127.015 79.394 126.696 79.885 126.256 80.3405C125.816 80.796 125.27 81.1589 124.618 81.4365C123.965 81.714 123.213 81.8492 122.362 81.8492V81.8564Z" fill="#009BFF"/>
<path d="M131.299 73.6075V81.5854H129.824V68.818H131.257V70.8178H131.391C131.689 70.163 132.157 69.6364 132.789 69.245C133.42 68.8464 134.207 68.6543 135.136 68.6543C135.995 68.6543 136.747 68.8322 137.392 69.1881C138.045 69.5439 138.548 70.0705 138.91 70.7608C139.272 71.4512 139.456 72.3052 139.456 73.3157V81.5854H137.981V73.4083C137.981 72.3621 137.69 71.5295 137.108 70.9245C136.527 70.3125 135.746 70.0136 134.768 70.0136C134.101 70.0136 133.505 70.1559 132.987 70.4477C132.469 70.7395 132.058 71.1523 131.76 71.6931C131.462 72.234 131.306 72.8745 131.306 73.6146L131.299 73.6075Z" fill="#009BFF"/>
<path d="M147.422 68.818V70.1061H141.35V68.818H147.422ZM143.244 65.7578H144.726V78.2476C144.726 78.7814 144.819 79.1942 145.003 79.5002C145.187 79.8062 145.422 80.0126 145.712 80.1407C146.003 80.2688 146.315 80.3257 146.649 80.3257C146.84 80.3257 147.01 80.3115 147.145 80.2901C147.28 80.2688 147.408 80.2403 147.507 80.2119L147.819 81.5498C147.677 81.6067 147.5 81.6566 147.287 81.7064C147.074 81.7562 146.819 81.7775 146.507 81.7775C145.968 81.7775 145.443 81.6566 144.946 81.4217C144.443 81.1868 144.038 80.831 143.719 80.3542C143.4 79.8774 143.237 79.3009 143.237 78.6035V65.7649L143.244 65.7578Z" fill="#009BFF"/>
<defs>
<filter id="filter0_d_1875_32120" x="19.0449" y="14.6885" width="134.853" height="49.3271" filterUnits="userSpaceOnUse" color-interpolation-filters="sRGB">
<feFlood flood-opacity="0" result="BackgroundImageFix"/>
<feColorMatrix in="SourceAlpha" type="matrix" values="0 0 0 0 0 0 0 0 0 0 0 0 0 0 0 0 0 0 127 0" result="hardAlpha"/>
<feOffset dx="2" dy="2"/>
<feGaussianBlur stdDeviation="2"/>
<feColorMatrix type="matrix" values="0 0 0 0 0 0 0 0 0 0 0 0 0 0 0 0 0 0 0.25 0"/>
<feBlend mode="normal" in2="BackgroundImageFix" result="effect1_dropShadow_1875_32120"/>
<feBlend mode="normal" in="SourceGraphic" in2="effect1_dropShadow_1875_32120" result="shape"/>
</filter>
</defs>
</svg>
