<svg id="full" width="443" height="594" viewBox="0 0 443 594" fill="none" xmlns="http://www.w3.org/2000/svg">
<path d="M146.535 382.368C146.535 382.368 145.134 379.227 142.52 373.41C141.855 371.947 141.13 370.358 140.334 368.556C139.627 366.736 138.812 364.755 137.926 362.56C137.089 360.401 136.144 358.082 135.178 355.583C134.212 353.085 133.313 350.391 132.305 347.535C131.826 346.126 131.298 344.68 130.759 343.146C130.539 342.414 130.269 341.647 130 340.879C129.731 340.112 129.549 339.327 129.319 338.506C128.319 335.33 127.348 332.011 126.268 328.531C124.371 321.518 122.403 313.881 120.812 305.618C119.172 297.32 117.91 288.398 116.987 278.904L116.78 277.12L116.66 275.318C116.614 274.14 116.518 272.926 116.461 271.659C116.357 269.214 116.116 266.752 116.139 264.236C116.185 259.203 115.946 254.046 116.372 248.799C116.442 247.461 116.473 246.176 116.582 244.784L116.765 242.875C116.82 242.179 116.923 241.518 116.977 240.822C117.254 238.163 117.57 235.451 117.836 232.703C118.152 229.99 118.682 227.188 119.125 224.404C119.479 221.638 120.147 218.854 120.765 216.035C123.249 204.845 126.966 193.406 132.203 182.252C137.489 171.133 144.344 160.336 152.862 150.662C161.379 140.989 171.608 132.475 183.065 125.996C194.62 119.588 207.315 115.232 220.377 113.267C226.933 112.302 233.492 111.748 240.133 111.908C246.725 112.032 253.302 112.798 259.677 114.153C272.476 116.9 284.675 122.234 295.253 129.906C305.831 137.578 314.876 147.57 321.571 159.043C328.265 170.517 332.884 183.508 334.146 197.088C334.797 203.851 334.606 210.74 333.219 217.414C331.881 224.124 329.298 230.584 325.435 236.117C321.562 241.56 316.333 246.183 310.512 248.825C304.692 251.467 298.211 251.914 292.276 250.469C286.342 249.025 280.847 245.938 276.16 242.049C271.424 238.123 267.485 233.306 264.268 228.113C257.825 217.639 254.357 205.237 254.689 192.977C254.875 186.82 255.923 180.717 258.001 174.953C258.972 172.062 260.227 169.295 261.669 166.583C263.072 163.924 264.711 161.354 266.546 158.926C273.751 149.2 283.253 141.792 293.148 136.223C303.044 130.654 313.393 127.048 323.457 124.869C333.57 122.726 343.438 121.958 352.733 122.081C362.029 122.205 370.742 123.131 378.919 124.487C395.185 127.215 408.885 131.513 419.851 135.545C431.003 139.63 439.383 143.501 445.022 146.284C447.842 147.676 449.955 148.8 451.351 149.567C452.697 150.298 453.425 150.744 453.425 150.744L456.293 145.961C456.293 145.961 455.527 145.569 454.033 144.73C452.549 143.981 450.426 142.768 447.518 141.394C441.78 138.54 433.302 134.597 422.1 130.476C410.899 126.356 396.963 121.968 380.285 119.186C371.971 117.813 362.984 116.851 353.326 116.71C343.717 116.604 333.487 117.355 322.894 119.641C312.341 121.873 301.435 125.729 290.994 131.637C289.627 132.28 288.379 133.172 287.12 133.976C285.862 134.779 284.565 135.636 283.257 136.403C281.96 137.26 280.762 138.188 279.465 139.045C278.227 140.026 276.979 140.919 275.791 141.936C270.988 145.97 266.385 150.557 262.502 155.911C260.511 158.552 258.766 161.372 257.169 164.299C255.572 167.226 254.22 170.331 253.144 173.472C250.863 179.826 249.663 186.553 249.49 193.21C249.116 206.665 252.864 219.924 259.763 231.219C263.257 236.858 267.551 242.014 272.691 246.314C277.831 250.614 283.867 254.093 290.723 255.716C297.541 257.393 305.324 256.91 312.297 253.714C319.269 250.519 325.19 245.254 329.646 239.007C334.091 232.672 336.943 225.426 338.434 218.091C339.924 210.757 340.141 203.315 339.438 196.106C338.736 188.896 337.192 181.812 334.925 175.102C332.698 168.339 329.709 162.005 326.164 155.92C319.083 143.839 309.673 133.419 298.504 125.319C287.385 117.254 274.568 111.635 261.121 108.746C254.423 107.319 247.533 106.571 240.617 106.375C233.701 106.18 226.79 106.806 219.97 107.824C206.291 109.914 192.903 114.502 180.801 121.249C168.71 128.086 157.995 137.064 149.039 147.237C140.035 157.374 132.919 168.636 127.42 180.254C121.961 191.818 118.159 203.686 115.54 215.268C114.932 218.177 114.225 221.014 113.793 223.888C113.361 226.761 112.792 229.616 112.437 232.382C112.181 235.22 111.827 237.986 111.561 240.734C111.506 241.43 111.403 242.09 111.349 242.786L111.274 244.856C111.204 246.195 111.095 247.587 111.075 248.961C110.669 254.386 110.879 259.686 110.844 264.807C110.87 267.359 111.121 269.911 111.186 272.409C111.243 273.677 111.339 274.89 111.396 276.157L111.477 278.013L111.684 279.797C112.589 289.523 113.872 298.624 115.571 307.047C117.144 315.541 119.211 323.25 121.079 330.406C122.12 333.939 123.19 337.329 124.151 340.559C124.381 341.38 124.651 342.147 124.881 342.968C125.151 343.735 125.42 344.503 125.69 345.27C126.228 346.805 126.757 348.25 127.236 349.66C128.293 352.551 129.153 355.299 130.119 357.797C131.134 360.331 132.079 362.651 132.965 364.845C133.851 367.04 134.628 369.074 135.384 370.93C136.179 372.733 136.915 374.41 137.58 375.873C140.204 381.78 141.654 384.956 141.654 384.956L146.535 382.368Z" fill="#AAACAE"/>
<path d="M146.662 382.296C146.662 382.296 145.26 379.156 142.647 373.338C141.982 371.875 141.256 370.287 140.461 368.485C139.754 366.665 138.938 364.684 138.102 362.525C137.216 360.33 136.32 358.046 135.315 355.601C134.349 353.103 133.45 350.408 132.442 347.553C131.963 346.144 131.435 344.698 130.945 343.199C130.676 342.432 130.456 341.7 130.186 340.933C129.917 340.166 129.736 339.381 129.505 338.56C128.555 335.419 127.534 332.064 126.503 328.62C124.607 321.607 122.638 313.97 121.086 305.654C119.407 297.41 118.184 288.434 117.311 278.976L117.103 277.191L116.984 275.389C116.888 274.175 116.841 272.998 116.784 271.731C116.68 269.286 116.439 266.823 116.413 264.271C116.459 259.239 116.269 254.117 116.647 248.835C116.717 247.497 116.786 246.158 116.817 244.873L116.902 242.893C116.918 242.25 117.021 241.59 117.076 240.894C117.352 238.235 117.668 235.522 117.934 232.774C118.25 230.062 118.83 227.295 119.223 224.476C119.616 221.656 120.245 218.926 120.913 216.142C123.397 204.952 127.114 193.513 132.351 182.359C137.549 171.258 144.453 160.497 152.97 150.823C161.488 141.15 171.678 132.69 183.174 126.156C194.69 119.802 207.385 115.446 220.437 113.392C226.954 112.481 233.551 111.873 240.154 112.086C246.746 112.21 253.274 112.941 259.698 114.332C272.497 117.078 284.695 122.412 295.273 130.084C305.851 137.756 314.848 147.713 321.542 159.186C328.237 170.66 332.855 183.651 334.068 197.195C334.719 203.958 334.528 210.847 333.141 217.521C331.754 224.195 329.259 230.638 325.347 236.135C321.474 241.578 316.332 246.183 310.512 248.825C304.692 251.467 298.299 251.896 292.364 250.452C286.43 249.007 280.984 245.956 276.297 242.067C271.649 238.123 267.622 233.324 264.405 228.131C257.962 217.657 254.504 205.344 254.875 193.031C255.061 186.874 256.158 180.806 258.149 175.06C259.169 172.204 260.375 169.403 261.866 166.726C263.269 164.066 264.908 161.496 266.743 159.069C273.86 149.36 283.411 141.989 293.306 136.42C303.202 130.85 313.551 127.244 323.615 125.066C333.679 122.887 343.508 122.172 352.842 122.242C362.137 122.365 370.85 123.292 378.978 124.612C395.195 127.304 408.895 131.603 419.949 135.616C430.975 139.773 439.305 143.608 444.945 146.391C447.765 147.783 449.839 148.96 451.273 149.674C452.669 150.441 453.347 150.851 453.347 150.851L454.142 149.549C454.142 149.549 453.376 149.156 452.019 148.335C450.623 147.568 448.461 146.409 445.641 145.017C439.962 142.288 431.622 138.363 420.519 134.313C409.465 130.3 395.715 125.965 379.361 123.255C371.184 121.9 362.383 120.991 353.039 120.832C343.655 120.726 333.738 121.459 323.498 123.674C313.297 125.834 302.782 129.566 292.76 135.206C282.737 140.847 273.021 148.343 265.661 158.284C263.786 160.765 262.197 163.371 260.667 166.101C259.137 168.832 257.892 171.687 256.883 174.632C254.776 180.539 253.611 186.803 253.485 193.084C253.145 205.665 256.683 218.282 263.235 228.916C266.511 234.234 270.548 239.123 275.432 243.155C280.267 247.152 285.821 250.363 292.03 251.844C298.152 253.342 304.995 252.912 311.069 250.128C317.192 247.379 322.577 242.542 326.606 236.884C330.673 231.173 333.274 224.481 334.64 217.628C336.007 210.775 336.226 203.744 335.604 196.838C334.943 189.985 333.479 183.204 331.282 176.709C329.135 170.249 326.255 164.075 322.829 158.24C316.026 146.606 306.921 136.489 296.195 128.71C285.469 120.931 273.123 115.49 260.187 112.726C253.675 111.353 247.059 110.64 240.369 110.444C233.727 110.285 226.992 110.875 220.387 111.803C207.198 113.84 194.327 118.232 182.645 124.711C171.023 131.316 160.667 139.901 152.033 149.735C143.389 159.479 136.417 170.438 131.141 181.645C125.827 192.906 122.12 204.435 119.558 215.731C118.94 218.551 118.272 221.335 117.879 224.155C117.437 226.939 116.906 229.74 116.59 232.453C116.324 235.201 116.058 237.949 115.693 240.626C115.639 241.322 115.535 241.983 115.481 242.679L115.357 244.713C115.287 246.051 115.217 247.39 115.148 248.728C114.731 254.064 114.97 259.221 114.924 264.254C114.95 266.806 115.191 269.268 115.295 271.713C115.352 272.98 115.399 274.158 115.495 275.371L115.614 277.174L115.822 278.958C116.706 288.505 117.978 297.517 119.618 305.815C121.17 314.131 123.188 321.804 125.045 328.87C126.126 332.35 127.097 335.669 128.058 338.899C128.288 339.72 128.558 340.487 128.788 341.308C129.058 342.075 129.327 342.843 129.547 343.574C130.086 345.109 130.565 346.519 131.094 347.964C132.101 350.819 133 353.514 133.966 356.012C134.932 358.51 135.877 360.83 136.763 363.025C137.6 365.184 138.416 367.165 139.172 369.02C139.967 370.823 140.741 372.446 141.407 373.91C144.069 379.763 145.421 382.867 145.421 382.867L146.662 382.296Z" fill="#535557"/>
<path d="M438.065 142.627L438.782 142.984L440.928 138.575L440.26 138.254L438.065 142.627Z" fill="#717375"/>
<path d="M428.812 138.613L429.48 138.934L431.528 134.454L430.821 134.187L428.812 138.613Z" fill="#717375"/>
<path d="M419.339 135.009L420.046 135.277L421.907 130.744L421.2 130.476L419.339 135.009Z" fill="#717375"/>
<path d="M409.719 131.709L410.464 131.923L412.188 127.373L411.393 127.123L409.719 131.709Z" fill="#717375"/>
<path d="M399.964 128.802L400.71 129.016L402.247 124.412L401.502 124.198L399.964 128.802Z" fill="#717375"/>
<path d="M390.087 126.377L390.871 126.537L392.173 121.844L391.438 121.719L390.087 126.377Z" fill="#717375"/>
<path d="M380.123 124.38L380.858 124.504L381.984 119.847L381.199 119.686L380.123 124.38Z" fill="#717375"/>
<path d="M369.996 122.918L370.732 123.042L371.661 118.242L370.886 118.171L369.996 122.918Z" fill="#717375"/>
<path d="M359.756 122.027L360.53 122.098L361.146 117.315L360.372 117.244L359.756 122.027Z" fill="#717375"/>
<path d="M349.46 121.832L350.224 121.814L350.615 117.031L349.802 117.013L349.46 121.832Z" fill="#717375"/>
<path d="M339.15 122.279L339.953 122.207L339.942 117.461L339.139 117.532L339.15 122.279Z" fill="#717375"/>
<path d="M329.278 118.761L329.638 123.463L328.826 123.594L328.466 118.892L329.278 118.761Z" fill="#717375"/>
<path d="M318.693 125.744L319.436 125.548L318.671 120.908L317.89 121.158L318.693 125.744Z" fill="#717375"/>
<path d="M308.655 128.922L309.387 128.636L308.232 124.122L307.411 124.425L308.655 128.922Z" fill="#717375"/>
<path d="M298.946 132.993L299.668 132.618L298.044 128.335L297.223 128.638L298.946 132.993Z" fill="#717375"/>
<path d="M289.674 138.116L290.347 137.705L288.205 133.619L287.493 134.083L289.674 138.116Z" fill="#717375"/>
<path d="M280.868 144.148L281.531 143.648L278.892 139.937L278.229 140.437L280.868 144.148Z" fill="#717375"/>
<path d="M272.863 151.252L273.428 150.681L270.341 147.38L269.738 148.005L272.863 151.252Z" fill="#717375"/>
<path d="M266.011 159.355L266.477 158.713L262.875 156.018L262.331 156.768L266.011 159.355Z" fill="#717375"/>
<path d="M260.535 168.457C260.535 168.457 260.603 168.26 260.719 168.1C260.787 167.903 260.903 167.743 260.903 167.743L256.807 165.834C256.807 165.834 256.69 165.995 256.584 166.244C256.517 166.441 256.4 166.601 256.4 166.601L260.535 168.457Z" fill="#717375"/>
<path d="M256.72 178.272L256.95 177.541L252.545 176.471L252.276 177.256L256.72 178.272Z" fill="#717375"/>
<path d="M254.758 188.533L254.89 187.73L250.227 187.535L250.144 188.373L254.758 188.533Z" fill="#717375"/>
<path d="M254.609 198.884L254.516 198.081L249.907 198.742L250 199.545L254.609 198.884Z" fill="#717375"/>
<path d="M256.095 208.949L255.962 208.199L251.398 209.628L251.579 210.413L256.095 208.949Z" fill="#717375"/>
<path d="M259.153 218.602L258.884 217.835L254.578 219.941L254.848 220.708L259.153 218.602Z" fill="#717375"/>
<path d="M263.618 227.56C263.618 227.56 263.509 227.399 263.4 227.239C263.292 227.078 263.222 226.864 263.222 226.864L259.165 229.559C259.165 229.559 259.273 229.72 259.343 229.934C259.452 230.095 259.561 230.255 259.561 230.255L263.618 227.56Z" fill="#717375"/>
<path d="M269.331 235.625L268.857 235.036L265.225 238.285L265.748 238.909L269.331 235.625Z" fill="#717375"/>
<path d="M276.261 242.531L275.709 242.049L272.59 245.833L273.19 246.35L276.261 242.531Z" fill="#717375"/>
<path d="M284.366 247.919L283.737 247.544L281.355 251.863L282.072 252.22L284.366 247.919Z" fill="#717375"/>
<path d="M293.475 251.093L292.74 250.969L291.438 255.662L292.261 255.769L293.475 251.093Z" fill="#717375"/>
<path d="M303.104 251.378L302.4 251.521L302.499 256.25L303.429 256.107L303.104 251.378Z" fill="#717375"/>
<path d="M312.478 248.29C312.478 248.29 312.312 248.415 312.136 248.45C311.97 248.575 311.804 248.7 311.804 248.7L313.517 252.965C313.517 252.965 313.731 252.876 313.946 252.787C314.161 252.697 314.327 252.572 314.327 252.572L312.478 248.29Z" fill="#717375"/>
<path d="M320.695 242.238L320.13 242.809L323.139 246.217L323.743 245.593L320.695 242.238Z" fill="#717375"/>
<path d="M327.186 234.118L326.769 234.796L330.565 237.222L331.059 236.437L327.186 234.118Z" fill="#717375"/>
<path d="M331.63 224.677C331.63 224.677 331.562 224.873 331.495 225.069C331.428 225.266 331.361 225.462 331.361 225.462L335.708 226.818C335.708 226.818 335.775 226.621 335.843 226.425C335.91 226.229 335.977 226.032 335.977 226.032L331.63 224.677Z" fill="#717375"/>
<path d="M334.101 214.541C334.101 214.541 334.034 214.737 334.055 214.915C333.988 215.112 334.008 215.29 334.008 215.29L338.566 215.736C338.566 215.736 338.584 215.504 338.651 215.307C338.669 215.075 338.736 214.879 338.736 214.879L334.101 214.541Z" fill="#717375"/>
<path d="M339.525 203.769L339.516 204.604L334.878 204.935L334.887 204.101L339.525 203.769Z" fill="#717375"/>
<path d="M338.748 192.82L338.843 193.64L334.237 194.575L334.141 193.755L338.748 192.82Z" fill="#717375"/>
<path d="M332.19 183.74L332.41 184.472L336.876 182.972L336.695 182.187L332.19 183.74Z" fill="#717375"/>
<path d="M333.423 171.952L333.717 172.706L329.389 174.77L329.096 174.016L333.423 171.952Z" fill="#717375"/>
<path d="M325.064 164.682L325.372 165.396L329.598 162.986L329.24 162.236L325.064 164.682Z" fill="#717375"/>
<path d="M320.082 155.921L320.468 156.528L324.426 153.761L324.03 153.065L320.082 155.921Z" fill="#717375"/>
<path d="M314.221 147.748C314.221 147.748 314.33 147.909 314.477 148.016C314.586 148.176 314.695 148.337 314.695 148.337L318.426 145.16C318.426 145.16 318.317 144.999 318.208 144.839C318.099 144.678 317.991 144.518 317.991 144.518L314.221 147.748Z" fill="#717375"/>
<path d="M311.111 136.705L311.665 137.271L308.261 140.776L307.708 140.21L311.111 136.705Z" fill="#717375"/>
<path d="M300.399 133.474L300.95 133.956L304.07 130.172L303.469 129.655L300.399 133.474Z" fill="#717375"/>
<path d="M295.807 123.924L293.035 127.956L292.381 127.512L295.154 123.479L295.807 123.924Z" fill="#717375"/>
<path d="M283.844 122.448L284.473 122.823L286.904 118.54L286.186 118.183L283.844 122.448Z" fill="#717375"/>
<path d="M274.757 118.309L275.425 118.63L277.424 114.115L276.717 113.847L274.757 118.309Z" fill="#717375"/>
<path d="M265.247 115.17L265.993 115.384L267.531 110.779L266.785 110.565L265.247 115.17Z" fill="#717375"/>
<path d="M255.4 113.012C255.4 113.012 255.586 113.065 255.812 113.065C255.998 113.119 256.185 113.172 256.185 113.172L257.349 108.461C257.349 108.461 257.163 108.407 256.937 108.408C256.751 108.354 256.526 108.354 256.526 108.354L255.4 113.012Z" fill="#717375"/>
<path d="M245.304 111.817L246.078 111.888L246.792 107.177L246.018 107.106L245.304 111.817Z" fill="#717375"/>
<path d="M235.097 111.605L235.861 111.587L236.163 106.822L235.361 106.894L235.097 111.605Z" fill="#717375"/>
<path d="M224.779 112.374L225.581 112.302L225.482 107.573L224.68 107.645L224.779 112.374Z" fill="#717375"/>
<path d="M214.554 113.946L215.307 113.839L214.807 109.145L214.015 109.306L214.554 113.946Z" fill="#717375"/>
<path d="M204.454 116.588L205.198 116.392L204.257 111.788L203.475 112.038L204.454 116.588Z" fill="#717375"/>
<path d="M194.555 120.194L195.287 119.909L193.917 115.483L193.146 115.822L194.555 120.194Z" fill="#717375"/>
<path d="M184.997 124.782L185.67 124.372L183.831 120.178L183.108 120.553L184.997 124.782Z" fill="#717375"/>
<path d="M175.844 130.155C175.844 130.155 176.01 130.03 176.225 129.941C176.391 129.816 176.606 129.727 176.606 129.727L174.298 125.766C174.298 125.766 174.132 125.891 173.917 125.98C173.752 126.105 173.537 126.194 173.537 126.194L175.844 130.155Z" fill="#717375"/>
<path d="M167.217 136.563L167.831 136.027L165.153 132.369L164.501 132.958L167.217 136.563Z" fill="#717375"/>
<path d="M156.721 139.834L159.732 143.195L159.113 143.788L156.101 140.426L156.721 139.834Z" fill="#717375"/>
<path d="M151.712 151.626L152.266 150.966L148.897 147.95L148.343 148.611L151.712 151.626Z" fill="#717375"/>
<path d="M144.989 160.068L145.455 159.426L141.853 156.732L141.299 157.392L144.989 160.068Z" fill="#717375"/>
<path d="M139.014 169.134L139.381 168.42L135.507 166.101L135.14 166.815L139.014 169.134Z" fill="#717375"/>
<path d="M133.243 179.575L133.611 178.861L129.514 176.952L129.157 177.755L133.243 179.575Z" fill="#717375"/>
<path d="M128.763 189.48L129.081 188.73L124.84 187.125L124.483 187.928L128.763 189.48Z" fill="#717375"/>
<path d="M125.028 199.598L125.297 198.813L120.921 197.6L120.652 198.385L125.028 199.598Z" fill="#717375"/>
<path d="M122.137 209.126L121.905 209.944L117.458 208.959L117.69 208.14L122.137 209.126Z" fill="#717375"/>
<path d="M119.52 220.443L119.652 219.64L115.162 218.998L114.942 219.819L119.52 220.443Z" fill="#717375"/>
<path d="M117.727 230.99L117.859 230.186L113.274 229.884L113.142 230.687L117.727 230.99Z" fill="#717375"/>
<path d="M116.571 241.59L116.615 240.804L112.011 240.734L111.928 241.572L116.571 241.59Z" fill="#717375"/>
<path d="M115.964 252.262L116.008 251.477L111.347 251.691L111.304 252.477L115.964 252.262Z" fill="#717375"/>
<path d="M115.933 262.861L115.889 262.094L111.249 262.487L111.216 263.362L115.933 262.861Z" fill="#717375"/>
<path d="M116.355 273.461L116.261 272.658L111.652 273.319L111.697 274.087L116.355 273.461Z" fill="#717375"/>
<path d="M117.255 283.919L117.161 283.116L112.534 284.009L112.628 284.812L117.255 283.919Z" fill="#717375"/>
<path d="M118.604 294.376L118.472 293.627L113.866 294.698L113.998 295.448L118.604 294.376Z" fill="#717375"/>
<path d="M120.346 304.708L120.164 303.923L115.628 305.209L115.76 305.958L120.346 304.708Z" fill="#717375"/>
<path d="M122.439 314.969C122.439 314.969 122.369 314.755 122.348 314.576C122.328 314.398 122.258 314.184 122.258 314.184L117.742 315.648C117.742 315.648 117.763 315.826 117.833 316.04C117.854 316.219 117.924 316.433 117.924 316.433L122.439 314.969Z" fill="#717375"/>
<path d="M125.012 325.087L124.83 324.302L120.286 325.909L120.506 326.641L125.012 325.087Z" fill="#717375"/>
<path d="M127.63 334.32L127.868 335.098L123.432 336.848L123.194 336.07L127.63 334.32Z" fill="#717375"/>
<path d="M131.016 344.966L130.796 344.235L126.371 346.091L126.64 346.859L131.016 344.966Z" fill="#717375"/>
<path d="M134.496 354.763L134.227 353.995L129.823 356.03L130.131 356.744L134.496 354.763Z" fill="#717375"/>
<path d="M138.046 363.599L138.351 364.346L134.051 366.479L133.746 365.731L138.046 363.599Z" fill="#717375"/>
<path d="M142.348 373.856L142.039 373.142L137.793 375.374L138.101 376.087L142.348 373.856Z" fill="#717375"/>
<g clip-path="url(#clip0)">
<path d="M181.108 394.716C181.108 394.716 187.987 428.58 179.653 454.838C179.653 454.838 176.081 465.884 170.392 464.363C164.77 462.841 156.171 457.616 157.494 445.711C158.883 433.475 156.303 412.508 152.665 400.205L181.108 394.716Z" fill="#EBEBEC"/>
<path d="M169.996 441.345C173.37 442.536 175.949 444.718 177.801 447.827C178.595 449.15 179.587 451.2 180.116 453.251C179.984 453.78 179.786 454.309 179.653 454.904C179.653 454.904 176.082 465.95 170.393 464.428C164.771 462.907 156.172 457.682 157.495 445.777C157.627 444.652 157.693 443.528 157.759 442.271C161.662 440.419 166.094 439.956 169.996 441.345Z" fill="#818386"/>
<path d="M173.898 426.331C173.964 422.826 173.633 419.32 173.104 415.881C176.676 412.904 179.785 409.531 182.761 406.026C183.952 417.005 184.812 434.268 181.041 449.811C178.396 446.306 175.221 443.462 171.847 440.684C173.104 436.054 173.832 431.159 173.898 426.331Z" fill="#D9D9DB"/>
<path d="M157.361 426.331C157.295 425.736 157.229 425.141 157.163 424.545C165.365 420.643 174.692 418.99 183.754 419.452C183.754 420.577 183.82 421.635 183.82 422.76C175.022 421.437 165.563 422.826 157.361 426.331Z" fill="#818386"/>
<path opacity="0.8" d="M181.108 394.716C181.108 394.716 181.703 397.692 182.365 402.587C180.116 406.82 177.073 410.59 173.237 413.434C170.988 415.153 167.813 416.939 166.49 419.519C165.233 421.966 166.424 443.793 163.778 451.465C162.984 453.846 161.992 456.227 161 458.542C158.486 455.566 156.899 451.399 157.494 445.711C158.883 433.475 156.303 412.508 152.665 400.205L181.108 394.716Z" fill="#D9D9DB"/>
<path d="M164.637 482.485C163.711 479.839 162.058 477.194 159.875 475.408C157.56 473.49 154.649 471.506 151.474 471.373C149.953 471.373 148.564 471.836 147.175 472.299C150.151 463.039 157.097 447.099 157.097 447.099C157.097 447.099 164.042 439.295 172.244 445.777C172.244 445.777 179.983 450.737 177.668 459.203C176.147 464.958 170.458 476.466 165.034 483.676C164.902 483.279 164.77 482.882 164.637 482.485Z" fill="#D9D9DB"/>
<path d="M164.637 482.485C163.711 479.839 162.058 477.194 159.875 475.408C157.56 473.49 154.649 471.506 151.474 471.373C149.953 471.373 148.564 471.836 147.175 472.299C150.151 463.039 157.097 447.099 157.097 447.099C157.097 447.099 164.042 439.295 172.244 445.777C172.244 445.777 179.983 450.737 177.668 459.203C176.147 464.958 170.458 476.466 165.034 483.676C164.902 483.279 164.77 482.882 164.637 482.485Z" fill="#D9D9DB"/>
<path d="M157.097 447.1C157.097 447.1 161.462 442.205 167.283 443.396C167.085 443.462 166.82 443.528 166.556 443.594C163.314 444.851 161.198 447.1 159.941 450.274C157.89 455.367 152.202 469.455 151.21 471.307C149.821 471.307 148.498 471.837 147.175 472.233C150.218 463.106 157.097 447.1 157.097 447.1Z" fill="#D9D9DB"/>
<path d="M159.875 475.408C159.214 474.879 158.486 474.284 157.759 473.821L168.011 447.43C168.011 447.43 169.996 446.372 173.832 449.811C173.832 449.811 178.793 454.045 176.015 461.981C173.766 468.463 168.21 477.525 164.505 482.353C163.646 479.707 162.058 477.194 159.875 475.408Z" fill="#EBEBEC"/>
<path d="M147.44 471.572C151.938 470.778 155.377 469.72 159.677 474.019C161.727 476.069 163.513 478.516 164.77 481.096C166.357 484.205 166.027 487.379 165.762 490.686C165.498 494.324 164.902 498.094 163.182 501.401C162.124 503.319 160.669 505.039 159.081 506.494C158.023 507.486 156.171 509.603 154.517 509.14C153.79 508.941 153.525 508.28 153.591 507.552C153.128 507.883 152.599 508.214 152.136 508.478C150.615 509.338 149.027 509.14 148.233 507.552C148.035 507.156 147.969 506.759 148.035 506.362C147.44 506.626 146.844 506.825 146.381 506.891C143.868 507.156 143.14 505.568 144.265 503.518C145.588 501.335 147.307 499.946 149.16 498.226C150.019 497.433 150.615 496.441 151.078 495.449C150.945 495.647 150.747 495.779 150.615 495.978C148.3 498.425 144.397 501.93 140.759 501.467C137.386 501.004 139.37 496.97 140.693 495.515C142.479 493.597 144.794 492.274 146.646 490.422C148.167 488.967 149.689 487.247 150.35 485.263C150.813 483.808 151.012 480.038 148.366 481.36C147.572 481.757 146.911 482.617 146.381 483.345C145.323 485.064 144.199 491.149 141.222 490.62C139.701 490.356 139.238 488.371 139.171 487.049C138.907 483.279 140.693 479.376 142.677 476.334C143.934 474.68 145.985 472.894 147.44 471.572Z" fill="#EBEBEC"/>
<path opacity="0.7" d="M161.331 486.85C159.942 485.064 158.354 483.411 156.502 482.154C156.965 480.765 157.296 479.244 157.561 478.119C157.957 476.532 158.156 474.945 158.09 473.357C158.487 473.688 158.883 474.019 159.214 474.415C161.265 476.466 163.051 478.913 164.307 481.493C165.895 484.601 165.564 487.776 165.3 491.083C165.233 491.877 165.167 492.67 165.035 493.464C164.241 490.951 162.72 488.57 161.331 486.85Z" fill="#EBEBEC"/>
<path d="M166.16 372.955C166.16 372.955 179.521 381.487 184.945 392.4C190.369 403.314 155.907 423.884 152.137 411.251C148.499 398.552 163.315 370.971 166.16 372.955Z" fill="#EBEBEC"/>
<path d="M158.619 415.219C159.677 413.896 160.603 412.64 161.331 411.648C164.043 408.076 166.49 404.438 168.408 400.337C171.583 393.657 174.626 386.712 174.229 379.238C169.863 375.336 166.159 372.955 166.159 372.955C163.315 370.971 148.432 398.552 152.202 411.251C153.062 414.095 155.444 415.219 158.619 415.219Z" fill="#D9D9DB"/>
<path d="M178.991 385.786C178.991 385.786 186.333 391.408 183.687 398.221C181.041 405.033 171.053 410.391 165.1 412.838C165.1 412.838 178.131 406.29 181.041 399.676C183.952 392.995 178.991 385.786 178.991 385.786Z" fill="#EBEBEC"/>
<path d="M156.039 486.519C156.105 486.453 156.171 486.586 156.171 486.652C154.782 490.885 152.798 494.655 149.226 497.367C149.226 497.367 149.16 497.367 149.226 497.301C152.202 494.324 154.518 490.422 156.039 486.519Z" fill="#B1B2B4"/>
<path d="M147.638 506.229C153.723 502.724 158.486 496.904 160.073 490.025C160.073 489.959 160.14 490.025 160.14 490.091C159.478 496.507 153.922 504.245 147.704 506.494C147.638 506.56 147.572 506.296 147.638 506.229Z" fill="#B1B2B4"/>
<path d="M142.876 476.268C143.934 474.68 145.985 472.894 147.506 471.638C152.004 470.844 155.443 469.786 159.743 474.085V474.151C156.965 472.299 152.996 469.852 150.813 473.159C150.019 474.35 149.027 477.59 150.681 478.583C154.121 480.699 152.599 486.586 150.152 489.165C148.3 491.216 147.44 492.142 145.191 495.118C144.265 496.375 145.059 498.293 146.911 497.83C149.027 497.301 150.681 495.647 152.07 493.994C153.657 492.142 154.914 489.76 155.973 487.578C155.443 490.753 153.856 494.06 151.805 496.573C150.879 497.764 148.3 500.343 149.027 502.129C149.953 504.312 153.128 502.063 154.054 501.203C156.502 498.822 157.891 495.978 159.214 493.001C158.618 496.375 157.296 499.417 154.782 501.997C154.385 502.393 151.078 505.502 153.062 506.164C155.245 506.891 158.089 503.782 159.346 502.327C161.066 500.343 162.323 498.16 163.381 495.845C162.786 498.557 161.529 501.203 159.809 503.386C158.817 504.642 157.031 505.833 156.568 507.42C156.369 508.015 156.634 508.346 157.097 508.545C156.303 509.14 155.443 509.471 154.65 509.272C153.922 509.074 153.657 508.412 153.724 507.685C153.261 508.015 152.731 508.346 152.268 508.611C150.747 509.471 149.16 509.272 148.366 507.685C148.167 507.288 148.101 506.891 148.167 506.494C147.572 506.759 146.977 506.957 146.514 507.023C144 507.288 143.273 505.701 144.397 503.65C145.72 501.467 147.44 500.079 149.292 498.359C150.152 497.565 150.747 496.573 151.21 495.581C151.078 495.779 150.879 495.912 150.747 496.11C148.432 498.557 144.529 502.063 140.891 501.6C137.518 501.137 139.502 497.102 140.825 495.647C142.611 493.729 144.926 492.406 146.778 490.554C148.3 489.099 149.821 487.379 150.482 485.395C150.946 483.94 151.144 480.17 148.498 481.493C147.704 481.89 147.043 482.75 146.514 483.477C145.455 485.197 144.331 491.282 141.354 490.753C139.833 490.488 139.37 488.504 139.304 487.181C139.039 483.212 140.825 479.31 142.876 476.268Z" fill="#EBEBEC"/>
<path d="M159.148 502.327C160.603 500.608 161.86 498.623 162.852 496.573C162.257 498.094 161.397 499.483 160.736 500.674C160.537 501.004 160.339 501.335 160.14 501.666C158.288 503.981 156.039 505.965 153.526 507.486C153.46 507.486 153.46 507.42 153.46 507.354C155.378 505.634 157.428 504.378 159.148 502.327Z" fill="#B1B2B4"/>
<path d="M75.0099 312.238C74.3485 309.526 73.224 307.343 71.9672 305.623C68.7261 305.888 65.3526 306.88 62.8391 307.872C58.275 309.658 53.7109 312.634 51.6604 317.132C54.9677 342.861 70.9089 368.259 70.9089 368.259L95.6475 353.113C87.7761 342.861 78.0526 324.209 75.0099 312.238Z" fill="#EBEBEC"/>
<path d="M75.0094 312.238C74.348 309.526 73.2235 307.343 71.9667 305.623C68.7256 305.888 65.3521 306.88 62.8386 307.872C58.7375 309.46 54.7026 311.973 52.3875 315.743C52.1229 317.793 52.3875 319.91 53.3136 321.828C55.0995 325.532 58.1422 326.855 61.4495 328.773C65.5506 331.154 71.3053 347.888 69.5855 352.055C68.2626 355.097 67.3365 357.941 66.675 360.851C69.1224 365.481 70.8422 368.259 70.8422 368.259L95.5808 353.113C87.7756 342.861 78.0522 324.209 75.0094 312.238Z" fill="#D9D9DB"/>
<path d="M64.0958 328.707C69.5859 329.236 75.7375 328.244 79.0448 323.878C77.2589 319.712 75.8037 315.677 74.9438 312.238C74.2823 309.526 73.1578 307.343 71.9011 305.623C68.6599 305.888 65.2865 306.88 62.7729 307.872C58.6719 309.46 54.6369 311.973 52.3218 315.743C52.1234 317.595 52.388 319.513 53.1156 321.299C55.2984 325.267 60.0609 328.31 64.0958 328.707Z" fill="#D9D9DB"/>
<path d="M82.0216 330.294C82.2862 330.823 82.5508 331.352 82.8154 331.881C76.4653 338.363 68.3294 343.258 59.7304 345.97C59.3335 344.977 58.9367 343.919 58.4736 342.861C67.1388 341.075 75.5393 336.445 82.0216 330.294Z" fill="#818386"/>
<path d="M92.4718 383.339C92.4718 383.339 76.9936 380.032 68.0639 371.765C59.1342 363.497 84.1374 332.08 92.1411 342.596C100.079 353.179 95.8452 384.265 92.4718 383.339Z" fill="#EBEBEC"/>
<path d="M76.0027 375.865C76.0027 375.865 67.1392 373.22 67.2715 365.878C67.4038 358.602 74.8121 350.07 79.5085 345.705C79.5085 345.705 69.6527 356.42 69.1897 363.629C68.7928 370.838 76.0027 375.865 76.0027 375.865Z" fill="#EBEBEC"/>
<path d="M67.4032 286.376C68.2631 289.353 69.9168 292.263 72.2319 294.379C74.6793 296.628 77.722 298.943 81.1616 299.208C82.8152 299.34 84.3366 298.877 85.9241 298.414C82.1538 308.335 77.4574 319.976 77.4574 319.976C77.4574 319.976 69.7183 332.212 57.1506 326.127C57.1506 326.127 48.9485 320.307 51.8589 311.179C53.8433 304.962 60.6563 292.66 66.9402 284.987C67.1386 285.45 67.2709 285.913 67.4032 286.376Z" fill="#D9D9DB"/>
<path d="M73.7527 297.819L74.4803 296.231C73.6866 295.636 72.959 294.975 72.2314 294.379C69.9824 292.329 68.3287 289.419 67.4688 286.575C67.0058 287.17 66.4767 287.831 65.8813 288.493C66.609 292.461 70.1147 296.231 73.7527 297.819Z" fill="#EBEBEC"/>
<path d="M64.493 290.345C60.5904 295.636 56.0263 302.78 53.8435 308.203C50.4039 316.802 55.6294 321.696 55.6294 321.696C59.6643 325.665 61.9133 324.606 61.9133 324.606L73.092 299.473C69.2555 297.819 65.8159 294.314 64.493 290.345Z" fill="#EBEBEC"/>
<path d="M101.865 279.497C100.079 278.174 97.5654 278.373 95.6472 279.233C94.9196 279.563 89.6279 282.408 89.694 282.937C89.3633 279.497 92.2737 270.304 92.7367 269.113C93.3982 267.592 94.2581 266.071 94.7873 264.483C95.2503 263.359 95.4487 262.234 95.3164 260.978C93.9274 258.597 92.406 258.2 90.6862 259.787C90.6862 259.787 90.6862 259.787 90.6201 259.787C89.8925 260.581 89.231 261.507 88.6357 262.433C88.0404 263.293 87.4451 264.219 86.982 265.277C86.7836 265.674 86.5852 266.004 86.3867 266.335C86.3206 266.467 86.2544 266.6 86.1883 266.732C86.9159 263.16 88.4373 259.787 88.8341 256.149C89.0326 254.165 86.6513 253.041 85.0638 253.901C82.418 255.356 80.8966 258.001 79.7721 260.779C79.8383 259.39 79.9044 258.001 80.169 256.612C80.4997 254.694 79.5737 252.313 77.1263 252.908C74.3482 253.504 72.8268 255.62 72.2315 258.398C72.1653 258.597 72.1653 258.861 72.0992 259.06C71.8346 258.2 71.3716 257.538 70.5117 257.208C67.006 255.885 65.7492 259.523 64.8231 262.102C62.6403 268.386 62.1112 275 63.4341 281.482C64.0955 284.987 64.8231 288.625 66.6091 291.733C69.7179 297.157 77.5232 301.919 83.9393 300.332C89.0326 299.075 91.2815 294.379 94.1258 290.543C95.1841 289.088 96.3748 287.765 97.6315 286.508C99.0868 284.987 101.468 283.598 102.328 281.614C102.857 280.754 102.526 279.96 101.865 279.497Z" fill="#D9D9DB"/>
<path opacity="0.6" d="M102.461 280.291C98.3601 277.91 93.0023 282.937 89.8272 284.855C84.9324 287.765 82.8819 290.543 82.8819 296.297C82.8819 297.488 81.0298 297.686 81.0298 296.496C81.0298 293.453 81.0298 289.485 83.3449 287.104C85.197 285.252 87.3798 283.995 89.5627 282.672C89.3642 279.101 92.1424 270.238 92.6054 269.113C93.2668 267.592 94.1267 266.071 94.6559 264.483C94.9205 263.954 95.0528 263.425 95.1189 262.896C95.1189 262.83 95.1189 262.83 95.1189 262.764C95.2512 260.184 92.5392 261.507 91.6793 262.499C90.8856 263.425 89.5627 264.087 88.7689 265.079C87.5121 266.732 85.2632 270.833 85.4616 269.973C85.7262 268.849 85.9246 267.724 86.1892 266.6C86.1892 266.666 86.1231 266.732 86.1231 266.732C86.7845 263.359 88.1736 260.184 88.7028 256.745C87.446 254.033 84.2048 255.554 83.0804 257.34C82.0882 258.928 79.6408 263.227 79.7069 262.168C79.7069 261.639 79.8392 261.044 79.9054 260.515C79.9054 260.581 79.8392 260.647 79.8392 260.779C79.9053 259.391 79.9715 258.002 80.2361 256.613C80.3684 255.62 80.2361 254.562 79.7069 253.768C75.3413 252.578 72.8939 261.375 72.6293 260.581C72.497 260.052 72.2986 259.523 72.1001 259.06C71.8355 258.2 71.3725 257.539 70.5126 257.208C70.1819 257.076 69.9173 257.009 69.6527 256.943C64.5595 258.332 65.0225 274.669 65.2871 278.109C65.7501 283.466 66.7423 289.286 69.9173 293.784C72.1001 296.827 74.746 298.811 77.8548 300.266C79.9054 300.795 82.022 300.927 84.0064 300.464C89.0996 299.208 91.3486 294.512 94.1929 290.675C95.2512 289.22 96.4418 287.897 97.6986 286.641C99.1538 285.12 101.535 283.731 102.395 281.746C102.66 281.151 102.66 280.688 102.461 280.291Z" fill="#D9D9DB"/>
<path opacity="0.6" d="M91.2155 270.237C89.2972 274.669 88.1066 279.034 87.7097 283.796C88.305 283.4 88.9665 283.003 89.6279 282.672C89.4295 279.1 92.2076 270.237 92.6707 269.113C93.3321 267.592 94.192 266.071 94.7212 264.483C94.9196 264.02 95.0519 263.491 95.1842 262.962C94.192 265.475 92.2738 267.856 91.2155 270.237Z" fill="#D9D9DB"/>
<path opacity="0.6" d="M83.6094 278.24C82.6172 276.124 80.0375 275.992 78.1854 275.529C77.1932 275.33 75.2088 275.595 74.2167 275.463C72.1 275.264 69.9833 275.529 68.462 277.116C67.6682 277.91 68.1312 279.299 68.9911 279.894C69.9172 280.555 70.9094 281.085 72.0338 281.415C74.0182 282.077 75.738 282.011 77.7885 281.68C79.5745 281.349 81.7573 280.886 83.1464 279.762C83.6755 279.233 83.8078 278.703 83.6094 278.24Z" fill="#EBEBEC"/>
<path opacity="0.6" d="M97.896 284.987C94.1256 287.964 92.6704 292.131 89.8261 295.834C88.6355 297.356 87.2465 298.811 85.7251 299.935C89.6277 298.216 91.6782 294.115 94.1918 290.742C95.2501 289.286 96.4407 287.964 97.6975 286.707C99.1527 285.186 101.534 283.797 102.394 281.812C102.46 281.68 102.46 281.548 102.526 281.482C101.468 282.937 99.6819 283.598 97.896 284.987Z" fill="#D9D9DB"/>
<path d="M85.3284 277.05L85.2622 276.984C85.2622 273.743 85.5268 270.039 86.3206 266.798C86.1221 267.063 85.9237 267.327 85.7914 267.658C84.8654 270.502 84.7992 273.941 84.9977 276.786C83.0794 275.727 80.8305 275.264 78.7138 275C78.6476 269.907 79.5075 264.946 80.1029 259.986C80.0367 260.184 79.9706 260.382 79.9044 260.581C79.5737 261.573 79.3091 262.565 79.1107 263.623C78.9784 264.483 78.8461 265.343 78.7138 266.269C78.3831 269.179 78.1846 272.09 78.3831 275.066C78.2508 275.066 78.1846 275.066 78.0523 275.066C76.4648 274.934 73.9513 274.603 71.7023 274.801C71.6362 271.759 72.033 268.782 72.4961 265.806C72.7607 263.822 73.1575 261.573 72.5622 259.721C72.3638 259.457 72.2315 259.192 72.033 258.994C73.1575 261.639 72.2315 265.145 71.7685 267.79C71.3716 270.039 71.107 272.552 71.3716 274.867C70.644 274.934 69.9825 275.132 69.3872 275.33C74.4143 274.338 80.3674 275.198 85.3284 277.05Z" fill="#C9CACC"/>
<path d="M90.2235 282.341C87.2469 283.929 84.3365 285.516 82.2198 288.162C80.8969 289.815 79.7063 293.982 80.8308 296.033C80.8969 296.099 81.0292 296.033 81.0292 295.967C81.0292 295.967 81.0292 295.967 81.0292 295.9C81.0292 295.834 80.8969 295.9 80.8308 295.967C81.4261 293.784 81.0954 291.403 82.2198 289.088C83.7412 285.913 87.71 284.524 90.3558 282.54C90.5542 282.341 90.3558 282.275 90.2235 282.341Z" fill="#C9CACC"/>
<path opacity="0.5" d="M54.1086 324.804C54.1086 324.804 58.805 343.985 66.0811 357.213C66.0811 357.213 67.4701 355.427 66.8087 352.253C66.1472 348.945 59.5326 330.69 59.5326 330.69L54.1086 324.804Z" fill="#EBEBEC"/>
<path d="M76.0677 298.877C72.5619 296.893 70.5114 294.842 68.6593 291.205C67.138 288.162 66.2781 284.657 65.6828 281.283C64.3598 274.008 64.2937 264.219 68.5932 257.869C68.6593 257.737 68.527 257.737 68.4609 257.803C63.5661 264.021 63.6984 273.214 64.4921 280.688C65.2859 287.765 68.7916 296.364 75.8692 299.009C76.0015 299.075 76.2661 298.943 76.0677 298.877Z" fill="#EBEBEC"/>
<path d="M60.127 415.748C60.127 415.748 55.0999 418.526 52.1894 425.471C49.3452 432.416 79.5077 460.791 87.9082 466.545C96.3088 472.365 136.261 468 139.105 460.791C141.95 453.581 142.148 450.076 137.915 448.091C133.681 446.041 60.127 415.748 60.127 415.748Z" fill="#EBEBEC"/>
<path d="M57.4147 432.151C58.9361 426.926 61.2512 422.032 63.434 417.071C61.3173 416.211 60.1267 415.682 60.1267 415.682C60.1267 415.682 55.0996 418.46 52.1892 425.405C51.3954 427.389 53.2475 431.027 56.4887 435.458C56.8194 434.4 57.1501 433.276 57.4147 432.151Z" fill="#EBEBEC"/>
<path d="M137.914 448.092C137.451 447.893 136.261 447.364 134.475 446.637C134.475 446.769 134.408 446.835 134.408 446.967C133.482 450.01 132.49 452.986 131.233 455.896C129.514 459.666 127.463 463.304 125.611 467.008C132.689 465.487 138.113 463.304 139.105 460.791C141.949 453.515 142.148 450.076 137.914 448.092Z" fill="#EBEBEC"/>
<path d="M171.848 380.429C172.377 370.706 144.001 358.272 144.001 358.272L134.476 354.436L125.149 350.203C125.149 350.203 96.6403 338.099 89.8934 345.176C83.1465 352.187 57.4157 412.508 58.9371 419.122C59.9292 423.686 71.4386 433.475 85.1309 441.676C88.2397 443.528 91.2163 444.785 94.3913 446.438C97.7647 447.695 101.403 449.216 104.842 450.208C120.188 454.508 135.203 456.095 139.238 453.78C145.125 450.208 171.385 390.152 171.848 380.429Z" fill="#D3D4D5"/>
<path d="M169.797 378.974C170.26 369.846 143.47 358.007 143.47 358.007L134.475 354.369L125.677 350.334C125.677 350.334 98.6897 338.958 92.4058 345.572C86.0558 352.186 61.7141 409.2 63.1693 415.417C64.1615 419.717 75.0094 428.976 87.9079 436.715C90.8183 438.435 93.6626 439.691 96.7053 441.213C99.8803 442.403 103.32 443.858 106.561 444.784C121.047 448.885 135.268 450.406 139.039 448.157C144.529 444.917 169.334 388.101 169.797 378.974Z" fill="#EBEBEC"/>
<path opacity="0.5" d="M98.7558 442.073C87.3126 437.509 76.8615 429.969 70.6438 419.122C66.7412 412.376 65.1537 405.365 65.0214 398.155C61.1188 408.473 58.5391 416.807 59.0021 419.056C59.9943 423.62 71.5037 433.409 85.1959 441.61C88.3048 443.462 91.2813 444.719 94.4563 446.372C97.8298 447.629 101.468 449.15 104.907 450.142C120.253 454.441 135.268 456.029 139.303 453.714C140.825 452.788 143.801 447.96 147.307 441.147C132.887 449.349 113.969 448.092 98.7558 442.073Z" fill="#D9D9DB"/>
<path d="M128.192 370.376C136.262 373.683 144.993 375.403 153.724 375.866C158.685 376.13 164.506 376.527 169.202 374.411C162.257 366.209 144.001 358.206 144.001 358.206L134.476 354.37L125.149 350.137C125.149 350.137 108.084 342.927 97.3018 342.861C102.792 355.759 115.558 365.283 128.192 370.376Z" fill="#C9CACC"/>
<path d="M114.434 327.516C111.788 333.535 104.776 336.379 98.6908 333.734C92.6054 331.154 89.8272 324.077 92.4069 317.992L95.7142 310.32C98.3601 304.235 105.372 301.457 111.457 304.102C117.476 306.748 120.321 313.759 117.675 319.844L114.434 327.516Z" fill="#EBEBEC"/>
<path d="M113.508 326.656C111.192 332.146 104.842 334.659 99.3523 332.278C93.9283 329.897 91.4148 323.614 93.7299 318.124L96.7065 311.179C99.0877 305.69 105.438 303.176 110.862 305.557C116.352 307.938 118.865 314.288 116.484 319.711L113.508 326.656Z" fill="#C7C8CA"/>
<path d="M105.372 310.055C104.843 311.312 103.388 311.841 102.131 311.312C100.874 310.783 100.345 309.327 100.874 308.137C101.404 306.88 102.859 306.351 104.115 306.88C105.372 307.343 105.901 308.798 105.372 310.055Z" fill="#2A416F"/>
<path d="M103.652 308.335C103.52 308.666 103.123 308.798 102.793 308.666C102.462 308.534 102.33 308.137 102.462 307.806C102.594 307.475 102.991 307.343 103.322 307.475C103.652 307.608 103.851 308.005 103.652 308.335Z" fill="white"/>
<path d="M101.933 309.129C101.867 309.261 101.669 309.327 101.536 309.261C101.338 309.195 101.272 308.997 101.338 308.864C101.404 308.732 101.602 308.666 101.735 308.732C101.933 308.798 101.999 308.93 101.933 309.129Z" fill="white"/>
<path d="M100.873 319.249C100.344 320.505 98.8889 321.035 97.6983 320.505C96.4415 319.976 95.9123 318.521 96.4415 317.331C96.9707 316.074 98.4259 315.545 99.6826 316.074C100.873 316.603 101.402 318.058 100.873 319.249Z" fill="#2A416F"/>
<path d="M99.2193 317.595C99.087 317.926 98.6901 318.058 98.3594 317.926C98.0286 317.794 97.8302 317.397 98.0286 317.066C98.1609 316.735 98.5578 316.603 98.8885 316.735C99.2193 316.868 99.3516 317.265 99.2193 317.595Z" fill="white"/>
<path d="M97.4338 318.323C97.3676 318.455 97.1692 318.521 97.0369 318.455C96.9046 318.389 96.8385 318.19 96.9046 318.058C96.9708 317.926 97.1692 317.86 97.3015 317.926C97.4338 317.992 97.4999 318.19 97.4338 318.323Z" fill="white"/>
<path d="M111.523 304.102C110.332 303.573 109.142 303.309 107.885 303.176C104.247 307.343 101.799 312.37 99.9474 317.595C98.889 320.704 97.7646 323.746 96.8385 326.921C96.3755 328.442 95.8463 330.096 95.4495 331.749C96.3755 332.609 97.4338 333.271 98.6906 333.8C104.776 336.445 111.788 333.601 114.433 327.582L117.741 319.844C120.386 313.759 117.542 306.748 111.523 304.102Z" fill="#C9CACC"/>
<path d="M167.879 350.6C165.299 356.619 168.077 363.696 174.096 366.342C180.182 368.987 187.193 366.143 189.839 360.058L193.146 352.386C195.792 346.301 192.948 339.29 186.929 336.644C180.909 333.998 173.832 336.842 171.186 342.861L167.879 350.6Z" fill="#EBEBEC"/>
<path d="M169.136 350.666C166.755 356.156 169.268 362.439 174.759 364.82C180.249 367.201 186.533 364.688 188.914 359.198L191.89 352.253C194.272 346.83 191.758 340.48 186.268 338.099C180.778 335.718 174.494 338.231 172.113 343.721L169.136 350.666Z" fill="#C7C8CA"/>
<path d="M186.796 345.176C186.267 346.433 186.796 347.822 188.053 348.351C189.31 348.88 190.699 348.285 191.228 347.094C191.757 345.837 191.228 344.448 189.971 343.919C188.715 343.39 187.326 343.919 186.796 345.176Z" fill="#2A416F"/>
<path d="M189.177 345.242C189.045 345.573 189.177 345.97 189.508 346.102C189.839 346.234 190.236 346.102 190.368 345.771C190.5 345.441 190.368 345.044 190.037 344.912C189.706 344.779 189.309 344.912 189.177 345.242Z" fill="white"/>
<path d="M189.839 347.028C189.773 347.16 189.839 347.359 189.971 347.425C190.103 347.491 190.302 347.425 190.368 347.226C190.434 347.094 190.368 346.896 190.236 346.829C190.103 346.829 189.905 346.896 189.839 347.028Z" fill="white"/>
<path d="M183.158 354.766C182.629 356.023 183.158 357.412 184.415 358.007C185.672 358.536 187.061 357.941 187.656 356.75C188.185 355.494 187.59 354.105 186.399 353.576C185.077 352.98 183.621 353.51 183.158 354.766Z" fill="#2A416F"/>
<path d="M185.539 354.833C185.407 355.163 185.539 355.56 185.87 355.692C186.2 355.825 186.597 355.692 186.73 355.362C186.862 355.031 186.73 354.634 186.399 354.502C186.068 354.37 185.671 354.502 185.539 354.833Z" fill="white"/>
<path d="M186.201 356.618C186.134 356.75 186.201 356.949 186.333 357.015C186.465 357.081 186.664 357.015 186.73 356.816C186.796 356.684 186.73 356.486 186.597 356.42C186.399 356.42 186.267 356.486 186.201 356.618Z" fill="white"/>
<path d="M186.863 336.644C188.054 337.173 189.112 337.834 190.038 338.694C189.509 344.184 187.591 349.409 185.011 354.37C183.49 357.28 182.034 360.19 180.381 363.034C179.587 364.423 178.727 365.944 177.801 367.333C176.544 367.201 175.287 366.937 174.097 366.407C168.011 363.828 165.233 356.751 167.879 350.666L171.186 342.927C173.766 336.776 180.844 333.998 186.863 336.644Z" fill="#C9CACC"/>
<path d="M168.21 290.014C166.622 289.088 164.903 288.228 163.117 287.435C161.331 286.707 159.545 286.046 157.759 285.516C134.409 278.638 113.772 291.866 105.57 310.716C96.3092 332.146 94.9862 342.001 111.787 356.552C115.425 359.661 121.908 364.092 129.25 366.87C136.327 370.31 143.207 371.699 148.035 372.162C170.128 374.41 176.412 366.738 185.672 345.242C193.808 326.392 189.244 302.25 168.21 290.014Z" fill="#EBEBEC"/>
<path d="M98.889 332.543C98.3598 341.141 101.998 348.02 111.787 356.552C115.426 359.661 121.908 364.092 129.25 366.87C136.328 370.309 143.207 371.698 148.035 372.161C161.86 373.55 169.467 371.103 175.486 363.828C155.047 344.779 126.67 334.329 98.889 332.543Z" fill="#D9D9DB"/>
<path opacity="0.5" d="M115.822 302.515C117.079 303.639 118.335 301.721 119.394 300.861C121.907 298.811 124.487 296.893 127.265 295.371C132.358 292.461 137.848 290.477 143.669 289.882C143.537 287.765 143.008 285.781 142.346 283.797C130.44 284.656 120.055 290.543 112.779 299.141C113.705 300.332 114.697 301.522 115.822 302.515Z" fill="#C9CACC"/>
<path opacity="0.5" d="M182.498 319.844C182.696 322.092 182.895 324.341 183.027 326.59C183.093 326.59 183.159 326.59 183.159 326.524C185.21 325.929 187.326 325.466 189.443 324.87C189.178 318.719 187.657 312.634 184.747 307.012C183.159 307.74 181.572 308.401 180.05 309.129C181.042 312.7 182.101 316.14 182.498 319.844Z" fill="#C9CACC"/>
<path d="M178.264 344.647C170.657 362.306 149.425 370.111 130.904 362.108C112.383 354.105 103.519 333.336 111.06 315.677C118.667 298.083 139.899 290.278 158.42 298.281C177.007 306.285 185.871 327.053 178.264 344.647Z" fill="#C9CACC"/>
<path d="M177.073 341.869C169.929 358.404 150.019 365.746 132.557 358.206C115.094 350.666 106.826 331.154 113.97 314.619C121.114 298.083 141.024 290.742 158.486 298.216C175.883 305.756 184.217 325.334 177.073 341.869Z" fill="url(#paint0_radial)"/>
<path d="M179.521 326.789C179.455 331.419 178.331 336.048 175.817 340.48C169.996 350.666 157.958 355.494 146.581 354.039C136.196 352.716 124.752 347.557 118.468 338.892C108.943 325.73 114.566 309.724 126.009 300.531C120.784 303.838 116.55 308.6 113.904 314.619C106.761 331.154 115.095 350.732 132.491 358.206C149.888 365.746 169.864 358.404 177.008 341.869C179.19 336.974 179.918 331.815 179.521 326.789Z" fill="url(#paint1_radial)"/>
<path d="M115.691 322.49C115.161 324.342 114.765 326.26 114.566 328.112C114.368 329.699 114.302 331.287 114.302 332.874C115.161 334.66 116.154 336.446 117.212 338.165C118.932 340.943 120.718 343.721 122.9 346.168C122.107 340.943 122.371 335.52 123.562 330.361C120.85 327.781 118.138 325.268 115.691 322.49Z" fill="url(#paint2_radial)"/>
<path d="M155.179 299.935C145.787 297.223 134.939 298.149 127.134 304.499C122.768 308.071 119.328 312.899 117.146 318.19C119.527 320.571 122.106 322.754 124.62 324.87C124.752 325.003 124.951 325.135 125.083 325.267C126.075 322.489 127.398 319.844 128.986 317.396C133.351 310.584 139.767 305.094 147.705 303.11C152.071 301.986 156.767 301.655 161.265 302.184C159.28 301.324 157.296 300.53 155.179 299.935Z" fill="url(#paint3_radial)"/>
<path d="M146.382 387.374L140.297 384.728L107.885 370.772L101.8 368.127C95.7142 365.481 92.7376 369.78 90.4225 373.153L81.1621 394.649L73.886 411.515L73.6215 412.111L73.7538 412.177C72.96 416.079 72.2985 420.775 78.0532 423.222L84.1387 425.868L116.55 439.824L122.636 442.469C128.324 444.917 131.367 441.279 133.616 437.972L133.748 438.038L134.013 437.443L141.289 420.577L150.549 399.081C151.409 395.046 152.467 389.953 146.382 387.374Z" fill="#C6C8D0"/>
<path d="M144.992 387.771L139.238 385.323L108.744 372.161L102.99 369.648C97.3011 367.201 94.4568 371.169 92.274 374.41L83.5427 394.649L76.6636 410.523L76.399 411.119L76.5313 411.185C75.7375 414.889 75.2084 419.254 80.5662 421.569L86.3209 424.016L116.814 437.178L122.569 439.692C127.927 442.007 130.771 438.567 132.888 435.459L133.02 435.525L133.285 434.929L140.164 419.056L148.895 398.816C149.689 395.046 150.681 390.284 144.992 387.771Z" fill="#EBEBEC"/>
<path d="M131.895 422.76L130.572 422.164L123.561 419.122L122.238 418.527C120.915 417.997 120.254 418.857 119.724 419.651L117.674 424.347L116.086 428.051L116.02 428.183C115.822 429.043 115.69 430.035 116.946 430.564L118.269 431.16L125.281 434.202L126.604 434.797C127.86 435.326 128.522 434.533 128.985 433.805L129.051 433.673L130.639 429.969L132.689 425.273C133.02 424.479 133.218 423.355 131.895 422.76Z" fill="#C7C8CA"/>
<path d="M130.968 423.09L129.844 422.627L123.758 419.982L122.634 419.519C121.51 419.056 120.914 419.783 120.451 420.445L118.731 424.479L117.342 427.654L117.276 427.786C117.144 428.514 117.012 429.374 118.07 429.837L119.194 430.3L125.28 432.945L126.404 433.474C127.463 433.937 128.058 433.276 128.455 432.615L128.521 432.482L129.91 429.308L131.63 425.273C131.961 424.545 132.159 423.553 130.968 423.09Z" fill="#EBEBEC"/>
<path d="M129.845 423.487L128.919 423.09L124.09 420.974L123.164 420.577C122.238 420.18 121.973 420.378 121.841 420.511L121.312 421.701L120.915 422.627C120.915 422.892 121.047 423.156 121.907 423.553L122.833 423.95L127.662 426.066L128.588 426.463C129.448 426.86 129.712 426.662 129.911 426.529V426.463L130.308 425.537L130.837 424.347C130.771 424.215 130.705 423.884 129.845 423.487Z" fill="#EBEBEC"/>
<path d="M143.272 391.805L140.692 390.681L127 384.794L124.42 383.67C123.825 383.405 122.105 382.678 121.576 382.413L118.996 381.289L105.238 375.402L102.658 374.278C100.079 373.153 99.0864 374.278 98.3587 375.138L95.8452 381.024L93.8608 385.654L93.7947 385.853H93.8608C93.7285 386.977 93.7947 388.366 96.1759 389.358L98.7556 390.482L112.448 396.369L115.028 397.493C115.623 397.758 117.276 398.486 117.872 398.75L120.451 399.875L134.144 405.827L136.723 406.952C139.171 408.01 140.163 407.084 140.891 406.224H140.957L141.023 406.026L143.007 401.396L145.521 395.509C145.719 394.385 145.852 392.93 143.272 391.805Z" fill="#EBEBEC"/>
<path d="M117.608 416.609L116.285 416.013L109.208 412.971L107.885 412.376C106.562 411.78 105.9 412.772 105.371 413.5L103.321 418.196L101.733 421.834L101.667 421.966C101.469 422.826 101.336 423.818 102.593 424.347L103.916 424.942L110.927 427.985L112.25 428.58C113.507 429.109 114.169 428.316 114.632 427.588L114.698 427.456L116.285 423.752L118.336 419.056C118.733 418.262 118.931 417.204 117.608 416.609Z" fill="#C7C8CA"/>
<path d="M116.681 416.939L115.557 416.476L109.471 413.831L108.347 413.368C107.222 412.839 106.627 413.698 106.164 414.294L104.444 418.328L103.055 421.503L102.989 421.635C102.857 422.363 102.724 423.223 103.783 423.686L104.907 424.149L110.993 426.794L112.117 427.324C113.176 427.786 113.771 427.059 114.168 426.464L114.234 426.331L115.623 423.157L117.343 419.122C117.673 418.394 117.872 417.402 116.681 416.939Z" fill="#EBEBEC"/>
<path d="M115.558 417.336L114.632 416.939L109.737 414.822L108.811 414.425C107.885 414.028 107.62 414.227 107.422 414.359L106.892 415.55L106.496 416.476C106.496 416.74 106.628 417.005 107.422 417.402L108.348 417.799L113.176 419.915L114.102 420.312C114.962 420.709 115.227 420.51 115.425 420.378L115.822 419.452L116.351 418.261C116.484 417.997 116.417 417.732 115.558 417.336Z" fill="#EBEBEC"/>
<path d="M118.533 407.944C117.805 409.597 115.887 410.325 114.3 409.597C112.646 408.87 111.918 406.952 112.646 405.364C113.374 403.711 115.226 402.983 116.879 403.645C118.533 404.438 119.261 406.29 118.533 407.944Z" fill="#D9D9DB"/>
<path d="M126.801 411.515C126.074 413.169 124.222 413.896 122.568 413.169C120.914 412.441 120.187 410.523 120.914 408.935C121.642 407.282 123.494 406.554 125.148 407.282C126.735 407.943 127.463 409.861 126.801 411.515Z" fill="#D9D9DB"/>
<path d="M135.003 415.087C134.276 416.74 132.424 417.468 130.77 416.74C129.116 416.013 128.389 414.161 129.116 412.507C129.844 410.854 131.696 410.126 133.35 410.854C134.937 411.515 135.665 413.433 135.003 415.087Z" fill="#D9D9DB"/>
<path d="M91.6 391.087L80.9626 415.743L98.0293 423.105L108.667 398.448L91.6 391.087Z" fill="#D9D9DB"/>
<path d="M91.9833 393.846L90.0464 398.341L94.5418 400.278L96.4786 395.783L91.9833 393.846Z" fill="#EBEBEC"/>
<path d="M97.0187 395.953L95.075 400.445L99.5674 402.388L101.511 397.896L97.0187 395.953Z" fill="#EBEBEC"/>
<path d="M101.957 398.086L100.013 402.578L104.506 404.522L106.449 400.029L101.957 398.086Z" fill="#EBEBEC"/>
<path d="M89.7477 399.117L87.8064 403.61L92.2998 405.551L94.2411 401.058L89.7477 399.117Z" fill="#EBEBEC"/>
<path d="M94.6571 401.231L92.7334 405.731L97.2342 407.655L99.1578 403.154L94.6571 401.231Z" fill="#EBEBEC"/>
<path d="M99.6959 403.415L97.7542 407.909L102.248 409.85L104.189 405.357L99.6959 403.415Z" fill="#EBEBEC"/>
<path d="M87.4012 404.454L85.4697 408.951L89.9671 410.882L91.8986 406.385L87.4012 404.454Z" fill="#EBEBEC"/>
<path d="M94.9188 413.037L90.4209 411.119L92.4053 406.621L96.9032 408.54L94.9188 413.037Z" fill="#EBEBEC"/>
<path d="M97.3661 408.782L95.416 413.271L99.9055 415.221L101.856 410.732L97.3661 408.782Z" fill="#EBEBEC"/>
<path d="M85.202 409.714L83.2573 414.205L87.7493 416.15L89.694 411.658L85.202 409.714Z" fill="#EBEBEC"/>
<path d="M92.6696 418.329L88.1716 416.344L90.0899 411.847L94.5878 413.831L92.6696 418.329Z" fill="#EBEBEC"/>
<path d="M95.0567 413.978L93.1228 418.474L97.6192 420.408L99.5531 415.912L95.0567 413.978Z" fill="#EBEBEC"/>
<path d="M142.082 393.459L140.097 392.599L129.713 388.101L127.728 387.242C127.265 387.043 126.008 386.514 125.545 386.316L123.561 385.456L113.176 380.958L111.192 380.098C109.273 379.239 108.48 380.098 107.951 380.76L106.032 385.257L104.511 388.763L104.445 388.895H104.511C104.445 389.755 104.445 390.813 106.297 391.541L108.281 392.401L118.666 396.898L120.651 397.758C121.114 397.957 122.37 398.486 122.833 398.684L124.818 399.544L135.269 404.042L137.253 404.901C139.105 405.695 139.899 404.968 140.428 404.372L140.494 404.24L142.016 400.734L143.934 396.303C143.934 395.377 144.066 394.319 142.082 393.459Z" fill="url(#paint4_linear)"/>
<path d="M123.031 392.004C127.529 393.856 132.225 395.443 137.054 396.171C138.774 396.435 140.56 396.7 142.346 396.634L142.61 396.038C142.677 395.245 142.809 394.187 140.957 393.393L112.051 380.892C110.265 380.098 109.537 380.892 109.008 381.487L108.677 382.281C111.456 387.308 118.004 389.953 123.031 392.004Z" fill="#6B6C6F"/>
<path d="M53.4465 532.157C54.9017 527.329 54.571 521.31 51.396 517.209C46.6996 511.124 36.7777 511.852 30.4277 514.564C26.6574 516.217 23.5485 518.4 20.7704 521.575C19.5136 522.964 18.3891 524.551 17.2646 526.072C16.2725 527.131 15.3464 528.123 14.4204 529.181C12.0391 531.893 9.9886 534.935 8.00422 537.978C4.69692 542.806 1.52191 548.164 0.662015 554.05C-0.925488 564.765 10.5178 572.239 20.1751 570.652C25.2022 569.858 29.5678 566.948 33.1397 563.442C35.3225 561.326 37.1084 558.945 38.8944 556.563C41.0772 553.587 43.3262 550.743 45.4428 547.701C48.6178 542.872 51.7928 537.713 53.4465 532.157Z" fill="#BEBFC1"/>
<path d="M38.8946 536.853C44.8477 535.729 50.2717 532.819 53.7774 527.726C53.9097 527.461 54.1081 527.263 54.2404 526.998C54.3066 523.493 53.4467 519.921 51.3961 517.143C46.6998 511.058 36.7779 511.786 30.4279 514.498C26.6576 516.217 23.5487 518.4 20.7706 521.575C20.1752 522.302 19.5799 523.03 18.9846 523.757C21.0351 532.686 29.1711 538.639 38.8946 536.853Z" fill="#EBEBEC"/>
<path d="M22.4902 542.476C18.0584 540.161 12.9652 538.11 7.93807 538.044C4.69692 542.873 1.52191 548.164 0.662015 554.05C-0.925488 564.765 10.5178 572.239 20.1751 570.652C25.2022 569.858 29.5678 566.948 33.1397 563.443C34.7272 561.921 36.1824 560.135 37.5053 558.416C34.1319 551.736 29.5017 546.114 22.4902 542.476Z" fill="#EBEBEC"/>
<path d="M53.4465 532.158C54.9017 527.329 54.571 521.31 51.396 517.21C50.6683 516.218 49.8084 515.424 48.8163 514.762C51.396 517.871 52.5866 522.104 52.1897 526.668C51.396 535.597 45.1121 543.732 39.4235 550.28C32.9412 557.754 24.673 564.038 14.2881 563.244C9.92243 562.913 4.43232 561.392 2.38179 557.027C1.32346 554.844 1.25731 552.529 1.45575 550.214C1.12502 551.405 0.79429 552.661 0.595853 553.984C-0.99165 564.699 10.4516 572.173 20.1089 570.586C25.136 569.792 29.5016 566.882 33.0735 563.376C35.2563 561.26 37.0423 558.879 38.8282 556.498C41.011 553.521 43.26 550.677 45.3767 547.635C48.6178 542.873 51.7928 537.714 53.4465 532.158Z" fill="#D9D9DB"/>
<path d="M35.7854 533.745C40.0188 533.811 44.4506 532.885 47.5594 529.909C48.8162 528.784 49.8084 527.461 50.6021 526.072C50.6683 525.808 50.7344 525.477 50.8006 525.213C56.4891 493.663 53.5787 491.877 62.4423 483.808C71.3058 475.673 85.6595 464.032 84.6673 459.402C81.5585 444.52 63.8975 428.911 63.8975 428.911C63.8975 428.911 56.6214 424.149 53.5787 425.935C50.536 427.72 22.9531 453.251 19.0505 471.903C15.8755 486.917 18.8521 513.902 20.175 523.956C22.424 530.107 28.9063 533.613 35.7854 533.745Z" fill="#D9D9DB"/>
<path d="M31.4862 480.369C37.6378 482.419 45.443 480.303 46.6998 473.027C48.4196 463.503 38.1008 453.053 28.5097 452.92C24.0117 459.27 20.3737 465.884 19.1169 471.837C19.1169 471.837 19.1169 471.903 19.1169 471.969C22.5565 475.607 26.856 478.782 31.4862 480.369Z" fill="#EBEBEC"/>
<path d="M28.7076 475.011C33.0071 476.466 38.3649 474.945 39.291 469.918C40.4816 463.304 33.3379 456.095 26.6571 455.963C23.5483 460.328 21.0347 464.958 20.1748 469.059V469.125C22.4899 471.704 25.4665 473.887 28.7076 475.011Z" fill="#D9D9DB"/>
<path d="M52.5211 455.963C59.4002 461.518 66.4117 469.257 68.7268 478.12C76.7966 470.911 85.4618 462.974 84.668 459.336C81.5591 444.454 63.8982 428.845 63.8982 428.845C63.8982 428.845 56.6221 424.082 53.5794 425.868C51.7935 426.927 41.6731 436.054 32.8096 447.166C40.0195 447.497 47.1632 451.597 52.5211 455.963Z" fill="#EBEBEC"/>
<path d="M32.3465 499.417C37.2413 500.938 42.533 501.203 47.494 499.946C49.6768 499.417 52.7195 498.624 55.1669 497.235C55.8945 493.002 56.6883 490.488 58.4742 487.975C50.6028 488.835 42.07 486.652 35.0585 483.874C29.7669 481.824 22.2262 478.318 18.9189 472.895C18.1913 476.731 17.8606 481.294 17.7944 486.123C20.1757 492.671 25.3351 497.301 32.3465 499.417Z" fill="#EBEBEC"/>
<path d="M37.3725 488.372C43.9871 490.29 51.5939 490.687 58.2747 488.438C58.3408 488.306 58.407 488.173 58.5393 488.041C50.6679 488.901 42.1351 486.718 35.1236 483.94C29.8319 481.89 22.2913 478.384 18.984 472.961C18.7194 474.416 18.4548 476.003 18.3225 477.657C22.6881 483.213 30.9564 486.586 37.3725 488.372Z" fill="white"/>
<path opacity="0.5" d="M62.5083 483.742C71.3718 475.606 85.7255 463.966 84.7333 459.336C81.6244 444.454 63.9635 428.845 63.9635 428.845C63.9635 428.845 61.053 426.926 58.0765 426C59.0687 426.53 59.9947 427.191 60.8546 427.985C63.9635 430.829 66.477 434.467 68.3952 438.237C69.9827 441.345 71.9671 445.314 71.438 449.018C70.5781 455.235 64.0296 459.865 59.664 463.833C53.8431 469.125 47.6254 475.408 44.1858 482.617C40.8124 489.695 40.4817 497.896 40.5478 505.569C40.6139 509.405 40.7462 513.175 40.8785 517.011C40.9447 520.054 41.4077 523.294 41.0108 526.271C40.2832 531.165 37.1744 533.216 33.3379 533.679C34.1316 533.811 34.9254 533.877 35.7191 533.877C39.9525 533.943 44.3843 533.017 47.4931 530.041C48.7499 528.916 49.7421 527.594 50.5358 526.205C50.602 525.94 50.6681 525.609 50.7343 525.345C56.489 493.597 53.5786 491.877 62.5083 483.742Z" fill="#D9D9DB"/>
<path opacity="0.5" d="M55.6959 428.381C55.6959 428.381 24.475 455.764 21.1015 470.977C17.7281 486.189 22.226 522.964 22.226 522.964C22.226 522.964 19.9109 482.287 24.6072 468.728C29.3036 455.169 61.8474 435.326 61.8474 435.326L55.6959 428.381Z" fill="#EBEBEC"/>
<path d="M33.6035 543.864C33.4712 543.798 33.3389 543.732 33.2066 543.6C22.6232 534.274 14.6857 535.001 14.6196 535.001C13.7597 535.134 12.9659 534.472 12.8336 533.612C12.7675 532.752 13.3628 531.959 14.2227 531.893C14.6196 531.827 23.6816 531.033 35.2571 541.285C35.9186 541.88 35.9847 542.872 35.3894 543.534C34.9264 543.997 34.1988 544.129 33.6035 543.864Z" fill="white"/>
<path d="M30.0303 550.016C29.898 549.95 29.6996 549.817 29.5673 549.685C18.984 539.367 10.385 539.962 10.3188 540.028C9.45894 540.095 8.66519 539.433 8.59904 538.573C8.5329 537.713 9.19436 536.92 10.0543 536.854C10.4511 536.787 20.1746 536.126 31.8163 547.436C32.4116 548.031 32.4777 549.024 31.8163 549.685C31.3533 550.148 30.6256 550.28 30.0303 550.016Z" fill="white"/>
<path d="M55.5626 552.065C54.7688 555.637 54.2397 559.275 53.5782 562.846C53.049 565.757 52.5199 568.733 52.5199 571.776C52.4537 576.736 53.3136 581.961 56.1579 586.128C61.648 594.197 74.8772 597.438 81.6241 588.906C85.3282 584.276 86.9819 578.257 88.2387 572.569C89.0324 568.998 89.8923 565.492 90.223 561.854C90.3553 560.465 90.4215 559.01 90.5538 557.621C90.8845 555.769 91.2152 553.851 91.4137 551.999C91.8105 547.832 91.2814 544.062 89.8923 540.16C87.5772 533.678 81.2933 526.006 73.6204 526.733C68.461 527.262 63.8308 531.165 61.3173 535.53C58.473 540.557 56.8193 546.443 55.5626 552.065Z" fill="#BEBFC1"/>
<path d="M67.8653 549.354C64.558 544.261 63.0366 538.308 64.2934 532.289C64.3595 532.025 64.4257 531.694 64.4918 531.429C67.0054 528.982 70.1804 527.13 73.62 526.799C81.2929 526.072 87.5768 533.744 89.8919 540.226C91.2809 544.128 91.8101 547.965 91.4132 552.065C91.2809 552.991 91.2148 553.917 91.0163 554.843C83.2111 559.473 73.2892 557.687 67.8653 549.354Z" fill="#EBEBEC"/>
<path d="M75.0756 565.162C79.772 566.815 84.733 569.13 88.3048 572.702C87.0481 578.39 85.3283 584.343 81.6902 588.973C74.9434 597.505 61.7142 594.264 56.224 586.195C53.3798 582.028 52.5199 576.803 52.586 571.842C52.6522 569.593 52.9167 567.41 53.2475 565.162C60.3912 563.045 67.6673 562.582 75.0756 565.162Z" fill="#EBEBEC"/>
<path d="M61.3173 535.53C63.8308 531.165 68.461 527.263 73.6204 526.733C74.8111 526.601 76.0017 526.667 77.1262 526.932C73.0913 527.197 69.1887 529.247 66.1459 532.62C60.1267 539.3 58.6053 549.42 57.6793 558.085C56.6871 567.873 57.8115 578.258 65.5506 585.269C68.7918 588.245 73.6866 591.155 78.2506 589.7C80.5658 588.973 82.2856 587.451 83.8069 585.665C83.2116 586.79 82.484 587.848 81.6902 588.84C74.9434 597.373 61.7142 594.132 56.224 586.062C53.3798 581.895 52.5199 576.67 52.586 571.71C52.6522 568.667 53.1152 565.691 53.6444 562.781C54.3058 559.143 54.835 555.571 55.6287 552C56.8194 546.444 58.473 540.557 61.3173 535.53Z" fill="#D9D9DB"/>
<path d="M72.297 549.486C69.3866 546.51 67.0054 542.607 67.0054 538.308C67.0054 536.655 67.27 535.001 67.733 533.414C67.8653 533.149 68.0637 532.885 68.196 532.686C87.246 506.891 90.5533 507.817 90.3549 495.779C90.1565 483.742 88.8335 465.288 92.8684 462.841C105.833 454.904 129.249 457.02 129.249 457.02C129.249 457.02 137.715 459.071 138.509 462.51C139.303 465.95 139.634 503.518 128.72 519.193C119.988 531.76 98.2924 548.163 90.0903 554.116C84.1372 556.696 77.0596 554.381 72.297 549.486Z" fill="#D9D9DB"/>
<path d="M114.102 516.018C108.347 512.976 104.577 505.833 109.008 499.88C114.763 492.141 129.448 492.406 136.128 499.351C134.607 506.957 132.292 514.166 128.786 519.127C128.786 519.193 128.72 519.193 128.72 519.193C123.693 519.259 118.401 518.333 114.102 516.018Z" fill="#EBEBEC"/>
<path d="M119.923 514.365C115.954 512.249 113.308 507.288 116.351 503.187C120.32 497.83 130.506 498.028 135.202 502.79C134.144 508.082 132.557 513.108 130.109 516.548C130.109 516.548 130.109 516.614 130.043 516.614C126.603 516.614 122.899 515.952 119.923 514.365Z" fill="#D9D9DB"/>
<path d="M117.41 483.94C108.612 482.749 98.2273 482.948 90.1575 487.313C89.8929 476.532 89.7606 464.759 92.9356 462.775C105.9 454.838 129.316 456.954 129.316 456.954C129.316 456.954 137.783 459.005 138.576 462.444C139.039 464.428 139.37 478.053 137.386 492.142C132.16 487.247 124.223 484.866 117.41 483.94Z" fill="#EBEBEC"/>
<path d="M99.6155 528.453C95.1837 525.94 91.3472 522.302 88.8337 517.804C87.7092 515.886 86.1878 513.108 85.5925 510.396C88.1722 506.957 89.4951 504.642 90.0243 501.6C94.7868 507.949 102.195 512.579 109.074 515.886C114.234 518.333 121.907 521.376 128.124 520.119C125.809 523.294 122.7 526.667 119.261 530.04C112.911 532.686 105.965 532.091 99.6155 528.453Z" fill="#EBEBEC"/>
<path d="M104.246 517.209C98.3595 513.637 92.7371 508.478 89.8928 502.063C89.8928 501.93 89.959 501.798 90.0251 501.6C94.7876 507.949 102.196 512.579 109.075 515.886C114.235 518.333 121.907 521.376 128.125 520.119C127.265 521.31 126.273 522.566 125.149 523.823C118.071 524.418 109.935 520.648 104.246 517.209Z" fill="white"/>
<path opacity="0.5" d="M90.3546 495.779C90.1562 483.742 88.8333 465.288 92.8682 462.841C105.833 454.904 129.248 457.02 129.248 457.02C129.248 457.02 132.688 457.814 135.334 459.335C134.276 459.005 133.151 458.74 131.96 458.674C127.727 458.343 123.428 459.005 119.327 460.195C115.953 461.187 111.72 462.444 109.405 465.354C105.436 470.249 106.627 478.186 106.693 484.072C106.825 491.943 106.56 500.74 103.65 508.214C100.806 515.489 95.051 521.376 89.4286 526.601C86.6505 529.181 83.74 531.694 80.8957 534.207C78.6468 536.192 75.9348 538.11 74.0827 540.491C71.04 544.393 71.7015 548.031 73.9504 551.14C73.289 550.611 72.6936 550.081 72.1645 549.486C69.2541 546.51 66.8728 542.607 66.8728 538.308C66.8728 536.655 67.1374 535.001 67.6004 533.414C67.7327 533.149 67.9311 532.885 68.0634 532.686C87.3119 506.891 90.5531 507.817 90.3546 495.779Z" fill="#D9D9DB"/>
<path opacity="0.5" d="M135.335 462.708C135.335 462.708 136.856 504.179 128.059 517.077C119.261 529.974 89.4294 551.933 89.4294 551.933C89.4294 551.933 120.584 525.675 127.265 512.976C133.946 500.277 126.008 462.973 126.008 462.973L135.335 462.708Z" fill="#EBEBEC"/>
<path d="M66.4113 558.018C66.5436 558.085 66.742 558.151 66.8743 558.151C80.8972 559.407 85.8582 565.757 85.9243 565.823C86.4535 566.484 87.4457 566.683 88.1733 566.088C88.8347 565.558 89.0332 564.566 88.504 563.839C88.2394 563.574 82.6832 556.365 67.2712 554.976C66.4113 554.91 65.6175 555.571 65.5514 556.431C65.4191 557.092 65.816 557.754 66.4113 558.018Z" fill="white"/>
<path d="M64.4259 564.831C64.6243 564.897 64.8228 564.963 65.0212 564.963C79.7718 565.624 85.1957 572.239 85.2619 572.305C85.7911 572.966 86.7832 573.098 87.5108 572.569C88.1723 572.04 88.3046 571.048 87.7754 570.32C87.5109 569.99 81.3593 562.45 65.1535 561.788C64.2936 561.722 63.4999 562.45 63.4999 563.31C63.4337 564.037 63.8306 564.632 64.4259 564.831Z" fill="white"/>
<path d="M66.8081 418.659C66.8081 418.659 79.3758 379.701 87.7764 367.068C87.7764 367.068 91.8774 360.388 96.5738 360.851C101.27 361.314 120.585 372.955 120.585 372.955L99.3519 364.753C99.3519 364.753 93.7295 362.769 89.0331 370.706C83.9399 379.238 84.9982 378.908 66.8081 418.659Z" fill="#EBEBEC"/>
<path d="M133.351 447.364C133.351 447.364 153.129 411.515 156.502 396.699C156.502 396.699 158.553 389.093 154.981 385.985C151.409 382.876 129.713 376.791 129.713 376.791L150.284 386.58C150.284 386.58 155.576 389.292 153.062 398.155C150.284 407.877 149.821 406.885 133.351 447.364Z" fill="#EBEBEC"/>
</g>
<defs>
<radialGradient id="paint0_radial" cx="0" cy="0" r="1" gradientUnits="userSpaceOnUse" gradientTransform="translate(133.523 325.085) rotate(23.3386) scale(44.6482 44.646)">
<stop offset="0.1486" stop-color="#21687E"/>
<stop offset="0.491" stop-color="#023F5F"/>
<stop offset="0.9801"/>
</radialGradient>
<radialGradient id="paint1_radial" cx="0" cy="0" r="1" gradientUnits="userSpaceOnUse" gradientTransform="translate(163.719 281.59) rotate(23.3386) scale(89.174 89.1697)">
<stop offset="0.2849" stop-color="#21687E"/>
<stop offset="0.4225" stop-color="#0D3B59"/>
<stop offset="0.5885" stop-color="#05294A"/>
<stop offset="0.7076" stop-color="#031B31"/>
<stop offset="0.8978" stop-color="#01070D"/>
<stop offset="1"/>
</radialGradient>
<radialGradient id="paint2_radial" cx="0" cy="0" r="1" gradientUnits="userSpaceOnUse" gradientTransform="translate(117.907 289.021) rotate(23.3386) scale(56.1102 56.1075)">
<stop offset="0.2851" stop-color="white"/>
<stop offset="0.6912" stop-color="#6C6C6C"/>
<stop offset="1"/>
</radialGradient>
<radialGradient id="paint3_radial" cx="0" cy="0" r="1" gradientUnits="userSpaceOnUse" gradientTransform="translate(117.885 289.06) rotate(23.3386) scale(56.0712 56.0685)">
<stop offset="0.2851" stop-color="white"/>
<stop offset="0.6912" stop-color="#6C6C6C"/>
<stop offset="1"/>
</radialGradient>
<linearGradient id="paint4_linear" x1="129.131" y1="381.037" x2="120.042" y2="402.101" gradientUnits="userSpaceOnUse">
<stop offset="0.1486" stop-color="#21687E"/>
<stop offset="0.491" stop-color="#023F5F"/>
<stop offset="0.9801"/>
</linearGradient>
<clipPath id="clip0">
<rect width="271" height="554" fill="white" transform="translate(0 40)"/>
</clipPath>
</defs>
</svg>
