<svg width="1362" height="306" viewBox="0 0 1362 306" fill="none" xmlns="http://www.w3.org/2000/svg">
<path d="M529.237 54.5076C529.167 55.0555 529.555 55.556 530.103 55.6254L539.032 56.7565C539.579 56.8259 540.08 56.438 540.149 55.8901C540.219 55.3422 539.831 54.8417 539.283 54.7723L531.346 53.7669L532.352 45.8303C532.421 45.2824 532.033 44.782 531.485 44.7126C530.937 44.6432 530.437 45.0311 530.368 45.579L529.237 54.5076ZM840.229 43.1338C840.758 42.2855 840.757 42.2849 840.755 42.2839C840.754 42.283 840.752 42.2816 840.749 42.2799C840.744 42.2765 840.736 42.2715 840.725 42.2651C840.704 42.2521 840.674 42.2331 840.633 42.2082C840.552 42.1583 840.431 42.0847 840.272 41.9886C839.954 41.7964 839.482 41.5142 838.861 41.1517C837.618 40.4267 835.781 39.3804 833.392 38.0905C828.615 35.5107 821.632 31.9559 812.797 28.0473C795.129 20.2312 770.04 10.9954 740.354 5.31802C680.975 -6.03824 603.156 -3.16005 529.616 53.8429L530.841 55.4237C603.801 -1.12889 680.983 -4.00045 739.978 7.28242C769.48 12.9246 794.422 22.1056 811.988 29.8764C820.77 33.7613 827.705 37.2924 832.442 39.8503C834.81 41.1291 836.628 42.1646 837.853 42.8791C838.465 43.2363 838.928 43.5133 839.238 43.7004C839.393 43.7939 839.509 43.865 839.586 43.9123C839.625 43.936 839.653 43.9538 839.672 43.9654C839.682 43.9713 839.689 43.9756 839.693 43.9784C839.695 43.9798 839.697 43.9807 839.698 43.9814C839.699 43.9819 839.699 43.9821 840.229 43.1338Z" fill="url(#paint0_linear_131_1288)"/>
<path opacity="0.2" d="M230.76 189.04C230.76 125.408 179.254 73.8236 115.719 73.8236C52.184 73.8236 0.678223 125.408 0.678223 189.04C0.678223 252.673 52.184 304.257 115.719 304.257C179.254 304.257 230.76 252.673 230.76 189.04Z" stroke="#363636" stroke-width="0.351807"/>
<path d="M238.56 180.506C238.56 117.258 187.365 65.9869 124.217 65.9869C61.0678 65.9869 9.87334 117.258 9.87334 180.506C9.87334 243.754 61.0678 295.025 124.217 295.025C187.365 295.025 238.56 243.754 238.56 180.506Z" stroke="#E1E1E1" stroke-width="1.74669"/>
<circle r="98.5479" transform="matrix(1 0 0 -1 127.24 178.336)" fill="white"/>
<g opacity="0.3" filter="url(#filter0_f_131_1288)">
<circle r="5.2771" transform="matrix(1 0 0 -1 28.1056 285.436)" fill="#8224E3"/>
</g>
<path d="M99.4375 138.383L87.75 153.321L82.3125 148.508L79.6875 151.508L86.6875 157.758L88.25 159.133L89.5625 157.446L102.562 140.883L99.4375 138.383ZM111 147.633V151.633H165V147.633H111ZM99.4375 194.383L87.75 209.321L82.3125 204.508L79.6875 207.508L86.6875 213.758L88.25 215.133L89.5625 213.446L102.562 196.883L99.4375 194.383ZM111 203.633V207.633H165V203.633H111Z" fill="#363636"/>
<path d="M87.75 181.321L99.4375 166.383L102.562 168.883L89.5625 185.446L88.25 187.133L86.6875 185.758L79.6875 179.508L82.3125 176.508L87.75 181.321Z" fill="url(#paint1_linear_131_1288)"/>
<path d="M111 179.633V175.633H165V179.633H111Z" fill="url(#paint2_linear_131_1288)"/>
<path opacity="0.2" d="M601.343 189.775C601.343 126.142 549.837 74.5583 486.302 74.5583C422.767 74.5583 371.262 126.142 371.262 189.775C371.262 253.408 422.767 304.992 486.302 304.992C549.837 304.992 601.343 253.408 601.343 189.775Z" stroke="#363636" stroke-width="0.351807"/>
<path d="M607.56 181.241C607.56 117.992 556.365 66.7216 493.217 66.7216C430.068 66.7216 378.873 117.992 378.873 181.241C378.873 244.489 430.068 295.76 493.217 295.76C556.365 295.76 607.56 244.489 607.56 181.241Z" stroke="#E1E1E1" stroke-width="1.74669"/>
<circle r="98.5479" transform="matrix(1 0 0 -1 496.24 179.071)" fill="white"/>
<g opacity="0.3" filter="url(#filter1_f_131_1288)">
<circle r="5.2771" transform="matrix(1 0 0 -1 391.92 91.3076)" fill="#8224E3"/>
</g>
<path d="M453.603 141.925C447.716 142.033 443.956 144.411 442.341 148.107C440.801 151.626 441.145 156.071 442.263 160.668C441.662 161.372 441.185 162.316 441.357 163.739C441.544 165.289 441.972 166.392 442.578 167.165C442.912 167.588 443.35 167.627 443.759 167.834C443.98 169.153 444.349 170.472 444.901 171.575C445.216 172.209 445.575 172.795 445.924 173.268C446.082 173.479 446.308 173.602 446.476 173.78C446.485 175.335 446.49 176.629 446.358 178.268C445.949 179.258 444.994 180.055 443.444 180.828C441.844 181.625 439.762 182.363 437.656 183.269C435.549 184.175 433.383 185.277 431.671 187.01C429.958 188.742 428.747 191.119 428.56 194.255L428.481 195.593H479.039L478.96 194.255C478.773 191.119 477.557 188.742 475.849 187.01C474.141 185.277 472 184.175 469.904 183.269C467.807 182.363 465.75 181.625 464.155 180.828C462.624 180.06 461.66 179.282 461.241 178.308C461.103 176.649 461.113 175.35 461.123 173.78C461.29 173.597 461.517 173.479 461.674 173.268C462.019 172.79 462.349 172.205 462.659 171.575C463.195 170.472 463.584 169.148 463.801 167.834C464.194 167.627 464.618 167.578 464.943 167.165C465.548 166.392 465.976 165.289 466.163 163.739C466.33 162.361 465.868 161.45 465.297 160.746C465.912 158.748 466.7 155.519 466.439 152.202C466.296 150.391 465.833 148.584 464.746 147.083C463.751 145.705 462.137 144.701 460.099 144.288C458.775 142.57 456.393 141.925 453.642 141.925H453.603ZM453.642 144.445C453.657 144.445 453.666 144.445 453.681 144.445C456.216 144.455 457.86 145.198 458.328 146.02L458.643 146.532L459.233 146.611C460.985 146.852 461.989 147.561 462.698 148.54C463.407 149.52 463.801 150.888 463.919 152.399C464.155 155.421 463.284 158.94 462.738 160.589L462.423 161.573L463.289 162.085C463.235 162.051 463.771 162.415 463.643 163.463C463.495 164.699 463.2 165.339 462.974 165.629C462.747 165.919 462.629 165.905 462.619 165.905L461.556 165.983L461.438 167.007C461.32 168.095 460.882 169.429 460.375 170.472C460.119 170.994 459.858 171.451 459.627 171.771C459.396 172.091 459.154 172.269 459.273 172.205L458.603 172.559V173.307C458.603 175.133 458.529 176.629 458.721 178.741V178.898L458.8 179.056C459.519 180.99 461.182 182.196 463.013 183.111C464.844 184.027 466.946 184.701 468.919 185.553C470.893 186.404 472.699 187.423 474.038 188.781C475.101 189.859 475.771 191.287 476.125 193.073H431.395C431.749 191.292 432.414 189.859 433.482 188.781C434.826 187.423 436.656 186.404 438.64 185.553C440.624 184.701 442.71 184.027 444.546 183.111C446.382 182.196 448.08 180.99 448.799 179.056L448.878 178.741C449.069 176.629 448.996 175.133 448.996 173.307V172.559L448.326 172.205C448.439 172.264 448.169 172.091 447.933 171.771C447.696 171.451 447.406 170.994 447.145 170.472C446.623 169.429 446.195 168.085 446.082 167.007L445.964 165.983L444.901 165.905C444.891 165.905 444.773 165.919 444.546 165.629C444.32 165.339 444.025 164.699 443.877 163.463C443.754 162.415 444.285 162.051 444.231 162.085L445.058 161.573L444.822 160.668C443.636 156.1 443.429 151.951 444.664 149.131C445.895 146.32 448.405 144.553 453.642 144.445Z" fill="#363636"/>
<path d="M536.603 141.925C530.716 142.033 526.956 144.411 525.341 148.107C523.801 151.626 524.145 156.071 525.263 160.668C524.662 161.372 524.185 162.316 524.357 163.739C524.544 165.289 524.972 166.392 525.578 167.165C525.912 167.588 526.35 167.627 526.759 167.834C526.98 169.153 527.349 170.472 527.901 171.575C528.216 172.209 528.575 172.795 528.924 173.268C529.082 173.479 529.308 173.602 529.476 173.78C529.485 175.335 529.49 176.629 529.358 178.268C528.949 179.258 527.994 180.055 526.444 180.828C524.844 181.625 522.762 182.363 520.656 183.269C518.549 184.175 516.383 185.277 514.671 187.01C512.958 188.742 511.747 191.119 511.56 194.255L511.481 195.593H562.039L561.96 194.255C561.773 191.119 560.557 188.742 558.849 187.01C557.141 185.277 555 184.175 552.904 183.269C550.807 182.363 548.75 181.625 547.155 180.828C545.624 180.06 544.66 179.282 544.241 178.308C544.103 176.649 544.113 175.35 544.123 173.78C544.29 173.597 544.517 173.479 544.674 173.268C545.019 172.79 545.349 172.205 545.659 171.575C546.195 170.472 546.584 169.148 546.801 167.834C547.194 167.627 547.618 167.578 547.943 167.165C548.548 166.392 548.976 165.289 549.163 163.739C549.33 162.361 548.868 161.45 548.297 160.746C548.912 158.748 549.7 155.519 549.439 152.202C549.296 150.391 548.833 148.584 547.746 147.083C546.751 145.705 545.137 144.701 543.099 144.288C541.775 142.57 539.393 141.925 536.642 141.925H536.603ZM536.642 144.445C536.657 144.445 536.666 144.445 536.681 144.445C539.216 144.455 540.86 145.198 541.328 146.02L541.643 146.532L542.233 146.611C543.985 146.852 544.989 147.561 545.698 148.54C546.407 149.52 546.801 150.888 546.919 152.399C547.155 155.421 546.284 158.94 545.738 160.589L545.423 161.573L546.289 162.085C546.235 162.051 546.771 162.415 546.643 163.463C546.495 164.699 546.2 165.339 545.974 165.629C545.747 165.919 545.629 165.905 545.619 165.905L544.556 165.983L544.438 167.007C544.32 168.095 543.882 169.429 543.375 170.472C543.119 170.994 542.858 171.451 542.627 171.771C542.396 172.091 542.154 172.269 542.273 172.205L541.603 172.559V173.307C541.603 175.133 541.529 176.629 541.721 178.741V178.898L541.8 179.056C542.519 180.99 544.182 182.196 546.013 183.111C547.844 184.027 549.946 184.701 551.919 185.553C553.893 186.404 555.699 187.423 557.038 188.781C558.101 189.859 558.771 191.287 559.125 193.073H514.395C514.749 191.292 515.414 189.859 516.482 188.781C517.826 187.423 519.656 186.404 521.64 185.553C523.624 184.701 525.71 184.027 527.546 183.111C529.382 182.196 531.08 180.99 531.799 179.056L531.878 178.741C532.069 176.629 531.996 175.133 531.996 173.307V172.559L531.326 172.205C531.439 172.264 531.169 172.091 530.933 171.771C530.696 171.451 530.406 170.994 530.145 170.472C529.623 169.429 529.195 168.085 529.082 167.007L528.964 165.983L527.901 165.905C527.891 165.905 527.773 165.919 527.546 165.629C527.32 165.339 527.025 164.699 526.877 163.463C526.754 162.415 527.285 162.051 527.231 162.085L528.058 161.573L527.822 160.668C526.636 156.1 526.429 151.951 527.664 149.131C528.895 146.32 531.405 144.553 536.642 144.445Z" fill="#363636"/>
<g clip-path="url(#clip0_131_1288)">
<circle cx="523" cy="202.633" r="22" fill="white"/>
<path d="M494.902 129.633C487.542 129.773 482.143 132.013 478.883 136.313C475.023 141.413 474.302 149.133 476.742 159.293C475.842 160.393 475.181 162.093 475.441 164.313C475.981 168.733 477.681 170.53 479.141 171.25C479.821 174.71 481.703 178.61 483.543 180.43L483.562 181.372C483.562 183.412 483.582 185.17 483.402 187.43C482.162 190.25 478.102 191.852 473.402 193.692C465.582 196.772 455.861 200.591 455.121 212.731L455 214.852H502.32C501.58 213.592 500.98 212.252 500.5 210.852H459.383C460.883 202.912 467.979 200.13 474.859 197.43C480.339 195.27 485.522 193.234 487.242 188.614L487.359 188.09C487.579 185.47 487.562 183.473 487.562 181.333L487.543 179.493L487.582 178.293L486.5 177.731C485.62 177.151 483.282 173.113 482.902 169.493L482.723 167.852L481.082 167.711C480.822 167.691 479.802 166.973 479.422 163.833C479.222 162.233 480 161.653 480 161.653L481.281 160.872L480.902 159.454C478.482 150.094 478.882 142.931 482.062 138.731C484.562 135.471 488.901 133.753 494.941 133.633C498.681 133.633 501.459 134.573 502.359 136.133L502.84 136.993L503.82 137.133C506.5 137.513 508.381 138.654 509.621 140.614C512.681 145.554 510.903 154.693 509.383 159.313L508.961 160.813L510.223 161.653C510.243 161.653 511.02 162.233 510.82 163.833C510.46 166.973 509.42 167.691 509.16 167.711L507.52 167.852L507.34 169.493C506.94 173.133 504.683 177.151 503.883 177.711L502.801 178.274V181.352C502.781 183.472 502.76 185.47 503 188.09L503.121 188.614C503.201 188.814 503.283 189.011 503.383 189.211C504.383 187.771 505.52 186.431 506.82 185.231V185.211C506.78 183.911 506.781 182.711 506.801 181.391V180.43C508.601 178.59 510.441 174.691 511.121 171.211C512.521 170.491 514.281 168.693 514.801 164.313C515.061 162.133 514.423 160.452 513.543 159.352C514.723 155.392 517.1 145.112 513.02 138.512C511.3 135.732 508.682 133.993 505.262 133.313C503.382 130.933 499.762 129.633 494.902 129.633ZM523.121 182.852C512.121 182.852 503.121 191.852 503.121 202.852C503.121 213.852 512.121 222.852 523.121 222.852C534.121 222.852 543.121 213.852 543.121 202.852C543.121 191.852 534.121 182.852 523.121 182.852ZM523.121 186.852C531.921 186.852 539.121 194.052 539.121 202.852C539.121 211.652 531.921 218.852 523.121 218.852C514.321 218.852 507.121 211.652 507.121 202.852C507.121 194.052 514.321 186.852 523.121 186.852ZM533.301 196.86C532.791 196.813 532.264 196.963 531.84 197.317L521.242 206.145L516.535 201.438C515.753 200.656 514.489 200.656 513.707 201.438C512.925 202.22 512.925 203.484 513.707 204.266L519.707 210.266C520.095 210.654 520.607 210.852 521.121 210.852C521.575 210.852 522.028 210.697 522.398 210.387L534.398 200.387C535.246 199.681 535.364 198.419 534.656 197.571C534.302 197.147 533.81 196.906 533.301 196.86Z" fill="url(#paint3_linear_131_1288)"/>
</g>
<path opacity="0.2" d="M991.231 183.855C991.231 120.222 939.725 68.6379 876.19 68.6379C812.655 68.6379 761.15 120.222 761.15 183.855C761.15 247.487 812.655 299.071 876.19 299.071C939.725 299.071 991.231 247.487 991.231 183.855Z" stroke="#363636" stroke-width="0.351807"/>
<path d="M976.56 180.506C976.56 117.258 925.365 65.9869 862.217 65.9869C799.068 65.9869 747.873 117.258 747.873 180.506C747.873 243.754 799.068 295.025 862.217 295.025C925.365 295.025 976.56 243.754 976.56 180.506Z" stroke="#E1E1E1" stroke-width="1.74669"/>
<circle r="98.5479" transform="matrix(1 0 0 -1 865.24 178.336)" fill="white"/>
<g opacity="0.3" filter="url(#filter2_f_131_1288)">
<circle r="5.2771" transform="matrix(1 0 0 -1 963.163 281.979)" fill="#8224E3"/>
</g>
<g clip-path="url(#clip1_131_1288)">
<path d="M864.776 127.633C855.194 127.633 847.229 134.594 847.229 143.348C847.229 147.551 849.108 151.368 852.088 154.184L851.994 154.645C851.323 156.614 849.67 157.727 848.69 158.083C848.119 158.286 847.647 158.594 847.385 159.133C847.127 159.668 847.283 160.411 847.674 160.797C848.588 161.715 849.776 161.625 850.643 161.633C853.905 161.672 857.748 159.961 860.076 158.797L860.104 158.786L860.901 158.325L860.596 158.231L860.631 158.239C861.928 158.54 863.287 158.633 864.623 158.633C873.049 158.633 880.299 153.598 881.901 146.352V146.348C882.115 145.383 882.229 144.379 882.229 143.348C882.229 134.602 874.358 127.633 864.776 127.633ZM864.776 129.633C873.393 129.633 880.229 135.805 880.229 143.348C880.229 144.235 880.131 145.094 879.948 145.918C878.58 152.106 872.256 156.633 864.623 156.633C863.389 156.633 862.174 156.54 861.088 156.29L860.651 156.161L859.17 157.012C856.959 158.118 853.147 159.665 850.666 159.633C850.326 159.633 850.295 159.567 850.057 159.54C851.479 158.844 853.119 157.583 853.901 155.262L853.916 155.211L854.276 153.524L853.834 153.133C850.971 150.629 849.229 147.157 849.229 143.348C849.229 135.813 856.158 129.633 864.776 129.633ZM856.229 136.633V138.633H873.229V136.633H856.229ZM856.229 141.633V143.633H873.229V141.633H856.229ZM884.014 145.829C883.963 146.149 883.928 146.469 883.858 146.786C883.78 147.129 883.678 147.465 883.576 147.805C888.182 149.583 891.213 153.165 891.213 157.145C891.213 160 889.729 162.668 887.026 164.665L886.483 165.067L886.651 165.723C887.19 167.79 889.08 168.856 890.389 169.567C888.315 169.848 883.807 169.379 881.541 166.7L881.162 166.247L880.584 166.364C879.674 166.543 878.619 166.633 877.354 166.633C871.135 166.633 866.084 164.223 864.119 160.618C863.307 160.602 862.549 160.547 861.838 160.461C863.694 165.375 869.658 168.633 877.354 168.633C878.506 168.633 879.51 168.563 880.412 168.426C882.619 170.661 886.217 171.629 889.131 171.629C889.323 171.629 889.514 171.625 889.698 171.618C891.389 171.54 892.49 171.149 892.979 170.458C893.194 170.145 893.268 169.778 893.182 169.418C893.014 168.704 892.358 168.352 891.448 167.864C890.553 167.379 889.377 166.743 888.826 165.793C891.627 163.481 893.213 160.372 893.213 157.145C893.213 152.239 889.545 147.86 884.014 145.829ZM856.229 146.633V148.633H868.229V146.633H856.229ZM881.244 152.633C880.744 153.336 880.194 154.008 879.588 154.633H884.229V152.633H881.244ZM875.819 157.633C874.44 158.461 872.928 159.137 871.323 159.633H884.229V157.633H875.819Z" fill="url(#paint4_linear_131_1288)"/>
<path fill-rule="evenodd" clip-rule="evenodd" d="M830.229 162.633C830.229 158.235 833.83 154.633 838.229 154.633C842.627 154.633 846.229 158.235 846.229 162.633C846.229 167.032 842.627 170.633 838.229 170.633C833.83 170.633 830.229 167.032 830.229 162.633ZM894.229 162.633C894.229 158.235 897.83 154.633 902.229 154.633C906.627 154.633 910.229 158.235 910.229 162.633C910.229 167.032 906.627 170.633 902.229 170.633C897.83 170.633 894.229 167.032 894.229 162.633ZM838.229 172.633C833.83 172.633 830.229 176.235 830.229 180.633L830.244 199.133C830.248 199.161 830.25 199.188 830.252 199.215C830.254 199.243 830.256 199.27 830.26 199.297C830.604 203.422 834.088 206.633 838.229 206.633H847.205L846.908 208.633H832.088C830.026 208.633 828.354 207.063 828.229 205V176.633C828.237 176.094 828.026 175.571 827.643 175.188C827.26 174.805 826.737 174.594 826.198 174.602C825.096 174.625 824.213 175.532 824.229 176.633V205.11V205.227C824.393 207.922 825.924 210.227 828.119 211.524L826.244 228.415C826.119 229.508 826.908 230.5 828.01 230.618C829.104 230.743 830.096 229.954 830.213 228.852L832.026 212.625C832.033 212.625 832.041 212.627 832.051 212.629C832.062 212.631 832.075 212.633 832.088 212.633H846.307L844.252 226.336C844.151 227.008 844.393 227.68 844.901 228.133C844.901 228.133 845.83 228.907 847.346 229.5L847.421 229.529L854.729 187.633H886.729L893.519 229.346C894.818 228.775 895.604 228.094 895.604 228.094C896.08 227.641 896.307 226.985 896.205 226.336L894.151 212.633H908.369C908.381 212.633 908.393 212.631 908.405 212.629C908.416 212.627 908.428 212.625 908.44 212.625L910.237 228.852C910.362 229.954 911.354 230.743 912.455 230.625C913.549 230.5 914.338 229.508 914.221 228.415L912.346 211.524C914.533 210.227 916.065 207.922 916.229 205.227V205.11V176.633C916.237 176.094 916.026 175.571 915.643 175.188C915.26 174.805 914.737 174.594 914.198 174.602C913.096 174.625 912.213 175.532 912.229 176.633V205C912.104 207.063 910.432 208.633 908.369 208.633H893.549L893.252 206.633H902.229C906.369 206.633 909.854 203.422 910.198 199.297C910.205 199.243 910.205 199.188 910.205 199.133L910.229 180.633C910.229 176.235 906.627 172.633 902.229 172.633C897.862 172.633 894.705 176.25 894.237 180.415C894.229 180.485 894.229 180.555 894.229 180.633V194.633H891.448L890.205 186.336C890.057 185.36 889.221 184.633 888.229 184.633H852.229C851.237 184.633 850.401 185.36 850.252 186.336L849.01 194.633H848.854H846.229V180.633C846.229 180.555 846.229 180.485 846.221 180.415C845.752 176.25 842.596 172.633 838.229 172.633ZM902.229 167.633C904.99 167.633 907.229 165.395 907.229 162.633C907.229 159.872 904.99 157.633 902.229 157.633C899.467 157.633 897.229 159.872 897.229 162.633C897.229 165.395 899.467 167.633 902.229 167.633ZM843.229 162.633C843.229 165.395 840.99 167.633 838.229 167.633C835.467 167.633 833.229 165.395 833.229 162.633C833.229 159.872 835.467 157.633 838.229 157.633C840.99 157.633 843.229 159.872 843.229 162.633ZM902.408 176.633C900.158 176.633 898.705 178.258 898.408 180.829V196.633C898.408 197.735 897.51 198.633 896.408 198.633H892.229L892.83 202.633H902.408C904.502 202.633 906.205 201.063 906.393 198.977L906.408 180.633C906.408 178.399 904.643 176.633 902.408 176.633ZM838.229 176.633C840.479 176.633 841.932 178.258 842.229 180.829V196.633C842.229 197.735 843.127 198.633 844.229 198.633H848.408L847.807 202.633H838.229C836.135 202.633 834.432 201.063 834.244 198.977L834.229 180.633C834.229 178.399 835.994 176.633 838.229 176.633Z" fill="#363636"/>
</g>
<path opacity="0.2" d="M1360.23 170.026C1360.23 106.393 1308.73 54.8093 1245.19 54.8093C1181.66 54.8093 1130.15 106.393 1130.15 170.026C1130.15 233.659 1181.66 285.243 1245.19 285.243C1308.73 285.243 1360.23 233.659 1360.23 170.026Z" stroke="#363636" stroke-width="0.351807"/>
<path d="M1345.56 180.506C1345.56 117.258 1294.37 65.9869 1231.22 65.9869C1168.07 65.9869 1116.87 117.258 1116.87 180.506C1116.87 243.754 1168.07 295.025 1231.22 295.025C1294.37 295.025 1345.56 243.754 1345.56 180.506Z" stroke="#E1E1E1" stroke-width="1.74669"/>
<circle r="98.5479" transform="matrix(1 0 0 -1 1234.24 178.336)" fill="white"/>
<g opacity="0.3" filter="url(#filter3_f_131_1288)">
<circle r="5.2771" transform="matrix(1 0 0 -1 1345.99 79.7358)" fill="#8224E3"/>
</g>
<path d="M1194 131.633V223.633H1266V156.821L1265.44 156.196L1241.44 132.196L1240.81 131.633H1194ZM1198 135.633H1238V159.633H1262V219.633H1198V135.633ZM1242 138.508L1259.12 155.633H1242V138.508ZM1208 147.633V151.633H1234V147.633H1208ZM1208 155.633V159.633H1234V155.633H1208ZM1208 163.633V167.633H1254V163.633H1208ZM1208 171.633V175.633H1254V171.633H1208ZM1208 179.633V183.633H1254V179.633H1208Z" fill="#262626"/>
<path d="M1214.94 192.071C1216.19 190.211 1218.04 188.758 1220.31 188.758C1222.15 188.758 1223.81 189.524 1224.75 190.758C1225.69 191.993 1225.94 193.469 1225.94 194.821C1225.94 198.985 1224.12 202.43 1222.06 205.196C1225.11 204.907 1227.03 203.485 1228.38 201.758C1229.12 200.805 1229.68 199.797 1230.19 198.946C1230.44 198.516 1230.68 198.157 1231 197.758C1231.32 197.36 1231.77 196.571 1233.06 196.571C1234.01 196.571 1234.62 197.086 1234.94 197.446C1235.26 197.805 1235.4 198.18 1235.56 198.508C1235.88 199.157 1236.16 199.805 1236.38 200.446C1236.45 200.649 1236.5 200.758 1236.56 200.946C1237.08 200.563 1237.66 200.071 1238.38 199.508C1240.05 198.196 1242.19 196.571 1245 196.571C1245.72 196.563 1246.39 196.938 1246.76 197.563C1247.12 198.188 1247.12 198.954 1246.76 199.579C1246.39 200.204 1245.72 200.579 1245 200.571C1243.88 200.571 1242.34 201.5 1240.81 202.696C1240.05 203.29 1239.34 203.899 1238.56 204.446C1237.78 204.993 1236.96 205.633 1235.63 205.633C1234.37 205.633 1233.92 204.852 1233.69 204.508C1233.45 204.165 1233.31 203.868 1233.19 203.571C1233.02 203.157 1232.89 202.75 1232.75 202.321C1232.37 202.946 1232.06 203.469 1231.5 204.196C1229.58 206.665 1226.23 209.383 1221.19 209.383C1220.34 209.383 1219.67 208.922 1218.94 208.633C1217.74 209.688 1216.06 211.321 1216.06 211.321C1215.48 211.805 1214.69 211.922 1214 211.625C1213.3 211.329 1212.84 210.672 1212.79 209.922C1212.73 209.172 1213.11 208.461 1213.75 208.071C1213.75 208.071 1214.98 206.836 1215.63 206.258C1215.42 206 1215.11 205.836 1214.94 205.571C1213.63 203.54 1212.94 201.149 1212.94 198.946C1212.94 196.321 1213.69 193.93 1214.94 192.071Z" fill="url(#paint5_linear_131_1288)"/>
<path d="M1221.56 193.196C1221.35 192.922 1221.19 192.758 1220.31 192.758C1219.88 192.758 1219.01 193.125 1218.25 194.258C1217.49 195.391 1216.94 197.11 1216.94 198.946C1216.94 200.266 1217.48 202.086 1218.31 203.383C1220.2 201 1221.94 198.008 1221.94 194.821C1221.94 194.063 1221.77 193.469 1221.56 193.196Z" fill="white"/>
<path d="M349.436 146.34C349.826 145.95 349.826 145.317 349.436 144.926L343.072 138.562C342.681 138.172 342.048 138.172 341.658 138.562C341.267 138.953 341.267 139.586 341.658 139.976L347.314 145.633L341.658 151.29C341.267 151.681 341.267 152.314 341.658 152.704C342.048 153.095 342.681 153.095 343.072 152.704L349.436 146.34ZM258.729 146.633H348.729V144.633H258.729V146.633Z" fill="url(#paint6_linear_131_1288)"/>
<path d="M719.436 146.34C719.826 145.95 719.826 145.317 719.436 144.926L713.072 138.562C712.681 138.172 712.048 138.172 711.658 138.562C711.267 138.953 711.267 139.586 711.658 139.976L717.314 145.633L711.658 151.29C711.267 151.681 711.267 152.314 711.658 152.704C712.048 153.095 712.681 153.095 713.072 152.704L719.436 146.34ZM628.729 146.633H718.729V144.633H628.729V146.633Z" fill="url(#paint7_linear_131_1288)"/>
<path d="M1095.44 146.34C1095.83 145.95 1095.83 145.317 1095.44 144.926L1089.07 138.562C1088.68 138.172 1088.05 138.172 1087.66 138.562C1087.27 138.953 1087.27 139.586 1087.66 139.976L1093.31 145.633L1087.66 151.29C1087.27 151.681 1087.27 152.314 1087.66 152.704C1088.05 153.095 1088.68 153.095 1089.07 152.704L1095.44 146.34ZM1004.73 146.633H1094.73V144.633H1004.73V146.633Z" fill="url(#paint8_linear_131_1288)"/>
<defs>
<filter id="filter0_f_131_1288" x="17.5515" y="274.882" width="21.1084" height="21.1084" filterUnits="userSpaceOnUse" color-interpolation-filters="sRGB">
<feFlood flood-opacity="0" result="BackgroundImageFix"/>
<feBlend mode="normal" in="SourceGraphic" in2="BackgroundImageFix" result="shape"/>
<feGaussianBlur stdDeviation="2.63855" result="effect1_foregroundBlur_131_1288"/>
</filter>
<filter id="filter1_f_131_1288" x="381.366" y="80.7534" width="21.1084" height="21.1084" filterUnits="userSpaceOnUse" color-interpolation-filters="sRGB">
<feFlood flood-opacity="0" result="BackgroundImageFix"/>
<feBlend mode="normal" in="SourceGraphic" in2="BackgroundImageFix" result="shape"/>
<feGaussianBlur stdDeviation="2.63855" result="effect1_foregroundBlur_131_1288"/>
</filter>
<filter id="filter2_f_131_1288" x="952.609" y="271.424" width="21.1084" height="21.1084" filterUnits="userSpaceOnUse" color-interpolation-filters="sRGB">
<feFlood flood-opacity="0" result="BackgroundImageFix"/>
<feBlend mode="normal" in="SourceGraphic" in2="BackgroundImageFix" result="shape"/>
<feGaussianBlur stdDeviation="2.63855" result="effect1_foregroundBlur_131_1288"/>
</filter>
<filter id="filter3_f_131_1288" x="1335.44" y="69.1816" width="21.1084" height="21.1084" filterUnits="userSpaceOnUse" color-interpolation-filters="sRGB">
<feFlood flood-opacity="0" result="BackgroundImageFix"/>
<feBlend mode="normal" in="SourceGraphic" in2="BackgroundImageFix" result="shape"/>
<feGaussianBlur stdDeviation="2.63855" result="effect1_foregroundBlur_131_1288"/>
</filter>
<linearGradient id="paint0_linear_131_1288" x1="841.153" y1="22.017" x2="794.882" y2="139.569" gradientUnits="userSpaceOnUse">
<stop stop-color="#6B67E9"/>
<stop offset="1" stop-color="#8224E3"/>
</linearGradient>
<linearGradient id="paint1_linear_131_1288" x1="79.4331" y1="179.002" x2="101.685" y2="138.79" gradientUnits="userSpaceOnUse">
<stop stop-color="#6B67E9"/>
<stop offset="1" stop-color="#8224E3"/>
</linearGradient>
<linearGradient id="paint2_linear_131_1288" x1="79.4331" y1="179.002" x2="101.685" y2="138.79" gradientUnits="userSpaceOnUse">
<stop stop-color="#6B67E9"/>
<stop offset="1" stop-color="#8224E3"/>
</linearGradient>
<linearGradient id="paint3_linear_131_1288" x1="454.737" y1="186.323" x2="538.349" y2="151.582" gradientUnits="userSpaceOnUse">
<stop stop-color="#6B67E9"/>
<stop offset="1" stop-color="#8224E3"/>
</linearGradient>
<linearGradient id="paint4_linear_131_1288" x1="847.092" y1="154.389" x2="889.341" y2="134.978" gradientUnits="userSpaceOnUse">
<stop stop-color="#6B67E9"/>
<stop offset="1" stop-color="#8224E3"/>
</linearGradient>
<linearGradient id="paint5_linear_131_1288" x1="1212.68" y1="202.763" x2="1239.38" y2="185.315" gradientUnits="userSpaceOnUse">
<stop stop-color="#6B67E9"/>
<stop offset="1" stop-color="#8224E3"/>
</linearGradient>
<linearGradient id="paint6_linear_131_1288" x1="258.46" y1="146.241" x2="258.524" y2="143.712" gradientUnits="userSpaceOnUse">
<stop stop-color="#6B67E9"/>
<stop offset="1" stop-color="#8224E3"/>
</linearGradient>
<linearGradient id="paint7_linear_131_1288" x1="628.46" y1="146.241" x2="628.524" y2="143.712" gradientUnits="userSpaceOnUse">
<stop stop-color="#6B67E9"/>
<stop offset="1" stop-color="#8224E3"/>
</linearGradient>
<linearGradient id="paint8_linear_131_1288" x1="1004.46" y1="146.241" x2="1004.52" y2="143.712" gradientUnits="userSpaceOnUse">
<stop stop-color="#6B67E9"/>
<stop offset="1" stop-color="#8224E3"/>
</linearGradient>
<clipPath id="clip0_131_1288">
<rect width="90" height="95" fill="white" transform="translate(455 129.633)"/>
</clipPath>
<clipPath id="clip1_131_1288">
<rect width="92.0004" height="104" fill="white" transform="translate(824.229 127.633)"/>
</clipPath>
</defs>
</svg>
