<svg width="1226" height="93" viewBox="0 0 1226 93" fill="none" xmlns="http://www.w3.org/2000/svg">
<path opacity="0.2" d="M84.0385 59.5368C84.0385 77.6527 69.3751 92.3384 51.287 92.3384C33.1989 92.3384 18.5354 77.6527 18.5354 59.5368C18.5354 41.4209 33.1989 26.7351 51.287 26.7351C69.3751 26.7351 84.0385 41.4209 84.0385 59.5368Z" stroke="#363636" stroke-width="0.100158"/>
<circle cx="45.8842" cy="56.5663" r="32.8016" fill="white"/>
<circle cx="45.8842" cy="56.5663" r="32.8016" fill="#EAEAEA" fill-opacity="0.3"/>
<g opacity="0.3" filter="url(#filter0_f_1196_33057)">
<circle cx="7.29495" cy="36.438" r="3.29495" fill="#8224E3"/>
</g>
<path d="M82.9872 10.4545V65H79.658V13.9702H79.3384L67.087 22.0934V18.5245L79.2319 10.4545H82.9872Z" fill="#377DFF"/>
<path opacity="0.2" d="M456.706 59.5368C456.706 77.6527 442.042 92.3384 423.954 92.3384C405.866 92.3384 391.202 77.6527 391.202 59.5368C391.202 41.4209 405.866 26.7351 423.954 26.7351C442.042 26.7351 456.706 41.4209 456.706 59.5368Z" stroke="#363636" stroke-width="0.100158"/>
<circle cx="418.551" cy="56.5663" r="32.8016" fill="white"/>
<circle cx="418.551" cy="56.5663" r="32.8016" fill="#EAEAEA" fill-opacity="0.3"/>
<g opacity="0.3" filter="url(#filter1_f_1196_33057)">
<circle cx="379.962" cy="36.438" r="3.29495" fill="#8224E3"/>
</g>
<path d="M441.166 65V62.4698L458.824 42.1218C461.345 39.2099 463.342 36.7418 464.816 34.7177C466.29 32.6935 467.346 30.8647 467.986 29.2312C468.625 27.5977 468.944 25.8931 468.944 24.1175C468.944 21.8981 468.421 19.9361 467.373 18.2315C466.343 16.5092 464.932 15.1687 463.138 14.2099C461.363 13.2511 459.339 12.7717 457.066 12.7717C454.687 12.7717 452.6 13.2955 450.807 14.343C449.014 15.3906 447.611 16.8111 446.599 18.6044C445.604 20.3977 445.107 22.413 445.107 24.6502H441.885C441.885 21.8271 442.542 19.288 443.856 17.033C445.169 14.7781 446.972 12.9936 449.262 11.6797C451.57 10.3658 454.198 9.7088 457.146 9.7088C460.04 9.7088 462.614 10.3391 464.869 11.5998C467.124 12.8604 468.9 14.5827 470.196 16.7667C471.492 18.9329 472.14 21.3832 472.14 24.1175C472.14 26.1239 471.794 28.0593 471.102 29.9236C470.427 31.7702 469.264 33.8388 467.613 36.1293C465.961 38.402 463.68 41.2074 460.768 44.5455L445.96 61.6175V61.9105H474.591V65H441.166Z" fill="#377DFF"/>
<path opacity="0.2" d="M829.372 59.5368C829.372 77.6527 814.708 92.3384 796.62 92.3384C778.532 92.3384 763.868 77.6527 763.868 59.5368C763.868 41.4209 778.532 26.7351 796.62 26.7351C814.708 26.7351 829.372 41.4209 829.372 59.5368Z" stroke="#363636" stroke-width="0.100158"/>
<circle cx="791.218" cy="56.5663" r="32.8016" fill="white"/>
<circle cx="791.218" cy="56.5663" r="32.8016" fill="#EAEAEA" fill-opacity="0.3"/>
<g opacity="0.3" filter="url(#filter2_f_1196_33057)">
<circle cx="752.628" cy="36.438" r="3.29495" fill="#8224E3"/>
</g>
<path d="M830.85 65.7457C827.619 65.7457 824.734 65.1332 822.195 63.908C819.655 62.6651 817.64 60.9695 816.149 58.821C814.675 56.6548 813.911 54.169 813.858 51.3636H817.241C817.294 53.5831 817.924 55.5451 819.132 57.2496C820.339 58.9364 821.955 60.2592 823.979 61.218C826.021 62.1768 828.294 62.6562 830.797 62.6562C833.514 62.6562 835.893 62.1236 837.935 61.0582C839.995 59.9929 841.601 58.5547 842.756 56.7436C843.91 54.9148 844.487 52.8729 844.487 50.6179C844.487 48.2031 843.856 46.0902 842.596 44.2791C841.335 42.4503 839.577 41.0298 837.322 40.0178C835.067 38.9879 832.448 38.473 829.465 38.473H827.441V35.3835H829.465C832.005 35.3835 834.277 34.9219 836.284 33.9986C838.29 33.0575 839.87 31.7347 841.024 30.0302C842.196 28.3256 842.782 26.3104 842.782 23.9844C842.782 21.8004 842.276 19.8651 841.264 18.1783C840.252 16.4915 838.849 15.1687 837.056 14.2099C835.28 13.2511 833.194 12.7717 830.797 12.7717C828.489 12.7717 826.394 13.2422 824.512 14.1832C822.647 15.1243 821.165 16.4471 820.064 18.1516C818.963 19.8562 818.404 21.8359 818.386 24.0909H815.11C815.146 21.2678 815.856 18.7731 817.241 16.6069C818.643 14.4407 820.517 12.7539 822.86 11.5465C825.222 10.3214 827.885 9.7088 830.85 9.7088C833.869 9.7088 836.514 10.3391 838.787 11.5998C841.078 12.8604 842.853 14.565 844.114 16.7134C845.392 18.8619 846.032 21.25 846.032 23.8778C846.032 27.0384 845.153 29.7461 843.395 32.0011C841.655 34.2383 839.293 35.7919 836.31 36.6619V36.9549C839.844 37.7362 842.64 39.343 844.7 41.7756C846.759 44.2081 847.789 47.1555 847.789 50.6179C847.789 53.4588 847.061 56.0245 845.605 58.315C844.149 60.6055 842.143 62.4165 839.586 63.7482C837.047 65.0799 834.135 65.7457 830.85 65.7457Z" fill="#377DFF"/>
<path opacity="0.2" d="M1202.04 59.5368C1202.04 77.6527 1187.38 92.3384 1169.29 92.3384C1151.2 92.3384 1136.54 77.6527 1136.54 59.5368C1136.54 41.4209 1151.2 26.7351 1169.29 26.7351C1187.38 26.7351 1202.04 41.4209 1202.04 59.5368Z" stroke="#363636" stroke-width="0.100158"/>
<circle cx="1163.88" cy="56.5663" r="32.8016" fill="white"/>
<circle cx="1163.88" cy="56.5663" r="32.8016" fill="#EAEAEA" fill-opacity="0.3"/>
<g opacity="0.3" filter="url(#filter3_f_1196_33057)">
<circle cx="1125.29" cy="36.438" r="3.29495" fill="#8224E3"/>
</g>
<path d="M1185.14 52.7486V50.0852L1209.83 10.4545H1211.85V15.5948H1210.12L1189.16 49.3661V49.6591H1220.67V52.7486H1185.14ZM1210.39 65V51.843V50.6445V10.4545H1213.64V65H1210.39Z" fill="#377DFF"/>
<path d="M357.195 53.6521L352.197 50.7623L352.194 56.5358L357.195 53.6521ZM107.195 53.999L352.695 54.1493L352.696 53.1493L107.196 52.999L107.195 53.999Z" fill="#377DFF"/>
<path d="M736.195 53.6521L731.197 50.7623L731.194 56.5358L736.195 53.6521ZM486.195 53.999L731.695 54.1493L731.696 53.1493L486.196 52.999L486.195 53.999Z" fill="#377DFF"/>
<path d="M1117.2 53.6521L1112.2 50.7623L1112.19 56.5358L1117.2 53.6521ZM867.195 53.999L1112.69 54.1493L1112.7 53.1493L867.196 52.999L867.195 53.999Z" fill="#377DFF"/>
<defs>
<filter id="filter0_f_1196_33057" x="0.705049" y="29.8481" width="13.1797" height="13.1797" filterUnits="userSpaceOnUse" color-interpolation-filters="sRGB">
<feFlood flood-opacity="0" result="BackgroundImageFix"/>
<feBlend mode="normal" in="SourceGraphic" in2="BackgroundImageFix" result="shape"/>
<feGaussianBlur stdDeviation="1.64748" result="effect1_foregroundBlur_1196_33057"/>
</filter>
<filter id="filter1_f_1196_33057" x="373.372" y="29.8481" width="13.1797" height="13.1797" filterUnits="userSpaceOnUse" color-interpolation-filters="sRGB">
<feFlood flood-opacity="0" result="BackgroundImageFix"/>
<feBlend mode="normal" in="SourceGraphic" in2="BackgroundImageFix" result="shape"/>
<feGaussianBlur stdDeviation="1.64748" result="effect1_foregroundBlur_1196_33057"/>
</filter>
<filter id="filter2_f_1196_33057" x="746.038" y="29.8481" width="13.1797" height="13.1797" filterUnits="userSpaceOnUse" color-interpolation-filters="sRGB">
<feFlood flood-opacity="0" result="BackgroundImageFix"/>
<feBlend mode="normal" in="SourceGraphic" in2="BackgroundImageFix" result="shape"/>
<feGaussianBlur stdDeviation="1.64748" result="effect1_foregroundBlur_1196_33057"/>
</filter>
<filter id="filter3_f_1196_33057" x="1118.71" y="29.8481" width="13.1797" height="13.1797" filterUnits="userSpaceOnUse" color-interpolation-filters="sRGB">
<feFlood flood-opacity="0" result="BackgroundImageFix"/>
<feBlend mode="normal" in="SourceGraphic" in2="BackgroundImageFix" result="shape"/>
<feGaussianBlur stdDeviation="1.64748" result="effect1_foregroundBlur_1196_33057"/>
</filter>
</defs>
</svg>
