<svg width="50" height="50" viewBox="0 0 50 50" fill="none" xmlns="http://www.w3.org/2000/svg">
<path d="M19 1C17.9062 1 17 1.90625 17 3H9C7.35547 3 6 4.35547 6 6V45C6 46.6445 7.35547 48 9 48H41C42.6445 48 44 46.6445 44 45V6C44 4.35547 42.6445 3 41 3H33C33 1.90625 32.0938 1 31 1H19ZM19 3H31V7C31 7.56641 30.5664 8 30 8H20C19.4336 8 19 7.56641 19 7V3ZM9 5H17V7H11V43H39V7H33V5H41C41.5547 5 42 5.44531 42 6V45C42 45.5547 41.5547 46 41 46H9C8.44531 46 8 45.5547 8 45V6C8 5.44531 8.44531 5 9 5ZM13 9H17.7852C18.3359 9.60938 19.125 10 20 10H30C30.875 10 31.6641 9.60938 32.2148 9H37V41H13V9ZM25.4531 14C22.7266 14 21.7773 15.9727 22.5586 17.6562C22.4531 17.7539 22.2891 18.043 22.2969 18.2539C22.3203 18.75 22.6758 18.9375 22.8398 19.0117C22.9023 19.5859 23.2695 20.1328 23.6406 20.3672V21.5352C23.1328 22.8438 20 22.4609 20 25H30C30 22.4609 26.8672 22.8438 26.3633 21.5352V20.3672C26.7383 20.0273 26.9141 19.5078 26.9297 19.0117C27.0938 18.8789 27.3516 18.7109 27.4297 18.3086C27.4922 17.9805 27.3594 17.7148 27.2031 17.5195C27.6953 16.793 27.625 14.5469 25.7461 14.5469L25.4531 14ZM17 29V31H33V29H17ZM17 34V36H30V34H17Z" fill="#363636"/>
<path d="M22.5586 17.6562C21.7773 15.9727 22.7266 14 25.4531 14L25.7461 14.5469C27.625 14.5469 27.6953 16.793 27.2031 17.5195C27.3594 17.7148 27.4922 17.9805 27.4297 18.3086C27.3516 18.7109 27.0937 18.8789 26.9297 19.0117C26.9141 19.5078 26.7383 20.0273 26.3633 20.3672V21.5352C26.8672 22.8438 30 22.4609 30 25H20C20 22.4609 23.1328 22.8438 23.6406 21.5352V20.3672C23.2695 20.1328 22.9023 19.5859 22.8398 19.0117C22.6758 18.9375 22.3203 18.75 22.2969 18.2539C22.2891 18.043 22.4531 17.7539 22.5586 17.6562Z" fill="url(#paint0_linear_786_816)"/>
<defs>
<linearGradient id="paint0_linear_786_816" x1="19.9702" y1="20.6895" x2="29.5646" y2="16.8557" gradientUnits="userSpaceOnUse">
<stop stop-color="#6B67E9"/>
<stop offset="1" stop-color="#8224E3"/>
</linearGradient>
</defs>
</svg>
