<svg id="full" width="440" height="312" viewBox="0 0 440 312" fill="none" xmlns="http://www.w3.org/2000/svg">
  <g clip-path="url(#clip0)">
    <path d="M269.496 312C363.659 312 439.993 307.777 439.993 302.568C439.993 297.359 363.659 293.136 269.496 293.136C175.334 293.136 99 297.359 99 302.568C99 307.777 175.334 312 269.496 312Z" fill="#FFF1E2"/>
    <path d="M222.379 48.1768C273.829 39.0053 315.001 55.8705 331.001 78.5169C347.001 101.163 374.278 86.6742 397.012 116.478C419.747 146.282 420.499 219.843 312.911 225.182C205.33 230.522 150.733 214.975 139.333 182.287C127.933 149.6 134.624 63.8178 222.379 48.1768Z" fill="#FFF1E2"/>
    <path d="M206.878 68.0771C206.878 68.0771 223.254 110.052 290.705 116.326C358.155 122.599 381.172 100.243 404.695 106.763" stroke="#FF9A8D" stroke-miterlimit="10" stroke-linecap="round" stroke-linejoin="round" stroke-dasharray="5 5"/>
    <path d="M188.281 69.4394L198.965 54.1099L213.836 49.6256L170.234 32.8545L188.281 69.4394Z" fill="#FF9A8D"/>
    <path d="M170.234 32.8545L197.619 56.037L200.701 63.4336L202.046 53.1826L170.234 32.8545Z" fill="#D66F67"/>
    <path d="M194.588 60.3911L200.701 63.4338L197.619 56.0371L194.588 60.3911Z" fill="#EF857D"/>
    <path d="M162.296 113.856C173.865 108.062 178.555 93.972 172.77 82.3848C166.985 70.7975 152.917 66.1008 141.348 71.8944C129.778 77.6881 125.089 91.7781 130.874 103.365C136.658 114.953 150.727 119.649 162.296 113.856Z" stroke="#FF9A8D" stroke-linecap="round" stroke-linejoin="round" stroke-dasharray="5.08 5.08"/>
    <path d="M411.175 168.271C417.538 165.664 420.586 158.384 417.982 152.011C415.378 145.638 408.11 142.586 401.747 145.193C395.384 147.801 392.336 155.081 394.94 161.454C397.543 167.827 404.812 170.879 411.175 168.271Z" stroke="#FF9A8D" stroke-miterlimit="10" stroke-linecap="round" stroke-linejoin="round" stroke-dasharray="5 5"/>
    <path d="M245.923 32.1301C252.503 32.1301 257.836 26.788 257.836 20.1983C257.836 13.6086 252.503 8.2666 245.923 8.2666C239.344 8.2666 234.01 13.6086 234.01 20.1983C234.01 26.788 239.344 32.1301 245.923 32.1301Z" fill="#8CD3E8"/>
    <path d="M249.815 24.9073C249.207 25.5593 248.375 25.9867 247.312 26.1823V27.9572H244.664V26.2403C243.167 26.0592 241.981 25.6172 241.12 24.9L241.923 23.0962C242.133 23.2918 242.422 23.4946 242.805 23.7047C243.182 23.9148 243.616 24.0959 244.107 24.2408C244.599 24.3857 245.091 24.4581 245.598 24.4581C246.212 24.4581 246.733 24.3205 247.16 24.0379C247.587 23.7627 247.804 23.3207 247.804 22.7194C247.804 22.3862 247.681 22.1037 247.428 21.8718C247.182 21.64 246.878 21.4516 246.523 21.3068C246.169 21.1619 245.706 21.0097 245.135 20.8431C244.361 20.6185 243.695 20.3505 243.131 20.039C242.567 19.7274 242.104 19.3073 241.749 18.7712C241.395 18.2423 241.214 17.5758 241.214 16.7789C241.214 16.1849 241.352 15.6415 241.619 15.1417C241.887 14.6418 242.285 14.2289 242.798 13.8884C243.312 13.5479 243.934 13.3088 244.664 13.1856V11.0195H247.312V13.1929C247.941 13.3088 248.491 13.4972 248.968 13.7362C249.438 13.9825 249.771 14.2289 249.966 14.4752L249.077 16.1921C248.99 16.0762 248.795 15.9168 248.498 15.7285C248.202 15.5401 247.847 15.3735 247.442 15.2286C247.037 15.0837 246.632 15.0113 246.22 15.0113C245.59 15.0113 245.062 15.1489 244.636 15.4242C244.209 15.6995 243.992 16.0979 243.992 16.6195C243.992 17.1774 244.23 17.6048 244.715 17.8946C245.2 18.1916 245.8 18.4162 246.531 18.5828C247.768 18.8726 248.78 19.3507 249.554 20.01C250.328 20.6692 250.719 21.4951 250.719 22.4876C250.719 23.4511 250.422 24.2553 249.815 24.9073Z" fill="white"/>
    <path d="M179.369 174.305H173.011C171.174 174.305 169.677 172.812 169.677 170.965V164.836H182.697V170.965C182.697 172.812 181.207 174.305 179.369 174.305Z" fill="#D86A7D"/>
    <path d="M194.689 143.826C194.689 148.702 192.801 153.136 189.727 156.446C188.953 157.28 188.107 158.033 187.196 158.714C187.188 163.292 183.478 167.009 178.906 167.009H173.17C168.592 167.009 164.874 163.285 164.874 158.699V158.475C164.078 157.859 163.34 157.185 162.653 156.446C159.579 153.143 157.691 148.702 157.691 143.826C157.691 133.59 165.973 125.295 176.194 125.295C186.407 125.295 194.689 133.59 194.689 143.826Z" fill="#8CD3E8"/>
    <path d="M189.727 156.447C188.953 157.28 188.107 158.033 187.195 158.714C187.188 163.293 183.478 167.009 178.906 167.009H173.17C168.591 167.009 164.873 163.286 164.873 158.7V158.475C164.078 157.859 163.34 157.186 162.653 156.447C164.302 150.514 169.741 146.152 176.194 146.152C182.646 146.152 188.078 150.514 189.727 156.447Z" fill="#71BBCC"/>
    <path d="M183.629 143.298H182.602C182.602 146.666 179.998 149.426 176.707 149.694V143.298C176.707 143.015 176.476 142.783 176.194 142.783C175.912 142.783 175.68 143.015 175.68 143.298V149.694C172.382 149.434 169.785 146.666 169.785 143.298H168.758C168.758 147.231 171.825 150.462 175.687 150.723V165.966C175.687 166.248 175.919 166.48 176.201 166.48C176.483 166.48 176.714 166.248 176.714 165.966V150.723C180.57 150.455 183.629 147.231 183.629 143.298Z" fill="white"/>
    <path d="M179.275 128.266C179.275 128.266 185.488 129.128 188.96 135.409" stroke="white" stroke-width="3" stroke-miterlimit="10" stroke-linecap="round" stroke-linejoin="round"/>
    <path d="M190.277 138.379L190.624 139.234" stroke="white" stroke-width="3" stroke-miterlimit="10" stroke-linecap="round" stroke-linejoin="round"/>
    <path d="M404.694 70.7218V63.8322L399.515 62.789C399.334 62.2239 399.11 61.6806 398.864 61.1445L402.162 56.9065L397.67 51.6904L392.73 54.4795C391.92 54.0231 391.059 53.6464 390.162 53.3494L389.019 47.6045H382.141L380.983 53.3422C380.13 53.6247 379.305 53.9797 378.524 54.4071L373.034 51.3064L368.542 56.5225L372.224 61.2532C372.072 61.5864 371.934 61.9342 371.811 62.2819L366.01 63.4555V70.3451L371.529 71.4462C371.71 72.0475 371.927 72.6343 372.173 73.1994L368.318 78.1547L372.81 83.3707L378.531 80.1397C379.052 80.4294 379.602 80.6758 380.159 80.8931L381.461 87.4494H388.339L389.562 81.364C390.321 81.1466 391.059 80.8713 391.761 80.5381L397.439 83.7474L401.931 78.5314L398.495 74.1195C398.893 73.366 399.226 72.5764 399.493 71.7505L404.694 70.7218ZM385.576 74.7497C381.453 74.7497 378.104 71.4028 378.104 67.2661C378.104 63.1368 381.446 59.7825 385.576 59.7825C389.707 59.7825 393.048 63.1295 393.048 67.2661C393.041 71.4028 389.699 74.7497 385.576 74.7497Z" fill="#FF9A8D"/>
    <path d="M393.355 75.5391C397.773 71.1143 397.773 63.9404 393.355 59.5156C388.937 55.0908 381.774 55.0908 377.356 59.5156C372.938 63.9404 372.938 71.1143 377.356 75.5391C381.774 79.9639 388.937 79.9639 393.355 75.5391Z" stroke="white" stroke-miterlimit="10" stroke-linecap="round" stroke-linejoin="round"/>
    <path d="M288.354 16.5755H285.149V13.3661C285.149 13.1633 284.99 13.0039 284.788 13.0039C284.585 13.0039 284.426 13.1633 284.426 13.3661V16.5755H281.222C281.019 16.5755 280.86 16.7348 280.86 16.9377C280.86 17.1405 281.019 17.2999 281.222 17.2999H284.426V20.5092C284.426 20.7121 284.585 20.8715 284.788 20.8715C284.99 20.8715 285.149 20.7121 285.149 20.5092V17.2999H288.354C288.556 17.2999 288.715 17.1405 288.715 16.9377C288.715 16.7421 288.549 16.5755 288.354 16.5755Z" fill="#FF8968"/>
    <path d="M128.309 140.037H125.112V136.828C125.112 136.625 124.953 136.466 124.751 136.466C124.548 136.466 124.389 136.625 124.389 136.828V140.037H121.185C120.982 140.037 120.823 140.197 120.823 140.4C120.823 140.602 120.982 140.762 121.185 140.762H124.389V143.971C124.389 144.174 124.548 144.333 124.751 144.333C124.953 144.333 125.112 144.174 125.112 143.971V140.762H128.317C128.519 140.762 128.678 140.602 128.678 140.4C128.671 140.197 128.512 140.037 128.309 140.037Z" fill="#FF8968"/>
    <path d="M389.143 131.474H385.938V128.265C385.938 128.062 385.779 127.902 385.577 127.902C385.374 127.902 385.215 128.062 385.215 128.265V131.474H382.011C381.808 131.474 381.649 131.633 381.649 131.836C381.649 132.039 381.808 132.198 382.011 132.198H385.215V135.408C385.215 135.611 385.374 135.77 385.577 135.77C385.779 135.77 385.938 135.611 385.938 135.408V132.198H389.143C389.345 132.198 389.504 132.039 389.504 131.836C389.504 131.633 389.338 131.474 389.143 131.474Z" fill="#FF8968"/>
    <path d="M239.637 72.076C240.964 72.076 242.039 70.9992 242.039 69.6708C242.039 68.3425 240.964 67.2656 239.637 67.2656C238.311 67.2656 237.236 68.3425 237.236 69.6708C237.236 70.9992 238.311 72.076 239.637 72.076Z" fill="#FF9A8D"/>
    <path d="M204.201 185.12C205.528 185.12 206.603 184.043 206.603 182.715C206.603 181.386 205.528 180.31 204.201 180.31C202.875 180.31 201.8 181.386 201.8 182.715C201.8 184.043 202.875 185.12 204.201 185.12Z" fill="#FF9A8D"/>
    <path d="M162.082 16.4236H205.019C205.019 16.4236 202.227 9.1284 195.254 6.17988C188.281 3.23136 182.856 8.50538 182.856 8.50538C182.856 8.50538 178.046 -0.869041 168.592 0.0655032C159.138 1.00005 156.042 8.24457 156.042 8.24457C156.042 8.24457 145.192 6.17988 144.107 16.4309H162.082V16.4236Z" fill="#FFF1E2"/>
    <path d="M371.906 33.3689H407.096C407.096 33.3689 404.81 27.3921 399.096 24.9725C393.381 22.5528 388.933 26.8778 388.933 26.8778C388.933 26.8778 384.991 19.1986 377.244 19.9592C369.497 20.7199 366.958 26.6604 366.958 26.6604C366.958 26.6604 358.068 24.9725 357.179 33.3689H371.906Z" fill="#FFF1E2"/>
    <path d="M220.838 197.949L196.599 214.728L186.017 271.22H194.393L207.832 226.42L222.378 222.226L220.838 197.949Z" fill="#D86A7D"/>
    <path d="M314.459 197.949L338.697 214.728L349.273 271.22H340.896L327.457 226.42L312.911 222.226L314.459 197.949Z" fill="#D86A7D"/>
    <path d="M272.39 222.581H263.818H227.131L231.883 249.697H263.818H272.39H304.325L309.077 222.581H272.39Z" fill="#313280"/>
    <path d="M237.706 246.59C236.035 246.59 234.683 245.235 234.683 243.561V232.55C234.683 230.876 236.035 229.521 237.706 229.521C239.377 229.521 240.73 230.876 240.73 232.55V243.561C240.73 245.235 239.377 246.59 237.706 246.59Z" fill="#4343AA"/>
    <path d="M250.01 246.59C248.339 246.59 246.986 245.235 246.986 243.561V232.55C246.986 230.876 248.339 229.521 250.01 229.521C251.681 229.521 253.033 230.876 253.033 232.55V243.561C253.033 245.235 251.681 246.59 250.01 246.59Z" fill="#4343AA"/>
    <path d="M262.314 246.59C260.643 246.59 259.29 245.235 259.29 243.561V232.55C259.29 230.876 260.643 229.521 262.314 229.521C263.984 229.521 265.337 230.876 265.337 232.55V243.561C265.337 245.235 263.984 246.59 262.314 246.59Z" fill="#4343AA"/>
    <path d="M274.618 246.59C272.947 246.59 271.594 245.235 271.594 243.561V232.55C271.594 230.876 272.947 229.521 274.618 229.521C276.289 229.521 277.641 230.876 277.641 232.55V243.561C277.649 245.235 276.289 246.59 274.618 246.59Z" fill="#4343AA"/>
    <path d="M286.921 246.59C285.251 246.59 283.898 245.235 283.898 243.561V232.55C283.898 230.876 285.251 229.521 286.921 229.521C288.592 229.521 289.945 230.876 289.945 232.55V243.561C289.952 245.235 288.592 246.59 286.921 246.59Z" fill="#4343AA"/>
    <path d="M299.232 246.59C297.562 246.59 296.209 245.235 296.209 243.561V232.55C296.209 230.876 297.562 229.521 299.232 229.521C300.903 229.521 302.256 230.876 302.256 232.55V243.561C302.256 245.235 300.903 246.59 299.232 246.59Z" fill="#4343AA"/>
    <path d="M316.824 194.842H217.626C217.626 194.842 217.438 136.842 232.302 92.875V92.8678C233.236 90.1149 234.227 87.4127 235.275 84.7902C238.227 84.2613 241.771 83.7469 245.923 83.3485C250.834 82.8704 256.585 82.5516 263.203 82.5371C264.049 82.5371 264.903 82.5444 265.778 82.5516C270.625 82.6023 275.182 82.7834 279.406 83.0587C283.717 83.334 287.681 83.6962 291.247 84.0947C294.227 84.4352 296.932 84.7974 299.326 85.1524C299.435 85.4204 299.543 85.6957 299.652 85.9855C299.818 86.4129 299.992 86.8693 300.173 87.3402C300.404 87.9633 300.643 88.6008 300.874 89.2383C301.106 89.8831 301.33 90.5206 301.547 91.1291C301.706 91.5855 301.858 92.0274 302.003 92.4404C317.012 136.458 316.824 194.842 316.824 194.842Z" fill="#5454C8"/>
    <path d="M308.477 194.842C307.645 210.055 305.743 223.059 304.506 230.34H242.09C239.247 223.4 235.543 211.743 233.554 194.842H271.565C271.92 207.107 271.985 218.937 271.594 229.514H289.952C289.952 229.514 290.22 215.025 289.981 194.842H308.477Z" fill="#9A7BF0"/>
    <path d="M289.981 194.841H271.565C270.466 156.496 266.48 113.963 264.281 92.6354C270.343 92.592 276.527 92.5558 282.082 92.5195C287.949 118.281 289.591 163.451 289.981 194.841Z" fill="#7272DB"/>
    <path d="M265.533 147.89C279.435 147.89 290.705 136.953 290.705 123.462C290.705 109.97 279.435 99.0332 265.533 99.0332C251.631 99.0332 240.361 109.97 240.361 123.462C240.361 136.953 251.631 147.89 265.533 147.89Z" fill="#4343AA"/>
    <path d="M290.712 120.745C290.712 122.983 290.4 125.157 289.815 127.207C289.373 128.757 288.78 130.235 288.042 131.633C284.122 139.138 276.274 144.26 267.225 144.26C254.256 144.26 243.746 133.734 243.746 120.745C243.746 114.507 246.162 108.849 250.118 104.64C251.984 102.641 254.198 100.974 256.672 99.7283C256.672 99.7283 256.672 99.721 256.679 99.721C259.847 98.12 263.435 97.2217 267.225 97.2217C280.194 97.2217 290.712 107.755 290.712 120.745Z" fill="#9A7BF0"/>
    <path d="M361.88 271.221H171.319V283.747H361.88V271.221Z" fill="#FFB5B3"/>
    <path d="M371.797 283.746H157.279V296.272H371.797V283.746Z" fill="#FF9A8D"/>
    <path d="M263.204 82.5371C263.464 84.8988 263.84 88.34 264.281 92.636C256.737 92.6867 249.366 92.7374 243.616 92.7881C244.484 89.1151 245.272 85.9203 245.923 83.3485C250.835 82.8704 256.585 82.5516 263.204 82.5371Z" fill="#D86A7D"/>
    <path d="M293.873 92.4547C290.603 92.4692 286.546 92.491 282.083 92.5199C281.272 88.9701 280.383 85.7825 279.406 83.0586C283.717 83.3339 287.681 83.6961 291.247 84.0946C291.782 85.7173 292.708 88.5717 293.873 92.4547Z" fill="#D86A7D"/>
    <path d="M242.09 230.34H217.626V194.842H233.554C235.543 211.743 239.247 223.4 242.09 230.34Z" fill="#826ADB"/>
    <path d="M245.923 83.3486C245.272 85.9204 244.484 89.1153 243.616 92.7883C236.845 92.839 232.303 92.8752 232.303 92.8752V92.8679C233.236 90.115 234.227 87.4128 235.276 84.7903C236.288 84.6092 237.373 84.4281 238.531 84.2542C238.762 84.218 239.001 84.189 239.232 84.1528C241.258 83.8558 243.485 83.5805 245.923 83.3486Z" fill="#BA5B70"/>
    <path d="M232.302 178.491C232.527 184.41 232.961 189.85 233.554 194.842H217.626C217.626 194.842 217.438 136.842 232.302 92.875C232.302 92.875 236.845 92.8388 243.615 92.7881C238.682 113.804 231.254 150.636 232.302 178.491Z" fill="#4343AA"/>
    <path d="M316.824 194.842V230.34H304.506C305.743 223.059 307.645 210.055 308.477 194.842H316.824Z" fill="#AB97F7"/>
    <path d="M302.003 92.4404C301.931 92.4187 298.784 92.4259 293.873 92.4549C292.708 88.5719 291.782 85.7175 291.247 84.0947C294.227 84.4352 296.932 84.7974 299.327 85.1524C299.435 85.4205 299.544 85.6958 299.652 85.9856C299.819 86.413 299.992 86.8694 300.173 87.3403C300.404 87.9633 300.643 88.6008 300.875 89.2383C301.106 89.8831 301.33 90.5206 301.547 91.1292C301.706 91.5856 301.858 92.0275 302.003 92.4404Z" fill="#ED8EA3"/>
    <path d="M316.824 194.842H308.477C309.2 181.722 309.113 166.958 307.117 152.787C303.442 126.765 297.511 104.589 293.873 92.4549C298.784 92.4259 301.93 92.4186 302.003 92.4404C317.012 136.458 316.824 194.842 316.824 194.842Z" fill="#7272DB"/>
    <path d="M288.042 131.634C284.122 139.139 276.274 144.261 267.225 144.261C254.256 144.261 243.746 133.735 243.746 120.745C243.746 114.508 246.162 108.85 250.118 104.641C250.719 105.611 251.89 107.437 253.568 109.69C251.124 112.711 249.662 116.551 249.662 120.745C249.662 130.46 257.525 138.335 267.225 138.335C273.192 138.335 278.465 135.357 281.626 130.801C283.695 131.3 285.836 131.59 288.042 131.634Z" fill="#826ADB"/>
    <path d="M281.627 130.8C278.466 135.357 273.193 138.334 267.225 138.334C257.525 138.334 249.663 130.459 249.663 120.745C249.663 116.55 251.124 112.71 253.569 109.689C258.726 116.637 268.693 127.699 281.627 130.8Z" fill="#FFD00A"/>
    <path d="M284.788 120.745C284.788 124.49 283.623 127.953 281.627 130.8C268.694 127.7 258.726 116.637 253.569 109.69C256.78 105.705 261.706 103.155 267.225 103.155C276.925 103.155 284.788 111.03 284.788 120.745Z" fill="#FFE98A"/>
    <path d="M282.083 92.5201C276.527 92.5563 270.343 92.5925 264.281 92.636C263.84 88.34 263.464 84.8988 263.204 82.5371C264.05 82.5371 264.903 82.5444 265.779 82.5516C266.929 82.5661 268.064 82.5806 269.186 82.6096C269.33 82.6096 269.482 82.6168 269.627 82.624C271.298 82.6603 272.925 82.7182 274.517 82.7907C276.195 82.8631 277.822 82.9573 279.406 83.0587C280.383 85.7827 281.272 88.9702 282.083 92.5201Z" fill="#ED8EA3"/>
    <path d="M289.952 229.514H271.594C271.984 218.937 271.919 207.107 271.565 194.842H289.981C290.22 215.025 289.952 229.514 289.952 229.514Z" fill="#AB97F7"/>
    <path d="M289.815 127.207C290.415 116.26 283.334 105.017 272.18 101.184C266.133 99.1053 260.737 99.1125 256.679 99.721C259.847 98.12 263.435 97.2217 267.225 97.2217C280.195 97.2217 290.712 107.755 290.712 120.745C290.712 122.983 290.401 125.157 289.815 127.207Z" fill="#AB97F7"/>
    <path d="M196.599 214.728L203.905 239.533L207.832 226.421L218.241 223.422L217.626 200.174L196.599 214.728Z" fill="#BA5B70"/>
    <path d="M316.824 208.918L332.897 219.893L344.723 271.221H340.897L327.457 226.421L316.824 223.356V208.918Z" fill="#BA5B70"/>
    <path d="M116.895 292.229H120.779V287.042H111.948C110.928 287.042 110.103 286.216 110.103 285.195C110.103 284.174 110.928 283.348 111.948 283.348H120.772V245.002H114.457C112.635 245.002 111.152 243.524 111.152 241.692C111.152 239.866 112.627 238.381 114.457 238.381H130.703C132.526 238.381 134.009 239.859 134.009 241.692C134.009 243.517 132.534 245.002 130.703 245.002H124.288V283.348H134.298C135.318 283.348 136.143 284.174 136.143 285.195C136.143 286.216 135.318 287.042 134.298 287.042H124.295V292.229H128.121C131.868 292.229 134.913 295.272 134.913 299.032H124.295H120.779H110.103C110.103 295.279 113.141 292.229 116.895 292.229Z" fill="#9A7BF0"/>
    <path d="M124.859 286.766L124.128 288.925C124.128 288.925 123.535 289.845 121.835 289.708C120.136 289.57 119.774 288.976 119.774 288.976L120.143 286.216L124.859 286.766Z" fill="#FFB696"/>
    <path d="M140.107 282.217L138.349 285.1C138.349 285.1 136.707 284.984 135.622 284.455C134.537 283.934 134.226 283.209 134.226 283.209L135.637 280.471L140.107 282.217Z" fill="#FFB696"/>
    <path d="M138.617 284.76C138.617 284.76 140.056 288.6 141.184 290.099C142.313 291.599 142.725 291.961 142.609 292.649C142.494 293.338 139.774 293.461 137.684 291.961C135.6 290.462 135.347 289.708 134.407 288.556C133.467 287.404 132.497 286.629 132.208 285.869C131.911 285.108 134.725 282.225 134.725 282.225C134.725 282.225 135.159 284.369 138.617 284.76Z" fill="#313280"/>
    <path d="M124.129 288.926C124.129 288.926 124.447 292.143 125.228 294.483C126.009 296.823 126.74 297.974 126.378 298.989C126.009 300.003 124.635 300.459 122.32 299.815C120.006 299.17 119.543 297.424 119.13 295.265C118.718 293.106 118.675 292.787 118.718 292.418C118.761 292.048 119.774 288.194 119.774 288.194C119.774 288.194 121.604 289.752 124.129 288.926Z" fill="#313280"/>
    <path d="M149.525 260.027L141.119 283.651C141.119 283.651 139.543 283.811 137.474 282.76C136.664 282.362 135.774 281.761 134.877 280.898C134.877 280.898 137.741 261.432 140.534 257.933L129.749 242.93C131.203 248.82 132.693 256.144 132.432 260.679L126.067 286.535C124.823 287.904 122.985 287.882 121.474 287.527C120.005 287.187 118.855 286.535 118.855 286.535C118.855 286.535 122.674 260.875 122.689 260.846C121.474 257.39 117.206 244.929 116.664 239.366C116.931 235.685 117.814 228.941 117.814 228.941L120.895 228.926L136.837 228.832L137.163 232.773L137.199 232.744C137.199 232.744 145.242 243.843 149.199 252.782C150.212 255.072 150.335 257.658 149.525 260.027Z" fill="#313280"/>
    <path d="M138.248 196.333C138.248 196.333 140.121 197.246 140.425 199.789L146.812 218.175L140.83 221.631C140.83 221.631 137.38 215.133 136.874 210.358C136.375 205.577 138.248 196.333 138.248 196.333Z" fill="#D86A7D"/>
    <path d="M131.051 194.102L138.248 196.333C138.248 196.333 139.159 200.702 139.159 204.918C139.159 209.135 137.691 217.357 137.691 217.357L136.794 229.441L117.814 228.934C117.814 228.934 115.955 202.194 116.967 196L125.582 192.827L131.051 194.102Z" fill="#FF8B9B"/>
    <path d="M125.539 193.189L126.197 187.894C125.647 185.09 124.888 179.823 126.588 178.338C128.946 176.281 137.843 176.078 137.691 183.337C137.691 183.337 136.678 189.328 135.051 191.972C134.4 193.037 132.895 192.871 131.34 192.298L130.465 196.015L125.539 193.189Z" fill="#FFB696"/>
    <path d="M137.467 182.33C137.467 182.33 132.374 183.018 130.58 181.265C130.58 181.265 130.848 183.242 130.045 184.467C129.249 185.684 128.259 185.568 128.259 185.568C128.259 185.568 128.259 183.626 127.419 183.663C126.58 183.699 126.407 185.764 126.819 186.959C127.231 188.154 127.803 188.154 127.803 188.154L126.052 189.031C126.052 189.031 124.721 183.127 124.721 181.265C124.721 179.396 125.749 178.671 125.749 178.671C125.749 178.671 126.356 176.693 128.902 176.425C131.448 176.157 134.457 177.222 136.967 178.555C139.477 179.888 139.781 181.185 139.593 181.453C139.405 181.721 138.834 181.721 138.834 181.721C138.834 181.721 139.253 184.264 137.445 184.612C137.445 184.612 137.691 183.018 137.467 182.33Z" fill="#313280"/>
    <path d="M121.474 287.527C120.005 287.186 118.855 286.534 118.855 286.534C118.855 286.534 122.674 260.874 122.689 260.845C121.474 257.39 117.206 244.929 116.664 239.365C116.931 235.685 117.814 228.94 117.814 228.94C117.814 228.94 120.924 228.991 120.938 229.02C120.938 229.02 119.152 234.301 120.078 240.59C121.011 246.878 125.503 261.157 125.741 262.475C125.966 263.75 120.164 280.558 121.474 287.527Z" fill="#26295E"/>
    <path d="M131.34 192.291C131.34 192.291 128.526 191.284 127.991 189.031C127.991 189.031 127.984 192.922 130.971 193.834L131.34 192.291Z" fill="#D88C71"/>
    <path d="M125.799 191.074L130.465 196.008L127.521 197.819L124.461 193.248L125.799 191.074Z" fill="#FFEFCA"/>
    <path d="M131.029 193.61L130.465 196.008L132.772 196.899L132.548 193.95L131.304 192.581L131.029 193.61Z" fill="#FFEFCA"/>
    <path d="M116.967 196.008C116.967 196.008 119.029 197.457 119.948 201.521C120.859 205.585 121.061 220.719 121.061 220.719L115.282 221.632C115.282 221.632 112.75 209.345 113.561 203.042C114.371 196.74 116.967 196.008 116.967 196.008Z" fill="#D86A7D"/>
    <path d="M163.68 226.196C163.644 225.964 163.412 225.479 163.203 224.935C162.993 224.392 162.298 223.972 161.604 223.559C160.91 223.146 157.134 223.356 157.134 223.356L157.047 223.443L146.826 218.176C143.781 217.973 140.844 221.632 140.844 221.632C142.306 223.182 151.137 225.182 154.581 225.913L156.497 227.536L160.085 228.673C160.085 228.673 160.295 228 160.085 227.688C159.875 227.377 158.226 226.797 157.944 226.384C157.662 225.978 157.713 225.638 159.289 225.616C160.866 225.594 160.946 226.275 161.38 226.587C161.821 226.899 162.074 227.934 162.855 228.065C163.629 228.195 163.629 228.195 163.629 228.195L163.449 227.007C163.434 227.007 163.716 226.428 163.68 226.196Z" fill="#FFB696"/>
    <path d="M121.061 220.711L133.315 227.398L130.472 230.665C130.472 230.665 119.383 227.412 117.235 225.688C115.087 223.964 115.289 221.624 115.289 221.624C115.289 221.624 118.32 220.204 121.061 220.711Z" fill="#FFB696"/>
    <path d="M117.198 233.606H190.906V230.665H117.198V233.606Z" fill="#FF8B9B"/>
    <path d="M188.375 198.818L182.993 222.305C182.827 223.037 182.176 223.558 181.431 223.558H144.266C143.246 223.558 142.479 222.616 142.696 221.609L147.695 198.123C147.796 197.637 148.114 197.239 148.534 197.036C148.534 197.029 148.534 197.029 148.534 197.029C148.758 196.913 149.011 196.848 149.271 196.848H186.805C187.839 196.848 188.606 197.811 188.375 198.818Z" fill="#9A7BF0"/>
    <path d="M180.288 223.558H144.266C143.246 223.558 142.479 222.617 142.696 221.61L147.695 198.123C147.796 197.637 148.114 197.239 148.534 197.036C148.707 197.333 159.015 215.64 180.288 223.558Z" fill="#836CD8"/>
    <path d="M170.841 212.286L174.393 230.665H156.165L156.772 229.195H164.114L161.669 212.286H170.841Z" fill="#5454C9"/>
    <path d="M132.447 227.543L139.167 227.007L142.031 229.137L142.414 230.658H130.465C130.465 230.665 131.116 228.34 132.447 227.543Z" fill="#FFB696"/>
    <path d="M184.36 233.606L176.469 299.032H152.613L161.423 233.606H184.36Z" fill="#D86A7D"/>
    <path d="M183.644 239.532L159.253 249.697L161.423 233.606H184.36L183.644 239.532Z" fill="#BA5B70"/>
    <path d="M143.564 257.202C143.564 257.202 140.389 266.511 138.913 273.806C137.937 278.638 137.597 281.42 137.474 282.76C136.664 282.362 135.774 281.761 134.877 280.899C134.877 280.899 137.742 261.432 140.534 257.933L129.749 242.93L129.228 239.271L143.564 257.202Z" fill="#26295E"/>
    <path d="M263.435 64.7012C263.435 64.7012 291.247 80.5884 327.059 86.4855C327.059 86.4855 297.192 65.8965 263.435 64.7012Z" fill="#4343AA"/>
    <path d="M329.619 135.922L329.583 139.53C329.583 139.53 324.621 142.015 323.189 142.638C321.757 143.261 321.446 144.231 322.451 144.579C323.456 144.927 335.977 145.028 336.165 144.579C336.672 143.413 334.849 139.573 334.849 139.573L334.538 135.922H329.619Z" fill="#313280"/>
    <path d="M357.185 134.922L359.095 138.03C359.095 138.03 356.766 141.443 355.63 142.167C354.957 142.602 353.2 142.841 352.737 143.565C352.274 144.29 352.737 144.84 355.681 144.876C358.625 144.913 359.399 144.862 361.106 143.674C362.813 142.486 366.068 139.537 366.017 138.704C365.967 137.878 363.637 135.922 363.637 135.922L362.654 133.684L357.185 134.922Z" fill="#313280"/>
    <path d="M342.56 82.8698C342.56 82.8698 342.097 97.9312 345.193 108.798C348.296 119.665 356.665 136.899 356.665 136.899L365.345 134.415C365.345 134.415 359.146 111.906 354.958 106.009C354.958 106.009 353.41 80.8631 351.703 77.4437C350.003 74.017 342.56 82.8698 342.56 82.8698Z" fill="#DD7385"/>
    <path d="M320.99 24.2547C324.433 20.9223 331.261 21.8496 332.317 25.8196C333.2 29.1448 333.004 32.7163 331.941 35.2882L333.663 39.7725L329.106 43.4745L327.254 40.0768C326.285 40.526 325.294 40.7868 324.397 40.8302C322.097 40.9461 320.469 37.773 319.522 32.2382C318.574 26.6961 320.99 24.2547 320.99 24.2547Z" fill="#FF9F7F"/>
    <path d="M326.473 82.7758C320.744 79.9794 312.983 76.5238 303.536 73.0681C300.903 72.1046 298.14 71.1411 295.254 70.192C282.458 65.9975 272.44 64.0414 265.496 63.1431C267.709 60.4409 269.981 57.8691 272.31 55.4712C282.965 44.474 294.777 37.0266 307.42 36.3818C308.136 36.9397 308.831 37.5265 309.504 38.135C310.646 39.1782 311.724 40.2939 312.722 41.4747C321.272 51.4505 325.258 66.2655 326.473 82.7758Z" fill="#D86A7D"/>
    <path d="M303.861 73.5757C313.214 64.165 311.03 45.5321 309.829 38.6426C320.614 48.4662 325.438 64.8171 326.798 83.2834C321.069 80.487 313.308 77.0313 303.861 73.5757Z" fill="#BA5B70"/>
    <path d="M342.386 44.3798C342.386 44.3798 349.807 53.1167 350.943 68.0839L335.796 73.8433C335.796 73.8433 326.241 58.1444 325.2 52.5589C324.158 46.9734 327.305 41.1488 327.305 41.1488L332.932 37.4033C332.932 37.3961 340.093 40.5982 342.386 44.3798Z" fill="#9A7BF0"/>
    <path d="M336.556 44.3944C338.314 45.8288 338.574 48.4224 337.128 50.1683C334.133 53.7833 329.193 59.5789 325.786 62.6579C320.599 67.3523 302.48 61.8465 302.48 61.8465L303.341 57.0868L321.901 56.9926L330.712 45.1261C332.093 43.2643 334.755 42.931 336.556 44.3944Z" fill="#5454C8"/>
    <path d="M319.16 27.7319C319.16 27.7319 318.567 24.8559 320.983 22.8129C323.399 20.7772 326.769 20.9511 328.382 21.5813C329.996 22.2116 330.343 22.4941 330.343 22.4941C330.343 22.4941 330.133 21.2988 331.392 20.4222C332.65 19.5456 335.283 21.2988 335.493 23.4432C335.703 25.5876 333.656 25.6238 333.656 25.6238C333.656 25.6238 334.061 27.5218 333.656 30.3979C333.25 33.274 331.934 35.288 331.934 35.288C331.934 35.288 330.299 34.4041 329.598 33.2088C329.598 33.2088 331.247 30.8905 330.683 29.3112C330.118 27.7319 328.368 28.3622 328.158 29.8763C327.948 31.3832 327.948 31.3832 327.948 31.3832L326.929 31.1369C326.929 31.1369 326.184 29.1736 326.466 26.9205C326.48 26.9278 319.652 28.9635 319.16 27.7319Z" fill="#313280"/>
    <path d="M321.793 41.0764C323.652 41.9892 326.263 41.5691 327.305 39.9173C328.346 38.2656 327.999 32.4047 327.999 32.4047L326.914 31.9121L325.793 34.8606C325.793 34.8606 321.251 34.1217 320.05 34.7882C320.043 34.7882 319.934 40.1636 321.793 41.0764Z" fill="#313280"/>
    <path d="M332.831 36.3311L327.305 41.1487L328.303 44.0537L334.697 38.2726L332.831 36.3311Z" fill="#5454C8"/>
    <path d="M303.341 57.0864L301.8 56.8908C301.8 56.8908 298.596 55.652 297.59 55.3912C296.585 55.1304 296.295 55.7172 296.476 56.2388C296.476 56.2388 295.934 56.8111 296.245 57.5862C296.245 57.5862 295.731 58.1223 296.151 58.8033C296.151 58.8033 295.97 59.4988 296.353 59.9262C296.744 60.3537 297.474 60.6434 297.887 60.7014C298.292 60.7593 298.523 60.7014 298.523 60.7014C298.523 60.7014 299.377 61.2085 300.151 61.2085C300.925 61.2085 301.511 60.9332 301.511 60.9332L302.596 61.2085L303.341 57.0864Z" fill="#FF9F7F"/>
    <path d="M350.943 68.0771L351.702 70.4461L336.824 76.191L335.796 73.8365L350.943 68.0771Z" fill="#5454C8"/>
    <path d="M351.703 70.4453L336.824 76.1902L324.925 101.568C323.948 103.647 323.587 105.965 323.876 108.24L327.522 136.885H335.797C335.797 136.885 336.824 130.213 336.513 120.121C336.325 114.057 335.081 109.348 334.111 106.552C335.066 105.342 349.453 87.0353 351.703 81.783C354.032 76.3496 351.703 70.4453 351.703 70.4453Z" fill="#FF8B9B"/>
    <path d="M425.634 300.111H430.596L361.258 147.237H369.316V144.26H307.109V147.237H316.824L331.29 179.671V179.823H331.363L339.457 197.971V198.333H339.623L347.623 216.27V216.843H347.876L355.782 234.57V235.352H356.13L363.949 252.87V253.862H364.39L372.115 271.169V272.372H372.65L380.282 289.469V290.882H380.911L385.019 300.089H389.981L385.801 290.882H421.519L425.634 300.111ZM370.647 176.853H334.082L327.037 161.313H363.717L370.647 176.853ZM357.439 147.237L362.394 158.336H325.692L320.657 147.237H357.439ZM371.97 179.823L378.9 195.363H342.473L335.428 179.823H371.97ZM380.231 198.34L387.16 213.88H350.871L343.826 198.34H380.231ZM388.491 216.85L395.421 232.389H359.269L352.224 216.85H388.491ZM396.752 235.36L403.681 250.899H367.667L360.621 235.36H396.752ZM405.012 253.877L411.942 269.416H376.065L369.019 253.877H405.012ZM384.455 287.926L377.41 272.386H413.265L420.195 287.926H384.455Z" fill="#D86A7D"/>
    <path d="M327.059 82.5365V86.4847C327.059 86.4847 311.717 77.2407 295.984 72.1333C280.245 67.0332 263.435 64.7004 263.435 64.7004L264.809 62.7372L265.496 61.7592C265.496 61.7592 278.386 61.2593 297.605 68.0764C316.824 74.8935 327.059 82.5365 327.059 82.5365Z" fill="#9A7BF0"/>
    <path d="M312.722 41.4747C309.8 39.7505 305.626 38.5552 300.165 39.9534C291.702 42.1267 279.037 50.6463 272.31 55.4712C282.964 44.474 294.776 37.0266 307.42 36.3818C308.136 36.9397 308.831 37.5265 309.503 38.135C310.646 39.1782 311.724 40.2939 312.722 41.4747Z" fill="#ED8EA3"/>
    <path d="M327.059 82.5366V86.4849C327.059 86.4849 311.717 77.2408 295.984 72.1335C280.245 67.0333 263.435 64.7006 263.435 64.7006L264.809 62.7373C267.652 62.7373 274.907 63.2227 286.639 67.1347C302.154 72.3073 323.854 82.312 327.059 82.5366Z" fill="#826ADB"/>
    <path d="M333.858 176.933H303.674V238.192H333.858V176.933Z" fill="#8CD3E8"/>
    <path d="M307.109 181.186H330.755" stroke="#5454C8" stroke-width="0.5" stroke-miterlimit="10"/>
    <path d="M333.858 238.192H303.674V176.933C303.674 176.933 312.448 222.957 333.858 238.192Z" fill="#71BBCC"/>
    <path d="M307.421 183.562H330.756" stroke="#5454C8" stroke-width="0.5" stroke-miterlimit="10"/>
    <path d="M307.109 227.405H330.755" stroke="#5454C8" stroke-width="0.5" stroke-miterlimit="10"/>
    <path d="M307.421 229.781H330.756" stroke="#5454C8" stroke-width="0.5" stroke-miterlimit="10"/>
    <path d="M307.109 232.39H330.755" stroke="#5454C8" stroke-width="0.5" stroke-miterlimit="10"/>
    <path d="M307.421 234.766H330.756" stroke="#5454C8" stroke-width="0.5" stroke-miterlimit="10"/>
    <path d="M323.775 197.254C323.052 191.357 317.265 187.524 317.265 187.524C317.265 187.524 311.479 191.357 310.755 197.254C310.032 203.151 314.01 217.857 314.01 217.857H317.265H320.52C320.52 217.864 324.499 203.158 323.775 197.254Z" stroke="white" stroke-width="0.5" stroke-miterlimit="10" stroke-linecap="round" stroke-linejoin="round" stroke-dasharray="1 1"/>
    <path d="M312.281 210.598C312.281 210.598 308.99 212.959 308.137 213.814C307.283 214.669 307.283 219.248 307.283 219.248L309.569 215.676L313.352 215.299" stroke="white" stroke-width="0.5" stroke-miterlimit="10" stroke-linecap="round" stroke-linejoin="round" stroke-dasharray="1 1"/>
    <path d="M322.263 210.598C322.263 210.598 325.554 212.959 326.408 213.814C327.262 214.669 327.262 219.248 327.262 219.248L324.976 215.676L321.186 215.299" stroke="white" stroke-width="0.5" stroke-miterlimit="10" stroke-linecap="round" stroke-linejoin="round" stroke-dasharray="1 1"/>
    <path d="M321.193 200.462C321.193 202.542 319.508 204.23 317.432 204.23C315.356 204.23 313.67 202.542 313.67 200.462C313.67 198.383 315.356 196.695 317.432 196.695C319.508 196.695 321.193 198.383 321.193 200.462Z" fill="#FFE98A"/>
    <path d="M330.755 186.72H323.001V189.168H330.755V186.72Z" fill="#FFE98A"/>
    <path d="M329.33 191.805C329.33 192.638 328.65 193.319 327.818 193.319C326.987 193.319 326.307 192.638 326.307 191.805C326.307 190.972 326.987 190.291 327.818 190.291C328.65 190.291 329.33 190.972 329.33 191.805Z" fill="white"/>
    <path d="M348.781 215.676C348.781 215.676 350.43 217.031 349.887 224.253C349.345 231.476 347.023 232.012 344.231 231.549L348.781 215.676Z" fill="#FFB696"/>
    <path d="M341.815 208.425L340.875 213.677L335.334 214.902L335.594 211.098C334.314 211.163 333.142 211.011 332.535 210.381C332.354 210.193 332.223 209.961 332.151 209.686C331.384 206.679 332.195 200.652 332.195 200.652C334.205 193.675 341.374 196.254 343.016 198.92C344.202 200.847 343.175 205.911 341.815 208.425Z" fill="#FFB696"/>
    <path d="M335.594 211.098C334.314 211.163 333.142 211.011 332.535 210.381C333.244 210.316 335.182 210.048 336.093 208.918C336.911 207.903 335.594 211.098 335.594 211.098Z" fill="#D88E75"/>
    <path d="M345.251 207.222C345.164 207.403 345.07 207.584 344.969 207.758C343.146 210.982 340.202 211.018 337.837 210.127C335.471 209.236 335.782 207.794 335.782 207.794C335.782 207.794 336.441 208.149 337.099 207.179C337.49 206.599 337.678 205.549 337.562 204.766C337.482 204.237 337.258 203.832 336.867 203.803C336.766 203.795 336.665 203.803 336.578 203.832C335.84 204.006 335.587 205.078 335.587 205.078C335.088 204.303 335.356 203.564 335.356 203.564C333.265 202.948 333.15 201.666 333.15 201.666L332.954 202.593C331.869 202.361 330.517 200.731 331.211 198.717C331.826 196.928 333.229 196.312 333.547 196.196C333.591 196.174 333.612 196.167 333.612 196.167C335.008 195.247 339.739 193.943 342.603 195.457C345.468 196.971 345.2 199.376 345.2 199.376C346.705 200.919 346.784 204.15 345.251 207.222Z" fill="#313280"/>
    <path d="M349.193 199.956C349.178 200.014 349.171 200.072 349.157 200.122C348.781 201.716 347.551 202.274 346.321 202.028C346.314 202.028 346.314 202.028 346.307 202.02C345.916 201.948 345.526 201.781 345.164 201.549C344.846 201.339 344.571 201.086 344.339 200.818C343.963 200.369 343.703 199.869 343.529 199.449C343.493 199.376 343.471 199.304 343.45 199.238C343.283 198.797 343.225 198.485 343.225 198.485C343.225 198.485 343.196 198.246 343.204 197.884C343.196 197.855 343.196 197.826 343.204 197.797C343.204 197.732 343.204 197.666 343.211 197.594C343.211 197.594 343.211 197.594 343.211 197.587C343.283 196.616 343.681 195.174 345.352 194.95C347.913 194.602 349.62 197.703 349.193 199.956Z" fill="#313280"/>
    <path d="M346.234 238.127L346.242 238.671C346.242 238.671 343.023 239.888 338.574 239.649C336.831 239.554 335.146 239.323 333.742 239.083C331.558 238.7 330.046 238.287 330.046 238.287L331.081 232.817L330.647 228.919C329.591 228.086 328.166 226.753 327.876 225.413C327.58 224.022 328.556 219.791 329.294 216.923L329.012 214.423C329.337 214.322 329.685 214.22 330.053 214.126C330.119 214.112 330.191 214.09 330.256 214.075C334.35 213.032 340.658 212.322 340.658 212.322C344.151 212.706 348.781 215.676 348.781 215.676C348.535 218.096 346.075 228.688 346.075 228.688L346.162 233.838L346.234 238.127Z" fill="#9A7BF0"/>
    <path d="M346.234 238.127L333.742 239.083C331.558 238.699 330.046 238.286 330.046 238.286L331.081 232.817L330.647 228.919C329.591 228.086 328.166 226.753 327.876 225.413C327.58 224.022 328.556 219.791 329.294 216.922L329.012 214.423C329.337 214.322 329.685 214.22 330.053 214.126C330.119 214.111 330.191 214.09 330.256 214.075C330.639 217.437 332.296 229.071 335.616 231.672C338.625 234.034 343.985 233.976 346.162 233.838L346.234 238.127Z" fill="#7961D1"/>
    <path d="M329.012 214.423L318.263 221.769L308.137 212.453L308.151 212.438C308.151 212.438 307.587 210.301 307.413 209.838C307.24 209.374 306.249 208.15 305.96 208.092C305.67 208.034 305.75 208.425 305.844 208.671C305.938 208.925 306.271 209.954 306.271 209.954L304.274 208.947C304.274 208.947 303.79 207.606 303.464 207.57C303.131 207.534 303.233 208.831 303.558 209.374C303.558 209.374 303.11 209.707 303.254 210.265C303.254 210.265 302.878 210.635 303.11 211.2C303.11 211.2 302.589 211.721 303.536 212.772C304.484 213.822 305.8 214.735 305.8 214.735C306.965 216.423 313.764 226.08 317.793 227.21C322.213 228.449 328.564 223.508 328.564 223.508C328.564 223.508 333.171 219.806 329.012 214.423Z" fill="#FFB696"/>
    <path d="M341.207 307.797C340.636 307.899 329.222 308.058 329.012 307.486C328.81 306.914 328.6 306.399 331.081 305.624C331.594 305.465 332.144 305.189 332.694 304.871C334.148 304.001 335.587 302.741 336.318 302.06L334.083 290.302L333.562 287.563H340.376C340.527 288.129 340.636 289.338 340.716 290.845C340.918 294.794 340.904 300.763 340.896 302.364C340.896 302.364 340.998 302.98 341.106 303.798C341.323 305.385 341.584 307.732 341.207 307.797Z" fill="#FFB696"/>
    <path d="M358.459 307.486C357.974 307.798 350.328 307.573 348.209 307.508C347.884 307.494 347.688 307.124 347.884 306.863C348.252 306.364 349.048 305.842 350.09 305.262C350.343 305.125 350.596 304.922 350.842 304.676C351.703 303.835 352.506 302.509 352.911 301.792L350.242 290.31H350.234L349.497 287.122L355.855 287.897C356.072 288.484 356.26 289.556 356.433 290.86C356.911 294.49 357.207 299.901 357.301 301.582L357.323 301.589C357.323 301.589 357.547 302.314 357.8 303.248C358.256 304.907 358.82 307.255 358.459 307.486Z" fill="#FFB696"/>
    <path d="M340.716 290.845C337.258 291.034 334.083 290.302 334.083 290.302L333.562 287.563H340.376C340.528 288.129 340.636 289.338 340.716 290.845Z" fill="#D88E75"/>
    <path d="M356.433 290.86C353.352 290.969 350.582 290.382 350.242 290.31H350.234L349.497 287.122L355.855 287.897C356.072 288.484 356.26 289.556 356.433 290.86Z" fill="#D88E75"/>
    <path d="M357.678 287.353C356.043 288.078 354.343 288.389 352.846 288.505C350.227 288.694 348.224 288.259 348.224 288.259L340.282 253.978L341.996 287.563C340.477 288.527 338.343 288.766 336.462 288.737C336.441 288.744 336.426 288.744 336.404 288.737C335.204 288.723 334.104 288.599 333.338 288.484C332.643 288.382 332.216 288.288 332.216 288.288C332.216 288.288 325.554 260.498 326.639 250.718C327.724 240.938 330.046 238.286 330.046 238.286C333.453 237.381 336.47 236.932 338.943 236.736C343.493 236.359 346.213 236.83 346.213 236.83C351.45 242.575 351.283 251.029 351.283 251.029L357.678 287.353Z" fill="#313280"/>
    <path d="M341.207 307.798C340.636 307.9 329.222 308.059 329.012 307.487C328.81 306.914 328.6 306.4 331.081 305.625C331.594 305.465 332.144 305.19 332.694 304.871C332.687 305.06 332.788 305.27 333.251 305.284C334.104 305.313 335.732 304.85 338.155 303.806C340.484 302.814 341.063 303.727 341.106 303.799C341.323 305.386 341.584 307.733 341.207 307.798Z" fill="#313280"/>
    <path d="M358.459 307.486C357.974 307.798 350.328 307.573 348.209 307.508C347.884 307.493 347.688 307.124 347.884 306.863C348.252 306.363 349.048 305.842 350.09 305.262C350.343 305.124 350.596 304.922 350.842 304.675C351.03 304.755 351.363 304.798 351.927 304.69C353.316 304.436 353.815 302.676 355.927 302.676C356.983 302.676 357.518 302.958 357.8 303.248C358.256 304.907 358.82 307.254 358.459 307.486Z" fill="#313280"/>
    <path d="M352.846 288.505C350.228 288.694 348.224 288.259 348.224 288.259L340.282 253.978L345.967 249.696C345.967 249.696 345.367 261.186 347.117 270.292C348.564 277.834 351.783 285.941 352.846 288.505Z" fill="#26295E"/>
    <path d="M331.095 252.855C329.656 267.424 336.303 288.252 336.462 288.738C336.462 288.745 336.462 288.745 336.462 288.745L336.404 288.738L333.338 288.484C332.643 288.383 332.216 288.288 332.216 288.288C332.216 288.288 325.555 260.498 326.639 250.718C327.724 240.938 330.046 238.287 330.046 238.287C333.453 237.381 336.47 236.932 338.943 236.736C336.665 238.04 332.166 241.96 331.095 252.855Z" fill="#26295E"/>
    <path d="M318.364 222.189L317.265 224.928C317.265 224.928 316.39 222.494 318.364 222.189Z" fill="#D88E75"/>
    <path d="M336.101 227.405H345.417C345.417 227.405 345.554 228.999 341.518 228.999C337.489 228.999 336.101 227.405 336.101 227.405Z" fill="#7961D1"/>
    <path d="M335.587 205.078C335.088 204.303 335.356 203.564 335.356 203.564C333.265 202.948 333.15 201.666 333.15 201.666L332.954 202.593C331.869 202.361 330.517 200.731 331.211 198.717C331.826 196.928 333.229 196.312 333.547 196.196C333.67 197.5 334.198 201.217 336.578 203.832C335.84 204.006 335.587 205.078 335.587 205.078Z" fill="#26295E"/>
    <path d="M345.251 207.222C345.164 207.404 345.07 207.585 344.969 207.759C343.146 210.982 340.202 211.019 337.837 210.128C335.471 209.236 335.783 207.795 335.783 207.795C335.783 207.795 336.441 208.15 337.099 207.179C337.49 206.599 337.678 205.549 337.562 204.767C338.256 205.324 339.074 205.788 340.028 206.107C342.43 206.918 344.101 207.194 345.251 207.222Z" fill="#26295E"/>
    <path d="M349.157 200.122C348.781 201.716 347.551 202.274 346.321 202.027C346.314 202.027 346.314 202.027 346.307 202.02C345.425 201.767 344.788 201.325 344.339 200.818C343.949 200.383 343.696 199.905 343.529 199.448C343.493 199.376 343.472 199.304 343.45 199.238C343.276 198.688 343.218 198.188 343.204 197.884C343.197 197.855 343.197 197.826 343.204 197.797C343.189 197.645 343.197 197.558 343.197 197.558C343.204 197.565 343.204 197.579 343.211 197.587C343.211 197.594 343.211 197.594 343.211 197.594C344.289 199.992 347.746 200.158 349.157 200.122Z" fill="#26295E"/>
    <path d="M162.641 86.8325C190.794 83.9862 218.211 89.9986 243.543 102.421C250.15 105.662 256.316 109.703 262.988 112.786C263.969 113.24 260.396 108.093 259.579 106.834C252.918 96.5772 258.714 108.44 261.508 112.832C266.548 120.756 263.368 117.5 257.729 116.273C254.701 115.614 240.092 115.335 248.369 119.161C252.878 121.245 261.595 123.564 260.997 115.514C260.724 111.829 261.007 106.454 259.92 102.939C258.345 97.8436 259.505 111.274 261.23 113.433" stroke="#363636" stroke-width="3" stroke-linecap="round" stroke-linejoin="round"/>
  </g>
  <path d="M1.63641 79.92C1.95641 79.92 2.16307 80.0867 2.25641 80.42L2.13641 81.6V81.98C2.46974 84.74 2.67641 86.8867 2.75641 88.42C2.90307 89.8467 3.05641 90.56 3.21641 90.56C3.21641 90.84 2.98307 91.02 2.51641 91.1C1.84974 91.1 1.51641 89.7533 1.51641 87.06L0.956406 81.86V81.68C0.956406 80.5067 1.18307 79.92 1.63641 79.92ZM8.03156 84.26C9.1649 84.3533 9.73156 84.9067 9.73156 85.92L9.77156 86.18L9.73156 89.3C9.73156 89.66 9.93823 90.1467 10.3516 90.76V90.8C10.2449 91.1867 10.0516 91.38 9.77156 91.38C8.9449 91.0333 8.53156 90.3 8.53156 89.18V88.92L8.47156 88.88L8.53156 88.8V88.76L8.59156 86C8.59156 85.6133 8.4249 85.42 8.09156 85.42H7.85156C7.1849 85.6867 6.85156 87.1467 6.85156 89.8C6.85156 90.72 6.61823 91.18 6.15156 91.18C5.79156 91.18 5.6049 90.9533 5.59156 90.5V88.5C5.59156 85.9133 5.81823 84.62 6.27156 84.62L6.47156 84.56L6.89156 84.62C7.25156 84.38 7.63156 84.26 8.03156 84.26ZM16.1984 82.9C16.5584 82.9 16.8051 83.5067 16.9384 84.72C16.8051 85.0533 16.5851 85.22 16.2784 85.22C16.0651 85.18 15.8518 84.9333 15.6384 84.48L15.2784 84.36C14.6518 84.36 14.0851 84.7733 13.5784 85.6V85.78C13.5784 85.98 14.5184 86.3133 16.3984 86.78C17.1851 87.2467 17.5784 87.8133 17.5784 88.48C17.5784 89.5733 16.6984 90.5067 14.9384 91.28L14.1984 91.4C13.0784 91.28 12.5184 90.72 12.5184 89.72V89.66C12.5184 89.34 12.7251 89.1533 13.1384 89.1C13.4584 89.1 13.6718 89.4333 13.7784 90.1L13.9384 90.22H14.2784C15.0384 90.22 15.7451 89.7 16.3984 88.66V88.4C16.3984 88 15.5251 87.6267 13.7784 87.28C12.8584 86.9067 12.3984 86.3867 12.3984 85.72C12.3984 84.8533 13.1251 84.04 14.5784 83.28C15.2184 83.2 15.7584 83.0733 16.1984 82.9ZM21.3113 83.82C21.8446 83.8333 22.7446 84.7667 24.0113 86.62L24.0513 86.96C24.0513 87.3333 23.1379 87.62 21.3113 87.82L21.2513 87.88V87.96C21.5313 89.16 21.8246 89.76 22.1313 89.76H22.3713C22.7979 89.76 23.4446 89.3 24.3113 88.38H24.4313C24.6979 88.38 24.9046 88.5733 25.0513 88.96C25.0513 89.28 24.4913 89.8333 23.3713 90.62C23.0779 90.7933 22.7246 90.92 22.3113 91C21.2313 91 20.4779 89.9867 20.0513 87.96C19.4379 87.8667 19.1313 87.6133 19.1313 87.2C19.1313 86.9067 19.3579 86.7133 19.8113 86.62V86.7L20.0113 86.62V86.12C20.0113 84.5867 20.4446 83.82 21.3113 83.82ZM21.4313 85.26H21.2513L21.1713 86V86.62H21.2513C21.9979 86.5933 22.3713 86.5133 22.3713 86.38C22.0246 85.86 21.7113 85.4867 21.4313 85.26ZM29.6598 83.12C30.4998 83.12 30.9998 83.7067 31.1598 84.88V85.06C31.1598 86.3533 30.4932 87.54 29.1598 88.62C29.9332 89.38 31.2865 89.76 33.2198 89.76C33.5132 89.8533 33.6598 90.06 33.6598 90.38C33.6598 90.74 33.4265 90.92 32.9598 90.92C31.6532 90.92 30.2798 90.5867 28.8398 89.92V90.5C28.8398 91.8733 28.5465 92.56 27.9598 92.56C27.5465 92.56 27.3398 91.7667 27.3398 90.18V88.62L27.2798 88.06L27.4198 87.42L27.2798 85.5V85.42C27.2798 85.06 27.4665 84.8133 27.8398 84.68C28.3598 83.64 28.9665 83.12 29.6598 83.12ZM28.6598 87.5C29.0465 87.5 29.4798 86.8067 29.9598 85.42V84.56L29.7198 84.3H29.5398C28.9532 84.7 28.6598 85.7667 28.6598 87.5ZM37.8845 78.86C38.2579 78.94 38.4445 79.1267 38.4445 79.42L38.3245 80.3V80.56C38.3245 81.1467 38.3912 81.7667 38.5245 82.42H38.5645C40.1112 81.9533 41.0712 81.72 41.4445 81.72C41.8312 81.8267 42.0245 82.02 42.0245 82.3C42.0245 82.7533 41.5645 82.98 40.6445 82.98L38.5645 83.72C38.5645 85.52 38.7579 87.9667 39.1445 91.06C39.0645 91.42 38.8712 91.6 38.5645 91.6H38.5245C38.0579 91.6 37.8245 91 37.8245 89.8C37.6512 88.9067 37.5045 86.9667 37.3845 83.98H37.0245C35.7712 83.9 35.1445 83.6067 35.1445 83.1C35.1445 82.9533 35.2845 82.7733 35.5645 82.56H35.7645L36.6845 82.8H37.3245L37.1445 80.3C37.1445 79.34 37.3912 78.86 37.8845 78.86ZM53.213 85C53.6796 85 53.9996 86.0267 54.173 88.08C54.3996 89.0267 54.5663 89.5 54.673 89.5H54.793C55.1263 88.66 55.293 87.8267 55.293 87L55.173 85.62C55.3196 85.26 55.5263 85.08 55.793 85.08C56.2863 85.08 56.533 85.9533 56.533 87.7C56.8263 89.5133 56.973 91.2 56.973 92.76V93.7C56.973 96.5667 56.1596 98.5 54.533 99.5L54.093 99.58C53.333 99.58 52.6263 98.8733 51.973 97.46L51.793 96.26V96.2C51.793 95.32 52.0396 94.88 52.533 94.88L53.033 95.2L52.973 96.46C52.973 97.0733 53.2863 97.6933 53.913 98.32H54.173C54.9063 98.32 55.4463 96.92 55.793 94.12L55.833 92.96C55.8196 91.6133 55.7663 90.7533 55.673 90.38C55.1396 90.8467 54.7196 91.08 54.413 91.08C53.733 91.08 53.1263 89.26 52.593 85.62L52.533 85.58C52.533 85.2733 52.7596 85.08 53.213 85ZM62.2659 83.46C63.2526 83.46 63.9993 84.1933 64.5059 85.66L64.5859 86.08C64.5859 87.5067 63.9193 88.9667 62.5859 90.46C62.0526 90.9533 61.5126 91.2 60.9659 91.2C60.1659 91.2 59.5993 90.74 59.2659 89.82C59.1459 89.3933 59.0859 89.02 59.0859 88.7V88.46C59.0859 86.3533 59.8526 84.7533 61.3859 83.66C61.6526 83.5267 61.9459 83.46 62.2659 83.46ZM60.2659 88.66C60.2659 89.5667 60.4993 90.02 60.9659 90.02C61.9393 90.02 62.7459 88.7733 63.3859 86.28V85.9C63.1593 85.0733 62.7393 84.66 62.1259 84.66C61.8859 84.66 61.7659 84.8267 61.7659 85.16C61.7659 85.3867 61.4993 85.5667 60.9659 85.7C60.4993 86.4867 60.2659 87.4733 60.2659 88.66ZM67.4722 84.98L67.8322 84.78C68.1522 84.78 68.3855 84.9733 68.5322 85.36C68.3189 86.3467 68.2122 87.36 68.2122 88.4C68.2122 88.92 68.3655 89.4867 68.6722 90.1H68.7922C69.1789 90.1 69.6389 88.5733 70.1722 85.52C70.3589 85.36 70.5389 85.28 70.7122 85.28C71.1255 85.28 71.3322 86.0133 71.3322 87.48C71.5055 89.0933 71.6989 89.9 71.9122 89.9L72.2122 89.78C72.5989 89.9267 72.7922 90.1333 72.7922 90.4C72.5522 90.9067 72.2189 91.16 71.7922 91.16C71.3122 91.16 70.8522 90.68 70.4122 89.72C69.8789 90.84 69.3389 91.4 68.7922 91.4C67.9789 91.4 67.4122 90.5533 67.0922 88.86L67.0322 88.22V88.02C67.0322 86.9533 67.1789 85.94 67.4722 84.98ZM77.0552 83.12C77.8952 83.12 78.3952 83.7067 78.5552 84.88V85.06C78.5552 86.3533 77.8885 87.54 76.5552 88.62C77.3285 89.38 78.6818 89.76 80.6152 89.76C80.9085 89.8533 81.0552 90.06 81.0552 90.38C81.0552 90.74 80.8218 90.92 80.3552 90.92C79.0485 90.92 77.6752 90.5867 76.2352 89.92V90.5C76.2352 91.8733 75.9418 92.56 75.3552 92.56C74.9418 92.56 74.7352 91.7667 74.7352 90.18V88.62L74.6752 88.06L74.8152 87.42L74.6752 85.5V85.42C74.6752 85.06 74.8618 84.8133 75.2352 84.68C75.7552 83.64 76.3618 83.12 77.0552 83.12ZM76.0552 87.5C76.4418 87.5 76.8752 86.8067 77.3552 85.42V84.56L77.1152 84.3H76.9352C76.3485 84.7 76.0552 85.7667 76.0552 87.5ZM91.8989 80.58C92.4056 80.6867 92.6589 80.9133 92.6589 81.26C92.5256 81.6333 92.3122 81.82 92.0189 81.82C91.5256 81.7267 91.2789 81.48 91.2789 81.08C91.4122 80.7467 91.6189 80.58 91.8989 80.58ZM92.6589 83.38C92.8722 83.38 93.0522 83.5733 93.1989 83.96L93.0189 85.38V86.32C93.0189 87.4133 93.2056 88.8467 93.5789 90.62C93.4456 90.8733 93.2189 91 92.8989 91C92.3522 91 91.9922 89.4 91.8189 86.2V85.5C91.8189 84.0867 92.0989 83.38 92.6589 83.38ZM100.508 80.02C100.735 80.02 100.941 80.2333 101.128 80.66L100.248 86.22V87.78C100.248 89.4067 100.501 90.22 101.008 90.22C101.341 90.38 101.508 90.5933 101.508 90.86C101.508 91.1667 101.241 91.3467 100.708 91.4C100.121 91.4 99.6615 90.86 99.3281 89.78H99.1281C98.6348 90.86 98.0348 91.4 97.3281 91.4C96.5015 91.4 96.0015 90.7733 95.8281 89.52C95.8281 88.0667 96.8015 86.5267 98.7481 84.9C99.1348 84.9 99.3281 84.36 99.3281 83.28C99.6215 81.1067 100.015 80.02 100.508 80.02ZM97.0081 89.36V89.9L97.3281 90.22H97.4481C97.8748 90.22 98.3748 88.9333 98.9481 86.36H98.8281C97.6148 87.5733 97.0081 88.5733 97.0081 89.36ZM105.214 83.82C105.748 83.8333 106.648 84.7667 107.914 86.62L107.954 86.96C107.954 87.3333 107.041 87.62 105.214 87.82L105.154 87.88V87.96C105.434 89.16 105.728 89.76 106.034 89.76H106.274C106.701 89.76 107.348 89.3 108.214 88.38H108.334C108.601 88.38 108.808 88.5733 108.954 88.96C108.954 89.28 108.394 89.8333 107.274 90.62C106.981 90.7933 106.628 90.92 106.214 91C105.134 91 104.381 89.9867 103.954 87.96C103.341 87.8667 103.034 87.6133 103.034 87.2C103.034 86.9067 103.261 86.7133 103.714 86.62V86.7L103.914 86.62V86.12C103.914 84.5867 104.348 83.82 105.214 83.82ZM105.334 85.26H105.154L105.074 86V86.62H105.154C105.901 86.5933 106.274 86.5133 106.274 86.38C105.928 85.86 105.614 85.4867 105.334 85.26ZM114.663 83.28C115.25 83.28 115.543 83.5133 115.543 83.98L115.363 84.36L115.243 88.02C115.243 89.6733 115.576 90.7 116.243 91.1L116.283 91.4C116.243 91.7867 116.063 91.98 115.743 91.98H115.623C114.623 91.3 114.123 90.26 114.123 88.86H113.983C113.45 90.3533 112.803 91.1 112.043 91.1C111.336 90.9 110.983 90.3733 110.983 89.52C110.983 87.64 111.736 85.7667 113.243 83.9C113.75 83.4867 114.223 83.28 114.663 83.28ZM112.243 88.72L112.163 89.28V89.66H112.363C113.363 87.1667 113.863 85.6467 113.863 85.1H113.783C113.01 85.9667 112.496 87.1733 112.243 88.72ZM127.542 79.96C127.915 79.96 128.102 80.4133 128.102 81.32L128.342 84.76H128.422L129.422 84.38C130.542 84.38 131.222 85.5267 131.462 87.82C131.555 88.4733 131.602 89.4333 131.602 90.7V92.32C131.602 92.8267 131.415 93.08 131.042 93.08H130.962C130.602 93.0267 130.422 92.8333 130.422 92.5V90.62C130.422 87.6067 130.129 85.94 129.542 85.62H129.422C129.022 85.62 128.729 86.2333 128.542 87.46V88.58C128.542 90.58 128.375 91.58 128.042 91.58L127.662 91.62C127.289 91.62 127.102 91.0667 127.102 89.96C127.142 88.7867 127.222 87.8267 127.342 87.08L126.922 80.5C126.922 80.1533 127.129 79.9733 127.542 79.96ZM135.542 83.82C136.075 83.8333 136.975 84.7667 138.242 86.62L138.282 86.96C138.282 87.3333 137.368 87.62 135.542 87.82L135.482 87.88V87.96C135.762 89.16 136.055 89.76 136.362 89.76H136.602C137.028 89.76 137.675 89.3 138.542 88.38H138.662C138.928 88.38 139.135 88.5733 139.282 88.96C139.282 89.28 138.722 89.8333 137.602 90.62C137.308 90.7933 136.955 90.92 136.542 91C135.462 91 134.708 89.9867 134.282 87.96C133.668 87.8667 133.362 87.6133 133.362 87.2C133.362 86.9067 133.588 86.7133 134.042 86.62V86.7L134.242 86.62V86.12C134.242 84.5867 134.675 83.82 135.542 83.82ZM135.662 85.26H135.482L135.402 86V86.62H135.482C136.228 86.5933 136.602 86.5133 136.602 86.38C136.255 85.86 135.942 85.4867 135.662 85.26ZM143.89 83.12C144.73 83.12 145.23 83.7067 145.39 84.88V85.06C145.39 86.3533 144.724 87.54 143.39 88.62C144.164 89.38 145.517 89.76 147.45 89.76C147.744 89.8533 147.89 90.06 147.89 90.38C147.89 90.74 147.657 90.92 147.19 90.92C145.884 90.92 144.51 90.5867 143.07 89.92V90.5C143.07 91.8733 142.777 92.56 142.19 92.56C141.777 92.56 141.57 91.7667 141.57 90.18V88.62L141.51 88.06L141.65 87.42L141.51 85.5V85.42C141.51 85.06 141.697 84.8133 142.07 84.68C142.59 83.64 143.197 83.12 143.89 83.12ZM142.89 87.5C143.277 87.5 143.71 86.8067 144.19 85.42V84.56L143.95 84.3H143.77C143.184 84.7 142.89 85.7667 142.89 87.5ZM151.555 83.82C152.088 83.8333 152.988 84.7667 154.255 86.62L154.295 86.96C154.295 87.3333 153.382 87.62 151.555 87.82L151.495 87.88V87.96C151.775 89.16 152.068 89.76 152.375 89.76H152.615C153.042 89.76 153.688 89.3 154.555 88.38H154.675C154.942 88.38 155.148 88.5733 155.295 88.96C155.295 89.28 154.735 89.8333 153.615 90.62C153.322 90.7933 152.968 90.92 152.555 91C151.475 91 150.722 89.9867 150.295 87.96C149.682 87.8667 149.375 87.6133 149.375 87.2C149.375 86.9067 149.602 86.7133 150.055 86.62V86.7L150.255 86.62V86.12C150.255 84.5867 150.688 83.82 151.555 83.82ZM151.675 85.26H151.495L151.415 86V86.62H151.495C152.242 86.5933 152.615 86.5133 152.615 86.38C152.268 85.86 151.955 85.4867 151.675 85.26Z" fill="#363636"/>
  <defs>
    <clipPath id="clip0">
      <rect width="341" height="312" fill="white" transform="translate(99)"/>
    </clipPath>
  </defs>
</svg>
