<svg width="50" height="50" viewBox="0 0 50 50" fill="none" xmlns="http://www.w3.org/2000/svg">
<path d="M32.9839 3C27.3238 3.10547 23.7456 5.59766 22.1558 9.26562C20.6402 12.7539 20.8706 17.1406 21.9371 21.582C21.7613 21.707 21.6558 21.7188 21.4839 21.9492C21.0972 22.4531 20.898 23.2188 21.0074 24.1211C21.1831 25.5664 21.5308 26.668 21.9878 27.4805C22.3042 28.0352 22.7144 28.4258 23.2027 28.6914C23.6441 31.1055 24.9292 33.1445 25.9996 34.3125V41.3555L15.5855 46.0898C15.2535 46.2344 15.023 46.5469 14.9878 46.9062C14.9488 47.2656 15.1089 47.6172 15.4058 47.8242C15.7027 48.0352 16.0855 48.0664 16.4136 47.9102L27.9996 42.6445V33.5859L27.7066 33.293C26.8863 32.4727 25.2222 30.0234 24.9956 27.8945L24.9058 27.0703L24.0816 27.0039C24.2847 27.0195 24.0113 26.9961 23.73 26.4961C23.4449 25.9922 23.1402 25.125 22.9917 23.8789C22.9253 23.3359 23.0191 23.2305 23.0738 23.1602C23.1246 23.0898 23.23 23.0312 23.5191 22.8555L24.1558 22.4688L23.9683 21.75C22.8199 17.3281 22.6831 13.0742 23.9878 10.0625C25.2964 7.05469 27.8941 5.09766 33.0035 5C34.1558 5.00391 35.3003 5.34766 36.2339 5.84766C37.1636 6.34766 37.8667 7.02734 38.1285 7.49219L38.3746 7.92188L38.8628 7.99219C40.605 8.23047 41.605 8.92188 42.2847 9.89844C42.9644 10.8711 43.3042 12.2031 43.3746 13.6758C43.523 16.625 42.5972 20.0352 42.0503 21.6836L41.7964 22.4414L42.48 22.8555C42.7691 23.0273 42.8746 23.0898 42.9253 23.1602C42.98 23.2305 43.0738 23.3359 43.0074 23.8789C42.8589 25.125 42.5542 25.9922 42.2691 26.4961C41.9878 26.9961 41.7144 27.0195 41.9175 27.0039L41.0933 27.0703L41.0035 27.8906C40.7769 30.0195 39.1128 32.4727 38.2925 33.293L37.9996 33.5859V42.6172L48.5503 47.8945C49.0464 48.1406 49.648 47.9414 49.8941 47.4492C50.1402 46.9531 49.941 46.3516 49.4488 46.1055L39.9996 41.3828V34.3125C41.0738 33.1406 42.355 31.1016 42.7964 28.6914C43.2847 28.4258 43.6949 28.0352 44.0113 27.4805C44.4722 26.668 44.8199 25.5664 44.9917 24.1211C45.1011 23.2188 44.9019 22.4531 44.5152 21.9492C44.3667 21.75 44.2808 21.7539 44.1285 21.6367C44.7222 19.7461 45.5308 16.6914 45.3746 13.5781C45.2886 11.8672 44.9058 10.1562 43.9214 8.75C43.0152 7.45312 41.5152 6.54297 39.5816 6.16016C39.0191 5.35937 38.2183 4.64453 37.1832 4.08594C35.9878 3.44531 34.5425 3 32.9996 3H32.9839ZM13.566 3.20312C12.5699 3.21484 11.5582 3.32031 10.5542 3.51953C6.54253 4.32031 2.66753 6.83594 1.05034 11.6836C-0.898881 17.5312 1.25346 22.3633 3.81987 26.0078C3.3394 26.8828 2.65581 27.9688 1.98393 28.9531C1.59331 29.5195 1.23393 30.0352 0.968306 30.4258C0.831587 30.6211 0.722212 30.7852 0.632369 30.9219C0.589401 30.9922 0.554245 31.0508 0.515182 31.125C0.495651 31.1602 0.47612 31.1992 0.448776 31.2617C0.421431 31.3203 0.362838 31.3633 0.362838 31.6719L0.546432 32.25C0.546432 32.2539 0.651901 32.3789 0.702682 32.4219C0.749557 32.4688 0.796431 32.5 0.835494 32.5273C0.999556 32.6289 1.0894 32.6406 1.15581 32.6562C1.29253 32.6875 1.34721 32.6836 1.40581 32.6875C1.51518 32.6875 1.60112 32.6836 1.70268 32.6719C1.90581 32.6562 2.15581 32.6172 2.45659 32.5625C3.06206 32.4492 3.87065 32.2578 4.74956 31.9609C6.30815 31.4336 8.04253 30.5039 9.28862 29.0586C9.85112 29.2383 10.8355 29.582 12.5933 29.6758C14.6871 29.793 17.3394 29.4961 19.5972 27.8008C20.0425 27.4688 20.1324 26.8438 19.8003 26.4023C19.4683 25.957 18.8433 25.8672 18.4019 26.1992C16.6597 27.5039 14.5113 27.7773 12.7027 27.6797C10.898 27.582 9.44487 27.0977 9.33549 27.0586L8.60112 26.7969L8.16753 27.4453C7.38628 28.6211 5.66362 29.543 4.10893 30.0664C3.89018 30.1406 3.74956 30.1562 3.53862 30.2188C3.57768 30.1641 3.59721 30.1328 3.63237 30.082C4.42143 28.9258 5.3394 27.5547 5.89409 26.4492L6.16753 25.8984L5.80424 25.4062C3.23003 21.9297 1.1519 17.7109 2.94878 12.3164C4.33159 8.16406 7.45659 6.17969 10.9449 5.48047C14.4332 4.78125 18.2652 5.52344 20.4839 6.85938C20.7925 7.05469 21.1831 7.07031 21.5035 6.89844C21.8277 6.72266 22.0269 6.38672 22.0308 6.02344C22.0308 5.65625 21.8316 5.32031 21.5152 5.14062C19.4292 3.89453 16.5621 3.15625 13.566 3.20312ZM33.0347 11C32.5972 10.9844 32.1988 11.2578 32.0542 11.6719L28.6206 21.5898C28.5933 21.6445 28.5738 21.707 28.5621 21.7656L27.0542 26.1172C26.8746 26.6406 27.1519 27.207 27.6714 27.3906C28.1949 27.5703 28.7652 27.293 28.9449 26.7695L30.2496 23H35.7496L37.0542 26.7695C37.2339 27.293 37.8042 27.5703 38.3277 27.3906C38.8472 27.207 39.1246 26.6406 38.9449 26.1172L33.9449 11.6719C33.8121 11.2812 33.4488 11.0156 33.0347 11ZM32.9996 15.0586L35.0582 21H30.941L32.9996 15.0586Z" fill="#363636"/>
<path d="M11.9375 10C11.9297 9.44922 12.3711 8.99219 12.9219 8.98438C13.1914 8.98438 13.4531 9.08984 13.6445 9.27734C13.832 9.46875 13.9375 9.73047 13.9375 10V12.4336H16.832C16.8906 12.4219 16.9453 12.418 17.0039 12.418C17.0586 12.418 17.1172 12.4219 17.1719 12.4336H18.8125C19.1719 12.4258 19.5078 12.6172 19.6875 12.9258C19.8711 13.2383 19.8711 13.625 19.6875 13.9375C19.5078 14.2461 19.1719 14.4375 18.8125 14.4336H17.875C17.7383 15.1602 17.4648 16.1953 16.8437 17.3555C16.4023 18.1797 15.7773 19.0586 14.9336 19.9102C15.4297 20.332 15.9648 20.7617 16.5664 21.1758C16.875 21.375 17.0508 21.7266 17.0234 22.0898C17 22.4531 16.7773 22.7734 16.4453 22.9258C16.1133 23.0781 15.7266 23.0391 15.4336 22.8242C14.6719 22.2969 14 21.7539 13.3906 21.2227C12.2891 22.0195 10.9492 22.75 9.28906 23.3164C8.94531 23.4492 8.5625 23.3867 8.28125 23.1484C8 22.9102 7.875 22.5391 7.94922 22.1797C8.02344 21.8203 8.28906 21.5352 8.64062 21.4258C9.96875 20.9727 11.0391 20.4219 11.9219 19.8281C10.6797 18.5469 10.0039 17.5703 10.0039 17.5703C9.78906 17.2656 9.76172 16.8711 9.92969 16.5391C10.0977 16.2109 10.4375 16 10.8086 15.9961C11.1484 15.9883 11.4648 16.1562 11.6562 16.4375C11.6562 16.4375 12.293 17.3594 13.4687 18.5586C14.1953 17.8359 14.7148 17.0938 15.082 16.4062C15.5 15.6289 15.7148 14.9531 15.8398 14.4336H7.96875C7.60547 14.4375 7.26953 14.2461 7.08984 13.9375C6.90625 13.625 6.90625 13.2383 7.08984 12.9258C7.26953 12.6172 7.60547 12.4258 7.96875 12.4336H11.9375V10Z" fill="url(#paint0_linear_786_3752)"/>
<path fill-rule="evenodd" clip-rule="evenodd" d="M33.0352 11.0006C32.5977 10.985 32.1993 11.2584 32.0547 11.6725L28.6211 21.5905C28.5938 21.6452 28.5743 21.7077 28.5626 21.7663L27.0547 26.1178C26.8751 26.6413 27.1524 27.2077 27.6719 27.3913C28.1954 27.5709 28.7657 27.2936 28.9454 26.7702L30.2501 23.0006H35.7501L37.0547 26.7702C37.2344 27.2936 37.8047 27.5709 38.3282 27.3913C38.8477 27.2077 39.1251 26.6413 38.9454 26.1178L33.9454 11.6725C33.8126 11.2819 33.4493 11.0163 33.0352 11.0006ZM33 15.0592L35.0586 21.0006H30.9414L33 15.0592Z" fill="url(#paint1_linear_786_3752)"/>
<defs>
<linearGradient id="paint0_linear_786_3752" x1="6.91377" y1="17.7419" x2="19.3212" y2="12.8668" gradientUnits="userSpaceOnUse">
<stop stop-color="#6B67E9"/>
<stop offset="1" stop-color="#8224E3"/>
</linearGradient>
<linearGradient id="paint1_linear_786_3752" x1="26.9642" y1="21.0014" x2="39.0707" y2="17.1186" gradientUnits="userSpaceOnUse">
<stop stop-color="#6B67E9"/>
<stop offset="1" stop-color="#8224E3"/>
</linearGradient>
</defs>
</svg>
