<svg width="50" height="50" viewBox="0 0 50 50" fill="none" xmlns="http://www.w3.org/2000/svg">
<path d="M8 8C5.80267 8 4 9.80267 4 12V34C4 34.7307 4.21365 35.4084 4.56055 36H2C1.73479 36 1.48045 36.1054 1.29292 36.2929C1.10539 36.4805 1.00003 36.7348 1 37C1 39.7495 3.25048 42 6 42H44C46.7495 42 49 39.7495 49 37C49 36.7348 48.8946 36.4805 48.7071 36.2929C48.5195 36.1054 48.2652 36 48 36H45.4395C45.7864 35.4084 46 34.7307 46 34V12C46 9.80267 44.1973 8 42 8H8ZM8 10H42C43.1167 10 44 10.8833 44 12V34C44 35.1167 43.1167 36 42 36H8C6.88333 36 6 35.1167 6 34V12C6 10.8833 6.88333 10 8 10ZM22 13V14V33H28V13H22ZM24 15H26V31H24V15ZM30 17V18V33H36V17H30ZM32 19H34V31H32V19ZM3.41211 38H8H42H46.5879C46.1508 39.1125 45.2759 40 44 40H6C4.72415 40 3.8492 39.1125 3.41211 38Z" fill="#363636"/>
<path fill-rule="evenodd" clip-rule="evenodd" d="M14 22V23V33H20V22H14ZM18 24H16V31H18V24Z" fill="url(#paint0_linear_786_1103)"/>
<defs>
<linearGradient id="paint0_linear_786_1103" x1="13.9821" y1="28.6895" x2="20.295" y2="27.176" gradientUnits="userSpaceOnUse">
<stop stop-color="#6B67E9"/>
<stop offset="1" stop-color="#8224E3"/>
</linearGradient>
</defs>
</svg>
