<svg id="full" style="fill: var(--primaryColor, #363636);" width="30" height="26" viewBox="0 0 30 26" fill="none" xmlns="http://www.w3.org/2000/svg">
  <path d="M27.1875 13H22.5V9.28571C22.5 7.23705 24.1816 5.57143 26.25 5.57143H26.7188C27.498 5.57143 28.125 4.95045 28.125 4.17857V1.39286C28.125 0.620982 27.498 0 26.7188 0H26.25C21.0703 0 16.875 4.15536 16.875 9.28571V23.2143C16.875 24.7522 18.1348 26 19.6875 26H27.1875C28.7402 26 30 24.7522 30 23.2143V15.7857C30 14.2478 28.7402 13 27.1875 13ZM10.3125 13H5.625V9.28571C5.625 7.23705 7.30664 5.57143 9.375 5.57143H9.84375C10.623 5.57143 11.25 4.95045 11.25 4.17857V1.39286C11.25 0.620982 10.623 0 9.84375 0H9.375C4.19531 0 0 4.15536 0 9.28571V23.2143C0 24.7522 1.25977 26 2.8125 26H10.3125C11.8652 26 13.125 24.7522 13.125 23.2143V15.7857C13.125 14.2478 11.8652 13 10.3125 13Z" fill="#15579E" fill-opacity="0.1"/>
</svg>
