<svg id="full" width="170" height="406" viewBox="0 0 170 406" fill="none" xmlns="http://www.w3.org/2000/svg">
<mask id="path-1-inside-1" fill="white">
<path fill-rule="evenodd" clip-rule="evenodd" d="M228 2.47376L228 403.526C219.801 404.539 211.451 405.06 202.978 405.06C91.3834 405.06 0.91797 314.595 0.917971 203C0.917972 91.4051 91.3834 0.939698 202.978 0.9397C211.451 0.9397 219.801 1.46118 228 2.47376Z"/>
</mask>
<path d="M228 2.47376L238 2.47376L238 -6.36715L229.226 -7.45083L228 2.47376ZM228 403.526L229.226 413.451L238 412.367L238 403.526L228 403.526ZM218 2.47376L218 403.526L238 403.526L238 2.47376L218 2.47376ZM226.774 393.601C218.981 394.564 211.04 395.06 202.978 395.06L202.978 415.06C211.861 415.06 220.622 414.513 229.226 413.451L226.774 393.601ZM202.978 395.06C96.9062 395.06 10.918 309.072 10.918 203L-9.08203 203C-9.08203 320.117 85.8605 415.06 202.978 415.06L202.978 395.06ZM10.918 203C10.918 96.928 96.9062 10.9397 202.978 10.9397L202.978 -9.0603C85.8605 -9.0603 -9.08203 85.8823 -9.08203 203L10.918 203ZM202.978 10.9397C211.04 10.9397 218.981 11.4359 226.774 12.3983L229.226 -7.45083C220.622 -8.51352 211.861 -9.0603 202.978 -9.0603L202.978 10.9397Z" fill="#F8B75F" mask="url(#path-1-inside-1)"/>
</svg>
