<svg width="50" height="50" viewBox="0 0 50 50" fill="none" xmlns="http://www.w3.org/2000/svg">
<g clip-path="url(#clip0_786_950)">
<path d="M25.0801 1.99817C12.3971 1.99817 2.08008 12.3152 2.08008 24.9982C2.08008 37.6812 12.3971 47.9982 25.0801 47.9982C26.5761 47.9982 28.0329 47.8381 29.4492 47.5626C31.5804 49.0907 34.1835 50.0001 37 50.0001C44.168 50.0001 50 44.1681 50 37.0001C50 34.2136 49.1119 31.6344 47.6133 29.5157C47.908 28.0535 48.0801 26.5465 48.0801 24.9982C48.0801 12.3152 37.7631 1.99817 25.0801 1.99817ZM25.0801 4.00012C36.6591 4.00012 46.0801 13.4211 46.0801 25.0001C46.0801 25.8693 46.0209 26.7233 45.9121 27.5626C45.329 27.0116 44.6984 26.5129 44.0215 26.0763C44.023 26.0507 44.0279 26.0258 44.0293 26.0001H43.8965C41.8947 24.7405 39.5346 24.0001 37 24.0001C34.4654 24.0001 32.1053 24.7405 30.1035 26.0001H26.0801V29.9708C25.0119 31.6244 24.3038 33.5299 24.0801 35.5822V35.0861C21.8631 35.1421 19.7245 35.3774 17.7285 35.7814C19.1885 40.1514 21.4861 43.2293 24.0801 43.8673V38.4181C24.3918 41.2776 25.6423 43.8518 27.5059 45.8497C26.7103 45.9472 25.9022 46.0001 25.0801 46.0001C13.5011 46.0001 4.08008 36.5791 4.08008 25.0001C4.08008 13.4211 13.5011 4.00012 25.0801 4.00012ZM37 24.0001H44.0293C43.8253 20.1081 42.4502 16.5287 40.2422 13.5997C38.6962 14.4387 36.915 15.1331 34.959 15.6681C35.6 18.1871 35.9837 21.0001 36.0547 24.0001H37ZM24.0801 6.13293C21.4881 6.77093 19.1944 9.84125 17.7344 14.2032C19.7474 14.6152 21.8851 14.8572 24.0801 14.9142V6.13293ZM26.0801 6.13293V14.9142C28.2971 14.8582 30.4356 14.6229 32.4316 14.2189C30.9716 9.84887 28.6741 6.77093 26.0801 6.13293ZM19.498 6.83997C16.292 7.82697 13.4597 9.65209 11.2227 12.0431C12.5837 12.7201 14.1118 13.2855 15.7598 13.7345C16.6928 10.8875 17.972 8.52597 19.498 6.83997ZM30.6621 6.83997C32.1911 8.52897 33.4732 10.8981 34.4062 13.7521C36.0692 13.2991 37.5966 12.7252 38.9336 12.0372C36.6976 9.64823 33.8651 7.82597 30.6621 6.83997ZM9.9082 13.6115C7.7052 16.5385 6.33486 20.1131 6.13086 24.0001H14.1055C14.1765 20.9941 14.5611 18.1755 15.2051 15.6525C13.2671 15.1225 11.4812 14.4365 9.9082 13.6115ZM17.1621 16.1232C16.5471 18.5082 16.1785 21.1861 16.1055 24.0001H24.0801V16.9142C21.6921 16.8542 19.3581 16.5842 17.1621 16.1232ZM33 16.1388C30.822 16.5918 28.4901 16.8562 26.0801 16.9142V24.0001H34.0547C33.9817 21.1921 33.613 18.5198 33 16.1388ZM6.13086 26.0001C6.33486 29.8921 7.70997 33.4715 9.91797 36.4005C11.464 35.5615 13.2452 34.8672 15.2012 34.3322C14.5602 31.8132 14.1765 29.0001 14.1055 26.0001H6.13086ZM16.1055 26.0001C16.1785 28.8081 16.5472 31.4804 17.1602 33.8615C19.3382 33.4085 21.6701 33.1441 24.0801 33.0861V26.0001H16.1055ZM37 26.0001C37.3468 26.0001 37.6887 26.0213 38.0273 26.0529C38.1634 26.0657 38.297 26.0859 38.4316 26.1036C38.6348 26.1302 38.8376 26.1598 39.0371 26.1974C39.1842 26.2253 39.3297 26.2573 39.4746 26.2911C39.6523 26.3322 39.8277 26.3783 40.002 26.4279C40.1706 26.4762 40.3387 26.526 40.5039 26.5822C40.6167 26.6202 40.7267 26.6636 40.8379 26.7052C41.0488 26.7847 41.2603 26.8634 41.4648 26.9552C41.4862 26.9647 41.5061 26.9768 41.5273 26.9865C42.3219 27.3492 43.0669 27.8004 43.748 28.3322C44.3741 28.8207 44.9516 29.3684 45.459 29.9786C45.4611 29.9811 45.4628 29.984 45.4648 29.9865C45.7464 30.3257 46.0046 30.6835 46.2422 31.0568C46.2439 31.0595 46.2463 31.0618 46.248 31.0646C46.2522 31.0709 46.2557 31.0777 46.2598 31.0841C46.4929 31.4528 46.7056 31.8355 46.8965 32.2306C46.8988 32.2353 46.902 32.2395 46.9043 32.2443C47.5997 33.686 48 35.2953 48 37.0001C48 43.0651 43.065 48.0001 37 48.0001C35.2694 48.0001 33.6379 47.5864 32.1797 46.8712C31.7747 46.6734 31.3819 46.454 31.0059 46.2111C30.6306 45.9686 30.2732 45.7011 29.9316 45.4142L29.9277 45.4122C29.1167 44.7293 28.4066 43.9323 27.8203 43.045C27.605 42.7196 27.4105 42.3797 27.2305 42.0314C27.1919 41.9567 27.1561 41.8804 27.1191 41.8048C26.9744 41.5081 26.8426 41.2036 26.7246 40.8927C26.6972 40.8207 26.6704 40.7486 26.6445 40.6759C26.5331 40.3624 26.4366 40.0428 26.3535 39.7169C26.3327 39.6354 26.31 39.555 26.291 39.4728C26.2008 39.0811 26.1274 38.682 26.0801 38.2755V38.2736C26.0315 37.8551 26 37.4314 26 37.0001C26 36.5688 26.0315 36.1452 26.0801 35.7267V35.7247C26.1857 34.8158 26.4066 33.9434 26.7207 33.1154C27.3302 31.5089 28.3058 30.0854 29.543 28.9396C29.5677 28.9167 29.5923 28.8938 29.6172 28.8712C30.8624 27.7389 32.367 26.8859 34.0332 26.4181C34.6847 26.2351 35.3588 26.1066 36.0527 26.047V26.049C36.3657 26.0219 36.68 26.0001 37 26.0001ZM15.7539 36.2482C14.0909 36.7012 12.5636 37.275 11.2266 37.963C13.4626 40.352 16.295 42.1743 19.498 43.1603C17.969 41.4713 16.6869 39.1022 15.7539 36.2482Z" fill="#363636"/>
<path d="M31.6348 39.983H38.2603V32.1884" stroke="url(#paint0_linear_786_950)" stroke-width="1.59572" stroke-linecap="round"/>
</g>
<defs>
<linearGradient id="paint0_linear_786_950" x1="31.615" y1="36.9285" x2="38.0838" y2="34.5117" gradientUnits="userSpaceOnUse">
<stop stop-color="#6B67E9"/>
<stop offset="1" stop-color="#8224E3"/>
</linearGradient>
<clipPath id="clip0_786_950">
<rect width="50" height="50" fill="white"/>
</clipPath>
</defs>
</svg>
