<svg width="50" height="51" viewBox="0 0 50 51" fill="none" xmlns="http://www.w3.org/2000/svg">
<g clip-path="url(#clip0_3264_17591)">
<path d="M25.0801 2.63037C12.3971 2.63037 2.08008 12.9474 2.08008 25.6304C2.08008 38.3134 12.3971 48.6304 25.0801 48.6304C26.5761 48.6304 28.0329 48.4703 29.4492 48.1948C31.5804 49.7229 34.1835 50.6323 37 50.6323C44.168 50.6323 50 44.8003 50 37.6323C50 34.8458 49.1119 32.2666 47.6133 30.1479C47.908 28.6858 48.0801 27.1787 48.0801 25.6304C48.0801 12.9474 37.7631 2.63037 25.0801 2.63037ZM25.0801 4.63232C36.6591 4.63232 46.0801 14.0533 46.0801 25.6323C46.0801 26.5015 46.0209 27.3555 45.9121 28.1948C45.329 27.6438 44.6984 27.1451 44.0215 26.7085C44.023 26.6829 44.0279 26.658 44.0293 26.6323H43.8965C41.8947 25.3727 39.5346 24.6323 37 24.6323C34.4654 24.6323 32.1053 25.3727 30.1035 26.6323H26.0801V30.603C25.0119 32.2567 24.3038 34.1621 24.0801 36.2144V35.7183C21.8631 35.7743 19.7245 36.0096 17.7285 36.4136C19.1885 40.7836 21.4861 43.8615 24.0801 44.4995V39.0503C24.3918 41.9098 25.6423 44.484 27.5059 46.4819C26.7103 46.5794 25.9022 46.6323 25.0801 46.6323C13.5011 46.6323 4.08008 37.2113 4.08008 25.6323C4.08008 14.0533 13.5011 4.63232 25.0801 4.63232ZM37 24.6323H44.0293C43.8253 20.7403 42.4502 17.1609 40.2422 14.2319C38.6962 15.0709 36.915 15.7653 34.959 16.3003C35.6 18.8193 35.9837 21.6323 36.0547 24.6323H37ZM24.0801 6.76514C21.4881 7.40314 19.1944 10.4734 17.7344 14.8354C19.7474 15.2474 21.8851 15.4894 24.0801 15.5464V6.76514ZM26.0801 6.76514V15.5464C28.2971 15.4904 30.4356 15.2551 32.4316 14.8511C30.9716 10.4811 28.6741 7.40314 26.0801 6.76514ZM19.498 7.47217C16.292 8.45917 13.4597 10.2843 11.2227 12.6753C12.5837 13.3523 14.1118 13.9177 15.7598 14.3667C16.6928 11.5197 17.972 9.15817 19.498 7.47217ZM30.6621 7.47217C32.1911 9.16117 33.4732 11.5303 34.4062 14.3843C36.0692 13.9313 37.5966 13.3574 38.9336 12.6694C36.6976 10.2804 33.8651 8.45817 30.6621 7.47217ZM9.9082 14.2437C7.7052 17.1707 6.33486 20.7453 6.13086 24.6323H14.1055C14.1765 21.6263 14.5611 18.8077 15.2051 16.2847C13.2671 15.7547 11.4812 15.0687 9.9082 14.2437ZM17.1621 16.7554C16.5471 19.1404 16.1785 21.8183 16.1055 24.6323H24.0801V17.5464C21.6921 17.4864 19.3581 17.2164 17.1621 16.7554ZM33 16.771C30.822 17.224 28.4901 17.4884 26.0801 17.5464V24.6323H34.0547C33.9817 21.8243 33.613 19.152 33 16.771ZM6.13086 26.6323C6.33486 30.5243 7.70997 34.1037 9.91797 37.0327C11.464 36.1937 13.2452 35.4994 15.2012 34.9644C14.5602 32.4454 14.1765 29.6323 14.1055 26.6323H6.13086ZM16.1055 26.6323C16.1785 29.4403 16.5472 32.1127 17.1602 34.4937C19.3382 34.0407 21.6701 33.7763 24.0801 33.7183V26.6323H16.1055ZM37 26.6323C37.3468 26.6323 37.6887 26.6535 38.0273 26.6851C38.1634 26.6979 38.297 26.7181 38.4316 26.7358C38.6348 26.7624 38.8376 26.792 39.0371 26.8296C39.1842 26.8575 39.3297 26.8895 39.4746 26.9233C39.6523 26.9644 39.8277 27.0105 40.002 27.0601C40.1706 27.1084 40.3387 27.1582 40.5039 27.2144C40.6167 27.2524 40.7267 27.2958 40.8379 27.3374C41.0488 27.4169 41.2603 27.4956 41.4648 27.5874C41.4862 27.5969 41.5061 27.609 41.5273 27.6187C42.3219 27.9814 43.0669 28.4326 43.748 28.9644C44.3741 29.4529 44.9516 30.0006 45.459 30.6108C45.4611 30.6133 45.4628 30.6162 45.4648 30.6187C45.7464 30.9579 46.0046 31.3157 46.2422 31.689C46.2439 31.6917 46.2463 31.694 46.248 31.6968C46.2522 31.7032 46.2557 31.7099 46.2598 31.7163C46.4929 32.085 46.7056 32.4677 46.8965 32.8628C46.8988 32.8675 46.902 32.8717 46.9043 32.8765C47.5997 34.3182 48 35.9275 48 37.6323C48 43.6973 43.065 48.6323 37 48.6323C35.2694 48.6323 33.6379 48.2186 32.1797 47.5034C31.7747 47.3056 31.3819 47.0862 31.0059 46.8433C30.6306 46.6008 30.2732 46.3333 29.9316 46.0464L29.9277 46.0444C29.1167 45.3615 28.4066 44.5645 27.8203 43.6772C27.605 43.3518 27.4105 43.0119 27.2305 42.6636C27.1919 42.589 27.1561 42.5126 27.1191 42.437C26.9744 42.1403 26.8426 41.8358 26.7246 41.5249C26.6972 41.4529 26.6704 41.3808 26.6445 41.3081C26.5331 40.9946 26.4366 40.675 26.3535 40.3491C26.3327 40.2676 26.31 40.1872 26.291 40.105C26.2008 39.7133 26.1274 39.3142 26.0801 38.9077V38.9058C26.0315 38.4873 26 38.0636 26 37.6323C26 37.201 26.0315 36.7774 26.0801 36.3589V36.3569C26.1857 35.448 26.4066 34.5756 26.7207 33.7476C27.3302 32.1411 28.3058 30.7176 29.543 29.5718C29.5677 29.5489 29.5923 29.526 29.6172 29.5034C30.8624 28.3711 32.367 27.5182 34.0332 27.0503C34.6847 26.8673 35.3588 26.7388 36.0527 26.6792V26.6812C36.3657 26.6542 36.68 26.6323 37 26.6323ZM15.7539 36.8804C14.0909 37.3334 12.5636 37.9072 11.2266 38.5952C13.4626 40.9842 16.295 42.8065 19.498 43.7925C17.969 42.1035 16.6869 39.7344 15.7539 36.8804Z" fill="#363636"/>
<path d="M31.6348 40.6154H38.2603V32.8208" stroke="url(#paint0_linear_3264_17591)" stroke-width="1.59572" stroke-linecap="round"/>
</g>
<defs>
<linearGradient id="paint0_linear_3264_17591" x1="31.615" y1="37.561" x2="38.0838" y2="35.1442" gradientUnits="userSpaceOnUse">
<stop stop-color="#6B67E9"/>
<stop offset="1" stop-color="#8224E3"/>
</linearGradient>
<clipPath id="clip0_3264_17591">
<rect width="50" height="50" fill="white" transform="translate(0 0.632324)"/>
</clipPath>
</defs>
</svg>
