<svg id='full' width="204" height="46" viewBox="0 0 204 46" fill="none" xmlns="http://www.w3.org/2000/svg">
<g clip-path="url(#clip0)">
<circle cx="23.1375" cy="23.7088" r="17.9958" fill="url(#paint0_linear)" fill-opacity="0.1"/>
<path fill-rule="evenodd" clip-rule="evenodd" d="M12.5397 33.454C12.5159 33.4493 12.5036 33.4467 12.5036 33.4467C12.5036 33.4467 11.4328 28.4669 13.3781 26.5217C13.7966 26.1032 14.3419 25.8765 14.9399 25.7988L15.7928 26.6517C15.7567 26.6741 15.7181 26.6915 15.6796 26.7088C15.6157 26.7376 15.5522 26.7662 15.5013 26.8171C14.1308 28.1876 15.261 30.6893 15.261 30.6893C15.261 30.6893 15.2714 30.694 15.2912 30.7024L12.5397 33.454ZM18.5758 27.4179L15.5288 24.3709L16.7854 21.3378L9.29514 22.1709C9.29514 22.1709 11.1282 16.6705 12.9625 14.8362C14.416 13.3827 18.2281 13.5828 20.114 13.7825C20.1469 13.7452 20.1797 13.7078 20.2124 13.6703C20.3291 13.5369 20.4459 13.4033 20.571 13.2783C29.6467 4.20247 39.731 6.21931 39.731 6.21931C39.731 6.21931 39.7334 6.23165 39.7378 6.25585L32.6936 13.3001C32.6864 13.2928 32.6793 13.2855 32.672 13.2783C31.5577 12.164 29.7526 12.164 28.6383 13.2783C27.524 14.3926 27.524 16.1976 28.6383 17.312C28.6456 17.3192 28.6528 17.3264 28.6601 17.3335L18.5758 27.4179Z" fill="#377DFF"/>
<path fill-rule="evenodd" clip-rule="evenodd" d="M12.5397 33.454C12.5444 33.4777 12.547 33.4901 12.547 33.4901C12.547 33.4901 17.5267 34.5609 19.472 32.6156C19.8905 32.1971 20.1172 31.6517 20.1948 31.0537L19.342 30.2009C19.3196 30.237 19.3022 30.2756 19.2849 30.3141C19.2561 30.3779 19.2275 30.4415 19.1765 30.4924C17.8061 31.8628 15.3044 30.7327 15.3044 30.7327C15.3044 30.7327 15.2997 30.7223 15.2912 30.7024L12.5397 33.454ZM18.5758 27.4179L21.6228 30.4648L24.6559 29.2082L23.8228 36.6985C23.8228 36.6985 29.3231 34.8655 31.1575 33.0312C32.611 31.5776 32.4109 27.7655 32.2112 25.8797C32.2484 25.8467 32.2859 25.814 32.3234 25.7812C32.4567 25.6646 32.5903 25.5478 32.7154 25.4227C41.7912 16.3469 39.7744 6.2627 39.7744 6.2627C39.7744 6.2627 39.762 6.26024 39.7378 6.25586L32.6936 13.3001C32.7009 13.3072 32.7082 13.3144 32.7154 13.3217C33.8297 14.436 33.8297 16.241 32.7154 17.3553C31.6011 18.4697 29.796 18.4697 28.6817 17.3553C28.6745 17.3481 28.6673 17.3408 28.6601 17.3335L18.5758 27.4179Z" fill="#326EDD"/>
</g>
<path d="M64.0516 16.0185C64.2337 17.0468 64.4663 18.1471 64.7495 19.3194C65.0529 20.4712 65.3766 21.6537 65.7205 22.8672C66.0846 24.0601 66.4588 25.2426 66.8431 26.4149C67.2477 27.5872 67.6523 28.6876 68.0569 29.7159C68.4007 28.9344 68.7649 27.9883 69.1492 26.8777C69.5335 25.7465 69.9179 24.5639 70.3022 23.3299C70.6866 22.0754 71.0406 20.8208 71.3642 19.5662C71.7081 18.2911 71.9913 17.1085 72.2138 16.0185H74.1557C73.4275 19.1446 72.6285 22.0034 71.7587 24.5948C70.9091 27.1862 69.9684 29.6439 68.9368 31.9679H67.0859C66.7825 31.2481 66.4588 30.446 66.1149 29.5616C65.7913 28.6567 65.4474 27.7004 65.0833 26.6926C64.7394 25.6643 64.3955 24.5948 64.0516 23.4842C63.728 22.353 63.4144 21.2013 63.111 20.029C62.8076 21.2013 62.4839 22.353 62.14 23.4842C61.8164 24.5948 61.4725 25.6643 61.1084 26.6926C60.7645 27.7004 60.4206 28.6567 60.0767 29.5616C59.7531 30.446 59.4395 31.2481 59.1361 31.9679H57.2548C56.2232 29.6439 55.2724 27.1862 54.4026 24.5948C53.553 22.0034 52.7641 19.1446 52.0359 16.0185H54.1295C54.3521 17.1085 54.6251 18.2911 54.9488 19.5662C55.2927 20.8208 55.6568 22.0754 56.0411 23.3299C56.4255 24.5639 56.8098 25.7362 57.1942 26.8468C57.5987 27.9574 57.973 28.9035 58.3168 29.685C58.7012 28.6567 59.0855 27.5564 59.4699 26.3841C59.8744 25.2118 60.2487 24.0292 60.5925 22.8363C60.9364 21.6435 61.2601 20.4712 61.5635 19.3194C61.8669 18.1471 62.1299 17.0468 62.3524 16.0185H64.0516Z" fill="#363636"/>
<path d="M76.5343 23.9778C76.5343 22.5792 76.7265 21.3658 77.1108 20.3375C77.5154 19.2886 78.0312 18.4145 78.6583 17.7152C79.3056 17.016 80.0339 16.5018 80.843 16.1727C81.6724 15.8231 82.522 15.6483 83.3918 15.6483C85.3135 15.6483 86.8407 16.2858 87.9735 17.561C89.1266 18.8361 89.7031 20.8002 89.7031 23.4533C89.7031 23.6179 89.693 23.7824 89.6727 23.9469C89.6727 24.1115 89.6626 24.2657 89.6424 24.4097H78.628C78.6887 26.3635 79.164 27.8649 80.0541 28.9138C80.9441 29.9627 82.3601 30.4871 84.3021 30.4871C85.3742 30.4871 86.2238 30.3843 86.8509 30.1786C87.4779 29.973 87.9331 29.7982 88.2163 29.6542L88.5804 31.3818C88.2972 31.5463 87.7611 31.7417 86.9722 31.9679C86.2035 32.1942 85.2933 32.3073 84.2414 32.3073C82.8658 32.3073 81.6926 32.1016 80.7216 31.6903C79.7507 31.279 78.9516 30.7031 78.3245 29.9627C77.6975 29.2223 77.2423 28.3482 76.9591 27.3404C76.6759 26.3121 76.5343 25.1912 76.5343 23.9778ZM87.6701 22.7129C87.6297 21.047 87.2453 19.7513 86.5171 18.8258C85.7889 17.9003 84.7572 17.4376 83.4221 17.4376C82.7141 17.4376 82.0769 17.5815 81.5105 17.8695C80.9644 18.1574 80.4789 18.5482 80.0541 19.0418C79.6495 19.5148 79.3259 20.0701 79.0831 20.7077C78.8606 21.3452 78.7291 22.0137 78.6887 22.7129H87.6701Z" fill="#363636"/>
<path d="M96.7077 23.8544C96.7077 25.4997 97.0921 26.7954 97.8608 27.7415C98.6294 28.667 99.6914 29.1297 101.047 29.1297C101.633 29.1297 102.129 29.1092 102.534 29.068C102.958 29.0063 103.302 28.9446 103.565 28.8829V19.6279C103.242 19.4017 102.807 19.196 102.26 19.0109C101.735 18.8053 101.168 18.7024 100.561 18.7024C99.2262 18.7024 98.2451 19.1652 97.618 20.0907C97.0112 21.0162 96.7077 22.2707 96.7077 23.8544ZM107.237 31.4743C106.508 31.7006 105.588 31.9062 104.475 32.0913C103.383 32.2764 102.23 32.369 101.016 32.369C99.7622 32.369 98.6396 32.1736 97.6484 31.7828C96.6572 31.3921 95.8076 30.8368 95.0996 30.1169C94.4118 29.3765 93.8758 28.4922 93.4914 27.4638C93.1273 26.4149 92.9452 25.2426 92.9452 23.9469C92.9452 22.6718 93.097 21.5201 93.4004 20.4917C93.724 19.4428 94.1893 18.5482 94.7961 17.8078C95.403 17.0674 96.1413 16.5018 97.0112 16.111C97.881 15.6997 98.8823 15.494 100.015 15.494C100.784 15.494 101.461 15.5866 102.048 15.7717C102.635 15.9568 103.14 16.1624 103.565 16.3887V8.64532L107.237 8.02832V31.4743Z" fill="#363636"/>
<path d="M111.021 23.9778C111.021 22.5587 111.223 21.3144 111.627 20.2449C112.052 19.1755 112.608 18.2911 113.296 17.5918C113.984 16.872 114.773 16.3373 115.663 15.9876C116.553 15.6174 117.463 15.4323 118.394 15.4323C120.578 15.4323 122.278 16.1213 123.491 17.4993C124.725 18.8772 125.342 20.9339 125.342 23.6693C125.342 23.875 125.332 24.1115 125.312 24.3788C125.312 24.6256 125.302 24.8519 125.282 25.0575H114.813C114.914 26.3532 115.36 27.361 116.148 28.0808C116.958 28.7801 118.121 29.1297 119.638 29.1297C120.528 29.1297 121.337 29.0475 122.065 28.8829C122.814 28.7184 123.4 28.5436 123.825 28.3585L124.311 31.4126C124.108 31.5155 123.825 31.6286 123.461 31.752C123.117 31.8548 122.713 31.9474 122.247 32.0296C121.802 32.1325 121.317 32.2147 120.791 32.2764C120.265 32.3381 119.729 32.369 119.183 32.369C117.787 32.369 116.573 32.1633 115.542 31.752C114.51 31.3201 113.66 30.7339 112.993 29.9935C112.325 29.2326 111.83 28.3482 111.506 27.3404C111.182 26.3121 111.021 25.1912 111.021 23.9778ZM121.671 22.3119C121.671 21.7977 121.6 21.3144 121.458 20.8619C121.317 20.3889 121.104 19.9878 120.821 19.6588C120.558 19.3091 120.224 19.0418 119.82 18.8567C119.436 18.651 118.97 18.5482 118.424 18.5482C117.858 18.5482 117.362 18.6613 116.937 18.8875C116.513 19.0932 116.148 19.3708 115.845 19.7205C115.562 20.0701 115.339 20.4712 115.177 20.9236C115.016 21.3761 114.904 21.8388 114.844 22.3119H121.671Z" fill="#363636"/>
<path d="M133.301 31.9679C132.289 29.8496 131.248 27.4227 130.176 24.6873C129.124 21.9314 128.163 18.9801 127.293 15.8334H131.207C131.43 16.7383 131.683 17.7152 131.966 18.7641C132.269 19.7925 132.583 20.8311 132.906 21.88C133.25 22.9083 133.594 23.9161 133.938 24.9033C134.302 25.8699 134.636 26.744 134.939 27.5255C135.243 26.744 135.566 25.8699 135.91 24.9033C136.254 23.9161 136.588 22.9083 136.912 21.88C137.256 20.8311 137.579 19.7925 137.883 18.7641C138.186 17.7152 138.449 16.7383 138.672 15.8334H142.464C141.595 18.9801 140.624 21.9314 139.551 24.6873C138.5 27.4227 137.468 29.8496 136.456 31.9679H133.301Z" fill="#363636"/>
<path d="M143.971 23.9778C143.971 22.5587 144.173 21.3144 144.578 20.2449C145.002 19.1755 145.559 18.2911 146.247 17.5918C146.934 16.872 147.723 16.3373 148.613 15.9876C149.503 15.6174 150.414 15.4323 151.344 15.4323C153.529 15.4323 155.228 16.1213 156.442 17.4993C157.676 18.8772 158.293 20.9339 158.293 23.6693C158.293 23.875 158.282 24.1115 158.262 24.3788C158.262 24.6256 158.252 24.8519 158.232 25.0575H147.764C147.865 26.3532 148.31 27.361 149.099 28.0808C149.908 28.7801 151.071 29.1297 152.588 29.1297C153.478 29.1297 154.287 29.0475 155.016 28.8829C155.764 28.7184 156.351 28.5436 156.775 28.3585L157.261 31.4126C157.059 31.5155 156.775 31.6286 156.411 31.752C156.067 31.8548 155.663 31.9474 155.198 32.0296C154.753 32.1325 154.267 32.2147 153.741 32.2764C153.215 32.3381 152.679 32.369 152.133 32.369C150.737 32.369 149.524 32.1633 148.492 31.752C147.46 31.3201 146.611 30.7339 145.943 29.9935C145.276 29.2326 144.78 28.3482 144.456 27.3404C144.133 26.3121 143.971 25.1912 143.971 23.9778ZM154.621 22.3119C154.621 21.7977 154.55 21.3144 154.409 20.8619C154.267 20.3889 154.055 19.9878 153.772 19.6588C153.509 19.3091 153.175 19.0418 152.77 18.8567C152.386 18.651 151.921 18.5482 151.374 18.5482C150.808 18.5482 150.312 18.6613 149.888 18.8875C149.463 19.0932 149.099 19.3708 148.795 19.7205C148.512 20.0701 148.29 20.4712 148.128 20.9236C147.966 21.3761 147.855 21.8388 147.794 22.3119H154.621Z" fill="#363636"/>
<path d="M167.708 32.2764C166.615 32.2559 165.705 32.1325 164.977 31.9062C164.269 31.68 163.702 31.3612 163.278 30.9499C162.853 30.518 162.549 29.9935 162.367 29.3765C162.205 28.739 162.125 28.0191 162.125 27.217V8.64532L165.796 8.02832V26.5075C165.796 26.96 165.826 27.3404 165.887 27.6489C165.968 27.9574 166.099 28.2248 166.282 28.451C166.464 28.6567 166.706 28.8212 167.01 28.9446C167.333 29.0475 167.738 29.1297 168.223 29.1914L167.708 32.2764Z" fill="#363636"/>
<path d="M185.545 23.8852C185.545 25.1604 185.363 26.3224 184.999 27.3713C184.635 28.4202 184.119 29.3148 183.452 30.0552C182.784 30.7956 181.975 31.3715 181.024 31.7828C180.094 32.1942 179.062 32.3998 177.929 32.3998C176.797 32.3998 175.765 32.1942 174.834 31.7828C173.904 31.3715 173.105 30.7956 172.437 30.0552C171.77 29.3148 171.244 28.4202 170.859 27.3713C170.495 26.3224 170.313 25.1604 170.313 23.8852C170.313 22.6101 170.495 21.4584 170.859 20.43C171.244 19.3811 171.77 18.4865 172.437 17.7461C173.125 17.0057 173.934 16.4401 174.865 16.0493C175.795 15.638 176.817 15.4323 177.929 15.4323C179.042 15.4323 180.063 15.638 180.994 16.0493C181.945 16.4401 182.754 17.0057 183.421 17.7461C184.089 18.4865 184.605 19.3811 184.969 20.43C185.353 21.4584 185.545 22.6101 185.545 23.8852ZM181.783 23.8852C181.783 22.281 181.439 21.0162 180.751 20.0907C180.084 19.1446 179.143 18.6716 177.929 18.6716C176.716 18.6716 175.765 19.1446 175.077 20.0907C174.41 21.0162 174.076 22.281 174.076 23.8852C174.076 25.51 174.41 26.7954 175.077 27.7415C175.765 28.6876 176.716 29.1606 177.929 29.1606C179.143 29.1606 180.084 28.6876 180.751 27.7415C181.439 26.7954 181.783 25.51 181.783 23.8852Z" fill="#363636"/>
<path d="M199.857 23.9778C199.857 22.3119 199.482 21.0162 198.734 20.0907C198.006 19.1652 196.822 18.7024 195.184 18.7024C194.84 18.7024 194.476 18.723 194.092 18.7641C193.727 18.7847 193.363 18.8464 192.999 18.9492V28.1734C193.323 28.3996 193.748 28.6156 194.274 28.8212C194.82 29.0063 195.396 29.0989 196.003 29.0989C197.338 29.0989 198.309 28.6361 198.916 27.7106C199.543 26.7851 199.857 25.5409 199.857 23.9778ZM203.619 23.9161C203.619 25.1501 203.457 26.2813 203.134 27.3096C202.83 28.3379 202.385 29.2223 201.799 29.9627C201.212 30.7031 200.474 31.279 199.584 31.6903C198.714 32.1016 197.723 32.3073 196.61 32.3073C195.862 32.3073 195.174 32.2147 194.547 32.0296C193.92 31.8445 193.404 31.6389 192.999 31.4126V37.6752H189.328V16.3578C190.076 16.1522 190.997 15.9568 192.089 15.7717C193.181 15.5866 194.334 15.494 195.548 15.494C196.802 15.494 197.925 15.6894 198.916 16.0802C199.907 16.4709 200.747 17.0365 201.435 17.7769C202.143 18.4968 202.679 19.3811 203.043 20.43C203.427 21.4584 203.619 22.6204 203.619 23.9161Z" fill="#363636"/>
<defs>
<linearGradient id="paint0_linear" x1="17.4245" y1="39.7051" x2="25.994" y2="12.2829" gradientUnits="userSpaceOnUse">
<stop offset="0.411458" stop-color="#363636"/>
<stop offset="1" stop-color="#ACC7F8"/>
</linearGradient>
<clipPath id="clip0">
<rect width="45.7037" height="45.7037" fill="white"/>
</clipPath>
</defs>
</svg>
