<svg id='full' width="203" height="85" viewBox="0 0 203 85" fill="none" xmlns="http://www.w3.org/2000/svg">
  <g clip-path="url(#clip0)">
    <circle cx="23.1377" cy="43.3569" r="17.9958" fill="url(#paint0_linear)" fill-opacity="0.1"/>
    <path fill-rule="evenodd" clip-rule="evenodd" d="M12.5397 53.1021C12.516 53.0974 12.5036 53.0948 12.5036 53.0948C12.5036 53.0948 11.4328 48.1151 13.3781 46.1698C13.7966 45.7513 14.3419 45.5246 14.9399 45.447L15.7928 46.2998C15.7567 46.3222 15.7181 46.3396 15.6796 46.3569C15.6157 46.3857 15.5522 46.4143 15.5013 46.4653C14.1308 47.8357 15.261 50.3374 15.261 50.3374C15.261 50.3374 15.2714 50.3421 15.2913 50.3506L12.5397 53.1021ZM18.5758 47.066L15.5288 44.019L16.7854 40.9859L9.29513 41.819C9.29513 41.819 11.1282 36.3186 12.9625 34.4843C14.416 33.0308 18.2281 33.2309 20.114 33.4306C20.1469 33.3934 20.1797 33.3559 20.2124 33.3184C20.3291 33.1851 20.4459 33.0515 20.5709 32.9264C29.6467 23.8506 39.731 25.8674 39.731 25.8674C39.731 25.8674 39.7334 25.8798 39.7378 25.904L32.6936 32.9482C32.6865 32.9409 32.6793 32.9336 32.672 32.9264C31.5577 31.8121 29.7526 31.8121 28.6383 32.9264C27.524 34.0407 27.524 35.8458 28.6383 36.9601C28.6456 36.9673 28.6529 36.9745 28.6602 36.9817L18.5758 47.066Z" fill="#377DFF"/>
    <path fill-rule="evenodd" clip-rule="evenodd" d="M12.5395 53.1021C12.5441 53.1259 12.5467 53.1382 12.5467 53.1382C12.5467 53.1382 17.5265 54.209 19.4717 52.2637C19.8902 51.8452 20.1169 51.2999 20.1946 50.7019L19.3418 49.849C19.3194 49.8851 19.302 49.9237 19.2846 49.9622C19.2559 50.0261 19.2273 50.0896 19.1763 50.1405C17.8059 51.511 15.3041 50.3808 15.3041 50.3808C15.3041 50.3808 15.2994 50.3704 15.291 50.3506L12.5395 53.1021ZM18.5756 47.066L21.6225 50.113L24.6557 48.8564L23.8225 56.3467C23.8225 56.3467 29.3229 54.5136 31.1572 52.6793C32.6108 51.2258 32.4106 47.4137 32.211 45.5278C32.2482 45.4949 32.2857 45.4621 32.3231 45.4294C32.4565 45.3127 32.5901 45.1959 32.7152 45.0709C41.791 35.9951 39.7741 25.9108 39.7741 25.9108C39.7741 25.9108 39.7618 25.9084 39.7376 25.904L32.6934 32.9482C32.7007 32.9554 32.7079 32.9626 32.7152 32.9698C33.8295 34.0841 33.8295 35.8892 32.7152 37.0035C31.6009 38.1178 29.7958 38.1178 28.6815 37.0035C28.6742 36.9962 28.6671 36.989 28.6599 36.9817L18.5756 47.066Z" fill="#326EDD"/>
  </g>
  <path d="M63.4325 35.6667C63.6145 36.695 63.8472 37.7953 64.1304 38.9676C64.4338 40.1194 64.7574 41.3019 65.1013 42.5154C65.4654 43.7082 65.8397 44.8908 66.224 46.0631C66.6286 47.2354 67.0331 48.3357 67.4377 49.3641C67.7816 48.5825 68.1457 47.6365 68.5301 46.5259C68.9144 45.3947 69.2987 44.2121 69.6831 42.9781C70.0674 41.7236 70.4214 40.469 70.7451 39.2144C71.089 37.9393 71.3722 36.7567 71.5947 35.6667H73.5366C72.8084 38.7928 72.0093 41.6516 71.1395 44.243C70.2899 46.8344 69.3493 49.2921 68.3177 51.6161H66.4667C66.1633 50.8963 65.8397 50.0942 65.4958 49.2098C65.1721 48.3049 64.8282 47.3485 64.4641 46.3408C64.1202 45.3124 63.7764 44.243 63.4325 43.1324C63.1088 42.0012 62.7953 40.8495 62.4918 39.6772C62.1884 40.8495 61.8648 42.0012 61.5209 43.1324C61.1972 44.243 60.8533 45.3124 60.4892 46.3408C60.1453 47.3485 59.8015 48.3049 59.4576 49.2098C59.1339 50.0942 58.8204 50.8963 58.5169 51.6161H56.6357C55.604 49.2921 54.6533 46.8344 53.7835 44.243C52.9339 41.6516 52.145 38.7928 51.4167 35.6667H53.5104C53.7329 36.7567 54.006 37.9393 54.3297 39.2144C54.6735 40.469 55.0376 41.7236 55.422 42.9781C55.8063 44.2121 56.1907 45.3844 56.575 46.495C56.9796 47.6056 57.3538 48.5517 57.6977 49.3332C58.082 48.3049 58.4664 47.2046 58.8507 46.0323C59.2553 44.86 59.6295 43.6774 59.9734 42.4845C60.3173 41.2917 60.6409 40.1194 60.9444 38.9676C61.2478 37.7953 61.5108 36.695 61.7333 35.6667H63.4325Z" fill="#363636"/>
  <path d="M75.9152 43.626C75.9152 42.2274 76.1074 41.014 76.4917 39.9857C76.8963 38.9368 77.4121 38.0627 78.0392 37.3634C78.6865 36.6642 79.4147 36.15 80.2239 35.8209C81.0532 35.4713 81.9028 35.2965 82.7726 35.2965C84.6944 35.2965 86.2216 35.934 87.3544 37.2092C88.5074 38.4843 89.0839 40.4484 89.0839 43.1015C89.0839 43.2661 89.0738 43.4306 89.0536 43.5951C89.0536 43.7597 89.0435 43.9139 89.0232 44.0579H78.0088C78.0695 46.0117 78.5449 47.5131 79.4349 48.562C80.325 49.6109 81.741 50.1353 83.6829 50.1353C84.755 50.1353 85.6046 50.0325 86.2317 49.8268C86.8588 49.6212 87.3139 49.4464 87.5971 49.3024L87.9613 51.03C87.6781 51.1945 87.142 51.3899 86.3531 51.6161C85.5844 51.8424 84.6741 51.9555 83.6222 51.9555C82.2467 51.9555 81.0735 51.7498 80.1025 51.3385C79.1315 50.9271 78.3325 50.3513 77.7054 49.6109C77.0783 48.8705 76.6232 47.9964 76.34 46.9886C76.0568 45.9603 75.9152 44.8394 75.9152 43.626ZM87.051 42.3611C87.0105 40.6952 86.6262 39.3995 85.8979 38.474C85.1697 37.5485 84.1381 37.0858 82.803 37.0858C82.095 37.0858 81.4578 37.2297 80.8914 37.5177C80.3452 37.8056 79.8597 38.1964 79.4349 38.69C79.0304 39.163 78.7067 39.7183 78.464 40.3559C78.2415 40.9934 78.11 41.6619 78.0695 42.3611H87.051Z" fill="#363636"/>
  <path d="M96.0886 43.5026C96.0886 45.1479 96.4729 46.4436 97.2416 47.3897C98.0103 48.3152 99.0723 48.7779 100.428 48.7779C101.014 48.7779 101.51 48.7574 101.914 48.7162C102.339 48.6545 102.683 48.5928 102.946 48.5311V39.2761C102.622 39.0499 102.187 38.8442 101.641 38.6591C101.115 38.4535 100.549 38.3506 99.9421 38.3506C98.607 38.3506 97.626 38.8134 96.9989 39.7389C96.392 40.6644 96.0886 41.9189 96.0886 43.5026ZM106.618 51.1225C105.889 51.3488 104.969 51.5544 103.856 51.7395C102.764 51.9246 101.611 52.0172 100.397 52.0172C99.1431 52.0172 98.0204 51.8218 97.0292 51.431C96.038 51.0403 95.1884 50.485 94.4804 49.7651C93.7927 49.0247 93.2566 48.1404 92.8723 47.112C92.5082 46.0631 92.3261 44.8908 92.3261 43.5951C92.3261 42.32 92.4778 41.1683 92.7812 40.1399C93.1049 39.091 93.5702 38.1964 94.177 37.456C94.7839 36.7156 95.5222 36.15 96.392 35.7592C97.2619 35.3479 98.2632 35.1422 99.396 35.1422C100.165 35.1422 100.842 35.2348 101.429 35.4199C102.016 35.605 102.521 35.8106 102.946 36.0369V28.2935L106.618 27.6765V51.1225Z" fill="#363636"/>
  <path d="M110.401 43.626C110.401 42.2069 110.604 40.9626 111.008 39.8931C111.433 38.8237 111.989 37.9393 112.677 37.24C113.365 36.5202 114.154 35.9855 115.044 35.6358C115.934 35.2656 116.844 35.0805 117.775 35.0805C119.959 35.0805 121.659 35.7695 122.872 37.1475C124.106 38.5254 124.723 40.5821 124.723 43.3175C124.723 43.5231 124.713 43.7597 124.693 44.027C124.693 44.2738 124.683 44.5001 124.662 44.7057H114.194C114.295 46.0014 114.74 47.0092 115.529 47.729C116.338 48.4283 117.502 48.7779 119.019 48.7779C119.909 48.7779 120.718 48.6957 121.446 48.5311C122.195 48.3666 122.781 48.1918 123.206 48.0067L123.691 51.0608C123.489 51.1637 123.206 51.2768 122.842 51.4002C122.498 51.503 122.093 51.5956 121.628 51.6778C121.183 51.7807 120.698 51.8629 120.172 51.9246C119.646 51.9863 119.11 52.0172 118.564 52.0172C117.168 52.0172 115.954 51.8115 114.922 51.4002C113.891 50.9683 113.041 50.3821 112.374 49.6417C111.706 48.8808 111.21 47.9964 110.887 46.9886C110.563 45.9603 110.401 44.8394 110.401 43.626ZM121.052 41.9601C121.052 41.4459 120.981 40.9626 120.839 40.5101C120.698 40.0371 120.485 39.636 120.202 39.307C119.939 38.9573 119.605 38.69 119.201 38.5049C118.816 38.2992 118.351 38.1964 117.805 38.1964C117.239 38.1964 116.743 38.3095 116.318 38.5357C115.893 38.7414 115.529 39.019 115.226 39.3687C114.943 39.7183 114.72 40.1194 114.558 40.5718C114.396 41.0243 114.285 41.487 114.225 41.9601H121.052Z" fill="#363636"/>
  <path d="M132.682 51.6161C131.67 49.4978 130.629 47.0709 129.556 44.3355C128.505 41.5796 127.544 38.6283 126.674 35.4816H130.588C130.811 36.3865 131.063 37.3634 131.347 38.4123C131.65 39.4407 131.964 40.4793 132.287 41.5282C132.631 42.5565 132.975 43.5643 133.319 44.5515C133.683 45.5181 134.017 46.3922 134.32 47.1737C134.624 46.3922 134.947 45.5181 135.291 44.5515C135.635 43.5643 135.969 42.5565 136.292 41.5282C136.636 40.4793 136.96 39.4407 137.263 38.4123C137.567 37.3634 137.83 36.3865 138.052 35.4816H141.845C140.975 38.6283 140.004 41.5796 138.932 44.3355C137.88 47.0709 136.849 49.4978 135.837 51.6161H132.682Z" fill="#363636"/>
  <path d="M143.352 43.626C143.352 42.2069 143.554 40.9626 143.959 39.8931C144.383 38.8237 144.94 37.9393 145.627 37.24C146.315 36.5202 147.104 35.9855 147.994 35.6358C148.884 35.2656 149.794 35.0805 150.725 35.0805C152.91 35.0805 154.609 35.7695 155.823 37.1475C157.056 38.5254 157.673 40.5821 157.673 43.3175C157.673 43.5231 157.663 43.7597 157.643 44.027C157.643 44.2738 157.633 44.5001 157.613 44.7057H147.145C147.246 46.0014 147.691 47.0092 148.48 47.729C149.289 48.4283 150.452 48.7779 151.969 48.7779C152.859 48.7779 153.668 48.6957 154.396 48.5311C155.145 48.3666 155.732 48.1918 156.156 48.0067L156.642 51.0608C156.44 51.1637 156.156 51.2768 155.792 51.4002C155.448 51.503 155.044 51.5956 154.578 51.6778C154.133 51.7807 153.648 51.8629 153.122 51.9246C152.596 51.9863 152.06 52.0172 151.514 52.0172C150.118 52.0172 148.904 51.8115 147.873 51.4002C146.841 50.9683 145.991 50.3821 145.324 49.6417C144.656 48.8808 144.161 47.9964 143.837 46.9886C143.514 45.9603 143.352 44.8394 143.352 43.626ZM154.002 41.9601C154.002 41.4459 153.931 40.9626 153.79 40.5101C153.648 40.0371 153.436 39.636 153.152 39.307C152.889 38.9573 152.556 38.69 152.151 38.5049C151.767 38.2992 151.301 38.1964 150.755 38.1964C150.189 38.1964 149.693 38.3095 149.269 38.5357C148.844 38.7414 148.48 39.019 148.176 39.3687C147.893 39.7183 147.67 40.1194 147.509 40.5718C147.347 41.0243 147.236 41.487 147.175 41.9601H154.002Z" fill="#363636"/>
  <path d="M167.088 51.9246C165.996 51.9041 165.086 51.7807 164.358 51.5544C163.65 51.3282 163.083 51.0094 162.658 50.5981C162.234 50.1662 161.93 49.6417 161.748 49.0247C161.586 48.3872 161.505 47.6673 161.505 46.8652V28.2935L165.177 27.6765V46.1557C165.177 46.6081 165.207 46.9886 165.268 47.2971C165.349 47.6056 165.48 47.873 165.662 48.0992C165.844 48.3049 166.087 48.4694 166.391 48.5928C166.714 48.6957 167.119 48.7779 167.604 48.8396L167.088 51.9246Z" fill="#363636"/>
  <path d="M184.926 43.5334C184.926 44.8086 184.744 45.9706 184.38 47.0195C184.016 48.0684 183.5 48.963 182.833 49.7034C182.165 50.4438 181.356 51.0197 180.405 51.431C179.475 51.8424 178.443 52.048 177.31 52.048C176.177 52.048 175.146 51.8424 174.215 51.431C173.285 51.0197 172.486 50.4438 171.818 49.7034C171.151 48.963 170.625 48.0684 170.24 47.0195C169.876 45.9706 169.694 44.8086 169.694 43.5334C169.694 42.2583 169.876 41.1066 170.24 40.0782C170.625 39.0293 171.151 38.1347 171.818 37.3943C172.506 36.6539 173.315 36.0883 174.246 35.6975C175.176 35.2862 176.198 35.0805 177.31 35.0805C178.423 35.0805 179.444 35.2862 180.375 35.6975C181.326 36.0883 182.135 36.6539 182.802 37.3943C183.47 38.1347 183.986 39.0293 184.35 40.0782C184.734 41.1066 184.926 42.2583 184.926 43.5334ZM181.164 43.5334C181.164 41.9292 180.82 40.6644 180.132 39.7389C179.465 38.7928 178.524 38.3198 177.31 38.3198C176.096 38.3198 175.146 38.7928 174.458 39.7389C173.79 40.6644 173.457 41.9292 173.457 43.5334C173.457 45.1582 173.79 46.4436 174.458 47.3897C175.146 48.3357 176.096 48.8088 177.31 48.8088C178.524 48.8088 179.465 48.3357 180.132 47.3897C180.82 46.4436 181.164 45.1582 181.164 43.5334Z" fill="#363636"/>
  <path d="M199.238 43.626C199.238 41.9601 198.863 40.6644 198.115 39.7389C197.387 38.8134 196.203 38.3506 194.565 38.3506C194.221 38.3506 193.857 38.3712 193.472 38.4123C193.108 38.4329 192.744 38.4946 192.38 38.5974V47.8216C192.704 48.0478 193.129 48.2638 193.654 48.4694C194.201 48.6545 194.777 48.7471 195.384 48.7471C196.719 48.7471 197.69 48.2843 198.297 47.3588C198.924 46.4333 199.238 45.189 199.238 43.626ZM203 43.5643C203 44.7983 202.838 45.9294 202.515 46.9578C202.211 47.9861 201.766 48.8705 201.179 49.6109C200.593 50.3513 199.855 50.9271 198.964 51.3385C198.095 51.7498 197.103 51.9555 195.991 51.9555C195.242 51.9555 194.555 51.8629 193.928 51.6778C193.3 51.4927 192.785 51.2871 192.38 51.0608V57.3234H188.709V36.006C189.457 35.8004 190.377 35.605 191.47 35.4199C192.562 35.2348 193.715 35.1422 194.929 35.1422C196.183 35.1422 197.306 35.3376 198.297 35.7284C199.288 36.1191 200.128 36.6847 200.815 37.4251C201.523 38.145 202.059 39.0293 202.424 40.0782C202.808 41.1066 203 42.2686 203 43.5643Z" fill="#363636"/>
  <defs>
    <linearGradient id="paint0_linear" x1="17.4247" y1="59.3532" x2="25.9942" y2="31.931" gradientUnits="userSpaceOnUse">
      <stop offset="0.411458" stop-color="#363636"/>
      <stop offset="1" stop-color="#ACC7F8"/>
    </linearGradient>
    <clipPath id="clip0">
      <rect width="45.7037" height="45.7037" fill="white" transform="translate(0 19.6482)"/>
    </clipPath>
  </defs>
</svg>
