<svg id="full" width="46" height="47" viewBox="0 0 46 47" fill="none" xmlns="http://www.w3.org/2000/svg">
<g clip-path="url(#clip0)">
<circle cx="23.1376" cy="24.3569" r="17.9958" fill="url(#paint0_linear)" fill-opacity="0.1"/>
<path fill-rule="evenodd" clip-rule="evenodd" d="M12.5397 34.1021C12.516 34.0974 12.5036 34.0948 12.5036 34.0948C12.5036 34.0948 11.4328 29.1151 13.3781 27.1698C13.7966 26.7513 14.3419 26.5246 14.9399 26.447L15.7928 27.2998C15.7567 27.3222 15.7181 27.3396 15.6796 27.3569C15.6157 27.3857 15.5522 27.4143 15.5013 27.4653C14.1308 28.8357 15.261 31.3374 15.261 31.3374C15.261 31.3374 15.2714 31.3421 15.2913 31.3506L12.5397 34.1021ZM18.5758 28.066L15.5288 25.019L16.7854 21.9859L9.29513 22.819C9.29513 22.819 11.1282 17.3186 12.9625 15.4843C14.416 14.0308 18.2281 14.2309 20.114 14.4306C20.1469 14.3934 20.1797 14.3559 20.2124 14.3184C20.3291 14.1851 20.4459 14.0515 20.5709 13.9264C29.6467 4.8506 39.731 6.86744 39.731 6.86744C39.731 6.86744 39.7334 6.87979 39.7378 6.90403L32.6936 13.9482C32.6865 13.9409 32.6793 13.9336 32.672 13.9264C31.5577 12.8121 29.7526 12.8121 28.6383 13.9264C27.524 15.0407 27.524 16.8458 28.6383 17.9601C28.6456 17.9673 28.6529 17.9745 28.6602 17.9817L18.5758 28.066Z" fill="#377DFF"/>
<path fill-rule="evenodd" clip-rule="evenodd" d="M12.5396 34.1021C12.5443 34.1259 12.5468 34.1382 12.5468 34.1382C12.5468 34.1382 17.5266 35.209 19.4719 33.2637C19.8904 32.8452 20.1171 32.2999 20.1947 31.7019L19.3419 30.849C19.3195 30.8851 19.3021 30.9237 19.2847 30.9622C19.256 31.0261 19.2274 31.0896 19.1764 31.1405C17.806 32.511 15.3043 31.3808 15.3043 31.3808C15.3043 31.3808 15.2996 31.3704 15.2911 31.3506L12.5396 34.1021ZM18.5757 28.066L21.6226 31.113L24.6558 29.8564L23.8227 37.3467C23.8227 37.3467 29.323 35.5136 31.1574 33.6793C32.6109 32.2258 32.4108 28.4137 32.2111 26.5278C32.2483 26.4949 32.2858 26.4621 32.3233 26.4294C32.4566 26.3127 32.5902 26.1959 32.7153 26.0709C41.7911 16.9951 39.7742 6.91084 39.7742 6.91084C39.7742 6.91084 39.7619 6.90837 39.7377 6.904L32.6935 13.9482C32.7008 13.9554 32.7081 13.9626 32.7153 13.9698C33.8296 15.0841 33.8296 16.8892 32.7153 18.0035C31.601 19.1178 29.7959 19.1178 28.6816 18.0035C28.6744 17.9962 28.6672 17.989 28.66 17.9817L18.5757 28.066Z" fill="#326EDD"/>
</g>
<defs>
<linearGradient id="paint0_linear" x1="17.4246" y1="40.3532" x2="25.9941" y2="12.931" gradientUnits="userSpaceOnUse">
<stop offset="0.411458" stop-color="#363636"/>
<stop offset="1" stop-color="#ACC7F8"/>
</linearGradient>
<clipPath id="clip0">
<rect width="45.7037" height="45.7037" fill="white" transform="translate(0 0.648193)"/>
</clipPath>
</defs>
</svg>
