<svg id='full' width="203" height="46" viewBox="0 0 203 46" fill="none" xmlns="http://www.w3.org/2000/svg">
<g clip-path="url(#clip0)">
<circle cx="23.1375" cy="23.7088" r="17.9958" fill="url(#paint0_linear)" fill-opacity="0.1"/>
<path fill-rule="evenodd" clip-rule="evenodd" d="M12.5397 33.454C12.516 33.4493 12.5036 33.4467 12.5036 33.4467C12.5036 33.4467 11.4328 28.4669 13.3781 26.5217C13.7966 26.1032 14.342 25.8765 14.9399 25.7988L15.7928 26.6517C15.7567 26.6741 15.7181 26.6915 15.6796 26.7088C15.6157 26.7376 15.5522 26.7662 15.5013 26.8171C14.1308 28.1876 15.261 30.6893 15.261 30.6893C15.261 30.6893 15.2714 30.694 15.2912 30.7024L12.5397 33.454ZM18.5758 27.4179L15.5288 24.3709L16.7854 21.3378L9.29514 22.1709C9.29514 22.1709 11.1282 16.6705 12.9625 14.8362C14.416 13.3827 18.2281 13.5828 20.114 13.7825C20.1469 13.7452 20.1797 13.7078 20.2125 13.6703C20.3291 13.5369 20.4459 13.4033 20.571 13.2783C29.6468 4.20247 39.731 6.21931 39.731 6.21931C39.731 6.21931 39.7334 6.23165 39.7378 6.25584L32.6936 13.3001C32.6864 13.2928 32.6793 13.2855 32.672 13.2783C31.5577 12.164 29.7526 12.164 28.6383 13.2783C27.524 14.3926 27.524 16.1976 28.6383 17.312C28.6456 17.3192 28.6528 17.3264 28.6601 17.3335L18.5758 27.4179Z" fill="white"/>
<path fill-rule="evenodd" clip-rule="evenodd" d="M12.5397 33.454C12.5444 33.4777 12.547 33.4901 12.547 33.4901C12.547 33.4901 17.5267 34.5608 19.472 32.6156C19.8905 32.1971 20.1172 31.6517 20.1948 31.0537L19.342 30.2009C19.3196 30.237 19.3022 30.2756 19.2848 30.3141C19.2561 30.3779 19.2275 30.4415 19.1765 30.4924C17.8061 31.8628 15.3044 30.7327 15.3044 30.7327C15.3044 30.7327 15.2997 30.7223 15.2912 30.7024L12.5397 33.454ZM18.5758 27.4179L21.6228 30.4648L24.6559 29.2082L23.8228 36.6985C23.8228 36.6985 29.3231 34.8655 31.1575 33.0312C32.611 31.5776 32.4109 27.7655 32.2112 25.8797C32.2484 25.8467 32.2859 25.814 32.3234 25.7812C32.4567 25.6646 32.5903 25.5478 32.7154 25.4227C41.7912 16.3469 39.7744 6.2627 39.7744 6.2627C39.7744 6.2627 39.762 6.26023 39.7378 6.25586L32.6936 13.3001C32.7009 13.3072 32.7082 13.3144 32.7154 13.3217C33.8297 14.436 33.8297 16.241 32.7154 17.3553C31.6011 18.4696 29.796 18.4696 28.6817 17.3553C28.6745 17.3481 28.6673 17.3408 28.6601 17.3335L18.5758 27.4179Z" fill="#E1E1E1"/>
</g>
<path d="M63.4325 16.0185C63.6145 17.0468 63.8472 18.1471 64.1304 19.3194C64.4338 20.4712 64.7574 21.6537 65.1013 22.8672C65.4654 24.0601 65.8397 25.2426 66.224 26.4149C66.6286 27.5872 67.0331 28.6876 67.4377 29.7159C67.7816 28.9344 68.1457 27.9883 68.5301 26.8777C68.9144 25.7465 69.2987 24.5639 69.6831 23.3299C70.0674 22.0754 70.4214 20.8208 70.7451 19.5662C71.089 18.2911 71.3722 17.1085 71.5947 16.0185H73.5366C72.8084 19.1446 72.0093 22.0034 71.1395 24.5948C70.2899 27.1862 69.3493 29.6439 68.3177 31.9679H66.4667C66.1633 31.2481 65.8397 30.446 65.4958 29.5616C65.1721 28.6567 64.8282 27.7004 64.4641 26.6926C64.1202 25.6643 63.7764 24.5948 63.4325 23.4842C63.1088 22.353 62.7953 21.2013 62.4918 20.029C62.1884 21.2013 61.8648 22.353 61.5209 23.4842C61.1972 24.5948 60.8533 25.6643 60.4892 26.6926C60.1453 27.7004 59.8015 28.6567 59.4576 29.5616C59.1339 30.446 58.8204 31.2481 58.5169 31.9679H56.6357C55.604 29.6439 54.6533 27.1862 53.7835 24.5948C52.9339 22.0034 52.145 19.1446 51.4167 16.0185H53.5104C53.7329 17.1085 54.006 18.2911 54.3297 19.5662C54.6735 20.8208 55.0376 22.0754 55.422 23.3299C55.8063 24.5639 56.1907 25.7362 56.575 26.8468C56.9796 27.9574 57.3538 28.9035 57.6977 29.685C58.082 28.6567 58.4664 27.5564 58.8507 26.3841C59.2553 25.2118 59.6295 24.0292 59.9734 22.8363C60.3173 21.6435 60.6409 20.4712 60.9444 19.3194C61.2478 18.1471 61.5108 17.0468 61.7333 16.0185H63.4325Z" fill="white"/>
<path d="M75.9152 23.9778C75.9152 22.5792 76.1074 21.3658 76.4917 20.3375C76.8963 19.2886 77.4121 18.4145 78.0392 17.7152C78.6865 17.016 79.4147 16.5018 80.2239 16.1727C81.0532 15.8231 81.9028 15.6483 82.7726 15.6483C84.6944 15.6483 86.2216 16.2858 87.3544 17.561C88.5074 18.8361 89.0839 20.8002 89.0839 23.4533C89.0839 23.6179 89.0738 23.7824 89.0536 23.9469C89.0536 24.1115 89.0435 24.2657 89.0232 24.4097H78.0088C78.0695 26.3635 78.5449 27.8649 79.4349 28.9138C80.325 29.9627 81.741 30.4871 83.6829 30.4871C84.755 30.4871 85.6046 30.3843 86.2317 30.1786C86.8588 29.973 87.3139 29.7982 87.5971 29.6542L87.9613 31.3818C87.6781 31.5463 87.142 31.7417 86.3531 31.9679C85.5844 32.1942 84.6741 32.3073 83.6222 32.3073C82.2467 32.3073 81.0735 32.1016 80.1025 31.6903C79.1315 31.279 78.3325 30.7031 77.7054 29.9627C77.0783 29.2223 76.6232 28.3482 76.34 27.3404C76.0568 26.3121 75.9152 25.1912 75.9152 23.9778ZM87.051 22.7129C87.0105 21.047 86.6262 19.7513 85.8979 18.8258C85.1697 17.9003 84.1381 17.4376 82.803 17.4376C82.095 17.4376 81.4578 17.5815 80.8914 17.8695C80.3452 18.1574 79.8597 18.5482 79.4349 19.0418C79.0304 19.5148 78.7067 20.0701 78.464 20.7077C78.2415 21.3452 78.11 22.0137 78.0695 22.7129H87.051Z" fill="white"/>
<path d="M96.0886 23.8544C96.0886 25.4997 96.4729 26.7954 97.2416 27.7415C98.0103 28.667 99.0723 29.1297 100.428 29.1297C101.014 29.1297 101.51 29.1092 101.914 29.068C102.339 29.0063 102.683 28.9446 102.946 28.8829V19.6279C102.622 19.4017 102.187 19.196 101.641 19.0109C101.115 18.8053 100.549 18.7024 99.9421 18.7024C98.607 18.7024 97.626 19.1652 96.9989 20.0907C96.392 21.0162 96.0886 22.2707 96.0886 23.8544ZM106.618 31.4743C105.889 31.7006 104.969 31.9062 103.856 32.0913C102.764 32.2764 101.611 32.369 100.397 32.369C99.1431 32.369 98.0204 32.1736 97.0292 31.7828C96.038 31.3921 95.1884 30.8368 94.4804 30.1169C93.7927 29.3765 93.2566 28.4922 92.8723 27.4638C92.5082 26.4149 92.3261 25.2426 92.3261 23.9469C92.3261 22.6718 92.4778 21.5201 92.7812 20.4917C93.1049 19.4428 93.5702 18.5482 94.177 17.8078C94.7839 17.0674 95.5222 16.5018 96.392 16.111C97.2619 15.6997 98.2632 15.494 99.396 15.494C100.165 15.494 100.842 15.5866 101.429 15.7717C102.016 15.9568 102.521 16.1624 102.946 16.3887V8.64532L106.618 8.02832V31.4743Z" fill="white"/>
<path d="M110.401 23.9778C110.401 22.5587 110.604 21.3144 111.008 20.2449C111.433 19.1755 111.989 18.2911 112.677 17.5918C113.365 16.872 114.154 16.3373 115.044 15.9876C115.934 15.6174 116.844 15.4323 117.775 15.4323C119.959 15.4323 121.659 16.1213 122.872 17.4993C124.106 18.8772 124.723 20.9339 124.723 23.6693C124.723 23.875 124.713 24.1115 124.693 24.3788C124.693 24.6256 124.683 24.8519 124.662 25.0575H114.194C114.295 26.3532 114.74 27.361 115.529 28.0808C116.338 28.7801 117.502 29.1297 119.019 29.1297C119.909 29.1297 120.718 29.0475 121.446 28.8829C122.195 28.7184 122.781 28.5436 123.206 28.3585L123.691 31.4126C123.489 31.5155 123.206 31.6286 122.842 31.752C122.498 31.8548 122.093 31.9474 121.628 32.0296C121.183 32.1325 120.698 32.2147 120.172 32.2764C119.646 32.3381 119.11 32.369 118.564 32.369C117.168 32.369 115.954 32.1633 114.922 31.752C113.891 31.3201 113.041 30.7339 112.374 29.9935C111.706 29.2326 111.21 28.3482 110.887 27.3404C110.563 26.3121 110.401 25.1912 110.401 23.9778ZM121.052 22.3119C121.052 21.7977 120.981 21.3144 120.839 20.8619C120.698 20.3889 120.485 19.9878 120.202 19.6588C119.939 19.3091 119.605 19.0418 119.201 18.8567C118.816 18.651 118.351 18.5482 117.805 18.5482C117.239 18.5482 116.743 18.6613 116.318 18.8875C115.893 19.0932 115.529 19.3708 115.226 19.7205C114.943 20.0701 114.72 20.4712 114.558 20.9236C114.396 21.3761 114.285 21.8388 114.225 22.3119H121.052Z" fill="white"/>
<path d="M132.682 31.9679C131.67 29.8496 130.629 27.4227 129.556 24.6873C128.505 21.9314 127.544 18.9801 126.674 15.8334H130.588C130.811 16.7383 131.063 17.7152 131.347 18.7641C131.65 19.7925 131.964 20.8311 132.287 21.88C132.631 22.9083 132.975 23.9161 133.319 24.9033C133.683 25.8699 134.017 26.744 134.32 27.5255C134.624 26.744 134.947 25.8699 135.291 24.9033C135.635 23.9161 135.969 22.9083 136.292 21.88C136.636 20.8311 136.96 19.7925 137.263 18.7641C137.567 17.7152 137.83 16.7383 138.052 15.8334H141.845C140.975 18.9801 140.004 21.9314 138.932 24.6873C137.88 27.4227 136.849 29.8496 135.837 31.9679H132.682Z" fill="white"/>
<path d="M143.352 23.9778C143.352 22.5587 143.554 21.3144 143.959 20.2449C144.383 19.1755 144.94 18.2911 145.627 17.5918C146.315 16.872 147.104 16.3373 147.994 15.9876C148.884 15.6174 149.794 15.4323 150.725 15.4323C152.91 15.4323 154.609 16.1213 155.823 17.4993C157.056 18.8772 157.673 20.9339 157.673 23.6693C157.673 23.875 157.663 24.1115 157.643 24.3788C157.643 24.6256 157.633 24.8519 157.613 25.0575H147.145C147.246 26.3532 147.691 27.361 148.48 28.0808C149.289 28.7801 150.452 29.1297 151.969 29.1297C152.859 29.1297 153.668 29.0475 154.396 28.8829C155.145 28.7184 155.732 28.5436 156.156 28.3585L156.642 31.4126C156.44 31.5155 156.156 31.6286 155.792 31.752C155.448 31.8548 155.044 31.9474 154.578 32.0296C154.133 32.1325 153.648 32.2147 153.122 32.2764C152.596 32.3381 152.06 32.369 151.514 32.369C150.118 32.369 148.904 32.1633 147.873 31.752C146.841 31.3201 145.991 30.7339 145.324 29.9935C144.656 29.2326 144.161 28.3482 143.837 27.3404C143.514 26.3121 143.352 25.1912 143.352 23.9778ZM154.002 22.3119C154.002 21.7977 153.931 21.3144 153.79 20.8619C153.648 20.3889 153.436 19.9878 153.152 19.6588C152.889 19.3091 152.556 19.0418 152.151 18.8567C151.767 18.651 151.301 18.5482 150.755 18.5482C150.189 18.5482 149.693 18.6613 149.269 18.8875C148.844 19.0932 148.48 19.3708 148.176 19.7205C147.893 20.0701 147.67 20.4712 147.509 20.9236C147.347 21.3761 147.236 21.8388 147.175 22.3119H154.002Z" fill="white"/>
<path d="M167.088 32.2764C165.996 32.2559 165.086 32.1325 164.358 31.9062C163.65 31.68 163.083 31.3612 162.658 30.9499C162.234 30.518 161.93 29.9935 161.748 29.3765C161.586 28.739 161.505 28.0191 161.505 27.217V8.64532L165.177 8.02832V26.5075C165.177 26.96 165.207 27.3404 165.268 27.6489C165.349 27.9574 165.48 28.2248 165.662 28.451C165.844 28.6567 166.087 28.8212 166.391 28.9446C166.714 29.0475 167.119 29.1297 167.604 29.1914L167.088 32.2764Z" fill="white"/>
<path d="M184.926 23.8852C184.926 25.1604 184.744 26.3224 184.38 27.3713C184.016 28.4202 183.5 29.3148 182.833 30.0552C182.165 30.7956 181.356 31.3715 180.405 31.7828C179.475 32.1942 178.443 32.3998 177.31 32.3998C176.177 32.3998 175.146 32.1942 174.215 31.7828C173.285 31.3715 172.486 30.7956 171.818 30.0552C171.151 29.3148 170.625 28.4202 170.24 27.3713C169.876 26.3224 169.694 25.1604 169.694 23.8852C169.694 22.6101 169.876 21.4584 170.24 20.43C170.625 19.3811 171.151 18.4865 171.818 17.7461C172.506 17.0057 173.315 16.4401 174.246 16.0493C175.176 15.638 176.198 15.4323 177.31 15.4323C178.423 15.4323 179.444 15.638 180.375 16.0493C181.326 16.4401 182.135 17.0057 182.802 17.7461C183.47 18.4865 183.986 19.3811 184.35 20.43C184.734 21.4584 184.926 22.6101 184.926 23.8852ZM181.164 23.8852C181.164 22.281 180.82 21.0162 180.132 20.0907C179.465 19.1446 178.524 18.6716 177.31 18.6716C176.096 18.6716 175.146 19.1446 174.458 20.0907C173.79 21.0162 173.457 22.281 173.457 23.8852C173.457 25.51 173.79 26.7954 174.458 27.7415C175.146 28.6876 176.096 29.1606 177.31 29.1606C178.524 29.1606 179.465 28.6876 180.132 27.7415C180.82 26.7954 181.164 25.51 181.164 23.8852Z" fill="white"/>
<path d="M199.238 23.9778C199.238 22.3119 198.863 21.0162 198.115 20.0907C197.387 19.1652 196.203 18.7024 194.565 18.7024C194.221 18.7024 193.857 18.723 193.472 18.7641C193.108 18.7847 192.744 18.8464 192.38 18.9492V28.1734C192.704 28.3996 193.129 28.6156 193.654 28.8212C194.201 29.0063 194.777 29.0989 195.384 29.0989C196.719 29.0989 197.69 28.6361 198.297 27.7106C198.924 26.7851 199.238 25.5409 199.238 23.9778ZM203 23.9161C203 25.1501 202.838 26.2813 202.515 27.3096C202.211 28.3379 201.766 29.2223 201.179 29.9627C200.593 30.7031 199.855 31.279 198.964 31.6903C198.095 32.1016 197.103 32.3073 195.991 32.3073C195.242 32.3073 194.555 32.2147 193.928 32.0296C193.3 31.8445 192.785 31.6389 192.38 31.4126V37.6752H188.709V16.3578C189.457 16.1522 190.377 15.9568 191.47 15.7717C192.562 15.5866 193.715 15.494 194.929 15.494C196.183 15.494 197.306 15.6894 198.297 16.0802C199.288 16.4709 200.128 17.0365 200.815 17.7769C201.523 18.4968 202.059 19.3811 202.424 20.43C202.808 21.4584 203 22.6204 203 23.9161Z" fill="white"/>
<defs>
<linearGradient id="paint0_linear" x1="17.4245" y1="39.7051" x2="25.994" y2="12.2829" gradientUnits="userSpaceOnUse">
<stop offset="0.411458" stop-color="white"/>
<stop offset="1" stop-color="white"/>
</linearGradient>
<clipPath id="clip0">
<rect width="45.7037" height="45.7037" fill="white"/>
</clipPath>
</defs>
</svg>
