<svg id='full' width="203" height="46" viewBox="0 0 50 50" fill="none" xmlns="http://www.w3.org/2000/svg">
<g clip-path="url(#clip0)">
<circle cx="25.3125" cy="25.9375" r="19.6875" fill="url(#paint0_linear)" fill-opacity="0.1"/>
<path fill-rule="evenodd" clip-rule="evenodd" d="M13.7185 36.5987C13.6925 36.5936 13.6789 36.5907 13.6789 36.5907C13.6789 36.5907 12.5075 31.1429 14.6356 29.0147C15.0935 28.5569 15.6901 28.3089 16.3443 28.224L17.2773 29.157C17.2379 29.1815 17.1956 29.2005 17.1535 29.2195C17.0836 29.2509 17.0142 29.2822 16.9584 29.338C15.4592 30.8372 16.6956 33.5741 16.6956 33.5741C16.6956 33.5741 16.7069 33.5793 16.7286 33.5885L13.7185 36.5987ZM20.322 29.9952L16.9886 26.6618L18.3633 23.3435L10.1689 24.255C10.1689 24.255 12.1742 18.2376 14.181 16.2308C15.7712 14.6406 19.9416 14.8596 22.0048 15.078C22.0408 15.0373 22.0766 14.9963 22.1125 14.9553C22.2401 14.8094 22.3679 14.6632 22.5047 14.5264C32.4336 4.59748 43.4658 6.80391 43.4658 6.80391C43.4658 6.80391 43.4685 6.8174 43.4733 6.84388L35.7669 14.5503C35.759 14.5423 35.7512 14.5343 35.7433 14.5264C34.5242 13.3074 32.5495 13.3074 31.3304 14.5264C30.1113 15.7455 30.1113 17.7202 31.3304 18.9393C31.3383 18.9472 31.3463 18.9551 31.3543 18.9629L20.322 29.9952Z" fill="white"/>
<path fill-rule="evenodd" clip-rule="evenodd" d="M13.7185 36.5987C13.7236 36.6247 13.7264 36.6382 13.7264 36.6382C13.7264 36.6382 19.1743 37.8096 21.3024 35.6815C21.7602 35.2237 22.0082 34.627 22.0932 33.9728L21.1602 33.0398C21.1357 33.0793 21.1167 33.1215 21.0977 33.1637C21.0662 33.2335 21.0349 33.303 20.9792 33.3587C19.4799 34.858 16.743 33.6216 16.743 33.6216C16.743 33.6216 16.7379 33.6102 16.7286 33.5885L13.7185 36.5987ZM20.322 29.9952L23.6554 33.3286L26.9736 31.9538L26.0622 40.1482C26.0622 40.1482 32.0796 38.1429 34.0863 36.1362C35.6765 34.546 35.4576 30.3755 35.2391 28.3124C35.2799 28.2764 35.3208 28.2405 35.3618 28.2047C35.5078 28.0771 35.6539 27.9493 35.7907 27.8125C45.7197 17.8835 43.5132 6.85138 43.5132 6.85138C43.5132 6.85138 43.4997 6.84867 43.4733 6.84389L35.7669 14.5503C35.7749 14.5581 35.7828 14.566 35.7907 14.5739C37.0098 15.7929 37.0098 17.7677 35.7907 18.9867C34.5717 20.2058 32.5969 20.2058 31.3779 18.9867C31.3699 18.9788 31.3621 18.9709 31.3543 18.9629L20.322 29.9952Z" fill="#E1E1E1"/>
</g>
<defs>
<linearGradient id="paint0_linear" x1="19.0625" y1="43.4375" x2="28.4375" y2="13.4375" gradientUnits="userSpaceOnUse">
<stop offset="0.411458" stop-color="white"/>
<stop offset="1" stop-color="white"/>
</linearGradient>
<clipPath id="clip0">
<rect width="50" height="50" fill="white"/>
</clipPath>
</defs>
</svg>
