<svg width="192" height="58" viewBox="0 0 192 58" fill="none" xmlns="http://www.w3.org/2000/svg">
<g clip-path="url(#clip0_1603_14041)">
<path d="M31.3958 16.912H25.6392L17.3242 38.4931H22.5359L23.8862 34.8213H31.7511L30.3298 30.794H25.1418L28.5057 21.5078L34.4991 38.4931H39.7108L31.3958 16.912ZM118.881 38.4931V16.912H123.501V34.4422H132.621V38.4931H118.881ZM145.532 38.4931V16.912H150.175V34.4422H159.296V38.4931H145.532ZM93.2492 20.7734C97.0869 20.7734 100.19 23.8767 100.19 27.7144C100.19 31.5521 97.0869 34.6554 93.2492 34.6554C89.4115 34.6554 86.3081 31.5521 86.3081 27.7144C86.3081 23.8767 89.4351 20.7734 93.2492 20.7734ZM93.2492 16.5566C87.0899 16.5566 82.0914 21.5551 82.0914 27.7144C82.0914 33.8737 87.0899 38.8722 93.2492 38.8722C99.4084 38.8722 104.407 33.8737 104.407 27.7144C104.407 21.5551 99.4084 16.5566 93.2492 16.5566ZM180.569 20.7734C184.406 20.7734 187.51 23.8767 187.51 27.7144C187.51 31.5521 184.406 34.6554 180.569 34.6554C176.731 34.6554 173.628 31.5521 173.628 27.7144C173.628 23.8767 176.731 20.7734 180.569 20.7734ZM180.569 16.5566C174.409 16.5566 169.411 21.5551 169.411 27.7144C169.411 33.8737 174.409 38.8722 180.569 38.8722C186.728 38.8722 191.727 33.8737 191.727 27.7144C191.727 21.5551 186.728 16.5566 180.569 16.5566ZM63.2345 16.912H53.1665V38.4931H57.7622V31.0546H63.2345C67.0722 31.0546 70.1756 27.8092 70.1756 23.9715C70.1756 20.1574 67.0722 16.912 63.2345 16.912ZM63.2345 26.8379H57.7622V21.1287H63.2345C64.727 21.1287 65.9588 22.479 65.9588 23.9715C65.9588 25.4639 64.727 26.8379 63.2345 26.8379Z" fill="#333333"/>
<path d="M49.2113 45.0315C48.8086 45.0315 48.4533 45.221 48.2401 45.529C48.2401 45.529 47.1977 46.7135 46.6529 47.282C44.2839 49.651 41.5359 51.4987 38.48 52.8017C35.3056 54.152 31.9417 54.8153 28.4593 54.8153C24.977 54.8153 21.613 54.1283 18.4386 52.8017C15.3827 51.4987 12.611 49.651 10.2658 47.282C7.8968 44.9131 6.04902 42.1651 4.7461 39.1091C3.39579 35.9347 2.73249 32.5708 2.73249 29.0885C2.73249 25.6061 3.41948 22.2422 4.7461 19.0678C6.02533 16.0118 7.87311 13.2402 10.2421 10.8949C12.611 8.52595 15.359 6.67817 18.415 5.37525C21.5894 4.02494 24.9533 3.36164 28.4356 3.36164C31.918 3.36164 35.2819 4.04863 38.4563 5.37525C40.6831 6.32283 42.7441 7.55468 44.6156 9.07081C44.5208 9.35509 44.4497 9.68674 44.4497 10.0184C44.4497 11.6293 45.7527 12.9322 47.3636 12.9322C48.9744 12.9322 50.2774 11.6293 50.2774 10.0184C50.2774 8.40751 48.9744 7.10458 47.3636 7.10458C46.9608 7.10458 46.5818 7.17565 46.2502 7.34148C41.3938 3.36164 35.2108 0.968994 28.4356 0.968994C12.919 0.968994 0.339844 13.5481 0.339844 29.0885C0.339844 44.6288 12.919 57.2079 28.4593 57.2079C37.1534 57.2079 44.8998 53.2755 50.0642 47.0688C50.2774 46.8556 50.4195 46.5476 50.4195 46.2397C50.3958 45.5764 49.851 45.0315 49.2113 45.0315Z" fill="#333333"/>
</g>
<defs>
<clipPath id="clip0_1603_14041">
<rect width="191.42" height="56.3108" fill="white" transform="translate(0.318359 0.932861)"/>
</clipPath>
</defs>
</svg>
