<svg width="92" height="71" viewBox="0 0 92 71" fill="none" xmlns="http://www.w3.org/2000/svg">
  <g clip-path="url(#clip0_504_17091)">
  <path d="M28.1821 28.8316C28.1821 29.8399 28.2911 30.6575 28.4819 31.257C28.6999 31.8566 28.9724 32.5106 29.3539 33.2192C29.4902 33.4372 29.5447 33.6552 29.5447 33.846C29.5447 34.1185 29.3812 34.3911 29.0269 34.6636L27.31 35.8082C27.0647 35.9717 26.8195 36.0535 26.6014 36.0535C26.3289 36.0535 26.0564 35.9172 25.7839 35.6719C25.4023 35.2631 25.0753 34.8271 24.8028 34.3911C24.5302 33.9278 24.2577 33.41 23.9579 32.7832C21.8322 35.2904 19.1615 36.544 15.9457 36.544C13.6565 36.544 11.8306 35.89 10.4952 34.5818C9.15983 33.2737 8.47852 31.5296 8.47852 29.3493C8.47852 27.0329 9.29609 25.1525 10.9585 23.7353C12.6209 22.3182 14.8283 21.6096 17.6354 21.6096C18.5619 21.6096 19.5158 21.6914 20.5241 21.8276C21.5325 21.9639 22.5681 22.1819 23.6582 22.4272V20.4378C23.6582 18.3666 23.2221 16.9222 22.3773 16.0774C21.5052 15.2325 20.0336 14.8237 17.9351 14.8237C16.9813 14.8237 16.0002 14.9328 14.9919 15.178C13.9835 15.4233 13.0024 15.7231 12.0486 16.1046C11.6126 16.2954 11.2855 16.4044 11.0948 16.4589C10.904 16.5134 10.7677 16.5407 10.6587 16.5407C10.2772 16.5407 10.0864 16.2681 10.0864 15.6958V14.3605C10.0864 13.9244 10.1409 13.5974 10.2772 13.4066C10.4134 13.2158 10.6587 13.0251 11.0403 12.8343C11.9941 12.3438 13.1387 11.935 14.4741 11.6079C15.8094 11.2537 17.2266 11.0901 18.7255 11.0901C21.9685 11.0901 24.3395 11.826 25.8656 13.2976C27.3645 14.7692 28.1276 17.004 28.1276 20.0017V28.8316H28.1821ZM17.1176 32.9739C18.0169 32.9739 18.9435 32.8104 19.9246 32.4834C20.9057 32.1564 21.7777 31.5568 22.5136 30.7392C22.9496 30.2214 23.2766 29.6491 23.4401 28.9951C23.6037 28.341 23.7127 27.5507 23.7127 26.6241V25.4795C22.9223 25.2887 22.0775 25.1252 21.2054 25.0162C20.3334 24.9072 19.4885 24.8527 18.6437 24.8527C16.8178 24.8527 15.4824 25.207 14.5831 25.9428C13.6837 26.6786 13.2477 27.7142 13.2477 29.0768C13.2477 30.3577 13.5747 31.3115 14.256 31.9656C14.9101 32.6469 15.8639 32.9739 17.1176 32.9739ZM39.0013 35.9172C38.5108 35.9172 38.1837 35.8355 37.9657 35.6447C37.7477 35.4812 37.5569 35.0996 37.3934 34.5818L30.9891 13.5156C30.8256 12.9706 30.7438 12.6163 30.7438 12.4255C30.7438 11.9895 30.9618 11.7442 31.3979 11.7442H34.0686C34.5864 11.7442 34.9407 11.826 35.1315 12.0167C35.3495 12.1803 35.513 12.5618 35.6765 13.0796L40.2549 31.1208L44.5063 13.0796C44.6426 12.5345 44.8061 12.1803 45.0241 12.0167C45.2421 11.8532 45.6237 11.7442 46.1142 11.7442H48.2944C48.8122 11.7442 49.1665 11.826 49.3845 12.0167C49.6025 12.1803 49.7933 12.5618 49.9023 13.0796L54.2082 31.3388L58.9229 13.0796C59.0864 12.5345 59.2772 12.1803 59.4679 12.0167C59.686 11.8532 60.0403 11.7442 60.5308 11.7442H63.0653C63.5013 11.7442 63.7466 11.9622 63.7466 12.4255C63.7466 12.5618 63.7193 12.698 63.6921 12.8616C63.6648 13.0251 63.6103 13.2431 63.5013 13.5429L56.9335 34.6091C56.77 35.1541 56.5792 35.5084 56.3612 35.6719C56.1431 35.8355 55.7889 35.9445 55.3256 35.9445H52.9819C52.4641 35.9445 52.1098 35.8627 51.8918 35.6719C51.6737 35.4812 51.483 35.1269 51.374 34.5818L47.1498 17.0039L42.9529 34.5546C42.8167 35.0996 42.6532 35.4539 42.4351 35.6447C42.2171 35.8355 41.8356 35.9172 41.345 35.9172H39.0013ZM74.0208 36.653C72.6037 36.653 71.1865 36.4895 69.8239 36.1625C68.4613 35.8355 67.3984 35.4812 66.6899 35.0724C66.2538 34.8271 65.954 34.5546 65.845 34.3093C65.736 34.064 65.6815 33.7915 65.6815 33.5462V32.1564C65.6815 31.5841 65.8995 31.3115 66.3083 31.3115C66.4718 31.3115 66.6354 31.3388 66.7989 31.3933C66.9624 31.4478 67.2077 31.5568 67.4802 31.6658C68.4068 32.0746 69.4151 32.4016 70.478 32.6197C71.5681 32.8377 72.6309 32.9467 73.721 32.9467C75.4379 32.9467 76.7733 32.6469 77.6999 32.0473C78.6265 31.4478 79.117 30.5757 79.117 29.4584C79.117 28.6953 78.8717 28.0685 78.3812 27.5507C77.8906 27.0329 76.9641 26.5696 75.6287 26.1335L71.6771 24.9072C69.6876 24.2804 68.216 23.3538 67.3167 22.1274C66.4173 20.9283 65.954 19.5929 65.954 18.1758C65.954 17.0312 66.1993 16.0229 66.6899 15.1508C67.1804 14.2787 67.8345 13.5156 68.652 12.9161C69.4696 12.2893 70.3962 11.826 71.4863 11.4989C72.5764 11.1719 73.721 11.0356 74.9201 11.0356C75.5197 11.0356 76.1465 11.0629 76.746 11.1447C77.3728 11.2264 77.9452 11.3354 78.5174 11.4444C79.0625 11.5807 79.5803 11.717 80.0708 11.8805C80.5614 12.044 80.9429 12.2075 81.2154 12.371C81.597 12.589 81.8695 12.8071 82.033 13.0523C82.1965 13.2704 82.2783 13.5701 82.2783 13.9517V15.2325C82.2783 15.8048 82.0603 16.1046 81.6515 16.1046C81.4335 16.1046 81.0792 15.9956 80.6159 15.7776C79.0625 15.069 77.3183 14.7147 75.3834 14.7147C73.83 14.7147 72.6037 14.96 71.7588 15.4778C70.914 15.9956 70.478 16.7859 70.478 17.9033C70.478 18.6664 70.7505 19.3204 71.2955 19.8382C71.8406 20.356 72.8489 20.8738 74.2933 21.3371L78.1632 22.5635C80.1253 23.1903 81.5425 24.0624 82.3873 25.1797C83.2321 26.2971 83.6409 27.5779 83.6409 28.9951C83.6409 30.1669 83.3956 31.2298 82.9324 32.1564C82.4418 33.0829 81.7878 33.9005 80.9429 34.5546C80.0981 35.2359 79.0898 35.7264 77.9179 36.0807C76.6915 36.4623 75.4107 36.653 74.0208 36.653Z" fill="#252F3E"/>
  <path fill-rule="evenodd" clip-rule="evenodd" d="M79.1709 49.8975C70.2048 56.5198 57.1781 60.0354 45.9773 60.0354C30.2799 60.0354 16.1358 54.2306 5.45285 44.5832C4.60802 43.8202 5.37109 42.7846 6.37944 43.3841C17.9345 50.0883 32.1876 54.1489 46.9312 54.1489C56.8783 54.1489 67.8066 52.0777 77.8628 47.8263C79.3616 47.145 80.6425 48.8074 79.1709 49.8975Z" fill="#FF9900"/>
  <path fill-rule="evenodd" clip-rule="evenodd" d="M82.9045 45.6462C81.7599 44.1746 75.3283 44.9377 72.4123 45.2919C71.5402 45.401 71.404 44.6379 72.1943 44.0656C77.3178 40.4683 85.7388 41.5039 86.7199 42.703C87.701 43.9293 86.4474 52.3503 81.6509 56.3837C80.9151 57.0105 80.2065 56.6835 80.5336 55.8659C81.6237 53.1679 84.0491 47.0906 82.9045 45.6462Z" fill="#FF9900"/>
  </g>
  <defs>
  <clipPath id="clip0_504_17091">
  <rect width="90.3" height="70" fill="white" transform="translate(0.845703 0.535645)"/>
  </clipPath>
  </defs>
</svg>
