<svg width="260" height="52" viewBox="0 0 260 52" fill="none" xmlns="http://www.w3.org/2000/svg">
<g clip-path="url(#clip0_1603_14050)">
<path d="M69.5662 33.2987C67.0118 33.2987 64.9682 32.5324 63.4994 31.0636C62.0306 29.5947 61.3281 27.4873 61.3281 24.869C61.3281 22.1868 62.0306 20.0156 63.3717 18.4829C64.7128 16.9502 66.5648 16.1839 68.9276 16.1839C71.0989 16.1839 72.8232 16.8225 74.1004 18.1636C75.3776 19.5047 76.0162 21.2928 76.0162 23.6557V25.5715H64.9682C65.0321 27.168 65.4791 28.3814 66.2455 29.2754C67.0118 30.1695 68.2251 30.5527 69.694 30.5527C70.6519 30.5527 71.6098 30.4888 72.44 30.2972C73.2702 30.1056 74.1643 29.7863 75.186 29.4032V32.2769C74.3558 32.6601 73.4618 32.9794 72.5677 33.171C71.6737 33.3626 70.6519 33.2987 69.5662 33.2987ZM68.8638 18.8661C67.7143 18.8661 66.8202 19.2492 66.1816 19.9517C65.543 20.6542 65.0959 21.676 64.9682 23.0809H72.5039C72.5039 21.7398 72.1845 20.6542 71.5459 19.9517C70.9073 19.2492 70.0133 18.8661 68.8638 18.8661ZM83.488 33.0433H79.9756V9.73389H83.488V33.0433ZM98.8786 33.0433L98.1761 30.7443H98.0484C97.282 31.766 96.4519 32.4685 95.6217 32.7878C94.7915 33.1071 93.7697 33.3626 92.4924 33.3626C90.8959 33.3626 89.6187 32.9155 88.6608 32.0215C87.7028 31.1274 87.3197 29.9141 87.3197 28.3175C87.3197 26.5933 87.9583 25.316 89.2355 24.4858C90.5127 23.6557 92.4286 23.1448 95.0469 23.0809L97.9207 23.017V22.123C97.9207 21.0373 97.6652 20.271 97.1543 19.7601C96.6434 19.2492 95.8771 18.9938 94.8553 18.9938C94.0251 18.9938 93.1949 19.1215 92.4286 19.3769C91.6623 19.6324 90.8959 19.9517 90.1934 20.271L89.0439 17.7804C89.938 17.3334 90.8959 16.9502 91.9816 16.6948C93.0672 16.4393 94.0251 16.3116 94.983 16.3116C97.0905 16.3116 98.687 16.7586 99.7726 17.7165C100.858 18.6745 101.369 20.0794 101.369 22.0591V33.0433H98.8786ZM93.6419 30.6165C94.9192 30.6165 95.941 30.2334 96.7073 29.5309C97.4736 28.8284 97.8568 27.8066 97.8568 26.5294V25.1245L95.7494 25.1883C94.089 25.2522 92.8756 25.5076 92.1093 26.0185C91.3429 26.5294 90.9598 27.2957 90.9598 28.3175C90.9598 29.0839 91.1514 29.6586 91.5984 30.0418C92.0454 30.425 92.7479 30.6165 93.6419 30.6165ZM117.398 28.3175C117.398 29.9141 116.824 31.1913 115.61 32.0215C114.397 32.8517 112.736 33.2987 110.565 33.2987C108.33 33.2987 106.606 32.9794 105.265 32.2769V29.2116C107.181 30.1056 109.033 30.5527 110.693 30.5527C112.864 30.5527 113.95 29.9141 113.95 28.573C113.95 28.1259 113.822 27.8066 113.567 27.5512C113.311 27.2957 112.928 26.9764 112.353 26.6571C111.779 26.3378 111.012 26.0185 110.054 25.6354C108.138 24.869 106.861 24.1665 106.159 23.4002C105.456 22.6339 105.137 21.676 105.137 20.5264C105.137 19.1215 105.712 18.0359 106.861 17.2057C108.011 16.3755 109.543 16.0562 111.523 16.0562C113.439 16.0562 115.291 16.4393 117.015 17.2695L115.866 19.8878C114.078 19.1215 112.609 18.8022 111.332 18.8022C109.48 18.8022 108.522 19.3131 108.522 20.3987C108.522 20.9096 108.777 21.3566 109.224 21.7398C109.671 22.123 110.757 22.57 112.417 23.2086C113.758 23.7195 114.78 24.2304 115.419 24.6774C116.057 25.1245 116.504 25.6354 116.824 26.2101C117.271 26.8487 117.398 27.4873 117.398 28.3175ZM127.361 30.4888C128.191 30.4888 129.085 30.3611 129.915 30.1056V32.724C129.532 32.9155 129.021 33.0433 128.382 33.171C127.744 33.2987 127.105 33.3626 126.467 33.3626C123.146 33.3626 121.485 31.5745 121.485 28.1259V19.1854H119.25V17.6527L121.677 16.3755L122.89 12.8631H125.062V16.567H129.787V19.2492H125.062V28.1259C125.062 28.9561 125.253 29.5948 125.7 29.9779C126.147 30.3611 126.722 30.4888 127.361 30.4888ZM133.044 12.0968C133.044 11.4581 133.236 11.0111 133.555 10.6279C133.875 10.2448 134.385 10.1171 135.024 10.1171C135.663 10.1171 136.11 10.3086 136.493 10.6279C136.876 10.9473 137.004 11.4581 137.004 12.0968C137.004 12.6715 136.812 13.1824 136.493 13.5017C136.174 13.821 135.663 14.0126 135.024 14.0126C134.385 14.0126 133.875 13.821 133.555 13.5017C133.236 13.1824 133.044 12.6715 133.044 12.0968ZM136.812 33.0433H133.3V16.5032H136.812V33.0433ZM148.499 33.2987C146.008 33.2987 144.092 32.5962 142.815 31.1274C141.538 29.6586 140.835 27.5512 140.835 24.8052C140.835 21.9953 141.538 19.8878 142.879 18.3552C144.22 16.8225 146.2 16.12 148.754 16.12C150.479 16.12 152.075 16.4393 153.48 17.0779L152.394 19.8878C150.926 19.3131 149.712 18.9938 148.69 18.9938C145.817 18.9938 144.412 20.9096 144.412 24.6774C144.412 26.5294 144.795 27.9344 145.497 28.8923C146.2 29.8502 147.285 30.2972 148.627 30.2972C150.223 30.2972 151.692 29.9141 153.097 29.1477V32.2131C152.458 32.5962 151.82 32.8517 151.053 32.9794C150.287 33.1071 149.521 33.2987 148.499 33.2987ZM168.104 28.3175C168.104 29.9141 167.529 31.1913 166.316 32.0215C165.103 32.8517 163.442 33.2987 161.271 33.2987C159.036 33.2987 157.312 32.9794 155.971 32.2769V29.2116C157.886 30.1056 159.738 30.5527 161.399 30.5527C163.57 30.5527 164.656 29.9141 164.656 28.573C164.656 28.1259 164.528 27.8066 164.273 27.5512C164.017 27.2957 163.634 26.9764 163.059 26.6571C162.484 26.3378 161.718 26.0185 160.76 25.6354C158.844 24.869 157.567 24.1665 156.865 23.4002C156.162 22.6339 155.843 21.676 155.843 20.5264C155.843 19.1215 156.418 18.0359 157.567 17.2057C158.717 16.3755 160.249 16.0562 162.229 16.0562C164.145 16.0562 165.997 16.4393 167.721 17.2695L166.572 19.8878C164.783 19.1215 163.315 18.8022 162.037 18.8022C160.185 18.8022 159.228 19.3131 159.228 20.3987C159.228 20.9096 159.483 21.3566 159.93 21.7398C160.377 22.123 161.463 22.57 163.123 23.2086C164.464 23.7195 165.486 24.2304 166.125 24.6774C166.763 25.1245 167.21 25.6354 167.529 26.2101C167.977 26.8487 168.104 27.4873 168.104 28.3175ZM179.152 33.2987C176.598 33.2987 174.554 32.5324 173.085 31.0636C171.617 29.5947 170.914 27.4873 170.914 24.869C170.914 22.1868 171.617 20.0156 172.958 18.4829C174.299 16.9502 176.151 16.1839 178.514 16.1839C180.685 16.1839 182.409 16.8225 183.686 18.1636C184.964 19.5047 185.602 21.2928 185.602 23.6557V25.5715H174.554C174.618 27.168 175.065 28.3814 175.831 29.2754C176.598 30.1695 177.811 30.5527 179.28 30.5527C180.238 30.5527 181.196 30.4888 182.026 30.2972C182.856 30.1056 183.75 29.7863 184.772 29.4032V32.2769C183.942 32.6601 183.048 32.9794 182.154 33.171C181.26 33.3626 180.302 33.2987 179.152 33.2987ZM178.514 18.8661C177.364 18.8661 176.47 19.2492 175.831 19.9517C175.193 20.6542 174.746 21.676 174.618 23.0809H182.154C182.154 21.7398 181.834 20.6542 181.196 19.9517C180.557 19.2492 179.599 18.8661 178.514 18.8661ZM199.907 33.0433L199.205 30.7443H199.077C198.311 31.766 197.48 32.4685 196.65 32.7878C195.82 33.1071 194.798 33.3626 193.521 33.3626C191.924 33.3626 190.647 32.9155 189.689 32.0215C188.731 31.1274 188.348 29.9141 188.348 28.3175C188.348 26.5933 188.987 25.316 190.264 24.4858C191.541 23.6557 193.457 23.1448 196.075 23.0809L198.949 23.017V22.123C198.949 21.0373 198.694 20.271 198.183 19.7601C197.672 19.2492 196.906 18.9938 195.884 18.9938C195.054 18.9938 194.223 19.1215 193.457 19.3769C192.691 19.6324 191.924 19.9517 191.222 20.271L190.073 17.7804C190.967 17.3334 191.924 16.9502 193.01 16.6948C194.096 16.4393 195.054 16.3116 196.012 16.3116C198.119 16.3116 199.716 16.7586 200.801 17.7165C201.887 18.6745 202.398 20.0794 202.398 22.0591V33.0433H199.907ZM194.671 30.6165C195.948 30.6165 196.97 30.2334 197.736 29.5309C198.502 28.8284 198.885 27.8066 198.885 26.5294V25.1245L196.778 25.1883C195.118 25.2522 193.904 25.5076 193.138 26.0185C192.372 26.5294 191.988 27.2957 191.988 28.3175C191.988 29.0839 192.18 29.6586 192.627 30.0418C193.074 30.425 193.84 30.6165 194.671 30.6165ZM215.745 16.1839C216.447 16.1839 217.022 16.2477 217.469 16.3116L217.15 19.5685C216.639 19.4408 216.128 19.3769 215.617 19.3769C214.212 19.3769 213.063 19.824 212.169 20.7819C211.274 21.7398 210.827 22.8893 210.827 24.3581V33.0433H207.315V16.5032H210.061L210.508 19.4408H210.7C211.274 18.4829 211.977 17.6527 212.871 17.0779C213.765 16.5032 214.723 16.1839 215.745 16.1839ZM227.24 33.2987C224.749 33.2987 222.833 32.5962 221.556 31.1274C220.279 29.6586 219.576 27.5512 219.576 24.8052C219.576 21.9953 220.279 19.8878 221.62 18.3552C222.961 16.8225 224.941 16.12 227.495 16.12C229.219 16.12 230.816 16.4393 232.221 17.0779L231.135 19.8878C229.667 19.3131 228.453 18.9938 227.431 18.9938C224.558 18.9938 223.153 20.9096 223.153 24.6774C223.153 26.5294 223.536 27.9344 224.238 28.8923C224.941 29.8502 226.026 30.2972 227.368 30.2972C228.964 30.2972 230.433 29.9141 231.838 29.1477V32.2131C231.199 32.5962 230.561 32.8517 229.794 32.9794C229.028 33.1071 228.262 33.2987 227.24 33.2987ZM250.294 33.0433H246.781V22.8255C246.781 21.5482 246.526 20.5903 246.015 19.9517C245.504 19.3131 244.674 18.9938 243.588 18.9938C242.119 18.9938 241.034 19.4408 240.331 20.3349C239.629 21.2289 239.31 22.6977 239.31 24.7413V33.0433H235.797V9.73389H239.31V15.673C239.31 16.6309 239.246 17.6527 239.118 18.7383H239.373C239.884 17.972 240.523 17.3334 241.353 16.8864C242.183 16.4393 243.205 16.2477 244.355 16.2477C248.378 16.2477 250.358 18.2913 250.358 22.3146V33.0433H250.294Z" fill="black"/>
<path d="M36.6771 18.0356H23.3301C23.3939 18.355 23.5217 18.6743 23.5855 18.9297C24.0326 20.4624 24.288 22.0589 24.4157 23.7193C24.4796 24.3579 24.4796 25.0604 24.4796 25.699C24.4796 26.3376 24.4796 27.0401 24.4157 27.6787C24.288 29.3391 24.0326 30.9356 23.5855 32.4683C23.5217 32.7876 23.3939 33.1069 23.3301 33.3624H36.6771C40.8919 33.3624 44.2766 29.9138 44.2766 25.699C44.2766 21.4842 40.8919 18.0356 36.6771 18.0356Z" fill="#00A9E5"/>
<path d="M24.417 27.6787C24.4809 27.0401 24.4809 26.3376 24.4809 25.699C24.4809 25.0604 24.4809 24.3579 24.417 23.7193C24.2893 22.0589 24.0339 20.4624 23.5868 18.9297C23.523 18.6104 23.3953 18.2911 23.3314 18.0356H2.70419C1.93785 20.4624 1.55469 23.0168 1.55469 25.699C1.55469 28.3812 1.93785 30.9356 2.70419 33.3624H23.3314C23.3953 33.0431 23.523 32.7238 23.5868 32.4683C24.0339 30.9356 24.2893 29.3391 24.417 27.6787Z" fill="#353535"/>
<path d="M38.9759 35.917H22.372C21.8611 37.0665 21.2863 38.1521 20.6477 39.1739C19.6898 40.7705 18.5403 42.1754 17.2631 43.5165C16.8161 43.9635 16.369 44.3467 15.922 44.7937C15.0279 45.6239 14.0062 46.3264 12.9844 47.0289C17.0076 49.711 21.8611 51.2437 27.0339 51.2437C35.9106 51.2437 43.7017 46.7096 48.2997 39.8764C45.9368 37.4497 42.616 35.917 38.9759 35.917Z" fill="#00BFB3"/>
<path d="M20.6492 39.1739C21.2878 38.1521 21.8626 37.0665 22.3735 35.917H3.66211C5.64181 40.4511 8.89874 44.3467 13.0497 47.0289C14.0715 46.3264 15.0294 45.6239 15.9873 44.7937C16.4344 44.4105 16.8814 43.9635 17.3284 43.5165C18.5418 42.2393 19.6913 40.7705 20.6492 39.1739Z" fill="#019B8F"/>
<path d="M17.264 7.88176C16.8169 7.43473 16.3699 7.05156 15.9229 6.60453C15.0288 5.77433 14.007 5.07186 12.9853 4.36938C8.89814 7.05156 5.64122 10.9471 3.59766 15.4813H22.309C21.7981 14.3317 21.2234 13.2461 20.5848 12.2243C19.6907 10.6278 18.5412 9.15898 17.264 7.88176Z" fill="#F9B110"/>
<path d="M27.0339 0.154541C21.8611 0.154541 17.0076 1.68721 12.9844 4.36939C14.0062 5.07186 14.9641 5.77434 15.922 6.60453C16.369 6.9877 16.8161 7.43473 17.2631 7.88176C18.5403 9.22285 19.6898 10.6278 20.6477 12.2243C21.2863 13.2461 21.8611 14.3318 22.372 15.4813H38.9759C42.616 15.4813 45.9368 13.9486 48.2997 11.5219C43.7017 4.6887 35.9106 0.154541 27.0339 0.154541Z" fill="#FED10A"/>
</g>
<defs>
<clipPath id="clip0_1603_14050">
<rect width="258.951" height="51.089" fill="white" transform="translate(259.682 51.2437) rotate(-180)"/>
</clipPath>
</defs>
</svg>
