<svg width="53" height="71" viewBox="0 0 53 71" fill="none" xmlns="http://www.w3.org/2000/svg">
  <g clip-path="url(#clip0_508_15257)">
  <path d="M0.974609 56.5053L1.39792 55.9127L21.4175 17.926L21.4598 17.5238L12.635 0.947041C11.8952 -0.441517 9.81359 -0.0903897 9.57114 1.46406L0.974609 56.5053Z" fill="#FFC24A"/>
  <path d="M1.22461 56.0532L1.54463 55.4289L21.3547 17.8402L12.5516 1.19608C11.82 -0.177915 9.96211 0.172414 9.72204 1.71051L1.22461 56.0532Z" fill="#FFA712"/>
  <path d="M27.8936 30.0623L34.4645 23.3329L27.8916 10.7852C27.2677 9.59747 25.5257 9.59388 24.9084 10.7852L21.3965 17.4822V18.0524L27.8934 30.0623H27.8936Z" fill="#F4BD62"/>
  <path d="M27.7753 29.782L34.1635 23.2396L27.7753 11.0754C27.1687 9.9207 25.695 9.79967 25.0949 10.9577L21.5647 17.7587L21.459 18.1065L27.7753 29.782Z" fill="#FFA50E"/>
  <path d="M0.974609 56.5051L1.16642 56.3121L1.86349 56.0289L27.4806 30.5069L27.8052 29.6234L21.4147 17.4458L0.974609 56.5051Z" fill="#F6820C"/>
  <path d="M28.714 69.3763L51.8982 56.4464L45.2776 15.6721C45.0704 14.3964 43.5054 13.8921 42.5922 14.8067L0.974609 56.5051L24.0258 69.3753C24.7423 69.7753 25.5492 69.9854 26.3698 69.9856C27.1904 69.9858 27.9974 69.776 28.714 69.3763Z" fill="#FDE068"/>
  <path d="M51.6911 56.3379L45.1207 15.8732C44.9154 14.6071 43.6137 14.0833 42.7075 14.9911L1.23242 56.4257L24.0306 69.1683C24.7416 69.5653 25.5424 69.7738 26.3567 69.774C27.1711 69.7743 27.9719 69.5661 28.6831 69.1695L51.6912 56.3377L51.6911 56.3379Z" fill="#FCCA3F"/>
  <path d="M28.7136 68.9953C27.997 69.395 27.19 69.6047 26.3695 69.6045C25.5489 69.6044 24.742 69.3943 24.0256 68.9943L1.16004 56.3091L0.974609 56.5051L24.0256 69.3753C24.7421 69.7754 25.549 69.9855 26.3696 69.9856C27.1902 69.9858 27.9972 69.7761 28.7138 69.3763L51.898 56.4465L51.8412 56.0972L28.7138 68.9955L28.7136 68.9953Z" fill="#EEAB37"/>
  </g>
  <defs>
  <clipPath id="clip0_508_15257">
  <rect width="51.044" height="70" fill="white" transform="translate(0.974609 0.0710449)"/>
  </clipPath>
  </defs>
</svg>
