<svg width="87" height="71" viewBox="0 0 87 71" fill="none" xmlns="http://www.w3.org/2000/svg">
  <g clip-path="url(#clip0_508_15253)">
  <path d="M55.1983 19.3476H57.8526L65.4145 11.7857L65.7864 8.57725C51.7164 -3.84112 30.2376 -2.50303 17.8193 11.567C14.3665 15.4755 11.8617 20.1242 10.498 25.1557C11.3403 24.8094 12.2737 24.7547 13.1524 24.9953L28.2724 22.5014C28.2724 22.5014 29.0417 21.229 29.4392 21.3092C36.1661 13.9223 47.487 13.0619 55.253 19.3476H55.1983Z" fill="#EA4335"/>
  <path d="M76.1834 25.1557C74.4442 18.757 70.8784 13.0035 65.9162 8.60278L55.3063 19.2127C59.7873 22.8733 62.3395 28.3898 62.2301 34.176V36.061C67.4475 36.061 71.6733 40.2904 71.6733 45.5042C71.6733 50.7216 67.4439 54.9474 62.2301 54.9474H43.3401L41.4551 56.8579V68.1861L43.3401 70.0711H62.2301C73.0587 70.1549 82.666 63.1364 85.8818 52.7962C89.0903 42.4525 85.1526 31.2227 76.1834 25.1557Z" fill="#4285F4"/>
  <path d="M24.4258 69.9652H43.3158V54.8451H24.4258C23.0804 54.8451 21.7496 54.5571 20.5245 53.9956L17.8702 54.816L10.2573 62.3778L9.59375 65.0321C13.8632 68.2552 19.0734 69.9871 24.4258 69.9652Z" fill="#34A853"/>
  <path d="M24.4252 20.9118C13.9319 20.9737 4.63821 27.6934 1.29116 37.6361C-2.05589 47.5787 1.28022 58.5533 9.5968 64.9484L20.5531 53.9921C15.7987 51.8446 13.6876 46.2516 15.8352 41.4972C17.9827 36.7428 23.5757 34.6317 28.3301 36.7792C30.4229 37.7272 32.1001 39.4044 33.048 41.4972L44.0043 30.5409C39.3411 24.4484 32.0964 20.8862 24.4252 20.9118Z" fill="#FBBC05"/>
  </g>
  <defs>
  <clipPath id="clip0_508_15253">
  <rect width="86.9832" height="70" fill="white" transform="translate(0.00390625 0.0710449)"/>
  </clipPath>
  </defs>
</svg>
