<svg width="63" height="71" viewBox="0 0 63 71" fill="none" xmlns="http://www.w3.org/2000/svg">
  <g clip-path="url(#clip0_504_17088)">
  <path fill-rule="evenodd" clip-rule="evenodd" d="M37.8181 8.5501L52.1924 16.8496C52.6074 16.4105 53.0836 16.0337 53.6064 15.7307C56.5874 14.0168 60.3899 15.0344 62.1215 18.0157C63.8353 20.9969 62.8177 24.7992 59.8365 26.5308C59.3176 26.8296 58.7585 27.0522 58.1763 27.1918V43.7969C58.7522 43.9368 59.3052 44.1579 59.8187 44.4536C62.8177 46.1852 63.8353 49.9877 62.1037 52.9689C60.3899 55.9499 56.5697 56.9675 53.5884 55.2539C53.0108 54.9226 52.4905 54.5002 52.0476 54.003L37.7607 62.2515C37.97 62.885 38.0762 63.548 38.0755 64.2152C38.0755 67.6427 35.2908 70.4456 31.8454 70.4456C28.3999 70.4456 25.6153 67.6604 25.6153 64.2152C25.6153 63.6028 25.7032 63.0112 25.8673 62.4525L11.4968 54.1554C11.0864 54.5858 10.6169 54.9557 10.1023 55.2539C7.10333 56.9675 3.30086 55.9499 1.587 52.9689C-0.126608 49.9877 0.890963 46.1852 3.87198 44.4536C4.38553 44.1578 4.93854 43.9367 5.51439 43.7967V27.1918C4.93218 27.0522 4.37308 26.8296 3.85424 26.5308C0.872979 24.8172 -0.144593 20.9969 1.56926 18.0157C3.28312 15.0344 7.10308 14.0168 10.0843 15.7307C10.6042 16.032 11.0781 16.4065 11.4915 16.8426L25.87 8.54087C25.7005 7.96559 25.6147 7.3689 25.6153 6.76917C25.6153 3.3242 28.3999 0.539062 31.8454 0.539062C35.2908 0.539062 38.0755 3.32396 38.0755 6.76917C38.0755 7.38841 37.9855 7.98603 37.8181 8.5501ZM36.3205 11.1073L50.7291 19.4262C50.4997 20.2283 50.4339 21.0682 50.5356 21.8962C50.6374 22.7241 50.9046 23.5232 51.3214 24.2458C52.1985 25.7715 53.6273 26.783 55.2131 27.1772V43.803C55.1321 43.8227 55.0517 43.8443 54.9717 43.8672L36.1531 11.2738C36.21 11.2193 36.2659 11.1639 36.3205 11.1075V11.1073ZM27.5415 11.2774L8.72313 43.8703C8.64176 43.8468 8.55992 43.8249 8.47767 43.8047V27.1772C10.0634 26.783 11.4922 25.7715 12.3693 24.2458C12.787 23.5218 13.0544 22.7211 13.1558 21.8914C13.2571 21.0618 13.1902 20.2202 12.9592 19.417L27.3636 11.1005C27.4217 11.1605 27.481 11.2196 27.5415 11.2772V11.2774ZM33.5862 12.7538L52.4002 45.3394C51.9692 45.7507 51.5998 46.2219 51.3034 46.7386C51.0077 47.2521 50.7866 47.8051 50.6467 48.381H13.0445C12.9044 47.8051 12.6831 47.2521 12.3873 46.7386C12.0898 46.2255 11.7211 45.7571 11.2922 45.3475L30.1099 12.7553C30.674 12.9177 31.2583 12.9999 31.8454 12.9993C32.4498 12.9993 33.0338 12.9137 33.5862 12.7538ZM36.4527 60.018L50.7678 51.753C50.7249 51.6181 50.6865 51.4818 50.6528 51.3443H13.0364C13.0165 51.4252 12.9949 51.5054 12.9718 51.5853L27.3568 59.8909C27.9377 59.2869 28.6349 58.8067 29.4062 58.4791C30.1776 58.1516 31.0073 57.9835 31.8454 57.9851C32.7127 57.9836 33.5707 58.1637 34.3643 58.5138C35.1578 58.8639 35.8692 59.3764 36.4527 60.018V60.018Z" fill="#E535AB"/>
  </g>
  <defs>
  <clipPath id="clip0_504_17088">
  <rect width="62.216" height="70" fill="white" transform="translate(0.737305 0.535645)"/>
  </clipPath>
  </defs>
</svg>
