<svg width="65" height="71" viewBox="0 0 65 71" fill="none" xmlns="http://www.w3.org/2000/svg">
  <g clip-path="url(#clip0_504_17082)">
  <path d="M29.7726 1.42423C31.5008 0.435044 33.7517 0.430576 35.4784 1.42423C44.1651 6.33267 52.8545 11.2334 61.5397 16.1448C63.1733 17.065 64.266 18.883 64.2494 20.7653V50.2964C64.2615 52.2566 63.0609 54.1181 61.3374 55.0174C52.6793 59.8988 44.0256 64.7861 35.3689 69.6675C33.605 70.6761 31.3089 70.5984 29.6001 69.5072C27.0044 68.0024 24.4042 66.5051 21.8083 65.0019C21.2778 64.6856 20.6798 64.4339 20.3053 63.9196C20.6364 63.4733 21.2284 63.4177 21.7095 63.2228C22.793 62.8783 23.7881 62.3252 24.7835 61.7886C25.0352 61.6163 25.3425 61.6823 25.5838 61.8365C27.8035 63.1091 30.0035 64.4188 32.2306 65.6793C32.7057 65.9536 33.1868 65.5894 33.5929 65.363C42.0892 60.5611 50.5959 55.7772 59.0907 50.9738C59.4055 50.8224 59.5795 50.4883 59.5539 50.1435C59.5599 40.4018 59.5554 30.6584 59.5569 20.9167C59.5929 20.5255 59.3665 20.1659 59.0128 20.0058C50.3847 15.1467 41.761 10.2802 33.1344 5.41994C32.9849 5.31718 32.8079 5.26205 32.6265 5.26179C32.4451 5.26152 32.2679 5.31613 32.1181 5.41845C23.4915 10.2802 14.8693 15.1512 6.24272 20.01C5.89023 20.1703 5.65367 20.5241 5.69562 20.9167C5.69711 30.6584 5.69562 40.4018 5.69562 50.145C5.68067 50.3132 5.71762 50.482 5.8015 50.6286C5.88538 50.7752 6.01216 50.8925 6.16477 50.9649C8.46683 52.2703 10.7719 53.5665 13.0754 54.8675C14.3731 55.566 15.9665 55.981 17.3963 55.4459C18.658 54.9933 19.5425 53.7058 19.5184 52.3661C19.5303 42.6813 19.5124 32.995 19.5273 23.3116C19.4958 22.8817 19.9036 22.5265 20.3217 22.567C21.4278 22.5595 22.5353 22.5521 23.6414 22.5699C24.1031 22.5595 24.4209 23.0225 24.3638 23.4556C24.3593 33.2017 24.3757 42.9481 24.3563 52.6943C24.3593 55.2917 23.2922 58.118 20.8896 59.3889C17.9297 60.9222 14.2714 60.5971 11.3473 59.1268C8.81584 57.8633 6.40009 56.3722 3.9136 55.0187C2.1857 54.1243 0.99098 52.2554 1.00314 50.2966V20.7653C0.985023 18.8441 2.12116 16.993 3.80563 16.0863C12.4623 11.2009 21.1175 6.31182 29.7726 1.42423Z" fill="#8CC84B"/>
  <path d="M37.3248 21.8809C41.1003 21.6379 45.1422 21.737 48.5397 23.5969C51.1701 25.0222 52.6285 28.0136 52.6749 30.936C52.6014 31.3302 52.1893 31.5477 51.813 31.5206C50.7176 31.5191 49.6219 31.5355 48.5265 31.5132C48.0618 31.531 47.7918 31.1026 47.7334 30.6918C47.4187 29.2935 46.6561 27.9086 45.34 27.2342C43.3197 26.2227 40.9772 26.2736 38.7742 26.2947C37.166 26.3801 35.4366 26.5193 34.0741 27.4651C33.028 28.1814 32.7103 29.6276 33.0836 30.7923C33.4356 31.6286 34.401 31.8984 35.1908 32.1471C39.7408 33.3371 44.5624 33.2187 49.0255 34.7848C50.8733 35.4232 52.6808 36.6644 53.3133 38.5991C54.1407 41.192 53.778 44.2914 51.9332 46.3731C50.4371 48.0861 48.2582 49.0184 46.085 49.5248C43.1939 50.1694 40.1936 50.1858 37.2576 49.8996C34.4968 49.5849 31.6238 48.8595 29.4925 46.9785C27.6701 45.396 26.7799 42.9304 26.8683 40.5506C26.8894 40.1487 27.2895 39.8685 27.6745 39.9015C28.7777 39.8926 29.8808 39.8896 30.9839 39.903C31.4245 39.8715 31.7512 40.2523 31.7737 40.6675C31.9773 41.9998 32.478 43.398 33.6397 44.1879C35.8816 45.6343 38.6948 45.5353 41.2619 45.5757C43.3887 45.4814 45.7762 45.4529 47.5118 44.0472C48.4275 43.2454 48.6988 41.904 48.4513 40.75C48.1832 39.7757 47.164 39.3216 46.2888 39.0248C41.7971 37.6039 36.9217 38.1195 32.4735 36.5127C30.6676 35.8745 28.9214 34.6679 28.2276 32.8126C27.2595 30.1869 27.7031 26.9391 29.7413 24.9277C31.7286 22.927 34.5973 22.1565 37.3248 21.8807V21.8809Z" fill="#8CC84B"/>
  </g>
  <defs>
  <clipPath id="clip0_504_17082">
  <rect width="63.56" height="70" fill="white" transform="translate(0.853516 0.535645)"/>
  </clipPath>
  </defs>
</svg>
