<svg width="69" height="71" viewBox="0 0 69 71" fill="none" xmlns="http://www.w3.org/2000/svg">
  <g clip-path="url(#clip0_504_17094)">
  <path d="M67.8202 42.4482C67.4133 41.2157 66.3472 40.3572 64.9685 40.1512C64.3185 40.0542 63.574 40.0955 62.693 40.2771C61.1574 40.594 60.0181 40.7146 59.1867 40.7379C62.325 35.4394 64.8768 29.3972 66.3459 23.7095C68.7214 14.5126 67.452 10.3228 65.9686 8.42767C62.0429 3.41151 56.3154 0.716774 49.4057 0.634321C45.7197 0.589249 42.4838 1.31702 40.7958 1.84037C39.2241 1.56305 37.5342 1.40822 35.761 1.37959C32.4372 1.32656 29.5004 2.05115 26.991 3.54036C25.6017 3.07055 23.372 2.40827 20.7971 1.98566C14.7411 0.991444 9.86019 1.76614 6.29002 4.28827C1.96689 7.34198 -0.0371918 12.6477 0.333453 20.0579C0.451168 22.4106 1.76725 29.569 3.83947 36.3578C5.03041 40.2599 6.30036 43.5003 7.61405 45.9898C9.47708 49.5199 11.4706 51.5988 13.7085 52.3454C14.9628 52.7632 17.2418 53.0559 19.6388 51.0595C19.9426 51.4275 20.348 51.7931 20.8859 52.1327C21.5692 52.5636 22.4046 52.9156 23.2389 53.1243C26.2457 53.8759 29.0621 53.688 31.465 52.6343C31.4798 53.0617 31.4912 53.47 31.5008 53.8226C31.5167 54.3945 31.5326 54.9553 31.5535 55.4797C31.6959 59.0255 31.9371 61.7825 32.6519 63.7115C32.6912 63.8176 32.7439 63.9793 32.7996 64.1508C33.1562 65.2426 33.7525 67.0704 35.2695 68.5018C36.8404 69.9847 38.7405 70.4393 40.4808 70.4393C41.3536 70.4393 42.1863 70.3248 42.9168 70.1684C45.5203 69.6103 48.4772 68.7603 50.6163 65.7146C52.6386 62.8353 53.6217 58.4986 53.7996 51.6656C53.8227 51.4723 53.8439 51.2878 53.8643 51.112L53.9067 50.7509L54.3832 50.7928L54.5059 50.801C57.1577 50.9219 60.4002 50.3596 62.3915 49.4346C63.965 48.7044 69.0075 46.0423 67.8202 42.4482" fill="black"/>
  <path d="M63.2857 43.147C55.4009 44.7736 54.8587 42.104 54.8587 42.104C63.1836 29.7511 66.6639 14.0708 63.6609 10.2331C55.4674 -0.235359 41.2846 4.71559 41.0478 4.84391L40.9717 4.85769C39.4139 4.53424 37.6707 4.34176 35.7111 4.30968C32.1436 4.25135 29.4372 5.24504 27.3835 6.80238C27.3835 6.80238 2.08266 -3.62074 3.25955 19.9112C3.50983 24.9173 10.4349 57.7904 18.6946 47.8612C21.7136 44.2303 24.6307 41.1605 24.6307 41.1605C26.0794 42.1229 27.8138 42.6139 29.6321 42.4376L29.7734 42.3177C29.7294 42.7684 29.7495 43.2093 29.8298 43.7314C27.702 46.1088 28.3274 46.5261 24.0737 47.4018C19.7694 48.2889 22.2979 49.868 23.9488 50.281C25.9503 50.7813 30.5804 51.4903 33.7089 47.1107L33.5843 47.6104C34.4178 48.2783 35.0032 51.954 34.9051 55.2863C34.807 58.6184 34.7416 60.9062 35.3983 62.6931C36.0555 64.4801 36.7101 68.5007 42.3021 67.3026C46.9744 66.3012 49.3958 63.7064 49.7328 59.378C49.9717 56.301 50.5128 56.7559 50.5467 54.0047L50.9807 52.7024C51.481 48.5312 51.0603 47.1854 53.9387 47.8114L54.6387 47.8729C56.757 47.9691 59.5302 47.532 61.1578 46.7755C64.6622 45.1493 66.7408 42.4336 63.2852 43.147H63.2857" fill="#336791"/>
  <path d="M28.8647 22.1499C28.1542 22.051 27.5107 22.1425 27.1851 22.389C27.0022 22.5277 26.9455 22.6883 26.9301 22.7989C26.8893 23.0919 27.0945 23.4158 27.2207 23.5829C27.5775 24.0558 28.0988 24.3809 28.6147 24.4525C28.6895 24.4631 28.764 24.4678 28.8379 24.4678C29.6983 24.4678 30.4806 23.7979 30.5496 23.3034C30.6357 22.6841 29.7367 22.2713 28.8647 22.1501V22.1499ZM52.4036 22.1695C52.3357 21.6841 51.4719 21.5457 50.6521 21.6597C49.8334 21.7737 49.0397 22.1432 49.1059 22.6297C49.159 23.0081 49.8422 23.6539 50.6508 23.6539C50.7192 23.6539 50.7882 23.6494 50.8576 23.6396C51.3974 23.5648 51.7935 23.222 51.9817 23.0245C52.2681 22.7233 52.4341 22.3877 52.4036 22.1695" fill="white"/>
  <path d="M65.91 42.9622C65.6093 42.0531 64.6416 41.7606 63.0339 42.0926C58.2603 43.0778 56.5508 42.3953 55.9895 41.982C59.7 36.3296 62.7523 29.4967 64.399 23.1218C65.179 20.102 65.6099 17.2976 65.6451 15.0116C65.6841 12.5028 65.2567 10.6591 64.3754 9.53284C60.8222 4.99258 55.6072 2.55714 49.2946 2.49033C44.9548 2.44154 41.2881 3.55215 40.5773 3.86447C39.0804 3.49223 37.4485 3.2637 35.6719 3.23453C32.4141 3.18177 29.5979 3.96177 27.2664 5.55173C26.2536 5.17472 23.6363 4.27621 20.4355 3.76054C14.9018 2.86972 10.5044 3.54473 7.3664 5.7678C3.62204 8.42064 1.89343 13.1627 2.22828 19.8618C2.34096 22.1157 3.62522 29.0492 5.65184 35.6893C8.31953 44.4289 11.2195 49.3763 14.2705 50.3942C14.6276 50.5132 15.0394 50.5965 15.4935 50.5965C16.6065 50.5965 17.9711 50.0948 19.3909 48.388C21.1226 46.3106 22.9139 44.2837 24.7626 42.3097C25.962 42.9534 27.2797 43.3129 28.6273 43.349C28.63 43.3843 28.6334 43.4195 28.6366 43.4545C28.4046 43.7311 28.1775 44.0118 27.9552 44.2963C27.0214 45.4817 26.8271 45.7285 23.8214 46.3473C22.9664 46.5239 20.6956 46.9918 20.6622 48.5836C20.6261 50.3228 23.3465 51.0533 23.6565 51.1307C24.7366 51.4011 25.7772 51.5345 26.7696 51.5345C29.183 51.5345 31.3069 50.7412 33.0043 49.2064C32.952 55.4066 33.2105 61.5162 33.955 63.3776C34.5648 64.9015 36.0543 68.6257 40.7592 68.6255C41.4495 68.6255 42.2094 68.5451 43.0453 68.3659C47.9557 67.3134 50.0881 65.1431 50.9129 60.3584C51.3544 57.8012 52.1118 51.6951 52.4681 48.4198C53.22 48.6544 54.188 48.7618 55.2345 48.7615C57.417 48.7615 59.9354 48.2978 61.5147 47.5647C63.289 46.7407 66.4906 44.7189 65.91 42.9622V42.9622ZM54.2164 20.8295C54.2002 21.7965 54.0671 22.6743 53.9261 23.5906C53.7741 24.576 53.6172 25.5949 53.5777 26.8317C53.5387 28.0354 53.689 29.2868 53.8343 30.4971C54.1281 32.9415 54.4295 35.4581 53.2627 37.9412C53.0689 37.5978 52.8962 37.2429 52.7457 36.8784C52.6007 36.5268 52.2857 35.9621 51.8496 35.1805C50.1531 32.1379 46.1802 25.013 48.2139 22.1056C48.8198 21.2402 50.3572 20.3505 54.2164 20.8295V20.8295ZM49.5385 4.44828C55.1947 4.57315 59.6689 6.68911 62.8367 10.737C65.2663 13.8419 62.5909 27.9696 54.8458 40.1577C54.7679 40.0586 54.6896 39.9599 54.6109 39.8615L54.5128 39.7391C56.5142 36.4337 56.1229 33.1634 55.7745 30.264C55.6313 29.0741 55.4961 27.9503 55.5306 26.8945C55.5661 25.7757 55.7141 24.816 55.8572 23.888C56.033 22.7445 56.212 21.5613 56.1627 20.1665C56.1995 20.0201 56.2144 19.8473 56.195 19.6421C56.0691 18.3045 54.542 14.3014 51.4294 10.6782C49.7268 8.69637 47.2439 6.4786 43.8537 4.98277C45.3119 4.68052 47.3059 4.3987 49.5385 4.44828V4.44828ZM17.8884 47.1387C16.3242 49.0195 15.2441 48.6589 14.8888 48.5407C12.5743 47.7686 9.88854 42.8765 7.52071 35.119C5.47182 28.4066 4.27451 21.6567 4.1796 19.764C3.88054 13.778 5.33157 9.60628 8.49265 7.36438C13.6371 3.71627 22.0952 5.89983 25.4938 7.00726C25.445 7.05551 25.3941 7.10059 25.3459 7.14963C19.7687 12.7819 19.901 22.4049 19.9148 22.9932C19.9142 23.2202 19.9333 23.5415 19.9593 23.9835C20.0553 25.6021 20.234 28.6144 19.7568 32.0258C19.3135 35.1959 20.2907 38.2986 22.4374 40.5387C22.6577 40.7681 22.8893 40.9865 23.1313 41.193C22.1758 42.2164 20.099 44.4795 17.8884 47.1387V47.1387ZM23.8482 39.1868C22.118 37.3813 21.3321 34.87 21.6919 32.2962C22.1956 28.6926 22.0098 25.5541 21.9098 23.8679C21.8958 23.6319 21.8833 23.4251 21.8762 23.2621C22.6909 22.5396 26.4665 20.5167 29.1591 21.1336C30.3877 21.4149 31.1365 22.2517 31.4477 23.6908C33.0586 31.1416 31.6609 34.247 30.5378 36.7426C30.3063 37.2567 30.0876 37.7427 29.901 38.2453L29.7562 38.634C29.3898 39.6166 29.0489 40.5302 28.8376 41.3977C26.9981 41.3924 25.2088 40.6065 23.8482 39.1865V39.1868ZM24.1305 49.235C23.5934 49.1009 23.1103 48.8678 22.8269 48.6746C23.0637 48.5632 23.4849 48.4116 24.2156 48.261C27.7516 47.5332 28.2978 47.0194 29.4903 45.5053C29.7636 45.1579 30.0736 44.7645 30.5028 44.2852L30.5033 44.2846C31.1425 43.5688 31.435 43.6902 31.9652 43.9103C32.395 44.0879 32.8136 44.6266 32.9833 45.2195C33.0636 45.4994 33.1538 46.0307 32.8587 46.4443C30.3676 49.9323 26.7375 49.8875 24.1305 49.235V49.235ZM42.636 66.4554C38.3102 67.3823 36.7786 65.1751 35.7692 62.6519C35.1178 61.023 34.7976 53.6775 35.0248 45.5654C35.0277 45.4575 35.0123 45.3533 34.9826 45.2552C34.9561 45.0615 34.9157 44.87 34.8617 44.682C34.524 43.5017 33.7007 42.5144 32.7131 42.105C32.3208 41.9425 31.6007 41.6442 30.7353 41.8656C30.9198 41.1052 31.2398 40.2465 31.5869 39.3167L31.7325 38.9257C31.8963 38.4848 32.102 38.0279 32.3194 37.5444C33.4947 34.9334 35.1043 31.3571 33.3574 23.278C32.7031 20.2518 30.5179 18.774 27.2054 19.1174C25.2197 19.3228 23.4028 20.1241 22.4966 20.5835C22.3017 20.6821 22.1235 20.7776 21.957 20.8704C22.21 17.8214 23.1655 12.1234 26.7399 8.51821C28.9905 6.24874 31.9878 5.12779 35.6396 5.18824C42.8351 5.30595 47.4493 8.99861 50.0534 12.0759C52.2974 14.7274 53.5125 17.3986 53.9974 18.8393C50.3506 18.4683 47.8703 19.1882 46.6131 20.9857C43.8778 24.8958 48.1095 32.4847 50.1433 36.132C50.5163 36.8004 50.8382 37.3781 50.9394 37.6236C51.6017 39.2287 52.4591 40.3003 53.0851 41.0824C53.277 41.3221 53.4632 41.5546 53.6047 41.7577C52.5002 42.0761 50.5163 42.8119 50.6971 46.4894C50.5513 48.3347 49.5144 56.974 48.9876 60.0264C48.2922 64.059 46.8083 65.5609 42.636 66.4557V66.4554ZM60.6921 45.7927C59.5626 46.3168 57.6725 46.71 55.8771 46.7946C53.894 46.8874 52.8844 46.5724 52.6468 46.3786C52.5355 44.0868 53.3884 43.8474 54.2911 43.594C54.433 43.5542 54.5714 43.5152 54.705 43.4686C54.788 43.5362 54.8789 43.6033 54.9786 43.669C56.5725 44.721 59.4155 44.8345 63.4292 44.006L63.4732 43.9972C62.9318 44.5034 62.0055 45.1826 60.6921 45.7927Z" fill="white"/>
  </g>
  <defs>
  <clipPath id="clip0_504_17094">
  <rect width="67.872" height="70" fill="white" transform="translate(0.210938 0.535645)"/>
  </clipPath>
  </defs>
</svg>
