<svg width="71" height="71" viewBox="0 0 71 71" fill="none" xmlns="http://www.w3.org/2000/svg">
  <g clip-path="url(#clip0_506_13770)">
  <path d="M35.3458 0.864746C17.5488 0.864746 18.66 8.58259 18.66 8.58259L18.6797 16.5785H35.6631V18.9791H11.9342C11.9342 18.9791 0.545898 17.6875 0.545898 35.6446C0.545898 53.6022 10.4859 52.9653 10.4859 52.9653H16.4181V44.6323C16.4181 44.6323 16.0983 34.6923 26.1994 34.6923H43.0439C43.0439 34.6923 52.5076 34.8452 52.5076 25.5459V10.1701C52.5076 10.1701 53.9449 0.864746 35.3458 0.864746ZM25.9812 6.24184C26.3825 6.24148 26.7799 6.32026 27.1508 6.47368C27.5216 6.62709 27.8586 6.85213 28.1424 7.13591C28.4262 7.41969 28.6512 7.75665 28.8046 8.1275C28.958 8.49835 29.0368 8.89581 29.0364 9.29714C29.0368 9.69847 28.958 10.0959 28.8046 10.4668C28.6512 10.8376 28.4262 11.1746 28.1424 11.4584C27.8586 11.7421 27.5216 11.9672 27.1508 12.1206C26.7799 12.274 26.3825 12.3528 25.9812 12.3524C25.5798 12.3528 25.1824 12.274 24.8115 12.1206C24.4407 11.9672 24.1037 11.7421 23.8199 11.4584C23.5361 11.1746 23.3111 10.8376 23.1577 10.4668C23.0043 10.0959 22.9255 9.69847 22.9259 9.29714C22.9255 8.89581 23.0043 8.49835 23.1577 8.1275C23.3111 7.75665 23.5361 7.41969 23.8199 7.13591C24.1037 6.85213 24.4407 6.62709 24.8115 6.47368C25.1824 6.32026 25.5798 6.24148 25.9812 6.24184Z" fill="url(#paint0_linear_506_13770)"/>
  <path d="M35.8509 70.6048C53.6479 70.6048 52.5367 62.8869 52.5367 62.8869L52.5169 54.8913H35.5333V52.4907H59.2622C59.2622 52.4907 70.6505 53.7823 70.6505 35.8247C70.6505 17.8674 60.7105 18.5043 60.7105 18.5043H54.7784V26.837C54.7784 26.837 55.0982 36.777 44.997 36.777H28.1526C28.1526 36.777 18.6888 36.6241 18.6888 45.9236V61.2997C18.6888 61.2997 17.2518 70.6048 35.8506 70.6048H35.8509ZM45.2155 65.2282C44.8142 65.2286 44.4167 65.1498 44.0459 64.9964C43.6751 64.843 43.3381 64.6179 43.0543 64.3341C42.7705 64.0504 42.5455 63.7134 42.3921 63.3426C42.2387 62.9717 42.1599 62.5743 42.1602 62.1729C42.1598 61.7716 42.2386 61.3741 42.392 61.0032C42.5454 60.6323 42.7704 60.2953 43.0542 60.0115C43.338 59.7277 43.675 59.5027 44.0458 59.3492C44.4167 59.1958 44.8142 59.117 45.2155 59.1174C45.6169 59.117 46.0143 59.1958 46.3852 59.3492C46.756 59.5026 47.093 59.7276 47.3768 60.0114C47.6605 60.2952 47.8856 60.6322 48.039 61.003C48.1924 61.3739 48.2712 61.7713 48.2708 62.1727C48.2712 62.574 48.1924 62.9714 48.039 63.3423C47.8856 63.7131 47.6605 64.0501 47.3768 64.3339C47.093 64.6177 46.756 64.8427 46.3852 64.9961C46.0143 65.1495 45.6169 65.2283 45.2155 65.2279V65.2282Z" fill="url(#paint1_linear_506_13770)"/>
  </g>
  <defs>
  <linearGradient id="paint0_linear_506_13770" x1="7.28295" y1="7.13747" x2="42.0248" y2="41.5327" gradientUnits="userSpaceOnUse">
  <stop stop-color="#387EB8"/>
  <stop offset="1" stop-color="#366994"/>
  </linearGradient>
  <linearGradient id="paint1_linear_506_13770" x1="28.6072" y1="29.2238" x2="65.9159" y2="64.493" gradientUnits="userSpaceOnUse">
  <stop stop-color="#FFE052"/>
  <stop offset="1" stop-color="#FFC331"/>
  </linearGradient>
  <clipPath id="clip0_506_13770">
  <rect width="70.2811" height="70" fill="white" transform="translate(0.505859 0.844971)"/>
  </clipPath>
  </defs>
</svg>
