<svg width="62" height="71" viewBox="0 0 62 71" fill="none" xmlns="http://www.w3.org/2000/svg">
  <g clip-path="url(#clip0_504_17085)">
  <path d="M61.8461 35.5418C61.8461 31.4722 56.7497 27.6155 48.9361 25.2238C50.7392 17.26 49.9378 10.9239 46.4067 8.89538C45.5928 8.41955 44.6411 8.19416 43.6018 8.19416V10.9865C44.1778 10.9865 44.6411 11.0992 45.0293 11.3121C46.7322 12.2888 47.471 16.0078 46.895 20.7911C46.7573 21.9682 46.5319 23.2078 46.2564 24.4725C43.8021 23.8715 41.1225 23.4082 38.3051 23.1076C36.6146 20.7911 34.8616 18.6874 33.096 16.8467C37.1781 13.0526 41.0098 10.974 43.6143 10.974V8.18164C40.1708 8.18164 35.663 10.6359 31.105 14.8933C26.5471 10.661 22.0392 8.23173 18.5957 8.23173V11.0241C21.1877 11.0241 25.0319 13.0902 29.1141 16.8593C27.361 18.7 25.6079 20.7911 23.9425 23.1076C21.1126 23.4082 18.4329 23.8715 15.9787 24.485C15.6907 23.2329 15.4778 22.0182 15.3275 20.8537C14.739 16.0704 15.4653 12.3514 17.1557 11.3622C17.5314 11.1368 18.0197 11.0366 18.5957 11.0366V8.24425C17.5439 8.24425 16.5922 8.46964 15.7658 8.94547C12.2472 10.974 11.4583 17.2975 13.274 25.2363C5.4854 27.6405 0.414062 31.4847 0.414062 35.5418C0.414062 39.6114 5.51044 43.4681 13.324 45.8598C11.5209 53.8236 12.3223 60.1597 15.8535 62.1882C16.6674 62.664 17.619 62.8894 18.6709 62.8894C22.1144 62.8894 26.6222 60.4351 31.1802 56.1777C35.7381 60.4101 40.2459 62.8393 43.6894 62.8393C44.7413 62.8393 45.6929 62.6139 46.5194 62.1381C50.038 60.1096 50.8269 53.7861 49.0112 45.8472C56.7747 43.4556 61.8461 39.5989 61.8461 35.5418V35.5418ZM45.5427 27.1897C45.0794 28.8051 44.5034 30.4705 43.8522 32.1359C43.3388 31.1341 42.8004 30.1324 42.2119 29.1306C41.6359 28.1289 41.0223 27.1522 40.4087 26.2005C42.1868 26.4635 43.9023 26.789 45.5427 27.1897ZM39.8077 40.5255C38.831 42.2159 37.8292 43.8187 36.7899 45.3088C34.9242 45.4716 33.0334 45.5592 31.1301 45.5592C29.2393 45.5592 27.3485 45.4716 25.4952 45.3213C24.4559 43.8312 23.4417 42.241 22.465 40.563C21.5133 38.9227 20.6493 37.2573 19.8604 35.5794C20.6368 33.9014 21.5133 32.2235 22.4525 30.5832C23.4292 28.8927 24.4309 27.2899 25.4702 25.7998C27.336 25.637 29.2267 25.5494 31.1301 25.5494C33.0209 25.5494 34.9116 25.637 36.7649 25.7873C37.8042 27.2774 38.8185 28.8677 39.7952 30.5456C40.7468 32.1859 41.6108 33.8513 42.3997 35.5293C41.6108 37.2072 40.7468 38.8851 39.8077 40.5255ZM43.8522 38.8976C44.5284 40.5756 45.1044 42.2535 45.5802 43.8813C43.9399 44.282 42.2119 44.6201 40.4212 44.8831C41.0348 43.9189 41.6484 42.9297 42.2244 41.9154C42.8004 40.9136 43.3388 39.8994 43.8522 38.8976ZM31.1551 52.2584C29.9906 51.0563 28.8261 49.7165 27.674 48.2514C28.801 48.3015 29.953 48.3391 31.1175 48.3391C32.2946 48.3391 33.4591 48.314 34.5986 48.2514C33.4716 49.7165 32.3071 51.0563 31.1551 52.2584ZM21.8389 44.8831C20.0608 44.6201 18.3453 44.2945 16.7049 43.8938C17.1682 42.2785 17.7442 40.6131 18.3954 38.9477C18.9088 39.9495 19.4472 40.9512 20.0357 41.953C20.6243 42.9547 21.2253 43.9314 21.8389 44.8831ZM31.0925 18.8252C32.257 20.0273 33.4216 21.3671 34.5736 22.8322C33.4466 22.7821 32.2946 22.7445 31.1301 22.7445C29.953 22.7445 28.7885 22.7695 27.649 22.8322C28.776 21.3671 29.9405 20.0273 31.0925 18.8252ZM21.8264 26.2005C21.2128 27.1647 20.5992 28.1539 20.0232 29.1682C19.4472 30.1699 18.9088 31.1717 18.3954 32.1734C17.7192 30.4955 17.1432 28.8176 16.6674 27.1897C18.3077 26.8016 20.0357 26.4635 21.8264 26.2005V26.2005ZM10.4941 41.8778C6.0614 39.987 3.1939 37.5077 3.1939 35.5418C3.1939 33.5759 6.0614 31.084 10.4941 29.2058C11.571 28.7425 12.748 28.3292 13.9627 27.9411C14.6764 30.3953 15.6155 32.9498 16.7801 35.5668C15.6281 38.1714 14.7015 40.7133 14.0002 43.1551C12.7606 42.7669 11.5835 42.3411 10.4941 41.8778ZM17.2309 59.7715C15.5279 58.7948 14.7891 55.0758 15.3651 50.2925C15.5028 49.1154 15.7282 47.8758 16.0037 46.6111C18.458 47.2121 21.1377 47.6754 23.9551 47.9759C25.6455 50.2925 27.3986 52.3961 29.1641 54.2369C25.082 58.031 21.2504 60.1096 18.6458 60.1096C18.0823 60.0971 17.6065 59.9844 17.2309 59.7715V59.7715ZM46.9326 50.2299C47.5211 55.0132 46.7948 58.7322 45.1044 59.7214C44.7287 59.9468 44.2404 60.047 43.6644 60.047C41.0724 60.047 37.2282 57.9809 33.1461 54.2118C34.8991 52.3711 36.6522 50.28 38.3176 47.9634C41.1475 47.6629 43.8272 47.1996 46.2815 46.586C46.5695 47.8507 46.7948 49.0653 46.9326 50.2299V50.2299ZM51.7535 41.8778C50.6766 42.3411 49.4996 42.7544 48.2849 43.1425C47.5712 40.6883 46.6321 38.1338 45.4675 35.5167C46.6195 32.9122 47.5462 30.3703 48.2474 27.9285C49.487 28.3167 50.6641 28.7425 51.766 29.2058C56.1987 31.0966 59.0662 33.5759 59.0662 35.5418C59.0537 37.5077 56.1862 39.9996 51.7535 41.8778V41.8778Z" fill="#61DAFB"/>
  <path d="M31.118 41.2643C34.2784 41.2643 36.8405 38.7022 36.8405 35.5418C36.8405 32.3814 34.2784 29.8193 31.118 29.8193C27.9576 29.8193 25.3955 32.3814 25.3955 35.5418C25.3955 38.7022 27.9576 41.2643 31.118 41.2643Z" fill="#61DAFB"/>
  </g>
  <defs>
  <clipPath id="clip0_504_17085">
  <rect width="61.432" height="70" fill="white" transform="translate(0.414062 0.535645)"/>
  </clipPath>
  </defs>
</svg>
