<svg width="99" height="74" viewBox="0 0 99 74" fill="none" xmlns="http://www.w3.org/2000/svg">
<path d="M84.8802 42.7291C81.4755 42.7469 78.5164 43.5669 76.0387 44.779C75.1296 42.9786 74.2205 41.3743 74.06 40.1978C73.8818 38.8253 73.6679 37.9875 73.8818 36.3475C74.0957 34.7076 75.0583 32.3724 75.0405 32.1942C75.0226 32.0159 74.8265 31.1781 72.8657 31.1603C70.9049 31.1424 69.2115 31.5346 69.0154 32.0515C68.8193 32.5685 68.445 33.745 68.1954 34.9571C67.8567 36.7397 64.2738 43.1034 62.2239 46.4368C61.5643 45.1355 60.9939 43.9947 60.8691 43.0856C60.6909 41.713 60.477 40.8752 60.6909 39.2353C60.9048 37.5953 61.8673 35.2602 61.8495 35.0819C61.8317 34.9036 61.6356 34.0658 59.6748 34.048C57.714 34.0302 56.0206 34.4224 55.8245 34.9393C55.6284 35.4562 55.4145 36.6684 55.0045 37.8449C54.5945 39.0214 49.8351 49.6454 48.5873 52.3905C47.9456 53.7988 47.393 54.9218 47.0008 55.6883C47.0008 55.6883 46.983 55.7417 46.9295 55.8309C46.5908 56.4904 46.3947 56.8469 46.3947 56.8469C46.3947 56.8469 46.3947 56.8469 46.3947 56.8648C46.1274 57.346 45.8421 57.7917 45.6995 57.7917C45.5926 57.7917 45.3965 56.5082 45.7352 54.7613C46.4482 51.0714 48.1416 45.3316 48.1238 45.1355C48.1238 45.0286 48.4447 44.0303 47.0186 43.5134C45.6282 42.9965 45.1291 43.8521 45.0043 43.8521C44.8796 43.8521 44.7904 44.1551 44.7904 44.1551C44.7904 44.1551 46.3413 37.7023 41.8314 37.7023C39.0149 37.7023 35.129 40.7861 33.2038 43.5669C31.9917 44.2264 29.407 45.6346 26.644 47.1498C25.5923 47.7381 24.5049 48.3263 23.4889 48.8789C23.4176 48.8076 23.3463 48.7185 23.275 48.6472C17.8203 42.8182 7.73105 38.7005 8.15886 30.8751C8.3193 28.023 9.2997 20.5362 27.5353 11.4452C42.5444 4.04757 54.4876 6.09751 56.5553 10.643C59.5144 17.1315 50.1559 29.1816 34.6477 30.9285C28.7296 31.5881 25.6279 29.3064 24.8436 28.4508C24.0236 27.5595 23.8989 27.506 23.5958 27.6843C23.0967 27.9517 23.4176 28.7538 23.5958 29.2173C24.0593 30.4294 25.9666 32.5685 29.193 33.6202C32.0451 34.5471 38.9793 35.0641 47.3751 31.8198C56.7692 28.1834 64.1134 18.0763 61.9565 9.60915C59.7996 1.01722 45.5391 -1.81705 32.0451 2.97803C24.0236 5.83013 15.3247 10.3222 9.06797 16.169C1.6347 23.1209 0.458214 29.1638 0.939505 31.695C2.66859 40.6791 15.0574 46.5259 20.0129 50.8575C19.7633 51.0001 19.5316 51.1249 19.3355 51.2319C16.8577 52.4618 7.41019 57.3995 5.05721 62.6224C2.38338 68.5405 5.48503 72.783 7.53497 73.3534C13.8987 75.1181 20.4407 71.9452 23.9523 66.7045C27.464 61.4638 27.0362 54.6544 25.414 51.5349C25.3962 51.4993 25.3784 51.4636 25.3427 51.428C25.9844 51.0536 26.644 50.6615 27.2857 50.2871C28.5513 49.5384 29.7991 48.8432 30.8687 48.2728C30.2626 49.9306 29.8169 51.9092 29.603 54.7613C29.3357 58.1125 30.7082 62.462 32.5086 64.1732C33.3108 64.9219 34.2555 64.9397 34.8616 64.9397C36.965 64.9397 37.9098 63.1928 38.9615 61.1251C40.2449 58.5938 41.4036 55.6526 41.4036 55.6526C41.4036 55.6526 39.9597 63.6028 43.8813 63.6028C45.3074 63.6028 46.7512 61.749 47.393 60.8042V60.822C47.393 60.822 47.4286 60.7686 47.4999 60.6438C47.6425 60.412 47.7317 60.2694 47.7317 60.2694V60.2338C48.3021 59.2356 49.5855 56.9717 51.4929 53.2105C53.9528 48.3619 56.3236 42.3013 56.3236 42.3013C56.3236 42.3013 56.5375 43.7808 57.2683 46.2407C57.6962 47.6846 58.5874 49.2711 59.3005 50.8041C58.73 51.6062 58.3735 52.0518 58.3735 52.0518C58.3735 52.0518 58.3735 52.0518 58.3914 52.0697C57.9279 52.6757 57.4288 53.3353 56.8762 53.977C54.9332 56.2943 52.6159 58.9503 52.295 59.7168C51.9207 60.6259 52.0098 61.2855 52.7228 61.8203C53.2398 62.2124 54.1667 62.2659 55.1114 62.2124C56.8584 62.0877 58.0883 61.6598 58.6944 61.3925C59.6391 61.0538 60.7443 60.5368 61.7782 59.7703C63.6856 58.3621 64.8442 56.3478 64.7373 53.6918C64.6838 52.2301 64.2025 50.7684 63.6143 49.3958C63.7925 49.1463 63.9529 48.8967 64.1312 48.6472C67.1437 44.2442 69.4789 39.4135 69.4789 39.4135C69.4789 39.4135 69.6928 40.893 70.4236 43.353C70.7801 44.6008 71.511 45.9555 72.1527 47.2746C69.3184 49.5741 67.5715 52.2479 66.9476 53.9948C65.8246 57.2391 66.6981 58.7008 68.3559 59.0395C69.1045 59.1999 70.1741 58.8434 70.9584 58.5047C71.9566 58.1838 73.1331 57.6313 74.2561 56.8113C76.1635 55.4031 77.9995 53.4422 77.8925 50.7862C77.8391 49.5741 77.5182 48.3798 77.0726 47.2211C79.479 46.2229 82.5807 45.6703 86.5379 46.1338C95.0229 47.132 96.6985 52.4262 96.3777 54.6544C96.0568 56.8826 94.2743 58.0947 93.686 58.4691C93.0978 58.8434 92.9017 58.9682 92.9552 59.2356C93.0265 59.6277 93.3117 59.6099 93.8108 59.5386C94.506 59.4138 98.2672 57.7382 98.4276 53.6383C98.695 48.3976 93.7038 42.6756 84.8802 42.7291ZM19.4246 64.7971C16.6082 67.8631 12.6866 69.0218 10.9931 68.0414C9.17492 66.9897 9.88795 62.462 13.3461 59.2177C15.4495 57.2391 18.159 55.4031 19.9594 54.28C20.3694 54.0305 20.9755 53.674 21.7063 53.2283C21.8311 53.157 21.9024 53.1214 21.9024 53.1214C22.045 53.0323 22.1876 52.9431 22.3302 52.854C23.5958 57.4886 22.3837 61.5707 19.4246 64.7971ZM39.924 50.8575C38.9436 53.2462 36.8937 59.3603 35.6459 59.0216C34.5764 58.7364 33.9168 54.1018 35.432 49.5206C36.1985 47.2211 37.8206 44.476 38.7654 43.4064C40.2984 41.6952 41.9918 41.1248 42.4018 41.82C42.9187 42.7291 40.5301 49.3602 39.924 50.8575ZM56.8405 58.9503C56.4305 59.1643 56.0384 59.3069 55.8601 59.1999C55.7353 59.1286 56.0384 58.8434 56.0384 58.8434C56.0384 58.8434 58.1596 56.5617 58.9974 55.5278C59.4787 54.9218 60.0491 54.2087 60.6552 53.4066V53.6383C60.6552 56.3656 58.017 58.2017 56.8405 58.9503ZM69.8889 55.9735C69.5858 55.7596 69.6393 55.0465 70.6554 52.8183C71.0475 51.9449 71.9744 50.4832 73.5609 49.075C73.7392 49.6454 73.864 50.198 73.8461 50.7149C73.8283 54.1553 71.3684 55.4387 69.8889 55.9735Z" fill="#CD6799"/>
</svg>
