<svg width="234" height="71" viewBox="0 0 234 71" fill="none" xmlns="http://www.w3.org/2000/svg">
  <g clip-path="url(#clip0_510_13257)">
  <path fill-rule="evenodd" clip-rule="evenodd" d="M41.8956 8.47403C40.9986 10.1651 39.2201 11.3169 37.1725 11.3169C34.2217 11.3169 31.8296 8.92482 31.8296 5.97401C31.8296 3.02321 34.2217 0.631104 37.1725 0.631104C39.2201 0.631104 40.9987 1.78294 41.8956 3.47403H53.9465H54.9993L55.735 4.22719L63.8865 12.5729H73.2021C74.1232 12.5729 74.928 13.071 75.3617 13.8125L80.9738 15.7734C85.1431 17.4581 88.0519 15.5795 88.0519 15.5795C88.0519 15.5795 98.3297 8.79224 103.275 8.79224C108.22 8.79224 110.547 11.7011 110.547 11.7011C110.547 11.7011 103.093 15.5795 99.8811 17.8096C97.6025 19.2397 96.0996 21.8092 96.0996 24.6938C96.0996 29.1418 99.6872 32.7415 104.147 32.7415C104.559 32.7415 106.596 32.4021 108.898 31.1901C109.496 30.9105 110.152 30.5995 110.835 30.2758L110.835 30.2754L110.836 30.2751C112.551 29.4623 114.434 28.5694 115.977 27.8935C119.055 26.536 121.309 28.96 121.309 28.96C128.687 36.3494 136 43.5644 136.758 44.313L136.761 44.3156L136.823 44.3768C138.205 45.7585 138.205 48.037 136.823 49.4187C135.441 50.8004 133.26 50.8004 131.878 49.4187C131.866 49.4066 125.939 43.5284 125.576 43.892C125.212 44.2556 130.896 50.3762 130.908 50.3883C132.205 51.7821 132.266 53.9759 130.908 55.3333C129.551 56.6908 127.357 56.715 125.963 55.4303C125.962 55.4303 125.879 55.3453 125.731 55.1943C124.519 53.9556 118.962 48.2757 118.594 48.643C118.231 49.0066 124 55.2121 124.024 55.2364C125.297 56.618 125.261 58.7391 123.927 60.0844C122.558 61.4539 120.352 61.4539 118.982 60.0844L118.973 60.0751L118.973 60.0751C118.705 59.7973 112.549 53.428 112.098 53.8789C111.638 54.3395 116.704 59.4541 116.752 59.5026C118.134 60.8843 118.134 63.1629 116.752 64.5446C115.371 65.9263 113.092 65.9263 111.71 64.5446C110.995 63.8295 109.868 62.5084 109.868 62.5084C110.268 59.9874 109.601 57.3452 107.735 55.4303C106.777 54.4485 105.553 53.7819 104.244 53.3941C103.917 52.0003 103.238 50.6792 102.208 49.6126C101.287 48.6673 100.172 47.9643 98.9115 47.5765C98.5721 46.3039 97.9177 45.1525 96.9723 44.1828C96.0512 43.2375 94.9361 42.6315 93.6756 42.2436C93.3363 40.971 92.6697 39.7227 91.7364 38.7531C88.6216 35.5534 82.9372 35.5897 79.5194 38.85C78.4771 39.856 77.762 41.1165 77.2893 42.4376C76.279 42.0275 75.2104 41.6466 74.3836 41.3648C74.0026 41.5996 73.5539 41.7351 73.0735 41.7351H59.6553L55.3336 45.7379L54.6147 46.4037H53.6348H42.5258C41.6374 48.1216 39.8443 49.2958 37.7769 49.2958C34.8261 49.2958 32.434 46.9037 32.434 43.9529C32.434 41.0021 34.8261 38.61 37.7769 38.61C39.8046 38.61 41.5685 39.7395 42.4736 41.4037H52.6549L56.9767 37.401L57.6956 36.7351H58.6754H72.9261V28.4593H57.2874L52.8492 32.4805L52.1347 33.1279H51.1706H23.4571C22.6022 34.9398 20.7587 36.1936 18.6224 36.1936C15.6716 36.1936 13.2795 33.8015 13.2795 30.8507C13.2795 27.8999 15.6716 25.5078 18.6224 25.5078C20.5787 25.5078 22.2895 26.5592 23.2204 28.1279H50.2064L54.6446 24.1066L55.3591 23.4593H56.3232H72.9261V17.5729H52.0976L46.3167 23.8319L45.5743 24.6357H44.4801H30.3604H29.3995L28.686 23.9921L22.912 18.7843L12.8961 18.7843C12.1065 20.7487 10.1835 22.1357 7.93666 22.1357C4.98585 22.1357 2.59375 19.7436 2.59375 16.7928C2.59375 13.842 4.98585 11.4499 7.93666 11.4499C9.77172 11.4499 11.3907 12.375 12.3527 13.7843L23.8729 13.7843L24.8338 13.7843L25.5473 14.4278L31.3213 19.6357H43.386L49.167 13.3766L49.9093 12.5729H51.0035H56.8972L52.8937 8.47403H41.8956ZM39.8085 5.97402C39.8085 7.42991 38.6282 8.61015 37.1723 8.61015C35.7164 8.61015 34.5362 7.42991 34.5362 5.97402C34.5362 4.51812 35.7164 3.33788 37.1723 3.33788C38.6282 3.33788 39.8085 4.51812 39.8085 5.97402ZM8.16968 19.465C9.62558 19.465 10.8058 18.2847 10.8058 16.8288C10.8058 15.3729 9.62558 14.1927 8.16968 14.1927C6.71378 14.1927 5.53354 15.3729 5.53354 16.8288C5.53354 18.2847 6.71378 19.465 8.16968 19.465ZM21.3213 30.7366C21.3213 32.1925 20.1411 33.3727 18.6852 33.3727C17.2293 33.3727 16.049 32.1925 16.049 30.7366C16.049 29.2807 17.2293 28.1004 18.6852 28.1004C20.1411 28.1004 21.3213 29.2807 21.3213 30.7366ZM37.8654 46.602C39.3213 46.602 40.5015 45.4218 40.5015 43.9659C40.5015 42.51 39.3213 41.3297 37.8654 41.3297C36.4095 41.3297 35.2293 42.51 35.2293 43.9659C35.2293 45.4218 36.4095 46.602 37.8654 46.602ZM124.218 8.50135C123.333 8.56195 122.461 8.86496 121.503 9.374C117.609 11.442 104.431 18.931 102.01 20.3066C101.764 20.4467 101.629 20.5233 101.626 20.5245C99.4205 21.8213 98.6812 24.718 99.9781 26.9239C101.202 29.0085 103.844 29.7842 105.99 28.7661C106.208 28.657 113.759 24.7907 117.237 22.9485C120.946 20.985 123.249 23.2394 123.249 23.2394C123.249 23.2394 136.641 36.5957 140.411 40.2075C142.859 42.5588 146.216 44.1796 147.295 44.0463C147.977 43.962 150.315 43.5728 151.943 43.2979C152.365 43.6218 152.892 43.8143 153.465 43.8143H166.883L171.205 47.8171L171.924 48.483H172.904H184.013C184.901 50.2008 186.694 51.375 188.762 51.375C191.712 51.375 194.105 48.9829 194.105 46.0321C194.105 43.0813 191.712 40.6892 188.762 40.6892C186.734 40.6892 184.97 41.8187 184.065 43.483H173.884L169.562 39.4802L168.843 38.8143H167.863H153.597V30.5385H169.251L173.689 34.5598L174.404 35.2071H175.368H203.081C203.936 37.019 205.78 38.2728 207.916 38.2728C210.867 38.2728 213.259 35.8807 213.259 32.9299C213.259 29.9791 210.867 27.587 207.916 27.587C205.96 27.587 204.249 28.6385 203.318 30.2071H176.332L171.894 26.1858L171.179 25.5385H170.215H153.597V19.6521H174.441L180.222 25.9111L180.964 26.7149H182.058H196.178H197.139L197.853 26.0713L203.627 20.8635L213.642 20.8635C214.432 22.8279 216.355 24.2149 218.602 24.2149C221.553 24.2149 223.945 21.8228 223.945 18.872C223.945 15.9212 221.553 13.5291 218.602 13.5291C216.767 13.5291 215.148 14.4542 214.186 15.8635L202.666 15.8635H201.705L200.991 16.5071L195.217 21.7149H183.153L177.372 15.4558L176.629 14.6521H175.535H169.641L173.645 10.5532H184.643C185.54 12.2443 187.318 13.3961 189.366 13.3961C192.317 13.3961 194.709 11.004 194.709 8.05322C194.709 5.10241 192.317 2.71031 189.366 2.71031C187.318 2.71031 185.54 3.86215 184.643 5.55324H172.592H171.539L170.804 6.30639L162.652 14.6521H153.336C152.346 14.6521 151.491 15.2277 151.086 16.0625C148.341 16.7707 143.931 17.878 140.895 18.4883C139.453 18.7792 137.696 17.8096 137.696 17.8096C137.696 17.8096 133.793 14.4765 129.454 10.8284C127.26 8.97404 125.697 8.39227 124.218 8.50135ZM85.7249 40.1105C84.4886 40.1469 83.2281 40.6074 82.2343 41.5649C80.2466 43.4799 78.9013 47.0068 80.6829 49.0309C82.112 50.6656 83.7546 50.142 85.1573 49.695C85.4914 49.5885 85.8119 49.4863 86.1127 49.4187C86.013 49.7706 85.8651 50.1199 85.7154 50.4734C85.2103 51.6667 84.6846 52.9086 85.9188 54.4607C87.2097 56.1063 88.9572 55.5647 90.4058 55.1158C90.739 55.0126 91.0563 54.9142 91.3486 54.8485C91.2528 55.1864 91.1156 55.5283 90.976 55.8762L90.9759 55.8763C90.4795 57.1131 89.9533 58.4243 91.1547 59.8905C92.5623 61.6085 94.862 60.8633 96.5241 60.3248C96.6795 60.2744 96.8293 60.2259 96.9723 60.1813C96.8605 60.4703 96.7253 60.7651 96.5874 61.0655C95.933 62.4919 95.2198 64.0462 96.6814 65.7081C98.4509 67.72 102.535 66.7504 104.535 64.8354C106.523 62.9326 106.68 59.8662 104.923 58.0482C103.711 56.812 101.929 56.5574 100.269 57.0786C100.923 55.4182 100.742 53.5032 99.4933 52.2306C98.3782 51.0792 96.6935 50.8125 95.13 51.164C95.5664 49.6248 95.3846 47.9643 94.2574 46.8008C93.1423 45.6615 91.4577 45.3827 89.8942 45.7342C90.3305 44.195 90.1366 42.5345 89.0215 41.371C88.1368 40.462 86.9611 40.0741 85.7249 40.1105ZM189.366 10.6894C187.91 10.6894 186.73 9.50912 186.73 8.05322C186.73 6.59732 187.91 5.41708 189.366 5.41708C190.822 5.41708 192.002 6.59732 192.002 8.05322C192.002 9.50912 190.822 10.6894 189.366 10.6894ZM215.733 18.908C215.733 20.3639 216.913 21.5442 218.369 21.5442C219.825 21.5442 221.005 20.3639 221.005 18.908C221.005 17.4521 219.825 16.2719 218.369 16.2719C216.913 16.2719 215.733 17.4521 215.733 18.908ZM207.853 35.4519C206.397 35.4519 205.217 34.2717 205.217 32.8158C205.217 31.3599 206.397 30.1796 207.853 30.1796C209.309 30.1796 210.49 31.3599 210.49 32.8158C210.49 34.2717 209.309 35.4519 207.853 35.4519ZM186.037 46.0451C186.037 47.501 187.217 48.6812 188.673 48.6812C190.129 48.6812 191.309 47.501 191.309 46.0451C191.309 44.5892 190.129 43.409 188.673 43.409C187.217 43.409 186.037 44.5892 186.037 46.0451Z" fill="url(#paint0_radial_510_13257)"/>
  </g>
  <defs>
  <radialGradient id="paint0_radial_510_13257" cx="0" cy="0" r="1" gradientUnits="userSpaceOnUse" gradientTransform="translate(113.269 33.7267) rotate(90) scale(65.8428 220.186)">
  <stop stop-color="#01B3D7"/>
  <stop offset="1" stop-color="#0087A4"/>
  </radialGradient>
  <clipPath id="clip0_510_13257">
  <rect width="232.871" height="70" fill="white" transform="translate(0.847656 0.0710449)"/>
  </clipPath>
  </defs>
</svg>
