<svg width="169" height="71" viewBox="0 0 169 71" fill="none" xmlns="http://www.w3.org/2000/svg">
  <g clip-path="url(#clip0_506_13871)">
  <path d="M12.3353 28.2851C12.3353 26.4711 13.8239 25.7731 16.2897 25.7731C19.8248 25.7731 24.2904 26.8433 27.8258 28.7505V17.8185C23.9649 16.2836 20.1505 15.6788 16.2897 15.6788C6.84631 15.6788 0.566406 20.6098 0.566406 28.8437C0.566406 41.6822 18.243 39.6357 18.243 45.1715C18.243 47.3109 16.3826 48.0089 13.7774 48.0089C9.91659 48.0089 4.98556 46.4271 1.07796 44.2874V55.3586C5.40422 57.2194 9.77693 58.0099 13.7774 58.0099C23.4531 58.0099 30.1052 53.2189 30.1052 44.8921C30.0587 31.0299 12.3353 33.4951 12.3353 28.2851ZM43.7813 6.37539L32.431 8.79413L32.3846 46.0549C32.3846 52.9399 37.5482 58.0099 44.4328 58.0099C48.2472 58.0099 51.0382 57.3123 52.5732 56.475V47.0319C51.085 47.6366 43.7349 49.7764 43.7349 42.8917V26.3779H52.5732V16.4697H43.7349L43.7813 6.37539ZM67.0405 19.9118L66.2961 16.4697H56.2482V57.1726H67.8778V29.5878C70.622 26.006 75.274 26.6572 76.7161 27.1687V16.4697C75.2276 15.9114 69.785 14.8879 67.0405 19.9118ZM79.5535 16.4697H91.2296V57.1726H79.5535V16.4697ZM79.5535 12.9343L91.2296 10.4223V0.979248L79.5535 3.44476V12.934V12.9343ZM115.512 15.6788C110.953 15.6788 108.022 17.8185 106.395 19.3074L105.789 16.4232H95.5558V70.6626L107.185 68.1974L107.232 55.0329C108.907 56.2424 111.372 57.9635 115.465 57.9635C123.792 57.9635 131.375 51.2649 131.375 36.5189C131.328 23.0286 123.653 15.6788 115.512 15.6788ZM112.721 47.7295C109.976 47.7295 108.348 46.7529 107.232 45.5433L107.185 28.2851C108.395 26.9362 110.069 26.006 112.721 26.006C116.954 26.006 119.885 30.7506 119.885 36.8444C119.885 43.0778 117 47.7295 112.721 47.7295ZM168.031 36.984C168.031 25.0754 162.262 15.6788 151.238 15.6788C140.166 15.6788 133.467 25.0758 133.467 36.8911C133.467 50.8927 141.376 57.9635 152.726 57.9635C158.262 57.9635 162.448 56.7075 165.611 54.94V45.6362C162.449 47.218 158.82 48.195 154.215 48.195C149.702 48.195 145.702 46.6132 145.19 41.1242H167.938C167.938 40.5191 168.031 38.1003 168.031 36.984ZM145.051 32.5649C145.051 27.3084 148.261 25.1219 151.191 25.1219C154.029 25.1219 157.052 27.3084 157.052 32.5649H145.051Z" fill="#6772E5"/>
  </g>
  <defs>
  <clipPath id="clip0_506_13871">
  <rect width="167.464" height="70" fill="white" transform="translate(0.566406 0.976562)"/>
  </clipPath>
  </defs>
</svg>
