<svg width="71" height="71" viewBox="0 0 71 71" fill="none" xmlns="http://www.w3.org/2000/svg">
  <g clip-path="url(#clip0_508_15230)">
  <path d="M0.00390625 35.071V0.0710449H70.0039V70.071H0.00390625" fill="#007ACC"/>
  <path d="M15.3516 35.1937V38.0462H24.4516V63.9462H30.9091V38.0462H40.0091V35.2462C40.0091 33.6711 40.0091 32.3936 39.9391 32.3586C39.9391 32.3061 34.3916 32.2886 27.6541 32.2886L15.4041 32.3411V35.2112L15.3516 35.1937ZM56.2491 32.2711C58.0341 32.6911 59.3991 33.4961 60.6241 34.7737C61.2716 35.4737 62.2341 36.6987 62.3041 37.0137C62.3041 37.1187 59.2766 39.1662 57.4391 40.3037C57.3691 40.3562 57.0891 40.0587 56.8091 39.6037C55.8991 38.3087 54.9716 37.7487 53.5191 37.6437C51.4191 37.5037 50.0191 38.6062 50.0191 40.4437C50.0191 41.0037 50.1241 41.3187 50.3341 41.7737C50.8066 42.7362 51.6816 43.3137 54.3941 44.5037C59.3991 46.6562 61.5691 48.0737 62.8816 50.1037C64.3691 52.3787 64.7016 55.9487 63.7041 58.6262C62.5841 61.5487 59.8541 63.5262 55.9516 64.1737C54.7266 64.3837 51.9266 64.3487 50.6141 64.1212C47.8141 63.5962 45.1366 62.1962 43.4916 60.3937C42.8441 59.6937 41.6016 57.8212 41.6716 57.6987L42.3366 57.2787L44.9616 55.7562L46.9391 54.6012L47.3941 55.2137C47.9716 56.1237 49.2666 57.3487 50.0191 57.7687C52.2941 58.9412 55.3391 58.7837 56.8441 57.4187C57.4916 56.8237 57.7716 56.1937 57.7716 55.3187C57.7716 54.5137 57.6491 54.1462 57.2466 53.5337C56.6866 52.7637 55.5666 52.1337 52.4166 50.7337C48.7941 49.1937 47.2541 48.2137 45.8191 46.7087C44.9966 45.7987 44.2441 44.3812 43.8941 43.2087C43.6316 42.1937 43.5441 39.7087 43.7891 38.7112C44.5416 35.2112 47.1841 32.7611 50.9641 32.0611C52.1891 31.8161 55.0766 31.9211 56.2841 32.2361L56.2491 32.2711Z" fill="white"/>
  </g>
  <defs>
  <clipPath id="clip0_508_15230">
  <rect width="70" height="70" fill="white" transform="translate(0.00390625 0.0710449)"/>
  </clipPath>
  </defs>
</svg>
