<svg id="full" width="21" height="20" viewBox="0 0 21 20" fill="none" xmlns="http://www.w3.org/2000/svg">
  <g clip-path="url(#clip0)">
    <path d="M5.42847 19.9293C4.23906 19.8752 3.59294 19.6772 3.16319 19.5096C2.59375 19.2879 2.18777 19.024 1.76039 18.5972C1.33301 18.1704 1.0685 17.7644 0.847974 17.195C0.680352 16.7652 0.482414 16.1191 0.428323 14.9297C0.368883 13.644 0.356995 13.2582 0.356995 10.0009C0.356995 6.74354 0.370072 6.35837 0.427729 5.07148C0.48182 3.88207 0.680946 3.23714 0.84738 2.80619C1.06909 2.23675 1.3336 1.83077 1.75979 1.4028C2.18658 0.976016 2.59256 0.71091 3.16259 0.490385C3.59235 0.322763 4.23847 0.124825 5.42788 0.0707344C6.71417 0.0118881 7.10054 0 10.3567 0C13.614 0 13.9992 0.0130769 15.2861 0.0707344C16.4755 0.124825 17.1204 0.323952 17.5514 0.490385C18.1208 0.71091 18.5268 0.976016 18.9542 1.4028C19.3816 1.82958 19.6449 2.23616 19.8666 2.8056C20.0342 3.23536 20.2322 3.88147 20.2863 5.07088C20.3451 6.35777 20.357 6.74295 20.357 10.0003C20.357 13.2565 20.3451 13.6428 20.2863 14.9297C20.2322 16.1191 20.033 16.7652 19.8666 17.195C19.6449 17.7644 19.381 18.1704 18.9542 18.5972C18.5274 19.024 18.1208 19.2879 17.5514 19.5096C17.1216 19.6772 16.4755 19.8752 15.2861 19.9293C14.0004 19.9881 13.614 20 10.3567 20C7.10054 20 6.71417 19.9887 5.42847 19.9293Z" fill="#363636"/>
    <path d="M7.90147 10.0426C7.90147 8.67484 9.00998 7.56574 10.3778 7.56574C11.7456 7.56574 12.8547 8.67484 12.8547 10.0426C12.8547 11.4104 11.7456 12.5195 10.3778 12.5195C9.00998 12.5195 7.90147 11.4104 7.90147 10.0426ZM6.56251 10.0426C6.56251 12.1498 8.2706 13.8579 10.3778 13.8579C12.4849 13.8579 14.193 12.1498 14.193 10.0426C14.193 7.93546 12.4849 6.22737 10.3778 6.22737C8.2706 6.22737 6.56257 7.93534 6.56257 10.0426H6.56251ZM13.4525 6.0761C13.4524 6.25244 13.5047 6.42484 13.6026 6.57151C13.7005 6.71817 13.8397 6.83251 14.0026 6.90006C14.1655 6.96761 14.3447 6.98533 14.5177 6.951C14.6907 6.91667 14.8496 6.83181 14.9743 6.70717C15.0991 6.58252 15.1841 6.42369 15.2185 6.25075C15.253 6.07781 15.2354 5.89853 15.168 5.73558C15.1006 5.57263 14.9864 5.43333 14.8398 5.3353C14.6932 5.23727 14.5208 5.18491 14.3445 5.18484H14.3441C14.1077 5.18495 13.8811 5.27888 13.7139 5.44599C13.5467 5.61309 13.4527 5.83972 13.4525 6.0761ZM7.37601 16.0906C6.65161 16.0576 6.25788 15.9369 5.99622 15.835C5.64932 15.7 5.40181 15.5391 5.14158 15.2792C4.88135 15.0194 4.72027 14.7721 4.58581 14.4252C4.48381 14.1637 4.36315 13.7698 4.33022 13.0454C4.29419 12.2622 4.287 12.0269 4.287 10.0427C4.287 8.05856 4.29479 7.82395 4.33022 7.0401C4.36321 6.3157 4.48476 5.92262 4.58581 5.66031C4.72086 5.31341 4.88171 5.0659 5.14158 4.80567C5.40145 4.54544 5.64873 4.38436 5.99622 4.2499C6.25776 4.1479 6.65161 4.02724 7.37601 3.99431C8.1592 3.95829 8.39447 3.95109 10.3778 3.95109C12.3611 3.95109 12.5966 3.95876 13.3804 3.99443C14.1048 4.02741 14.4979 4.14897 14.7602 4.25002C15.1071 4.38447 15.3546 4.54592 15.6148 4.80579C15.8751 5.06566 16.0356 5.31353 16.1706 5.66043C16.2726 5.92197 16.3933 6.31582 16.4262 7.04022C16.4622 7.82407 16.4694 8.05868 16.4694 10.0429C16.4694 12.0271 16.4622 12.2617 16.4262 13.0455C16.3932 13.7699 16.272 14.1637 16.1706 14.4253C16.0356 14.7722 15.8747 15.0197 15.6148 15.2794C15.355 15.539 15.1071 15.7001 14.7602 15.8351C14.4987 15.9371 14.1048 16.0578 13.3804 16.0907C12.5972 16.1267 12.362 16.1339 10.3778 16.1339C8.39358 16.1339 8.15897 16.1267 7.37601 16.0907V16.0906ZM7.31449 2.65755C6.52352 2.69357 5.98302 2.81899 5.511 3.00266C5.02246 3.19233 4.60834 3.4468 4.19481 3.85967C3.78128 4.27255 3.52747 4.68673 3.33779 5.17587C3.15412 5.64818 3.0287 6.18838 2.99268 6.97936C2.95607 7.77158 2.94769 8.02486 2.94769 10.0426C2.94769 12.0604 2.95607 12.3137 2.99268 13.1059C3.0287 13.8969 3.15412 14.4371 3.33779 14.9094C3.52747 15.3979 3.78134 15.8129 4.19481 16.2256C4.60828 16.6383 5.02187 16.8924 5.511 17.0826C5.98391 17.2663 6.52352 17.3917 7.31449 17.4277C8.10713 17.4637 8.35999 17.4727 10.3778 17.4727C12.3955 17.4727 12.6488 17.4643 13.441 17.4277C14.2321 17.3917 14.7722 17.2663 15.2445 17.0826C15.7331 16.8924 16.1472 16.6385 16.5607 16.2256C16.9743 15.8127 17.2275 15.3979 17.4177 14.9094C17.6014 14.4371 17.7274 13.8969 17.7629 13.1059C17.7989 12.3131 17.8073 12.0604 17.8073 10.0426C17.8073 8.02486 17.7989 7.77158 17.7629 6.97936C17.7268 6.18832 17.6014 5.64789 17.4177 5.17587C17.2275 4.68733 16.9736 4.2732 16.5607 3.85967C16.1479 3.44614 15.7331 3.19233 15.2451 3.00266C14.7722 2.81899 14.232 2.69297 13.4416 2.65755C12.6493 2.62135 12.3961 2.61255 10.3787 2.61255C8.36118 2.61255 8.10743 2.62093 7.31479 2.65755" fill="white"/>
  </g>
  <defs>
    <clipPath id="clip0">
      <rect width="20" height="20" fill="white" transform="translate(0.356995)"/>
    </clipPath>
  </defs>
</svg>
