<svg id="full" width="21" height="20" viewBox="0 0 21 20" fill="none" xmlns="http://www.w3.org/2000/svg">
  <g clip-path="url(#clip0)">
    <path d="M0 2.32347C0 1.65006 0.235697 1.0945 0.70707 0.656809C1.17844 0.219092 1.79125 0.000244141 2.54545 0.000244141C3.2862 0.000244141 3.88551 0.215718 4.34343 0.646708C4.8148 1.09115 5.0505 1.67026 5.0505 2.38408C5.0505 3.03054 4.82155 3.56925 4.36363 4.00024C3.89226 4.44468 3.27272 4.6669 2.50505 4.6669H2.48484C1.7441 4.6669 1.14479 4.44468 0.686868 4.00024C0.228949 3.55579 0 2.99686 0 2.32347ZM0.262626 20.0002V6.50528H4.74747V20.0002H0.262626ZM7.23231 20.0002H11.7172V12.4649C11.7172 11.9935 11.771 11.6298 11.8788 11.374C12.0673 10.916 12.3535 10.5288 12.7374 10.2123C13.1212 9.89584 13.6027 9.7376 14.1818 9.7376C15.6902 9.7376 16.4444 10.7544 16.4444 12.7881V20.0002H20.9293V12.2628C20.9293 10.2696 20.4579 8.7578 19.5151 7.7275C18.5724 6.6972 17.3266 6.18205 15.7778 6.18205C14.0404 6.18205 12.6868 6.92952 11.7172 8.42447V8.46488H11.6969L11.7172 8.42447V6.50528H7.23231C7.25924 6.93625 7.27272 8.27631 7.27272 10.5255C7.27272 12.7746 7.25924 15.9329 7.23231 20.0002Z" fill="#363636"/>
  </g>
  <defs>
    <clipPath id="clip0">
      <rect width="20.9293" height="20" fill="white"/>
    </clipPath>
  </defs>
</svg>
