<svg id="full" width="225" height="51" viewBox="0 0 225 51" fill="none" xmlns="http://www.w3.org/2000/svg">
  <g clip-path="url(#clip0)">
    <circle cx="25.6451" cy="26.2782" r="19.9461" fill="url(#paint0_linear)" fill-opacity="0.1"/>
    <path fill-rule="evenodd" clip-rule="evenodd" d="M13.8987 37.0796C13.8724 37.0744 13.8587 37.0716 13.8587 37.0716C13.8587 37.0716 12.6719 31.5521 14.8279 29.3961C15.2918 28.9322 15.8963 28.681 16.5591 28.5949L17.5043 29.5401C17.4644 29.565 17.4215 29.5842 17.3789 29.6035C17.3081 29.6354 17.2377 29.6671 17.1812 29.7235C15.6623 31.2425 16.9149 34.0154 16.9149 34.0154C16.9149 34.0154 16.9264 34.0206 16.9484 34.0299L13.8987 37.0796ZM20.589 30.3894L17.2118 27.0122L18.6046 23.6503L10.3025 24.5738C10.3025 24.5738 12.3342 18.4773 14.3673 16.4442C15.9784 14.8331 20.2036 15.0549 22.2939 15.2763C22.3304 15.235 22.3667 15.1934 22.403 15.1519C22.5323 15.0041 22.6617 14.856 22.8003 14.7174C32.8597 4.65802 44.0368 6.89344 44.0368 6.89344C44.0368 6.89344 44.0395 6.90711 44.0444 6.93394L36.2368 14.7416C36.2288 14.7335 36.2209 14.7254 36.2128 14.7174C34.9778 13.4823 32.9771 13.4823 31.742 14.7174C30.5069 15.9525 30.5069 17.9532 31.742 19.1882C31.75 19.1963 31.7581 19.2042 31.7662 19.2122L20.589 30.3894Z" fill="#377DFF"/>
    <path fill-rule="evenodd" clip-rule="evenodd" d="M13.8987 37.0796C13.9039 37.106 13.9068 37.1197 13.9068 37.1197C13.9068 37.1197 19.4262 38.3065 21.5823 36.1504C22.0461 35.6866 22.2974 35.0821 22.3834 34.4193L21.4382 33.474C21.4134 33.514 21.3941 33.5568 21.3749 33.5995C21.343 33.6702 21.3113 33.7406 21.2548 33.7971C19.7358 35.3161 16.963 34.0634 16.963 34.0634C16.963 34.0634 16.9578 34.0519 16.9484 34.0299L13.8987 37.0796ZM20.589 30.3894L23.9661 33.7665L27.328 32.3738L26.4046 40.6758C26.4046 40.6758 32.501 38.6441 34.5342 36.611C36.1452 35 35.9234 30.7747 35.7021 28.6845C35.7434 28.648 35.7849 28.6117 35.8264 28.5753C35.9743 28.4461 36.1223 28.3166 36.2609 28.178C46.3203 18.1186 44.0849 6.94153 44.0849 6.94153C44.0849 6.94153 44.0712 6.93879 44.0444 6.93394L36.2368 14.7416C36.2449 14.7495 36.2529 14.7575 36.2609 14.7655C37.496 16.0006 37.496 18.0013 36.2609 19.2363C35.0259 20.4714 33.0252 20.4714 31.7901 19.2363C31.7821 19.2283 31.7741 19.2202 31.7662 19.2122L20.589 30.3894Z" fill="#326EDD"/>
  </g>
  <path d="M70.3069 17.7545C70.5087 18.8943 70.7665 20.1139 71.0804 21.4132C71.4167 22.6898 71.7754 24.0005 72.1566 25.3455C72.5602 26.6676 72.9749 27.9783 73.4009 29.2777C73.8493 30.577 74.2978 31.7966 74.7462 32.9364C75.1273 32.0701 75.5309 31.0216 75.9569 29.7906C76.3829 28.5368 76.8089 27.2261 77.2349 25.8584C77.6609 24.4678 78.0532 23.0773 78.412 21.6868C78.7931 20.2734 79.107 18.9627 79.3536 17.7545H81.506C80.6989 21.2195 79.8133 24.388 78.8492 27.2603C77.9075 30.1325 76.8649 32.8566 75.7215 35.4325H73.67C73.3337 34.6347 72.9749 33.7456 72.5938 32.7654C72.2351 31.7624 71.8539 30.7024 71.4503 29.5854C71.0692 28.4457 70.688 27.2603 70.3069 26.0293C69.9481 24.7756 69.6006 23.499 69.2643 22.1997C68.928 23.499 68.5693 24.7756 68.1881 26.0293C67.8294 27.2603 67.4482 28.4457 67.0447 29.5854C66.6635 30.7024 66.2823 31.7624 65.9012 32.7654C65.5425 33.7456 65.1949 34.6347 64.8586 35.4325H62.7735C61.63 32.8566 60.5763 30.1325 59.6122 27.2603C58.6705 24.388 57.7961 21.2195 56.989 17.7545H59.3095C59.5561 18.9627 59.8588 20.2734 60.2175 21.6868C60.5987 23.0773 61.0023 24.4678 61.4283 25.8584C61.8543 27.2261 62.2802 28.5254 62.7062 29.7564C63.1547 30.9874 63.5694 32.036 63.9506 32.9022C64.3766 31.7624 64.8026 30.5428 65.2286 29.2435C65.677 27.9441 66.0918 26.6334 66.4729 25.3113C66.8541 23.9891 67.2128 22.6898 67.5491 21.4132C67.8854 20.1139 68.1769 18.8943 68.4235 17.7545H70.3069Z" fill="#363636"/>
  <path d="M84.1424 26.5764C84.1424 25.0263 84.3554 23.6814 84.7814 22.5416C85.2298 21.379 85.8015 20.4102 86.4966 19.6352C87.214 18.8601 88.0212 18.2902 88.918 17.9255C89.8373 17.538 90.7789 17.3442 91.743 17.3442C93.873 17.3442 95.5658 18.0509 96.8213 19.4642C98.0993 20.8775 98.7383 23.0545 98.7383 25.9951C98.7383 26.1775 98.7271 26.3599 98.7047 26.5422C98.7047 26.7246 98.6935 26.8956 98.671 27.0551H86.4629C86.5302 29.2207 87.0571 30.8848 88.0436 32.0474C89.0301 33.2099 90.5996 33.7912 92.752 33.7912C93.9403 33.7912 94.8819 33.6772 95.577 33.4493C96.272 33.2213 96.7765 33.0276 97.0904 32.868L97.4939 34.7828C97.1801 34.9652 96.5859 35.1817 95.7115 35.4325C94.8595 35.6833 93.8506 35.8086 92.6847 35.8086C91.1601 35.8086 89.8597 35.5807 88.7835 35.1248C87.7073 34.6688 86.8217 34.0306 86.1266 33.2099C85.4316 32.3893 84.9271 31.4205 84.6132 30.3035C84.2993 29.1637 84.1424 27.9214 84.1424 26.5764ZM96.485 25.1745C96.4402 23.328 96.0142 21.8919 95.207 20.8661C94.3999 19.8403 93.2564 19.3274 91.7767 19.3274C90.9919 19.3274 90.2857 19.487 89.6579 19.8061C89.0525 20.1253 88.5144 20.5584 88.0436 21.1055C87.5952 21.6298 87.2365 22.2453 86.9674 22.9519C86.7208 23.6586 86.575 24.3994 86.5302 25.1745H96.485Z" fill="#363636"/>
  <path d="M106.502 26.4396C106.502 28.2633 106.928 29.6994 107.78 30.748C108.632 31.7738 109.809 32.2867 111.311 32.2867C111.962 32.2867 112.511 32.2639 112.959 32.2183C113.43 32.1499 113.811 32.0815 114.103 32.0132V21.7551C113.744 21.5044 113.262 21.2764 112.657 21.0713C112.074 20.8433 111.446 20.7293 110.773 20.7293C109.293 20.7293 108.206 21.2422 107.511 22.268C106.838 23.2938 106.502 24.6844 106.502 26.4396ZM118.172 34.8854C117.365 35.1362 116.345 35.3641 115.112 35.5693C113.901 35.7744 112.623 35.877 111.278 35.877C109.888 35.877 108.643 35.6605 107.545 35.2273C106.446 34.7942 105.504 34.1787 104.72 33.3809C103.957 32.5603 103.363 31.58 102.937 30.4403C102.534 29.2777 102.332 27.9783 102.332 26.5422C102.332 25.1289 102.5 23.8523 102.836 22.7126C103.195 21.55 103.711 20.5584 104.383 19.7377C105.056 18.9171 105.874 18.2902 106.838 17.8571C107.802 17.4012 108.912 17.1732 110.168 17.1732C111.02 17.1732 111.771 17.2758 112.421 17.481C113.071 17.6861 113.632 17.9141 114.103 18.1648V9.5823L118.172 8.89844V34.8854Z" fill="#363636"/>
  <path d="M122.366 26.5764C122.366 25.0035 122.59 23.6244 123.039 22.439C123.509 21.2536 124.126 20.2734 124.888 19.4984C125.651 18.7005 126.525 18.1079 127.512 17.7203C128.498 17.31 129.507 17.1048 130.538 17.1048C132.96 17.1048 134.843 17.8685 136.188 19.3958C137.556 20.9231 138.24 23.2027 138.24 26.2345C138.24 26.4624 138.229 26.7246 138.206 27.0209C138.206 27.2945 138.195 27.5452 138.173 27.7732H126.57C126.682 29.2093 127.175 30.3263 128.05 31.1241C128.946 31.8992 130.236 32.2867 131.917 32.2867C132.904 32.2867 133.801 32.1955 134.608 32.0132C135.437 31.8308 136.087 31.637 136.558 31.4319L137.096 34.817C136.872 34.931 136.558 35.0564 136.155 35.1931C135.774 35.3071 135.325 35.4097 134.809 35.5009C134.316 35.6149 133.778 35.706 133.195 35.7744C132.612 35.8428 132.018 35.877 131.413 35.877C129.866 35.877 128.52 35.6491 127.377 35.1931C126.234 34.7144 125.292 34.0648 124.552 33.2441C123.812 32.4007 123.263 31.4205 122.904 30.3035C122.545 29.1637 122.366 27.9214 122.366 26.5764ZM134.171 24.73C134.171 24.1601 134.092 23.6244 133.935 23.1229C133.778 22.5986 133.543 22.1541 133.229 21.7893C132.937 21.4018 132.567 21.1055 132.119 20.9003C131.693 20.6724 131.177 20.5584 130.572 20.5584C129.944 20.5584 129.395 20.6838 128.924 20.9345C128.453 21.1625 128.05 21.4702 127.713 21.8577C127.399 22.2453 127.153 22.6898 126.973 23.1913C126.794 23.6928 126.671 24.2057 126.604 24.73H134.171Z" fill="#363636"/>
  <path d="M147.061 35.4325C145.94 33.0846 144.785 30.3947 143.597 27.3629C142.431 24.3083 141.366 21.0371 140.402 17.5494H144.74C144.987 18.5524 145.267 19.6352 145.581 20.7977C145.917 21.9375 146.265 23.0887 146.624 24.2513C147.005 25.391 147.386 26.508 147.767 27.6022C148.171 28.6736 148.541 29.6424 148.877 30.5087C149.213 29.6424 149.572 28.6736 149.953 27.6022C150.334 26.508 150.704 25.391 151.063 24.2513C151.444 23.0887 151.803 21.9375 152.139 20.7977C152.476 19.6352 152.767 18.5524 153.014 17.5494H157.218C156.253 21.0371 155.177 24.3083 153.989 27.3629C152.823 30.3947 151.68 33.0846 150.559 35.4325H147.061Z" fill="#363636"/>
  <path d="M158.887 26.5764C158.887 25.0035 159.111 23.6244 159.56 22.439C160.031 21.2536 160.647 20.2734 161.41 19.4984C162.172 18.7005 163.046 18.1079 164.033 17.7203C165.019 17.31 166.028 17.1048 167.06 17.1048C169.481 17.1048 171.364 17.8685 172.71 19.3958C174.077 20.9231 174.761 23.2027 174.761 26.2345C174.761 26.4624 174.75 26.7246 174.728 27.0209C174.728 27.2945 174.716 27.5452 174.694 27.7732H163.091C163.203 29.2093 163.697 30.3263 164.571 31.1241C165.468 31.8992 166.757 32.2867 168.439 32.2867C169.425 32.2867 170.322 32.1955 171.129 32.0132C171.959 31.8308 172.609 31.637 173.08 31.4319L173.618 34.817C173.393 34.931 173.08 35.0564 172.676 35.1931C172.295 35.3071 171.846 35.4097 171.331 35.5009C170.838 35.6149 170.299 35.706 169.716 35.7744C169.134 35.8428 168.539 35.877 167.934 35.877C166.387 35.877 165.042 35.6491 163.898 35.1931C162.755 34.7144 161.813 34.0648 161.073 33.2441C160.333 32.4007 159.784 31.4205 159.425 30.3035C159.067 29.1637 158.887 27.9214 158.887 26.5764ZM170.692 24.73C170.692 24.1601 170.613 23.6244 170.456 23.1229C170.299 22.5986 170.064 22.1541 169.75 21.7893C169.459 21.4018 169.089 21.1055 168.64 20.9003C168.214 20.6724 167.699 20.5584 167.093 20.5584C166.465 20.5584 165.916 20.6838 165.445 20.9345C164.974 21.1625 164.571 21.4702 164.235 21.8577C163.921 22.2453 163.674 22.6898 163.495 23.1913C163.315 23.6928 163.192 24.2057 163.125 24.73H170.692Z" fill="#363636"/>
  <path d="M185.197 35.7744C183.986 35.7516 182.977 35.6149 182.17 35.3641C181.385 35.1134 180.757 34.76 180.286 34.3041C179.816 33.8254 179.479 33.2441 179.277 32.5603C179.098 31.8536 179.008 31.0557 179.008 30.1667V9.5823L183.078 8.89844V29.3803C183.078 29.8818 183.111 30.3035 183.179 30.6454C183.268 30.9874 183.414 31.2837 183.616 31.5345C183.818 31.7624 184.087 31.9448 184.423 32.0815C184.782 32.1955 185.23 32.2867 185.768 32.3551L185.197 35.7744Z" fill="#363636"/>
  <path d="M204.967 26.4738C204.967 27.8872 204.766 29.1751 204.362 30.3377C203.958 31.5003 203.387 32.4919 202.647 33.3125C201.907 34.1332 201.01 34.7714 199.956 35.2273C198.925 35.6832 197.782 35.9112 196.526 35.9112C195.27 35.9112 194.127 35.6832 193.096 35.2273C192.064 34.7714 191.179 34.1332 190.439 33.3125C189.699 32.4919 189.116 31.5003 188.69 30.3377C188.286 29.1751 188.085 27.8872 188.085 26.4738C188.085 25.0605 188.286 23.784 188.69 22.6442C189.116 21.4816 189.699 20.49 190.439 19.6694C191.201 18.8487 192.098 18.2218 193.129 17.7887C194.161 17.3328 195.293 17.1048 196.526 17.1048C197.759 17.1048 198.891 17.3328 199.923 17.7887C200.977 18.2218 201.873 18.8487 202.613 19.6694C203.353 20.49 203.925 21.4816 204.328 22.6442C204.754 23.784 204.967 25.0605 204.967 26.4738ZM200.797 26.4738C200.797 24.6958 200.416 23.2938 199.654 22.268C198.914 21.2194 197.871 20.6952 196.526 20.6952C195.181 20.6952 194.127 21.2194 193.365 22.268C192.625 23.2938 192.255 24.6958 192.255 26.4738C192.255 28.2747 192.625 29.6994 193.365 30.748C194.127 31.7966 195.181 32.3209 196.526 32.3209C197.871 32.3209 198.914 31.7966 199.654 30.748C200.416 29.6994 200.797 28.2747 200.797 26.4738Z" fill="#363636"/>
  <path d="M220.83 26.5764C220.83 24.73 220.415 23.2938 219.585 22.268C218.778 21.2422 217.467 20.7293 215.651 20.7293C215.269 20.7293 214.866 20.7521 214.44 20.7977C214.036 20.8205 213.633 20.8889 213.229 21.0029V31.2267C213.588 31.4775 214.059 31.7168 214.642 31.9448C215.247 32.1499 215.886 32.2525 216.559 32.2525C218.038 32.2525 219.115 31.7396 219.787 30.7138C220.482 29.688 220.83 28.3089 220.83 26.5764ZM225 26.508C225 27.8758 224.821 29.1295 224.462 30.2693C224.126 31.4091 223.632 32.3893 222.982 33.2099C222.332 34.0306 221.514 34.6688 220.527 35.1248C219.563 35.5807 218.464 35.8086 217.231 35.8086C216.402 35.8086 215.639 35.706 214.944 35.5009C214.249 35.2957 213.678 35.0678 213.229 34.817V41.7583H209.16V18.1306C209.989 17.9027 211.009 17.6861 212.22 17.481C213.431 17.2758 214.709 17.1732 216.054 17.1732C217.444 17.1732 218.689 17.3898 219.787 17.8229C220.886 18.256 221.816 18.8829 222.579 19.7035C223.363 20.5014 223.957 21.4816 224.361 22.6442C224.787 23.784 225 25.0719 225 26.508Z" fill="#363636"/>
  <defs>
    <linearGradient id="paint0_linear" x1="19.3129" y1="44.0081" x2="28.8111" y2="13.614" gradientUnits="userSpaceOnUse">
      <stop offset="0.411458" stop-color="#363636"/>
      <stop offset="1" stop-color="#ACC7F8"/>
    </linearGradient>
    <clipPath id="clip0">
      <rect width="50.6569" height="50.6569" fill="white"/>
    </clipPath>
  </defs>
</svg>
