<svg width="255" height="250" viewBox="0 0 255 250" fill="none" xmlns="http://www.w3.org/2000/svg">
<path opacity="0.2" d="M230.531 134.54C230.531 70.9076 179.025 19.3236 115.49 19.3236C51.9553 19.3236 0.449585 70.9076 0.449585 134.54C0.449585 198.173 51.9553 249.757 115.49 249.757C179.025 249.757 230.531 198.173 230.531 134.54Z" stroke="#363636" stroke-width="0.351807"/>
<path d="M238.331 126.006C238.331 62.7576 187.137 11.4868 123.988 11.4868C60.8393 11.4868 9.64483 62.7576 9.64483 126.006C9.64483 189.254 60.8393 240.525 123.988 240.525C187.137 240.525 238.331 189.254 238.331 126.006Z" stroke="#E1E1E1" stroke-width="1.74669"/>
<circle r="98.5479" transform="matrix(1 0 0 -1 127.011 123.836)" fill="white"/>
<g opacity="0.3" filter="url(#filter0_f_16:1453)">
<circle r="5.2771" transform="matrix(1 0 0 -1 27.8772 230.936)" fill="#8224E3"/>
</g>
<path d="M99.209 83.8833L87.5215 98.8208L82.084 94.0083L79.459 97.0083L86.459 103.258L88.0215 104.633L89.334 102.946L102.334 86.3833L99.209 83.8833ZM110.771 93.1333V97.1333H164.771V93.1333H110.771ZM99.209 139.883L87.5215 154.821L82.084 150.008L79.459 153.008L86.459 159.258L88.0215 160.633L89.334 158.946L102.334 142.383L99.209 139.883ZM110.771 149.133V153.133H164.771V149.133H110.771Z" fill="#363636"/>
<path d="M87.5215 126.821L99.209 111.883L102.334 114.383L89.334 130.946L88.0215 132.633L86.459 131.258L79.459 125.008L82.084 122.008L87.5215 126.821Z" fill="url(#paint0_linear_16:1453)"/>
<path d="M110.771 125.133V121.133H164.771V125.133H110.771Z" fill="url(#paint1_linear_16:1453)"/>
<defs>
<filter id="filter0_f_16:1453" x="17.323" y="220.382" width="21.1084" height="21.1084" filterUnits="userSpaceOnUse" color-interpolation-filters="sRGB">
<feFlood flood-opacity="0" result="BackgroundImageFix"/>
<feBlend mode="normal" in="SourceGraphic" in2="BackgroundImageFix" result="shape"/>
<feGaussianBlur stdDeviation="2.63855" result="effect1_foregroundBlur_16:1453"/>
</filter>
<linearGradient id="paint0_linear_16:1453" x1="79.2046" y1="124.502" x2="101.457" y2="84.2897" gradientUnits="userSpaceOnUse">
<stop stop-color="#6B67E9"/>
<stop offset="1" stop-color="#8224E3"/>
</linearGradient>
<linearGradient id="paint1_linear_16:1453" x1="79.2046" y1="124.502" x2="101.457" y2="84.2897" gradientUnits="userSpaceOnUse">
<stop stop-color="#6B67E9"/>
<stop offset="1" stop-color="#8224E3"/>
</linearGradient>
</defs>
</svg>
