<svg width="247" height="245" viewBox="0 0 247 245" fill="none" xmlns="http://www.w3.org/2000/svg">
<path opacity="0.2" d="M245.003 129.354C245.003 65.7219 193.497 14.1379 129.962 14.1379C66.4269 14.1379 14.9211 65.7219 14.9211 129.354C14.9211 192.987 66.4269 244.571 129.962 244.571C193.497 244.571 245.003 192.987 245.003 129.354Z" stroke="#363636" stroke-width="0.351807"/>
<path d="M230.331 126.006C230.331 62.7576 179.137 11.4868 115.988 11.4868C52.8393 11.4868 1.64483 62.7576 1.64483 126.006C1.64483 189.254 52.8393 240.525 115.988 240.525C179.137 240.525 230.331 189.254 230.331 126.006Z" stroke="#E1E1E1" stroke-width="1.74669"/>
<circle r="98.5479" transform="matrix(1 0 0 -1 119.011 123.836)" fill="white"/>
<g opacity="0.3" filter="url(#filter0_f_16:1467)">
<circle r="5.2771" transform="matrix(1 0 0 -1 216.934 227.479)" fill="#8224E3"/>
</g>
<g clip-path="url(#clip0_16:1467)">
<path d="M118.547 73.1333C108.965 73.1333 101 80.0942 101 88.8481C101 93.0512 102.879 96.8676 105.86 99.6841L105.766 100.145C105.094 102.114 103.442 103.227 102.461 103.582C101.891 103.786 101.418 104.094 101.156 104.633C100.899 105.168 101.055 105.911 101.446 106.297C102.36 107.215 103.547 107.125 104.414 107.133C107.676 107.172 111.52 105.461 113.848 104.297L113.875 104.286L114.672 103.825L114.367 103.731L114.403 103.739C115.699 104.04 117.059 104.133 118.395 104.133C126.821 104.133 134.071 99.0981 135.672 91.852V91.8481C135.887 90.8833 136 89.8794 136 88.8481C136 80.102 128.129 73.1333 118.547 73.1333ZM118.547 75.1333C127.164 75.1333 134 81.3051 134 88.8481C134 89.7348 133.903 90.5942 133.719 91.4184C132.352 97.6059 126.028 102.133 118.395 102.133C117.16 102.133 115.946 102.04 114.86 101.79L114.422 101.661L112.942 102.512C110.731 103.618 106.918 105.165 104.438 105.133C104.098 105.133 104.067 105.067 103.828 105.04C105.25 104.344 106.891 103.082 107.672 100.762L107.688 100.711L108.047 99.0239L107.606 98.6333C104.742 96.1294 103 92.6567 103 88.8481C103 81.313 109.93 75.1333 118.547 75.1333ZM110 82.1333V84.1333H127V82.1333H110ZM110 87.1333V89.1333H127V87.1333H110ZM137.785 91.3286C137.735 91.6489 137.699 91.9692 137.629 92.2856C137.551 92.6294 137.449 92.9653 137.348 93.3051C141.953 95.0825 144.985 98.6645 144.985 102.645C144.985 105.5 143.5 108.168 140.797 110.165L140.254 110.567L140.422 111.223C140.961 113.29 142.852 114.356 144.16 115.067C142.086 115.348 137.578 114.879 135.313 112.2L134.934 111.747L134.356 111.864C133.446 112.043 132.391 112.133 131.125 112.133C124.906 112.133 119.856 109.723 117.891 106.118C117.078 106.102 116.321 106.047 115.61 105.961C117.465 110.875 123.43 114.133 131.125 114.133C132.278 114.133 133.281 114.063 134.184 113.926C136.391 116.161 139.989 117.129 142.903 117.129C143.094 117.129 143.285 117.125 143.469 117.118C145.16 117.04 146.262 116.649 146.75 115.957C146.965 115.645 147.039 115.278 146.953 114.918C146.785 114.204 146.129 113.852 145.219 113.364C144.324 112.879 143.149 112.243 142.598 111.293C145.399 108.981 146.985 105.872 146.985 102.645C146.985 97.7387 143.317 93.3598 137.785 91.3286ZM110 92.1333V94.1333H122V92.1333H110ZM135.016 98.1333C134.516 98.8364 133.965 99.5083 133.36 100.133H138V98.1333H135.016ZM129.59 103.133C128.211 103.961 126.699 104.637 125.094 105.133H138V103.133H129.59Z" fill="url(#paint0_linear_16:1467)"/>
<path fill-rule="evenodd" clip-rule="evenodd" d="M84.0002 108.133C84.0002 103.735 87.6018 100.133 92.0002 100.133C96.3986 100.133 100 103.735 100 108.133C100 112.532 96.3986 116.133 92.0002 116.133C87.6018 116.133 84.0002 112.532 84.0002 108.133ZM148 108.133C148 103.735 151.602 100.133 156 100.133C160.399 100.133 164 103.735 164 108.133C164 112.532 160.399 116.133 156 116.133C151.602 116.133 148 112.532 148 108.133ZM92.0002 118.133C87.6018 118.133 84.0002 121.735 84.0002 126.133L84.0158 144.633C84.0197 144.661 84.0217 144.688 84.0236 144.715C84.0256 144.743 84.0275 144.77 84.0315 144.797C84.3752 148.922 87.8596 152.133 92.0002 152.133H100.977L100.68 154.133H85.8596C83.7971 154.133 82.1252 152.563 82.0002 150.5V122.133C82.008 121.594 81.7971 121.071 81.4143 120.688C81.0315 120.305 80.508 120.094 79.969 120.102C78.8674 120.125 77.9846 121.032 78.0002 122.133V150.61V150.727C78.1643 153.422 79.6955 155.727 81.8908 157.024L80.0158 173.915C79.8908 175.008 80.6799 176 81.7815 176.118C82.8752 176.243 83.8674 175.454 83.9846 174.352L85.7971 158.125C85.8041 158.125 85.8127 158.127 85.8222 158.129C85.8338 158.131 85.8467 158.133 85.8596 158.133H100.078L98.0236 171.836C97.9221 172.508 98.1643 173.18 98.6721 173.633C98.6721 173.633 99.6018 174.407 101.117 175L101.193 175.029L108.5 133.133H140.5L147.291 174.846C148.589 174.274 149.375 173.594 149.375 173.594C149.852 173.141 150.078 172.485 149.977 171.836L147.922 158.133H162.141C162.153 158.133 162.164 158.131 162.176 158.129C162.188 158.127 162.199 158.125 162.211 158.125L164.008 174.352C164.133 175.454 165.125 176.243 166.227 176.125C167.321 176 168.11 175.008 167.992 173.915L166.117 157.024C168.305 155.727 169.836 153.422 170 150.727V150.61V122.133C170.008 121.594 169.797 121.071 169.414 120.688C169.031 120.305 168.508 120.094 167.969 120.102C166.867 120.125 165.985 121.032 166 122.133V150.5C165.875 152.563 164.203 154.133 162.141 154.133H147.321L147.024 152.133H156C160.141 152.133 163.625 148.922 163.969 144.797C163.977 144.743 163.977 144.688 163.977 144.633L164 126.133C164 121.735 160.399 118.133 156 118.133C151.633 118.133 148.477 121.75 148.008 125.915C148 125.985 148 126.055 148 126.133V140.133H145.219L143.977 131.836C143.828 130.86 142.992 130.133 142 130.133H106C105.008 130.133 104.172 130.86 104.024 131.836L102.781 140.133H102.625H100V126.133C100 126.055 100 125.985 99.9924 125.915C99.5236 121.75 96.3674 118.133 92.0002 118.133ZM156 113.133C158.762 113.133 161 110.895 161 108.133C161 105.372 158.762 103.133 156 103.133C153.239 103.133 151 105.372 151 108.133C151 110.895 153.239 113.133 156 113.133ZM97.0002 108.133C97.0002 110.895 94.7616 113.133 92.0002 113.133C89.2388 113.133 87.0002 110.895 87.0002 108.133C87.0002 105.372 89.2388 103.133 92.0002 103.133C94.7616 103.133 97.0002 105.372 97.0002 108.133ZM156.18 122.133C153.93 122.133 152.477 123.758 152.18 126.329V142.133C152.18 143.235 151.281 144.133 150.18 144.133H146L146.602 148.133H156.18C158.274 148.133 159.977 146.563 160.164 144.477L160.18 126.133C160.18 123.899 158.414 122.133 156.18 122.133ZM92.0002 122.133C94.2502 122.133 95.7033 123.758 96.0002 126.329V142.133C96.0002 143.235 96.8986 144.133 98.0002 144.133H102.18L101.578 148.133H92.0002C89.9065 148.133 88.2033 146.563 88.0158 144.477L88.0002 126.133C88.0002 123.899 89.7658 122.133 92.0002 122.133Z" fill="#363636"/>
</g>
<defs>
<filter id="filter0_f_16:1467" x="206.38" y="216.924" width="21.1084" height="21.1084" filterUnits="userSpaceOnUse" color-interpolation-filters="sRGB">
<feFlood flood-opacity="0" result="BackgroundImageFix"/>
<feBlend mode="normal" in="SourceGraphic" in2="BackgroundImageFix" result="shape"/>
<feGaussianBlur stdDeviation="2.63855" result="effect1_foregroundBlur_16:1467"/>
</filter>
<linearGradient id="paint0_linear_16:1467" x1="100.863" y1="99.8889" x2="143.113" y2="80.4777" gradientUnits="userSpaceOnUse">
<stop stop-color="#6B67E9"/>
<stop offset="1" stop-color="#8224E3"/>
</linearGradient>
<clipPath id="clip0_16:1467">
<rect width="92.0004" height="104" fill="white" transform="translate(78 73.1333)"/>
</clipPath>
</defs>
</svg>
