<svg width="247" height="243" viewBox="0 0 247 243" fill="none" xmlns="http://www.w3.org/2000/svg">
<path opacity="0.2" d="M245.002 115.526C245.002 51.8933 193.497 0.309326 129.962 0.309326C66.4266 0.309326 14.9209 51.8933 14.9209 115.526C14.9209 179.159 66.4266 230.743 129.962 230.743C193.497 230.743 245.002 179.159 245.002 115.526Z" stroke="#363636" stroke-width="0.351807"/>
<path d="M230.331 126.006C230.331 62.7576 179.137 11.4868 115.988 11.4868C52.8393 11.4868 1.64483 62.7576 1.64483 126.006C1.64483 189.254 52.8393 240.525 115.988 240.525C179.137 240.525 230.331 189.254 230.331 126.006Z" stroke="#E1E1E1" stroke-width="1.74669"/>
<circle r="98.5479" transform="matrix(1 0 0 -1 119.011 123.836)" fill="white"/>
<g opacity="0.3" filter="url(#filter0_f_16:1474)">
<circle r="5.2771" transform="matrix(1 0 0 -1 230.763 25.2357)" fill="#8224E3"/>
</g>
<path d="M78.7715 77.1333V169.133H150.771V102.321L150.209 101.696L126.209 77.6958L125.584 77.1333H78.7715ZM82.7715 81.1333H122.771V105.133H146.771V165.133H82.7715V81.1333ZM126.771 84.0083L143.896 101.133H126.771V84.0083ZM92.7715 93.1333V97.1333H118.771V93.1333H92.7715ZM92.7715 101.133V105.133H118.771V101.133H92.7715ZM92.7715 109.133V113.133H138.771V109.133H92.7715ZM92.7715 117.133V121.133H138.771V117.133H92.7715ZM92.7715 125.133V129.133H138.771V125.133H92.7715Z" fill="#262626"/>
<path d="M99.709 137.571C100.959 135.711 102.811 134.258 105.084 134.258C106.92 134.258 108.584 135.024 109.521 136.258C110.459 137.493 110.709 138.969 110.709 140.321C110.709 144.485 108.889 147.93 106.834 150.696C109.881 150.407 111.803 148.985 113.146 147.258C113.889 146.305 114.451 145.297 114.959 144.446C115.209 144.016 115.451 143.657 115.771 143.258C116.092 142.86 116.537 142.071 117.834 142.071C118.779 142.071 119.389 142.586 119.709 142.946C120.029 143.305 120.17 143.68 120.334 144.008C120.654 144.657 120.928 145.305 121.146 145.946C121.217 146.149 121.271 146.258 121.334 146.446C121.85 146.063 122.428 145.571 123.146 145.008C124.826 143.696 126.959 142.071 129.771 142.071C130.49 142.063 131.162 142.438 131.529 143.063C131.889 143.688 131.889 144.454 131.529 145.079C131.162 145.704 130.49 146.079 129.771 146.071C128.654 146.071 127.115 147 125.584 148.196C124.818 148.79 124.115 149.399 123.334 149.946C122.553 150.493 121.732 151.133 120.396 151.133C119.139 151.133 118.693 150.352 118.459 150.008C118.225 149.665 118.084 149.368 117.959 149.071C117.787 148.657 117.662 148.25 117.521 147.821C117.139 148.446 116.834 148.969 116.271 149.696C114.35 152.165 111.006 154.883 105.959 154.883C105.107 154.883 104.443 154.422 103.709 154.133C102.514 155.188 100.834 156.821 100.834 156.821C100.256 157.305 99.459 157.422 98.7715 157.125C98.0762 156.829 97.6074 156.172 97.5606 155.422C97.5059 154.672 97.8809 153.961 98.5215 153.571C98.5215 153.571 99.7481 152.336 100.396 151.758C100.193 151.5 99.8809 151.336 99.709 151.071C98.3965 149.04 97.709 146.649 97.709 144.446C97.709 141.821 98.459 139.43 99.709 137.571Z" fill="url(#paint0_linear_16:1474)"/>
<path d="M106.334 138.696C106.123 138.422 105.959 138.258 105.084 138.258C104.646 138.258 103.779 138.625 103.021 139.758C102.264 140.891 101.709 142.61 101.709 144.446C101.709 145.766 102.248 147.586 103.084 148.883C104.975 146.5 106.709 143.508 106.709 140.321C106.709 139.563 106.545 138.969 106.334 138.696Z" fill="white"/>
<defs>
<filter id="filter0_f_16:1474" x="220.209" y="14.6815" width="21.1084" height="21.1084" filterUnits="userSpaceOnUse" color-interpolation-filters="sRGB">
<feFlood flood-opacity="0" result="BackgroundImageFix"/>
<feBlend mode="normal" in="SourceGraphic" in2="BackgroundImageFix" result="shape"/>
<feGaussianBlur stdDeviation="2.63855" result="effect1_foregroundBlur_16:1474"/>
</filter>
<linearGradient id="paint0_linear_16:1474" x1="97.4532" y1="148.263" x2="124.15" y2="130.815" gradientUnits="userSpaceOnUse">
<stop stop-color="#6B67E9"/>
<stop offset="1" stop-color="#8224E3"/>
</linearGradient>
</defs>
</svg>
