<svg width="254" height="251" viewBox="0 0 254 251" fill="none" xmlns="http://www.w3.org/2000/svg">
<path opacity="0.2" d="M231.114 135.275C231.114 71.6423 179.609 20.0583 116.074 20.0583C52.5388 20.0583 1.03308 71.6423 1.03308 135.275C1.03308 198.908 52.5388 250.492 116.074 250.492C179.609 250.492 231.114 198.908 231.114 135.275Z" stroke="#363636" stroke-width="0.351807"/>
<path d="M237.331 126.741C237.331 63.4923 186.137 12.2216 122.988 12.2216C59.8393 12.2216 8.64483 63.4923 8.64483 126.741C8.64483 189.989 59.8393 241.26 122.988 241.26C186.137 241.26 237.331 189.989 237.331 126.741Z" stroke="#E1E1E1" stroke-width="1.74669"/>
<circle r="98.5479" transform="matrix(1 0 0 -1 126.011 124.571)" fill="white"/>
<g opacity="0.3" filter="url(#filter0_f_16:1460)">
<circle r="5.2771" transform="matrix(1 0 0 -1 21.6914 36.8076)" fill="#8224E3"/>
</g>
<path d="M83.3739 87.4251C77.4874 87.5334 73.7271 89.9107 72.1127 93.607C70.5721 97.1262 70.9167 101.571 72.0339 106.168C71.4335 106.871 70.956 107.816 71.1283 109.239C71.3153 110.789 71.7435 111.892 72.3489 112.665C72.6836 113.088 73.1217 113.127 73.5302 113.334C73.7517 114.653 74.1208 115.972 74.6721 117.075C74.9871 117.709 75.3464 118.295 75.6958 118.768C75.8533 118.979 76.0797 119.102 76.2471 119.28C76.2569 120.835 76.2618 122.129 76.1289 123.768C75.7204 124.758 74.7656 125.555 73.2152 126.328C71.6156 127.125 69.5336 127.863 67.4271 128.769C65.3205 129.675 63.1549 130.777 61.4421 132.51C59.7292 134.242 58.5185 136.619 58.3314 139.755L58.2527 141.093H108.81L108.731 139.755C108.544 136.619 107.329 134.242 105.621 132.51C103.913 130.777 101.772 129.675 99.6752 128.769C97.5785 127.863 95.5211 127.125 93.9264 126.328C92.3957 125.56 91.431 124.782 91.0127 123.808C90.8749 122.149 90.8847 120.85 90.8946 119.28C91.0619 119.097 91.2883 118.979 91.4458 118.768C91.7903 118.29 92.1201 117.705 92.4302 117.075C92.9667 115.972 93.3555 114.648 93.5721 113.334C93.9658 113.127 94.3891 113.078 94.7139 112.665C95.3193 111.892 95.7475 110.789 95.9346 109.239C96.1019 107.861 95.6392 106.95 95.0683 106.246C95.6835 104.248 96.471 101.019 96.2102 97.702C96.0675 95.8908 95.6048 94.0844 94.5171 92.5833C93.5228 91.2051 91.9085 90.2011 89.8708 89.7876C88.5468 88.0699 86.1646 87.4251 83.4133 87.4251H83.3739ZM83.4133 89.9451C83.4281 89.9451 83.4379 89.9451 83.4527 89.9451C85.9875 89.955 87.6314 90.6982 88.0989 91.5201L88.4139 92.032L89.0046 92.1108C90.7567 92.3519 91.7608 93.0607 92.4696 94.0401C93.1783 95.0196 93.5721 96.3879 93.6902 97.8989C93.9264 100.921 93.0553 104.44 92.5089 106.089L92.1939 107.073L93.0602 107.585C93.006 107.551 93.5425 107.915 93.4146 108.963C93.2669 110.199 92.9716 110.838 92.7452 111.129C92.5188 111.419 92.4007 111.405 92.3908 111.405L91.3277 111.483L91.2096 112.507C91.0914 113.595 90.6534 114.929 90.1464 115.972C89.8905 116.494 89.6296 116.951 89.3983 117.271C89.167 117.591 88.9258 117.768 89.0439 117.705L88.3746 118.059V118.807C88.3746 120.633 88.3007 122.129 88.4927 124.241V124.398L88.5714 124.556C89.29 126.49 90.9536 127.696 92.7846 128.611C94.6155 129.527 96.7171 130.201 98.6908 131.053C100.664 131.904 102.471 132.923 103.81 134.281C104.873 135.359 105.542 136.787 105.896 138.573H61.1664C61.5208 136.792 62.1853 135.359 63.2533 134.281C64.597 132.923 66.4279 131.904 68.4114 131.053C70.395 130.201 72.4818 129.527 74.3177 128.611C76.1535 127.696 77.8516 126.49 78.5702 124.556L78.6489 124.241C78.8409 122.129 78.7671 120.633 78.7671 118.807V118.059L78.0977 117.705C78.2109 117.764 77.9402 117.591 77.7039 117.271C77.4677 116.951 77.1773 116.494 76.9164 115.972C76.3947 114.929 75.9665 113.585 75.8533 112.507L75.7352 111.483L74.6721 111.405C74.6622 111.405 74.5441 111.419 74.3177 111.129C74.0913 110.838 73.796 110.199 73.6483 108.963C73.5253 107.915 74.0568 107.551 74.0027 107.585L74.8296 107.073L74.5933 106.168C73.4071 101.6 73.2004 97.451 74.4358 94.6308C75.6663 91.8204 78.1764 90.0534 83.4133 89.9451Z" fill="#363636"/>
<path d="M166.374 87.4251C160.487 87.5334 156.727 89.9107 155.113 93.607C153.572 97.1262 153.917 101.571 155.034 106.168C154.433 106.871 153.956 107.816 154.128 109.239C154.315 110.789 154.744 111.892 155.349 112.665C155.684 113.088 156.122 113.127 156.53 113.334C156.752 114.653 157.121 115.972 157.672 117.075C157.987 117.709 158.346 118.295 158.696 118.768C158.853 118.979 159.08 119.102 159.247 119.28C159.257 120.835 159.262 122.129 159.129 123.768C158.72 124.758 157.766 125.555 156.215 126.328C154.616 127.125 152.534 127.863 150.427 128.769C148.32 129.675 146.155 130.777 144.442 132.51C142.729 134.242 141.518 136.619 141.331 139.755L141.253 141.093H191.81L191.731 139.755C191.544 136.619 190.329 134.242 188.621 132.51C186.913 130.777 184.772 129.675 182.675 128.769C180.578 127.863 178.521 127.125 176.926 126.328C175.396 125.56 174.431 124.782 174.013 123.808C173.875 122.149 173.885 120.85 173.895 119.28C174.062 119.097 174.288 118.979 174.446 118.768C174.79 118.29 175.12 117.705 175.43 117.075C175.967 115.972 176.355 114.648 176.572 113.334C176.966 113.127 177.389 113.078 177.714 112.665C178.319 111.892 178.748 110.789 178.935 109.239C179.102 107.861 178.639 106.95 178.068 106.246C178.684 104.248 179.471 101.019 179.21 97.702C179.067 95.8908 178.605 94.0844 177.517 92.5833C176.523 91.2051 174.908 90.2011 172.871 89.7876C171.547 88.0699 169.165 87.4251 166.413 87.4251H166.374ZM166.413 89.9451C166.428 89.9451 166.438 89.9451 166.453 89.9451C168.987 89.955 170.631 90.6982 171.099 91.5201L171.414 92.032L172.005 92.1108C173.757 92.3519 174.761 93.0607 175.47 94.0401C176.178 95.0196 176.572 96.3879 176.69 97.8989C176.926 100.921 176.055 104.44 175.509 106.089L175.194 107.073L176.06 107.585C176.006 107.551 176.543 107.915 176.415 108.963C176.267 110.199 175.972 110.838 175.745 111.129C175.519 111.419 175.401 111.405 175.391 111.405L174.328 111.483L174.21 112.507C174.091 113.595 173.653 114.929 173.146 115.972C172.89 116.494 172.63 116.951 172.398 117.271C172.167 117.591 171.926 117.768 172.044 117.705L171.375 118.059V118.807C171.375 120.633 171.301 122.129 171.493 124.241V124.398L171.571 124.556C172.29 126.49 173.954 127.696 175.785 128.611C177.615 129.527 179.717 130.201 181.691 131.053C183.664 131.904 185.471 132.923 186.81 134.281C187.873 135.359 188.542 136.787 188.896 138.573H144.166C144.521 136.792 145.185 135.359 146.253 134.281C147.597 132.923 149.428 131.904 151.411 131.053C153.395 130.201 155.482 129.527 157.318 128.611C159.154 127.696 160.852 126.49 161.57 124.556L161.649 124.241C161.841 122.129 161.767 120.633 161.767 118.807V118.059L161.098 117.705C161.211 117.764 160.94 117.591 160.704 117.271C160.468 116.951 160.177 116.494 159.916 115.972C159.395 114.929 158.967 113.585 158.853 112.507L158.735 111.483L157.672 111.405C157.662 111.405 157.544 111.419 157.318 111.129C157.091 110.838 156.796 110.199 156.648 108.963C156.525 107.915 157.057 107.551 157.003 107.585L157.83 107.073L157.593 106.168C156.407 101.6 156.2 97.451 157.436 94.6308C158.666 91.8204 161.176 90.0534 166.413 89.9451Z" fill="#363636"/>
<g clip-path="url(#clip0_16:1460)">
<circle cx="152.771" cy="148.133" r="22" fill="white"/>
<path d="M124.674 75.1333C117.314 75.2733 111.914 77.513 108.654 81.813C104.794 86.913 104.074 94.6334 106.514 104.793C105.614 105.893 104.953 107.593 105.213 109.813C105.753 114.233 107.452 116.03 108.912 116.75C109.592 120.21 111.474 124.11 113.314 125.93L113.334 126.872C113.334 128.912 113.354 130.67 113.174 132.93C111.934 135.75 107.874 137.352 103.174 139.192C95.3538 142.272 85.6326 146.091 84.8926 158.231L84.7715 160.352H132.092C131.352 159.092 130.751 157.752 130.271 156.352H89.1543C90.6543 148.412 97.7509 145.63 104.631 142.93C110.111 140.77 115.294 138.734 117.014 134.114L117.131 133.59C117.351 130.97 117.334 128.972 117.334 126.832L117.314 124.993L117.354 123.793L116.271 123.231C115.391 122.651 113.054 118.613 112.674 114.993L112.494 113.352L110.854 113.211C110.594 113.191 109.573 112.472 109.193 109.332C108.993 107.732 109.771 107.153 109.771 107.153L111.053 106.372L110.674 104.954C108.254 95.5936 108.654 88.4309 111.834 84.2309C114.334 80.9709 118.673 79.2533 124.713 79.1333C128.453 79.1333 131.231 80.0733 132.131 81.6333L132.611 82.4926L133.592 82.6333C136.272 83.0133 138.153 84.1537 139.393 86.1137C142.453 91.0537 140.674 100.193 139.154 104.813L138.732 106.313L139.994 107.153C140.014 107.153 140.792 107.732 140.592 109.332C140.232 112.472 139.192 113.191 138.932 113.211L137.291 113.352L137.111 114.993C136.711 118.633 134.454 122.651 133.654 123.211L132.572 123.774V126.852C132.552 128.972 132.531 130.97 132.771 133.59L132.893 134.114C132.973 134.314 133.054 134.511 133.154 134.711C134.154 133.271 135.292 131.931 136.592 130.731V130.711C136.552 129.411 136.552 128.211 136.572 126.891V125.93C138.372 124.09 140.213 120.191 140.893 116.711C142.293 115.991 144.052 114.193 144.572 109.813C144.832 107.633 144.194 105.952 143.314 104.852C144.494 100.892 146.871 90.6122 142.791 84.0122C141.071 81.2322 138.453 79.493 135.033 78.813C133.153 76.433 129.534 75.1333 124.674 75.1333ZM152.893 128.352C141.893 128.352 132.893 137.352 132.893 148.352C132.893 159.352 141.893 168.352 152.893 168.352C163.893 168.352 172.893 159.352 172.893 148.352C172.893 137.352 163.893 128.352 152.893 128.352ZM152.893 132.352C161.693 132.352 168.893 139.552 168.893 148.352C168.893 157.152 161.693 164.352 152.893 164.352C144.093 164.352 136.893 157.152 136.893 148.352C136.893 139.552 144.093 132.352 152.893 132.352ZM163.072 142.36C162.563 142.313 162.035 142.463 161.611 142.817L151.014 151.645L146.307 146.938C145.525 146.156 144.261 146.156 143.479 146.938C142.697 147.72 142.697 148.984 143.479 149.766L149.479 155.766C149.867 156.154 150.379 156.352 150.893 156.352C151.347 156.352 151.8 156.197 152.17 155.887L164.17 145.887C165.018 145.181 165.136 143.919 164.428 143.071C164.074 142.647 163.582 142.406 163.072 142.36Z" fill="url(#paint0_linear_16:1460)"/>
</g>
<defs>
<filter id="filter0_f_16:1460" x="11.1372" y="26.2534" width="21.1084" height="21.1084" filterUnits="userSpaceOnUse" color-interpolation-filters="sRGB">
<feFlood flood-opacity="0" result="BackgroundImageFix"/>
<feBlend mode="normal" in="SourceGraphic" in2="BackgroundImageFix" result="shape"/>
<feGaussianBlur stdDeviation="2.63855" result="effect1_foregroundBlur_16:1460"/>
</filter>
<linearGradient id="paint0_linear_16:1460" x1="84.5087" y1="131.823" x2="168.12" y2="97.0822" gradientUnits="userSpaceOnUse">
<stop stop-color="#6B67E9"/>
<stop offset="1" stop-color="#8224E3"/>
</linearGradient>
<clipPath id="clip0_16:1460">
<rect width="90" height="95" fill="white" transform="translate(84.7715 75.1333)"/>
</clipPath>
</defs>
</svg>
