<svg width="109" height="115" viewBox="0 0 109 115" fill="none" xmlns="http://www.w3.org/2000/svg">
<path opacity="0.2" d="M83.3716 81.5382C83.3716 99.6541 68.7081 114.34 50.62 114.34C32.5319 114.34 17.8684 99.6541 17.8684 81.5382C17.8684 63.4223 32.5319 48.7366 50.62 48.7366C68.7081 48.7366 83.3716 63.4223 83.3716 81.5382Z" stroke="#363636" stroke-width="0.100158"/>
<circle cx="45.2177" cy="78.5677" r="32.8016" fill="white"/>
<circle cx="45.2177" cy="78.5677" r="32.8016" fill="#EAEAEA" fill-opacity="0.3"/>
<g opacity="0.3" filter="url(#filter0_f_1200_4457)">
<circle cx="6.62796" cy="58.4395" r="3.29495" fill="#8224E3"/>
</g>
<path d="M84.8504 87.7472C81.6189 87.7472 78.7336 87.1346 76.1945 85.9095C73.6555 84.6666 71.6402 82.9709 70.1487 80.8225C68.675 78.6563 67.9115 76.1705 67.8582 73.3651H71.2407C71.2939 75.5846 71.9243 77.5466 73.1317 79.2511C74.339 80.9379 75.9548 82.2607 77.979 83.2195C80.0209 84.1783 82.2936 84.6577 84.7971 84.6577C87.5138 84.6577 89.893 84.125 91.9349 83.0597C93.9946 81.9944 95.6015 80.5562 96.7556 78.7451C97.9097 76.9162 98.4868 74.8743 98.4868 72.6194C98.4868 70.2046 97.8564 68.0917 96.5958 66.2806C95.3351 64.4517 93.5773 63.0313 91.3224 62.0192C89.0674 60.9894 86.4484 60.4745 83.4655 60.4745H81.4413V57.385H83.4655C86.0045 57.385 88.2773 56.9233 90.2836 56C92.29 55.059 93.8703 53.7362 95.0244 52.0316C96.1963 50.3271 96.7822 48.3118 96.7822 45.9858C96.7822 43.8019 96.2762 41.8665 95.2641 40.1797C94.252 38.4929 92.8493 37.1701 91.056 36.2113C89.2805 35.2525 87.1942 34.7731 84.7971 34.7731C82.4889 34.7731 80.3937 35.2437 78.5116 36.1847C76.6473 37.1258 75.1647 38.4486 74.0638 40.1531C72.963 41.8576 72.4037 43.8374 72.3859 46.0924H69.11C69.1455 43.2692 69.8557 40.7745 71.2407 38.6084C72.6434 36.4422 74.5166 34.7554 76.8604 33.548C79.2219 32.3228 81.8852 31.7103 84.8504 31.7103C87.8689 31.7103 90.5145 32.3406 92.7872 33.6012C95.0777 34.8619 96.8532 36.5664 98.1139 38.7149C99.3923 40.8633 100.032 43.2515 100.032 45.8793C100.032 49.0398 99.1526 51.7476 97.3948 54.0025C95.6547 56.2397 93.2932 57.7934 90.3103 58.6634V58.9564C93.8437 59.7376 96.6402 61.3445 98.6998 63.777C100.759 66.2096 101.789 69.157 101.789 72.6194C101.789 75.4603 101.061 78.026 99.6054 80.3165C98.1494 82.6069 96.143 84.418 93.5862 85.7497C91.0471 87.0814 88.1352 87.7472 84.8504 87.7472Z" fill="#377DFF"/>
<defs>
<filter id="filter0_f_1200_4457" x="0.0380564" y="51.8496" width="13.1797" height="13.1797" filterUnits="userSpaceOnUse" color-interpolation-filters="sRGB">
<feFlood flood-opacity="0" result="BackgroundImageFix"/>
<feBlend mode="normal" in="SourceGraphic" in2="BackgroundImageFix" result="shape"/>
<feGaussianBlur stdDeviation="1.64748" result="effect1_foregroundBlur_1200_4457"/>
</filter>
</defs>
</svg>
