<svg width="133" height="122" viewBox="0 0 133 122" fill="none" xmlns="http://www.w3.org/2000/svg">
<path opacity="0.2" d="M88.1647 86.248C88.1647 105.348 72.7045 120.832 53.6336 120.832C34.5627 120.832 19.1026 105.348 19.1026 86.248C19.1026 67.1478 34.5627 51.6641 53.6336 51.6641C72.7045 51.6641 88.1647 67.1478 88.1647 86.248Z" stroke="#363636" stroke-width="0.105599"/>
<circle cx="47.9373" cy="83.1161" r="34.5838" fill="white"/>
<g opacity="0.3" filter="url(#filter0_f_2001_30139)">
<circle cx="7.25132" cy="61.8944" r="3.47397" fill="#8224E3"/>
</g>
<g filter="url(#filter1_d_2001_30139)">
<path d="M99.4875 102.525C93.8964 102.525 88.9167 101.564 84.5487 99.642C80.2055 97.695 76.7735 95.0243 74.2524 91.6296C71.7564 88.21 70.4709 84.2663 70.396 79.7984H86.7202C86.8201 81.6704 87.4316 83.3178 88.5548 84.7405C89.703 86.1383 91.2256 87.2241 93.1226 87.9979C95.0196 88.7717 97.1537 89.1585 99.525 89.1585C101.996 89.1585 104.18 88.7217 106.077 87.8481C107.974 86.9745 109.459 85.7639 110.533 84.2164C111.606 82.6688 112.143 80.8841 112.143 78.8623C112.143 76.8156 111.568 75.0059 110.42 73.4334C109.297 71.8359 107.675 70.5879 105.553 69.6893C103.456 68.7908 100.96 68.3415 98.0648 68.3415H90.9136V56.4353H98.0648C100.511 56.4353 102.67 56.011 104.542 55.1623C106.439 54.3137 107.912 53.1405 108.96 51.6429C110.008 50.1203 110.533 48.3481 110.533 46.3263C110.533 44.4043 110.071 42.7195 109.147 41.2718C108.249 39.7991 106.976 38.6509 105.328 37.8272C103.706 37.0035 101.809 36.5917 99.6373 36.5917C97.4408 36.5917 95.4314 36.9911 93.6093 37.7898C91.7872 38.5636 90.327 39.6743 89.2288 41.122C88.1305 42.5697 87.5439 44.267 87.469 46.214H71.9311C72.006 41.796 73.2665 37.9021 75.7126 34.5324C78.1588 31.1628 81.4536 28.5294 85.597 26.6324C89.7654 24.7105 94.4705 23.7495 99.7122 23.7495C105.004 23.7495 109.634 24.7105 113.603 26.6324C117.571 28.5544 120.654 31.1503 122.851 34.4201C125.072 37.665 126.17 41.3092 126.145 45.3528C126.17 49.646 124.835 53.2279 122.139 56.0983C119.468 58.9688 115.986 60.7909 111.693 61.5647V62.1637C117.334 62.8876 121.628 64.847 124.573 68.0419C127.543 71.2119 129.016 75.1807 128.991 79.9481C129.016 84.3162 127.755 88.1976 125.209 91.5922C122.688 94.9868 119.206 97.6576 114.763 99.6045C110.32 101.551 105.228 102.525 99.4875 102.525Z" fill="#377DFF"/>
</g>
<defs>
<filter id="filter0_f_2001_30139" x="0.30337" y="54.9464" width="13.8962" height="13.8959" filterUnits="userSpaceOnUse" color-interpolation-filters="sRGB">
<feFlood flood-opacity="0" result="BackgroundImageFix"/>
<feBlend mode="normal" in="SourceGraphic" in2="BackgroundImageFix" result="shape"/>
<feGaussianBlur stdDeviation="1.73699" result="effect1_foregroundBlur_2001_30139"/>
</filter>
<filter id="filter1_d_2001_30139" x="69.3422" y="22.6952" width="62.8492" height="82.9927" filterUnits="userSpaceOnUse" color-interpolation-filters="sRGB">
<feFlood flood-opacity="0" result="BackgroundImageFix"/>
<feColorMatrix in="SourceAlpha" type="matrix" values="0 0 0 0 0 0 0 0 0 0 0 0 0 0 0 0 0 0 127 0" result="hardAlpha"/>
<feOffset dx="1.05433" dy="1.05433"/>
<feGaussianBlur stdDeviation="1.05433"/>
<feComposite in2="hardAlpha" operator="out"/>
<feColorMatrix type="matrix" values="0 0 0 0 0 0 0 0 0 0 0 0 0 0 0 0 0 0 0.5 0"/>
<feBlend mode="normal" in2="BackgroundImageFix" result="effect1_dropShadow_2001_30139"/>
<feBlend mode="normal" in="SourceGraphic" in2="effect1_dropShadow_2001_30139" result="shape"/>
</filter>
</defs>
</svg>
