<svg width="109" height="115" viewBox="0 0 109 115" fill="none" xmlns="http://www.w3.org/2000/svg">
<path opacity="0.2" d="M83.7055 81.5382C83.7055 99.6541 69.0421 114.34 50.954 114.34C32.8659 114.34 18.2024 99.6541 18.2024 81.5382C18.2024 63.4223 32.8659 48.7366 50.954 48.7366C69.0421 48.7366 83.7055 63.4223 83.7055 81.5382Z" stroke="#363636" stroke-width="0.100158"/>
<circle cx="45.5516" cy="78.5677" r="32.8016" fill="white"/>
<circle cx="45.5516" cy="78.5677" r="32.8016" fill="#EAEAEA" fill-opacity="0.3"/>
<g opacity="0.3" filter="url(#filter0_f_1200_5089)">
<circle cx="6.96194" cy="58.4395" r="3.29495" fill="#8224E3"/>
</g>
<path d="M68.1656 87.0015V84.4713L85.8236 64.1233C88.3449 61.2113 90.3424 58.7433 91.8161 56.7191C93.2899 54.695 94.3463 52.8662 94.9855 51.2326C95.6247 49.5991 95.9443 47.8946 95.9443 46.119C95.9443 43.8995 95.4205 41.9375 94.373 40.233C93.3431 38.5107 91.9316 37.1701 90.1382 36.2113C88.3627 35.2525 86.3385 34.7731 84.0658 34.7731C81.6865 34.7731 79.6002 35.2969 77.8069 36.3445C76.0136 37.3921 74.6109 38.8125 73.5988 40.6059C72.6045 42.3992 72.1073 44.4145 72.1073 46.6517H68.8847C68.8847 43.8285 69.5416 41.2895 70.8556 39.0345C72.1695 36.7795 73.9717 34.9951 76.2622 33.6812C78.5704 32.3672 81.1982 31.7103 84.1457 31.7103C87.0399 31.7103 89.6144 32.3406 91.8694 33.6012C94.1244 34.8619 95.8999 36.5842 97.1961 38.7682C98.4923 40.9343 99.1404 43.3846 99.1404 46.119C99.1404 48.1254 98.7941 50.0608 98.1017 51.9251C97.4269 53.7717 96.2639 55.8402 94.6127 58.1307C92.9614 60.4035 90.6798 63.2089 87.7678 66.5469L72.9596 83.619V83.912H101.591V87.0015H68.1656Z" fill="#377DFF"/>
<defs>
<filter id="filter0_f_1200_5089" x="0.372041" y="51.8496" width="13.1797" height="13.1797" filterUnits="userSpaceOnUse" color-interpolation-filters="sRGB">
<feFlood flood-opacity="0" result="BackgroundImageFix"/>
<feBlend mode="normal" in="SourceGraphic" in2="BackgroundImageFix" result="shape"/>
<feGaussianBlur stdDeviation="1.64748" result="effect1_foregroundBlur_1200_5089"/>
</filter>
</defs>
</svg>
