<svg width="67" height="73" viewBox="0 0 67 73" fill="none" xmlns="http://www.w3.org/2000/svg">
<path opacity="0.2" d="M64.1836 42.7876C64.1836 58.9687 51.0862 72.086 34.9299 72.086C18.7736 72.086 5.6762 58.9687 5.6762 42.7876C5.6762 26.6065 18.7736 13.4892 34.9299 13.4892C51.0862 13.4892 64.1836 26.6065 64.1836 42.7876Z" stroke="#363636" stroke-width="0.0682141"/>
<circle cx="30.1042" cy="40.1355" r="29.2878" fill="white"/>
<g opacity="0.3" filter="url(#filter0_f_1964_29288)">
<circle cx="7.47128" cy="13.8873" r="2.94198" fill="#8224E3"/>
</g>
<g filter="url(#filter1_d_1964_29288)">
<path d="M49.7576 43.6534C47.1061 43.6534 44.7446 43.1977 42.6731 42.2862C40.6135 41.3629 38.9859 40.0964 37.7903 38.4865C36.6066 36.8648 35.997 34.9946 35.9615 32.8757H43.7029C43.7503 33.7635 44.0403 34.5447 44.573 35.2195C45.1175 35.8823 45.8395 36.3973 46.7392 36.7642C47.6388 37.1312 48.6509 37.3146 49.7754 37.3146C50.9473 37.3146 51.983 37.1075 52.8826 36.6932C53.7823 36.2789 54.4866 35.7048 54.9956 34.9709C55.5046 34.237 55.7591 33.3906 55.7591 32.4318C55.7591 31.4612 55.4868 30.603 54.9423 29.8572C54.4096 29.0997 53.6402 28.5078 52.6341 28.0817C51.6397 27.6555 50.456 27.4425 49.0829 27.4425H45.6916V21.7962H49.0829C50.243 21.7962 51.2669 21.5949 52.1547 21.1925C53.0543 20.79 53.7527 20.2337 54.2498 19.5234C54.747 18.8014 54.9956 17.9609 54.9956 17.0021C54.9956 16.0907 54.7766 15.2917 54.3386 14.6051C53.9125 13.9067 53.3088 13.3622 52.5275 12.9716C51.7581 12.581 50.8585 12.3857 49.8287 12.3857C48.787 12.3857 47.8341 12.575 46.97 12.9538C46.1059 13.3208 45.4134 13.8475 44.8926 14.5341C44.3717 15.2206 44.0936 16.0256 44.0581 16.9489H36.6895C36.725 14.8537 37.3227 13.0071 38.4828 11.4091C39.6428 9.81108 41.2053 8.56226 43.1703 7.66264C45.1471 6.75118 47.3784 6.29545 49.8642 6.29545C52.3736 6.29545 54.5694 6.75118 56.4515 7.66264C58.3336 8.5741 59.7955 9.80516 60.8372 11.3558C61.8907 12.8946 62.4115 14.6229 62.3997 16.5405C62.4115 18.5765 61.7782 20.2751 60.4998 21.6364C59.2333 22.9976 57.582 23.8617 55.546 24.2287V24.5128C58.2212 24.8561 60.2572 25.7853 61.6539 27.3004C63.0626 28.8037 63.7609 30.6858 63.7491 32.9467C63.7609 35.0182 63.1632 36.8589 61.9558 38.4688C60.7602 40.0786 59.109 41.3452 57.002 42.2685C54.8949 43.1918 52.4802 43.6534 49.7576 43.6534Z" fill="#377DFF"/>
</g>
<defs>
<filter id="filter0_f_1964_29288" x="2.28521" y="8.70123" width="10.372" height="10.372" filterUnits="userSpaceOnUse" color-interpolation-filters="sRGB">
<feFlood flood-opacity="0" result="BackgroundImageFix"/>
<feBlend mode="normal" in="SourceGraphic" in2="BackgroundImageFix" result="shape"/>
<feGaussianBlur stdDeviation="1.12204" result="effect1_foregroundBlur_1964_29288"/>
</filter>
<filter id="filter1_d_1964_29288" x="35.9614" y="6.2959" width="29.8057" height="39.3574" filterUnits="userSpaceOnUse" color-interpolation-filters="sRGB">
<feFlood flood-opacity="0" result="BackgroundImageFix"/>
<feColorMatrix in="SourceAlpha" type="matrix" values="0 0 0 0 0 0 0 0 0 0 0 0 0 0 0 0 0 0 127 0" result="hardAlpha"/>
<feOffset dx="1" dy="1"/>
<feGaussianBlur stdDeviation="0.5"/>
<feColorMatrix type="matrix" values="0 0 0 0 0 0 0 0 0 0 0 0 0 0 0 0 0 0 0.5 0"/>
<feBlend mode="normal" in2="BackgroundImageFix" result="effect1_dropShadow_1964_29288"/>
<feBlend mode="normal" in="SourceGraphic" in2="effect1_dropShadow_1964_29288" result="shape"/>
</filter>
</defs>
</svg>
