<svg id="full" width="69" height="53" viewBox="0 0 69 53" fill="none" xmlns="http://www.w3.org/2000/svg">
  <g clip-path="url(#clip0)">
    <path d="M21.2794 21.0802C21.2794 21.8314 21.3606 22.4405 21.5027 22.8871C21.6651 23.3338 21.8682 23.8211 22.1524 24.3489C22.2539 24.5114 22.2945 24.6738 22.2945 24.8159C22.2945 25.0189 22.1727 25.222 21.9088 25.425L20.6297 26.2777C20.4469 26.3995 20.2642 26.4604 20.1018 26.4604C19.8988 26.4604 19.6957 26.3589 19.4927 26.1762C19.2085 25.8717 18.9648 25.5468 18.7618 25.222C18.5588 24.8768 18.3558 24.4911 18.1324 24.0241C16.5488 25.892 14.5591 26.8259 12.1634 26.8259C10.4579 26.8259 9.09764 26.3386 8.1028 25.3641C7.10796 24.3896 6.60039 23.0902 6.60039 21.4659C6.60039 19.7402 7.20947 18.3393 8.44795 17.2835C9.68642 16.2278 11.331 15.6999 13.4222 15.6999C14.1125 15.6999 14.8231 15.7608 15.5743 15.8623C16.3255 15.9639 17.097 16.1263 17.9091 16.309V14.8269C17.9091 13.2839 17.5842 12.2078 16.9549 11.5784C16.3052 10.949 15.2088 10.6445 13.6455 10.6445C12.9349 10.6445 12.204 10.7257 11.4528 10.9084C10.7016 11.0912 9.97067 11.3145 9.26006 11.5987C8.93522 11.7408 8.69158 11.8221 8.54946 11.8627C8.40734 11.9033 8.30583 11.9236 8.22462 11.9236C7.94038 11.9236 7.79826 11.7205 7.79826 11.2942V10.2993C7.79826 9.97449 7.83886 9.73086 7.94038 9.58874C8.04189 9.44662 8.22462 9.3045 8.50886 9.16238C9.21946 8.79693 10.0722 8.49238 11.067 8.24875C12.0619 7.98481 13.1176 7.86299 14.2343 7.86299C16.6503 7.86299 18.4167 8.41117 19.5536 9.50753C20.6703 10.6039 21.2388 12.2687 21.2388 14.502V21.0802H21.2794ZM13.0364 24.1662C13.7064 24.1662 14.3967 24.0444 15.1276 23.8008C15.8585 23.5571 16.5082 23.1105 17.0564 22.5014C17.3812 22.1156 17.6249 21.6893 17.7467 21.202C17.8685 20.7147 17.9497 20.1259 17.9497 19.4356V18.5829C17.3609 18.4408 16.7315 18.319 16.0818 18.2378C15.4321 18.1566 14.8028 18.116 14.1734 18.116C12.8131 18.116 11.8182 18.3799 11.1482 18.9281C10.4782 19.4763 10.1534 20.2478 10.1534 21.2629C10.1534 22.2171 10.397 22.9277 10.9046 23.415C11.3919 23.9226 12.1025 24.1662 13.0364 24.1662ZM29.3396 26.3589C28.9742 26.3589 28.7305 26.298 28.5681 26.1559C28.4057 26.0341 28.2636 25.7498 28.1417 25.3641L23.3706 9.66995C23.2487 9.26389 23.1878 8.99996 23.1878 8.85784C23.1878 8.53299 23.3503 8.35026 23.6751 8.35026H25.6648C26.0505 8.35026 26.3145 8.41117 26.4566 8.55329C26.619 8.67511 26.7408 8.95935 26.8627 9.34511L30.2735 22.7856L33.4408 9.34511C33.5423 8.93905 33.6641 8.67511 33.8265 8.55329C33.989 8.43147 34.2732 8.35026 34.6387 8.35026H36.2629C36.6486 8.35026 36.9126 8.41117 37.075 8.55329C37.2374 8.67511 37.3795 8.95935 37.4608 9.34511L40.6686 22.948L44.181 9.34511C44.3028 8.93905 44.4449 8.67511 44.5871 8.55329C44.7495 8.43147 45.0134 8.35026 45.3789 8.35026H47.267C47.5919 8.35026 47.7746 8.51269 47.7746 8.85784C47.7746 8.95935 47.7543 9.06086 47.734 9.18268C47.7137 9.3045 47.6731 9.46692 47.5919 9.69025L42.6989 25.3844C42.5771 25.7905 42.435 26.0544 42.2725 26.1762C42.1101 26.298 41.8462 26.3792 41.501 26.3792H39.755C39.3692 26.3792 39.1053 26.3183 38.9429 26.1762C38.7804 26.0341 38.6383 25.7701 38.5571 25.3641L35.4102 12.2687L32.2835 25.3438C32.182 25.7498 32.0602 26.0138 31.8978 26.1559C31.7353 26.298 31.4511 26.3589 31.0857 26.3589H29.3396ZM55.4288 26.9071C54.3731 26.9071 53.3173 26.7853 52.3022 26.5417C51.287 26.298 50.4952 26.0341 49.9673 25.7295C49.6425 25.5468 49.4192 25.3438 49.3379 25.1611C49.2567 24.9783 49.2161 24.7753 49.2161 24.5926V23.5571C49.2161 23.1308 49.3785 22.9277 49.6831 22.9277C49.8049 22.9277 49.9267 22.948 50.0485 22.9887C50.1704 23.0293 50.3531 23.1105 50.5561 23.1917C51.2464 23.4962 51.9976 23.7399 52.7894 23.9023C53.6015 24.0647 54.3934 24.1459 55.2055 24.1459C56.4846 24.1459 57.4794 23.9226 58.1697 23.4759C58.86 23.0293 59.2254 22.3796 59.2254 21.5471C59.2254 20.9787 59.0427 20.5117 58.6773 20.1259C58.3118 19.7402 57.6215 19.395 56.6267 19.0702L53.6828 18.1566C52.2006 17.6896 51.1043 16.9993 50.4343 16.0857C49.7643 15.1923 49.4192 14.1975 49.4192 13.1417C49.4192 12.289 49.6019 11.5378 49.9673 10.8881C50.3328 10.2384 50.82 9.66995 51.4291 9.22329C52.0382 8.75632 52.7285 8.41117 53.5406 8.16754C54.3528 7.9239 55.2055 7.82239 56.0988 7.82239C56.5455 7.82239 57.0124 7.84269 57.4591 7.9036C57.9261 7.96451 58.3524 8.04572 58.7788 8.12693C59.1848 8.22845 59.5706 8.32996 59.936 8.45178C60.3015 8.57359 60.5857 8.69541 60.7888 8.81723C61.073 8.97965 61.276 9.14208 61.3979 9.3248C61.5197 9.48723 61.5806 9.71056 61.5806 9.9948V10.949C61.5806 11.3754 61.4182 11.5987 61.1136 11.5987C60.9512 11.5987 60.6872 11.5175 60.3421 11.3551C59.1848 10.8272 57.8855 10.5633 56.444 10.5633C55.2867 10.5633 54.3731 10.746 53.7437 11.1318C53.1143 11.5175 52.7894 12.1063 52.7894 12.9387C52.7894 13.5072 52.9925 13.9945 53.3985 14.3802C53.8046 14.766 54.5558 15.1517 55.6318 15.4969L58.5148 16.4105C59.9766 16.8775 61.0324 17.5272 61.6618 18.3596C62.2912 19.192 62.5957 20.1462 62.5957 21.202C62.5957 22.075 62.413 22.8668 62.0678 23.5571C61.7024 24.2474 61.2151 24.8565 60.5857 25.3438C59.9563 25.8514 59.2051 26.2168 58.3321 26.4808C57.4185 26.765 56.4643 26.9071 55.4288 26.9071Z" fill="#252F3E"/>
    <path fill-rule="evenodd" clip-rule="evenodd" d="M59.2659 36.7742C52.5863 41.7078 42.8815 44.3269 34.537 44.3269C22.8425 44.3269 12.3053 40.0024 4.34662 32.8152C3.71723 32.2467 4.28571 31.4752 5.03692 31.9219C13.6453 36.9164 24.2637 39.9415 35.2476 39.9415C42.6581 39.9415 50.7996 38.3985 58.2914 35.2312C59.408 34.7236 60.3623 35.9621 59.2659 36.7742Z" fill="#FF9900"/>
    <path fill-rule="evenodd" clip-rule="evenodd" d="M62.0474 33.607C61.1947 32.5107 56.4032 33.0791 54.2308 33.3431C53.5811 33.4243 53.4796 32.8558 54.0683 32.4295C57.8853 29.7495 64.1589 30.521 64.8898 31.4143C65.6207 32.3279 64.6867 38.6015 61.1134 41.6063C60.5653 42.0733 60.0374 41.8297 60.281 41.2206C61.0931 39.2106 62.9001 34.6831 62.0474 33.607Z" fill="#FF9900"/>
  </g>
<defs>
  <clipPath id="clip0">
    <rect width="67.2727" height="52.1494" fill="white" transform="translate(0.914368)"/>
  </clipPath>
</defs>
</svg>
