<svg width="46" height="53" viewBox="0 0 46 53" fill="none" xmlns="http://www.w3.org/2000/svg">
  <g clip-path="url(#clip0)">
    <path fill-rule="evenodd" clip-rule="evenodd" d="M27.4529 5.97072L38.0267 12.1538C38.332 11.8267 38.6823 11.5459 39.0668 11.3202C41.2597 10.0434 44.0568 10.8015 45.3305 13.0225C46.5913 15.2435 45.8427 18.0761 43.6497 19.3662C43.268 19.5887 42.8568 19.7546 42.4285 19.8586V32.2293C42.8521 32.3335 43.2589 32.4982 43.6367 32.7185C45.8427 34.0085 46.5913 36.8413 45.3175 39.0624C44.0568 41.2832 41.2466 42.0413 39.0536 40.7646C38.6287 40.5178 38.246 40.2031 37.9202 39.8327L27.4107 45.9778C27.5646 46.4498 27.6428 46.9437 27.6422 47.4407C27.6422 49.9942 25.5938 52.0823 23.0593 52.0823C20.5249 52.0823 18.4765 50.0074 18.4765 47.4407C18.4765 46.9845 18.5412 46.5438 18.6618 46.1275L8.0909 39.9463C7.78898 40.2669 7.44359 40.5424 7.06509 40.7646C4.85902 42.0413 2.06191 41.2832 0.80119 39.0624C-0.45935 36.8413 0.289179 34.0085 2.48203 32.7185C2.85979 32.4982 3.26659 32.3334 3.69019 32.2291V19.8586C3.26191 19.7546 2.85064 19.5887 2.46898 19.3662C0.27595 18.0895 -0.472579 15.2435 0.788139 13.0225C2.04886 10.8015 4.85884 10.0434 7.05186 11.3202C7.43428 11.5447 7.78287 11.8237 8.08697 12.1485L18.6638 5.96384C18.5391 5.53526 18.476 5.09073 18.4765 4.64394C18.4765 2.07747 20.5249 0.00256348 23.0593 0.00256348C25.5938 0.00256348 27.6422 2.07729 27.6422 4.64394C27.6422 5.10527 27.5761 5.55049 27.4529 5.97072ZM26.3513 7.87579L36.9503 14.0733C36.7815 14.6708 36.7331 15.2966 36.808 15.9134C36.8828 16.5303 37.0794 17.1255 37.386 17.6639C38.0312 18.8005 39.0822 19.5541 40.2487 19.8478V32.2338C40.1892 32.2485 40.13 32.2646 40.0712 32.2816L26.2281 7.99981C26.27 7.95926 26.3111 7.91798 26.3513 7.87597V7.87579ZM19.8934 8.00253L6.05055 32.284C5.99069 32.2664 5.93049 32.2501 5.86999 32.2351V19.8478C7.03649 19.5541 8.08751 18.8005 8.7327 17.6639C9.03991 17.1245 9.23666 16.528 9.31121 15.9099C9.38575 15.2918 9.33657 14.6649 9.16659 14.0665L19.7626 7.87072C19.8053 7.91544 19.8489 7.95944 19.8934 8.00235V8.00253ZM24.3399 9.10245L38.1796 33.3785C37.8625 33.6848 37.5908 34.0359 37.3727 34.4208C37.1552 34.8034 36.9926 35.2154 36.8897 35.6444H9.22934C9.12632 35.2154 8.96355 34.8034 8.74593 34.4208C8.52711 34.0385 8.2559 33.6896 7.94037 33.3844L21.7827 9.10353C22.1977 9.22455 22.6275 9.28575 23.0593 9.28531C23.504 9.28531 23.9335 9.22158 24.3399 9.10245ZM26.4485 44.3139L36.9787 38.1565C36.9472 38.056 36.919 37.9544 36.8942 37.852H9.22344C9.20878 37.9123 9.19287 37.972 9.17589 38.0316L19.7576 44.2192C20.1849 43.7692 20.6977 43.4114 21.2651 43.1674C21.8326 42.9234 22.4429 42.7982 23.0593 42.7994C23.6974 42.7982 24.3285 42.9324 24.9123 43.1932C25.496 43.4541 26.0193 43.8358 26.4485 44.3139Z" fill="#363636"/>
  </g>
  <defs>
    <clipPath id="clip0">
      <rect width="45.7663" height="52.1494" fill="white" transform="translate(0.17627)"/>
    </clipPath>
  </defs>
</svg>
