<svg id="full" width="46" height="53" viewBox="0 0 46 53" fill="none" xmlns="http://www.w3.org/2000/svg">
  <g clip-path="url(#clip0)">
    <path fill-rule="evenodd" clip-rule="evenodd" d="M27.4528 5.97072L38.0266 12.1538C38.3319 11.8267 38.6822 11.5459 39.0668 11.3202C41.2596 10.0434 44.0567 10.8015 45.3305 13.0225C46.5912 15.2435 45.8427 18.0761 43.6496 19.3662C43.268 19.5887 42.8567 19.7546 42.4284 19.8586V32.2293C42.852 32.3335 43.2588 32.4982 43.6366 32.7185C45.8427 34.0085 46.5912 36.8413 45.3174 39.0624C44.0567 41.2832 41.2466 42.0413 39.0535 40.7646C38.6287 40.5178 38.2459 40.2031 37.9201 39.8327L27.4107 45.9778C27.5646 46.4498 27.6427 46.9437 27.6422 47.4407C27.6422 49.9942 25.5938 52.0823 23.0593 52.0823C20.5248 52.0823 18.4764 50.0074 18.4764 47.4407C18.4764 46.9845 18.5411 46.5438 18.6618 46.1275L8.09084 39.9463C7.78892 40.2669 7.44353 40.5424 7.06503 40.7646C4.85895 42.0413 2.06185 41.2832 0.801129 39.0624C-0.459411 36.8413 0.289118 34.0085 2.48197 32.7185C2.85973 32.4982 3.26653 32.3334 3.69013 32.2291V19.8586C3.26185 19.7546 2.85057 19.5887 2.46892 19.3662C0.275889 18.0895 -0.47264 15.2435 0.788078 13.0225C2.0488 10.8015 4.85878 10.0434 7.0518 11.3202C7.43422 11.5447 7.78281 11.8237 8.08691 12.1485L18.6637 5.96384C18.5391 5.53526 18.476 5.09073 18.4764 4.64394C18.4764 2.07747 20.5248 0.00256348 23.0593 0.00256348C25.5938 0.00256348 27.6422 2.07729 27.6422 4.64394C27.6422 5.10527 27.576 5.55049 27.4528 5.97072ZM26.3512 7.87579L36.9502 14.0733C36.7815 14.6708 36.7331 15.2966 36.8079 15.9134C36.8828 16.5303 37.0793 17.1255 37.3859 17.6639C38.0311 18.8005 39.0821 19.5541 40.2486 19.8478V32.2338C40.1891 32.2485 40.1299 32.2646 40.0711 32.2816L26.2281 7.99981C26.2699 7.95926 26.311 7.91798 26.3512 7.87597V7.87579ZM19.8934 8.00253L6.05049 32.284C5.99063 32.2664 5.93043 32.2501 5.86992 32.2351V19.8478C7.03643 19.5541 8.08744 18.8005 8.73264 17.6639C9.03985 17.1245 9.2366 16.528 9.31114 15.9099C9.38569 15.2918 9.33651 14.6649 9.16653 14.0665L19.7625 7.87072C19.8052 7.91544 19.8488 7.95944 19.8934 8.00235V8.00253ZM24.3398 9.10245L38.1795 33.3785C37.8625 33.6848 37.5907 34.0359 37.3727 34.4208C37.1552 34.8034 36.9925 35.2154 36.8896 35.6444H9.22928C9.12626 35.2154 8.96349 34.8034 8.74587 34.4208C8.52705 34.0385 8.25584 33.6896 7.94031 33.3844L21.7827 9.10353C22.1977 9.22455 22.6274 9.28575 23.0593 9.28531C23.5039 9.28531 23.9335 9.22158 24.3398 9.10245ZM26.4485 44.3139L36.9787 38.1565C36.9471 38.056 36.9189 37.9544 36.8941 37.852H9.22338C9.20872 37.9123 9.19281 37.972 9.17582 38.0316L19.7575 44.2192C20.1848 43.7692 20.6976 43.4114 21.2651 43.1674C21.8325 42.9234 22.4428 42.7982 23.0593 42.7994C23.6973 42.7982 24.3285 42.9324 24.9122 43.1932C25.4959 43.4541 26.0192 43.8358 26.4485 44.3139Z" fill="#E535AB"/>
  </g>
<defs>
  <clipPath id="clip0">
    <rect width="45.7663" height="52.1494" fill="white" transform="translate(0.17627)"/>
  </clipPath>
</defs>
</svg>
