<svg id="full" width="47" height="53" viewBox="0 0 47 53" fill="none" xmlns="http://www.w3.org/2000/svg">
  <path d="M21.3916 6.78015L22.3835 8.90285C22.6065 9.29457 22.848 9.6413 23.1326 9.96421C23.9668 10.9029 24.7444 11.9048 25.46 12.963C27.1406 15.4774 28.2741 18.2697 29.0836 21.2897C29.569 23.1345 29.8327 25.0269 29.8524 26.9405C29.9337 32.6615 28.2125 37.5739 24.7423 41.6565C24.1778 42.3039 23.568 42.8979 22.9189 43.4325C22.5751 43.4325 22.4125 43.1321 22.2708 42.8555C22.0128 42.3426 21.8411 41.7794 21.7645 41.1947C21.6425 40.5025 21.5624 39.8104 21.6019 39.0958V38.7729C21.574 38.7041 21.2709 6.94293 21.3916 6.78015Z" fill="#599636"/>
  <path d="M21.3915 6.71008C21.3508 6.61744 21.3102 6.68758 21.2695 6.73258C21.2893 7.19576 21.1476 7.60866 20.9258 8.00302C20.6819 8.39475 20.359 8.69515 20.035 9.01806C18.2348 10.794 16.8179 12.9392 15.6832 15.3385C14.1734 18.5676 13.3953 22.0282 13.1746 25.6715C13.0736 26.9856 13.5393 31.6228 13.9028 32.9607C14.8946 36.5127 16.6762 39.4889 18.9839 42.0722C19.5507 42.6942 20.1569 43.2712 20.7841 43.8257C20.9664 43.8257 20.9862 43.6404 21.028 43.5028C21.1079 43.2083 21.1689 42.9075 21.2103 42.6029L21.6168 39.1435L21.3915 6.71008Z" fill="#6CAC48"/>
  <path d="M22.3831 44.8377C22.4237 44.3084 22.6467 43.869 22.8894 43.431C22.6455 43.3159 22.4644 43.0869 22.3227 42.8315C22.2005 42.5897 22.0994 42.3348 22.0207 42.0705C21.7373 41.1018 21.6769 40.0855 21.5956 39.0956V38.4961C21.4946 38.5887 21.4737 39.3722 21.4737 39.4886C21.4146 40.5349 21.2927 41.5753 21.109 42.6025C21.0486 43.0181 21.008 43.4323 20.7838 43.8015C20.7838 43.8479 20.7838 43.8942 20.8036 43.963C21.1682 45.1858 21.2681 46.4311 21.3297 47.7002V48.1634C21.3297 48.7166 21.3099 48.6001 21.7129 48.7854C21.8755 48.8542 22.0567 48.878 22.2193 49.0157C22.3413 49.0157 22.361 48.9005 22.361 48.8079L22.3006 48.0469V45.9242C22.2809 45.5537 22.3413 45.1858 22.3819 44.8391L22.3831 44.8377Z" fill="#C2BFBF"/>
</svg>
