<svg width="47" height="53" viewBox="0 0 47 53" fill="none" xmlns="http://www.w3.org/2000/svg">
  <path d="M21.3916 6.78027L22.3835 8.90298C22.6065 9.2947 22.848 9.64142 23.1326 9.96433C23.9668 10.903 24.7444 11.9049 25.46 12.9631C27.1406 15.4775 28.2741 18.2699 29.0836 21.2898C29.569 23.1346 29.8327 25.027 29.8524 26.9407C29.9337 32.6616 28.2125 37.574 24.7423 41.6566C24.1778 42.3041 23.568 42.898 22.9189 43.4326C22.5751 43.4326 22.4125 43.1322 22.2708 42.8556C22.0128 42.3427 21.8411 41.7795 21.7645 41.1948C21.6425 40.5027 21.5624 39.8105 21.6019 39.0959V38.773C21.574 38.7042 21.2709 6.94305 21.3916 6.78027Z" fill="#363636"/>
  <path d="M21.3914 6.70996C21.3508 6.61732 21.3101 6.68746 21.2695 6.73245C21.2892 7.19564 21.1475 7.60853 20.9257 8.0029C20.6818 8.39462 20.3589 8.69503 20.0349 9.01794C18.2348 10.7939 16.8178 12.9391 15.6832 15.3384C14.1733 18.5675 13.3952 22.0281 13.1745 25.6714C13.0735 26.9855 13.5392 31.6226 13.9027 32.9606C14.8946 36.5125 16.6762 39.4888 18.9839 42.0721C19.5506 42.6941 20.1569 43.271 20.784 43.8255C20.9664 43.8255 20.9861 43.6403 21.0279 43.5026C21.1079 43.2081 21.1688 42.9074 21.2103 42.6027L21.6167 39.1434L21.3914 6.70996Z" fill="#4E4D4D"/>
  <path d="M22.383 44.8377C22.4237 44.3084 22.6467 43.869 22.8894 43.431C22.6455 43.3159 22.4643 43.0869 22.3226 42.8315C22.2005 42.5897 22.0993 42.3348 22.0207 42.0705C21.7373 41.1018 21.6769 40.0855 21.5956 39.0956V38.4961C21.4946 38.5887 21.4737 39.3722 21.4737 39.4886C21.4146 40.5349 21.2927 41.5753 21.109 42.6025C21.0486 43.0181 21.0079 43.4323 20.7838 43.8015C20.7838 43.8479 20.7838 43.8942 20.8035 43.963C21.1682 45.1858 21.2681 46.4311 21.3296 47.7002V48.1634C21.3296 48.7166 21.3099 48.6001 21.7129 48.7854C21.8755 48.8542 22.0567 48.878 22.2193 49.0157C22.3412 49.0157 22.361 48.9005 22.361 48.8079L22.3006 48.0469V45.9242C22.2808 45.5537 22.3412 45.1858 22.3819 44.8391L22.383 44.8377Z" fill="#363636"/>
</svg>
