<svg width="47" height="53" viewBox="0 0 47 53" fill="none" xmlns="http://www.w3.org/2000/svg">
  <g clip-path="url(#clip0)">
    <path d="M21.4121 0.662103C22.6883 -0.0748302 24.3504 -0.0781588 25.6254 0.662103C32.0399 4.31885 38.4564 7.96986 44.8698 11.6288C46.0761 12.3143 46.883 13.6688 46.8707 15.0711V37.0714C46.8797 38.5318 45.9931 39.9186 44.7204 40.5886C38.327 44.2251 31.9369 47.8662 25.5446 51.5028C24.2421 52.2541 22.5466 52.1962 21.2847 51.3833C19.368 50.2623 17.448 49.1468 15.531 48.0269C15.1393 47.7913 14.6978 47.6038 14.4212 47.2206C14.6657 46.8881 15.1028 46.8467 15.4581 46.7015C16.2582 46.4448 16.993 46.0328 17.728 45.633C17.9139 45.5047 18.1408 45.5538 18.319 45.6687C19.958 46.6168 21.5826 47.5925 23.2271 48.5315C23.578 48.7359 23.9332 48.4646 24.2331 48.2959C30.507 44.7185 36.7886 41.1546 43.0614 37.5761C43.2938 37.4633 43.4223 37.2144 43.4034 36.9575C43.4078 29.7001 43.4045 22.4413 43.4056 15.1839C43.4322 14.8924 43.2651 14.6245 43.0039 14.5052C36.6326 10.8852 30.2647 7.25974 23.8945 3.63887C23.7842 3.56232 23.6534 3.52125 23.5195 3.52105C23.3856 3.52085 23.2547 3.56154 23.1441 3.63776C16.774 7.25974 10.4071 10.8886 4.03699 14.5083C3.77671 14.6278 3.60202 14.8913 3.633 15.1839C3.6341 22.4413 3.633 29.7001 3.633 36.9586C3.62195 37.084 3.64924 37.2097 3.71118 37.3189C3.77312 37.4281 3.86674 37.5155 3.97943 37.5694C5.67934 38.542 7.38144 39.5077 9.08244 40.4769C10.0407 40.9972 11.2173 41.3064 12.2731 40.9077C13.2048 40.5706 13.8579 39.6114 13.8401 38.6134C13.8489 31.3982 13.8357 24.182 13.8467 16.968C13.8234 16.6477 14.1246 16.3831 14.4333 16.4133C15.25 16.4077 16.0679 16.4022 16.8847 16.4155C17.2256 16.4077 17.4602 16.7526 17.4181 17.0753C17.4148 24.3361 17.4269 31.597 17.4126 38.8578C17.4148 40.7929 16.6268 42.8985 14.8526 43.8453C12.667 44.9876 9.96557 44.7453 7.80632 43.65C5.93705 42.7087 4.1532 41.5979 2.31711 40.5895C1.04117 39.9232 0.158962 38.5309 0.167943 37.0716V15.0711C0.154563 13.6397 0.993516 12.2607 2.23737 11.5852C8.62969 7.94563 15.0209 4.30331 21.4121 0.662103Z" fill="#363636"/>
    <path d="M26.9887 15.902C29.7766 15.721 32.7612 15.7948 35.27 17.1804C37.2124 18.2423 38.2893 20.4709 38.3236 22.648C38.2693 22.9417 37.965 23.1037 37.6872 23.0835C36.8783 23.0824 36.0692 23.0946 35.2603 23.078C34.9172 23.0913 34.7177 22.7721 34.6747 22.466C34.4422 21.4243 33.8792 20.3926 32.9073 19.8902C31.4155 19.1366 29.6857 19.1745 28.0589 19.1902C26.8713 19.2538 25.5943 19.3576 24.5882 20.0622C23.8158 20.5959 23.5812 21.6732 23.8568 22.5409C24.1168 23.1639 24.8296 23.365 25.4129 23.5503C28.7727 24.4368 32.333 24.3486 35.6287 25.5153C36.9932 25.9909 38.328 26.9156 38.795 28.3569C39.4059 30.2886 39.1381 32.5977 37.7759 34.1485C36.6711 35.4246 35.0622 36.1192 33.4574 36.4965C31.3225 36.9767 29.107 36.9889 26.939 36.7757C24.9004 36.5412 22.7789 36.0009 21.2051 34.5995C19.8593 33.4206 19.202 31.5837 19.2673 29.8108C19.2829 29.5114 19.5783 29.3026 19.8626 29.3272C20.6772 29.3206 21.4918 29.3183 22.3063 29.3283C22.6317 29.3048 22.8729 29.5885 22.8896 29.8979C23.0399 30.8904 23.4096 31.9321 24.2674 32.5205C25.923 33.5981 28.0003 33.5243 29.8959 33.5545C31.4664 33.4842 33.2294 33.4629 34.511 32.4157C35.1872 31.8184 35.3875 30.819 35.2048 29.9593C35.0068 29.2335 34.2542 28.8952 33.6079 28.674C30.2911 27.6155 26.691 27.9996 23.4063 26.8026C22.0728 26.3271 20.7833 25.4282 20.271 24.0461C19.5561 22.0899 19.8837 19.6703 21.3887 18.1718C22.8562 16.6813 24.9746 16.1073 26.9887 15.9018V15.902Z" fill="#363636"/>
  </g>
  <defs>
    <clipPath id="clip0">
      <rect width="46.9344" height="52.1494" fill="white" transform="translate(0.057312)"/>
    </clipPath>
  </defs>
</svg>
