<svg id="full" width="47" height="53" viewBox="0 0 47 53" fill="none" xmlns="http://www.w3.org/2000/svg">
  <g clip-path="url(#clip0)">
    <path d="M21.4121 0.661981C22.6883 -0.0749522 24.3504 -0.0782809 25.6254 0.661981C32.0399 4.31873 38.4564 7.96974 44.8698 11.6287C46.0761 12.3142 46.883 13.6686 46.8707 15.0709V37.0713C46.8797 38.5317 45.9931 39.9184 44.7204 40.5884C38.327 44.225 31.9369 47.866 25.5446 51.5026C24.2421 52.254 22.5466 52.1961 21.2847 51.3832C19.368 50.2621 17.448 49.1467 15.531 48.0268C15.1393 47.7912 14.6978 47.6036 14.4212 47.2205C14.6657 46.888 15.1028 46.8465 15.4581 46.7014C16.2582 46.4447 16.993 46.0327 17.728 45.6329C17.9139 45.5045 18.1408 45.5537 18.319 45.6686C19.958 46.6167 21.5826 47.5924 23.2271 48.5314C23.578 48.7358 23.9332 48.4645 24.2331 48.2958C30.507 44.7184 36.7886 41.1545 43.0614 37.576C43.2938 37.4632 43.4223 37.2143 43.4034 36.9574C43.4078 29.6999 43.4045 22.4412 43.4056 15.1837C43.4322 14.8923 43.2651 14.6243 43.0039 14.5051C36.6326 10.8851 30.2647 7.25962 23.8945 3.63875C23.7842 3.5622 23.6534 3.52113 23.5195 3.52093C23.3856 3.52073 23.2547 3.56142 23.1441 3.63764C16.774 7.25962 10.4071 10.8884 4.03699 14.5082C3.77671 14.6277 3.60202 14.8912 3.633 15.1837C3.6341 22.4412 3.633 29.6999 3.633 36.9585C3.62195 37.0838 3.64924 37.2096 3.71118 37.3188C3.77312 37.428 3.86674 37.5154 3.97943 37.5693C5.67934 38.5419 7.38144 39.5075 9.08244 40.4767C10.0407 40.9971 11.2173 41.3063 12.2731 40.9076C13.2048 40.5705 13.8579 39.6113 13.8401 38.6132C13.8489 31.3981 13.8357 24.1819 13.8467 16.9679C13.8234 16.6476 14.1246 16.383 14.4333 16.4131C15.25 16.4076 16.0679 16.402 16.8847 16.4153C17.2256 16.4076 17.4602 16.7525 17.4181 17.0752C17.4148 24.336 17.4269 31.5969 17.4126 38.8577C17.4148 40.7928 16.6268 42.8984 14.8526 43.8452C12.667 44.9875 9.96557 44.7452 7.80632 43.6499C5.93705 42.7086 4.1532 41.5978 2.31711 40.5894C1.04117 39.9231 0.158962 38.5308 0.167943 37.0715V15.0709C0.154563 13.6396 0.993516 12.2606 2.23737 11.5851C8.62969 7.94551 15.0209 4.30319 21.4121 0.661981Z" fill="#8CC84B"/>
    <path d="M26.9887 15.9019C29.7766 15.7209 32.7613 15.7947 35.27 17.1803C37.2124 18.2422 38.2893 20.4707 38.3236 22.6479C38.2693 22.9415 37.9651 23.1035 37.6872 23.0834C36.8783 23.0823 36.0692 23.0945 35.2603 23.0778C34.9172 23.0911 34.7178 22.772 34.6747 22.4659C34.4423 21.4242 33.8792 20.3925 32.9073 19.8901C31.4155 19.1365 29.6857 19.1744 28.059 19.1901C26.8714 19.2537 25.5943 19.3575 24.5882 20.062C23.8158 20.5957 23.5812 21.6731 23.8569 22.5408C24.1168 23.1638 24.8296 23.3648 25.4129 23.5501C28.7727 24.4367 32.3331 24.3485 35.6288 25.5152C36.9932 25.9908 38.328 26.9154 38.795 28.3568C39.406 30.2885 39.1382 32.5975 37.7759 34.1483C36.6712 35.4245 35.0622 36.1191 33.4574 36.4964C31.3226 36.9766 29.107 36.9888 26.939 36.7756C24.9004 36.5411 22.7789 36.0007 21.2051 34.5994C19.8594 33.4205 19.202 31.5836 19.2673 29.8107C19.2829 29.5113 19.5784 29.3025 19.8627 29.3271C20.6772 29.3204 21.4918 29.3182 22.3064 29.3282C22.6317 29.3047 22.8729 29.5884 22.8896 29.8978C23.0399 30.8903 23.4096 31.932 24.2675 32.5204C25.923 33.598 28.0003 33.5242 29.896 33.5543C31.4664 33.4841 33.2294 33.4628 34.511 32.4156C35.1872 31.8182 35.3875 30.8189 35.2048 29.9592C35.0068 29.2333 34.2542 28.8951 33.6079 28.6739C30.2911 27.6154 26.691 27.9995 23.4063 26.8025C22.0728 26.327 20.7834 25.4281 20.271 24.0459C19.5562 22.0898 19.8837 19.6702 21.3888 18.1717C22.8563 16.6812 24.9746 16.1072 26.9887 15.9017V15.9019Z" fill="#8CC84B"/>
  </g>
<defs>
  <clipPath id="clip0">
    <rect width="46.9344" height="52.1494" fill="white" transform="translate(0.057312)"/>
  </clipPath>
</defs>
</svg>
