<svg id="full" width="51" height="53" viewBox="0 0 51 53" fill="none" xmlns="http://www.w3.org/2000/svg">
<g id="technology" clip-path="url(#clip0)">
<path id="Vector" d="M50.5937 32.0468C50.2904 31.1285 49.4959 30.489 48.4684 30.3355C47.9839 30.2632 47.429 30.294 46.7724 30.4293C45.6279 30.6654 44.7788 30.7552 44.1592 30.7726C46.4981 26.8253 48.4 22.3239 49.4949 18.0866C51.2654 11.2349 50.3193 8.11359 49.2137 6.70175C46.2879 2.96475 42.0192 0.957202 36.8694 0.895774C34.1222 0.862197 31.7105 1.40438 30.4524 1.79427C29.2811 1.58767 28.0216 1.47232 26.7001 1.45099C24.2228 1.41149 22.034 1.9513 20.1638 3.06074C19.1283 2.71075 17.4666 2.21735 15.5475 1.90251C11.034 1.16183 7.3962 1.73897 4.73535 3.61794C1.51333 5.89292 0.0196956 9.84561 0.295937 15.3662C0.38367 17.1189 1.36454 22.4519 2.90896 27.5094C3.79657 30.4165 4.74306 32.8305 5.72216 34.6852C7.11067 37.3151 8.59641 38.8638 10.2643 39.42C11.1992 39.7313 12.8977 39.9494 14.6842 38.4621C14.9106 38.7362 15.2128 39.0086 15.6137 39.2616C16.1229 39.5826 16.7455 39.8449 17.3674 40.0003C19.6083 40.5603 21.7074 40.4203 23.4982 39.6353C23.5093 39.9537 23.5178 40.2579 23.5249 40.5206C23.5367 40.9466 23.5486 41.3644 23.5642 41.7551C23.6703 44.3967 23.8501 46.4506 24.3829 47.8877C24.4121 47.9667 24.4514 48.0872 24.4929 48.215C24.7587 49.0284 25.2031 50.3901 26.3337 51.4565C27.5045 52.5612 28.9207 52.8999 30.2177 52.8999C30.8682 52.8999 31.4888 52.8146 32.0332 52.698C33.9736 52.2823 36.1774 51.649 37.7716 49.38C39.2789 47.235 40.0116 44.0042 40.1442 38.9136C40.1614 38.7696 40.1772 38.6322 40.1924 38.5012L40.224 38.2322L40.5791 38.2634L40.6706 38.2695C42.647 38.3596 45.0636 37.9407 46.5477 37.2515C47.7205 36.7076 51.4786 34.7243 50.5937 32.0468Z" fill="black"/>
<path id="Vector_2" d="M47.2144 32.5675C41.3378 33.7793 40.9337 31.7905 40.9337 31.7905C47.1383 22.5877 49.7321 10.906 47.494 8.04693C41.3874 0.248023 30.8169 3.93643 30.6405 4.03203L30.5838 4.0423C29.4227 3.80133 28.1235 3.65794 26.663 3.63404C24.0042 3.59058 21.9871 4.33087 20.4565 5.49108C20.4565 5.49108 1.59981 -2.27406 2.47694 15.2571C2.66348 18.9865 7.82472 43.4767 13.9807 36.0796C16.2307 33.3746 18.4049 31.0875 18.4049 31.0875C19.4845 31.8045 20.7772 32.1703 22.1323 32.039L22.2377 31.9497C22.2049 32.2855 22.2199 32.6139 22.2797 33.0029C20.6938 34.774 21.16 35.0849 17.9897 35.7373C14.7817 36.3982 16.6662 37.5746 17.8966 37.8823C19.3883 38.255 22.8391 38.7832 25.1708 35.5204L25.0779 35.8927C25.6992 36.3903 26.1355 39.1286 26.0624 41.6112C25.9892 44.0936 25.9404 45.7979 26.4299 47.1292C26.9197 48.4604 27.4076 51.4558 31.5753 50.5632C35.0576 49.8172 36.8622 47.8841 37.1134 44.6595C37.2914 42.3671 37.6947 42.706 37.72 40.6564L38.0435 39.6862C38.4163 36.5787 38.1027 35.5761 40.2481 36.0424L40.7697 36.0882C42.3485 36.16 44.4154 35.8342 45.6284 35.2707C48.2403 34.0592 49.7894 32.036 47.214 32.5675H47.2144Z" fill="#336791"/>
<path id="Vector_3" d="M21.5602 16.9247C21.0307 16.851 20.5511 16.9192 20.3085 17.1029C20.1721 17.2062 20.1298 17.3259 20.1184 17.4082C20.0879 17.6265 20.2409 17.8678 20.3349 17.9923C20.6009 18.3446 20.9894 18.5868 21.3739 18.6401C21.4296 18.648 21.4851 18.6516 21.5403 18.6516C22.1815 18.6516 22.7646 18.1525 22.816 17.7841C22.8802 17.3227 22.2101 17.0152 21.5602 16.9249V16.9247ZM39.1037 16.9393C39.0531 16.5777 38.4093 16.4746 37.7984 16.5595C37.1882 16.6444 36.5966 16.9198 36.646 17.2822C36.6855 17.5641 37.1947 18.0452 37.7974 18.0452C37.8484 18.0452 37.8997 18.0418 37.9515 18.0345C38.3538 17.9788 38.649 17.7235 38.7893 17.5763C39.0027 17.3519 39.1264 17.1019 39.1037 16.9393Z" fill="white"/>
<path id="Vector_4" d="M49.1698 32.4297C48.9458 31.7524 48.2245 31.5345 47.0263 31.7818C43.4686 32.5158 42.1945 32.0074 41.7761 31.6995C44.5415 27.4884 46.8165 22.3981 48.0437 17.6488C48.6251 15.3991 48.9462 13.3098 48.9724 11.6068C49.0015 9.73769 48.683 8.36416 48.0262 7.52512C45.378 4.14266 41.4912 2.32828 36.7864 2.2785C33.552 2.24216 30.8192 3.06956 30.2894 3.30223C29.1738 3.02492 27.9576 2.85466 26.6335 2.83293C24.2054 2.79363 22.1065 3.37472 20.3689 4.55922C19.614 4.27835 17.6633 3.60897 15.2778 3.2248C11.1535 2.56115 7.87616 3.06402 5.5374 4.72019C2.74673 6.69654 1.45839 10.2293 1.70796 15.2201C1.79194 16.8992 2.7491 22.0646 4.25953 27.0114C6.24776 33.5223 8.40908 37.2082 10.683 37.9664C10.9492 38.0551 11.2561 38.1171 11.5945 38.1171C12.4241 38.1171 13.4411 37.7435 14.4992 36.4718C15.7898 34.9242 17.1249 33.4142 18.5027 31.9436C19.3967 32.4232 20.3787 32.691 21.3831 32.7179C21.3851 32.7441 21.3877 32.7704 21.39 32.7965C21.2171 33.0026 21.0478 33.2116 20.8822 33.4236C20.1863 34.3067 20.0414 34.4906 17.8013 34.9516C17.164 35.0831 15.4716 35.4317 15.4467 36.6176C15.4198 37.9133 17.4474 38.4575 17.6784 38.5151C18.4834 38.7166 19.2589 38.816 19.9986 38.816C21.7973 38.816 23.3802 38.225 24.6453 37.0816C24.6063 41.7007 24.799 46.2522 25.3538 47.639C25.8083 48.7743 26.9184 51.5488 30.425 51.5486C30.9395 51.5486 31.5058 51.4888 32.1289 51.3552C35.7886 50.5711 37.3778 48.9542 37.9926 45.3897C38.3216 43.4846 38.8861 38.9357 39.1517 36.4955C39.712 36.6703 40.4335 36.7503 41.2134 36.7501C42.84 36.7501 44.717 36.4047 45.8941 35.8586C47.2164 35.2447 49.6026 33.7384 49.1698 32.4297ZM40.4546 15.9411C40.4426 16.6614 40.3434 17.3154 40.2383 17.998C40.125 18.7322 40.008 19.4912 39.9786 20.4126C39.9496 21.3093 40.0616 22.2416 40.1699 23.1433C40.3888 24.9644 40.6135 26.8392 39.7439 28.6891C39.5994 28.4333 39.4707 28.1688 39.3585 27.8973C39.2505 27.6354 39.0157 27.2147 38.6907 26.6324C37.4262 24.3657 34.4652 19.0577 35.981 16.8917C36.4325 16.247 37.5784 15.5842 40.4546 15.9411ZM36.9682 3.73716C41.1838 3.83019 44.5184 5.40656 46.8793 8.42223C48.6901 10.7353 46.6961 21.2604 40.9237 30.3404C40.8657 30.2666 40.8073 30.193 40.7486 30.1197L40.6755 30.0285C42.1672 27.5661 41.8755 25.1297 41.6159 22.9697C41.5092 22.0832 41.4084 21.2459 41.4341 20.4594C41.4606 19.6259 41.5708 18.9109 41.6775 18.2196C41.8086 17.3677 41.9419 16.4862 41.9052 15.4471C41.9326 15.338 41.9437 15.2093 41.9293 15.0564C41.8354 14.0599 40.6973 11.0776 38.3775 8.37838C37.1085 6.90195 35.258 5.24973 32.7313 4.13535C33.8181 3.91018 35.3042 3.70022 36.9682 3.73716ZM13.3794 35.5411C12.2136 36.9423 11.4086 36.6737 11.1438 36.5856C9.4188 36.0104 7.41714 32.3659 5.6524 26.5866C4.12537 21.5859 3.23302 16.5573 3.16228 15.1472C2.93939 10.6877 4.02084 7.57983 6.37679 5.90963C10.211 3.19182 16.5147 4.81856 19.0477 5.64358C19.0114 5.67953 18.9734 5.71311 18.9375 5.74965C14.7808 9.94567 14.8794 17.1147 14.8897 17.553C14.8893 17.7221 14.9035 17.9615 14.9229 18.2907C14.9944 19.4965 15.1276 21.7407 14.7719 24.2822C14.4415 26.6439 15.1699 28.9554 16.7698 30.6242C16.934 30.7951 17.1066 30.9578 17.2869 31.1117C16.5748 31.8741 15.027 33.5601 13.3794 35.5411ZM17.8212 29.6171C16.5317 28.272 15.946 26.4011 16.2142 24.4836C16.5896 21.799 16.4511 19.4608 16.3766 18.2046C16.3661 18.0288 16.3568 17.8747 16.3515 17.7533C16.9587 17.215 19.7727 15.708 21.7795 16.1676C22.6952 16.3772 23.2532 17.0005 23.4852 18.0727C24.6858 23.6234 23.644 25.9369 22.807 27.7962C22.6345 28.1791 22.4715 28.5412 22.3324 28.9157L22.2245 29.2052C21.9514 29.9372 21.6973 30.6179 21.5398 31.2641C20.1689 31.2602 18.8353 30.6748 17.8212 29.6169V29.6171ZM18.0317 37.1029C17.6313 37.003 17.2713 36.8293 17.0601 36.6854C17.2365 36.6024 17.5505 36.4894 18.0951 36.3772C20.7305 35.8351 21.1375 35.4523 22.0263 34.3243C22.23 34.0655 22.461 33.7724 22.7809 33.4153L22.7813 33.4149C23.2577 32.8816 23.4757 32.9721 23.8709 33.136C24.1912 33.2683 24.5032 33.6697 24.6296 34.1113C24.6895 34.3199 24.7567 34.7157 24.5368 35.0239C22.6801 37.6224 19.9746 37.589 18.0317 37.1029ZM31.8238 49.9319C28.5998 50.6225 27.4583 48.9781 26.706 47.0984C26.2205 45.8848 25.9818 40.4125 26.1511 34.3691C26.1533 34.2887 26.1419 34.2111 26.1197 34.138C26.0999 33.9937 26.0698 33.851 26.0296 33.711C25.7779 32.8316 25.1643 32.0961 24.4283 31.7911C24.1358 31.67 23.5992 31.4478 22.9542 31.6128C23.0917 31.0463 23.3302 30.4065 23.5889 29.7138L23.6974 29.4225C23.8195 29.094 23.9728 28.7537 24.1349 28.3934C25.0108 26.4483 26.2104 23.784 24.9085 17.7651C24.4208 15.5107 22.7922 14.4097 20.3234 14.6655C18.8434 14.8186 17.4893 15.4155 16.8139 15.7578C16.6686 15.8312 16.5359 15.9024 16.4118 15.9715C16.6003 13.7001 17.3124 9.45504 19.9764 6.76922C21.6538 5.07849 23.8877 4.24339 26.6094 4.28842C31.9722 4.37612 35.4111 7.12712 37.3519 9.41969C39.0244 11.395 39.93 13.385 40.2914 14.4583C37.5735 14.182 35.7249 14.7182 34.7879 16.0574C32.7493 18.9704 35.9032 24.6241 37.4189 27.3413C37.6969 27.8392 37.9368 28.2696 38.0123 28.4525C38.5059 29.6483 39.1449 30.4466 39.6115 31.0293C39.7545 31.2078 39.8932 31.3811 39.9988 31.5324C39.1756 31.7696 37.6969 32.3177 37.8317 35.0574C37.723 36.4321 36.9502 42.8684 36.5576 45.1424C36.0393 48.1466 34.9334 49.2655 31.8238 49.9321V49.9319ZM45.2809 34.5384C44.4392 34.9288 43.0305 35.2218 41.6924 35.2848C40.2143 35.3539 39.4619 35.1193 39.2848 34.9749C39.2019 33.2675 39.8375 33.0892 40.5103 32.9004C40.6161 32.8707 40.7192 32.8417 40.8188 32.8069C40.8806 32.8573 40.9484 32.9073 41.0227 32.9563C42.2107 33.74 44.3295 33.8245 47.3209 33.2073L47.3537 33.2008C46.9502 33.5778 46.2598 34.0839 45.2809 34.5384Z" fill="white"/>
</g>
<defs>
<clipPath id="clip0">
<rect width="50.5849" height="52.1494" fill="white" transform="translate(0.204773 0.822388)"/>
</clipPath>
</defs>
</svg>
