<svg id="full" width="53" height="53" viewBox="0 0 53 53" fill="none" xmlns="http://www.w3.org/2000/svg">
  <g clip-path="url(#clip0)">
    <path d="M26.2298 0.0146484C13.0242 0.0146484 13.8487 5.76437 13.8487 5.76437L13.8634 11.7213H26.4652V13.5097H8.85812C8.85812 13.5097 0.407867 12.5475 0.407867 25.9253C0.407867 39.3036 7.78346 38.8291 7.78346 38.8291H12.1852V32.6211C12.1852 32.6211 11.9479 25.2159 19.443 25.2159H31.9418C31.9418 25.2159 38.964 25.3298 38.964 18.4019V6.94704C38.964 6.94704 40.0305 0.0146484 26.2298 0.0146484ZM19.2811 4.02054C19.5789 4.02027 19.8738 4.07896 20.149 4.19325C20.4242 4.30755 20.6742 4.4752 20.8848 4.68661C21.0953 4.89803 21.2623 5.14906 21.3762 5.42534C21.49 5.70161 21.5484 5.99772 21.5482 6.29671C21.5484 6.59569 21.49 6.8918 21.3762 7.16808C21.2623 7.44435 21.0953 7.69538 20.8848 7.9068C20.6742 8.11821 20.4242 8.28587 20.149 8.40016C19.8738 8.51445 19.5789 8.57314 19.2811 8.57287C18.9833 8.57314 18.6884 8.51445 18.4132 8.40016C18.1381 8.28587 17.888 8.11821 17.6775 7.9068C17.4669 7.69538 17.2999 7.44435 17.1861 7.16808C17.0722 6.8918 17.0138 6.59569 17.0141 6.29671C17.0138 5.99772 17.0722 5.70161 17.1861 5.42534C17.2999 5.14906 17.4669 4.89803 17.6775 4.68661C17.888 4.4752 18.1381 4.30755 18.4132 4.19325C18.6884 4.07896 18.9833 4.02027 19.2811 4.02054V4.02054Z" fill="url(#paint0_linear)"/>
    <path d="M26.6047 51.9704C39.8103 51.9704 38.9858 46.2207 38.9858 46.2207L38.9711 40.264H26.3691V38.4756H43.9762C43.9762 38.4756 52.4264 39.4378 52.4264 26.0596C52.4264 12.6816 45.0508 13.156 45.0508 13.156H40.6491V19.3638C40.6491 19.3638 40.8864 26.769 33.3912 26.769H20.8925C20.8925 26.769 13.8703 26.6551 13.8703 33.5832V45.0383C13.8703 45.0383 12.804 51.9704 26.6045 51.9704H26.6047ZM33.5534 47.9649C33.2556 47.9652 32.9607 47.9065 32.6855 47.7922C32.4103 47.6779 32.1603 47.5103 31.9497 47.2989C31.7392 47.0875 31.5722 46.8364 31.4583 46.5602C31.3445 46.2839 31.2861 45.9878 31.2863 45.6888C31.286 45.3898 31.3445 45.0937 31.4583 44.8174C31.5721 44.5411 31.7391 44.29 31.9497 44.0786C32.1602 43.8671 32.4103 43.6995 32.6855 43.5852C32.9606 43.4708 33.2556 43.4122 33.5534 43.4124C33.8512 43.4122 34.1461 43.4708 34.4213 43.5851C34.6964 43.6994 34.9465 43.8671 35.157 44.0785C35.3676 44.2899 35.5346 44.5409 35.6484 44.8172C35.7623 45.0935 35.8207 45.3896 35.8204 45.6886C35.8207 45.9876 35.7623 46.2837 35.6484 46.5599C35.5346 46.8362 35.3676 47.0873 35.157 47.2987C34.9465 47.5101 34.6964 47.6777 34.4213 47.792C34.1461 47.9063 33.8512 47.965 33.5534 47.9647V47.9649Z" fill="url(#paint1_linear)"/>
  </g>
  <defs>
    <linearGradient id="paint0_linear" x1="5.40684" y1="4.68777" x2="31.288" y2="30.2082" gradientUnits="userSpaceOnUse">
      <stop stop-color="#387EB8"/>
      <stop offset="1" stop-color="#366994"/>
    </linearGradient>
    <linearGradient id="paint1_linear" x1="21.2298" y1="21.142" x2="49.018" y2="47.306" gradientUnits="userSpaceOnUse">
      <stop stop-color="#FFE052"/>
      <stop offset="1" stop-color="#FFC331"/>
    </linearGradient>
    <clipPath id="clip0">
      <rect width="52.1494" height="52.1494" fill="white" transform="translate(0.378387)"/>
    </clipPath>
  </defs>
</svg>
