<svg width="53" height="53" viewBox="0 0 53 53" fill="none" xmlns="http://www.w3.org/2000/svg">
  <g clip-path="url(#clip0)">
    <path d="M26.2299 0.0146484C13.0243 0.0146484 13.8488 5.76437 13.8488 5.76437L13.8635 11.7213H26.4653V13.5097H8.85823C8.85823 13.5097 0.407974 12.5475 0.407974 25.9253C0.407974 39.3036 7.78357 38.8291 7.78357 38.8291H12.1853V32.6211C12.1853 32.6211 11.948 25.2159 19.4432 25.2159H31.9419C31.9419 25.2159 38.9641 25.3298 38.9641 18.4019V6.94704C38.9641 6.94704 40.0306 0.0146484 26.2299 0.0146484ZM19.2812 4.02054C19.579 4.02027 19.8739 4.07896 20.1491 4.19325C20.4243 4.30755 20.6743 4.4752 20.8849 4.68661C21.0954 4.89803 21.2624 5.14906 21.3763 5.42534C21.4901 5.70161 21.5485 5.99772 21.5483 6.29671C21.5485 6.59569 21.4901 6.8918 21.3763 7.16808C21.2624 7.44436 21.0954 7.69538 20.8849 7.9068C20.6743 8.11821 20.4243 8.28587 20.1491 8.40016C19.8739 8.51445 19.579 8.57314 19.2812 8.57287C18.9834 8.57314 18.6885 8.51445 18.4133 8.40016C18.1382 8.28587 17.8881 8.11821 17.6776 7.9068C17.467 7.69538 17.3 7.44436 17.1862 7.16808C17.0723 6.8918 17.0139 6.59569 17.0142 6.29671C17.0139 5.99772 17.0723 5.70161 17.1862 5.42534C17.3 5.14906 17.467 4.89803 17.6776 4.68661C17.8881 4.4752 18.1382 4.30755 18.4133 4.19325C18.6885 4.07896 18.9834 4.02027 19.2812 4.02054Z" fill="#4E4D4D"/>
    <path d="M26.6048 51.9704C39.8104 51.9704 38.9858 46.2207 38.9858 46.2207L38.9712 40.264H26.3691V38.4756H43.9762C43.9762 38.4756 52.4265 39.4378 52.4265 26.0596C52.4265 12.6816 45.0509 13.156 45.0509 13.156H40.6492V19.3638C40.6492 19.3638 40.8864 26.769 33.3913 26.769H20.8925C20.8925 26.769 13.8703 26.6551 13.8703 33.5832V45.0383C13.8703 45.0383 12.804 51.9704 26.6046 51.9704H26.6048ZM33.5534 47.965C33.2556 47.9652 32.9607 47.9065 32.6855 47.7922C32.4104 47.6779 32.1603 47.5103 31.9498 47.2989C31.7392 47.0875 31.5722 46.8364 31.4584 46.5602C31.3446 46.2839 31.2861 45.9878 31.2864 45.6888C31.2861 45.3898 31.3445 45.0937 31.4583 44.8174C31.5722 44.5411 31.7391 44.29 31.9497 44.0786C32.1603 43.8671 32.4103 43.6995 32.6855 43.5852C32.9607 43.4708 33.2556 43.4122 33.5534 43.4124C33.8512 43.4122 34.1461 43.4708 34.4213 43.5851C34.6965 43.6994 34.9465 43.8671 35.1571 44.0785C35.3677 44.2899 35.5346 44.5409 35.6485 44.8172C35.7623 45.0935 35.8208 45.3896 35.8205 45.6886C35.8208 45.9876 35.7623 46.2837 35.6485 46.56C35.5346 46.8362 35.3677 47.0873 35.1571 47.2987C34.9465 47.5101 34.6965 47.6777 34.4213 47.792C34.1461 47.9063 33.8512 47.965 33.5534 47.9647V47.965Z" fill="#363636"/>
  </g>
  <defs>
    <clipPath id="clip0">
      <rect width="52.1494" height="52.1494" fill="white" transform="translate(0.378387)"/>
    </clipPath>
  </defs>
</svg>
