<svg width="47" height="53" viewBox="0 0 47 53" fill="none" xmlns="http://www.w3.org/2000/svg">
  <g clip-path="url(#clip0)">
    <path d="M46.6707 26.0794C46.6707 23.0476 42.874 20.1743 37.0529 18.3926C38.3962 12.4596 37.7992 7.73926 35.1685 6.22802C34.5621 5.87353 33.8532 5.70562 33.0789 5.70562V7.7859C33.508 7.7859 33.8532 7.86986 34.1424 8.02845C35.4111 8.75608 35.9614 11.5267 35.5323 15.0902C35.4297 15.9671 35.2618 16.8907 35.0566 17.8328C33.2281 17.3851 31.2318 17.0399 29.1329 16.816C27.8735 15.0902 26.5675 13.523 25.2522 12.1517C28.2933 9.32513 31.1479 7.77658 33.0882 7.77658V5.69629C30.5228 5.69629 27.1645 7.5247 23.7689 10.6964C20.3733 7.54336 17.015 5.7336 14.4496 5.7336V7.81389C16.3806 7.81389 19.2445 9.35311 22.2857 12.161C20.9796 13.5323 19.6736 15.0902 18.4329 16.816C16.3247 17.0399 14.3283 17.3851 12.4999 17.8422C12.2854 16.9093 12.1268 16.0044 12.0148 15.1369C11.5764 11.5733 12.1174 8.80273 13.3768 8.06576C13.6567 7.89785 14.0205 7.82322 14.4496 7.82322V5.74293C13.666 5.74293 12.957 5.91085 12.3413 6.26534C9.71998 7.77657 9.13228 12.4875 10.4849 18.4019C4.68252 20.193 0.904419 23.0569 0.904419 26.0794C0.904419 29.1112 4.70117 31.9844 10.5222 33.7662C9.17892 39.6992 9.77595 44.4195 12.4066 45.9307C13.013 46.2852 13.722 46.4531 14.5056 46.4531C17.0709 46.4531 20.4293 44.6247 23.8249 41.453C27.2205 44.606 30.5788 46.4158 33.1442 46.4158C33.9278 46.4158 34.6368 46.2479 35.2525 45.8934C37.8738 44.3821 38.4615 39.6712 37.1089 33.7568C42.8926 31.9751 46.6707 29.1018 46.6707 26.0794ZM34.5248 19.8572C34.1797 21.0606 33.7506 22.3013 33.2655 23.542C32.883 22.7957 32.4819 22.0494 32.0434 21.3031C31.6143 20.5568 31.1572 19.8292 30.7001 19.1202C32.0248 19.3161 33.3028 19.5586 34.5248 19.8572ZM30.2523 29.7922C29.5247 31.0515 28.7784 32.2456 28.0041 33.3557C26.6141 33.477 25.2055 33.5423 23.7876 33.5423C22.3789 33.5423 20.9703 33.477 19.5897 33.365C18.8154 32.2549 18.0598 31.0702 17.3322 29.8201C16.6232 28.5981 15.9795 27.3574 15.3918 26.1073C15.9702 24.8573 16.6232 23.6073 17.3228 22.3852C18.0505 21.1259 18.7967 19.9318 19.571 18.8217C20.961 18.7004 22.3696 18.6351 23.7876 18.6351C25.1962 18.6351 26.6048 18.7004 27.9855 18.8124C28.7597 19.9225 29.5154 21.1072 30.243 22.3572C30.952 23.5793 31.5956 24.82 32.1833 26.07C31.5956 27.3201 30.952 28.5701 30.2523 29.7922ZM33.2655 28.5794C33.7692 29.8295 34.1983 31.0795 34.5528 32.2922C33.3308 32.5907 32.0434 32.8426 30.7094 33.0385C31.1665 32.3202 31.6236 31.5833 32.0527 30.8276C32.4819 30.0813 32.883 29.3257 33.2655 28.5794ZM23.8062 38.5331C22.9387 37.6375 22.0711 36.6394 21.2129 35.5479C22.0524 35.5852 22.9107 35.6132 23.7782 35.6132C24.6551 35.6132 25.5227 35.5946 26.3716 35.5479C25.532 36.6394 24.6645 37.6375 23.8062 38.5331ZM16.8657 33.0385C15.5411 32.8426 14.263 32.6001 13.041 32.3016C13.3861 31.0982 13.8153 29.8575 14.3003 28.6168C14.6828 29.363 15.084 30.1093 15.5224 30.8556C15.9608 31.6019 16.4086 32.3295 16.8657 33.0385ZM23.7596 13.6256C24.6271 14.5212 25.4947 15.5193 26.3529 16.6108C25.5134 16.5735 24.6551 16.5455 23.7876 16.5455C22.9107 16.5455 22.0431 16.5642 21.1942 16.6108C22.0338 15.5193 22.9014 14.5212 23.7596 13.6256ZM16.8564 19.1202C16.3993 19.8385 15.9422 20.5755 15.5131 21.3311C15.0839 22.0774 14.6828 22.8237 14.3003 23.57C13.7966 22.3199 13.3675 21.0699 13.013 19.8572C14.235 19.568 15.5224 19.3161 16.8564 19.1202ZM8.41397 30.7997C5.11164 29.391 2.97538 27.544 2.97538 26.0794C2.97538 24.6148 5.11164 22.7584 8.41397 21.3591C9.21624 21.0139 10.0931 20.7061 10.998 20.4169C11.5297 22.2453 12.2294 24.1483 13.0969 26.098C12.2387 28.0384 11.5484 29.9321 11.026 31.7512C10.1025 31.462 9.22557 31.1448 8.41397 30.7997ZM13.4328 44.1303C12.1641 43.4026 11.6137 40.632 12.0428 37.0685C12.1454 36.1916 12.3133 35.2681 12.5186 34.3259C14.347 34.7736 16.3433 35.1188 18.4423 35.3427C19.7016 37.0685 21.0076 38.6357 22.323 40.007C19.2818 42.8336 16.4273 44.3821 14.4869 44.3821C14.0671 44.3728 13.7126 44.2889 13.4328 44.1303ZM35.5603 37.0218C35.9988 40.5854 35.4577 43.356 34.1983 44.093C33.9185 44.2609 33.5546 44.3355 33.1255 44.3355C31.1945 44.3355 28.3306 42.7963 25.2895 39.9884C26.5955 38.617 27.9015 37.0592 29.1422 35.3334C31.2505 35.1095 33.2468 34.7643 35.0752 34.3072C35.2898 35.2494 35.4577 36.1543 35.5603 37.0218ZM39.1518 30.7997C38.3496 31.1448 37.4727 31.4527 36.5678 31.7418C36.0361 29.9134 35.3364 28.0104 34.4689 26.0607C35.3271 24.1203 36.0174 22.2266 36.5398 20.4075C37.4634 20.6967 38.3402 21.0139 39.1612 21.3591C42.4635 22.7677 44.5998 24.6148 44.5998 26.0794C44.5904 27.544 42.4542 29.4004 39.1518 30.7997Z" fill="#363636"/>
    <path d="M23.7783 30.3427C26.1328 30.3427 28.0415 28.434 28.0415 26.0795C28.0415 23.725 26.1328 21.8163 23.7783 21.8163C21.4238 21.8163 19.5151 23.725 19.5151 26.0795C19.5151 28.434 21.4238 30.3427 23.7783 30.3427Z" fill="#363636"/>
  </g>
  <defs>
    <clipPath id="clip0">
      <rect width="45.7663" height="52.1494" fill="white" transform="translate(0.904419)"/>
    </clipPath>
  </defs>
</svg>
