<svg width="128" height="53" viewBox="0 0 128 53" fill="none" xmlns="http://www.w3.org/2000/svg">
  <path d="M106.307 41.0325V46.2301H115.697C117.621 46.2301 120.923 44.823 121.038 40.889V38.8789C121.038 35.5192 118.281 33.5378 115.697 33.5378H111.016V31.1257H120.291V25.8994H111.39C109.092 25.8994 106.02 27.7947 106.02 31.3267V33.1358C106.02 36.6678 109.064 38.4769 111.39 38.4769C117.851 38.5056 109.839 38.4769 115.812 38.4769V41.0038L106.307 41.0325ZM55.9972 39.7691C55.9972 39.7691 61.0224 39.3383 61.0224 32.8486C61.0224 26.3589 54.9347 25.7559 54.9347 25.7559H43.9654V46.2301H49.4788V41.291L54.2455 46.2301H62.4008L55.9972 39.7691ZM53.8722 35.5766H49.4788V30.8959H53.901C53.901 30.8959 55.1357 31.3554 55.1357 33.2219C55.1357 35.0884 53.8722 35.5766 53.8722 35.5766ZM74.6336 25.8994H69.0341C65.0426 25.8994 63.693 29.5176 63.693 31.2405V46.2301H69.2925V42.6406H74.5474V46.2301H79.9747V31.2405C79.9747 26.8758 76.0119 25.8994 74.6336 25.8994ZM74.5474 36.8401H69.2638V31.8723C69.2638 31.8723 69.2638 30.7524 71.0154 30.7524H72.9394C74.49 30.7524 74.5187 31.8723 74.5187 31.8723V36.8401H74.5474ZM82.5304 25.8994H88.3596V46.2301H82.5304V25.8994ZM96.5436 40.9751V25.8994H90.743V46.2301H104.383V40.9751H96.5436Z" fill="#363636"/>
  <path d="M9.36318 46.23H32.0485C32.0485 46.23 27.7124 26.445 42.0702 18.4333C45.2002 16.9114 55.1645 11.2257 71.475 23.2863C71.9919 22.8555 72.48 22.5109 72.48 22.5109C72.48 22.5109 57.5479 7.60756 40.9216 9.27306C32.5654 10.0197 22.2852 17.6293 16.2549 27.6798C10.2247 37.7302 9.36318 46.23 9.36318 46.23Z" fill="#CC0000"/>
  <path d="M9.36318 46.23H32.0485C32.0485 46.23 27.7124 26.445 42.0702 18.4333C45.2002 16.9114 55.1645 11.2257 71.475 23.2863C71.9919 22.8555 72.48 22.5109 72.48 22.5109C72.48 22.5109 57.5479 7.60756 40.9216 9.27306C32.5654 10.0197 22.2852 17.6293 16.2549 27.6798C10.2247 37.7302 9.36318 46.23 9.36318 46.23Z" fill="#CC0000"/>
  <path d="M9.36318 46.23H32.0485C32.0485 46.23 27.7124 26.445 42.0702 18.4333C45.2002 16.9114 55.1645 11.2257 71.475 23.2863C71.9919 22.8555 72.48 22.5109 72.48 22.5109C72.48 22.5109 57.5479 7.60756 40.9216 9.27306C32.5367 10.0197 22.2565 17.6293 16.2262 27.6797C10.1959 37.7302 9.36318 46.23 9.36318 46.23ZM56.629 10.8811L56.7439 8.95719C56.4855 8.81362 55.7676 8.46903 53.9585 7.95215L53.8436 9.84738C54.7912 10.1632 55.7101 10.5078 56.629 10.8811Z" fill="#363636"/>
  <path d="M53.901 16.9688L53.7862 18.7779C54.7338 18.8066 55.6814 18.9215 56.629 19.1225L56.7439 17.3421C55.7676 17.1411 54.8199 17.0263 53.901 16.9688ZM43.2763 8.00959H43.5634L42.9891 6.25793C42.0989 6.25793 41.18 6.31537 40.2324 6.43023L40.778 8.12445C41.6108 8.0383 42.4435 8.00959 43.2763 8.00959ZM44.6546 18.5769L45.3151 20.5583C46.1478 20.1563 46.9806 19.8117 47.8133 19.5532L47.1816 17.658C46.2053 17.9452 45.3725 18.261 44.6546 18.5769ZM31.6178 11.0247L30.3256 9.04335C29.6077 9.41665 28.8611 9.81867 28.0857 10.2781L29.4067 12.2882C30.1533 11.8288 30.8712 11.398 31.6178 11.0247ZM37.5044 23.9467L38.8828 26.0143C39.371 25.2964 39.9453 24.6359 40.577 23.9755L39.2848 22.0228C38.6244 22.6258 38.0213 23.2863 37.5044 23.9467ZM33.3407 33.1932L35.6667 35.0309C35.7815 33.911 35.9825 32.7911 36.2697 31.6712L34.2022 30.0344C33.8289 31.0969 33.5704 32.1594 33.3407 33.1932ZM20.7633 19.5532L18.7245 17.7729C17.9779 18.4908 17.26 19.2087 16.5995 19.9266L18.8106 21.8218C19.4136 21.0465 20.0741 20.2711 20.7633 19.5532ZM12.0912 32.3891L8.78887 31.1831C8.24327 32.4178 7.64025 33.8536 7.35309 34.6289L10.6554 35.835C11.0287 34.8587 11.6317 33.4516 12.0912 32.3891ZM32.91 40.4869C32.9674 42.0088 33.111 43.2436 33.2545 44.1051L36.7004 45.3398C36.442 44.2199 36.1835 42.9565 36.0112 41.6068L32.91 40.4869Z" fill="#363636"/>
</svg>
