<svg width="312" height="58" viewBox="0 0 312 58" fill="none" xmlns="http://www.w3.org/2000/svg">
<path d="M0.00793457 55.0076C-0.0614929 55.5555 0.326416 56.0559 0.874329 56.1253L9.80295 57.2564C10.3509 57.3259 10.8513 56.938 10.9207 56.39C10.9901 55.8421 10.6022 55.3417 10.0543 55.2723L2.11774 54.2669L3.12317 46.3303C3.1926 45.7824 2.80469 45.282 2.25677 45.2126C1.70886 45.1431 1.20844 45.531 1.13904 46.079L0.00793457 55.0076ZM311 43.6338C311.53 42.7855 311.529 42.7848 311.527 42.7838C311.526 42.783 311.523 42.7816 311.521 42.7799C311.515 42.7765 311.507 42.7715 311.497 42.7651C311.476 42.7521 311.445 42.7331 311.404 42.7082C311.323 42.6583 311.203 42.5847 311.044 42.4886C310.726 42.2964 310.253 42.0142 309.632 41.6517C308.39 40.9267 306.552 39.8804 304.164 38.5904C299.386 36.0107 292.404 32.4558 283.569 28.5473C265.9 20.7312 240.811 11.4953 211.125 5.81799C151.746 -5.53827 73.9279 -2.66008 0.38736 54.3429L1.61264 55.9236C74.5721 -0.628922 151.754 -3.50048 210.75 7.78239C240.252 13.4246 265.194 22.6055 282.76 30.3763C291.541 34.2613 298.477 37.7924 303.213 40.3502C305.581 41.6291 307.4 42.6645 308.624 43.379C309.236 43.7363 309.7 44.0133 310.009 44.2003C310.164 44.2939 310.28 44.3649 310.358 44.4123C310.396 44.436 310.425 44.4537 310.444 44.4654C310.453 44.4712 310.46 44.4756 310.465 44.4784C310.467 44.4797 310.468 44.4807 310.469 44.4814C310.47 44.4819 310.47 44.4821 311 43.6338Z" fill="url(#paint0_linear_16:1450)"/>
<defs>
<linearGradient id="paint0_linear_16:1450" x1="311.924" y1="22.5169" x2="265.654" y2="140.069" gradientUnits="userSpaceOnUse">
<stop stop-color="#6B67E9"/>
<stop offset="1" stop-color="#8224E3"/>
</linearGradient>
</defs>
</svg>
